G75*
%MOIN*%
%OFA0B0*%
%FSLAX25Y25*%
%IPPOS*%
%LPD*%
%AMOC8*
5,1,8,0,0,1.08239X$1,22.5*
%
%ADD10C,0.00000*%
%ADD11C,0.07400*%
%ADD12C,0.05898*%
%ADD13R,0.05898X0.05898*%
%ADD14R,0.05118X0.05906*%
%ADD15R,0.05906X0.05118*%
%ADD16R,0.05200X0.05200*%
%ADD17C,0.05200*%
%ADD18R,0.07874X0.05906*%
%ADD19R,0.07874X0.14961*%
%ADD20C,0.01000*%
%ADD21C,0.03962*%
%ADD22C,0.02000*%
D10*
X0001500Y0001500D02*
X0001500Y0175201D01*
X0156421Y0175201D01*
X0156421Y0001500D01*
X0001500Y0001500D01*
X0005595Y0011500D02*
X0005597Y0011653D01*
X0005603Y0011806D01*
X0005613Y0011959D01*
X0005627Y0012112D01*
X0005645Y0012264D01*
X0005667Y0012416D01*
X0005692Y0012567D01*
X0005722Y0012718D01*
X0005755Y0012867D01*
X0005793Y0013016D01*
X0005834Y0013164D01*
X0005879Y0013310D01*
X0005928Y0013455D01*
X0005981Y0013599D01*
X0006037Y0013742D01*
X0006097Y0013883D01*
X0006161Y0014023D01*
X0006228Y0014160D01*
X0006299Y0014296D01*
X0006373Y0014430D01*
X0006451Y0014562D01*
X0006532Y0014692D01*
X0006617Y0014820D01*
X0006705Y0014946D01*
X0006796Y0015069D01*
X0006890Y0015190D01*
X0006987Y0015309D01*
X0007088Y0015425D01*
X0007191Y0015538D01*
X0007298Y0015648D01*
X0007407Y0015756D01*
X0007518Y0015861D01*
X0007633Y0015963D01*
X0007750Y0016062D01*
X0007870Y0016157D01*
X0007992Y0016250D01*
X0008117Y0016340D01*
X0008243Y0016426D01*
X0008372Y0016509D01*
X0008503Y0016588D01*
X0008636Y0016664D01*
X0008771Y0016737D01*
X0008908Y0016806D01*
X0009047Y0016871D01*
X0009187Y0016933D01*
X0009329Y0016991D01*
X0009472Y0017046D01*
X0009617Y0017097D01*
X0009763Y0017144D01*
X0009910Y0017187D01*
X0010058Y0017226D01*
X0010207Y0017262D01*
X0010357Y0017293D01*
X0010508Y0017321D01*
X0010660Y0017345D01*
X0010812Y0017365D01*
X0010964Y0017381D01*
X0011117Y0017393D01*
X0011270Y0017401D01*
X0011423Y0017405D01*
X0011577Y0017405D01*
X0011730Y0017401D01*
X0011883Y0017393D01*
X0012036Y0017381D01*
X0012188Y0017365D01*
X0012340Y0017345D01*
X0012492Y0017321D01*
X0012643Y0017293D01*
X0012793Y0017262D01*
X0012942Y0017226D01*
X0013090Y0017187D01*
X0013237Y0017144D01*
X0013383Y0017097D01*
X0013528Y0017046D01*
X0013671Y0016991D01*
X0013813Y0016933D01*
X0013953Y0016871D01*
X0014092Y0016806D01*
X0014229Y0016737D01*
X0014364Y0016664D01*
X0014497Y0016588D01*
X0014628Y0016509D01*
X0014757Y0016426D01*
X0014883Y0016340D01*
X0015008Y0016250D01*
X0015130Y0016157D01*
X0015250Y0016062D01*
X0015367Y0015963D01*
X0015482Y0015861D01*
X0015593Y0015756D01*
X0015702Y0015648D01*
X0015809Y0015538D01*
X0015912Y0015425D01*
X0016013Y0015309D01*
X0016110Y0015190D01*
X0016204Y0015069D01*
X0016295Y0014946D01*
X0016383Y0014820D01*
X0016468Y0014692D01*
X0016549Y0014562D01*
X0016627Y0014430D01*
X0016701Y0014296D01*
X0016772Y0014160D01*
X0016839Y0014023D01*
X0016903Y0013883D01*
X0016963Y0013742D01*
X0017019Y0013599D01*
X0017072Y0013455D01*
X0017121Y0013310D01*
X0017166Y0013164D01*
X0017207Y0013016D01*
X0017245Y0012867D01*
X0017278Y0012718D01*
X0017308Y0012567D01*
X0017333Y0012416D01*
X0017355Y0012264D01*
X0017373Y0012112D01*
X0017387Y0011959D01*
X0017397Y0011806D01*
X0017403Y0011653D01*
X0017405Y0011500D01*
X0017403Y0011347D01*
X0017397Y0011194D01*
X0017387Y0011041D01*
X0017373Y0010888D01*
X0017355Y0010736D01*
X0017333Y0010584D01*
X0017308Y0010433D01*
X0017278Y0010282D01*
X0017245Y0010133D01*
X0017207Y0009984D01*
X0017166Y0009836D01*
X0017121Y0009690D01*
X0017072Y0009545D01*
X0017019Y0009401D01*
X0016963Y0009258D01*
X0016903Y0009117D01*
X0016839Y0008977D01*
X0016772Y0008840D01*
X0016701Y0008704D01*
X0016627Y0008570D01*
X0016549Y0008438D01*
X0016468Y0008308D01*
X0016383Y0008180D01*
X0016295Y0008054D01*
X0016204Y0007931D01*
X0016110Y0007810D01*
X0016013Y0007691D01*
X0015912Y0007575D01*
X0015809Y0007462D01*
X0015702Y0007352D01*
X0015593Y0007244D01*
X0015482Y0007139D01*
X0015367Y0007037D01*
X0015250Y0006938D01*
X0015130Y0006843D01*
X0015008Y0006750D01*
X0014883Y0006660D01*
X0014757Y0006574D01*
X0014628Y0006491D01*
X0014497Y0006412D01*
X0014364Y0006336D01*
X0014229Y0006263D01*
X0014092Y0006194D01*
X0013953Y0006129D01*
X0013813Y0006067D01*
X0013671Y0006009D01*
X0013528Y0005954D01*
X0013383Y0005903D01*
X0013237Y0005856D01*
X0013090Y0005813D01*
X0012942Y0005774D01*
X0012793Y0005738D01*
X0012643Y0005707D01*
X0012492Y0005679D01*
X0012340Y0005655D01*
X0012188Y0005635D01*
X0012036Y0005619D01*
X0011883Y0005607D01*
X0011730Y0005599D01*
X0011577Y0005595D01*
X0011423Y0005595D01*
X0011270Y0005599D01*
X0011117Y0005607D01*
X0010964Y0005619D01*
X0010812Y0005635D01*
X0010660Y0005655D01*
X0010508Y0005679D01*
X0010357Y0005707D01*
X0010207Y0005738D01*
X0010058Y0005774D01*
X0009910Y0005813D01*
X0009763Y0005856D01*
X0009617Y0005903D01*
X0009472Y0005954D01*
X0009329Y0006009D01*
X0009187Y0006067D01*
X0009047Y0006129D01*
X0008908Y0006194D01*
X0008771Y0006263D01*
X0008636Y0006336D01*
X0008503Y0006412D01*
X0008372Y0006491D01*
X0008243Y0006574D01*
X0008117Y0006660D01*
X0007992Y0006750D01*
X0007870Y0006843D01*
X0007750Y0006938D01*
X0007633Y0007037D01*
X0007518Y0007139D01*
X0007407Y0007244D01*
X0007298Y0007352D01*
X0007191Y0007462D01*
X0007088Y0007575D01*
X0006987Y0007691D01*
X0006890Y0007810D01*
X0006796Y0007931D01*
X0006705Y0008054D01*
X0006617Y0008180D01*
X0006532Y0008308D01*
X0006451Y0008438D01*
X0006373Y0008570D01*
X0006299Y0008704D01*
X0006228Y0008840D01*
X0006161Y0008977D01*
X0006097Y0009117D01*
X0006037Y0009258D01*
X0005981Y0009401D01*
X0005928Y0009545D01*
X0005879Y0009690D01*
X0005834Y0009836D01*
X0005793Y0009984D01*
X0005755Y0010133D01*
X0005722Y0010282D01*
X0005692Y0010433D01*
X0005667Y0010584D01*
X0005645Y0010736D01*
X0005627Y0010888D01*
X0005613Y0011041D01*
X0005603Y0011194D01*
X0005597Y0011347D01*
X0005595Y0011500D01*
X0005595Y0166500D02*
X0005597Y0166653D01*
X0005603Y0166806D01*
X0005613Y0166959D01*
X0005627Y0167112D01*
X0005645Y0167264D01*
X0005667Y0167416D01*
X0005692Y0167567D01*
X0005722Y0167718D01*
X0005755Y0167867D01*
X0005793Y0168016D01*
X0005834Y0168164D01*
X0005879Y0168310D01*
X0005928Y0168455D01*
X0005981Y0168599D01*
X0006037Y0168742D01*
X0006097Y0168883D01*
X0006161Y0169023D01*
X0006228Y0169160D01*
X0006299Y0169296D01*
X0006373Y0169430D01*
X0006451Y0169562D01*
X0006532Y0169692D01*
X0006617Y0169820D01*
X0006705Y0169946D01*
X0006796Y0170069D01*
X0006890Y0170190D01*
X0006987Y0170309D01*
X0007088Y0170425D01*
X0007191Y0170538D01*
X0007298Y0170648D01*
X0007407Y0170756D01*
X0007518Y0170861D01*
X0007633Y0170963D01*
X0007750Y0171062D01*
X0007870Y0171157D01*
X0007992Y0171250D01*
X0008117Y0171340D01*
X0008243Y0171426D01*
X0008372Y0171509D01*
X0008503Y0171588D01*
X0008636Y0171664D01*
X0008771Y0171737D01*
X0008908Y0171806D01*
X0009047Y0171871D01*
X0009187Y0171933D01*
X0009329Y0171991D01*
X0009472Y0172046D01*
X0009617Y0172097D01*
X0009763Y0172144D01*
X0009910Y0172187D01*
X0010058Y0172226D01*
X0010207Y0172262D01*
X0010357Y0172293D01*
X0010508Y0172321D01*
X0010660Y0172345D01*
X0010812Y0172365D01*
X0010964Y0172381D01*
X0011117Y0172393D01*
X0011270Y0172401D01*
X0011423Y0172405D01*
X0011577Y0172405D01*
X0011730Y0172401D01*
X0011883Y0172393D01*
X0012036Y0172381D01*
X0012188Y0172365D01*
X0012340Y0172345D01*
X0012492Y0172321D01*
X0012643Y0172293D01*
X0012793Y0172262D01*
X0012942Y0172226D01*
X0013090Y0172187D01*
X0013237Y0172144D01*
X0013383Y0172097D01*
X0013528Y0172046D01*
X0013671Y0171991D01*
X0013813Y0171933D01*
X0013953Y0171871D01*
X0014092Y0171806D01*
X0014229Y0171737D01*
X0014364Y0171664D01*
X0014497Y0171588D01*
X0014628Y0171509D01*
X0014757Y0171426D01*
X0014883Y0171340D01*
X0015008Y0171250D01*
X0015130Y0171157D01*
X0015250Y0171062D01*
X0015367Y0170963D01*
X0015482Y0170861D01*
X0015593Y0170756D01*
X0015702Y0170648D01*
X0015809Y0170538D01*
X0015912Y0170425D01*
X0016013Y0170309D01*
X0016110Y0170190D01*
X0016204Y0170069D01*
X0016295Y0169946D01*
X0016383Y0169820D01*
X0016468Y0169692D01*
X0016549Y0169562D01*
X0016627Y0169430D01*
X0016701Y0169296D01*
X0016772Y0169160D01*
X0016839Y0169023D01*
X0016903Y0168883D01*
X0016963Y0168742D01*
X0017019Y0168599D01*
X0017072Y0168455D01*
X0017121Y0168310D01*
X0017166Y0168164D01*
X0017207Y0168016D01*
X0017245Y0167867D01*
X0017278Y0167718D01*
X0017308Y0167567D01*
X0017333Y0167416D01*
X0017355Y0167264D01*
X0017373Y0167112D01*
X0017387Y0166959D01*
X0017397Y0166806D01*
X0017403Y0166653D01*
X0017405Y0166500D01*
X0017403Y0166347D01*
X0017397Y0166194D01*
X0017387Y0166041D01*
X0017373Y0165888D01*
X0017355Y0165736D01*
X0017333Y0165584D01*
X0017308Y0165433D01*
X0017278Y0165282D01*
X0017245Y0165133D01*
X0017207Y0164984D01*
X0017166Y0164836D01*
X0017121Y0164690D01*
X0017072Y0164545D01*
X0017019Y0164401D01*
X0016963Y0164258D01*
X0016903Y0164117D01*
X0016839Y0163977D01*
X0016772Y0163840D01*
X0016701Y0163704D01*
X0016627Y0163570D01*
X0016549Y0163438D01*
X0016468Y0163308D01*
X0016383Y0163180D01*
X0016295Y0163054D01*
X0016204Y0162931D01*
X0016110Y0162810D01*
X0016013Y0162691D01*
X0015912Y0162575D01*
X0015809Y0162462D01*
X0015702Y0162352D01*
X0015593Y0162244D01*
X0015482Y0162139D01*
X0015367Y0162037D01*
X0015250Y0161938D01*
X0015130Y0161843D01*
X0015008Y0161750D01*
X0014883Y0161660D01*
X0014757Y0161574D01*
X0014628Y0161491D01*
X0014497Y0161412D01*
X0014364Y0161336D01*
X0014229Y0161263D01*
X0014092Y0161194D01*
X0013953Y0161129D01*
X0013813Y0161067D01*
X0013671Y0161009D01*
X0013528Y0160954D01*
X0013383Y0160903D01*
X0013237Y0160856D01*
X0013090Y0160813D01*
X0012942Y0160774D01*
X0012793Y0160738D01*
X0012643Y0160707D01*
X0012492Y0160679D01*
X0012340Y0160655D01*
X0012188Y0160635D01*
X0012036Y0160619D01*
X0011883Y0160607D01*
X0011730Y0160599D01*
X0011577Y0160595D01*
X0011423Y0160595D01*
X0011270Y0160599D01*
X0011117Y0160607D01*
X0010964Y0160619D01*
X0010812Y0160635D01*
X0010660Y0160655D01*
X0010508Y0160679D01*
X0010357Y0160707D01*
X0010207Y0160738D01*
X0010058Y0160774D01*
X0009910Y0160813D01*
X0009763Y0160856D01*
X0009617Y0160903D01*
X0009472Y0160954D01*
X0009329Y0161009D01*
X0009187Y0161067D01*
X0009047Y0161129D01*
X0008908Y0161194D01*
X0008771Y0161263D01*
X0008636Y0161336D01*
X0008503Y0161412D01*
X0008372Y0161491D01*
X0008243Y0161574D01*
X0008117Y0161660D01*
X0007992Y0161750D01*
X0007870Y0161843D01*
X0007750Y0161938D01*
X0007633Y0162037D01*
X0007518Y0162139D01*
X0007407Y0162244D01*
X0007298Y0162352D01*
X0007191Y0162462D01*
X0007088Y0162575D01*
X0006987Y0162691D01*
X0006890Y0162810D01*
X0006796Y0162931D01*
X0006705Y0163054D01*
X0006617Y0163180D01*
X0006532Y0163308D01*
X0006451Y0163438D01*
X0006373Y0163570D01*
X0006299Y0163704D01*
X0006228Y0163840D01*
X0006161Y0163977D01*
X0006097Y0164117D01*
X0006037Y0164258D01*
X0005981Y0164401D01*
X0005928Y0164545D01*
X0005879Y0164690D01*
X0005834Y0164836D01*
X0005793Y0164984D01*
X0005755Y0165133D01*
X0005722Y0165282D01*
X0005692Y0165433D01*
X0005667Y0165584D01*
X0005645Y0165736D01*
X0005627Y0165888D01*
X0005613Y0166041D01*
X0005603Y0166194D01*
X0005597Y0166347D01*
X0005595Y0166500D01*
X0140595Y0166500D02*
X0140597Y0166653D01*
X0140603Y0166806D01*
X0140613Y0166959D01*
X0140627Y0167112D01*
X0140645Y0167264D01*
X0140667Y0167416D01*
X0140692Y0167567D01*
X0140722Y0167718D01*
X0140755Y0167867D01*
X0140793Y0168016D01*
X0140834Y0168164D01*
X0140879Y0168310D01*
X0140928Y0168455D01*
X0140981Y0168599D01*
X0141037Y0168742D01*
X0141097Y0168883D01*
X0141161Y0169023D01*
X0141228Y0169160D01*
X0141299Y0169296D01*
X0141373Y0169430D01*
X0141451Y0169562D01*
X0141532Y0169692D01*
X0141617Y0169820D01*
X0141705Y0169946D01*
X0141796Y0170069D01*
X0141890Y0170190D01*
X0141987Y0170309D01*
X0142088Y0170425D01*
X0142191Y0170538D01*
X0142298Y0170648D01*
X0142407Y0170756D01*
X0142518Y0170861D01*
X0142633Y0170963D01*
X0142750Y0171062D01*
X0142870Y0171157D01*
X0142992Y0171250D01*
X0143117Y0171340D01*
X0143243Y0171426D01*
X0143372Y0171509D01*
X0143503Y0171588D01*
X0143636Y0171664D01*
X0143771Y0171737D01*
X0143908Y0171806D01*
X0144047Y0171871D01*
X0144187Y0171933D01*
X0144329Y0171991D01*
X0144472Y0172046D01*
X0144617Y0172097D01*
X0144763Y0172144D01*
X0144910Y0172187D01*
X0145058Y0172226D01*
X0145207Y0172262D01*
X0145357Y0172293D01*
X0145508Y0172321D01*
X0145660Y0172345D01*
X0145812Y0172365D01*
X0145964Y0172381D01*
X0146117Y0172393D01*
X0146270Y0172401D01*
X0146423Y0172405D01*
X0146577Y0172405D01*
X0146730Y0172401D01*
X0146883Y0172393D01*
X0147036Y0172381D01*
X0147188Y0172365D01*
X0147340Y0172345D01*
X0147492Y0172321D01*
X0147643Y0172293D01*
X0147793Y0172262D01*
X0147942Y0172226D01*
X0148090Y0172187D01*
X0148237Y0172144D01*
X0148383Y0172097D01*
X0148528Y0172046D01*
X0148671Y0171991D01*
X0148813Y0171933D01*
X0148953Y0171871D01*
X0149092Y0171806D01*
X0149229Y0171737D01*
X0149364Y0171664D01*
X0149497Y0171588D01*
X0149628Y0171509D01*
X0149757Y0171426D01*
X0149883Y0171340D01*
X0150008Y0171250D01*
X0150130Y0171157D01*
X0150250Y0171062D01*
X0150367Y0170963D01*
X0150482Y0170861D01*
X0150593Y0170756D01*
X0150702Y0170648D01*
X0150809Y0170538D01*
X0150912Y0170425D01*
X0151013Y0170309D01*
X0151110Y0170190D01*
X0151204Y0170069D01*
X0151295Y0169946D01*
X0151383Y0169820D01*
X0151468Y0169692D01*
X0151549Y0169562D01*
X0151627Y0169430D01*
X0151701Y0169296D01*
X0151772Y0169160D01*
X0151839Y0169023D01*
X0151903Y0168883D01*
X0151963Y0168742D01*
X0152019Y0168599D01*
X0152072Y0168455D01*
X0152121Y0168310D01*
X0152166Y0168164D01*
X0152207Y0168016D01*
X0152245Y0167867D01*
X0152278Y0167718D01*
X0152308Y0167567D01*
X0152333Y0167416D01*
X0152355Y0167264D01*
X0152373Y0167112D01*
X0152387Y0166959D01*
X0152397Y0166806D01*
X0152403Y0166653D01*
X0152405Y0166500D01*
X0152403Y0166347D01*
X0152397Y0166194D01*
X0152387Y0166041D01*
X0152373Y0165888D01*
X0152355Y0165736D01*
X0152333Y0165584D01*
X0152308Y0165433D01*
X0152278Y0165282D01*
X0152245Y0165133D01*
X0152207Y0164984D01*
X0152166Y0164836D01*
X0152121Y0164690D01*
X0152072Y0164545D01*
X0152019Y0164401D01*
X0151963Y0164258D01*
X0151903Y0164117D01*
X0151839Y0163977D01*
X0151772Y0163840D01*
X0151701Y0163704D01*
X0151627Y0163570D01*
X0151549Y0163438D01*
X0151468Y0163308D01*
X0151383Y0163180D01*
X0151295Y0163054D01*
X0151204Y0162931D01*
X0151110Y0162810D01*
X0151013Y0162691D01*
X0150912Y0162575D01*
X0150809Y0162462D01*
X0150702Y0162352D01*
X0150593Y0162244D01*
X0150482Y0162139D01*
X0150367Y0162037D01*
X0150250Y0161938D01*
X0150130Y0161843D01*
X0150008Y0161750D01*
X0149883Y0161660D01*
X0149757Y0161574D01*
X0149628Y0161491D01*
X0149497Y0161412D01*
X0149364Y0161336D01*
X0149229Y0161263D01*
X0149092Y0161194D01*
X0148953Y0161129D01*
X0148813Y0161067D01*
X0148671Y0161009D01*
X0148528Y0160954D01*
X0148383Y0160903D01*
X0148237Y0160856D01*
X0148090Y0160813D01*
X0147942Y0160774D01*
X0147793Y0160738D01*
X0147643Y0160707D01*
X0147492Y0160679D01*
X0147340Y0160655D01*
X0147188Y0160635D01*
X0147036Y0160619D01*
X0146883Y0160607D01*
X0146730Y0160599D01*
X0146577Y0160595D01*
X0146423Y0160595D01*
X0146270Y0160599D01*
X0146117Y0160607D01*
X0145964Y0160619D01*
X0145812Y0160635D01*
X0145660Y0160655D01*
X0145508Y0160679D01*
X0145357Y0160707D01*
X0145207Y0160738D01*
X0145058Y0160774D01*
X0144910Y0160813D01*
X0144763Y0160856D01*
X0144617Y0160903D01*
X0144472Y0160954D01*
X0144329Y0161009D01*
X0144187Y0161067D01*
X0144047Y0161129D01*
X0143908Y0161194D01*
X0143771Y0161263D01*
X0143636Y0161336D01*
X0143503Y0161412D01*
X0143372Y0161491D01*
X0143243Y0161574D01*
X0143117Y0161660D01*
X0142992Y0161750D01*
X0142870Y0161843D01*
X0142750Y0161938D01*
X0142633Y0162037D01*
X0142518Y0162139D01*
X0142407Y0162244D01*
X0142298Y0162352D01*
X0142191Y0162462D01*
X0142088Y0162575D01*
X0141987Y0162691D01*
X0141890Y0162810D01*
X0141796Y0162931D01*
X0141705Y0163054D01*
X0141617Y0163180D01*
X0141532Y0163308D01*
X0141451Y0163438D01*
X0141373Y0163570D01*
X0141299Y0163704D01*
X0141228Y0163840D01*
X0141161Y0163977D01*
X0141097Y0164117D01*
X0141037Y0164258D01*
X0140981Y0164401D01*
X0140928Y0164545D01*
X0140879Y0164690D01*
X0140834Y0164836D01*
X0140793Y0164984D01*
X0140755Y0165133D01*
X0140722Y0165282D01*
X0140692Y0165433D01*
X0140667Y0165584D01*
X0140645Y0165736D01*
X0140627Y0165888D01*
X0140613Y0166041D01*
X0140603Y0166194D01*
X0140597Y0166347D01*
X0140595Y0166500D01*
X0140595Y0011500D02*
X0140597Y0011653D01*
X0140603Y0011806D01*
X0140613Y0011959D01*
X0140627Y0012112D01*
X0140645Y0012264D01*
X0140667Y0012416D01*
X0140692Y0012567D01*
X0140722Y0012718D01*
X0140755Y0012867D01*
X0140793Y0013016D01*
X0140834Y0013164D01*
X0140879Y0013310D01*
X0140928Y0013455D01*
X0140981Y0013599D01*
X0141037Y0013742D01*
X0141097Y0013883D01*
X0141161Y0014023D01*
X0141228Y0014160D01*
X0141299Y0014296D01*
X0141373Y0014430D01*
X0141451Y0014562D01*
X0141532Y0014692D01*
X0141617Y0014820D01*
X0141705Y0014946D01*
X0141796Y0015069D01*
X0141890Y0015190D01*
X0141987Y0015309D01*
X0142088Y0015425D01*
X0142191Y0015538D01*
X0142298Y0015648D01*
X0142407Y0015756D01*
X0142518Y0015861D01*
X0142633Y0015963D01*
X0142750Y0016062D01*
X0142870Y0016157D01*
X0142992Y0016250D01*
X0143117Y0016340D01*
X0143243Y0016426D01*
X0143372Y0016509D01*
X0143503Y0016588D01*
X0143636Y0016664D01*
X0143771Y0016737D01*
X0143908Y0016806D01*
X0144047Y0016871D01*
X0144187Y0016933D01*
X0144329Y0016991D01*
X0144472Y0017046D01*
X0144617Y0017097D01*
X0144763Y0017144D01*
X0144910Y0017187D01*
X0145058Y0017226D01*
X0145207Y0017262D01*
X0145357Y0017293D01*
X0145508Y0017321D01*
X0145660Y0017345D01*
X0145812Y0017365D01*
X0145964Y0017381D01*
X0146117Y0017393D01*
X0146270Y0017401D01*
X0146423Y0017405D01*
X0146577Y0017405D01*
X0146730Y0017401D01*
X0146883Y0017393D01*
X0147036Y0017381D01*
X0147188Y0017365D01*
X0147340Y0017345D01*
X0147492Y0017321D01*
X0147643Y0017293D01*
X0147793Y0017262D01*
X0147942Y0017226D01*
X0148090Y0017187D01*
X0148237Y0017144D01*
X0148383Y0017097D01*
X0148528Y0017046D01*
X0148671Y0016991D01*
X0148813Y0016933D01*
X0148953Y0016871D01*
X0149092Y0016806D01*
X0149229Y0016737D01*
X0149364Y0016664D01*
X0149497Y0016588D01*
X0149628Y0016509D01*
X0149757Y0016426D01*
X0149883Y0016340D01*
X0150008Y0016250D01*
X0150130Y0016157D01*
X0150250Y0016062D01*
X0150367Y0015963D01*
X0150482Y0015861D01*
X0150593Y0015756D01*
X0150702Y0015648D01*
X0150809Y0015538D01*
X0150912Y0015425D01*
X0151013Y0015309D01*
X0151110Y0015190D01*
X0151204Y0015069D01*
X0151295Y0014946D01*
X0151383Y0014820D01*
X0151468Y0014692D01*
X0151549Y0014562D01*
X0151627Y0014430D01*
X0151701Y0014296D01*
X0151772Y0014160D01*
X0151839Y0014023D01*
X0151903Y0013883D01*
X0151963Y0013742D01*
X0152019Y0013599D01*
X0152072Y0013455D01*
X0152121Y0013310D01*
X0152166Y0013164D01*
X0152207Y0013016D01*
X0152245Y0012867D01*
X0152278Y0012718D01*
X0152308Y0012567D01*
X0152333Y0012416D01*
X0152355Y0012264D01*
X0152373Y0012112D01*
X0152387Y0011959D01*
X0152397Y0011806D01*
X0152403Y0011653D01*
X0152405Y0011500D01*
X0152403Y0011347D01*
X0152397Y0011194D01*
X0152387Y0011041D01*
X0152373Y0010888D01*
X0152355Y0010736D01*
X0152333Y0010584D01*
X0152308Y0010433D01*
X0152278Y0010282D01*
X0152245Y0010133D01*
X0152207Y0009984D01*
X0152166Y0009836D01*
X0152121Y0009690D01*
X0152072Y0009545D01*
X0152019Y0009401D01*
X0151963Y0009258D01*
X0151903Y0009117D01*
X0151839Y0008977D01*
X0151772Y0008840D01*
X0151701Y0008704D01*
X0151627Y0008570D01*
X0151549Y0008438D01*
X0151468Y0008308D01*
X0151383Y0008180D01*
X0151295Y0008054D01*
X0151204Y0007931D01*
X0151110Y0007810D01*
X0151013Y0007691D01*
X0150912Y0007575D01*
X0150809Y0007462D01*
X0150702Y0007352D01*
X0150593Y0007244D01*
X0150482Y0007139D01*
X0150367Y0007037D01*
X0150250Y0006938D01*
X0150130Y0006843D01*
X0150008Y0006750D01*
X0149883Y0006660D01*
X0149757Y0006574D01*
X0149628Y0006491D01*
X0149497Y0006412D01*
X0149364Y0006336D01*
X0149229Y0006263D01*
X0149092Y0006194D01*
X0148953Y0006129D01*
X0148813Y0006067D01*
X0148671Y0006009D01*
X0148528Y0005954D01*
X0148383Y0005903D01*
X0148237Y0005856D01*
X0148090Y0005813D01*
X0147942Y0005774D01*
X0147793Y0005738D01*
X0147643Y0005707D01*
X0147492Y0005679D01*
X0147340Y0005655D01*
X0147188Y0005635D01*
X0147036Y0005619D01*
X0146883Y0005607D01*
X0146730Y0005599D01*
X0146577Y0005595D01*
X0146423Y0005595D01*
X0146270Y0005599D01*
X0146117Y0005607D01*
X0145964Y0005619D01*
X0145812Y0005635D01*
X0145660Y0005655D01*
X0145508Y0005679D01*
X0145357Y0005707D01*
X0145207Y0005738D01*
X0145058Y0005774D01*
X0144910Y0005813D01*
X0144763Y0005856D01*
X0144617Y0005903D01*
X0144472Y0005954D01*
X0144329Y0006009D01*
X0144187Y0006067D01*
X0144047Y0006129D01*
X0143908Y0006194D01*
X0143771Y0006263D01*
X0143636Y0006336D01*
X0143503Y0006412D01*
X0143372Y0006491D01*
X0143243Y0006574D01*
X0143117Y0006660D01*
X0142992Y0006750D01*
X0142870Y0006843D01*
X0142750Y0006938D01*
X0142633Y0007037D01*
X0142518Y0007139D01*
X0142407Y0007244D01*
X0142298Y0007352D01*
X0142191Y0007462D01*
X0142088Y0007575D01*
X0141987Y0007691D01*
X0141890Y0007810D01*
X0141796Y0007931D01*
X0141705Y0008054D01*
X0141617Y0008180D01*
X0141532Y0008308D01*
X0141451Y0008438D01*
X0141373Y0008570D01*
X0141299Y0008704D01*
X0141228Y0008840D01*
X0141161Y0008977D01*
X0141097Y0009117D01*
X0141037Y0009258D01*
X0140981Y0009401D01*
X0140928Y0009545D01*
X0140879Y0009690D01*
X0140834Y0009836D01*
X0140793Y0009984D01*
X0140755Y0010133D01*
X0140722Y0010282D01*
X0140692Y0010433D01*
X0140667Y0010584D01*
X0140645Y0010736D01*
X0140627Y0010888D01*
X0140613Y0011041D01*
X0140603Y0011194D01*
X0140597Y0011347D01*
X0140595Y0011500D01*
D11*
X0136500Y0081500D03*
X0126500Y0081500D03*
X0126500Y0096500D03*
X0126500Y0106500D03*
X0126500Y0116500D03*
X0126500Y0126500D03*
X0126500Y0136500D03*
X0126500Y0146500D03*
X0031500Y0031500D03*
X0031500Y0021500D03*
X0031500Y0011500D03*
X0021500Y0031500D03*
X0011500Y0031500D03*
D12*
X0034295Y0092642D03*
X0034295Y0110358D03*
X0034295Y0122642D03*
X0034295Y0140358D03*
X0008705Y0140358D03*
X0008705Y0110358D03*
D13*
X0008705Y0122642D03*
X0008705Y0092642D03*
D14*
X0017760Y0096500D03*
X0025240Y0096500D03*
X0025240Y0106500D03*
X0017760Y0106500D03*
X0017760Y0126500D03*
X0025240Y0126500D03*
X0025240Y0136500D03*
X0017760Y0136500D03*
X0020240Y0081500D03*
X0012760Y0081500D03*
X0027760Y0041500D03*
X0035240Y0041500D03*
X0137760Y0071500D03*
X0145240Y0071500D03*
D15*
X0136500Y0092760D03*
X0136500Y0100240D03*
X0066500Y0132760D03*
X0066500Y0140240D03*
D16*
X0138563Y0061500D03*
D17*
X0138563Y0053626D03*
X0146437Y0053626D03*
X0146437Y0061500D03*
X0046437Y0046626D03*
X0046437Y0038500D03*
X0046437Y0030626D03*
X0046437Y0022500D03*
X0046437Y0014626D03*
D18*
X0014098Y0052445D03*
X0014098Y0061500D03*
X0014098Y0070555D03*
D19*
X0038902Y0061500D03*
D20*
X0131807Y0061500D01*
X0135507Y0057800D01*
X0141619Y0057800D01*
X0142263Y0058444D01*
X0142263Y0064556D01*
X0141619Y0065200D01*
X0140163Y0065200D01*
X0140163Y0067447D01*
X0140775Y0067447D01*
X0141288Y0067961D01*
X0141481Y0067626D01*
X0141760Y0067347D01*
X0142102Y0067149D01*
X0142484Y0067047D01*
X0144740Y0067047D01*
X0144740Y0071000D01*
X0145740Y0071000D01*
X0145740Y0067047D01*
X0147997Y0067047D01*
X0148378Y0067149D01*
X0148720Y0067347D01*
X0148999Y0067626D01*
X0149197Y0067968D01*
X0149299Y0068350D01*
X0149299Y0071000D01*
X0145740Y0071000D01*
X0145740Y0072000D01*
X0144740Y0072000D01*
X0144740Y0075953D01*
X0142484Y0075953D01*
X0142102Y0075851D01*
X0141760Y0075653D01*
X0141481Y0075374D01*
X0141288Y0075039D01*
X0140775Y0075553D01*
X0139604Y0075553D01*
X0141963Y0077912D01*
X0142900Y0078849D01*
X0142900Y0096103D01*
X0141963Y0097040D01*
X0140553Y0098450D01*
X0140553Y0103255D01*
X0139908Y0103899D01*
X0133092Y0103899D01*
X0132447Y0103255D01*
X0132447Y0101840D01*
X0129577Y0101840D01*
X0128640Y0100903D01*
X0128574Y0100836D01*
X0127455Y0101300D01*
X0125545Y0101300D01*
X0123781Y0100569D01*
X0122431Y0099219D01*
X0121967Y0098100D01*
X0112163Y0098100D01*
X0079521Y0130742D01*
X0079581Y0130887D01*
X0079581Y0132113D01*
X0079112Y0133245D01*
X0078245Y0134112D01*
X0077113Y0134581D01*
X0075887Y0134581D01*
X0075742Y0134521D01*
X0070553Y0139710D01*
X0070553Y0143255D01*
X0069908Y0143899D01*
X0063092Y0143899D01*
X0062447Y0143255D01*
X0062447Y0143100D01*
X0059172Y0143100D01*
X0059112Y0143245D01*
X0058245Y0144112D01*
X0057113Y0144581D01*
X0055887Y0144581D01*
X0054755Y0144112D01*
X0053888Y0143245D01*
X0053419Y0142113D01*
X0053419Y0140887D01*
X0053888Y0139755D01*
X0054755Y0138888D01*
X0055887Y0138419D01*
X0057113Y0138419D01*
X0058245Y0138888D01*
X0059112Y0139755D01*
X0059172Y0139900D01*
X0062447Y0139900D01*
X0062447Y0137225D01*
X0062961Y0136712D01*
X0062626Y0136519D01*
X0062347Y0136240D01*
X0062149Y0135898D01*
X0062047Y0135516D01*
X0062047Y0133260D01*
X0066000Y0133260D01*
X0066000Y0132260D01*
X0062047Y0132260D01*
X0062047Y0130003D01*
X0062149Y0129622D01*
X0062347Y0129280D01*
X0062626Y0129000D01*
X0062968Y0128803D01*
X0063350Y0128701D01*
X0066000Y0128701D01*
X0066000Y0132260D01*
X0067000Y0132260D01*
X0067000Y0133260D01*
X0070953Y0133260D01*
X0070953Y0134785D01*
X0073479Y0132258D01*
X0073419Y0132113D01*
X0073419Y0130887D01*
X0073888Y0129755D01*
X0074755Y0128888D01*
X0075887Y0128419D01*
X0077113Y0128419D01*
X0077258Y0128479D01*
X0110837Y0094900D01*
X0121967Y0094900D01*
X0122431Y0093781D01*
X0123781Y0092431D01*
X0125545Y0091700D01*
X0127455Y0091700D01*
X0129219Y0092431D01*
X0130569Y0093781D01*
X0131300Y0095545D01*
X0131300Y0097455D01*
X0130836Y0098574D01*
X0130903Y0098640D01*
X0132447Y0098640D01*
X0132447Y0097225D01*
X0133092Y0096581D01*
X0137896Y0096581D01*
X0138059Y0096419D01*
X0133092Y0096419D01*
X0132447Y0095775D01*
X0132447Y0089745D01*
X0133092Y0089101D01*
X0134900Y0089101D01*
X0134900Y0086033D01*
X0133781Y0085569D01*
X0132431Y0084219D01*
X0131700Y0082455D01*
X0131700Y0080545D01*
X0132431Y0078781D01*
X0133781Y0077431D01*
X0135545Y0076700D01*
X0136226Y0076700D01*
X0136160Y0076634D01*
X0136160Y0075553D01*
X0134745Y0075553D01*
X0134101Y0074908D01*
X0134101Y0068092D01*
X0134745Y0067447D01*
X0136963Y0067447D01*
X0136963Y0065200D01*
X0135507Y0065200D01*
X0134863Y0064556D01*
X0134863Y0058444D01*
X0135507Y0057800D01*
X0141619Y0057800D01*
X0145319Y0061500D01*
X0146437Y0061500D01*
X0146437Y0070303D01*
X0145240Y0071500D01*
X0145240Y0098567D01*
X0139908Y0103899D01*
X0139101Y0103899D01*
X0126500Y0116500D01*
X0127000Y0116329D02*
X0151921Y0116329D01*
X0151921Y0117327D02*
X0131634Y0117327D01*
X0131686Y0117000D02*
X0131572Y0117718D01*
X0131319Y0118496D01*
X0130947Y0119225D01*
X0130466Y0119888D01*
X0129888Y0120466D01*
X0129225Y0120947D01*
X0128496Y0121319D01*
X0127718Y0121572D01*
X0127000Y0121686D01*
X0127000Y0117000D01*
X0131686Y0117000D01*
X0131686Y0116000D02*
X0127000Y0116000D01*
X0127000Y0117000D01*
X0126000Y0117000D01*
X0126000Y0121686D01*
X0125282Y0121572D01*
X0124504Y0121319D01*
X0123775Y0120947D01*
X0123112Y0120466D01*
X0122534Y0119888D01*
X0122053Y0119225D01*
X0121681Y0118496D01*
X0121428Y0117718D01*
X0121314Y0117000D01*
X0126000Y0117000D01*
X0126000Y0116000D01*
X0127000Y0116000D01*
X0127000Y0111314D01*
X0127718Y0111428D01*
X0128496Y0111681D01*
X0129225Y0112053D01*
X0129888Y0112534D01*
X0130466Y0113112D01*
X0130947Y0113775D01*
X0131319Y0114504D01*
X0131572Y0115282D01*
X0131686Y0116000D01*
X0131580Y0115330D02*
X0151921Y0115330D01*
X0151921Y0114332D02*
X0131231Y0114332D01*
X0130627Y0113333D02*
X0151921Y0113333D01*
X0151921Y0112335D02*
X0129614Y0112335D01*
X0129219Y0110569D02*
X0127455Y0111300D01*
X0125545Y0111300D01*
X0123781Y0110569D01*
X0122431Y0109219D01*
X0121700Y0107455D01*
X0121700Y0105545D01*
X0122431Y0103781D01*
X0123781Y0102431D01*
X0125545Y0101700D01*
X0127455Y0101700D01*
X0129219Y0102431D01*
X0130569Y0103781D01*
X0131300Y0105545D01*
X0131300Y0107455D01*
X0130569Y0109219D01*
X0129219Y0110569D01*
X0129450Y0110338D02*
X0151921Y0110338D01*
X0151921Y0111336D02*
X0127138Y0111336D01*
X0127000Y0111336D02*
X0126000Y0111336D01*
X0126000Y0111314D02*
X0126000Y0116000D01*
X0121314Y0116000D01*
X0121428Y0115282D01*
X0121681Y0114504D01*
X0122053Y0113775D01*
X0122534Y0113112D01*
X0123112Y0112534D01*
X0123775Y0112053D01*
X0124504Y0111681D01*
X0125282Y0111428D01*
X0126000Y0111314D01*
X0125862Y0111336D02*
X0098926Y0111336D01*
X0097928Y0112335D02*
X0123386Y0112335D01*
X0122373Y0113333D02*
X0096929Y0113333D01*
X0095931Y0114332D02*
X0121769Y0114332D01*
X0121420Y0115330D02*
X0094932Y0115330D01*
X0093934Y0116329D02*
X0126000Y0116329D01*
X0126000Y0117327D02*
X0127000Y0117327D01*
X0127000Y0118326D02*
X0126000Y0118326D01*
X0126000Y0119324D02*
X0127000Y0119324D01*
X0127000Y0120323D02*
X0126000Y0120323D01*
X0126000Y0121321D02*
X0127000Y0121321D01*
X0127455Y0121700D02*
X0125545Y0121700D01*
X0123781Y0122431D01*
X0122431Y0123781D01*
X0121700Y0125545D01*
X0121700Y0127455D01*
X0122431Y0129219D01*
X0123781Y0130569D01*
X0125545Y0131300D01*
X0127455Y0131300D01*
X0129219Y0130569D01*
X0130569Y0129219D01*
X0131300Y0127455D01*
X0131300Y0125545D01*
X0130569Y0123781D01*
X0129219Y0122431D01*
X0127455Y0121700D01*
X0128489Y0121321D02*
X0151921Y0121321D01*
X0151921Y0120323D02*
X0130031Y0120323D01*
X0130876Y0119324D02*
X0151921Y0119324D01*
X0151921Y0118326D02*
X0131374Y0118326D01*
X0128951Y0122320D02*
X0151921Y0122320D01*
X0151921Y0123318D02*
X0130107Y0123318D01*
X0130791Y0124317D02*
X0151921Y0124317D01*
X0151921Y0125315D02*
X0131205Y0125315D01*
X0131300Y0126314D02*
X0151921Y0126314D01*
X0151921Y0127312D02*
X0131300Y0127312D01*
X0130945Y0128311D02*
X0151921Y0128311D01*
X0151921Y0129309D02*
X0130479Y0129309D01*
X0129480Y0130308D02*
X0151921Y0130308D01*
X0151921Y0131306D02*
X0079581Y0131306D01*
X0079502Y0132305D02*
X0124085Y0132305D01*
X0123781Y0132431D02*
X0125545Y0131700D01*
X0127455Y0131700D01*
X0129219Y0132431D01*
X0130569Y0133781D01*
X0131300Y0135545D01*
X0131300Y0137455D01*
X0130569Y0139219D01*
X0129219Y0140569D01*
X0127455Y0141300D01*
X0125545Y0141300D01*
X0123781Y0140569D01*
X0122431Y0139219D01*
X0121700Y0137455D01*
X0121700Y0135545D01*
X0122431Y0133781D01*
X0123781Y0132431D01*
X0122908Y0133303D02*
X0079054Y0133303D01*
X0077787Y0134302D02*
X0122215Y0134302D01*
X0121801Y0135301D02*
X0074962Y0135301D01*
X0073964Y0136299D02*
X0121700Y0136299D01*
X0121700Y0137298D02*
X0072965Y0137298D01*
X0071967Y0138296D02*
X0122048Y0138296D01*
X0122506Y0139295D02*
X0070968Y0139295D01*
X0070553Y0140293D02*
X0123505Y0140293D01*
X0124121Y0142290D02*
X0070553Y0142290D01*
X0070553Y0141292D02*
X0125525Y0141292D01*
X0125545Y0141700D02*
X0127455Y0141700D01*
X0129219Y0142431D01*
X0130569Y0143781D01*
X0131300Y0145545D01*
X0131300Y0146500D01*
X0151921Y0146500D01*
X0151921Y0020385D01*
X0150516Y0021196D01*
X0147870Y0021905D01*
X0145130Y0021905D01*
X0142484Y0021196D01*
X0140111Y0019826D01*
X0138174Y0017889D01*
X0136804Y0015516D01*
X0136095Y0012870D01*
X0136095Y0010130D01*
X0136804Y0007484D01*
X0137660Y0006000D01*
X0020340Y0006000D01*
X0021196Y0007484D01*
X0021905Y0010130D01*
X0021905Y0012870D01*
X0021196Y0015516D01*
X0019826Y0017889D01*
X0017889Y0019826D01*
X0015516Y0021196D01*
X0012870Y0021905D01*
X0010130Y0021905D01*
X0007484Y0021196D01*
X0006000Y0020340D01*
X0006000Y0063779D01*
X0006868Y0063419D01*
X0008094Y0063419D01*
X0009061Y0063820D01*
X0009061Y0058092D01*
X0009706Y0057447D01*
X0016838Y0057447D01*
X0015888Y0056498D01*
X0009706Y0056498D01*
X0009061Y0055853D01*
X0009061Y0049036D01*
X0009706Y0048392D01*
X0015181Y0048392D01*
X0024101Y0039473D01*
X0024101Y0038092D01*
X0024745Y0037447D01*
X0028843Y0037447D01*
X0028981Y0037309D01*
X0028981Y0037015D01*
X0029945Y0036051D01*
X0028781Y0035569D01*
X0027431Y0034219D01*
X0026700Y0032455D01*
X0026700Y0030545D01*
X0027431Y0028781D01*
X0028781Y0027431D01*
X0030545Y0026700D01*
X0032455Y0026700D01*
X0034219Y0027431D01*
X0034700Y0027912D01*
X0034700Y0025088D01*
X0034219Y0025569D01*
X0032455Y0026300D01*
X0030545Y0026300D01*
X0028781Y0025569D01*
X0027431Y0024219D01*
X0026700Y0022455D01*
X0026700Y0020545D01*
X0027431Y0018781D01*
X0028781Y0017431D01*
X0030545Y0016700D01*
X0031226Y0016700D01*
X0030825Y0016300D01*
X0030545Y0016300D01*
X0028781Y0015569D01*
X0027431Y0014219D01*
X0026700Y0012455D01*
X0026700Y0010545D01*
X0027431Y0008781D01*
X0028781Y0007431D01*
X0030545Y0006700D01*
X0032455Y0006700D01*
X0034219Y0007431D01*
X0035569Y0008781D01*
X0036300Y0010545D01*
X0036300Y0012455D01*
X0035569Y0014219D01*
X0035127Y0014662D01*
X0038900Y0018435D01*
X0038900Y0034565D01*
X0037670Y0035795D01*
X0036418Y0037047D01*
X0037997Y0037047D01*
X0038378Y0037149D01*
X0038720Y0037347D01*
X0038999Y0037626D01*
X0039197Y0037968D01*
X0039299Y0038350D01*
X0039299Y0041000D01*
X0035740Y0041000D01*
X0035740Y0042000D01*
X0034740Y0042000D01*
X0034740Y0045953D01*
X0032484Y0045953D01*
X0032102Y0045851D01*
X0031760Y0045653D01*
X0031481Y0045374D01*
X0031288Y0045039D01*
X0030775Y0045553D01*
X0024745Y0045553D01*
X0024353Y0045160D01*
X0019135Y0050378D01*
X0019135Y0055219D01*
X0020903Y0056987D01*
X0021840Y0057924D01*
X0021840Y0077447D01*
X0023255Y0077447D01*
X0023899Y0078092D01*
X0023899Y0084908D01*
X0023255Y0085553D01*
X0018450Y0085553D01*
X0012754Y0091249D01*
X0012754Y0096046D01*
X0012109Y0096691D01*
X0010305Y0096691D01*
X0010305Y0106639D01*
X0010998Y0106926D01*
X0012137Y0108065D01*
X0012424Y0108758D01*
X0013239Y0108758D01*
X0014101Y0107896D01*
X0014101Y0103092D01*
X0014745Y0102447D01*
X0020775Y0102447D01*
X0021419Y0103092D01*
X0021419Y0129908D01*
X0017760Y0133567D01*
X0017760Y0136500D01*
X0017260Y0136299D02*
X0010305Y0136299D01*
X0010305Y0136639D02*
X0010998Y0136926D01*
X0012137Y0138065D01*
X0012754Y0139553D01*
X0012754Y0141164D01*
X0012137Y0142652D01*
X0010998Y0143791D01*
X0009510Y0144407D01*
X0007899Y0144407D01*
X0006411Y0143791D01*
X0006000Y0143379D01*
X0006000Y0146500D01*
X0121700Y0146500D01*
X0121700Y0145545D01*
X0122431Y0143781D01*
X0123781Y0142431D01*
X0125545Y0141700D01*
X0127475Y0141292D02*
X0151921Y0141292D01*
X0151921Y0142290D02*
X0128879Y0142290D01*
X0130077Y0143289D02*
X0151921Y0143289D01*
X0151921Y0144287D02*
X0130779Y0144287D01*
X0131192Y0145286D02*
X0151921Y0145286D01*
X0151921Y0146284D02*
X0131300Y0146284D01*
X0129495Y0140293D02*
X0151921Y0140293D01*
X0151921Y0139295D02*
X0130494Y0139295D01*
X0130952Y0138296D02*
X0151921Y0138296D01*
X0151921Y0137298D02*
X0131300Y0137298D01*
X0131300Y0136299D02*
X0151921Y0136299D01*
X0151921Y0135301D02*
X0131199Y0135301D01*
X0130785Y0134302D02*
X0151921Y0134302D01*
X0151921Y0133303D02*
X0130092Y0133303D01*
X0128915Y0132305D02*
X0151921Y0132305D01*
X0151921Y0109339D02*
X0130449Y0109339D01*
X0130933Y0108341D02*
X0151921Y0108341D01*
X0151921Y0107342D02*
X0131300Y0107342D01*
X0131300Y0106344D02*
X0151921Y0106344D01*
X0151921Y0105345D02*
X0131217Y0105345D01*
X0130804Y0104347D02*
X0151921Y0104347D01*
X0151921Y0103348D02*
X0140459Y0103348D01*
X0140553Y0102350D02*
X0151921Y0102350D01*
X0151921Y0101351D02*
X0140553Y0101351D01*
X0140553Y0100353D02*
X0151921Y0100353D01*
X0151921Y0099354D02*
X0140553Y0099354D01*
X0140647Y0098356D02*
X0151921Y0098356D01*
X0151921Y0097357D02*
X0141646Y0097357D01*
X0141963Y0097040D02*
X0141963Y0097040D01*
X0142644Y0096359D02*
X0151921Y0096359D01*
X0151921Y0095360D02*
X0142900Y0095360D01*
X0142900Y0094362D02*
X0151921Y0094362D01*
X0151921Y0093363D02*
X0142900Y0093363D01*
X0142900Y0092365D02*
X0151921Y0092365D01*
X0151921Y0091366D02*
X0142900Y0091366D01*
X0142900Y0090368D02*
X0151921Y0090368D01*
X0151921Y0089369D02*
X0142900Y0089369D01*
X0142900Y0088370D02*
X0151921Y0088370D01*
X0151921Y0087372D02*
X0142900Y0087372D01*
X0142900Y0086373D02*
X0151921Y0086373D01*
X0151921Y0085375D02*
X0142900Y0085375D01*
X0142900Y0084376D02*
X0151921Y0084376D01*
X0151921Y0083378D02*
X0142900Y0083378D01*
X0142900Y0082379D02*
X0151921Y0082379D01*
X0151921Y0081381D02*
X0142900Y0081381D01*
X0142900Y0080382D02*
X0151921Y0080382D01*
X0151921Y0079384D02*
X0142900Y0079384D01*
X0142436Y0078385D02*
X0151921Y0078385D01*
X0151921Y0077387D02*
X0141438Y0077387D01*
X0140439Y0076388D02*
X0151921Y0076388D01*
X0151921Y0075390D02*
X0148983Y0075390D01*
X0148999Y0075374D02*
X0148720Y0075653D01*
X0148378Y0075851D01*
X0147997Y0075953D01*
X0145740Y0075953D01*
X0145740Y0072000D01*
X0149299Y0072000D01*
X0149299Y0074650D01*
X0149197Y0075032D01*
X0148999Y0075374D01*
X0149299Y0074391D02*
X0151921Y0074391D01*
X0151921Y0073393D02*
X0149299Y0073393D01*
X0149299Y0072394D02*
X0151921Y0072394D01*
X0151921Y0071396D02*
X0145740Y0071396D01*
X0145740Y0072394D02*
X0144740Y0072394D01*
X0144740Y0073393D02*
X0145740Y0073393D01*
X0145740Y0074391D02*
X0144740Y0074391D01*
X0144740Y0075390D02*
X0145740Y0075390D01*
X0141497Y0075390D02*
X0140937Y0075390D01*
X0137760Y0075972D02*
X0137760Y0071500D01*
X0138563Y0070697D01*
X0138563Y0061500D01*
X0134863Y0061411D02*
X0039402Y0061411D01*
X0039402Y0061000D02*
X0039402Y0062000D01*
X0044339Y0062000D01*
X0044339Y0069178D01*
X0044236Y0069559D01*
X0044039Y0069901D01*
X0043760Y0070181D01*
X0043418Y0070378D01*
X0043036Y0070480D01*
X0039402Y0070480D01*
X0039402Y0062000D01*
X0038402Y0062000D01*
X0038402Y0070480D01*
X0034767Y0070480D01*
X0034386Y0070378D01*
X0034044Y0070181D01*
X0033764Y0069901D01*
X0033567Y0069559D01*
X0033465Y0069178D01*
X0033465Y0062000D01*
X0038402Y0062000D01*
X0038402Y0061000D01*
X0039402Y0061000D01*
X0044339Y0061000D01*
X0044339Y0053822D01*
X0044236Y0053441D01*
X0044039Y0053099D01*
X0043760Y0052819D01*
X0043418Y0052622D01*
X0043036Y0052520D01*
X0039402Y0052520D01*
X0039402Y0061000D01*
X0039402Y0060412D02*
X0038402Y0060412D01*
X0038402Y0061000D02*
X0038402Y0052520D01*
X0034767Y0052520D01*
X0034386Y0052622D01*
X0034044Y0052819D01*
X0033764Y0053099D01*
X0033567Y0053441D01*
X0033465Y0053822D01*
X0033465Y0061000D01*
X0038402Y0061000D01*
X0038402Y0061411D02*
X0021840Y0061411D01*
X0021840Y0062409D02*
X0033465Y0062409D01*
X0033465Y0063408D02*
X0021840Y0063408D01*
X0021840Y0064406D02*
X0033465Y0064406D01*
X0033465Y0065405D02*
X0021840Y0065405D01*
X0021840Y0066403D02*
X0033465Y0066403D01*
X0033465Y0067402D02*
X0021840Y0067402D01*
X0021840Y0068400D02*
X0033465Y0068400D01*
X0033524Y0069399D02*
X0021840Y0069399D01*
X0021840Y0070397D02*
X0034457Y0070397D01*
X0038402Y0070397D02*
X0039402Y0070397D01*
X0039402Y0069399D02*
X0038402Y0069399D01*
X0038402Y0068400D02*
X0039402Y0068400D01*
X0039402Y0067402D02*
X0038402Y0067402D01*
X0038402Y0066403D02*
X0039402Y0066403D01*
X0039402Y0065405D02*
X0038402Y0065405D01*
X0038402Y0064406D02*
X0039402Y0064406D01*
X0039402Y0063408D02*
X0038402Y0063408D01*
X0038902Y0062642D02*
X0037760Y0061500D01*
X0038402Y0062409D02*
X0039402Y0062409D01*
X0038902Y0062642D02*
X0038902Y0075358D01*
X0017760Y0096500D01*
X0017760Y0099433D01*
X0021419Y0103092D01*
X0021419Y0109908D01*
X0020775Y0110553D01*
X0019360Y0110553D01*
X0019360Y0122447D01*
X0020775Y0122447D01*
X0021419Y0123092D01*
X0021419Y0129908D01*
X0020775Y0130553D01*
X0014745Y0130553D01*
X0014101Y0129908D01*
X0014101Y0125104D01*
X0013239Y0124242D01*
X0012754Y0124242D01*
X0012754Y0126046D01*
X0012109Y0126691D01*
X0010305Y0126691D01*
X0010305Y0136639D01*
X0011370Y0137298D02*
X0013701Y0137298D01*
X0013701Y0137000D02*
X0017260Y0137000D01*
X0017260Y0140953D01*
X0015003Y0140953D01*
X0014622Y0140851D01*
X0014280Y0140653D01*
X0014000Y0140374D01*
X0013803Y0140032D01*
X0013701Y0139650D01*
X0013701Y0137000D01*
X0013701Y0136000D02*
X0013701Y0133350D01*
X0013803Y0132968D01*
X0014000Y0132626D01*
X0014280Y0132347D01*
X0014622Y0132149D01*
X0015003Y0132047D01*
X0017260Y0132047D01*
X0017260Y0136000D01*
X0018260Y0136000D01*
X0018260Y0132047D01*
X0020516Y0132047D01*
X0020898Y0132149D01*
X0021240Y0132347D01*
X0021519Y0132626D01*
X0021712Y0132961D01*
X0022225Y0132447D01*
X0023640Y0132447D01*
X0023640Y0130553D01*
X0022225Y0130553D01*
X0021581Y0129908D01*
X0021581Y0123092D01*
X0022225Y0122447D01*
X0028255Y0122447D01*
X0028899Y0123092D01*
X0028899Y0124900D01*
X0029774Y0124900D01*
X0030534Y0124141D01*
X0030246Y0123447D01*
X0030246Y0121836D01*
X0030863Y0120348D01*
X0032002Y0119209D01*
X0033490Y0118593D01*
X0035101Y0118593D01*
X0036589Y0119209D01*
X0037728Y0120348D01*
X0038344Y0121836D01*
X0038344Y0123447D01*
X0037728Y0124935D01*
X0036589Y0126074D01*
X0035101Y0126691D01*
X0033490Y0126691D01*
X0032796Y0126403D01*
X0031100Y0128100D01*
X0028899Y0128100D01*
X0028899Y0129908D01*
X0028255Y0130553D01*
X0026840Y0130553D01*
X0026840Y0132447D01*
X0028255Y0132447D01*
X0028899Y0133092D01*
X0028899Y0134900D01*
X0031100Y0134900D01*
X0032037Y0135837D01*
X0032796Y0136597D01*
X0033490Y0136309D01*
X0035101Y0136309D01*
X0036589Y0136926D01*
X0037728Y0138065D01*
X0038344Y0139553D01*
X0038344Y0141164D01*
X0037728Y0142652D01*
X0036589Y0143791D01*
X0035101Y0144407D01*
X0033490Y0144407D01*
X0032002Y0143791D01*
X0030863Y0142652D01*
X0030246Y0141164D01*
X0030246Y0139553D01*
X0030534Y0138859D01*
X0029774Y0138100D01*
X0028899Y0138100D01*
X0028899Y0139908D01*
X0028255Y0140553D01*
X0022225Y0140553D01*
X0021712Y0140039D01*
X0021519Y0140374D01*
X0021240Y0140653D01*
X0020898Y0140851D01*
X0020516Y0140953D01*
X0018260Y0140953D01*
X0018260Y0137000D01*
X0017260Y0137000D01*
X0017260Y0136000D01*
X0013701Y0136000D01*
X0013701Y0135301D02*
X0010305Y0135301D01*
X0010305Y0134302D02*
X0013701Y0134302D01*
X0013713Y0133303D02*
X0010305Y0133303D01*
X0010305Y0132305D02*
X0014352Y0132305D01*
X0017260Y0132305D02*
X0018260Y0132305D01*
X0018260Y0133303D02*
X0017260Y0133303D01*
X0017260Y0134302D02*
X0018260Y0134302D01*
X0018260Y0135301D02*
X0017260Y0135301D01*
X0017260Y0137298D02*
X0018260Y0137298D01*
X0018260Y0138296D02*
X0017260Y0138296D01*
X0017260Y0139295D02*
X0018260Y0139295D01*
X0018260Y0140293D02*
X0017260Y0140293D01*
X0013954Y0140293D02*
X0012754Y0140293D01*
X0012701Y0141292D02*
X0030299Y0141292D01*
X0030246Y0140293D02*
X0028515Y0140293D01*
X0028899Y0139295D02*
X0030353Y0139295D01*
X0029970Y0138296D02*
X0028899Y0138296D01*
X0030437Y0136500D02*
X0025240Y0136500D01*
X0025240Y0126500D01*
X0030437Y0126500D01*
X0034295Y0122642D01*
X0036010Y0126314D02*
X0079423Y0126314D01*
X0078425Y0127312D02*
X0031887Y0127312D01*
X0028899Y0128311D02*
X0077426Y0128311D01*
X0079955Y0130308D02*
X0123520Y0130308D01*
X0122521Y0129309D02*
X0080953Y0129309D01*
X0081952Y0128311D02*
X0122055Y0128311D01*
X0121700Y0127312D02*
X0082950Y0127312D01*
X0083949Y0126314D02*
X0121700Y0126314D01*
X0121795Y0125315D02*
X0084947Y0125315D01*
X0085946Y0124317D02*
X0122209Y0124317D01*
X0122893Y0123318D02*
X0086944Y0123318D01*
X0087943Y0122320D02*
X0124049Y0122320D01*
X0124511Y0121321D02*
X0088941Y0121321D01*
X0089940Y0120323D02*
X0122969Y0120323D01*
X0122124Y0119324D02*
X0090938Y0119324D01*
X0091937Y0118326D02*
X0121626Y0118326D01*
X0121366Y0117327D02*
X0092935Y0117327D01*
X0090407Y0115330D02*
X0019360Y0115330D01*
X0019360Y0114332D02*
X0033308Y0114332D01*
X0033490Y0114407D02*
X0032002Y0113791D01*
X0030863Y0112652D01*
X0030576Y0111958D01*
X0028436Y0111958D01*
X0027030Y0110553D01*
X0022225Y0110553D01*
X0021581Y0109908D01*
X0021581Y0103092D01*
X0022225Y0102447D01*
X0023640Y0102447D01*
X0023640Y0100553D01*
X0022225Y0100553D01*
X0021712Y0100039D01*
X0021519Y0100374D01*
X0021240Y0100653D01*
X0020898Y0100851D01*
X0020516Y0100953D01*
X0018260Y0100953D01*
X0018260Y0097000D01*
X0017260Y0097000D01*
X0017260Y0100953D01*
X0015003Y0100953D01*
X0014622Y0100851D01*
X0014280Y0100653D01*
X0014000Y0100374D01*
X0013803Y0100032D01*
X0013701Y0099650D01*
X0013701Y0097000D01*
X0017260Y0097000D01*
X0017260Y0096000D01*
X0018260Y0096000D01*
X0018260Y0092047D01*
X0020516Y0092047D01*
X0020898Y0092149D01*
X0021240Y0092347D01*
X0021519Y0092626D01*
X0021712Y0092961D01*
X0022225Y0092447D01*
X0028255Y0092447D01*
X0028899Y0093092D01*
X0028899Y0094900D01*
X0029774Y0094900D01*
X0030534Y0094141D01*
X0030246Y0093447D01*
X0030246Y0091836D01*
X0030863Y0090348D01*
X0032002Y0089209D01*
X0033490Y0088593D01*
X0035101Y0088593D01*
X0035794Y0088880D01*
X0039774Y0084900D01*
X0063828Y0084900D01*
X0063888Y0084755D01*
X0064755Y0083888D01*
X0065887Y0083419D01*
X0067113Y0083419D01*
X0068245Y0083888D01*
X0069112Y0084755D01*
X0069581Y0085887D01*
X0069581Y0087113D01*
X0069112Y0088245D01*
X0068245Y0089112D01*
X0067113Y0089581D01*
X0065887Y0089581D01*
X0064755Y0089112D01*
X0063888Y0088245D01*
X0063828Y0088100D01*
X0041100Y0088100D01*
X0038057Y0091143D01*
X0038344Y0091836D01*
X0038344Y0093447D01*
X0037728Y0094935D01*
X0036589Y0096074D01*
X0035101Y0096691D01*
X0033490Y0096691D01*
X0032796Y0096403D01*
X0031100Y0098100D01*
X0028899Y0098100D01*
X0028899Y0099908D01*
X0028255Y0100553D01*
X0026840Y0100553D01*
X0026840Y0102447D01*
X0028255Y0102447D01*
X0028899Y0103092D01*
X0028899Y0107896D01*
X0029761Y0108758D01*
X0030576Y0108758D01*
X0030863Y0108065D01*
X0032002Y0106926D01*
X0033490Y0106309D01*
X0035101Y0106309D01*
X0036589Y0106926D01*
X0037728Y0108065D01*
X0038344Y0109553D01*
X0038344Y0111164D01*
X0037728Y0112652D01*
X0036589Y0113791D01*
X0035101Y0114407D01*
X0033490Y0114407D01*
X0035282Y0114332D02*
X0091405Y0114332D01*
X0092404Y0113333D02*
X0037046Y0113333D01*
X0037859Y0112335D02*
X0093402Y0112335D01*
X0094401Y0111336D02*
X0038273Y0111336D01*
X0038344Y0110338D02*
X0095400Y0110338D01*
X0096398Y0109339D02*
X0038256Y0109339D01*
X0037842Y0108341D02*
X0097397Y0108341D01*
X0098395Y0107342D02*
X0037005Y0107342D01*
X0035183Y0106344D02*
X0099394Y0106344D01*
X0100392Y0105345D02*
X0028899Y0105345D01*
X0028899Y0104347D02*
X0101391Y0104347D01*
X0102389Y0103348D02*
X0028899Y0103348D01*
X0026840Y0102350D02*
X0103388Y0102350D01*
X0104386Y0101351D02*
X0026840Y0101351D01*
X0028455Y0100353D02*
X0105385Y0100353D01*
X0106383Y0099354D02*
X0028899Y0099354D01*
X0028899Y0098356D02*
X0107382Y0098356D01*
X0108380Y0097357D02*
X0031843Y0097357D01*
X0030437Y0096500D02*
X0034295Y0092642D01*
X0040437Y0086500D01*
X0066500Y0086500D01*
X0069369Y0085375D02*
X0123587Y0085375D01*
X0123781Y0085569D02*
X0122431Y0084219D01*
X0121700Y0082455D01*
X0121700Y0080545D01*
X0122164Y0079426D01*
X0117258Y0074521D01*
X0117113Y0074581D01*
X0115887Y0074581D01*
X0114755Y0074112D01*
X0113888Y0073245D01*
X0113419Y0072113D01*
X0113419Y0070887D01*
X0113888Y0069755D01*
X0114755Y0068888D01*
X0115887Y0068419D01*
X0117113Y0068419D01*
X0118245Y0068888D01*
X0119112Y0069755D01*
X0119581Y0070887D01*
X0119581Y0072113D01*
X0119521Y0072258D01*
X0124426Y0077164D01*
X0125545Y0076700D01*
X0127455Y0076700D01*
X0129219Y0077431D01*
X0130569Y0078781D01*
X0131300Y0080545D01*
X0131300Y0082455D01*
X0130569Y0084219D01*
X0129219Y0085569D01*
X0127455Y0086300D01*
X0125545Y0086300D01*
X0123781Y0085569D01*
X0122588Y0084376D02*
X0068734Y0084376D01*
X0069581Y0086373D02*
X0134900Y0086373D01*
X0134900Y0087372D02*
X0069474Y0087372D01*
X0068987Y0088370D02*
X0134900Y0088370D01*
X0132823Y0089369D02*
X0067625Y0089369D01*
X0065375Y0089369D02*
X0039831Y0089369D01*
X0040829Y0088370D02*
X0064013Y0088370D01*
X0064266Y0084376D02*
X0023899Y0084376D01*
X0023899Y0083378D02*
X0122082Y0083378D01*
X0121700Y0082379D02*
X0023899Y0082379D01*
X0023899Y0081381D02*
X0121700Y0081381D01*
X0121767Y0080382D02*
X0023899Y0080382D01*
X0023899Y0079384D02*
X0122121Y0079384D01*
X0121123Y0078385D02*
X0023899Y0078385D01*
X0021840Y0077387D02*
X0120124Y0077387D01*
X0119126Y0076388D02*
X0021840Y0076388D01*
X0021840Y0075390D02*
X0118127Y0075390D01*
X0115429Y0074391D02*
X0021840Y0074391D01*
X0021840Y0073393D02*
X0114035Y0073393D01*
X0113535Y0072394D02*
X0021840Y0072394D01*
X0021840Y0071396D02*
X0113419Y0071396D01*
X0113622Y0070397D02*
X0043346Y0070397D01*
X0044279Y0069399D02*
X0114244Y0069399D01*
X0116500Y0071500D02*
X0126500Y0081500D01*
X0130918Y0083378D02*
X0132082Y0083378D01*
X0131700Y0082379D02*
X0131300Y0082379D01*
X0131300Y0081381D02*
X0131700Y0081381D01*
X0131767Y0080382D02*
X0131233Y0080382D01*
X0130819Y0079384D02*
X0132181Y0079384D01*
X0132826Y0078385D02*
X0130174Y0078385D01*
X0129113Y0077387D02*
X0133887Y0077387D01*
X0134582Y0075390D02*
X0122653Y0075390D01*
X0123651Y0076388D02*
X0136160Y0076388D01*
X0137760Y0075972D02*
X0141300Y0079512D01*
X0141300Y0095440D01*
X0136500Y0100240D01*
X0130240Y0100240D01*
X0126500Y0096500D01*
X0111500Y0096500D01*
X0076500Y0131500D01*
X0067760Y0140240D01*
X0066500Y0140240D01*
X0065240Y0141500D01*
X0056500Y0141500D01*
X0054348Y0139295D02*
X0038237Y0139295D01*
X0038344Y0140293D02*
X0053665Y0140293D01*
X0053419Y0141292D02*
X0038291Y0141292D01*
X0037877Y0142290D02*
X0053492Y0142290D01*
X0053931Y0143289D02*
X0037091Y0143289D01*
X0035390Y0144287D02*
X0055177Y0144287D01*
X0057823Y0144287D02*
X0122221Y0144287D01*
X0121808Y0145286D02*
X0006000Y0145286D01*
X0006000Y0146284D02*
X0121700Y0146284D01*
X0122923Y0143289D02*
X0070519Y0143289D01*
X0062481Y0143289D02*
X0059069Y0143289D01*
X0058652Y0139295D02*
X0062447Y0139295D01*
X0062447Y0138296D02*
X0037823Y0138296D01*
X0036960Y0137298D02*
X0062447Y0137298D01*
X0062760Y0136500D02*
X0066500Y0132760D01*
X0067000Y0132305D02*
X0073432Y0132305D01*
X0073419Y0131306D02*
X0070953Y0131306D01*
X0070953Y0132260D02*
X0070953Y0130003D01*
X0070851Y0129622D01*
X0070653Y0129280D01*
X0070374Y0129000D01*
X0070032Y0128803D01*
X0069650Y0128701D01*
X0067000Y0128701D01*
X0067000Y0132260D01*
X0070953Y0132260D01*
X0070953Y0133303D02*
X0072434Y0133303D01*
X0071435Y0134302D02*
X0070953Y0134302D01*
X0067000Y0131306D02*
X0066000Y0131306D01*
X0066000Y0130308D02*
X0067000Y0130308D01*
X0067000Y0129309D02*
X0066000Y0129309D01*
X0066000Y0132305D02*
X0026840Y0132305D01*
X0026840Y0131306D02*
X0062047Y0131306D01*
X0062047Y0130308D02*
X0028500Y0130308D01*
X0028899Y0129309D02*
X0062330Y0129309D01*
X0062047Y0133303D02*
X0028899Y0133303D01*
X0028899Y0134302D02*
X0062047Y0134302D01*
X0062047Y0135301D02*
X0031500Y0135301D01*
X0032499Y0136299D02*
X0062406Y0136299D01*
X0062760Y0136500D02*
X0056500Y0136500D01*
X0070953Y0130308D02*
X0073659Y0130308D01*
X0074333Y0129309D02*
X0070670Y0129309D01*
X0080422Y0125315D02*
X0037347Y0125315D01*
X0037984Y0124317D02*
X0081420Y0124317D01*
X0082419Y0123318D02*
X0038344Y0123318D01*
X0038344Y0122320D02*
X0083417Y0122320D01*
X0084416Y0121321D02*
X0038131Y0121321D01*
X0037702Y0120323D02*
X0085414Y0120323D01*
X0086413Y0119324D02*
X0036704Y0119324D01*
X0031887Y0119324D02*
X0019360Y0119324D01*
X0019360Y0118326D02*
X0087411Y0118326D01*
X0088410Y0117327D02*
X0019360Y0117327D01*
X0019360Y0116329D02*
X0089408Y0116329D01*
X0099925Y0110338D02*
X0123550Y0110338D01*
X0122551Y0109339D02*
X0100923Y0109339D01*
X0101922Y0108341D02*
X0122067Y0108341D01*
X0121700Y0107342D02*
X0102921Y0107342D01*
X0103919Y0106344D02*
X0121700Y0106344D01*
X0121783Y0105345D02*
X0104918Y0105345D01*
X0105916Y0104347D02*
X0122196Y0104347D01*
X0122864Y0103348D02*
X0106915Y0103348D01*
X0107913Y0102350D02*
X0123977Y0102350D01*
X0123564Y0100353D02*
X0109910Y0100353D01*
X0108912Y0101351D02*
X0129088Y0101351D01*
X0129023Y0102350D02*
X0132447Y0102350D01*
X0132541Y0103348D02*
X0130136Y0103348D01*
X0130927Y0098356D02*
X0132447Y0098356D01*
X0132447Y0097357D02*
X0131300Y0097357D01*
X0131300Y0096359D02*
X0133031Y0096359D01*
X0132447Y0095360D02*
X0131223Y0095360D01*
X0130810Y0094362D02*
X0132447Y0094362D01*
X0132447Y0093363D02*
X0130151Y0093363D01*
X0129059Y0092365D02*
X0132447Y0092365D01*
X0132447Y0091366D02*
X0038149Y0091366D01*
X0038344Y0092365D02*
X0123941Y0092365D01*
X0122849Y0093363D02*
X0038344Y0093363D01*
X0037965Y0094362D02*
X0122190Y0094362D01*
X0122073Y0098356D02*
X0111907Y0098356D01*
X0110909Y0099354D02*
X0122566Y0099354D01*
X0132447Y0090368D02*
X0038832Y0090368D01*
X0036304Y0088370D02*
X0015632Y0088370D01*
X0016631Y0087372D02*
X0037302Y0087372D01*
X0038301Y0086373D02*
X0017629Y0086373D01*
X0014634Y0089369D02*
X0031842Y0089369D01*
X0030855Y0090368D02*
X0013635Y0090368D01*
X0012754Y0091366D02*
X0030441Y0091366D01*
X0030246Y0092365D02*
X0021257Y0092365D01*
X0018260Y0092365D02*
X0017260Y0092365D01*
X0017260Y0092047D02*
X0017260Y0096000D01*
X0013701Y0096000D01*
X0013701Y0093350D01*
X0013803Y0092968D01*
X0014000Y0092626D01*
X0014280Y0092347D01*
X0014622Y0092149D01*
X0015003Y0092047D01*
X0017260Y0092047D01*
X0017260Y0093363D02*
X0018260Y0093363D01*
X0018260Y0094362D02*
X0017260Y0094362D01*
X0017260Y0095360D02*
X0018260Y0095360D01*
X0017260Y0096359D02*
X0012441Y0096359D01*
X0012754Y0095360D02*
X0013701Y0095360D01*
X0013701Y0094362D02*
X0012754Y0094362D01*
X0012754Y0093363D02*
X0013701Y0093363D01*
X0014262Y0092365D02*
X0012754Y0092365D01*
X0009098Y0092642D02*
X0008705Y0092642D01*
X0008705Y0110358D01*
X0013902Y0110358D01*
X0017760Y0106500D01*
X0017760Y0126500D01*
X0013902Y0122642D01*
X0008705Y0122642D01*
X0008705Y0140358D01*
X0011500Y0143289D02*
X0031500Y0143289D01*
X0030713Y0142290D02*
X0012287Y0142290D01*
X0012647Y0139295D02*
X0013701Y0139295D01*
X0013701Y0138296D02*
X0012233Y0138296D01*
X0009800Y0144287D02*
X0033200Y0144287D01*
X0034295Y0140358D02*
X0030437Y0136500D01*
X0023640Y0132305D02*
X0021167Y0132305D01*
X0023640Y0131306D02*
X0010305Y0131306D01*
X0010305Y0130308D02*
X0014500Y0130308D01*
X0014101Y0129309D02*
X0010305Y0129309D01*
X0010305Y0128311D02*
X0014101Y0128311D01*
X0014101Y0127312D02*
X0010305Y0127312D01*
X0012486Y0126314D02*
X0014101Y0126314D01*
X0014101Y0125315D02*
X0012754Y0125315D01*
X0012754Y0124317D02*
X0013314Y0124317D01*
X0008705Y0122642D02*
X0008705Y0110358D01*
X0011415Y0107342D02*
X0014101Y0107342D01*
X0014101Y0106344D02*
X0010305Y0106344D01*
X0010305Y0105345D02*
X0014101Y0105345D01*
X0014101Y0104347D02*
X0010305Y0104347D01*
X0010305Y0103348D02*
X0014101Y0103348D01*
X0013988Y0100353D02*
X0010305Y0100353D01*
X0010305Y0101351D02*
X0023640Y0101351D01*
X0023640Y0102350D02*
X0010305Y0102350D01*
X0010305Y0099354D02*
X0013701Y0099354D01*
X0013701Y0098356D02*
X0010305Y0098356D01*
X0010305Y0097357D02*
X0013701Y0097357D01*
X0017260Y0097357D02*
X0018260Y0097357D01*
X0018260Y0098356D02*
X0017260Y0098356D01*
X0017260Y0099354D02*
X0018260Y0099354D01*
X0018260Y0100353D02*
X0017260Y0100353D01*
X0021531Y0100353D02*
X0022025Y0100353D01*
X0021581Y0103348D02*
X0021419Y0103348D01*
X0021419Y0104347D02*
X0021581Y0104347D01*
X0021581Y0105345D02*
X0021419Y0105345D01*
X0021419Y0106344D02*
X0021581Y0106344D01*
X0021581Y0107342D02*
X0021419Y0107342D01*
X0021419Y0108341D02*
X0021581Y0108341D01*
X0021581Y0109339D02*
X0021419Y0109339D01*
X0020990Y0110338D02*
X0022010Y0110338D01*
X0019360Y0111336D02*
X0027814Y0111336D01*
X0029098Y0110358D02*
X0034295Y0110358D01*
X0031544Y0113333D02*
X0019360Y0113333D01*
X0019360Y0112335D02*
X0030732Y0112335D01*
X0029098Y0110358D02*
X0025240Y0106500D01*
X0025240Y0096500D01*
X0030437Y0096500D01*
X0030313Y0094362D02*
X0028899Y0094362D01*
X0028899Y0093363D02*
X0030246Y0093363D01*
X0035902Y0096359D02*
X0109379Y0096359D01*
X0110377Y0095360D02*
X0037303Y0095360D01*
X0039299Y0085375D02*
X0023433Y0085375D01*
X0020240Y0081500D02*
X0020240Y0058587D01*
X0014098Y0052445D01*
X0009668Y0048430D02*
X0006000Y0048430D01*
X0006000Y0047432D02*
X0016142Y0047432D01*
X0017140Y0046433D02*
X0006000Y0046433D01*
X0006000Y0045434D02*
X0018139Y0045434D01*
X0019137Y0044436D02*
X0006000Y0044436D01*
X0006000Y0043437D02*
X0020136Y0043437D01*
X0021134Y0042439D02*
X0006000Y0042439D01*
X0006000Y0041440D02*
X0022133Y0041440D01*
X0023132Y0040442D02*
X0006000Y0040442D01*
X0006000Y0039443D02*
X0024101Y0039443D01*
X0024101Y0038445D02*
X0006000Y0038445D01*
X0006000Y0037446D02*
X0028844Y0037446D01*
X0029548Y0036448D02*
X0006000Y0036448D01*
X0006000Y0035449D02*
X0008661Y0035449D01*
X0008781Y0035569D02*
X0007431Y0034219D01*
X0006700Y0032455D01*
X0006700Y0030545D01*
X0007431Y0028781D01*
X0008781Y0027431D01*
X0010545Y0026700D01*
X0012455Y0026700D01*
X0014219Y0027431D01*
X0015569Y0028781D01*
X0016300Y0030545D01*
X0016300Y0032455D01*
X0015569Y0034219D01*
X0014219Y0035569D01*
X0012455Y0036300D01*
X0010545Y0036300D01*
X0008781Y0035569D01*
X0007663Y0034451D02*
X0006000Y0034451D01*
X0006000Y0033452D02*
X0007113Y0033452D01*
X0006700Y0032454D02*
X0006000Y0032454D01*
X0006000Y0031455D02*
X0006700Y0031455D01*
X0006737Y0030457D02*
X0006000Y0030457D01*
X0006000Y0029458D02*
X0007150Y0029458D01*
X0007752Y0028460D02*
X0006000Y0028460D01*
X0006000Y0027461D02*
X0008750Y0027461D01*
X0006000Y0026463D02*
X0034700Y0026463D01*
X0034700Y0027461D02*
X0034249Y0027461D01*
X0034324Y0025464D02*
X0034700Y0025464D01*
X0038900Y0025464D02*
X0044169Y0025464D01*
X0044341Y0025637D02*
X0043300Y0024596D01*
X0042737Y0023236D01*
X0042737Y0021764D01*
X0043300Y0020404D01*
X0044341Y0019363D01*
X0045701Y0018800D01*
X0047173Y0018800D01*
X0048533Y0019363D01*
X0049574Y0020404D01*
X0050137Y0021764D01*
X0050137Y0023236D01*
X0049574Y0024596D01*
X0048533Y0025637D01*
X0047173Y0026200D01*
X0045701Y0026200D01*
X0044341Y0025637D01*
X0043246Y0024466D02*
X0038900Y0024466D01*
X0038900Y0023467D02*
X0042833Y0023467D01*
X0042737Y0022469D02*
X0038900Y0022469D01*
X0038900Y0021470D02*
X0042859Y0021470D01*
X0043272Y0020472D02*
X0038900Y0020472D01*
X0038900Y0019473D02*
X0044231Y0019473D01*
X0044341Y0017763D02*
X0043300Y0016722D01*
X0042737Y0015362D01*
X0042737Y0013890D01*
X0043300Y0012530D01*
X0044341Y0011489D01*
X0045701Y0010926D01*
X0047173Y0010926D01*
X0048533Y0011489D01*
X0049574Y0012530D01*
X0050137Y0013890D01*
X0050137Y0015362D01*
X0049574Y0016722D01*
X0048533Y0017763D01*
X0047173Y0018326D01*
X0045701Y0018326D01*
X0044341Y0017763D01*
X0044055Y0017476D02*
X0037941Y0017476D01*
X0038900Y0018475D02*
X0138759Y0018475D01*
X0137935Y0017476D02*
X0048819Y0017476D01*
X0049675Y0016478D02*
X0137359Y0016478D01*
X0136794Y0015479D02*
X0050088Y0015479D01*
X0050137Y0014481D02*
X0136526Y0014481D01*
X0136259Y0013482D02*
X0049968Y0013482D01*
X0049527Y0012484D02*
X0136095Y0012484D01*
X0136095Y0011485D02*
X0048523Y0011485D01*
X0044351Y0011485D02*
X0036300Y0011485D01*
X0036288Y0012484D02*
X0043347Y0012484D01*
X0042906Y0013482D02*
X0035874Y0013482D01*
X0035308Y0014481D02*
X0042737Y0014481D01*
X0042786Y0015479D02*
X0035944Y0015479D01*
X0036943Y0016478D02*
X0043199Y0016478D01*
X0048643Y0019473D02*
X0139758Y0019473D01*
X0141228Y0020472D02*
X0049602Y0020472D01*
X0050015Y0021470D02*
X0143506Y0021470D01*
X0149494Y0021470D02*
X0151921Y0021470D01*
X0151921Y0020472D02*
X0151772Y0020472D01*
X0151921Y0022469D02*
X0050137Y0022469D01*
X0050041Y0023467D02*
X0151921Y0023467D01*
X0151921Y0024466D02*
X0049628Y0024466D01*
X0048705Y0025464D02*
X0151921Y0025464D01*
X0151921Y0026463D02*
X0038900Y0026463D01*
X0038900Y0027461D02*
X0044409Y0027461D01*
X0044341Y0027489D02*
X0045701Y0026926D01*
X0047173Y0026926D01*
X0048533Y0027489D01*
X0049574Y0028530D01*
X0050137Y0029890D01*
X0050137Y0031362D01*
X0049574Y0032722D01*
X0048533Y0033763D01*
X0047173Y0034326D01*
X0045701Y0034326D01*
X0044341Y0033763D01*
X0043300Y0032722D01*
X0042737Y0031362D01*
X0042737Y0029890D01*
X0043300Y0028530D01*
X0044341Y0027489D01*
X0043371Y0028460D02*
X0038900Y0028460D01*
X0038900Y0029458D02*
X0042916Y0029458D01*
X0042737Y0030457D02*
X0038900Y0030457D01*
X0038900Y0031455D02*
X0042776Y0031455D01*
X0043189Y0032454D02*
X0038900Y0032454D01*
X0038900Y0033452D02*
X0044031Y0033452D01*
X0044341Y0035363D02*
X0045701Y0034800D01*
X0047173Y0034800D01*
X0048533Y0035363D01*
X0049574Y0036404D01*
X0050137Y0037764D01*
X0050137Y0039236D01*
X0049574Y0040596D01*
X0048533Y0041637D01*
X0047173Y0042200D01*
X0045701Y0042200D01*
X0044341Y0041637D01*
X0043300Y0040596D01*
X0042737Y0039236D01*
X0042737Y0037764D01*
X0043300Y0036404D01*
X0044341Y0035363D01*
X0044255Y0035449D02*
X0038016Y0035449D01*
X0038900Y0034451D02*
X0151921Y0034451D01*
X0151921Y0035449D02*
X0048619Y0035449D01*
X0049592Y0036448D02*
X0151921Y0036448D01*
X0151921Y0037446D02*
X0050005Y0037446D01*
X0050137Y0038445D02*
X0151921Y0038445D01*
X0151921Y0039443D02*
X0050051Y0039443D01*
X0049637Y0040442D02*
X0151921Y0040442D01*
X0151921Y0041440D02*
X0048729Y0041440D01*
X0048408Y0043437D02*
X0151921Y0043437D01*
X0151921Y0042439D02*
X0039299Y0042439D01*
X0039299Y0042000D02*
X0039299Y0044650D01*
X0039197Y0045032D01*
X0038999Y0045374D01*
X0038720Y0045653D01*
X0038378Y0045851D01*
X0037997Y0045953D01*
X0035740Y0045953D01*
X0035740Y0042000D01*
X0039299Y0042000D01*
X0039299Y0043437D02*
X0044466Y0043437D01*
X0044341Y0043489D02*
X0045701Y0042926D01*
X0047173Y0042926D01*
X0048533Y0043489D01*
X0049574Y0044530D01*
X0050137Y0045890D01*
X0050137Y0047362D01*
X0049574Y0048722D01*
X0048533Y0049763D01*
X0047173Y0050326D01*
X0045701Y0050326D01*
X0044341Y0049763D01*
X0043300Y0048722D01*
X0042737Y0047362D01*
X0042737Y0045890D01*
X0043300Y0044530D01*
X0044341Y0043489D01*
X0043394Y0044436D02*
X0039299Y0044436D01*
X0038939Y0045434D02*
X0042926Y0045434D01*
X0042737Y0046433D02*
X0023080Y0046433D01*
X0022082Y0047432D02*
X0042766Y0047432D01*
X0043179Y0048430D02*
X0021083Y0048430D01*
X0020085Y0049429D02*
X0044007Y0049429D01*
X0044226Y0053423D02*
X0134863Y0053423D01*
X0134863Y0052890D02*
X0135426Y0051530D01*
X0136467Y0050489D01*
X0137827Y0049926D01*
X0139299Y0049926D01*
X0140659Y0050489D01*
X0141700Y0051530D01*
X0142263Y0052890D01*
X0142263Y0054362D01*
X0141700Y0055722D01*
X0140659Y0056763D01*
X0139299Y0057326D01*
X0137827Y0057326D01*
X0136467Y0056763D01*
X0135426Y0055722D01*
X0134863Y0054362D01*
X0134863Y0052890D01*
X0135056Y0052424D02*
X0019135Y0052424D01*
X0019135Y0051426D02*
X0135531Y0051426D01*
X0136617Y0050427D02*
X0019135Y0050427D01*
X0019135Y0053423D02*
X0033577Y0053423D01*
X0033465Y0054421D02*
X0019135Y0054421D01*
X0019336Y0055420D02*
X0033465Y0055420D01*
X0033465Y0056418D02*
X0020334Y0056418D01*
X0021333Y0057417D02*
X0033465Y0057417D01*
X0033465Y0058415D02*
X0021840Y0058415D01*
X0021840Y0059414D02*
X0033465Y0059414D01*
X0033465Y0060412D02*
X0021840Y0060412D01*
X0016807Y0057417D02*
X0006000Y0057417D01*
X0006000Y0058415D02*
X0009061Y0058415D01*
X0009061Y0059414D02*
X0006000Y0059414D01*
X0006000Y0060412D02*
X0009061Y0060412D01*
X0009061Y0061411D02*
X0006000Y0061411D01*
X0006000Y0062409D02*
X0009061Y0062409D01*
X0009061Y0063408D02*
X0006000Y0063408D01*
X0006000Y0056418D02*
X0009626Y0056418D01*
X0009061Y0055420D02*
X0006000Y0055420D01*
X0006000Y0054421D02*
X0009061Y0054421D01*
X0009061Y0053423D02*
X0006000Y0053423D01*
X0006000Y0052424D02*
X0009061Y0052424D01*
X0009061Y0051426D02*
X0006000Y0051426D01*
X0006000Y0050427D02*
X0009061Y0050427D01*
X0009061Y0049429D02*
X0006000Y0049429D01*
X0014339Y0035449D02*
X0018661Y0035449D01*
X0018781Y0035569D02*
X0017431Y0034219D01*
X0016700Y0032455D01*
X0016700Y0030545D01*
X0017431Y0028781D01*
X0018781Y0027431D01*
X0020545Y0026700D01*
X0022455Y0026700D01*
X0024219Y0027431D01*
X0025569Y0028781D01*
X0026300Y0030545D01*
X0026300Y0032455D01*
X0025569Y0034219D01*
X0024219Y0035569D01*
X0022455Y0036300D01*
X0020545Y0036300D01*
X0018781Y0035569D01*
X0017663Y0034451D02*
X0015337Y0034451D01*
X0015887Y0033452D02*
X0017113Y0033452D01*
X0016700Y0032454D02*
X0016300Y0032454D01*
X0016300Y0031455D02*
X0016700Y0031455D01*
X0016737Y0030457D02*
X0016263Y0030457D01*
X0015850Y0029458D02*
X0017150Y0029458D01*
X0017752Y0028460D02*
X0015248Y0028460D01*
X0014250Y0027461D02*
X0018750Y0027461D01*
X0014494Y0021470D02*
X0026700Y0021470D01*
X0026706Y0022469D02*
X0006000Y0022469D01*
X0006000Y0023467D02*
X0027119Y0023467D01*
X0027678Y0024466D02*
X0006000Y0024466D01*
X0006000Y0025464D02*
X0028676Y0025464D01*
X0028750Y0027461D02*
X0024250Y0027461D01*
X0025248Y0028460D02*
X0027752Y0028460D01*
X0027150Y0029458D02*
X0025850Y0029458D01*
X0026263Y0030457D02*
X0026737Y0030457D01*
X0026700Y0031455D02*
X0026300Y0031455D01*
X0026300Y0032454D02*
X0026700Y0032454D01*
X0027113Y0033452D02*
X0025887Y0033452D01*
X0025337Y0034451D02*
X0027663Y0034451D01*
X0028661Y0035449D02*
X0024339Y0035449D01*
X0024079Y0045434D02*
X0024627Y0045434D01*
X0030893Y0045434D02*
X0031542Y0045434D01*
X0034740Y0045434D02*
X0035740Y0045434D01*
X0035740Y0044436D02*
X0034740Y0044436D01*
X0034740Y0043437D02*
X0035740Y0043437D01*
X0035740Y0042439D02*
X0034740Y0042439D01*
X0035740Y0041440D02*
X0044145Y0041440D01*
X0043237Y0040442D02*
X0039299Y0040442D01*
X0039299Y0039443D02*
X0042823Y0039443D01*
X0042737Y0038445D02*
X0039299Y0038445D01*
X0038820Y0037446D02*
X0042869Y0037446D01*
X0043282Y0036448D02*
X0037017Y0036448D01*
X0048843Y0033452D02*
X0151921Y0033452D01*
X0151921Y0032454D02*
X0049685Y0032454D01*
X0050098Y0031455D02*
X0151921Y0031455D01*
X0151921Y0030457D02*
X0050137Y0030457D01*
X0049958Y0029458D02*
X0151921Y0029458D01*
X0151921Y0028460D02*
X0049503Y0028460D01*
X0048465Y0027461D02*
X0151921Y0027461D01*
X0151921Y0044436D02*
X0049480Y0044436D01*
X0049948Y0045434D02*
X0151921Y0045434D01*
X0151921Y0046433D02*
X0050137Y0046433D01*
X0050108Y0047432D02*
X0151921Y0047432D01*
X0151921Y0048430D02*
X0049695Y0048430D01*
X0048867Y0049429D02*
X0151921Y0049429D01*
X0151921Y0050427D02*
X0148383Y0050427D01*
X0148533Y0050489D02*
X0147173Y0049926D01*
X0145701Y0049926D01*
X0144341Y0050489D01*
X0143300Y0051530D01*
X0142737Y0052890D01*
X0142737Y0054362D01*
X0143300Y0055722D01*
X0144341Y0056763D01*
X0145701Y0057326D01*
X0147173Y0057326D01*
X0148533Y0056763D01*
X0149574Y0055722D01*
X0150137Y0054362D01*
X0150137Y0052890D01*
X0149574Y0051530D01*
X0148533Y0050489D01*
X0149469Y0051426D02*
X0151921Y0051426D01*
X0151921Y0052424D02*
X0149944Y0052424D01*
X0150137Y0053423D02*
X0151921Y0053423D01*
X0151921Y0054421D02*
X0150113Y0054421D01*
X0149699Y0055420D02*
X0151921Y0055420D01*
X0151921Y0056418D02*
X0148877Y0056418D01*
X0148011Y0057700D02*
X0148586Y0057993D01*
X0149108Y0058373D01*
X0149564Y0058829D01*
X0149944Y0059351D01*
X0150237Y0059926D01*
X0150436Y0060540D01*
X0150537Y0061177D01*
X0150537Y0061200D01*
X0146737Y0061200D01*
X0146737Y0061800D01*
X0146137Y0061800D01*
X0146137Y0061200D01*
X0142337Y0061200D01*
X0142337Y0061177D01*
X0142438Y0060540D01*
X0142637Y0059926D01*
X0142930Y0059351D01*
X0143310Y0058829D01*
X0143766Y0058373D01*
X0144288Y0057993D01*
X0144863Y0057700D01*
X0145477Y0057501D01*
X0146114Y0057400D01*
X0146137Y0057400D01*
X0146137Y0061200D01*
X0146737Y0061200D01*
X0146737Y0057400D01*
X0146760Y0057400D01*
X0147397Y0057501D01*
X0148011Y0057700D01*
X0146865Y0057417D02*
X0151921Y0057417D01*
X0151921Y0058415D02*
X0149150Y0058415D01*
X0149975Y0059414D02*
X0151921Y0059414D01*
X0151921Y0060412D02*
X0150395Y0060412D01*
X0150537Y0061800D02*
X0150537Y0061823D01*
X0150436Y0062460D01*
X0150237Y0063074D01*
X0149944Y0063649D01*
X0149564Y0064171D01*
X0149108Y0064627D01*
X0148586Y0065007D01*
X0148011Y0065300D01*
X0147397Y0065499D01*
X0146760Y0065600D01*
X0146737Y0065600D01*
X0146737Y0061800D01*
X0150537Y0061800D01*
X0150444Y0062409D02*
X0151921Y0062409D01*
X0151921Y0061411D02*
X0146737Y0061411D01*
X0146137Y0061411D02*
X0142263Y0061411D01*
X0142337Y0061800D02*
X0146137Y0061800D01*
X0146137Y0065600D01*
X0146114Y0065600D01*
X0145477Y0065499D01*
X0144863Y0065300D01*
X0144288Y0065007D01*
X0143766Y0064627D01*
X0143310Y0064171D01*
X0142930Y0063649D01*
X0142637Y0063074D01*
X0142438Y0062460D01*
X0142337Y0061823D01*
X0142337Y0061800D01*
X0142263Y0062409D02*
X0142430Y0062409D01*
X0142263Y0063408D02*
X0142808Y0063408D01*
X0142263Y0064406D02*
X0143545Y0064406D01*
X0145187Y0065405D02*
X0140163Y0065405D01*
X0140163Y0066403D02*
X0151921Y0066403D01*
X0151921Y0065405D02*
X0147687Y0065405D01*
X0146737Y0065405D02*
X0146137Y0065405D01*
X0146137Y0064406D02*
X0146737Y0064406D01*
X0146737Y0063408D02*
X0146137Y0063408D01*
X0146137Y0062409D02*
X0146737Y0062409D01*
X0146737Y0060412D02*
X0146137Y0060412D01*
X0146137Y0059414D02*
X0146737Y0059414D01*
X0146737Y0058415D02*
X0146137Y0058415D01*
X0146137Y0057417D02*
X0146737Y0057417D01*
X0146009Y0057417D02*
X0044339Y0057417D01*
X0044339Y0058415D02*
X0134892Y0058415D01*
X0134863Y0059414D02*
X0044339Y0059414D01*
X0044339Y0060412D02*
X0134863Y0060412D01*
X0134863Y0062409D02*
X0044339Y0062409D01*
X0044339Y0063408D02*
X0134863Y0063408D01*
X0134863Y0064406D02*
X0044339Y0064406D01*
X0044339Y0065405D02*
X0136963Y0065405D01*
X0136963Y0066403D02*
X0044339Y0066403D01*
X0044339Y0067402D02*
X0136963Y0067402D01*
X0134101Y0068400D02*
X0044339Y0068400D01*
X0039402Y0059414D02*
X0038402Y0059414D01*
X0038402Y0058415D02*
X0039402Y0058415D01*
X0039402Y0057417D02*
X0038402Y0057417D01*
X0038402Y0056418D02*
X0039402Y0056418D01*
X0039402Y0055420D02*
X0038402Y0055420D01*
X0038402Y0054421D02*
X0039402Y0054421D01*
X0039402Y0053423D02*
X0038402Y0053423D01*
X0044339Y0054421D02*
X0134888Y0054421D01*
X0135301Y0055420D02*
X0044339Y0055420D01*
X0044339Y0056418D02*
X0136123Y0056418D01*
X0141003Y0056418D02*
X0143997Y0056418D01*
X0143175Y0055420D02*
X0141825Y0055420D01*
X0142238Y0054421D02*
X0142762Y0054421D01*
X0142737Y0053423D02*
X0142263Y0053423D01*
X0142070Y0052424D02*
X0142930Y0052424D01*
X0143405Y0051426D02*
X0141595Y0051426D01*
X0140509Y0050427D02*
X0144491Y0050427D01*
X0143724Y0058415D02*
X0142234Y0058415D01*
X0142263Y0059414D02*
X0142899Y0059414D01*
X0142479Y0060412D02*
X0142263Y0060412D01*
X0141705Y0067402D02*
X0140163Y0067402D01*
X0144740Y0067402D02*
X0145740Y0067402D01*
X0145740Y0068400D02*
X0144740Y0068400D01*
X0144740Y0069399D02*
X0145740Y0069399D01*
X0145740Y0070397D02*
X0144740Y0070397D01*
X0149299Y0070397D02*
X0151921Y0070397D01*
X0151921Y0069399D02*
X0149299Y0069399D01*
X0149299Y0068400D02*
X0151921Y0068400D01*
X0151921Y0067402D02*
X0148775Y0067402D01*
X0149329Y0064406D02*
X0151921Y0064406D01*
X0151921Y0063408D02*
X0150067Y0063408D01*
X0134101Y0069399D02*
X0118756Y0069399D01*
X0119378Y0070397D02*
X0134101Y0070397D01*
X0134101Y0071396D02*
X0119581Y0071396D01*
X0119657Y0072394D02*
X0134101Y0072394D01*
X0134101Y0073393D02*
X0120656Y0073393D01*
X0121654Y0074391D02*
X0134101Y0074391D01*
X0136500Y0081500D02*
X0136500Y0092760D01*
X0133587Y0085375D02*
X0129413Y0085375D01*
X0130412Y0084376D02*
X0132588Y0084376D01*
X0127000Y0112335D02*
X0126000Y0112335D01*
X0126000Y0113333D02*
X0127000Y0113333D01*
X0127000Y0114332D02*
X0126000Y0114332D01*
X0126000Y0115330D02*
X0127000Y0115330D01*
X0033407Y0106344D02*
X0028899Y0106344D01*
X0028899Y0107342D02*
X0031585Y0107342D01*
X0030749Y0108341D02*
X0029344Y0108341D01*
X0030888Y0120323D02*
X0019360Y0120323D01*
X0019360Y0121321D02*
X0030460Y0121321D01*
X0030246Y0122320D02*
X0019360Y0122320D01*
X0021419Y0123318D02*
X0021581Y0123318D01*
X0021581Y0124317D02*
X0021419Y0124317D01*
X0021419Y0125315D02*
X0021581Y0125315D01*
X0021581Y0126314D02*
X0021419Y0126314D01*
X0021419Y0127312D02*
X0021581Y0127312D01*
X0021581Y0128311D02*
X0021419Y0128311D01*
X0021419Y0129309D02*
X0021581Y0129309D01*
X0021981Y0130308D02*
X0021019Y0130308D01*
X0028899Y0124317D02*
X0030357Y0124317D01*
X0030246Y0123318D02*
X0028899Y0123318D01*
X0021966Y0140293D02*
X0021566Y0140293D01*
X0007610Y0144287D02*
X0006000Y0144287D01*
X0012251Y0108341D02*
X0013656Y0108341D01*
X0009098Y0092642D02*
X0020240Y0081500D01*
X0008506Y0021470D02*
X0006000Y0021470D01*
X0006000Y0020472D02*
X0006228Y0020472D01*
X0016772Y0020472D02*
X0026730Y0020472D01*
X0027144Y0019473D02*
X0018242Y0019473D01*
X0019241Y0018475D02*
X0027737Y0018475D01*
X0028736Y0017476D02*
X0020065Y0017476D01*
X0020641Y0016478D02*
X0031003Y0016478D01*
X0028691Y0015479D02*
X0021206Y0015479D01*
X0021474Y0014481D02*
X0027692Y0014481D01*
X0027126Y0013482D02*
X0021741Y0013482D01*
X0021905Y0012484D02*
X0026712Y0012484D01*
X0026700Y0011485D02*
X0021905Y0011485D01*
X0021905Y0010487D02*
X0026724Y0010487D01*
X0027138Y0009488D02*
X0021733Y0009488D01*
X0021466Y0008490D02*
X0027722Y0008490D01*
X0028721Y0007491D02*
X0021198Y0007491D01*
X0020624Y0006493D02*
X0137376Y0006493D01*
X0136802Y0007491D02*
X0034279Y0007491D01*
X0035278Y0008490D02*
X0136534Y0008490D01*
X0136267Y0009488D02*
X0035862Y0009488D01*
X0036276Y0010487D02*
X0136095Y0010487D01*
D21*
X0116500Y0071500D03*
X0066500Y0086500D03*
X0076500Y0131500D03*
X0056500Y0136500D03*
X0056500Y0141500D03*
X0007481Y0066500D03*
D22*
X0011536Y0070555D01*
X0014098Y0070555D01*
X0012760Y0071894D01*
X0012760Y0081500D01*
X0037760Y0061500D02*
X0038902Y0061500D01*
X0038902Y0045161D01*
X0035240Y0041500D01*
X0033695Y0036800D02*
X0032166Y0036800D01*
X0031081Y0037884D01*
X0031081Y0038179D01*
X0027760Y0041500D01*
X0025043Y0041500D01*
X0014098Y0052445D01*
X0033695Y0036800D02*
X0036800Y0033695D01*
X0036800Y0019305D01*
X0031500Y0014005D01*
X0031500Y0011500D01*
X0038902Y0061500D02*
X0060320Y0082919D01*
X0067983Y0082919D01*
X0070081Y0085017D01*
X0070081Y0087983D01*
X0066500Y0091564D01*
X0066500Y0132760D01*
M02*
