G75*
%MOIN*%
%OFA0B0*%
%FSLAX25Y25*%
%IPPOS*%
%LPD*%
%AMOC8*
5,1,8,0,0,1.08239X$1,22.5*
%
%ADD10C,0.00000*%
%ADD11C,0.00600*%
%ADD12C,0.00300*%
%ADD13C,0.00800*%
%ADD14C,0.00400*%
%ADD15C,0.00500*%
%ADD16C,0.00787*%
%ADD17C,0.00100*%
%ADD18C,0.01000*%
%ADD19C,0.01181*%
D10*
X0001500Y0001500D02*
X0001500Y0175201D01*
X0156421Y0175201D01*
X0156421Y0001500D01*
X0001500Y0001500D01*
X0005595Y0011500D02*
X0005597Y0011653D01*
X0005603Y0011806D01*
X0005613Y0011959D01*
X0005627Y0012112D01*
X0005645Y0012264D01*
X0005667Y0012416D01*
X0005692Y0012567D01*
X0005722Y0012718D01*
X0005755Y0012867D01*
X0005793Y0013016D01*
X0005834Y0013164D01*
X0005879Y0013310D01*
X0005928Y0013455D01*
X0005981Y0013599D01*
X0006037Y0013742D01*
X0006097Y0013883D01*
X0006161Y0014023D01*
X0006228Y0014160D01*
X0006299Y0014296D01*
X0006373Y0014430D01*
X0006451Y0014562D01*
X0006532Y0014692D01*
X0006617Y0014820D01*
X0006705Y0014946D01*
X0006796Y0015069D01*
X0006890Y0015190D01*
X0006987Y0015309D01*
X0007088Y0015425D01*
X0007191Y0015538D01*
X0007298Y0015648D01*
X0007407Y0015756D01*
X0007518Y0015861D01*
X0007633Y0015963D01*
X0007750Y0016062D01*
X0007870Y0016157D01*
X0007992Y0016250D01*
X0008117Y0016340D01*
X0008243Y0016426D01*
X0008372Y0016509D01*
X0008503Y0016588D01*
X0008636Y0016664D01*
X0008771Y0016737D01*
X0008908Y0016806D01*
X0009047Y0016871D01*
X0009187Y0016933D01*
X0009329Y0016991D01*
X0009472Y0017046D01*
X0009617Y0017097D01*
X0009763Y0017144D01*
X0009910Y0017187D01*
X0010058Y0017226D01*
X0010207Y0017262D01*
X0010357Y0017293D01*
X0010508Y0017321D01*
X0010660Y0017345D01*
X0010812Y0017365D01*
X0010964Y0017381D01*
X0011117Y0017393D01*
X0011270Y0017401D01*
X0011423Y0017405D01*
X0011577Y0017405D01*
X0011730Y0017401D01*
X0011883Y0017393D01*
X0012036Y0017381D01*
X0012188Y0017365D01*
X0012340Y0017345D01*
X0012492Y0017321D01*
X0012643Y0017293D01*
X0012793Y0017262D01*
X0012942Y0017226D01*
X0013090Y0017187D01*
X0013237Y0017144D01*
X0013383Y0017097D01*
X0013528Y0017046D01*
X0013671Y0016991D01*
X0013813Y0016933D01*
X0013953Y0016871D01*
X0014092Y0016806D01*
X0014229Y0016737D01*
X0014364Y0016664D01*
X0014497Y0016588D01*
X0014628Y0016509D01*
X0014757Y0016426D01*
X0014883Y0016340D01*
X0015008Y0016250D01*
X0015130Y0016157D01*
X0015250Y0016062D01*
X0015367Y0015963D01*
X0015482Y0015861D01*
X0015593Y0015756D01*
X0015702Y0015648D01*
X0015809Y0015538D01*
X0015912Y0015425D01*
X0016013Y0015309D01*
X0016110Y0015190D01*
X0016204Y0015069D01*
X0016295Y0014946D01*
X0016383Y0014820D01*
X0016468Y0014692D01*
X0016549Y0014562D01*
X0016627Y0014430D01*
X0016701Y0014296D01*
X0016772Y0014160D01*
X0016839Y0014023D01*
X0016903Y0013883D01*
X0016963Y0013742D01*
X0017019Y0013599D01*
X0017072Y0013455D01*
X0017121Y0013310D01*
X0017166Y0013164D01*
X0017207Y0013016D01*
X0017245Y0012867D01*
X0017278Y0012718D01*
X0017308Y0012567D01*
X0017333Y0012416D01*
X0017355Y0012264D01*
X0017373Y0012112D01*
X0017387Y0011959D01*
X0017397Y0011806D01*
X0017403Y0011653D01*
X0017405Y0011500D01*
X0017403Y0011347D01*
X0017397Y0011194D01*
X0017387Y0011041D01*
X0017373Y0010888D01*
X0017355Y0010736D01*
X0017333Y0010584D01*
X0017308Y0010433D01*
X0017278Y0010282D01*
X0017245Y0010133D01*
X0017207Y0009984D01*
X0017166Y0009836D01*
X0017121Y0009690D01*
X0017072Y0009545D01*
X0017019Y0009401D01*
X0016963Y0009258D01*
X0016903Y0009117D01*
X0016839Y0008977D01*
X0016772Y0008840D01*
X0016701Y0008704D01*
X0016627Y0008570D01*
X0016549Y0008438D01*
X0016468Y0008308D01*
X0016383Y0008180D01*
X0016295Y0008054D01*
X0016204Y0007931D01*
X0016110Y0007810D01*
X0016013Y0007691D01*
X0015912Y0007575D01*
X0015809Y0007462D01*
X0015702Y0007352D01*
X0015593Y0007244D01*
X0015482Y0007139D01*
X0015367Y0007037D01*
X0015250Y0006938D01*
X0015130Y0006843D01*
X0015008Y0006750D01*
X0014883Y0006660D01*
X0014757Y0006574D01*
X0014628Y0006491D01*
X0014497Y0006412D01*
X0014364Y0006336D01*
X0014229Y0006263D01*
X0014092Y0006194D01*
X0013953Y0006129D01*
X0013813Y0006067D01*
X0013671Y0006009D01*
X0013528Y0005954D01*
X0013383Y0005903D01*
X0013237Y0005856D01*
X0013090Y0005813D01*
X0012942Y0005774D01*
X0012793Y0005738D01*
X0012643Y0005707D01*
X0012492Y0005679D01*
X0012340Y0005655D01*
X0012188Y0005635D01*
X0012036Y0005619D01*
X0011883Y0005607D01*
X0011730Y0005599D01*
X0011577Y0005595D01*
X0011423Y0005595D01*
X0011270Y0005599D01*
X0011117Y0005607D01*
X0010964Y0005619D01*
X0010812Y0005635D01*
X0010660Y0005655D01*
X0010508Y0005679D01*
X0010357Y0005707D01*
X0010207Y0005738D01*
X0010058Y0005774D01*
X0009910Y0005813D01*
X0009763Y0005856D01*
X0009617Y0005903D01*
X0009472Y0005954D01*
X0009329Y0006009D01*
X0009187Y0006067D01*
X0009047Y0006129D01*
X0008908Y0006194D01*
X0008771Y0006263D01*
X0008636Y0006336D01*
X0008503Y0006412D01*
X0008372Y0006491D01*
X0008243Y0006574D01*
X0008117Y0006660D01*
X0007992Y0006750D01*
X0007870Y0006843D01*
X0007750Y0006938D01*
X0007633Y0007037D01*
X0007518Y0007139D01*
X0007407Y0007244D01*
X0007298Y0007352D01*
X0007191Y0007462D01*
X0007088Y0007575D01*
X0006987Y0007691D01*
X0006890Y0007810D01*
X0006796Y0007931D01*
X0006705Y0008054D01*
X0006617Y0008180D01*
X0006532Y0008308D01*
X0006451Y0008438D01*
X0006373Y0008570D01*
X0006299Y0008704D01*
X0006228Y0008840D01*
X0006161Y0008977D01*
X0006097Y0009117D01*
X0006037Y0009258D01*
X0005981Y0009401D01*
X0005928Y0009545D01*
X0005879Y0009690D01*
X0005834Y0009836D01*
X0005793Y0009984D01*
X0005755Y0010133D01*
X0005722Y0010282D01*
X0005692Y0010433D01*
X0005667Y0010584D01*
X0005645Y0010736D01*
X0005627Y0010888D01*
X0005613Y0011041D01*
X0005603Y0011194D01*
X0005597Y0011347D01*
X0005595Y0011500D01*
X0005595Y0166500D02*
X0005597Y0166653D01*
X0005603Y0166806D01*
X0005613Y0166959D01*
X0005627Y0167112D01*
X0005645Y0167264D01*
X0005667Y0167416D01*
X0005692Y0167567D01*
X0005722Y0167718D01*
X0005755Y0167867D01*
X0005793Y0168016D01*
X0005834Y0168164D01*
X0005879Y0168310D01*
X0005928Y0168455D01*
X0005981Y0168599D01*
X0006037Y0168742D01*
X0006097Y0168883D01*
X0006161Y0169023D01*
X0006228Y0169160D01*
X0006299Y0169296D01*
X0006373Y0169430D01*
X0006451Y0169562D01*
X0006532Y0169692D01*
X0006617Y0169820D01*
X0006705Y0169946D01*
X0006796Y0170069D01*
X0006890Y0170190D01*
X0006987Y0170309D01*
X0007088Y0170425D01*
X0007191Y0170538D01*
X0007298Y0170648D01*
X0007407Y0170756D01*
X0007518Y0170861D01*
X0007633Y0170963D01*
X0007750Y0171062D01*
X0007870Y0171157D01*
X0007992Y0171250D01*
X0008117Y0171340D01*
X0008243Y0171426D01*
X0008372Y0171509D01*
X0008503Y0171588D01*
X0008636Y0171664D01*
X0008771Y0171737D01*
X0008908Y0171806D01*
X0009047Y0171871D01*
X0009187Y0171933D01*
X0009329Y0171991D01*
X0009472Y0172046D01*
X0009617Y0172097D01*
X0009763Y0172144D01*
X0009910Y0172187D01*
X0010058Y0172226D01*
X0010207Y0172262D01*
X0010357Y0172293D01*
X0010508Y0172321D01*
X0010660Y0172345D01*
X0010812Y0172365D01*
X0010964Y0172381D01*
X0011117Y0172393D01*
X0011270Y0172401D01*
X0011423Y0172405D01*
X0011577Y0172405D01*
X0011730Y0172401D01*
X0011883Y0172393D01*
X0012036Y0172381D01*
X0012188Y0172365D01*
X0012340Y0172345D01*
X0012492Y0172321D01*
X0012643Y0172293D01*
X0012793Y0172262D01*
X0012942Y0172226D01*
X0013090Y0172187D01*
X0013237Y0172144D01*
X0013383Y0172097D01*
X0013528Y0172046D01*
X0013671Y0171991D01*
X0013813Y0171933D01*
X0013953Y0171871D01*
X0014092Y0171806D01*
X0014229Y0171737D01*
X0014364Y0171664D01*
X0014497Y0171588D01*
X0014628Y0171509D01*
X0014757Y0171426D01*
X0014883Y0171340D01*
X0015008Y0171250D01*
X0015130Y0171157D01*
X0015250Y0171062D01*
X0015367Y0170963D01*
X0015482Y0170861D01*
X0015593Y0170756D01*
X0015702Y0170648D01*
X0015809Y0170538D01*
X0015912Y0170425D01*
X0016013Y0170309D01*
X0016110Y0170190D01*
X0016204Y0170069D01*
X0016295Y0169946D01*
X0016383Y0169820D01*
X0016468Y0169692D01*
X0016549Y0169562D01*
X0016627Y0169430D01*
X0016701Y0169296D01*
X0016772Y0169160D01*
X0016839Y0169023D01*
X0016903Y0168883D01*
X0016963Y0168742D01*
X0017019Y0168599D01*
X0017072Y0168455D01*
X0017121Y0168310D01*
X0017166Y0168164D01*
X0017207Y0168016D01*
X0017245Y0167867D01*
X0017278Y0167718D01*
X0017308Y0167567D01*
X0017333Y0167416D01*
X0017355Y0167264D01*
X0017373Y0167112D01*
X0017387Y0166959D01*
X0017397Y0166806D01*
X0017403Y0166653D01*
X0017405Y0166500D01*
X0017403Y0166347D01*
X0017397Y0166194D01*
X0017387Y0166041D01*
X0017373Y0165888D01*
X0017355Y0165736D01*
X0017333Y0165584D01*
X0017308Y0165433D01*
X0017278Y0165282D01*
X0017245Y0165133D01*
X0017207Y0164984D01*
X0017166Y0164836D01*
X0017121Y0164690D01*
X0017072Y0164545D01*
X0017019Y0164401D01*
X0016963Y0164258D01*
X0016903Y0164117D01*
X0016839Y0163977D01*
X0016772Y0163840D01*
X0016701Y0163704D01*
X0016627Y0163570D01*
X0016549Y0163438D01*
X0016468Y0163308D01*
X0016383Y0163180D01*
X0016295Y0163054D01*
X0016204Y0162931D01*
X0016110Y0162810D01*
X0016013Y0162691D01*
X0015912Y0162575D01*
X0015809Y0162462D01*
X0015702Y0162352D01*
X0015593Y0162244D01*
X0015482Y0162139D01*
X0015367Y0162037D01*
X0015250Y0161938D01*
X0015130Y0161843D01*
X0015008Y0161750D01*
X0014883Y0161660D01*
X0014757Y0161574D01*
X0014628Y0161491D01*
X0014497Y0161412D01*
X0014364Y0161336D01*
X0014229Y0161263D01*
X0014092Y0161194D01*
X0013953Y0161129D01*
X0013813Y0161067D01*
X0013671Y0161009D01*
X0013528Y0160954D01*
X0013383Y0160903D01*
X0013237Y0160856D01*
X0013090Y0160813D01*
X0012942Y0160774D01*
X0012793Y0160738D01*
X0012643Y0160707D01*
X0012492Y0160679D01*
X0012340Y0160655D01*
X0012188Y0160635D01*
X0012036Y0160619D01*
X0011883Y0160607D01*
X0011730Y0160599D01*
X0011577Y0160595D01*
X0011423Y0160595D01*
X0011270Y0160599D01*
X0011117Y0160607D01*
X0010964Y0160619D01*
X0010812Y0160635D01*
X0010660Y0160655D01*
X0010508Y0160679D01*
X0010357Y0160707D01*
X0010207Y0160738D01*
X0010058Y0160774D01*
X0009910Y0160813D01*
X0009763Y0160856D01*
X0009617Y0160903D01*
X0009472Y0160954D01*
X0009329Y0161009D01*
X0009187Y0161067D01*
X0009047Y0161129D01*
X0008908Y0161194D01*
X0008771Y0161263D01*
X0008636Y0161336D01*
X0008503Y0161412D01*
X0008372Y0161491D01*
X0008243Y0161574D01*
X0008117Y0161660D01*
X0007992Y0161750D01*
X0007870Y0161843D01*
X0007750Y0161938D01*
X0007633Y0162037D01*
X0007518Y0162139D01*
X0007407Y0162244D01*
X0007298Y0162352D01*
X0007191Y0162462D01*
X0007088Y0162575D01*
X0006987Y0162691D01*
X0006890Y0162810D01*
X0006796Y0162931D01*
X0006705Y0163054D01*
X0006617Y0163180D01*
X0006532Y0163308D01*
X0006451Y0163438D01*
X0006373Y0163570D01*
X0006299Y0163704D01*
X0006228Y0163840D01*
X0006161Y0163977D01*
X0006097Y0164117D01*
X0006037Y0164258D01*
X0005981Y0164401D01*
X0005928Y0164545D01*
X0005879Y0164690D01*
X0005834Y0164836D01*
X0005793Y0164984D01*
X0005755Y0165133D01*
X0005722Y0165282D01*
X0005692Y0165433D01*
X0005667Y0165584D01*
X0005645Y0165736D01*
X0005627Y0165888D01*
X0005613Y0166041D01*
X0005603Y0166194D01*
X0005597Y0166347D01*
X0005595Y0166500D01*
X0140595Y0166500D02*
X0140597Y0166653D01*
X0140603Y0166806D01*
X0140613Y0166959D01*
X0140627Y0167112D01*
X0140645Y0167264D01*
X0140667Y0167416D01*
X0140692Y0167567D01*
X0140722Y0167718D01*
X0140755Y0167867D01*
X0140793Y0168016D01*
X0140834Y0168164D01*
X0140879Y0168310D01*
X0140928Y0168455D01*
X0140981Y0168599D01*
X0141037Y0168742D01*
X0141097Y0168883D01*
X0141161Y0169023D01*
X0141228Y0169160D01*
X0141299Y0169296D01*
X0141373Y0169430D01*
X0141451Y0169562D01*
X0141532Y0169692D01*
X0141617Y0169820D01*
X0141705Y0169946D01*
X0141796Y0170069D01*
X0141890Y0170190D01*
X0141987Y0170309D01*
X0142088Y0170425D01*
X0142191Y0170538D01*
X0142298Y0170648D01*
X0142407Y0170756D01*
X0142518Y0170861D01*
X0142633Y0170963D01*
X0142750Y0171062D01*
X0142870Y0171157D01*
X0142992Y0171250D01*
X0143117Y0171340D01*
X0143243Y0171426D01*
X0143372Y0171509D01*
X0143503Y0171588D01*
X0143636Y0171664D01*
X0143771Y0171737D01*
X0143908Y0171806D01*
X0144047Y0171871D01*
X0144187Y0171933D01*
X0144329Y0171991D01*
X0144472Y0172046D01*
X0144617Y0172097D01*
X0144763Y0172144D01*
X0144910Y0172187D01*
X0145058Y0172226D01*
X0145207Y0172262D01*
X0145357Y0172293D01*
X0145508Y0172321D01*
X0145660Y0172345D01*
X0145812Y0172365D01*
X0145964Y0172381D01*
X0146117Y0172393D01*
X0146270Y0172401D01*
X0146423Y0172405D01*
X0146577Y0172405D01*
X0146730Y0172401D01*
X0146883Y0172393D01*
X0147036Y0172381D01*
X0147188Y0172365D01*
X0147340Y0172345D01*
X0147492Y0172321D01*
X0147643Y0172293D01*
X0147793Y0172262D01*
X0147942Y0172226D01*
X0148090Y0172187D01*
X0148237Y0172144D01*
X0148383Y0172097D01*
X0148528Y0172046D01*
X0148671Y0171991D01*
X0148813Y0171933D01*
X0148953Y0171871D01*
X0149092Y0171806D01*
X0149229Y0171737D01*
X0149364Y0171664D01*
X0149497Y0171588D01*
X0149628Y0171509D01*
X0149757Y0171426D01*
X0149883Y0171340D01*
X0150008Y0171250D01*
X0150130Y0171157D01*
X0150250Y0171062D01*
X0150367Y0170963D01*
X0150482Y0170861D01*
X0150593Y0170756D01*
X0150702Y0170648D01*
X0150809Y0170538D01*
X0150912Y0170425D01*
X0151013Y0170309D01*
X0151110Y0170190D01*
X0151204Y0170069D01*
X0151295Y0169946D01*
X0151383Y0169820D01*
X0151468Y0169692D01*
X0151549Y0169562D01*
X0151627Y0169430D01*
X0151701Y0169296D01*
X0151772Y0169160D01*
X0151839Y0169023D01*
X0151903Y0168883D01*
X0151963Y0168742D01*
X0152019Y0168599D01*
X0152072Y0168455D01*
X0152121Y0168310D01*
X0152166Y0168164D01*
X0152207Y0168016D01*
X0152245Y0167867D01*
X0152278Y0167718D01*
X0152308Y0167567D01*
X0152333Y0167416D01*
X0152355Y0167264D01*
X0152373Y0167112D01*
X0152387Y0166959D01*
X0152397Y0166806D01*
X0152403Y0166653D01*
X0152405Y0166500D01*
X0152403Y0166347D01*
X0152397Y0166194D01*
X0152387Y0166041D01*
X0152373Y0165888D01*
X0152355Y0165736D01*
X0152333Y0165584D01*
X0152308Y0165433D01*
X0152278Y0165282D01*
X0152245Y0165133D01*
X0152207Y0164984D01*
X0152166Y0164836D01*
X0152121Y0164690D01*
X0152072Y0164545D01*
X0152019Y0164401D01*
X0151963Y0164258D01*
X0151903Y0164117D01*
X0151839Y0163977D01*
X0151772Y0163840D01*
X0151701Y0163704D01*
X0151627Y0163570D01*
X0151549Y0163438D01*
X0151468Y0163308D01*
X0151383Y0163180D01*
X0151295Y0163054D01*
X0151204Y0162931D01*
X0151110Y0162810D01*
X0151013Y0162691D01*
X0150912Y0162575D01*
X0150809Y0162462D01*
X0150702Y0162352D01*
X0150593Y0162244D01*
X0150482Y0162139D01*
X0150367Y0162037D01*
X0150250Y0161938D01*
X0150130Y0161843D01*
X0150008Y0161750D01*
X0149883Y0161660D01*
X0149757Y0161574D01*
X0149628Y0161491D01*
X0149497Y0161412D01*
X0149364Y0161336D01*
X0149229Y0161263D01*
X0149092Y0161194D01*
X0148953Y0161129D01*
X0148813Y0161067D01*
X0148671Y0161009D01*
X0148528Y0160954D01*
X0148383Y0160903D01*
X0148237Y0160856D01*
X0148090Y0160813D01*
X0147942Y0160774D01*
X0147793Y0160738D01*
X0147643Y0160707D01*
X0147492Y0160679D01*
X0147340Y0160655D01*
X0147188Y0160635D01*
X0147036Y0160619D01*
X0146883Y0160607D01*
X0146730Y0160599D01*
X0146577Y0160595D01*
X0146423Y0160595D01*
X0146270Y0160599D01*
X0146117Y0160607D01*
X0145964Y0160619D01*
X0145812Y0160635D01*
X0145660Y0160655D01*
X0145508Y0160679D01*
X0145357Y0160707D01*
X0145207Y0160738D01*
X0145058Y0160774D01*
X0144910Y0160813D01*
X0144763Y0160856D01*
X0144617Y0160903D01*
X0144472Y0160954D01*
X0144329Y0161009D01*
X0144187Y0161067D01*
X0144047Y0161129D01*
X0143908Y0161194D01*
X0143771Y0161263D01*
X0143636Y0161336D01*
X0143503Y0161412D01*
X0143372Y0161491D01*
X0143243Y0161574D01*
X0143117Y0161660D01*
X0142992Y0161750D01*
X0142870Y0161843D01*
X0142750Y0161938D01*
X0142633Y0162037D01*
X0142518Y0162139D01*
X0142407Y0162244D01*
X0142298Y0162352D01*
X0142191Y0162462D01*
X0142088Y0162575D01*
X0141987Y0162691D01*
X0141890Y0162810D01*
X0141796Y0162931D01*
X0141705Y0163054D01*
X0141617Y0163180D01*
X0141532Y0163308D01*
X0141451Y0163438D01*
X0141373Y0163570D01*
X0141299Y0163704D01*
X0141228Y0163840D01*
X0141161Y0163977D01*
X0141097Y0164117D01*
X0141037Y0164258D01*
X0140981Y0164401D01*
X0140928Y0164545D01*
X0140879Y0164690D01*
X0140834Y0164836D01*
X0140793Y0164984D01*
X0140755Y0165133D01*
X0140722Y0165282D01*
X0140692Y0165433D01*
X0140667Y0165584D01*
X0140645Y0165736D01*
X0140627Y0165888D01*
X0140613Y0166041D01*
X0140603Y0166194D01*
X0140597Y0166347D01*
X0140595Y0166500D01*
X0140595Y0011500D02*
X0140597Y0011653D01*
X0140603Y0011806D01*
X0140613Y0011959D01*
X0140627Y0012112D01*
X0140645Y0012264D01*
X0140667Y0012416D01*
X0140692Y0012567D01*
X0140722Y0012718D01*
X0140755Y0012867D01*
X0140793Y0013016D01*
X0140834Y0013164D01*
X0140879Y0013310D01*
X0140928Y0013455D01*
X0140981Y0013599D01*
X0141037Y0013742D01*
X0141097Y0013883D01*
X0141161Y0014023D01*
X0141228Y0014160D01*
X0141299Y0014296D01*
X0141373Y0014430D01*
X0141451Y0014562D01*
X0141532Y0014692D01*
X0141617Y0014820D01*
X0141705Y0014946D01*
X0141796Y0015069D01*
X0141890Y0015190D01*
X0141987Y0015309D01*
X0142088Y0015425D01*
X0142191Y0015538D01*
X0142298Y0015648D01*
X0142407Y0015756D01*
X0142518Y0015861D01*
X0142633Y0015963D01*
X0142750Y0016062D01*
X0142870Y0016157D01*
X0142992Y0016250D01*
X0143117Y0016340D01*
X0143243Y0016426D01*
X0143372Y0016509D01*
X0143503Y0016588D01*
X0143636Y0016664D01*
X0143771Y0016737D01*
X0143908Y0016806D01*
X0144047Y0016871D01*
X0144187Y0016933D01*
X0144329Y0016991D01*
X0144472Y0017046D01*
X0144617Y0017097D01*
X0144763Y0017144D01*
X0144910Y0017187D01*
X0145058Y0017226D01*
X0145207Y0017262D01*
X0145357Y0017293D01*
X0145508Y0017321D01*
X0145660Y0017345D01*
X0145812Y0017365D01*
X0145964Y0017381D01*
X0146117Y0017393D01*
X0146270Y0017401D01*
X0146423Y0017405D01*
X0146577Y0017405D01*
X0146730Y0017401D01*
X0146883Y0017393D01*
X0147036Y0017381D01*
X0147188Y0017365D01*
X0147340Y0017345D01*
X0147492Y0017321D01*
X0147643Y0017293D01*
X0147793Y0017262D01*
X0147942Y0017226D01*
X0148090Y0017187D01*
X0148237Y0017144D01*
X0148383Y0017097D01*
X0148528Y0017046D01*
X0148671Y0016991D01*
X0148813Y0016933D01*
X0148953Y0016871D01*
X0149092Y0016806D01*
X0149229Y0016737D01*
X0149364Y0016664D01*
X0149497Y0016588D01*
X0149628Y0016509D01*
X0149757Y0016426D01*
X0149883Y0016340D01*
X0150008Y0016250D01*
X0150130Y0016157D01*
X0150250Y0016062D01*
X0150367Y0015963D01*
X0150482Y0015861D01*
X0150593Y0015756D01*
X0150702Y0015648D01*
X0150809Y0015538D01*
X0150912Y0015425D01*
X0151013Y0015309D01*
X0151110Y0015190D01*
X0151204Y0015069D01*
X0151295Y0014946D01*
X0151383Y0014820D01*
X0151468Y0014692D01*
X0151549Y0014562D01*
X0151627Y0014430D01*
X0151701Y0014296D01*
X0151772Y0014160D01*
X0151839Y0014023D01*
X0151903Y0013883D01*
X0151963Y0013742D01*
X0152019Y0013599D01*
X0152072Y0013455D01*
X0152121Y0013310D01*
X0152166Y0013164D01*
X0152207Y0013016D01*
X0152245Y0012867D01*
X0152278Y0012718D01*
X0152308Y0012567D01*
X0152333Y0012416D01*
X0152355Y0012264D01*
X0152373Y0012112D01*
X0152387Y0011959D01*
X0152397Y0011806D01*
X0152403Y0011653D01*
X0152405Y0011500D01*
X0152403Y0011347D01*
X0152397Y0011194D01*
X0152387Y0011041D01*
X0152373Y0010888D01*
X0152355Y0010736D01*
X0152333Y0010584D01*
X0152308Y0010433D01*
X0152278Y0010282D01*
X0152245Y0010133D01*
X0152207Y0009984D01*
X0152166Y0009836D01*
X0152121Y0009690D01*
X0152072Y0009545D01*
X0152019Y0009401D01*
X0151963Y0009258D01*
X0151903Y0009117D01*
X0151839Y0008977D01*
X0151772Y0008840D01*
X0151701Y0008704D01*
X0151627Y0008570D01*
X0151549Y0008438D01*
X0151468Y0008308D01*
X0151383Y0008180D01*
X0151295Y0008054D01*
X0151204Y0007931D01*
X0151110Y0007810D01*
X0151013Y0007691D01*
X0150912Y0007575D01*
X0150809Y0007462D01*
X0150702Y0007352D01*
X0150593Y0007244D01*
X0150482Y0007139D01*
X0150367Y0007037D01*
X0150250Y0006938D01*
X0150130Y0006843D01*
X0150008Y0006750D01*
X0149883Y0006660D01*
X0149757Y0006574D01*
X0149628Y0006491D01*
X0149497Y0006412D01*
X0149364Y0006336D01*
X0149229Y0006263D01*
X0149092Y0006194D01*
X0148953Y0006129D01*
X0148813Y0006067D01*
X0148671Y0006009D01*
X0148528Y0005954D01*
X0148383Y0005903D01*
X0148237Y0005856D01*
X0148090Y0005813D01*
X0147942Y0005774D01*
X0147793Y0005738D01*
X0147643Y0005707D01*
X0147492Y0005679D01*
X0147340Y0005655D01*
X0147188Y0005635D01*
X0147036Y0005619D01*
X0146883Y0005607D01*
X0146730Y0005599D01*
X0146577Y0005595D01*
X0146423Y0005595D01*
X0146270Y0005599D01*
X0146117Y0005607D01*
X0145964Y0005619D01*
X0145812Y0005635D01*
X0145660Y0005655D01*
X0145508Y0005679D01*
X0145357Y0005707D01*
X0145207Y0005738D01*
X0145058Y0005774D01*
X0144910Y0005813D01*
X0144763Y0005856D01*
X0144617Y0005903D01*
X0144472Y0005954D01*
X0144329Y0006009D01*
X0144187Y0006067D01*
X0144047Y0006129D01*
X0143908Y0006194D01*
X0143771Y0006263D01*
X0143636Y0006336D01*
X0143503Y0006412D01*
X0143372Y0006491D01*
X0143243Y0006574D01*
X0143117Y0006660D01*
X0142992Y0006750D01*
X0142870Y0006843D01*
X0142750Y0006938D01*
X0142633Y0007037D01*
X0142518Y0007139D01*
X0142407Y0007244D01*
X0142298Y0007352D01*
X0142191Y0007462D01*
X0142088Y0007575D01*
X0141987Y0007691D01*
X0141890Y0007810D01*
X0141796Y0007931D01*
X0141705Y0008054D01*
X0141617Y0008180D01*
X0141532Y0008308D01*
X0141451Y0008438D01*
X0141373Y0008570D01*
X0141299Y0008704D01*
X0141228Y0008840D01*
X0141161Y0008977D01*
X0141097Y0009117D01*
X0141037Y0009258D01*
X0140981Y0009401D01*
X0140928Y0009545D01*
X0140879Y0009690D01*
X0140834Y0009836D01*
X0140793Y0009984D01*
X0140755Y0010133D01*
X0140722Y0010282D01*
X0140692Y0010433D01*
X0140667Y0010584D01*
X0140645Y0010736D01*
X0140627Y0010888D01*
X0140613Y0011041D01*
X0140603Y0011194D01*
X0140597Y0011347D01*
X0140595Y0011500D01*
D11*
X0026200Y0007289D02*
X0021933Y0007289D01*
X0023711Y0016800D02*
X0023711Y0021067D01*
X0025844Y0018933D02*
X0021578Y0018933D01*
X0011200Y0022289D02*
X0006933Y0022289D01*
X0009067Y0020156D02*
X0009067Y0024422D01*
D12*
X0018091Y0084591D02*
X0018091Y0088291D01*
X0019119Y0088291D01*
X0019175Y0088289D01*
X0019231Y0088283D01*
X0019286Y0088274D01*
X0019341Y0088261D01*
X0019394Y0088244D01*
X0019446Y0088223D01*
X0019497Y0088199D01*
X0019546Y0088171D01*
X0019593Y0088141D01*
X0019638Y0088107D01*
X0019680Y0088070D01*
X0019720Y0088030D01*
X0019757Y0087988D01*
X0019791Y0087943D01*
X0019821Y0087896D01*
X0019849Y0087847D01*
X0019873Y0087796D01*
X0019894Y0087744D01*
X0019911Y0087691D01*
X0019924Y0087636D01*
X0019933Y0087581D01*
X0019939Y0087525D01*
X0019941Y0087469D01*
X0019939Y0087413D01*
X0019933Y0087357D01*
X0019924Y0087302D01*
X0019911Y0087247D01*
X0019894Y0087194D01*
X0019873Y0087142D01*
X0019849Y0087091D01*
X0019821Y0087042D01*
X0019791Y0086995D01*
X0019757Y0086950D01*
X0019720Y0086908D01*
X0019680Y0086868D01*
X0019638Y0086831D01*
X0019593Y0086797D01*
X0019546Y0086767D01*
X0019497Y0086739D01*
X0019446Y0086715D01*
X0019394Y0086694D01*
X0019341Y0086677D01*
X0019286Y0086664D01*
X0019231Y0086655D01*
X0019175Y0086649D01*
X0019119Y0086647D01*
X0018091Y0086647D01*
X0019119Y0086647D02*
X0019182Y0086645D01*
X0019245Y0086639D01*
X0019308Y0086629D01*
X0019370Y0086616D01*
X0019431Y0086599D01*
X0019490Y0086578D01*
X0019549Y0086553D01*
X0019605Y0086525D01*
X0019660Y0086493D01*
X0019713Y0086458D01*
X0019763Y0086420D01*
X0019812Y0086379D01*
X0019857Y0086335D01*
X0019900Y0086288D01*
X0019939Y0086239D01*
X0019976Y0086187D01*
X0020009Y0086133D01*
X0020039Y0086077D01*
X0020066Y0086020D01*
X0020089Y0085961D01*
X0020108Y0085900D01*
X0020123Y0085839D01*
X0020135Y0085777D01*
X0020143Y0085714D01*
X0020147Y0085651D01*
X0020147Y0085587D01*
X0020143Y0085524D01*
X0020135Y0085461D01*
X0020123Y0085399D01*
X0020108Y0085338D01*
X0020089Y0085277D01*
X0020066Y0085218D01*
X0020039Y0085161D01*
X0020009Y0085105D01*
X0019976Y0085051D01*
X0019939Y0084999D01*
X0019900Y0084950D01*
X0019857Y0084903D01*
X0019812Y0084859D01*
X0019763Y0084818D01*
X0019713Y0084780D01*
X0019660Y0084745D01*
X0019605Y0084713D01*
X0019549Y0084685D01*
X0019490Y0084660D01*
X0019431Y0084639D01*
X0019370Y0084622D01*
X0019308Y0084609D01*
X0019245Y0084599D01*
X0019182Y0084593D01*
X0019119Y0084591D01*
X0018091Y0084591D01*
X0021519Y0085619D02*
X0021519Y0087263D01*
X0021521Y0087326D01*
X0021527Y0087389D01*
X0021537Y0087452D01*
X0021550Y0087514D01*
X0021567Y0087575D01*
X0021588Y0087634D01*
X0021613Y0087693D01*
X0021641Y0087749D01*
X0021673Y0087804D01*
X0021708Y0087857D01*
X0021746Y0087907D01*
X0021787Y0087956D01*
X0021831Y0088001D01*
X0021878Y0088044D01*
X0021927Y0088083D01*
X0021979Y0088120D01*
X0022033Y0088153D01*
X0022089Y0088183D01*
X0022146Y0088210D01*
X0022205Y0088233D01*
X0022266Y0088252D01*
X0022327Y0088267D01*
X0022389Y0088279D01*
X0022452Y0088287D01*
X0022515Y0088291D01*
X0022579Y0088291D01*
X0022642Y0088287D01*
X0022705Y0088279D01*
X0022767Y0088267D01*
X0022828Y0088252D01*
X0022889Y0088233D01*
X0022948Y0088210D01*
X0023005Y0088183D01*
X0023061Y0088153D01*
X0023115Y0088120D01*
X0023167Y0088083D01*
X0023216Y0088044D01*
X0023263Y0088001D01*
X0023307Y0087956D01*
X0023348Y0087907D01*
X0023386Y0087857D01*
X0023421Y0087804D01*
X0023453Y0087749D01*
X0023481Y0087693D01*
X0023506Y0087634D01*
X0023527Y0087575D01*
X0023544Y0087514D01*
X0023557Y0087452D01*
X0023567Y0087389D01*
X0023573Y0087326D01*
X0023575Y0087263D01*
X0023575Y0085619D01*
X0023573Y0085556D01*
X0023567Y0085493D01*
X0023557Y0085430D01*
X0023544Y0085368D01*
X0023527Y0085307D01*
X0023506Y0085248D01*
X0023481Y0085189D01*
X0023453Y0085133D01*
X0023421Y0085078D01*
X0023386Y0085025D01*
X0023348Y0084975D01*
X0023307Y0084926D01*
X0023263Y0084881D01*
X0023216Y0084838D01*
X0023167Y0084799D01*
X0023115Y0084762D01*
X0023061Y0084729D01*
X0023005Y0084699D01*
X0022948Y0084672D01*
X0022889Y0084649D01*
X0022828Y0084630D01*
X0022767Y0084615D01*
X0022705Y0084603D01*
X0022642Y0084595D01*
X0022579Y0084591D01*
X0022515Y0084591D01*
X0022452Y0084595D01*
X0022389Y0084603D01*
X0022327Y0084615D01*
X0022266Y0084630D01*
X0022205Y0084649D01*
X0022146Y0084672D01*
X0022089Y0084699D01*
X0022033Y0084729D01*
X0021979Y0084762D01*
X0021927Y0084799D01*
X0021878Y0084838D01*
X0021831Y0084881D01*
X0021787Y0084926D01*
X0021746Y0084975D01*
X0021708Y0085025D01*
X0021673Y0085078D01*
X0021641Y0085133D01*
X0021613Y0085189D01*
X0021588Y0085248D01*
X0021567Y0085307D01*
X0021550Y0085368D01*
X0021537Y0085430D01*
X0021527Y0085493D01*
X0021521Y0085556D01*
X0021519Y0085619D01*
X0025119Y0085619D02*
X0025119Y0087263D01*
X0025121Y0087326D01*
X0025127Y0087389D01*
X0025137Y0087452D01*
X0025150Y0087514D01*
X0025167Y0087575D01*
X0025188Y0087634D01*
X0025213Y0087693D01*
X0025241Y0087749D01*
X0025273Y0087804D01*
X0025308Y0087857D01*
X0025346Y0087907D01*
X0025387Y0087956D01*
X0025431Y0088001D01*
X0025478Y0088044D01*
X0025527Y0088083D01*
X0025579Y0088120D01*
X0025633Y0088153D01*
X0025689Y0088183D01*
X0025746Y0088210D01*
X0025805Y0088233D01*
X0025866Y0088252D01*
X0025927Y0088267D01*
X0025989Y0088279D01*
X0026052Y0088287D01*
X0026115Y0088291D01*
X0026179Y0088291D01*
X0026242Y0088287D01*
X0026305Y0088279D01*
X0026367Y0088267D01*
X0026428Y0088252D01*
X0026489Y0088233D01*
X0026548Y0088210D01*
X0026605Y0088183D01*
X0026661Y0088153D01*
X0026715Y0088120D01*
X0026767Y0088083D01*
X0026816Y0088044D01*
X0026863Y0088001D01*
X0026907Y0087956D01*
X0026948Y0087907D01*
X0026986Y0087857D01*
X0027021Y0087804D01*
X0027053Y0087749D01*
X0027081Y0087693D01*
X0027106Y0087634D01*
X0027127Y0087575D01*
X0027144Y0087514D01*
X0027157Y0087452D01*
X0027167Y0087389D01*
X0027173Y0087326D01*
X0027175Y0087263D01*
X0027175Y0085619D01*
X0027173Y0085556D01*
X0027167Y0085493D01*
X0027157Y0085430D01*
X0027144Y0085368D01*
X0027127Y0085307D01*
X0027106Y0085248D01*
X0027081Y0085189D01*
X0027053Y0085133D01*
X0027021Y0085078D01*
X0026986Y0085025D01*
X0026948Y0084975D01*
X0026907Y0084926D01*
X0026863Y0084881D01*
X0026816Y0084838D01*
X0026767Y0084799D01*
X0026715Y0084762D01*
X0026661Y0084729D01*
X0026605Y0084699D01*
X0026548Y0084672D01*
X0026489Y0084649D01*
X0026428Y0084630D01*
X0026367Y0084615D01*
X0026305Y0084603D01*
X0026242Y0084595D01*
X0026179Y0084591D01*
X0026115Y0084591D01*
X0026052Y0084595D01*
X0025989Y0084603D01*
X0025927Y0084615D01*
X0025866Y0084630D01*
X0025805Y0084649D01*
X0025746Y0084672D01*
X0025689Y0084699D01*
X0025633Y0084729D01*
X0025579Y0084762D01*
X0025527Y0084799D01*
X0025478Y0084838D01*
X0025431Y0084881D01*
X0025387Y0084926D01*
X0025346Y0084975D01*
X0025308Y0085025D01*
X0025273Y0085078D01*
X0025241Y0085133D01*
X0025213Y0085189D01*
X0025188Y0085248D01*
X0025167Y0085307D01*
X0025150Y0085368D01*
X0025137Y0085430D01*
X0025127Y0085493D01*
X0025121Y0085556D01*
X0025119Y0085619D01*
X0028479Y0088291D02*
X0030535Y0088291D01*
X0029507Y0088291D02*
X0029507Y0084591D01*
X0025535Y0144591D02*
X0025535Y0148291D01*
X0023479Y0148291D02*
X0023479Y0144591D01*
X0022011Y0144591D02*
X0020366Y0144591D01*
X0020366Y0148291D01*
X0022011Y0148291D01*
X0023479Y0148291D02*
X0025535Y0144591D01*
X0021600Y0146647D02*
X0020366Y0146647D01*
X0132650Y0100358D02*
X0132650Y0099330D01*
X0136350Y0099330D01*
X0136350Y0100358D01*
X0136348Y0100420D01*
X0136343Y0100482D01*
X0136333Y0100543D01*
X0136320Y0100604D01*
X0136303Y0100664D01*
X0136283Y0100723D01*
X0136259Y0100780D01*
X0136232Y0100836D01*
X0136202Y0100890D01*
X0136168Y0100942D01*
X0136131Y0100992D01*
X0136091Y0101040D01*
X0136049Y0101085D01*
X0136004Y0101127D01*
X0135956Y0101167D01*
X0135906Y0101204D01*
X0135854Y0101238D01*
X0135800Y0101268D01*
X0135744Y0101295D01*
X0135687Y0101319D01*
X0135628Y0101339D01*
X0135568Y0101356D01*
X0135507Y0101369D01*
X0135446Y0101379D01*
X0135384Y0101384D01*
X0135322Y0101386D01*
X0133678Y0101386D01*
X0133616Y0101384D01*
X0133554Y0101379D01*
X0133493Y0101369D01*
X0133432Y0101356D01*
X0133372Y0101339D01*
X0133313Y0101319D01*
X0133256Y0101295D01*
X0133200Y0101268D01*
X0133146Y0101238D01*
X0133094Y0101204D01*
X0133044Y0101167D01*
X0132996Y0101127D01*
X0132951Y0101085D01*
X0132909Y0101040D01*
X0132869Y0100992D01*
X0132832Y0100942D01*
X0132798Y0100890D01*
X0132768Y0100836D01*
X0132741Y0100780D01*
X0132717Y0100723D01*
X0132697Y0100664D01*
X0132680Y0100604D01*
X0132667Y0100543D01*
X0132657Y0100482D01*
X0132652Y0100420D01*
X0132650Y0100358D01*
X0132650Y0097546D02*
X0136350Y0097546D01*
X0132650Y0095490D01*
X0136350Y0095490D01*
X0136350Y0093706D02*
X0136350Y0092472D01*
X0136348Y0092416D01*
X0136342Y0092360D01*
X0136333Y0092305D01*
X0136320Y0092250D01*
X0136303Y0092197D01*
X0136282Y0092145D01*
X0136258Y0092094D01*
X0136230Y0092045D01*
X0136200Y0091998D01*
X0136166Y0091953D01*
X0136129Y0091911D01*
X0136089Y0091871D01*
X0136047Y0091834D01*
X0136002Y0091800D01*
X0135955Y0091770D01*
X0135906Y0091742D01*
X0135855Y0091718D01*
X0135803Y0091697D01*
X0135750Y0091680D01*
X0135695Y0091667D01*
X0135640Y0091658D01*
X0135584Y0091652D01*
X0135528Y0091650D01*
X0133472Y0091650D01*
X0133416Y0091652D01*
X0133360Y0091658D01*
X0133305Y0091667D01*
X0133250Y0091680D01*
X0133197Y0091697D01*
X0133145Y0091718D01*
X0133094Y0091742D01*
X0133045Y0091770D01*
X0132998Y0091800D01*
X0132953Y0091834D01*
X0132911Y0091871D01*
X0132871Y0091911D01*
X0132834Y0091953D01*
X0132800Y0091998D01*
X0132770Y0092045D01*
X0132742Y0092094D01*
X0132718Y0092144D01*
X0132697Y0092197D01*
X0132680Y0092250D01*
X0132667Y0092305D01*
X0132658Y0092360D01*
X0132652Y0092416D01*
X0132650Y0092472D01*
X0132650Y0093706D01*
X0134294Y0093706D02*
X0134294Y0093089D01*
X0134294Y0093706D02*
X0136350Y0093706D01*
X0137100Y0111150D02*
X0133900Y0111150D01*
X0135678Y0112217D01*
X0133900Y0113283D01*
X0137100Y0113283D01*
X0137100Y0114737D02*
X0134967Y0114737D01*
X0134078Y0114826D02*
X0134078Y0114648D01*
X0133900Y0114648D01*
X0133900Y0114826D01*
X0134078Y0114826D01*
X0134967Y0116126D02*
X0134967Y0117014D01*
X0134969Y0117058D01*
X0134974Y0117102D01*
X0134983Y0117145D01*
X0134996Y0117187D01*
X0135012Y0117228D01*
X0135031Y0117268D01*
X0135054Y0117306D01*
X0135079Y0117341D01*
X0135108Y0117375D01*
X0135139Y0117406D01*
X0135173Y0117435D01*
X0135208Y0117460D01*
X0135246Y0117483D01*
X0135286Y0117502D01*
X0135327Y0117518D01*
X0135369Y0117531D01*
X0135412Y0117540D01*
X0135456Y0117545D01*
X0135500Y0117547D01*
X0135500Y0117548D02*
X0137100Y0117548D01*
X0137100Y0116126D02*
X0134967Y0116126D01*
X0135500Y0118944D02*
X0136567Y0118944D01*
X0136611Y0118946D01*
X0136655Y0118951D01*
X0136698Y0118960D01*
X0136740Y0118973D01*
X0136781Y0118989D01*
X0136821Y0119008D01*
X0136859Y0119031D01*
X0136894Y0119056D01*
X0136928Y0119085D01*
X0136959Y0119116D01*
X0136988Y0119150D01*
X0137013Y0119185D01*
X0137036Y0119223D01*
X0137055Y0119263D01*
X0137071Y0119304D01*
X0137084Y0119346D01*
X0137093Y0119389D01*
X0137098Y0119433D01*
X0137100Y0119477D01*
X0137100Y0120366D01*
X0133900Y0120366D01*
X0134967Y0120366D02*
X0134967Y0119477D01*
X0134969Y0119433D01*
X0134974Y0119389D01*
X0134983Y0119346D01*
X0134996Y0119304D01*
X0135012Y0119263D01*
X0135031Y0119223D01*
X0135054Y0119185D01*
X0135079Y0119150D01*
X0135108Y0119116D01*
X0135139Y0119085D01*
X0135173Y0119056D01*
X0135208Y0119031D01*
X0135246Y0119008D01*
X0135286Y0118989D01*
X0135327Y0118973D01*
X0135369Y0118960D01*
X0135412Y0118951D01*
X0135456Y0118946D01*
X0135500Y0118944D01*
X0139150Y0119106D02*
X0139152Y0119055D01*
X0139158Y0119004D01*
X0139168Y0118954D01*
X0139181Y0118905D01*
X0139199Y0118857D01*
X0139220Y0118811D01*
X0139245Y0118766D01*
X0139273Y0118724D01*
X0139304Y0118683D01*
X0139338Y0118645D01*
X0139375Y0118610D01*
X0139415Y0118578D01*
X0139457Y0118550D01*
X0139501Y0118524D01*
X0139547Y0118502D01*
X0139595Y0118484D01*
X0139150Y0119106D02*
X0139152Y0119157D01*
X0139158Y0119208D01*
X0139168Y0119258D01*
X0139181Y0119307D01*
X0139199Y0119355D01*
X0139220Y0119401D01*
X0139245Y0119446D01*
X0139273Y0119488D01*
X0139304Y0119529D01*
X0139338Y0119567D01*
X0139375Y0119602D01*
X0139415Y0119634D01*
X0139457Y0119662D01*
X0139501Y0119688D01*
X0139547Y0119710D01*
X0139595Y0119728D01*
X0139861Y0119817D02*
X0141639Y0118395D01*
X0142350Y0119106D02*
X0142348Y0119157D01*
X0142342Y0119208D01*
X0142332Y0119258D01*
X0142319Y0119307D01*
X0142301Y0119355D01*
X0142280Y0119401D01*
X0142255Y0119446D01*
X0142227Y0119488D01*
X0142196Y0119529D01*
X0142162Y0119567D01*
X0142125Y0119602D01*
X0142085Y0119634D01*
X0142043Y0119662D01*
X0141999Y0119688D01*
X0141953Y0119710D01*
X0141905Y0119728D01*
X0142350Y0119106D02*
X0142348Y0119055D01*
X0142342Y0119004D01*
X0142332Y0118954D01*
X0142319Y0118905D01*
X0142301Y0118857D01*
X0142280Y0118811D01*
X0142255Y0118766D01*
X0142227Y0118724D01*
X0142196Y0118683D01*
X0142162Y0118645D01*
X0142125Y0118610D01*
X0142085Y0118578D01*
X0142043Y0118550D01*
X0141999Y0118524D01*
X0141953Y0118502D01*
X0141905Y0118484D01*
X0142172Y0116990D02*
X0142350Y0116990D01*
X0142350Y0116812D01*
X0142172Y0116812D01*
X0142172Y0116990D01*
X0142350Y0115585D02*
X0142350Y0113807D01*
X0140572Y0115318D01*
X0139150Y0114785D02*
X0139152Y0114723D01*
X0139157Y0114662D01*
X0139167Y0114601D01*
X0139179Y0114541D01*
X0139196Y0114482D01*
X0139216Y0114424D01*
X0139239Y0114367D01*
X0139266Y0114311D01*
X0139296Y0114257D01*
X0139329Y0114206D01*
X0139365Y0114156D01*
X0139404Y0114108D01*
X0139446Y0114063D01*
X0139491Y0114021D01*
X0139538Y0113981D01*
X0139587Y0113944D01*
X0139638Y0113910D01*
X0139692Y0113879D01*
X0139747Y0113852D01*
X0139803Y0113828D01*
X0139861Y0113807D01*
X0140572Y0115318D02*
X0140531Y0115359D01*
X0140487Y0115397D01*
X0140440Y0115431D01*
X0140392Y0115463D01*
X0140341Y0115491D01*
X0140288Y0115516D01*
X0140234Y0115537D01*
X0140179Y0115554D01*
X0140123Y0115567D01*
X0140066Y0115577D01*
X0140008Y0115583D01*
X0139950Y0115585D01*
X0139895Y0115583D01*
X0139841Y0115578D01*
X0139787Y0115568D01*
X0139734Y0115555D01*
X0139682Y0115539D01*
X0139631Y0115519D01*
X0139582Y0115495D01*
X0139534Y0115469D01*
X0139489Y0115439D01*
X0139445Y0115406D01*
X0139404Y0115370D01*
X0139365Y0115331D01*
X0139329Y0115290D01*
X0139296Y0115246D01*
X0139266Y0115201D01*
X0139240Y0115153D01*
X0139216Y0115104D01*
X0139196Y0115053D01*
X0139180Y0115001D01*
X0139167Y0114948D01*
X0139157Y0114894D01*
X0139152Y0114840D01*
X0139150Y0114785D01*
X0140750Y0119995D02*
X0140850Y0119993D01*
X0140949Y0119987D01*
X0141048Y0119978D01*
X0141147Y0119965D01*
X0141245Y0119948D01*
X0141343Y0119927D01*
X0141440Y0119903D01*
X0141535Y0119875D01*
X0141630Y0119844D01*
X0141723Y0119809D01*
X0141815Y0119770D01*
X0141906Y0119728D01*
X0142172Y0121222D02*
X0142172Y0121400D01*
X0142350Y0121400D01*
X0142350Y0121222D01*
X0142172Y0121222D01*
X0141906Y0118484D02*
X0141815Y0118442D01*
X0141723Y0118403D01*
X0141630Y0118368D01*
X0141535Y0118337D01*
X0141440Y0118309D01*
X0141343Y0118285D01*
X0141245Y0118264D01*
X0141147Y0118247D01*
X0141048Y0118234D01*
X0140949Y0118225D01*
X0140850Y0118219D01*
X0140750Y0118217D01*
X0140750Y0119995D02*
X0140650Y0119993D01*
X0140551Y0119987D01*
X0140452Y0119978D01*
X0140353Y0119965D01*
X0140255Y0119948D01*
X0140157Y0119927D01*
X0140060Y0119903D01*
X0139965Y0119875D01*
X0139870Y0119844D01*
X0139777Y0119809D01*
X0139685Y0119770D01*
X0139594Y0119728D01*
X0139594Y0118484D02*
X0139685Y0118442D01*
X0139777Y0118403D01*
X0139870Y0118368D01*
X0139965Y0118337D01*
X0140060Y0118309D01*
X0140157Y0118285D01*
X0140255Y0118264D01*
X0140353Y0118247D01*
X0140452Y0118234D01*
X0140551Y0118225D01*
X0140650Y0118219D01*
X0140750Y0118217D01*
X0141906Y0124138D02*
X0141815Y0124180D01*
X0141723Y0124219D01*
X0141630Y0124254D01*
X0141535Y0124285D01*
X0141440Y0124313D01*
X0141343Y0124337D01*
X0141245Y0124358D01*
X0141147Y0124375D01*
X0141048Y0124388D01*
X0140949Y0124397D01*
X0140850Y0124403D01*
X0140750Y0124405D01*
X0140750Y0122627D02*
X0140650Y0122629D01*
X0140551Y0122635D01*
X0140452Y0122644D01*
X0140353Y0122657D01*
X0140255Y0122674D01*
X0140157Y0122695D01*
X0140060Y0122719D01*
X0139965Y0122747D01*
X0139870Y0122778D01*
X0139777Y0122813D01*
X0139685Y0122852D01*
X0139594Y0122894D01*
X0139150Y0123516D02*
X0139152Y0123567D01*
X0139158Y0123618D01*
X0139168Y0123668D01*
X0139181Y0123717D01*
X0139199Y0123765D01*
X0139220Y0123811D01*
X0139245Y0123856D01*
X0139273Y0123898D01*
X0139304Y0123939D01*
X0139338Y0123977D01*
X0139375Y0124012D01*
X0139415Y0124044D01*
X0139457Y0124072D01*
X0139501Y0124098D01*
X0139547Y0124120D01*
X0139595Y0124138D01*
X0139861Y0124227D02*
X0141639Y0122805D01*
X0142350Y0123516D02*
X0142348Y0123567D01*
X0142342Y0123618D01*
X0142332Y0123668D01*
X0142319Y0123717D01*
X0142301Y0123765D01*
X0142280Y0123811D01*
X0142255Y0123856D01*
X0142227Y0123898D01*
X0142196Y0123939D01*
X0142162Y0123977D01*
X0142125Y0124012D01*
X0142085Y0124044D01*
X0142043Y0124072D01*
X0141999Y0124098D01*
X0141953Y0124120D01*
X0141905Y0124138D01*
X0142350Y0123516D02*
X0142348Y0123465D01*
X0142342Y0123414D01*
X0142332Y0123364D01*
X0142319Y0123315D01*
X0142301Y0123267D01*
X0142280Y0123221D01*
X0142255Y0123176D01*
X0142227Y0123134D01*
X0142196Y0123093D01*
X0142162Y0123055D01*
X0142125Y0123020D01*
X0142085Y0122988D01*
X0142043Y0122960D01*
X0141999Y0122934D01*
X0141953Y0122912D01*
X0141905Y0122894D01*
X0140750Y0124405D02*
X0140650Y0124403D01*
X0140551Y0124397D01*
X0140452Y0124388D01*
X0140353Y0124375D01*
X0140255Y0124358D01*
X0140157Y0124337D01*
X0140060Y0124313D01*
X0139965Y0124285D01*
X0139870Y0124254D01*
X0139777Y0124219D01*
X0139685Y0124180D01*
X0139594Y0124138D01*
X0139150Y0123516D02*
X0139152Y0123465D01*
X0139158Y0123414D01*
X0139168Y0123364D01*
X0139181Y0123315D01*
X0139199Y0123267D01*
X0139220Y0123221D01*
X0139245Y0123176D01*
X0139273Y0123134D01*
X0139304Y0123093D01*
X0139338Y0123055D01*
X0139375Y0123020D01*
X0139415Y0122988D01*
X0139457Y0122960D01*
X0139501Y0122934D01*
X0139547Y0122912D01*
X0139595Y0122894D01*
X0137100Y0123661D02*
X0133900Y0123661D01*
X0133900Y0124550D01*
X0133902Y0124608D01*
X0133908Y0124666D01*
X0133917Y0124723D01*
X0133930Y0124780D01*
X0133947Y0124836D01*
X0133968Y0124890D01*
X0133992Y0124943D01*
X0134019Y0124995D01*
X0134050Y0125044D01*
X0134084Y0125091D01*
X0134121Y0125136D01*
X0134160Y0125179D01*
X0134203Y0125218D01*
X0134248Y0125255D01*
X0134295Y0125289D01*
X0134345Y0125320D01*
X0134396Y0125347D01*
X0134449Y0125371D01*
X0134503Y0125392D01*
X0134559Y0125409D01*
X0134616Y0125422D01*
X0134673Y0125431D01*
X0134731Y0125437D01*
X0134789Y0125439D01*
X0134847Y0125437D01*
X0134905Y0125431D01*
X0134962Y0125422D01*
X0135019Y0125409D01*
X0135075Y0125392D01*
X0135129Y0125371D01*
X0135182Y0125347D01*
X0135234Y0125320D01*
X0135283Y0125289D01*
X0135330Y0125255D01*
X0135375Y0125218D01*
X0135418Y0125179D01*
X0135457Y0125136D01*
X0135494Y0125091D01*
X0135528Y0125044D01*
X0135559Y0124995D01*
X0135586Y0124943D01*
X0135610Y0124890D01*
X0135631Y0124836D01*
X0135648Y0124780D01*
X0135661Y0124723D01*
X0135670Y0124666D01*
X0135676Y0124608D01*
X0135678Y0124550D01*
X0135678Y0123661D01*
X0134967Y0126602D02*
X0137100Y0126602D01*
X0136567Y0127972D02*
X0133900Y0127972D01*
X0134967Y0127617D02*
X0134967Y0128684D01*
X0135500Y0129884D02*
X0136567Y0129884D01*
X0136567Y0129885D02*
X0136611Y0129887D01*
X0136655Y0129892D01*
X0136698Y0129901D01*
X0136740Y0129914D01*
X0136781Y0129930D01*
X0136821Y0129949D01*
X0136859Y0129972D01*
X0136894Y0129997D01*
X0136928Y0130026D01*
X0136959Y0130057D01*
X0136988Y0130091D01*
X0137013Y0130126D01*
X0137036Y0130164D01*
X0137055Y0130204D01*
X0137071Y0130245D01*
X0137084Y0130287D01*
X0137093Y0130330D01*
X0137098Y0130374D01*
X0137100Y0130418D01*
X0137100Y0131129D01*
X0137100Y0132400D02*
X0133900Y0132400D01*
X0134967Y0132400D02*
X0134967Y0133289D01*
X0134969Y0133333D01*
X0134974Y0133377D01*
X0134983Y0133420D01*
X0134996Y0133462D01*
X0135012Y0133503D01*
X0135031Y0133543D01*
X0135054Y0133581D01*
X0135079Y0133616D01*
X0135108Y0133650D01*
X0135139Y0133681D01*
X0135173Y0133710D01*
X0135208Y0133735D01*
X0135246Y0133758D01*
X0135286Y0133777D01*
X0135327Y0133793D01*
X0135369Y0133806D01*
X0135412Y0133815D01*
X0135456Y0133820D01*
X0135500Y0133822D01*
X0135500Y0133823D02*
X0137100Y0133823D01*
X0134967Y0131129D02*
X0134967Y0130418D01*
X0134969Y0130374D01*
X0134974Y0130330D01*
X0134983Y0130287D01*
X0134996Y0130245D01*
X0135012Y0130204D01*
X0135031Y0130164D01*
X0135054Y0130126D01*
X0135079Y0130091D01*
X0135108Y0130057D01*
X0135139Y0130026D01*
X0135173Y0129997D01*
X0135208Y0129972D01*
X0135246Y0129949D01*
X0135286Y0129930D01*
X0135327Y0129914D01*
X0135369Y0129901D01*
X0135412Y0129892D01*
X0135456Y0129887D01*
X0135500Y0129885D01*
X0137100Y0128506D02*
X0137098Y0128462D01*
X0137093Y0128418D01*
X0137084Y0128375D01*
X0137071Y0128333D01*
X0137055Y0128292D01*
X0137036Y0128252D01*
X0137013Y0128214D01*
X0136988Y0128179D01*
X0136959Y0128145D01*
X0136928Y0128114D01*
X0136894Y0128085D01*
X0136859Y0128060D01*
X0136821Y0128037D01*
X0136781Y0128018D01*
X0136740Y0128002D01*
X0136698Y0127989D01*
X0136655Y0127980D01*
X0136611Y0127975D01*
X0136567Y0127973D01*
X0137100Y0128506D02*
X0137100Y0128684D01*
X0134078Y0126690D02*
X0134078Y0126513D01*
X0133900Y0126513D01*
X0133900Y0126690D01*
X0134078Y0126690D01*
X0140750Y0122627D02*
X0140850Y0122629D01*
X0140949Y0122635D01*
X0141048Y0122644D01*
X0141147Y0122657D01*
X0141245Y0122674D01*
X0141343Y0122695D01*
X0141440Y0122719D01*
X0141535Y0122747D01*
X0141630Y0122778D01*
X0141723Y0122813D01*
X0141815Y0122852D01*
X0141906Y0122894D01*
X0144400Y0119228D02*
X0147600Y0118339D01*
X0147067Y0120551D02*
X0146000Y0120551D01*
X0145956Y0120553D01*
X0145912Y0120558D01*
X0145869Y0120567D01*
X0145827Y0120580D01*
X0145786Y0120596D01*
X0145746Y0120615D01*
X0145708Y0120638D01*
X0145673Y0120663D01*
X0145639Y0120692D01*
X0145608Y0120723D01*
X0145579Y0120757D01*
X0145554Y0120792D01*
X0145531Y0120830D01*
X0145512Y0120870D01*
X0145496Y0120911D01*
X0145483Y0120953D01*
X0145474Y0120996D01*
X0145469Y0121040D01*
X0145467Y0121084D01*
X0145467Y0121973D01*
X0148133Y0121973D01*
X0147600Y0121973D02*
X0147600Y0121084D01*
X0147598Y0121040D01*
X0147593Y0120996D01*
X0147584Y0120953D01*
X0147571Y0120911D01*
X0147555Y0120870D01*
X0147536Y0120830D01*
X0147513Y0120792D01*
X0147488Y0120757D01*
X0147459Y0120723D01*
X0147428Y0120692D01*
X0147394Y0120663D01*
X0147359Y0120638D01*
X0147321Y0120615D01*
X0147281Y0120596D01*
X0147240Y0120580D01*
X0147198Y0120567D01*
X0147155Y0120558D01*
X0147111Y0120553D01*
X0147067Y0120551D01*
X0148133Y0121973D02*
X0148177Y0121971D01*
X0148221Y0121966D01*
X0148264Y0121957D01*
X0148306Y0121944D01*
X0148347Y0121928D01*
X0148387Y0121909D01*
X0148425Y0121886D01*
X0148460Y0121861D01*
X0148494Y0121832D01*
X0148525Y0121801D01*
X0148554Y0121767D01*
X0148579Y0121732D01*
X0148602Y0121694D01*
X0148621Y0121654D01*
X0148637Y0121613D01*
X0148650Y0121571D01*
X0148659Y0121528D01*
X0148664Y0121484D01*
X0148666Y0121440D01*
X0148667Y0121440D02*
X0148667Y0120729D01*
X0149650Y0121909D02*
X0152850Y0121909D01*
X0152850Y0121020D02*
X0152850Y0122798D01*
X0152850Y0124170D02*
X0152850Y0125237D01*
X0152848Y0125288D01*
X0152843Y0125338D01*
X0152834Y0125388D01*
X0152821Y0125437D01*
X0152805Y0125485D01*
X0152786Y0125532D01*
X0152763Y0125578D01*
X0152737Y0125621D01*
X0152708Y0125663D01*
X0152676Y0125703D01*
X0152642Y0125740D01*
X0152605Y0125774D01*
X0152565Y0125806D01*
X0152523Y0125835D01*
X0152480Y0125861D01*
X0152434Y0125884D01*
X0152387Y0125903D01*
X0152339Y0125919D01*
X0152290Y0125932D01*
X0152240Y0125941D01*
X0152190Y0125946D01*
X0152139Y0125948D01*
X0151783Y0125948D01*
X0151730Y0125946D01*
X0151677Y0125940D01*
X0151625Y0125930D01*
X0151573Y0125916D01*
X0151523Y0125899D01*
X0151475Y0125878D01*
X0151428Y0125853D01*
X0151382Y0125824D01*
X0151340Y0125793D01*
X0151299Y0125758D01*
X0151262Y0125721D01*
X0151227Y0125680D01*
X0151196Y0125638D01*
X0151167Y0125593D01*
X0151142Y0125545D01*
X0151121Y0125497D01*
X0151104Y0125447D01*
X0151090Y0125395D01*
X0151080Y0125343D01*
X0151074Y0125290D01*
X0151072Y0125237D01*
X0151072Y0124170D01*
X0149650Y0124170D01*
X0149650Y0125948D01*
X0148667Y0125730D02*
X0145467Y0125730D01*
X0145467Y0126618D01*
X0145469Y0126662D01*
X0145474Y0126706D01*
X0145483Y0126749D01*
X0145496Y0126791D01*
X0145512Y0126832D01*
X0145531Y0126872D01*
X0145554Y0126910D01*
X0145579Y0126945D01*
X0145608Y0126979D01*
X0145639Y0127010D01*
X0145673Y0127039D01*
X0145708Y0127064D01*
X0145746Y0127087D01*
X0145786Y0127106D01*
X0145827Y0127122D01*
X0145869Y0127135D01*
X0145912Y0127144D01*
X0145956Y0127149D01*
X0146000Y0127151D01*
X0146000Y0127152D02*
X0147067Y0127152D01*
X0147067Y0127151D02*
X0147111Y0127149D01*
X0147155Y0127144D01*
X0147198Y0127135D01*
X0147240Y0127122D01*
X0147281Y0127106D01*
X0147321Y0127087D01*
X0147359Y0127064D01*
X0147394Y0127039D01*
X0147428Y0127010D01*
X0147459Y0126979D01*
X0147488Y0126945D01*
X0147513Y0126910D01*
X0147536Y0126872D01*
X0147555Y0126832D01*
X0147571Y0126791D01*
X0147584Y0126749D01*
X0147593Y0126706D01*
X0147598Y0126662D01*
X0147600Y0126618D01*
X0147600Y0125730D01*
X0145822Y0124593D02*
X0145467Y0124593D01*
X0145467Y0123527D01*
X0147600Y0123527D01*
X0149650Y0121909D02*
X0150361Y0121020D01*
X0151606Y0119616D02*
X0151606Y0117482D01*
X0152406Y0114567D02*
X0152315Y0114525D01*
X0152223Y0114486D01*
X0152130Y0114451D01*
X0152035Y0114420D01*
X0151940Y0114392D01*
X0151843Y0114368D01*
X0151745Y0114347D01*
X0151647Y0114330D01*
X0151548Y0114317D01*
X0151449Y0114308D01*
X0151350Y0114302D01*
X0151250Y0114300D01*
X0151250Y0116078D02*
X0151150Y0116076D01*
X0151051Y0116070D01*
X0150952Y0116061D01*
X0150853Y0116048D01*
X0150755Y0116031D01*
X0150657Y0116010D01*
X0150560Y0115986D01*
X0150465Y0115958D01*
X0150370Y0115927D01*
X0150277Y0115892D01*
X0150185Y0115853D01*
X0150094Y0115811D01*
X0150361Y0115900D02*
X0152139Y0114478D01*
X0152850Y0115189D02*
X0152848Y0115240D01*
X0152842Y0115291D01*
X0152832Y0115341D01*
X0152819Y0115390D01*
X0152801Y0115438D01*
X0152780Y0115484D01*
X0152755Y0115529D01*
X0152727Y0115571D01*
X0152696Y0115612D01*
X0152662Y0115650D01*
X0152625Y0115685D01*
X0152585Y0115717D01*
X0152543Y0115745D01*
X0152499Y0115771D01*
X0152453Y0115793D01*
X0152405Y0115811D01*
X0152850Y0115189D02*
X0152848Y0115138D01*
X0152842Y0115087D01*
X0152832Y0115037D01*
X0152819Y0114988D01*
X0152801Y0114940D01*
X0152780Y0114894D01*
X0152755Y0114849D01*
X0152727Y0114807D01*
X0152696Y0114766D01*
X0152662Y0114728D01*
X0152625Y0114693D01*
X0152585Y0114661D01*
X0152543Y0114633D01*
X0152499Y0114607D01*
X0152453Y0114585D01*
X0152405Y0114567D01*
X0152406Y0115811D02*
X0152315Y0115853D01*
X0152223Y0115892D01*
X0152130Y0115927D01*
X0152035Y0115958D01*
X0151940Y0115986D01*
X0151843Y0116010D01*
X0151745Y0116031D01*
X0151647Y0116048D01*
X0151548Y0116061D01*
X0151449Y0116070D01*
X0151350Y0116076D01*
X0151250Y0116078D01*
X0151250Y0114300D02*
X0151150Y0114302D01*
X0151051Y0114308D01*
X0150952Y0114317D01*
X0150853Y0114330D01*
X0150755Y0114347D01*
X0150657Y0114368D01*
X0150560Y0114392D01*
X0150465Y0114420D01*
X0150370Y0114451D01*
X0150277Y0114486D01*
X0150185Y0114525D01*
X0150094Y0114567D01*
X0150095Y0114567D02*
X0150047Y0114585D01*
X0150001Y0114607D01*
X0149957Y0114633D01*
X0149915Y0114661D01*
X0149875Y0114693D01*
X0149838Y0114728D01*
X0149804Y0114766D01*
X0149773Y0114807D01*
X0149745Y0114849D01*
X0149720Y0114894D01*
X0149699Y0114940D01*
X0149681Y0114988D01*
X0149668Y0115037D01*
X0149658Y0115087D01*
X0149652Y0115138D01*
X0149650Y0115189D01*
X0149652Y0115240D01*
X0149658Y0115291D01*
X0149668Y0115341D01*
X0149681Y0115390D01*
X0149699Y0115438D01*
X0149720Y0115484D01*
X0149745Y0115529D01*
X0149773Y0115571D01*
X0149804Y0115612D01*
X0149838Y0115650D01*
X0149875Y0115685D01*
X0149915Y0115717D01*
X0149957Y0115745D01*
X0150001Y0115771D01*
X0150047Y0115793D01*
X0150095Y0115811D01*
X0147600Y0115189D02*
X0144400Y0116078D01*
X0144400Y0114300D01*
X0144756Y0114300D01*
X0146178Y0112394D02*
X0147600Y0112394D01*
X0146889Y0112928D02*
X0146889Y0111150D01*
X0144400Y0111861D01*
X0142350Y0111861D02*
X0140217Y0112572D01*
X0140217Y0111150D02*
X0142350Y0111861D01*
X0144400Y0117450D02*
X0144400Y0119228D01*
X0144400Y0117450D02*
X0144756Y0117450D01*
X0149650Y0112039D02*
X0152850Y0112039D01*
X0152850Y0111150D02*
X0152850Y0112928D01*
X0150361Y0111150D02*
X0149650Y0112039D01*
X0151606Y0127352D02*
X0151606Y0129485D01*
X0152850Y0130890D02*
X0152850Y0132668D01*
X0152406Y0135551D02*
X0152315Y0135593D01*
X0152223Y0135632D01*
X0152130Y0135667D01*
X0152035Y0135698D01*
X0151940Y0135726D01*
X0151843Y0135750D01*
X0151745Y0135771D01*
X0151647Y0135788D01*
X0151548Y0135801D01*
X0151449Y0135810D01*
X0151350Y0135816D01*
X0151250Y0135818D01*
X0151250Y0134040D02*
X0151150Y0134042D01*
X0151051Y0134048D01*
X0150952Y0134057D01*
X0150853Y0134070D01*
X0150755Y0134087D01*
X0150657Y0134108D01*
X0150560Y0134132D01*
X0150465Y0134160D01*
X0150370Y0134191D01*
X0150277Y0134226D01*
X0150185Y0134265D01*
X0150094Y0134307D01*
X0149650Y0134929D02*
X0149652Y0134980D01*
X0149658Y0135031D01*
X0149668Y0135081D01*
X0149681Y0135130D01*
X0149699Y0135178D01*
X0149720Y0135224D01*
X0149745Y0135269D01*
X0149773Y0135311D01*
X0149804Y0135352D01*
X0149838Y0135390D01*
X0149875Y0135425D01*
X0149915Y0135457D01*
X0149957Y0135485D01*
X0150001Y0135511D01*
X0150047Y0135533D01*
X0150095Y0135551D01*
X0150361Y0135640D02*
X0152139Y0134218D01*
X0152850Y0134929D02*
X0152848Y0134980D01*
X0152842Y0135031D01*
X0152832Y0135081D01*
X0152819Y0135130D01*
X0152801Y0135178D01*
X0152780Y0135224D01*
X0152755Y0135269D01*
X0152727Y0135311D01*
X0152696Y0135352D01*
X0152662Y0135390D01*
X0152625Y0135425D01*
X0152585Y0135457D01*
X0152543Y0135485D01*
X0152499Y0135511D01*
X0152453Y0135533D01*
X0152405Y0135551D01*
X0152850Y0134929D02*
X0152848Y0134878D01*
X0152842Y0134827D01*
X0152832Y0134777D01*
X0152819Y0134728D01*
X0152801Y0134680D01*
X0152780Y0134634D01*
X0152755Y0134589D01*
X0152727Y0134547D01*
X0152696Y0134506D01*
X0152662Y0134468D01*
X0152625Y0134433D01*
X0152585Y0134401D01*
X0152543Y0134373D01*
X0152499Y0134347D01*
X0152453Y0134325D01*
X0152405Y0134307D01*
X0151250Y0135818D02*
X0151150Y0135816D01*
X0151051Y0135810D01*
X0150952Y0135801D01*
X0150853Y0135788D01*
X0150755Y0135771D01*
X0150657Y0135750D01*
X0150560Y0135726D01*
X0150465Y0135698D01*
X0150370Y0135667D01*
X0150277Y0135632D01*
X0150185Y0135593D01*
X0150094Y0135551D01*
X0149650Y0134929D02*
X0149652Y0134878D01*
X0149658Y0134827D01*
X0149668Y0134777D01*
X0149681Y0134728D01*
X0149699Y0134680D01*
X0149720Y0134634D01*
X0149745Y0134589D01*
X0149773Y0134547D01*
X0149804Y0134506D01*
X0149838Y0134468D01*
X0149875Y0134433D01*
X0149915Y0134401D01*
X0149957Y0134373D01*
X0150001Y0134347D01*
X0150047Y0134325D01*
X0150095Y0134307D01*
X0151072Y0132401D02*
X0152850Y0130890D01*
X0150361Y0130890D02*
X0150303Y0130911D01*
X0150247Y0130935D01*
X0150192Y0130962D01*
X0150138Y0130993D01*
X0150087Y0131027D01*
X0150038Y0131064D01*
X0149991Y0131104D01*
X0149946Y0131146D01*
X0149904Y0131191D01*
X0149865Y0131239D01*
X0149829Y0131289D01*
X0149796Y0131340D01*
X0149766Y0131394D01*
X0149739Y0131450D01*
X0149716Y0131507D01*
X0149696Y0131565D01*
X0149679Y0131624D01*
X0149667Y0131684D01*
X0149657Y0131745D01*
X0149652Y0131806D01*
X0149650Y0131868D01*
X0149652Y0131923D01*
X0149657Y0131977D01*
X0149667Y0132031D01*
X0149680Y0132084D01*
X0149696Y0132136D01*
X0149716Y0132187D01*
X0149740Y0132236D01*
X0149766Y0132284D01*
X0149796Y0132329D01*
X0149829Y0132373D01*
X0149865Y0132414D01*
X0149904Y0132453D01*
X0149945Y0132489D01*
X0149989Y0132522D01*
X0150034Y0132552D01*
X0150082Y0132578D01*
X0150131Y0132602D01*
X0150182Y0132622D01*
X0150234Y0132638D01*
X0150287Y0132651D01*
X0150341Y0132661D01*
X0150395Y0132666D01*
X0150450Y0132668D01*
X0150450Y0132667D02*
X0150508Y0132665D01*
X0150566Y0132659D01*
X0150623Y0132649D01*
X0150679Y0132636D01*
X0150734Y0132619D01*
X0150788Y0132598D01*
X0150841Y0132573D01*
X0150892Y0132545D01*
X0150940Y0132513D01*
X0150987Y0132479D01*
X0151031Y0132441D01*
X0151072Y0132400D01*
X0147600Y0132869D02*
X0146178Y0132869D01*
X0146889Y0133403D02*
X0146889Y0131625D01*
X0144400Y0132336D01*
X0145822Y0129986D02*
X0147600Y0128475D01*
X0147600Y0130253D01*
X0145111Y0128475D02*
X0145053Y0128496D01*
X0144997Y0128520D01*
X0144942Y0128547D01*
X0144888Y0128578D01*
X0144837Y0128612D01*
X0144788Y0128649D01*
X0144741Y0128689D01*
X0144696Y0128731D01*
X0144654Y0128776D01*
X0144615Y0128824D01*
X0144579Y0128874D01*
X0144546Y0128925D01*
X0144516Y0128979D01*
X0144489Y0129035D01*
X0144466Y0129092D01*
X0144446Y0129150D01*
X0144429Y0129209D01*
X0144417Y0129269D01*
X0144407Y0129330D01*
X0144402Y0129391D01*
X0144400Y0129453D01*
X0144402Y0129508D01*
X0144407Y0129562D01*
X0144417Y0129616D01*
X0144430Y0129669D01*
X0144446Y0129721D01*
X0144466Y0129772D01*
X0144490Y0129821D01*
X0144516Y0129869D01*
X0144546Y0129914D01*
X0144579Y0129958D01*
X0144615Y0129999D01*
X0144654Y0130038D01*
X0144695Y0130074D01*
X0144739Y0130107D01*
X0144784Y0130137D01*
X0144832Y0130163D01*
X0144881Y0130187D01*
X0144932Y0130207D01*
X0144984Y0130223D01*
X0145037Y0130236D01*
X0145091Y0130246D01*
X0145145Y0130251D01*
X0145200Y0130253D01*
X0145200Y0130252D02*
X0145258Y0130250D01*
X0145316Y0130244D01*
X0145373Y0130234D01*
X0145429Y0130221D01*
X0145484Y0130204D01*
X0145538Y0130183D01*
X0145591Y0130158D01*
X0145642Y0130130D01*
X0145690Y0130098D01*
X0145737Y0130064D01*
X0145781Y0130026D01*
X0145822Y0129985D01*
X0150361Y0137190D02*
X0149650Y0138079D01*
X0152850Y0138079D01*
X0152850Y0137190D02*
X0152850Y0138968D01*
X0152850Y0140695D02*
X0152848Y0140769D01*
X0152842Y0140844D01*
X0152832Y0140917D01*
X0152819Y0140991D01*
X0152802Y0141063D01*
X0152780Y0141134D01*
X0152756Y0141205D01*
X0152727Y0141273D01*
X0152695Y0141341D01*
X0152659Y0141406D01*
X0152621Y0141469D01*
X0152578Y0141531D01*
X0152533Y0141590D01*
X0152485Y0141647D01*
X0152434Y0141701D01*
X0152380Y0141752D01*
X0152323Y0141800D01*
X0152264Y0141845D01*
X0152202Y0141888D01*
X0152139Y0141926D01*
X0152074Y0141962D01*
X0152006Y0141994D01*
X0151938Y0142023D01*
X0151867Y0142047D01*
X0151796Y0142069D01*
X0151724Y0142086D01*
X0151650Y0142099D01*
X0151577Y0142109D01*
X0151502Y0142115D01*
X0151428Y0142117D01*
X0151428Y0142118D02*
X0150539Y0142118D01*
X0151428Y0142118D02*
X0151428Y0141051D01*
X0151426Y0140998D01*
X0151420Y0140945D01*
X0151410Y0140893D01*
X0151396Y0140841D01*
X0151379Y0140791D01*
X0151358Y0140743D01*
X0151333Y0140696D01*
X0151304Y0140650D01*
X0151273Y0140608D01*
X0151238Y0140567D01*
X0151201Y0140530D01*
X0151160Y0140495D01*
X0151118Y0140464D01*
X0151073Y0140435D01*
X0151025Y0140410D01*
X0150977Y0140389D01*
X0150927Y0140372D01*
X0150875Y0140358D01*
X0150823Y0140348D01*
X0150770Y0140342D01*
X0150717Y0140340D01*
X0150539Y0140340D01*
X0150481Y0140342D01*
X0150423Y0140348D01*
X0150366Y0140357D01*
X0150309Y0140370D01*
X0150253Y0140387D01*
X0150199Y0140408D01*
X0150146Y0140432D01*
X0150095Y0140459D01*
X0150045Y0140490D01*
X0149998Y0140524D01*
X0149953Y0140561D01*
X0149910Y0140600D01*
X0149871Y0140643D01*
X0149834Y0140688D01*
X0149800Y0140735D01*
X0149769Y0140785D01*
X0149742Y0140836D01*
X0149718Y0140889D01*
X0149697Y0140943D01*
X0149680Y0140999D01*
X0149667Y0141056D01*
X0149658Y0141113D01*
X0149652Y0141171D01*
X0149650Y0141229D01*
X0149652Y0141287D01*
X0149658Y0141345D01*
X0149667Y0141402D01*
X0149680Y0141459D01*
X0149697Y0141515D01*
X0149718Y0141569D01*
X0149742Y0141622D01*
X0149769Y0141674D01*
X0149800Y0141723D01*
X0149834Y0141770D01*
X0149871Y0141815D01*
X0149910Y0141858D01*
X0149953Y0141897D01*
X0149998Y0141934D01*
X0150045Y0141968D01*
X0150095Y0141999D01*
X0150146Y0142026D01*
X0150199Y0142050D01*
X0150253Y0142071D01*
X0150309Y0142088D01*
X0150366Y0142101D01*
X0150423Y0142110D01*
X0150481Y0142116D01*
X0150539Y0142118D01*
X0152406Y0134307D02*
X0152315Y0134265D01*
X0152223Y0134226D01*
X0152130Y0134191D01*
X0152035Y0134160D01*
X0151940Y0134132D01*
X0151843Y0134108D01*
X0151745Y0134087D01*
X0151647Y0134070D01*
X0151548Y0134057D01*
X0151449Y0134048D01*
X0151350Y0134042D01*
X0151250Y0134040D01*
X0137100Y0137053D02*
X0133900Y0137053D01*
X0135322Y0137053D02*
X0135322Y0138830D01*
X0133900Y0138830D02*
X0137100Y0138830D01*
X0136567Y0140275D02*
X0135678Y0140275D01*
X0136033Y0140275D02*
X0136033Y0141698D01*
X0135678Y0141698D01*
X0135678Y0141697D02*
X0135626Y0141695D01*
X0135574Y0141689D01*
X0135523Y0141680D01*
X0135473Y0141667D01*
X0135424Y0141650D01*
X0135376Y0141630D01*
X0135330Y0141606D01*
X0135286Y0141579D01*
X0135243Y0141549D01*
X0135204Y0141516D01*
X0135166Y0141479D01*
X0135131Y0141441D01*
X0135100Y0141400D01*
X0135071Y0141356D01*
X0135046Y0141311D01*
X0135024Y0141264D01*
X0135005Y0141216D01*
X0134990Y0141166D01*
X0134979Y0141115D01*
X0134971Y0141064D01*
X0134967Y0141012D01*
X0134967Y0140960D01*
X0134971Y0140908D01*
X0134979Y0140857D01*
X0134990Y0140806D01*
X0135005Y0140756D01*
X0135024Y0140708D01*
X0135046Y0140661D01*
X0135071Y0140616D01*
X0135100Y0140572D01*
X0135131Y0140531D01*
X0135166Y0140493D01*
X0135204Y0140456D01*
X0135243Y0140423D01*
X0135286Y0140393D01*
X0135330Y0140366D01*
X0135376Y0140342D01*
X0135424Y0140322D01*
X0135473Y0140305D01*
X0135523Y0140292D01*
X0135574Y0140283D01*
X0135626Y0140277D01*
X0135678Y0140275D01*
X0136567Y0140276D02*
X0136611Y0140278D01*
X0136655Y0140283D01*
X0136698Y0140292D01*
X0136740Y0140305D01*
X0136781Y0140321D01*
X0136821Y0140340D01*
X0136859Y0140363D01*
X0136894Y0140388D01*
X0136928Y0140417D01*
X0136959Y0140448D01*
X0136988Y0140482D01*
X0137013Y0140517D01*
X0137036Y0140555D01*
X0137055Y0140595D01*
X0137071Y0140636D01*
X0137084Y0140678D01*
X0137093Y0140721D01*
X0137098Y0140765D01*
X0137100Y0140809D01*
X0137100Y0141698D01*
X0136567Y0143044D02*
X0133900Y0143044D01*
X0134967Y0144855D02*
X0134967Y0146455D01*
X0134969Y0146499D01*
X0134974Y0146543D01*
X0134983Y0146586D01*
X0134996Y0146628D01*
X0135012Y0146669D01*
X0135031Y0146709D01*
X0135054Y0146747D01*
X0135079Y0146782D01*
X0135108Y0146816D01*
X0135139Y0146847D01*
X0135173Y0146876D01*
X0135208Y0146901D01*
X0135246Y0146924D01*
X0135286Y0146943D01*
X0135327Y0146959D01*
X0135369Y0146972D01*
X0135412Y0146981D01*
X0135456Y0146986D01*
X0135500Y0146988D01*
X0137100Y0146988D01*
X0137100Y0145921D02*
X0134967Y0145921D01*
X0134967Y0144855D02*
X0137100Y0144855D01*
X0137100Y0143578D02*
X0137098Y0143534D01*
X0137093Y0143490D01*
X0137084Y0143447D01*
X0137071Y0143405D01*
X0137055Y0143364D01*
X0137036Y0143324D01*
X0137013Y0143286D01*
X0136988Y0143251D01*
X0136959Y0143217D01*
X0136928Y0143186D01*
X0136894Y0143157D01*
X0136859Y0143132D01*
X0136821Y0143109D01*
X0136781Y0143090D01*
X0136740Y0143074D01*
X0136698Y0143061D01*
X0136655Y0143052D01*
X0136611Y0143047D01*
X0136567Y0143045D01*
X0136567Y0148465D02*
X0135678Y0148465D01*
X0136033Y0148465D02*
X0136033Y0149888D01*
X0135678Y0149888D01*
X0135678Y0149887D02*
X0135626Y0149885D01*
X0135574Y0149879D01*
X0135523Y0149870D01*
X0135473Y0149857D01*
X0135424Y0149840D01*
X0135376Y0149820D01*
X0135330Y0149796D01*
X0135286Y0149769D01*
X0135243Y0149739D01*
X0135204Y0149706D01*
X0135166Y0149669D01*
X0135131Y0149631D01*
X0135100Y0149590D01*
X0135071Y0149546D01*
X0135046Y0149501D01*
X0135024Y0149454D01*
X0135005Y0149406D01*
X0134990Y0149356D01*
X0134979Y0149305D01*
X0134971Y0149254D01*
X0134967Y0149202D01*
X0134967Y0149150D01*
X0134971Y0149098D01*
X0134979Y0149047D01*
X0134990Y0148996D01*
X0135005Y0148946D01*
X0135024Y0148898D01*
X0135046Y0148851D01*
X0135071Y0148806D01*
X0135100Y0148762D01*
X0135131Y0148721D01*
X0135166Y0148683D01*
X0135204Y0148646D01*
X0135243Y0148613D01*
X0135286Y0148583D01*
X0135330Y0148556D01*
X0135376Y0148532D01*
X0135424Y0148512D01*
X0135473Y0148495D01*
X0135523Y0148482D01*
X0135574Y0148473D01*
X0135626Y0148467D01*
X0135678Y0148465D01*
X0136567Y0148466D02*
X0136611Y0148468D01*
X0136655Y0148473D01*
X0136698Y0148482D01*
X0136740Y0148495D01*
X0136781Y0148511D01*
X0136821Y0148530D01*
X0136859Y0148553D01*
X0136894Y0148578D01*
X0136928Y0148607D01*
X0136959Y0148638D01*
X0136988Y0148672D01*
X0137013Y0148707D01*
X0137036Y0148745D01*
X0137055Y0148785D01*
X0137071Y0148826D01*
X0137084Y0148868D01*
X0137093Y0148911D01*
X0137098Y0148955D01*
X0137100Y0148999D01*
X0137100Y0149888D01*
X0136567Y0151282D02*
X0133900Y0151282D01*
X0134967Y0150927D02*
X0134967Y0151993D01*
X0136567Y0151283D02*
X0136611Y0151285D01*
X0136655Y0151290D01*
X0136698Y0151299D01*
X0136740Y0151312D01*
X0136781Y0151328D01*
X0136821Y0151347D01*
X0136859Y0151370D01*
X0136894Y0151395D01*
X0136928Y0151424D01*
X0136959Y0151455D01*
X0136988Y0151489D01*
X0137013Y0151524D01*
X0137036Y0151562D01*
X0137055Y0151602D01*
X0137071Y0151643D01*
X0137084Y0151685D01*
X0137093Y0151728D01*
X0137098Y0151772D01*
X0137100Y0151816D01*
X0137100Y0151993D01*
D13*
X0131500Y0149000D02*
X0131500Y0144000D01*
X0129000Y0141500D01*
X0131500Y0139000D01*
X0131500Y0134000D01*
X0129000Y0131500D01*
X0131500Y0129000D01*
X0131500Y0124000D01*
X0129000Y0121500D01*
X0131500Y0119000D01*
X0131500Y0114000D01*
X0129000Y0111500D01*
X0131500Y0109000D01*
X0131500Y0104000D01*
X0129000Y0101500D01*
X0131500Y0099000D01*
X0131500Y0094000D01*
X0129000Y0091500D01*
X0124000Y0091500D01*
X0121500Y0094000D01*
X0121500Y0099000D01*
X0124000Y0101500D01*
X0121500Y0104000D01*
X0121500Y0109000D01*
X0124000Y0111500D01*
X0121500Y0114000D01*
X0121500Y0119000D01*
X0124000Y0121500D01*
X0121500Y0124000D01*
X0121500Y0129000D01*
X0124000Y0131500D01*
X0121500Y0134000D01*
X0121500Y0139000D01*
X0124000Y0141500D01*
X0121500Y0144000D01*
X0121500Y0149000D01*
X0124000Y0151500D01*
X0129000Y0151500D01*
X0131500Y0149000D01*
X0038035Y0078035D02*
X0038035Y0048508D01*
X0034492Y0044965D01*
X0027406Y0044965D01*
X0029000Y0036500D02*
X0034000Y0036500D01*
X0036500Y0034000D01*
X0036500Y0029000D01*
X0034000Y0026500D01*
X0029000Y0026500D01*
X0026500Y0029000D01*
X0024000Y0026500D01*
X0019000Y0026500D01*
X0016500Y0029000D01*
X0014000Y0026500D01*
X0009000Y0026500D01*
X0006500Y0029000D01*
X0006500Y0034000D01*
X0009000Y0036500D01*
X0014000Y0036500D01*
X0016500Y0034000D01*
X0019000Y0036500D01*
X0024000Y0036500D01*
X0026500Y0034000D01*
X0029000Y0036500D01*
X0029000Y0026500D02*
X0026500Y0024000D01*
X0026500Y0019000D01*
X0029000Y0016500D01*
X0026500Y0014000D01*
X0026500Y0009000D01*
X0029000Y0006500D01*
X0034000Y0006500D01*
X0036500Y0009000D01*
X0036500Y0014000D01*
X0034000Y0016500D01*
X0036500Y0019000D01*
X0036500Y0024000D01*
X0034000Y0026500D01*
X0029000Y0026500D01*
X0015594Y0044965D02*
X0008508Y0044965D01*
X0004965Y0048508D01*
X0004965Y0078035D01*
X0015594Y0078035D01*
X0027406Y0078035D02*
X0038035Y0078035D01*
X0015988Y0075870D02*
X0015640Y0075732D01*
X0015296Y0075585D01*
X0014955Y0075430D01*
X0014618Y0075267D01*
X0014285Y0075095D01*
X0013956Y0074915D01*
X0013632Y0074728D01*
X0013312Y0074533D01*
X0012998Y0074329D01*
X0012688Y0074119D01*
X0012384Y0073901D01*
X0012085Y0073675D01*
X0011791Y0073442D01*
X0011503Y0073203D01*
X0011222Y0072956D01*
X0010946Y0072702D01*
X0010677Y0072442D01*
X0010413Y0072176D01*
X0010157Y0071903D01*
X0009907Y0071624D01*
X0009664Y0071339D01*
X0009428Y0071048D01*
X0009200Y0070751D01*
X0008978Y0070449D01*
X0008764Y0070142D01*
X0008558Y0069829D01*
X0008359Y0069512D01*
X0008168Y0069190D01*
X0007985Y0068863D01*
X0007809Y0068532D01*
X0007642Y0068197D01*
X0007484Y0067858D01*
X0007333Y0067515D01*
X0007191Y0067168D01*
X0007057Y0066819D01*
X0006932Y0066466D01*
X0006816Y0066110D01*
X0006708Y0065751D01*
X0006609Y0065390D01*
X0006518Y0065026D01*
X0006437Y0064661D01*
X0006365Y0064293D01*
X0006301Y0063924D01*
X0006247Y0063554D01*
X0006201Y0063182D01*
X0006165Y0062809D01*
X0006137Y0062436D01*
X0006119Y0062062D01*
X0006110Y0061687D01*
X0006110Y0061313D01*
X0006119Y0060938D01*
X0006137Y0060564D01*
X0006165Y0060191D01*
X0006201Y0059818D01*
X0006247Y0059446D01*
X0006301Y0059076D01*
X0006365Y0058707D01*
X0006437Y0058339D01*
X0006518Y0057974D01*
X0006609Y0057610D01*
X0006708Y0057249D01*
X0006816Y0056890D01*
X0006932Y0056534D01*
X0007057Y0056181D01*
X0007191Y0055832D01*
X0007333Y0055485D01*
X0007484Y0055142D01*
X0007642Y0054803D01*
X0007809Y0054468D01*
X0007985Y0054137D01*
X0008168Y0053810D01*
X0008359Y0053488D01*
X0008558Y0053171D01*
X0008764Y0052858D01*
X0008978Y0052551D01*
X0009200Y0052249D01*
X0009428Y0051952D01*
X0009664Y0051661D01*
X0009907Y0051376D01*
X0010157Y0051097D01*
X0010413Y0050824D01*
X0010677Y0050558D01*
X0010946Y0050298D01*
X0011222Y0050044D01*
X0011503Y0049797D01*
X0011791Y0049558D01*
X0012085Y0049325D01*
X0012384Y0049099D01*
X0012688Y0048881D01*
X0012998Y0048671D01*
X0013312Y0048467D01*
X0013632Y0048272D01*
X0013956Y0048085D01*
X0014285Y0047905D01*
X0014618Y0047733D01*
X0014955Y0047570D01*
X0015296Y0047415D01*
X0015640Y0047268D01*
X0015988Y0047130D01*
X0027012Y0047130D02*
X0027360Y0047268D01*
X0027704Y0047415D01*
X0028045Y0047570D01*
X0028382Y0047733D01*
X0028715Y0047905D01*
X0029044Y0048085D01*
X0029368Y0048272D01*
X0029688Y0048467D01*
X0030002Y0048671D01*
X0030312Y0048881D01*
X0030616Y0049099D01*
X0030915Y0049325D01*
X0031209Y0049558D01*
X0031497Y0049797D01*
X0031778Y0050044D01*
X0032054Y0050298D01*
X0032323Y0050558D01*
X0032587Y0050824D01*
X0032843Y0051097D01*
X0033093Y0051376D01*
X0033336Y0051661D01*
X0033572Y0051952D01*
X0033800Y0052249D01*
X0034022Y0052551D01*
X0034236Y0052858D01*
X0034442Y0053171D01*
X0034641Y0053488D01*
X0034832Y0053810D01*
X0035015Y0054137D01*
X0035191Y0054468D01*
X0035358Y0054803D01*
X0035516Y0055142D01*
X0035667Y0055485D01*
X0035809Y0055832D01*
X0035943Y0056181D01*
X0036068Y0056534D01*
X0036184Y0056890D01*
X0036292Y0057249D01*
X0036391Y0057610D01*
X0036482Y0057974D01*
X0036563Y0058339D01*
X0036635Y0058707D01*
X0036699Y0059076D01*
X0036753Y0059446D01*
X0036799Y0059818D01*
X0036835Y0060191D01*
X0036863Y0060564D01*
X0036881Y0060938D01*
X0036890Y0061313D01*
X0036890Y0061687D01*
X0036881Y0062062D01*
X0036863Y0062436D01*
X0036835Y0062809D01*
X0036799Y0063182D01*
X0036753Y0063554D01*
X0036699Y0063924D01*
X0036635Y0064293D01*
X0036563Y0064661D01*
X0036482Y0065026D01*
X0036391Y0065390D01*
X0036292Y0065751D01*
X0036184Y0066110D01*
X0036068Y0066466D01*
X0035943Y0066819D01*
X0035809Y0067168D01*
X0035667Y0067515D01*
X0035516Y0067858D01*
X0035358Y0068197D01*
X0035191Y0068532D01*
X0035015Y0068863D01*
X0034832Y0069190D01*
X0034641Y0069512D01*
X0034442Y0069829D01*
X0034236Y0070142D01*
X0034022Y0070449D01*
X0033800Y0070751D01*
X0033572Y0071048D01*
X0033336Y0071339D01*
X0033093Y0071624D01*
X0032843Y0071903D01*
X0032587Y0072176D01*
X0032323Y0072442D01*
X0032054Y0072702D01*
X0031778Y0072956D01*
X0031497Y0073203D01*
X0031209Y0073442D01*
X0030915Y0073675D01*
X0030616Y0073901D01*
X0030312Y0074119D01*
X0030002Y0074329D01*
X0029688Y0074533D01*
X0029368Y0074728D01*
X0029044Y0074915D01*
X0028715Y0075095D01*
X0028382Y0075267D01*
X0028045Y0075430D01*
X0027704Y0075585D01*
X0027360Y0075732D01*
X0027012Y0075870D01*
D14*
X0009575Y0043190D02*
X0009575Y0038590D01*
X0008298Y0038590D02*
X0010853Y0038590D01*
X0006579Y0038590D02*
X0005557Y0038590D01*
X0005495Y0038592D01*
X0005434Y0038597D01*
X0005373Y0038607D01*
X0005312Y0038620D01*
X0005253Y0038636D01*
X0005195Y0038656D01*
X0005138Y0038680D01*
X0005082Y0038707D01*
X0005028Y0038737D01*
X0004976Y0038771D01*
X0004927Y0038807D01*
X0004879Y0038847D01*
X0004834Y0038889D01*
X0004792Y0038934D01*
X0004752Y0038982D01*
X0004716Y0039031D01*
X0004682Y0039083D01*
X0004652Y0039137D01*
X0004625Y0039193D01*
X0004601Y0039250D01*
X0004581Y0039308D01*
X0004565Y0039367D01*
X0004552Y0039428D01*
X0004542Y0039489D01*
X0004537Y0039550D01*
X0004535Y0039612D01*
X0004535Y0042168D01*
X0004537Y0042230D01*
X0004542Y0042291D01*
X0004552Y0042352D01*
X0004565Y0042413D01*
X0004581Y0042472D01*
X0004601Y0042530D01*
X0004625Y0042587D01*
X0004652Y0042643D01*
X0004682Y0042697D01*
X0004716Y0042749D01*
X0004752Y0042798D01*
X0004792Y0042846D01*
X0004834Y0042891D01*
X0004879Y0042933D01*
X0004927Y0042972D01*
X0004976Y0043009D01*
X0005028Y0043043D01*
X0005082Y0043073D01*
X0005138Y0043100D01*
X0005195Y0043124D01*
X0005253Y0043144D01*
X0005312Y0043160D01*
X0005373Y0043173D01*
X0005434Y0043183D01*
X0005495Y0043188D01*
X0005557Y0043190D01*
X0006579Y0043190D01*
X0008298Y0042168D02*
X0009575Y0043190D01*
X0014560Y0040800D02*
X0014560Y0037200D01*
X0014560Y0038800D02*
X0015560Y0038800D01*
X0015622Y0038802D01*
X0015683Y0038808D01*
X0015744Y0038817D01*
X0015804Y0038830D01*
X0015863Y0038847D01*
X0015921Y0038868D01*
X0015978Y0038892D01*
X0016033Y0038919D01*
X0016086Y0038950D01*
X0016138Y0038984D01*
X0016187Y0039021D01*
X0016234Y0039061D01*
X0016278Y0039104D01*
X0016319Y0039149D01*
X0016358Y0039197D01*
X0016394Y0039248D01*
X0016426Y0039300D01*
X0016455Y0039354D01*
X0016481Y0039410D01*
X0016503Y0039468D01*
X0016522Y0039526D01*
X0016537Y0039586D01*
X0016548Y0039647D01*
X0016556Y0039708D01*
X0016560Y0039769D01*
X0016560Y0039831D01*
X0016556Y0039892D01*
X0016548Y0039953D01*
X0016537Y0040014D01*
X0016522Y0040074D01*
X0016503Y0040132D01*
X0016481Y0040190D01*
X0016455Y0040246D01*
X0016426Y0040300D01*
X0016394Y0040352D01*
X0016358Y0040403D01*
X0016319Y0040451D01*
X0016278Y0040496D01*
X0016234Y0040539D01*
X0016187Y0040579D01*
X0016138Y0040616D01*
X0016086Y0040650D01*
X0016033Y0040681D01*
X0015978Y0040708D01*
X0015921Y0040732D01*
X0015863Y0040753D01*
X0015804Y0040770D01*
X0015744Y0040783D01*
X0015683Y0040792D01*
X0015622Y0040798D01*
X0015560Y0040800D01*
X0014560Y0040800D01*
X0018360Y0039300D02*
X0019460Y0038700D01*
X0019060Y0037200D02*
X0018982Y0037202D01*
X0018903Y0037207D01*
X0018825Y0037216D01*
X0018748Y0037229D01*
X0018671Y0037245D01*
X0018595Y0037265D01*
X0018520Y0037289D01*
X0018446Y0037315D01*
X0018374Y0037346D01*
X0018303Y0037379D01*
X0018234Y0037416D01*
X0018166Y0037456D01*
X0018100Y0037499D01*
X0018037Y0037545D01*
X0017976Y0037594D01*
X0017917Y0037646D01*
X0017860Y0037700D01*
X0019460Y0038700D02*
X0019508Y0038669D01*
X0019553Y0038636D01*
X0019596Y0038600D01*
X0019636Y0038560D01*
X0019673Y0038518D01*
X0019707Y0038474D01*
X0019739Y0038427D01*
X0019767Y0038378D01*
X0019791Y0038328D01*
X0019812Y0038275D01*
X0019829Y0038222D01*
X0019843Y0038167D01*
X0019852Y0038112D01*
X0019858Y0038056D01*
X0019860Y0038000D01*
X0019858Y0037945D01*
X0019853Y0037891D01*
X0019843Y0037837D01*
X0019830Y0037784D01*
X0019814Y0037732D01*
X0019794Y0037681D01*
X0019770Y0037632D01*
X0019744Y0037584D01*
X0019714Y0037539D01*
X0019681Y0037495D01*
X0019645Y0037454D01*
X0019606Y0037415D01*
X0019565Y0037379D01*
X0019521Y0037346D01*
X0019476Y0037316D01*
X0019428Y0037290D01*
X0019379Y0037266D01*
X0019328Y0037246D01*
X0019276Y0037230D01*
X0019223Y0037217D01*
X0019169Y0037207D01*
X0019115Y0037202D01*
X0019060Y0037200D01*
X0019660Y0040500D02*
X0019600Y0040543D01*
X0019537Y0040583D01*
X0019473Y0040620D01*
X0019406Y0040654D01*
X0019339Y0040684D01*
X0019269Y0040711D01*
X0019199Y0040734D01*
X0019127Y0040754D01*
X0019055Y0040771D01*
X0018982Y0040783D01*
X0018908Y0040793D01*
X0018834Y0040798D01*
X0018760Y0040800D01*
X0018705Y0040798D01*
X0018651Y0040793D01*
X0018597Y0040783D01*
X0018544Y0040770D01*
X0018492Y0040754D01*
X0018441Y0040734D01*
X0018392Y0040710D01*
X0018344Y0040684D01*
X0018299Y0040654D01*
X0018255Y0040621D01*
X0018214Y0040585D01*
X0018175Y0040546D01*
X0018139Y0040505D01*
X0018106Y0040461D01*
X0018076Y0040416D01*
X0018050Y0040368D01*
X0018026Y0040319D01*
X0018006Y0040268D01*
X0017990Y0040216D01*
X0017977Y0040163D01*
X0017967Y0040109D01*
X0017962Y0040055D01*
X0017960Y0040000D01*
X0017961Y0040000D02*
X0017963Y0039944D01*
X0017969Y0039888D01*
X0017978Y0039833D01*
X0017992Y0039778D01*
X0018009Y0039725D01*
X0018030Y0039672D01*
X0018054Y0039622D01*
X0018082Y0039573D01*
X0018114Y0039526D01*
X0018148Y0039482D01*
X0018185Y0039440D01*
X0018225Y0039400D01*
X0018268Y0039364D01*
X0018313Y0039331D01*
X0018361Y0039300D01*
X0021220Y0040800D02*
X0022020Y0037200D01*
X0022820Y0039600D01*
X0023620Y0037200D01*
X0024420Y0040800D01*
X0025780Y0040800D02*
X0026580Y0040800D01*
X0026180Y0040800D02*
X0026180Y0037200D01*
X0025780Y0037200D02*
X0026580Y0037200D01*
X0028820Y0037200D02*
X0028820Y0040800D01*
X0027820Y0040800D02*
X0029820Y0040800D01*
X0031168Y0040000D02*
X0031168Y0038000D01*
X0031170Y0037945D01*
X0031175Y0037891D01*
X0031185Y0037837D01*
X0031198Y0037784D01*
X0031214Y0037732D01*
X0031234Y0037681D01*
X0031258Y0037632D01*
X0031284Y0037584D01*
X0031314Y0037539D01*
X0031347Y0037495D01*
X0031383Y0037454D01*
X0031422Y0037415D01*
X0031463Y0037379D01*
X0031507Y0037346D01*
X0031552Y0037316D01*
X0031600Y0037290D01*
X0031649Y0037266D01*
X0031700Y0037246D01*
X0031752Y0037230D01*
X0031805Y0037217D01*
X0031859Y0037207D01*
X0031913Y0037202D01*
X0031968Y0037200D01*
X0032768Y0037200D01*
X0034300Y0037200D02*
X0034300Y0040800D01*
X0032768Y0040800D02*
X0031968Y0040800D01*
X0031913Y0040798D01*
X0031859Y0040793D01*
X0031805Y0040783D01*
X0031752Y0040770D01*
X0031700Y0040754D01*
X0031649Y0040734D01*
X0031600Y0040710D01*
X0031552Y0040684D01*
X0031507Y0040654D01*
X0031463Y0040621D01*
X0031422Y0040585D01*
X0031383Y0040546D01*
X0031347Y0040505D01*
X0031314Y0040461D01*
X0031284Y0040416D01*
X0031258Y0040368D01*
X0031234Y0040319D01*
X0031214Y0040268D01*
X0031198Y0040216D01*
X0031185Y0040163D01*
X0031175Y0040109D01*
X0031170Y0040055D01*
X0031168Y0040000D01*
X0034300Y0039200D02*
X0036300Y0039200D01*
X0036300Y0040800D02*
X0036300Y0037200D01*
X0037200Y0026300D02*
X0037200Y0024300D01*
X0037200Y0025300D02*
X0040800Y0025300D01*
X0040800Y0023140D02*
X0037200Y0021940D01*
X0040800Y0020740D01*
X0039900Y0021040D02*
X0039900Y0022840D01*
X0040800Y0018520D02*
X0040798Y0018582D01*
X0040792Y0018643D01*
X0040783Y0018704D01*
X0040770Y0018764D01*
X0040753Y0018823D01*
X0040732Y0018881D01*
X0040708Y0018938D01*
X0040681Y0018993D01*
X0040650Y0019046D01*
X0040616Y0019098D01*
X0040579Y0019147D01*
X0040539Y0019194D01*
X0040496Y0019238D01*
X0040451Y0019279D01*
X0040403Y0019318D01*
X0040352Y0019354D01*
X0040300Y0019386D01*
X0040246Y0019415D01*
X0040190Y0019441D01*
X0040132Y0019463D01*
X0040074Y0019482D01*
X0040014Y0019497D01*
X0039953Y0019508D01*
X0039892Y0019516D01*
X0039831Y0019520D01*
X0039769Y0019520D01*
X0039708Y0019516D01*
X0039647Y0019508D01*
X0039586Y0019497D01*
X0039526Y0019482D01*
X0039468Y0019463D01*
X0039410Y0019441D01*
X0039354Y0019415D01*
X0039300Y0019386D01*
X0039248Y0019354D01*
X0039197Y0019318D01*
X0039149Y0019279D01*
X0039104Y0019238D01*
X0039061Y0019194D01*
X0039021Y0019147D01*
X0038984Y0019098D01*
X0038950Y0019046D01*
X0038919Y0018993D01*
X0038892Y0018938D01*
X0038868Y0018881D01*
X0038847Y0018823D01*
X0038830Y0018764D01*
X0038817Y0018704D01*
X0038808Y0018643D01*
X0038802Y0018582D01*
X0038800Y0018520D01*
X0038800Y0017520D01*
X0038800Y0018520D02*
X0038798Y0018576D01*
X0038792Y0018631D01*
X0038783Y0018686D01*
X0038769Y0018741D01*
X0038752Y0018794D01*
X0038731Y0018845D01*
X0038706Y0018896D01*
X0038678Y0018944D01*
X0038647Y0018990D01*
X0038613Y0019034D01*
X0038575Y0019076D01*
X0038535Y0019115D01*
X0038493Y0019150D01*
X0038447Y0019183D01*
X0038400Y0019213D01*
X0038351Y0019239D01*
X0038300Y0019262D01*
X0038247Y0019281D01*
X0038194Y0019296D01*
X0038139Y0019308D01*
X0038084Y0019316D01*
X0038028Y0019320D01*
X0037972Y0019320D01*
X0037916Y0019316D01*
X0037861Y0019308D01*
X0037806Y0019296D01*
X0037753Y0019281D01*
X0037700Y0019262D01*
X0037649Y0019239D01*
X0037600Y0019213D01*
X0037553Y0019183D01*
X0037507Y0019150D01*
X0037465Y0019115D01*
X0037425Y0019076D01*
X0037387Y0019034D01*
X0037353Y0018990D01*
X0037322Y0018944D01*
X0037294Y0018896D01*
X0037269Y0018845D01*
X0037248Y0018794D01*
X0037231Y0018741D01*
X0037217Y0018686D01*
X0037208Y0018631D01*
X0037202Y0018576D01*
X0037200Y0018520D01*
X0037200Y0017520D01*
X0040800Y0017520D01*
X0040800Y0018520D01*
X0134826Y0044420D02*
X0134826Y0049020D01*
X0136870Y0049020D01*
X0138726Y0049020D02*
X0140770Y0049020D01*
X0140259Y0046976D02*
X0138726Y0046976D01*
X0138726Y0049020D02*
X0138726Y0044420D01*
X0140770Y0044420D01*
X0142617Y0045443D02*
X0142617Y0047998D01*
X0142619Y0048060D01*
X0142624Y0048121D01*
X0142634Y0048182D01*
X0142647Y0048243D01*
X0142663Y0048302D01*
X0142683Y0048360D01*
X0142707Y0048417D01*
X0142734Y0048473D01*
X0142764Y0048527D01*
X0142798Y0048579D01*
X0142834Y0048628D01*
X0142874Y0048676D01*
X0142916Y0048721D01*
X0142961Y0048763D01*
X0143009Y0048802D01*
X0143058Y0048839D01*
X0143110Y0048873D01*
X0143164Y0048903D01*
X0143220Y0048930D01*
X0143277Y0048954D01*
X0143335Y0048974D01*
X0143394Y0048990D01*
X0143455Y0049003D01*
X0143516Y0049013D01*
X0143577Y0049018D01*
X0143639Y0049020D01*
X0145173Y0049020D01*
X0145173Y0046976D02*
X0145173Y0044420D01*
X0143639Y0044420D01*
X0143639Y0044421D02*
X0143577Y0044423D01*
X0143516Y0044428D01*
X0143455Y0044438D01*
X0143394Y0044451D01*
X0143335Y0044467D01*
X0143277Y0044487D01*
X0143220Y0044511D01*
X0143164Y0044538D01*
X0143110Y0044568D01*
X0143058Y0044602D01*
X0143009Y0044638D01*
X0142961Y0044678D01*
X0142916Y0044720D01*
X0142874Y0044765D01*
X0142834Y0044813D01*
X0142798Y0044862D01*
X0142764Y0044914D01*
X0142734Y0044968D01*
X0142707Y0045024D01*
X0142683Y0045081D01*
X0142663Y0045139D01*
X0142647Y0045198D01*
X0142634Y0045259D01*
X0142624Y0045320D01*
X0142619Y0045381D01*
X0142617Y0045443D01*
X0144406Y0046976D02*
X0145173Y0046976D01*
X0136870Y0044420D02*
X0134826Y0044420D01*
X0134826Y0046976D02*
X0136359Y0046976D01*
X0127800Y0153700D02*
X0124200Y0153700D01*
X0124200Y0154700D01*
X0124202Y0154762D01*
X0124208Y0154823D01*
X0124217Y0154884D01*
X0124230Y0154944D01*
X0124247Y0155003D01*
X0124268Y0155061D01*
X0124292Y0155118D01*
X0124319Y0155173D01*
X0124350Y0155226D01*
X0124384Y0155278D01*
X0124421Y0155327D01*
X0124461Y0155374D01*
X0124504Y0155418D01*
X0124549Y0155459D01*
X0124597Y0155498D01*
X0124648Y0155534D01*
X0124700Y0155566D01*
X0124754Y0155595D01*
X0124810Y0155621D01*
X0124868Y0155643D01*
X0124926Y0155662D01*
X0124986Y0155677D01*
X0125047Y0155688D01*
X0125108Y0155696D01*
X0125169Y0155700D01*
X0125231Y0155700D01*
X0125292Y0155696D01*
X0125353Y0155688D01*
X0125414Y0155677D01*
X0125474Y0155662D01*
X0125532Y0155643D01*
X0125590Y0155621D01*
X0125646Y0155595D01*
X0125700Y0155566D01*
X0125752Y0155534D01*
X0125803Y0155498D01*
X0125851Y0155459D01*
X0125896Y0155418D01*
X0125939Y0155374D01*
X0125979Y0155327D01*
X0126016Y0155278D01*
X0126050Y0155226D01*
X0126081Y0155173D01*
X0126108Y0155118D01*
X0126132Y0155061D01*
X0126153Y0155003D01*
X0126170Y0154944D01*
X0126183Y0154884D01*
X0126192Y0154823D01*
X0126198Y0154762D01*
X0126200Y0154700D01*
X0126200Y0153700D01*
X0126200Y0157266D02*
X0126200Y0158266D01*
X0126200Y0158466D02*
X0127800Y0159266D01*
X0126800Y0160840D02*
X0125200Y0160840D01*
X0125138Y0160842D01*
X0125077Y0160848D01*
X0125016Y0160857D01*
X0124956Y0160870D01*
X0124897Y0160887D01*
X0124839Y0160908D01*
X0124782Y0160932D01*
X0124727Y0160959D01*
X0124674Y0160990D01*
X0124622Y0161024D01*
X0124573Y0161061D01*
X0124526Y0161101D01*
X0124482Y0161144D01*
X0124441Y0161189D01*
X0124402Y0161237D01*
X0124366Y0161288D01*
X0124334Y0161340D01*
X0124305Y0161394D01*
X0124279Y0161450D01*
X0124257Y0161508D01*
X0124238Y0161566D01*
X0124223Y0161626D01*
X0124212Y0161687D01*
X0124204Y0161748D01*
X0124200Y0161809D01*
X0124200Y0161871D01*
X0124204Y0161932D01*
X0124212Y0161993D01*
X0124223Y0162054D01*
X0124238Y0162114D01*
X0124257Y0162172D01*
X0124279Y0162230D01*
X0124305Y0162286D01*
X0124334Y0162340D01*
X0124366Y0162392D01*
X0124402Y0162443D01*
X0124441Y0162491D01*
X0124482Y0162536D01*
X0124526Y0162579D01*
X0124573Y0162619D01*
X0124622Y0162656D01*
X0124674Y0162690D01*
X0124727Y0162721D01*
X0124782Y0162748D01*
X0124839Y0162772D01*
X0124897Y0162793D01*
X0124956Y0162810D01*
X0125016Y0162823D01*
X0125077Y0162832D01*
X0125138Y0162838D01*
X0125200Y0162840D01*
X0126800Y0162840D01*
X0126862Y0162838D01*
X0126923Y0162832D01*
X0126984Y0162823D01*
X0127044Y0162810D01*
X0127103Y0162793D01*
X0127161Y0162772D01*
X0127218Y0162748D01*
X0127273Y0162721D01*
X0127326Y0162690D01*
X0127378Y0162656D01*
X0127427Y0162619D01*
X0127474Y0162579D01*
X0127518Y0162536D01*
X0127559Y0162491D01*
X0127598Y0162443D01*
X0127634Y0162392D01*
X0127666Y0162340D01*
X0127695Y0162286D01*
X0127721Y0162230D01*
X0127743Y0162172D01*
X0127762Y0162114D01*
X0127777Y0162054D01*
X0127788Y0161993D01*
X0127796Y0161932D01*
X0127800Y0161871D01*
X0127800Y0161809D01*
X0127796Y0161748D01*
X0127788Y0161687D01*
X0127777Y0161626D01*
X0127762Y0161566D01*
X0127743Y0161508D01*
X0127721Y0161450D01*
X0127695Y0161394D01*
X0127666Y0161340D01*
X0127634Y0161288D01*
X0127598Y0161237D01*
X0127559Y0161189D01*
X0127518Y0161144D01*
X0127474Y0161101D01*
X0127427Y0161061D01*
X0127378Y0161024D01*
X0127326Y0160990D01*
X0127273Y0160959D01*
X0127218Y0160932D01*
X0127161Y0160908D01*
X0127103Y0160887D01*
X0127044Y0160870D01*
X0126984Y0160857D01*
X0126923Y0160848D01*
X0126862Y0160842D01*
X0126800Y0160840D01*
X0126200Y0158266D02*
X0126198Y0158328D01*
X0126192Y0158389D01*
X0126183Y0158450D01*
X0126170Y0158510D01*
X0126153Y0158569D01*
X0126132Y0158627D01*
X0126108Y0158684D01*
X0126081Y0158739D01*
X0126050Y0158792D01*
X0126016Y0158844D01*
X0125979Y0158893D01*
X0125939Y0158940D01*
X0125896Y0158984D01*
X0125851Y0159025D01*
X0125803Y0159064D01*
X0125752Y0159100D01*
X0125700Y0159132D01*
X0125646Y0159161D01*
X0125590Y0159187D01*
X0125532Y0159209D01*
X0125474Y0159228D01*
X0125414Y0159243D01*
X0125353Y0159254D01*
X0125292Y0159262D01*
X0125231Y0159266D01*
X0125169Y0159266D01*
X0125108Y0159262D01*
X0125047Y0159254D01*
X0124986Y0159243D01*
X0124926Y0159228D01*
X0124868Y0159209D01*
X0124810Y0159187D01*
X0124754Y0159161D01*
X0124700Y0159132D01*
X0124648Y0159100D01*
X0124597Y0159064D01*
X0124549Y0159025D01*
X0124504Y0158984D01*
X0124461Y0158940D01*
X0124421Y0158893D01*
X0124384Y0158844D01*
X0124350Y0158792D01*
X0124319Y0158739D01*
X0124292Y0158684D01*
X0124268Y0158627D01*
X0124247Y0158569D01*
X0124230Y0158510D01*
X0124217Y0158450D01*
X0124208Y0158389D01*
X0124202Y0158328D01*
X0124200Y0158266D01*
X0124200Y0157266D01*
X0127800Y0157266D01*
X0127000Y0164560D02*
X0125000Y0164560D01*
X0124945Y0164562D01*
X0124891Y0164567D01*
X0124837Y0164577D01*
X0124784Y0164590D01*
X0124732Y0164606D01*
X0124681Y0164626D01*
X0124632Y0164650D01*
X0124584Y0164676D01*
X0124539Y0164706D01*
X0124495Y0164739D01*
X0124454Y0164775D01*
X0124415Y0164814D01*
X0124379Y0164855D01*
X0124346Y0164899D01*
X0124316Y0164944D01*
X0124290Y0164992D01*
X0124266Y0165041D01*
X0124246Y0165092D01*
X0124230Y0165144D01*
X0124217Y0165197D01*
X0124207Y0165251D01*
X0124202Y0165305D01*
X0124200Y0165360D01*
X0124200Y0166560D01*
X0125800Y0166560D02*
X0127800Y0166560D01*
X0127800Y0165360D01*
X0127798Y0165305D01*
X0127793Y0165251D01*
X0127783Y0165197D01*
X0127770Y0165144D01*
X0127754Y0165092D01*
X0127734Y0165041D01*
X0127710Y0164992D01*
X0127684Y0164944D01*
X0127654Y0164899D01*
X0127621Y0164855D01*
X0127585Y0164814D01*
X0127546Y0164775D01*
X0127505Y0164739D01*
X0127461Y0164706D01*
X0127416Y0164676D01*
X0127368Y0164650D01*
X0127319Y0164626D01*
X0127268Y0164606D01*
X0127216Y0164590D01*
X0127163Y0164577D01*
X0127109Y0164567D01*
X0127055Y0164562D01*
X0127000Y0164560D01*
X0125800Y0165960D02*
X0125800Y0166560D01*
D15*
X0116933Y0171697D02*
X0116933Y0145122D01*
X0116776Y0146894D02*
X0046224Y0146894D01*
X0046067Y0145122D02*
X0046067Y0171697D01*
X0116933Y0171697D01*
X0139856Y0087650D02*
X0140384Y0087650D01*
X0139856Y0087650D02*
X0139856Y0085750D01*
X0140384Y0085750D01*
X0140428Y0085752D01*
X0140471Y0085757D01*
X0140514Y0085766D01*
X0140555Y0085779D01*
X0140596Y0085794D01*
X0140635Y0085814D01*
X0140673Y0085836D01*
X0140708Y0085861D01*
X0140742Y0085890D01*
X0140772Y0085920D01*
X0140801Y0085954D01*
X0140826Y0085989D01*
X0140848Y0086027D01*
X0140868Y0086066D01*
X0140883Y0086107D01*
X0140896Y0086148D01*
X0140905Y0086191D01*
X0140910Y0086234D01*
X0140912Y0086278D01*
X0140912Y0087122D01*
X0140910Y0087166D01*
X0140905Y0087209D01*
X0140896Y0087252D01*
X0140883Y0087293D01*
X0140868Y0087334D01*
X0140848Y0087373D01*
X0140826Y0087411D01*
X0140801Y0087446D01*
X0140772Y0087480D01*
X0140742Y0087510D01*
X0140708Y0087539D01*
X0140673Y0087564D01*
X0140635Y0087586D01*
X0140596Y0087606D01*
X0140555Y0087621D01*
X0140514Y0087634D01*
X0140471Y0087643D01*
X0140428Y0087648D01*
X0140384Y0087650D01*
X0142088Y0087228D02*
X0142616Y0087650D01*
X0142616Y0085750D01*
X0142088Y0085750D02*
X0143144Y0085750D01*
X0151500Y0066500D02*
X0041500Y0066500D01*
X0041500Y0006500D01*
X0151500Y0006500D01*
X0151500Y0066500D01*
X0116933Y0071303D02*
X0116933Y0074256D01*
X0116933Y0071303D02*
X0107091Y0071303D01*
X0055909Y0071303D02*
X0046067Y0071303D01*
X0046067Y0074256D01*
X0030161Y0089709D02*
X0012445Y0089709D01*
X0009689Y0096972D02*
X0009689Y0106028D01*
X0012445Y0113291D02*
X0030555Y0113291D01*
X0030161Y0119709D02*
X0012445Y0119709D01*
X0009689Y0126972D02*
X0009689Y0136028D01*
X0012445Y0143291D02*
X0030555Y0143291D01*
X0033291Y0136028D02*
X0033291Y0126972D01*
X0014591Y0131500D02*
X0014593Y0131670D01*
X0014599Y0131839D01*
X0014610Y0132008D01*
X0014624Y0132177D01*
X0014643Y0132346D01*
X0014666Y0132514D01*
X0014693Y0132681D01*
X0014724Y0132848D01*
X0014759Y0133014D01*
X0014798Y0133179D01*
X0014841Y0133343D01*
X0014888Y0133506D01*
X0014940Y0133667D01*
X0014995Y0133828D01*
X0015054Y0133987D01*
X0015117Y0134144D01*
X0015184Y0134300D01*
X0015254Y0134454D01*
X0015329Y0134606D01*
X0015407Y0134757D01*
X0015489Y0134905D01*
X0015574Y0135052D01*
X0015663Y0135196D01*
X0015755Y0135338D01*
X0015851Y0135478D01*
X0015951Y0135616D01*
X0016053Y0135751D01*
X0016159Y0135883D01*
X0016268Y0136013D01*
X0016381Y0136140D01*
X0016496Y0136264D01*
X0016615Y0136385D01*
X0016736Y0136504D01*
X0016860Y0136619D01*
X0016987Y0136732D01*
X0017117Y0136841D01*
X0017249Y0136947D01*
X0017384Y0137049D01*
X0017522Y0137149D01*
X0017662Y0137245D01*
X0017804Y0137337D01*
X0017948Y0137426D01*
X0018095Y0137511D01*
X0018243Y0137593D01*
X0018394Y0137671D01*
X0018546Y0137746D01*
X0018700Y0137816D01*
X0018856Y0137883D01*
X0019013Y0137946D01*
X0019172Y0138005D01*
X0019333Y0138060D01*
X0019494Y0138112D01*
X0019657Y0138159D01*
X0019821Y0138202D01*
X0019986Y0138241D01*
X0020152Y0138276D01*
X0020319Y0138307D01*
X0020486Y0138334D01*
X0020654Y0138357D01*
X0020823Y0138376D01*
X0020992Y0138390D01*
X0021161Y0138401D01*
X0021330Y0138407D01*
X0021500Y0138409D01*
X0021670Y0138407D01*
X0021839Y0138401D01*
X0022008Y0138390D01*
X0022177Y0138376D01*
X0022346Y0138357D01*
X0022514Y0138334D01*
X0022681Y0138307D01*
X0022848Y0138276D01*
X0023014Y0138241D01*
X0023179Y0138202D01*
X0023343Y0138159D01*
X0023506Y0138112D01*
X0023667Y0138060D01*
X0023828Y0138005D01*
X0023987Y0137946D01*
X0024144Y0137883D01*
X0024300Y0137816D01*
X0024454Y0137746D01*
X0024606Y0137671D01*
X0024757Y0137593D01*
X0024905Y0137511D01*
X0025052Y0137426D01*
X0025196Y0137337D01*
X0025338Y0137245D01*
X0025478Y0137149D01*
X0025616Y0137049D01*
X0025751Y0136947D01*
X0025883Y0136841D01*
X0026013Y0136732D01*
X0026140Y0136619D01*
X0026264Y0136504D01*
X0026385Y0136385D01*
X0026504Y0136264D01*
X0026619Y0136140D01*
X0026732Y0136013D01*
X0026841Y0135883D01*
X0026947Y0135751D01*
X0027049Y0135616D01*
X0027149Y0135478D01*
X0027245Y0135338D01*
X0027337Y0135196D01*
X0027426Y0135052D01*
X0027511Y0134905D01*
X0027593Y0134757D01*
X0027671Y0134606D01*
X0027746Y0134454D01*
X0027816Y0134300D01*
X0027883Y0134144D01*
X0027946Y0133987D01*
X0028005Y0133828D01*
X0028060Y0133667D01*
X0028112Y0133506D01*
X0028159Y0133343D01*
X0028202Y0133179D01*
X0028241Y0133014D01*
X0028276Y0132848D01*
X0028307Y0132681D01*
X0028334Y0132514D01*
X0028357Y0132346D01*
X0028376Y0132177D01*
X0028390Y0132008D01*
X0028401Y0131839D01*
X0028407Y0131670D01*
X0028409Y0131500D01*
X0028407Y0131330D01*
X0028401Y0131161D01*
X0028390Y0130992D01*
X0028376Y0130823D01*
X0028357Y0130654D01*
X0028334Y0130486D01*
X0028307Y0130319D01*
X0028276Y0130152D01*
X0028241Y0129986D01*
X0028202Y0129821D01*
X0028159Y0129657D01*
X0028112Y0129494D01*
X0028060Y0129333D01*
X0028005Y0129172D01*
X0027946Y0129013D01*
X0027883Y0128856D01*
X0027816Y0128700D01*
X0027746Y0128546D01*
X0027671Y0128394D01*
X0027593Y0128243D01*
X0027511Y0128095D01*
X0027426Y0127948D01*
X0027337Y0127804D01*
X0027245Y0127662D01*
X0027149Y0127522D01*
X0027049Y0127384D01*
X0026947Y0127249D01*
X0026841Y0127117D01*
X0026732Y0126987D01*
X0026619Y0126860D01*
X0026504Y0126736D01*
X0026385Y0126615D01*
X0026264Y0126496D01*
X0026140Y0126381D01*
X0026013Y0126268D01*
X0025883Y0126159D01*
X0025751Y0126053D01*
X0025616Y0125951D01*
X0025478Y0125851D01*
X0025338Y0125755D01*
X0025196Y0125663D01*
X0025052Y0125574D01*
X0024905Y0125489D01*
X0024757Y0125407D01*
X0024606Y0125329D01*
X0024454Y0125254D01*
X0024300Y0125184D01*
X0024144Y0125117D01*
X0023987Y0125054D01*
X0023828Y0124995D01*
X0023667Y0124940D01*
X0023506Y0124888D01*
X0023343Y0124841D01*
X0023179Y0124798D01*
X0023014Y0124759D01*
X0022848Y0124724D01*
X0022681Y0124693D01*
X0022514Y0124666D01*
X0022346Y0124643D01*
X0022177Y0124624D01*
X0022008Y0124610D01*
X0021839Y0124599D01*
X0021670Y0124593D01*
X0021500Y0124591D01*
X0021330Y0124593D01*
X0021161Y0124599D01*
X0020992Y0124610D01*
X0020823Y0124624D01*
X0020654Y0124643D01*
X0020486Y0124666D01*
X0020319Y0124693D01*
X0020152Y0124724D01*
X0019986Y0124759D01*
X0019821Y0124798D01*
X0019657Y0124841D01*
X0019494Y0124888D01*
X0019333Y0124940D01*
X0019172Y0124995D01*
X0019013Y0125054D01*
X0018856Y0125117D01*
X0018700Y0125184D01*
X0018546Y0125254D01*
X0018394Y0125329D01*
X0018243Y0125407D01*
X0018095Y0125489D01*
X0017948Y0125574D01*
X0017804Y0125663D01*
X0017662Y0125755D01*
X0017522Y0125851D01*
X0017384Y0125951D01*
X0017249Y0126053D01*
X0017117Y0126159D01*
X0016987Y0126268D01*
X0016860Y0126381D01*
X0016736Y0126496D01*
X0016615Y0126615D01*
X0016496Y0126736D01*
X0016381Y0126860D01*
X0016268Y0126987D01*
X0016159Y0127117D01*
X0016053Y0127249D01*
X0015951Y0127384D01*
X0015851Y0127522D01*
X0015755Y0127662D01*
X0015663Y0127804D01*
X0015574Y0127948D01*
X0015489Y0128095D01*
X0015407Y0128243D01*
X0015329Y0128394D01*
X0015254Y0128546D01*
X0015184Y0128700D01*
X0015117Y0128856D01*
X0015054Y0129013D01*
X0014995Y0129172D01*
X0014940Y0129333D01*
X0014888Y0129494D01*
X0014841Y0129657D01*
X0014798Y0129821D01*
X0014759Y0129986D01*
X0014724Y0130152D01*
X0014693Y0130319D01*
X0014666Y0130486D01*
X0014643Y0130654D01*
X0014624Y0130823D01*
X0014610Y0130992D01*
X0014599Y0131161D01*
X0014593Y0131330D01*
X0014591Y0131500D01*
X0033291Y0106028D02*
X0033291Y0096972D01*
X0014591Y0101500D02*
X0014593Y0101670D01*
X0014599Y0101839D01*
X0014610Y0102008D01*
X0014624Y0102177D01*
X0014643Y0102346D01*
X0014666Y0102514D01*
X0014693Y0102681D01*
X0014724Y0102848D01*
X0014759Y0103014D01*
X0014798Y0103179D01*
X0014841Y0103343D01*
X0014888Y0103506D01*
X0014940Y0103667D01*
X0014995Y0103828D01*
X0015054Y0103987D01*
X0015117Y0104144D01*
X0015184Y0104300D01*
X0015254Y0104454D01*
X0015329Y0104606D01*
X0015407Y0104757D01*
X0015489Y0104905D01*
X0015574Y0105052D01*
X0015663Y0105196D01*
X0015755Y0105338D01*
X0015851Y0105478D01*
X0015951Y0105616D01*
X0016053Y0105751D01*
X0016159Y0105883D01*
X0016268Y0106013D01*
X0016381Y0106140D01*
X0016496Y0106264D01*
X0016615Y0106385D01*
X0016736Y0106504D01*
X0016860Y0106619D01*
X0016987Y0106732D01*
X0017117Y0106841D01*
X0017249Y0106947D01*
X0017384Y0107049D01*
X0017522Y0107149D01*
X0017662Y0107245D01*
X0017804Y0107337D01*
X0017948Y0107426D01*
X0018095Y0107511D01*
X0018243Y0107593D01*
X0018394Y0107671D01*
X0018546Y0107746D01*
X0018700Y0107816D01*
X0018856Y0107883D01*
X0019013Y0107946D01*
X0019172Y0108005D01*
X0019333Y0108060D01*
X0019494Y0108112D01*
X0019657Y0108159D01*
X0019821Y0108202D01*
X0019986Y0108241D01*
X0020152Y0108276D01*
X0020319Y0108307D01*
X0020486Y0108334D01*
X0020654Y0108357D01*
X0020823Y0108376D01*
X0020992Y0108390D01*
X0021161Y0108401D01*
X0021330Y0108407D01*
X0021500Y0108409D01*
X0021670Y0108407D01*
X0021839Y0108401D01*
X0022008Y0108390D01*
X0022177Y0108376D01*
X0022346Y0108357D01*
X0022514Y0108334D01*
X0022681Y0108307D01*
X0022848Y0108276D01*
X0023014Y0108241D01*
X0023179Y0108202D01*
X0023343Y0108159D01*
X0023506Y0108112D01*
X0023667Y0108060D01*
X0023828Y0108005D01*
X0023987Y0107946D01*
X0024144Y0107883D01*
X0024300Y0107816D01*
X0024454Y0107746D01*
X0024606Y0107671D01*
X0024757Y0107593D01*
X0024905Y0107511D01*
X0025052Y0107426D01*
X0025196Y0107337D01*
X0025338Y0107245D01*
X0025478Y0107149D01*
X0025616Y0107049D01*
X0025751Y0106947D01*
X0025883Y0106841D01*
X0026013Y0106732D01*
X0026140Y0106619D01*
X0026264Y0106504D01*
X0026385Y0106385D01*
X0026504Y0106264D01*
X0026619Y0106140D01*
X0026732Y0106013D01*
X0026841Y0105883D01*
X0026947Y0105751D01*
X0027049Y0105616D01*
X0027149Y0105478D01*
X0027245Y0105338D01*
X0027337Y0105196D01*
X0027426Y0105052D01*
X0027511Y0104905D01*
X0027593Y0104757D01*
X0027671Y0104606D01*
X0027746Y0104454D01*
X0027816Y0104300D01*
X0027883Y0104144D01*
X0027946Y0103987D01*
X0028005Y0103828D01*
X0028060Y0103667D01*
X0028112Y0103506D01*
X0028159Y0103343D01*
X0028202Y0103179D01*
X0028241Y0103014D01*
X0028276Y0102848D01*
X0028307Y0102681D01*
X0028334Y0102514D01*
X0028357Y0102346D01*
X0028376Y0102177D01*
X0028390Y0102008D01*
X0028401Y0101839D01*
X0028407Y0101670D01*
X0028409Y0101500D01*
X0028407Y0101330D01*
X0028401Y0101161D01*
X0028390Y0100992D01*
X0028376Y0100823D01*
X0028357Y0100654D01*
X0028334Y0100486D01*
X0028307Y0100319D01*
X0028276Y0100152D01*
X0028241Y0099986D01*
X0028202Y0099821D01*
X0028159Y0099657D01*
X0028112Y0099494D01*
X0028060Y0099333D01*
X0028005Y0099172D01*
X0027946Y0099013D01*
X0027883Y0098856D01*
X0027816Y0098700D01*
X0027746Y0098546D01*
X0027671Y0098394D01*
X0027593Y0098243D01*
X0027511Y0098095D01*
X0027426Y0097948D01*
X0027337Y0097804D01*
X0027245Y0097662D01*
X0027149Y0097522D01*
X0027049Y0097384D01*
X0026947Y0097249D01*
X0026841Y0097117D01*
X0026732Y0096987D01*
X0026619Y0096860D01*
X0026504Y0096736D01*
X0026385Y0096615D01*
X0026264Y0096496D01*
X0026140Y0096381D01*
X0026013Y0096268D01*
X0025883Y0096159D01*
X0025751Y0096053D01*
X0025616Y0095951D01*
X0025478Y0095851D01*
X0025338Y0095755D01*
X0025196Y0095663D01*
X0025052Y0095574D01*
X0024905Y0095489D01*
X0024757Y0095407D01*
X0024606Y0095329D01*
X0024454Y0095254D01*
X0024300Y0095184D01*
X0024144Y0095117D01*
X0023987Y0095054D01*
X0023828Y0094995D01*
X0023667Y0094940D01*
X0023506Y0094888D01*
X0023343Y0094841D01*
X0023179Y0094798D01*
X0023014Y0094759D01*
X0022848Y0094724D01*
X0022681Y0094693D01*
X0022514Y0094666D01*
X0022346Y0094643D01*
X0022177Y0094624D01*
X0022008Y0094610D01*
X0021839Y0094599D01*
X0021670Y0094593D01*
X0021500Y0094591D01*
X0021330Y0094593D01*
X0021161Y0094599D01*
X0020992Y0094610D01*
X0020823Y0094624D01*
X0020654Y0094643D01*
X0020486Y0094666D01*
X0020319Y0094693D01*
X0020152Y0094724D01*
X0019986Y0094759D01*
X0019821Y0094798D01*
X0019657Y0094841D01*
X0019494Y0094888D01*
X0019333Y0094940D01*
X0019172Y0094995D01*
X0019013Y0095054D01*
X0018856Y0095117D01*
X0018700Y0095184D01*
X0018546Y0095254D01*
X0018394Y0095329D01*
X0018243Y0095407D01*
X0018095Y0095489D01*
X0017948Y0095574D01*
X0017804Y0095663D01*
X0017662Y0095755D01*
X0017522Y0095851D01*
X0017384Y0095951D01*
X0017249Y0096053D01*
X0017117Y0096159D01*
X0016987Y0096268D01*
X0016860Y0096381D01*
X0016736Y0096496D01*
X0016615Y0096615D01*
X0016496Y0096736D01*
X0016381Y0096860D01*
X0016268Y0096987D01*
X0016159Y0097117D01*
X0016053Y0097249D01*
X0015951Y0097384D01*
X0015851Y0097522D01*
X0015755Y0097662D01*
X0015663Y0097804D01*
X0015574Y0097948D01*
X0015489Y0098095D01*
X0015407Y0098243D01*
X0015329Y0098394D01*
X0015254Y0098546D01*
X0015184Y0098700D01*
X0015117Y0098856D01*
X0015054Y0099013D01*
X0014995Y0099172D01*
X0014940Y0099333D01*
X0014888Y0099494D01*
X0014841Y0099657D01*
X0014798Y0099821D01*
X0014759Y0099986D01*
X0014724Y0100152D01*
X0014693Y0100319D01*
X0014666Y0100486D01*
X0014643Y0100654D01*
X0014624Y0100823D01*
X0014610Y0100992D01*
X0014599Y0101161D01*
X0014593Y0101330D01*
X0014591Y0101500D01*
D16*
X0003606Y0092642D02*
X0003608Y0092681D01*
X0003614Y0092720D01*
X0003624Y0092758D01*
X0003637Y0092795D01*
X0003654Y0092830D01*
X0003674Y0092864D01*
X0003698Y0092895D01*
X0003725Y0092924D01*
X0003754Y0092950D01*
X0003786Y0092973D01*
X0003820Y0092993D01*
X0003856Y0093009D01*
X0003893Y0093021D01*
X0003932Y0093030D01*
X0003971Y0093035D01*
X0004010Y0093036D01*
X0004049Y0093033D01*
X0004088Y0093026D01*
X0004125Y0093015D01*
X0004162Y0093001D01*
X0004197Y0092983D01*
X0004230Y0092962D01*
X0004261Y0092937D01*
X0004289Y0092910D01*
X0004314Y0092880D01*
X0004336Y0092847D01*
X0004355Y0092813D01*
X0004370Y0092777D01*
X0004382Y0092739D01*
X0004390Y0092701D01*
X0004394Y0092662D01*
X0004394Y0092622D01*
X0004390Y0092583D01*
X0004382Y0092545D01*
X0004370Y0092507D01*
X0004355Y0092471D01*
X0004336Y0092437D01*
X0004314Y0092404D01*
X0004289Y0092374D01*
X0004261Y0092347D01*
X0004230Y0092322D01*
X0004197Y0092301D01*
X0004162Y0092283D01*
X0004125Y0092269D01*
X0004088Y0092258D01*
X0004049Y0092251D01*
X0004010Y0092248D01*
X0003971Y0092249D01*
X0003932Y0092254D01*
X0003893Y0092263D01*
X0003856Y0092275D01*
X0003820Y0092291D01*
X0003786Y0092311D01*
X0003754Y0092334D01*
X0003725Y0092360D01*
X0003698Y0092389D01*
X0003674Y0092420D01*
X0003654Y0092454D01*
X0003637Y0092489D01*
X0003624Y0092526D01*
X0003614Y0092564D01*
X0003608Y0092603D01*
X0003606Y0092642D01*
X0003606Y0122642D02*
X0003608Y0122681D01*
X0003614Y0122720D01*
X0003624Y0122758D01*
X0003637Y0122795D01*
X0003654Y0122830D01*
X0003674Y0122864D01*
X0003698Y0122895D01*
X0003725Y0122924D01*
X0003754Y0122950D01*
X0003786Y0122973D01*
X0003820Y0122993D01*
X0003856Y0123009D01*
X0003893Y0123021D01*
X0003932Y0123030D01*
X0003971Y0123035D01*
X0004010Y0123036D01*
X0004049Y0123033D01*
X0004088Y0123026D01*
X0004125Y0123015D01*
X0004162Y0123001D01*
X0004197Y0122983D01*
X0004230Y0122962D01*
X0004261Y0122937D01*
X0004289Y0122910D01*
X0004314Y0122880D01*
X0004336Y0122847D01*
X0004355Y0122813D01*
X0004370Y0122777D01*
X0004382Y0122739D01*
X0004390Y0122701D01*
X0004394Y0122662D01*
X0004394Y0122622D01*
X0004390Y0122583D01*
X0004382Y0122545D01*
X0004370Y0122507D01*
X0004355Y0122471D01*
X0004336Y0122437D01*
X0004314Y0122404D01*
X0004289Y0122374D01*
X0004261Y0122347D01*
X0004230Y0122322D01*
X0004197Y0122301D01*
X0004162Y0122283D01*
X0004125Y0122269D01*
X0004088Y0122258D01*
X0004049Y0122251D01*
X0004010Y0122248D01*
X0003971Y0122249D01*
X0003932Y0122254D01*
X0003893Y0122263D01*
X0003856Y0122275D01*
X0003820Y0122291D01*
X0003786Y0122311D01*
X0003754Y0122334D01*
X0003725Y0122360D01*
X0003698Y0122389D01*
X0003674Y0122420D01*
X0003654Y0122454D01*
X0003637Y0122489D01*
X0003624Y0122526D01*
X0003614Y0122564D01*
X0003608Y0122603D01*
X0003606Y0122642D01*
D17*
X0124189Y0077265D02*
X0124970Y0077711D01*
X0125063Y0077554D01*
X0125160Y0077400D01*
X0125261Y0077248D01*
X0125366Y0077099D01*
X0125474Y0076952D01*
X0125585Y0076807D01*
X0125700Y0076666D01*
X0125819Y0076527D01*
X0125941Y0076392D01*
X0126066Y0076259D01*
X0126194Y0076129D01*
X0126325Y0076003D01*
X0126459Y0075879D01*
X0126596Y0075759D01*
X0126736Y0075642D01*
X0126879Y0075529D01*
X0127025Y0075419D01*
X0127173Y0075313D01*
X0127324Y0075210D01*
X0127477Y0075111D01*
X0127632Y0075016D01*
X0127790Y0074925D01*
X0127950Y0074837D01*
X0128112Y0074753D01*
X0128275Y0074673D01*
X0128441Y0074597D01*
X0128609Y0074526D01*
X0128778Y0074458D01*
X0128949Y0074394D01*
X0129121Y0074335D01*
X0129295Y0074279D01*
X0129470Y0074228D01*
X0129646Y0074181D01*
X0129823Y0074139D01*
X0130002Y0074100D01*
X0130181Y0074066D01*
X0130361Y0074036D01*
X0130541Y0074011D01*
X0130722Y0073990D01*
X0130904Y0073974D01*
X0131086Y0073961D01*
X0131268Y0073954D01*
X0131450Y0073950D01*
X0131451Y0073051D01*
X0131450Y0073050D01*
X0131246Y0073054D01*
X0131042Y0073062D01*
X0130838Y0073076D01*
X0130634Y0073094D01*
X0130431Y0073118D01*
X0130229Y0073146D01*
X0130027Y0073179D01*
X0129827Y0073217D01*
X0129627Y0073260D01*
X0129428Y0073308D01*
X0129231Y0073360D01*
X0129035Y0073418D01*
X0128840Y0073480D01*
X0128647Y0073546D01*
X0128455Y0073618D01*
X0128266Y0073694D01*
X0128078Y0073774D01*
X0127892Y0073859D01*
X0127708Y0073949D01*
X0127527Y0074042D01*
X0127348Y0074141D01*
X0127171Y0074243D01*
X0126997Y0074350D01*
X0126825Y0074461D01*
X0126656Y0074576D01*
X0126490Y0074695D01*
X0126327Y0074818D01*
X0126167Y0074945D01*
X0126010Y0075076D01*
X0125856Y0075211D01*
X0125706Y0075349D01*
X0125559Y0075491D01*
X0125415Y0075636D01*
X0125275Y0075785D01*
X0125139Y0075937D01*
X0125006Y0076093D01*
X0124878Y0076251D01*
X0124753Y0076413D01*
X0124632Y0076578D01*
X0124515Y0076745D01*
X0124402Y0076916D01*
X0124293Y0077089D01*
X0124188Y0077264D01*
X0124270Y0077311D01*
X0124373Y0077137D01*
X0124481Y0076966D01*
X0124593Y0076798D01*
X0124708Y0076632D01*
X0124828Y0076469D01*
X0124952Y0076310D01*
X0125079Y0076153D01*
X0125210Y0075999D01*
X0125345Y0075849D01*
X0125483Y0075701D01*
X0125625Y0075558D01*
X0125771Y0075417D01*
X0125919Y0075281D01*
X0126071Y0075148D01*
X0126227Y0075018D01*
X0126385Y0074893D01*
X0126546Y0074771D01*
X0126710Y0074653D01*
X0126877Y0074539D01*
X0127047Y0074430D01*
X0127219Y0074324D01*
X0127394Y0074223D01*
X0127571Y0074125D01*
X0127750Y0074033D01*
X0127932Y0073944D01*
X0128116Y0073860D01*
X0128301Y0073780D01*
X0128489Y0073705D01*
X0128678Y0073635D01*
X0128869Y0073569D01*
X0129062Y0073508D01*
X0129256Y0073451D01*
X0129451Y0073399D01*
X0129647Y0073352D01*
X0129845Y0073310D01*
X0130043Y0073272D01*
X0130243Y0073239D01*
X0130443Y0073211D01*
X0130644Y0073188D01*
X0130845Y0073170D01*
X0131046Y0073156D01*
X0131248Y0073148D01*
X0131450Y0073144D01*
X0131450Y0073238D01*
X0131251Y0073242D01*
X0131051Y0073250D01*
X0130852Y0073263D01*
X0130653Y0073282D01*
X0130454Y0073304D01*
X0130257Y0073332D01*
X0130059Y0073365D01*
X0129863Y0073402D01*
X0129668Y0073444D01*
X0129474Y0073490D01*
X0129281Y0073542D01*
X0129089Y0073598D01*
X0128899Y0073658D01*
X0128710Y0073723D01*
X0128523Y0073793D01*
X0128337Y0073867D01*
X0128154Y0073946D01*
X0127972Y0074029D01*
X0127792Y0074117D01*
X0127615Y0074208D01*
X0127440Y0074304D01*
X0127267Y0074405D01*
X0127097Y0074509D01*
X0126929Y0074618D01*
X0126764Y0074730D01*
X0126602Y0074846D01*
X0126443Y0074967D01*
X0126286Y0075091D01*
X0126133Y0075219D01*
X0125982Y0075350D01*
X0125835Y0075486D01*
X0125692Y0075624D01*
X0125551Y0075766D01*
X0125414Y0075912D01*
X0125281Y0076061D01*
X0125151Y0076213D01*
X0125025Y0076368D01*
X0124903Y0076526D01*
X0124785Y0076687D01*
X0124671Y0076850D01*
X0124560Y0077017D01*
X0124454Y0077186D01*
X0124352Y0077357D01*
X0124433Y0077404D01*
X0124534Y0077234D01*
X0124639Y0077067D01*
X0124749Y0076903D01*
X0124862Y0076741D01*
X0124979Y0076582D01*
X0125099Y0076426D01*
X0125224Y0076272D01*
X0125352Y0076122D01*
X0125484Y0075975D01*
X0125619Y0075831D01*
X0125758Y0075691D01*
X0125900Y0075554D01*
X0126045Y0075420D01*
X0126194Y0075290D01*
X0126346Y0075164D01*
X0126500Y0075041D01*
X0126658Y0074922D01*
X0126818Y0074807D01*
X0126981Y0074696D01*
X0127147Y0074589D01*
X0127315Y0074485D01*
X0127486Y0074386D01*
X0127659Y0074291D01*
X0127835Y0074201D01*
X0128012Y0074114D01*
X0128192Y0074032D01*
X0128373Y0073954D01*
X0128556Y0073881D01*
X0128741Y0073812D01*
X0128928Y0073748D01*
X0129116Y0073688D01*
X0129306Y0073632D01*
X0129496Y0073582D01*
X0129688Y0073535D01*
X0129881Y0073494D01*
X0130075Y0073457D01*
X0130270Y0073425D01*
X0130466Y0073398D01*
X0130662Y0073375D01*
X0130859Y0073357D01*
X0131056Y0073344D01*
X0131253Y0073336D01*
X0131450Y0073332D01*
X0131450Y0073426D01*
X0131255Y0073430D01*
X0131060Y0073438D01*
X0130865Y0073451D01*
X0130671Y0073469D01*
X0130477Y0073491D01*
X0130284Y0073518D01*
X0130091Y0073550D01*
X0129900Y0073586D01*
X0129709Y0073627D01*
X0129519Y0073673D01*
X0129331Y0073723D01*
X0129143Y0073778D01*
X0128957Y0073837D01*
X0128773Y0073900D01*
X0128590Y0073969D01*
X0128409Y0074041D01*
X0128230Y0074118D01*
X0128052Y0074199D01*
X0127877Y0074285D01*
X0127703Y0074374D01*
X0127532Y0074468D01*
X0127364Y0074566D01*
X0127197Y0074668D01*
X0127033Y0074774D01*
X0126872Y0074884D01*
X0126714Y0074998D01*
X0126558Y0075115D01*
X0126405Y0075237D01*
X0126255Y0075362D01*
X0126108Y0075490D01*
X0125965Y0075622D01*
X0125824Y0075758D01*
X0125687Y0075897D01*
X0125553Y0076039D01*
X0125423Y0076184D01*
X0125296Y0076332D01*
X0125173Y0076484D01*
X0125054Y0076638D01*
X0124938Y0076795D01*
X0124827Y0076955D01*
X0124719Y0077118D01*
X0124615Y0077283D01*
X0124515Y0077451D01*
X0124596Y0077497D01*
X0124695Y0077332D01*
X0124798Y0077168D01*
X0124905Y0077008D01*
X0125015Y0076850D01*
X0125129Y0076694D01*
X0125247Y0076542D01*
X0125369Y0076392D01*
X0125494Y0076246D01*
X0125623Y0076102D01*
X0125755Y0075962D01*
X0125890Y0075824D01*
X0126029Y0075690D01*
X0126171Y0075560D01*
X0126316Y0075433D01*
X0126464Y0075309D01*
X0126615Y0075190D01*
X0126769Y0075073D01*
X0126926Y0074961D01*
X0127085Y0074852D01*
X0127247Y0074748D01*
X0127412Y0074647D01*
X0127578Y0074550D01*
X0127748Y0074457D01*
X0127919Y0074369D01*
X0128092Y0074284D01*
X0128268Y0074204D01*
X0128445Y0074128D01*
X0128624Y0074056D01*
X0128805Y0073989D01*
X0128987Y0073926D01*
X0129171Y0073868D01*
X0129356Y0073814D01*
X0129542Y0073764D01*
X0129730Y0073719D01*
X0129918Y0073678D01*
X0130107Y0073642D01*
X0130298Y0073611D01*
X0130489Y0073584D01*
X0130680Y0073562D01*
X0130872Y0073545D01*
X0131065Y0073532D01*
X0131257Y0073524D01*
X0131450Y0073520D01*
X0131450Y0073614D01*
X0131260Y0073618D01*
X0131069Y0073626D01*
X0130879Y0073638D01*
X0130689Y0073656D01*
X0130500Y0073678D01*
X0130312Y0073704D01*
X0130124Y0073735D01*
X0129936Y0073771D01*
X0129750Y0073811D01*
X0129565Y0073855D01*
X0129381Y0073904D01*
X0129198Y0073958D01*
X0129016Y0074015D01*
X0128836Y0074078D01*
X0128658Y0074144D01*
X0128481Y0074215D01*
X0128306Y0074290D01*
X0128132Y0074369D01*
X0127961Y0074453D01*
X0127792Y0074540D01*
X0127625Y0074632D01*
X0127460Y0074728D01*
X0127297Y0074827D01*
X0127137Y0074931D01*
X0126980Y0075038D01*
X0126825Y0075149D01*
X0126673Y0075264D01*
X0126524Y0075382D01*
X0126378Y0075504D01*
X0126234Y0075630D01*
X0126094Y0075759D01*
X0125957Y0075891D01*
X0125823Y0076027D01*
X0125692Y0076165D01*
X0125565Y0076307D01*
X0125441Y0076452D01*
X0125321Y0076600D01*
X0125205Y0076751D01*
X0125092Y0076904D01*
X0124983Y0077060D01*
X0124877Y0077219D01*
X0124776Y0077380D01*
X0124678Y0077544D01*
X0124760Y0077591D01*
X0124856Y0077429D01*
X0124956Y0077270D01*
X0125060Y0077113D01*
X0125168Y0076958D01*
X0125280Y0076807D01*
X0125395Y0076658D01*
X0125514Y0076512D01*
X0125636Y0076369D01*
X0125762Y0076229D01*
X0125891Y0076092D01*
X0126023Y0075958D01*
X0126159Y0075827D01*
X0126297Y0075700D01*
X0126439Y0075576D01*
X0126583Y0075455D01*
X0126731Y0075338D01*
X0126881Y0075225D01*
X0127034Y0075115D01*
X0127190Y0075009D01*
X0127348Y0074907D01*
X0127508Y0074808D01*
X0127671Y0074714D01*
X0127836Y0074623D01*
X0128003Y0074537D01*
X0128172Y0074454D01*
X0128343Y0074376D01*
X0128516Y0074302D01*
X0128691Y0074232D01*
X0128868Y0074166D01*
X0129046Y0074105D01*
X0129225Y0074048D01*
X0129406Y0073995D01*
X0129588Y0073946D01*
X0129771Y0073902D01*
X0129955Y0073863D01*
X0130140Y0073828D01*
X0130325Y0073797D01*
X0130512Y0073771D01*
X0130699Y0073749D01*
X0130886Y0073732D01*
X0131074Y0073720D01*
X0131262Y0073712D01*
X0131450Y0073708D01*
X0131450Y0073802D01*
X0131264Y0073806D01*
X0131079Y0073814D01*
X0130893Y0073826D01*
X0130708Y0073843D01*
X0130523Y0073864D01*
X0130339Y0073890D01*
X0130156Y0073920D01*
X0129973Y0073955D01*
X0129791Y0073994D01*
X0129610Y0074038D01*
X0129431Y0074085D01*
X0129252Y0074138D01*
X0129075Y0074194D01*
X0128899Y0074255D01*
X0128725Y0074320D01*
X0128552Y0074389D01*
X0128381Y0074462D01*
X0128212Y0074539D01*
X0128045Y0074621D01*
X0127880Y0074706D01*
X0127717Y0074796D01*
X0127556Y0074889D01*
X0127398Y0074986D01*
X0127242Y0075087D01*
X0127088Y0075192D01*
X0126937Y0075300D01*
X0126788Y0075412D01*
X0126643Y0075528D01*
X0126500Y0075647D01*
X0126360Y0075769D01*
X0126223Y0075895D01*
X0126089Y0076024D01*
X0125959Y0076157D01*
X0125831Y0076292D01*
X0125707Y0076430D01*
X0125586Y0076572D01*
X0125469Y0076716D01*
X0125355Y0076863D01*
X0125245Y0077013D01*
X0125138Y0077165D01*
X0125036Y0077320D01*
X0124937Y0077478D01*
X0124841Y0077637D01*
X0124923Y0077684D01*
X0125017Y0077526D01*
X0125115Y0077371D01*
X0125216Y0077218D01*
X0125322Y0077067D01*
X0125431Y0076919D01*
X0125543Y0076774D01*
X0125659Y0076632D01*
X0125778Y0076492D01*
X0125901Y0076355D01*
X0126027Y0076222D01*
X0126156Y0076091D01*
X0126288Y0075963D01*
X0126423Y0075839D01*
X0126561Y0075718D01*
X0126702Y0075601D01*
X0126846Y0075487D01*
X0126993Y0075376D01*
X0127142Y0075269D01*
X0127294Y0075165D01*
X0127448Y0075066D01*
X0127604Y0074970D01*
X0127763Y0074878D01*
X0127924Y0074789D01*
X0128087Y0074705D01*
X0128252Y0074624D01*
X0128419Y0074548D01*
X0128588Y0074476D01*
X0128759Y0074407D01*
X0128931Y0074343D01*
X0129104Y0074283D01*
X0129279Y0074227D01*
X0129456Y0074176D01*
X0129633Y0074129D01*
X0129812Y0074086D01*
X0129991Y0074047D01*
X0130172Y0074013D01*
X0130353Y0073983D01*
X0130535Y0073958D01*
X0130717Y0073936D01*
X0130900Y0073920D01*
X0131083Y0073907D01*
X0131267Y0073900D01*
X0131450Y0073896D01*
X0131450Y0089949D02*
X0131450Y0089049D01*
X0131450Y0089050D02*
X0131267Y0089046D01*
X0131084Y0089039D01*
X0130901Y0089026D01*
X0130718Y0089009D01*
X0130536Y0088988D01*
X0130355Y0088963D01*
X0130174Y0088933D01*
X0129994Y0088898D01*
X0129815Y0088860D01*
X0129637Y0088817D01*
X0129460Y0088769D01*
X0129285Y0088718D01*
X0129110Y0088662D01*
X0128937Y0088602D01*
X0128766Y0088537D01*
X0128596Y0088469D01*
X0128427Y0088397D01*
X0128261Y0088320D01*
X0128097Y0088239D01*
X0127934Y0088155D01*
X0127774Y0088066D01*
X0127615Y0087974D01*
X0127459Y0087878D01*
X0127306Y0087778D01*
X0127155Y0087674D01*
X0127006Y0087567D01*
X0126860Y0087456D01*
X0126717Y0087342D01*
X0126577Y0087224D01*
X0126440Y0087103D01*
X0126305Y0086979D01*
X0126174Y0086851D01*
X0126045Y0086720D01*
X0125920Y0086586D01*
X0125799Y0086450D01*
X0125680Y0086310D01*
X0125565Y0086167D01*
X0125454Y0086022D01*
X0125346Y0085874D01*
X0125242Y0085723D01*
X0125141Y0085570D01*
X0125044Y0085415D01*
X0124951Y0085257D01*
X0124862Y0085097D01*
X0124068Y0085520D01*
X0124168Y0085700D01*
X0124272Y0085877D01*
X0124380Y0086051D01*
X0124493Y0086223D01*
X0124610Y0086391D01*
X0124731Y0086557D01*
X0124855Y0086720D01*
X0124984Y0086880D01*
X0125117Y0087037D01*
X0125253Y0087190D01*
X0125393Y0087340D01*
X0125537Y0087487D01*
X0125684Y0087630D01*
X0125835Y0087770D01*
X0125989Y0087905D01*
X0126146Y0088037D01*
X0126306Y0088165D01*
X0126470Y0088290D01*
X0126636Y0088410D01*
X0126806Y0088526D01*
X0126978Y0088638D01*
X0127152Y0088746D01*
X0127330Y0088849D01*
X0127509Y0088948D01*
X0127692Y0089043D01*
X0127876Y0089133D01*
X0128062Y0089219D01*
X0128251Y0089300D01*
X0128441Y0089377D01*
X0128634Y0089449D01*
X0128828Y0089516D01*
X0129023Y0089579D01*
X0129220Y0089637D01*
X0129418Y0089690D01*
X0129618Y0089738D01*
X0129819Y0089781D01*
X0130020Y0089819D01*
X0130223Y0089853D01*
X0130426Y0089881D01*
X0130630Y0089905D01*
X0130835Y0089924D01*
X0131039Y0089937D01*
X0131244Y0089946D01*
X0131450Y0089950D01*
X0131450Y0089856D01*
X0131247Y0089852D01*
X0131044Y0089844D01*
X0130841Y0089830D01*
X0130639Y0089812D01*
X0130438Y0089788D01*
X0130237Y0089760D01*
X0130036Y0089727D01*
X0129837Y0089689D01*
X0129639Y0089646D01*
X0129441Y0089598D01*
X0129245Y0089546D01*
X0129050Y0089489D01*
X0128857Y0089427D01*
X0128665Y0089360D01*
X0128475Y0089289D01*
X0128287Y0089214D01*
X0128101Y0089133D01*
X0127916Y0089048D01*
X0127734Y0088959D01*
X0127554Y0088865D01*
X0127376Y0088767D01*
X0127201Y0088665D01*
X0127028Y0088559D01*
X0126858Y0088448D01*
X0126690Y0088333D01*
X0126526Y0088214D01*
X0126364Y0088091D01*
X0126206Y0087965D01*
X0126050Y0087834D01*
X0125898Y0087700D01*
X0125749Y0087562D01*
X0125603Y0087421D01*
X0125461Y0087276D01*
X0125323Y0087127D01*
X0125188Y0086976D01*
X0125057Y0086821D01*
X0124930Y0086663D01*
X0124806Y0086501D01*
X0124687Y0086337D01*
X0124571Y0086170D01*
X0124460Y0086001D01*
X0124352Y0085828D01*
X0124249Y0085653D01*
X0124151Y0085476D01*
X0124234Y0085432D01*
X0124331Y0085607D01*
X0124433Y0085780D01*
X0124539Y0085950D01*
X0124649Y0086118D01*
X0124763Y0086283D01*
X0124882Y0086445D01*
X0125004Y0086605D01*
X0125130Y0086761D01*
X0125259Y0086914D01*
X0125393Y0087064D01*
X0125529Y0087211D01*
X0125670Y0087354D01*
X0125814Y0087494D01*
X0125961Y0087630D01*
X0126112Y0087763D01*
X0126265Y0087892D01*
X0126422Y0088017D01*
X0126582Y0088139D01*
X0126745Y0088256D01*
X0126910Y0088370D01*
X0127078Y0088479D01*
X0127249Y0088585D01*
X0127422Y0088686D01*
X0127598Y0088783D01*
X0127776Y0088875D01*
X0127956Y0088963D01*
X0128139Y0089047D01*
X0128323Y0089127D01*
X0128509Y0089202D01*
X0128697Y0089272D01*
X0128887Y0089338D01*
X0129078Y0089399D01*
X0129270Y0089455D01*
X0129464Y0089507D01*
X0129659Y0089554D01*
X0129855Y0089597D01*
X0130053Y0089634D01*
X0130251Y0089667D01*
X0130449Y0089695D01*
X0130649Y0089718D01*
X0130848Y0089736D01*
X0131049Y0089750D01*
X0131249Y0089758D01*
X0131450Y0089762D01*
X0131450Y0089668D01*
X0131251Y0089664D01*
X0131053Y0089656D01*
X0130855Y0089643D01*
X0130658Y0089624D01*
X0130461Y0089602D01*
X0130264Y0089574D01*
X0130069Y0089542D01*
X0129874Y0089504D01*
X0129680Y0089463D01*
X0129487Y0089416D01*
X0129295Y0089365D01*
X0129105Y0089309D01*
X0128916Y0089249D01*
X0128729Y0089184D01*
X0128543Y0089114D01*
X0128359Y0089040D01*
X0128177Y0088961D01*
X0127997Y0088878D01*
X0127818Y0088791D01*
X0127642Y0088700D01*
X0127469Y0088604D01*
X0127297Y0088504D01*
X0127129Y0088400D01*
X0126962Y0088292D01*
X0126799Y0088179D01*
X0126638Y0088063D01*
X0126480Y0087943D01*
X0126325Y0087819D01*
X0126173Y0087692D01*
X0126024Y0087561D01*
X0125879Y0087426D01*
X0125736Y0087288D01*
X0125598Y0087146D01*
X0125462Y0087001D01*
X0125330Y0086853D01*
X0125202Y0086701D01*
X0125078Y0086547D01*
X0124957Y0086390D01*
X0124840Y0086229D01*
X0124727Y0086066D01*
X0124619Y0085900D01*
X0124514Y0085732D01*
X0124413Y0085561D01*
X0124317Y0085388D01*
X0124399Y0085343D01*
X0124495Y0085515D01*
X0124594Y0085684D01*
X0124698Y0085850D01*
X0124806Y0086014D01*
X0124917Y0086175D01*
X0125033Y0086334D01*
X0125152Y0086489D01*
X0125275Y0086642D01*
X0125402Y0086791D01*
X0125532Y0086938D01*
X0125666Y0087081D01*
X0125803Y0087221D01*
X0125944Y0087358D01*
X0126087Y0087491D01*
X0126234Y0087621D01*
X0126385Y0087747D01*
X0126538Y0087869D01*
X0126694Y0087988D01*
X0126853Y0088103D01*
X0127015Y0088213D01*
X0127179Y0088320D01*
X0127346Y0088423D01*
X0127515Y0088522D01*
X0127687Y0088617D01*
X0127861Y0088707D01*
X0128037Y0088794D01*
X0128215Y0088875D01*
X0128395Y0088953D01*
X0128577Y0089026D01*
X0128760Y0089095D01*
X0128946Y0089159D01*
X0129132Y0089219D01*
X0129320Y0089274D01*
X0129510Y0089325D01*
X0129700Y0089371D01*
X0129892Y0089412D01*
X0130085Y0089449D01*
X0130278Y0089481D01*
X0130472Y0089508D01*
X0130667Y0089531D01*
X0130862Y0089549D01*
X0131058Y0089562D01*
X0131254Y0089570D01*
X0131450Y0089574D01*
X0131450Y0089480D01*
X0131256Y0089476D01*
X0131062Y0089468D01*
X0130869Y0089455D01*
X0130676Y0089437D01*
X0130484Y0089415D01*
X0130292Y0089388D01*
X0130101Y0089356D01*
X0129910Y0089320D01*
X0129721Y0089279D01*
X0129533Y0089234D01*
X0129346Y0089184D01*
X0129160Y0089129D01*
X0128975Y0089070D01*
X0128792Y0089007D01*
X0128611Y0088939D01*
X0128431Y0088866D01*
X0128253Y0088790D01*
X0128077Y0088709D01*
X0127903Y0088623D01*
X0127731Y0088534D01*
X0127561Y0088440D01*
X0127394Y0088343D01*
X0127229Y0088241D01*
X0127067Y0088135D01*
X0126907Y0088026D01*
X0126750Y0087912D01*
X0126596Y0087795D01*
X0126444Y0087674D01*
X0126296Y0087550D01*
X0126151Y0087422D01*
X0126008Y0087290D01*
X0125869Y0087155D01*
X0125734Y0087017D01*
X0125602Y0086875D01*
X0125473Y0086730D01*
X0125348Y0086582D01*
X0125226Y0086431D01*
X0125108Y0086278D01*
X0124994Y0086121D01*
X0124884Y0085962D01*
X0124778Y0085800D01*
X0124675Y0085635D01*
X0124577Y0085468D01*
X0124482Y0085299D01*
X0124565Y0085255D01*
X0124659Y0085422D01*
X0124756Y0085587D01*
X0124857Y0085750D01*
X0124962Y0085910D01*
X0125071Y0086067D01*
X0125184Y0086222D01*
X0125300Y0086374D01*
X0125420Y0086523D01*
X0125544Y0086669D01*
X0125671Y0086812D01*
X0125802Y0086952D01*
X0125936Y0087088D01*
X0126073Y0087222D01*
X0126214Y0087352D01*
X0126357Y0087479D01*
X0126504Y0087602D01*
X0126654Y0087721D01*
X0126806Y0087837D01*
X0126961Y0087949D01*
X0127119Y0088057D01*
X0127280Y0088162D01*
X0127443Y0088262D01*
X0127608Y0088359D01*
X0127775Y0088451D01*
X0127945Y0088539D01*
X0128117Y0088624D01*
X0128291Y0088704D01*
X0128467Y0088779D01*
X0128645Y0088851D01*
X0128824Y0088918D01*
X0129005Y0088981D01*
X0129187Y0089039D01*
X0129371Y0089093D01*
X0129556Y0089143D01*
X0129742Y0089187D01*
X0129929Y0089228D01*
X0130117Y0089264D01*
X0130306Y0089295D01*
X0130495Y0089322D01*
X0130685Y0089344D01*
X0130876Y0089361D01*
X0131067Y0089374D01*
X0131258Y0089382D01*
X0131450Y0089386D01*
X0131450Y0089292D01*
X0131261Y0089288D01*
X0131072Y0089280D01*
X0130883Y0089268D01*
X0130695Y0089250D01*
X0130507Y0089228D01*
X0130320Y0089202D01*
X0130133Y0089171D01*
X0129947Y0089136D01*
X0129762Y0089096D01*
X0129578Y0089051D01*
X0129396Y0089002D01*
X0129214Y0088949D01*
X0129034Y0088892D01*
X0128856Y0088830D01*
X0128678Y0088763D01*
X0128503Y0088693D01*
X0128329Y0088618D01*
X0128157Y0088539D01*
X0127988Y0088455D01*
X0127820Y0088368D01*
X0127654Y0088277D01*
X0127491Y0088181D01*
X0127330Y0088082D01*
X0127171Y0087979D01*
X0127015Y0087872D01*
X0126862Y0087761D01*
X0126711Y0087647D01*
X0126564Y0087529D01*
X0126419Y0087407D01*
X0126277Y0087282D01*
X0126138Y0087154D01*
X0126003Y0087022D01*
X0125870Y0086887D01*
X0125741Y0086749D01*
X0125615Y0086607D01*
X0125493Y0086463D01*
X0125374Y0086316D01*
X0125259Y0086166D01*
X0125148Y0086013D01*
X0125040Y0085857D01*
X0124936Y0085699D01*
X0124836Y0085539D01*
X0124740Y0085376D01*
X0124648Y0085211D01*
X0124731Y0085166D01*
X0124822Y0085330D01*
X0124917Y0085491D01*
X0125016Y0085649D01*
X0125118Y0085805D01*
X0125225Y0085959D01*
X0125335Y0086110D01*
X0125449Y0086258D01*
X0125566Y0086404D01*
X0125687Y0086546D01*
X0125811Y0086686D01*
X0125938Y0086822D01*
X0126069Y0086956D01*
X0126203Y0087086D01*
X0126340Y0087213D01*
X0126480Y0087336D01*
X0126623Y0087456D01*
X0126769Y0087573D01*
X0126918Y0087686D01*
X0127070Y0087795D01*
X0127224Y0087901D01*
X0127380Y0088003D01*
X0127539Y0088101D01*
X0127701Y0088195D01*
X0127864Y0088285D01*
X0128030Y0088372D01*
X0128198Y0088454D01*
X0128367Y0088532D01*
X0128539Y0088606D01*
X0128712Y0088675D01*
X0128887Y0088741D01*
X0129064Y0088802D01*
X0129242Y0088859D01*
X0129421Y0088912D01*
X0129601Y0088960D01*
X0129783Y0089004D01*
X0129966Y0089044D01*
X0130149Y0089079D01*
X0130333Y0089109D01*
X0130518Y0089135D01*
X0130704Y0089157D01*
X0130890Y0089174D01*
X0131076Y0089186D01*
X0131263Y0089194D01*
X0131450Y0089198D01*
X0131450Y0089104D01*
X0131265Y0089100D01*
X0131081Y0089092D01*
X0130897Y0089080D01*
X0130713Y0089063D01*
X0130530Y0089042D01*
X0130347Y0089016D01*
X0130165Y0088986D01*
X0129984Y0088951D01*
X0129804Y0088912D01*
X0129624Y0088869D01*
X0129446Y0088821D01*
X0129269Y0088769D01*
X0129093Y0088713D01*
X0128919Y0088653D01*
X0128746Y0088588D01*
X0128575Y0088519D01*
X0128406Y0088446D01*
X0128238Y0088369D01*
X0128072Y0088288D01*
X0127909Y0088202D01*
X0127747Y0088113D01*
X0127588Y0088020D01*
X0127431Y0087923D01*
X0127276Y0087823D01*
X0127124Y0087718D01*
X0126974Y0087610D01*
X0126827Y0087499D01*
X0126683Y0087384D01*
X0126542Y0087265D01*
X0126403Y0087143D01*
X0126268Y0087018D01*
X0126136Y0086889D01*
X0126006Y0086757D01*
X0125880Y0086623D01*
X0125758Y0086485D01*
X0125639Y0086344D01*
X0125523Y0086200D01*
X0125410Y0086054D01*
X0125302Y0085905D01*
X0125197Y0085753D01*
X0125095Y0085599D01*
X0124998Y0085442D01*
X0124904Y0085283D01*
X0124814Y0085122D01*
X0137959Y0086948D02*
X0137267Y0086371D01*
X0137268Y0086372D02*
X0137149Y0086509D01*
X0137028Y0086643D01*
X0136903Y0086774D01*
X0136775Y0086902D01*
X0136644Y0087026D01*
X0136510Y0087148D01*
X0136373Y0087267D01*
X0136234Y0087382D01*
X0136091Y0087493D01*
X0135946Y0087602D01*
X0135799Y0087707D01*
X0135649Y0087808D01*
X0135497Y0087905D01*
X0135342Y0087999D01*
X0135185Y0088090D01*
X0135026Y0088176D01*
X0134865Y0088259D01*
X0134702Y0088337D01*
X0134537Y0088412D01*
X0134371Y0088483D01*
X0134203Y0088550D01*
X0134033Y0088612D01*
X0133862Y0088671D01*
X0133689Y0088726D01*
X0133516Y0088776D01*
X0133341Y0088822D01*
X0133165Y0088864D01*
X0132988Y0088902D01*
X0132810Y0088935D01*
X0132631Y0088965D01*
X0132452Y0088990D01*
X0132272Y0089010D01*
X0132092Y0089027D01*
X0131912Y0089039D01*
X0131731Y0089046D01*
X0131550Y0089050D01*
X0131549Y0089949D01*
X0131550Y0089950D01*
X0131753Y0089946D01*
X0131955Y0089938D01*
X0132158Y0089924D01*
X0132360Y0089906D01*
X0132561Y0089883D01*
X0132762Y0089855D01*
X0132962Y0089822D01*
X0133162Y0089785D01*
X0133360Y0089743D01*
X0133558Y0089696D01*
X0133754Y0089644D01*
X0133948Y0089587D01*
X0134142Y0089526D01*
X0134334Y0089461D01*
X0134524Y0089390D01*
X0134713Y0089315D01*
X0134899Y0089236D01*
X0135084Y0089152D01*
X0135267Y0089064D01*
X0135447Y0088971D01*
X0135625Y0088875D01*
X0135801Y0088773D01*
X0135974Y0088668D01*
X0136145Y0088559D01*
X0136313Y0088445D01*
X0136479Y0088328D01*
X0136641Y0088206D01*
X0136801Y0088081D01*
X0136957Y0087952D01*
X0137110Y0087819D01*
X0137260Y0087682D01*
X0137407Y0087542D01*
X0137550Y0087399D01*
X0137690Y0087252D01*
X0137827Y0087102D01*
X0137959Y0086948D01*
X0137887Y0086888D01*
X0137756Y0087040D01*
X0137621Y0087188D01*
X0137483Y0087333D01*
X0137341Y0087475D01*
X0137196Y0087614D01*
X0137048Y0087749D01*
X0136896Y0087880D01*
X0136741Y0088008D01*
X0136584Y0088132D01*
X0136423Y0088252D01*
X0136260Y0088368D01*
X0136093Y0088480D01*
X0135925Y0088588D01*
X0135753Y0088693D01*
X0135579Y0088793D01*
X0135403Y0088888D01*
X0135225Y0088980D01*
X0135044Y0089067D01*
X0134861Y0089150D01*
X0134677Y0089229D01*
X0134491Y0089303D01*
X0134302Y0089372D01*
X0134113Y0089437D01*
X0133921Y0089497D01*
X0133729Y0089553D01*
X0133535Y0089604D01*
X0133340Y0089651D01*
X0133144Y0089693D01*
X0132947Y0089730D01*
X0132749Y0089762D01*
X0132550Y0089790D01*
X0132351Y0089813D01*
X0132151Y0089831D01*
X0131951Y0089844D01*
X0131750Y0089852D01*
X0131550Y0089856D01*
X0131550Y0089762D01*
X0131748Y0089758D01*
X0131946Y0089750D01*
X0132144Y0089737D01*
X0132342Y0089719D01*
X0132539Y0089696D01*
X0132735Y0089669D01*
X0132931Y0089637D01*
X0133125Y0089601D01*
X0133319Y0089559D01*
X0133512Y0089513D01*
X0133704Y0089463D01*
X0133894Y0089407D01*
X0134083Y0089348D01*
X0134271Y0089283D01*
X0134457Y0089215D01*
X0134641Y0089142D01*
X0134824Y0089064D01*
X0135004Y0088982D01*
X0135183Y0088896D01*
X0135359Y0088805D01*
X0135533Y0088711D01*
X0135705Y0088612D01*
X0135875Y0088509D01*
X0136042Y0088402D01*
X0136206Y0088291D01*
X0136367Y0088176D01*
X0136526Y0088057D01*
X0136682Y0087935D01*
X0136835Y0087809D01*
X0136985Y0087679D01*
X0137132Y0087545D01*
X0137275Y0087408D01*
X0137415Y0087268D01*
X0137552Y0087125D01*
X0137685Y0086978D01*
X0137815Y0086828D01*
X0137743Y0086768D01*
X0137614Y0086916D01*
X0137483Y0087061D01*
X0137348Y0087203D01*
X0137209Y0087341D01*
X0137067Y0087477D01*
X0136922Y0087609D01*
X0136774Y0087737D01*
X0136623Y0087862D01*
X0136469Y0087983D01*
X0136312Y0088100D01*
X0136152Y0088214D01*
X0135990Y0088323D01*
X0135825Y0088429D01*
X0135657Y0088531D01*
X0135487Y0088629D01*
X0135315Y0088722D01*
X0135141Y0088812D01*
X0134964Y0088897D01*
X0134786Y0088978D01*
X0134606Y0089055D01*
X0134423Y0089127D01*
X0134240Y0089195D01*
X0134054Y0089258D01*
X0133867Y0089317D01*
X0133679Y0089372D01*
X0133490Y0089422D01*
X0133299Y0089467D01*
X0133107Y0089508D01*
X0132915Y0089545D01*
X0132721Y0089576D01*
X0132527Y0089603D01*
X0132332Y0089625D01*
X0132137Y0089643D01*
X0131942Y0089656D01*
X0131746Y0089664D01*
X0131550Y0089668D01*
X0131550Y0089574D01*
X0131744Y0089570D01*
X0131937Y0089562D01*
X0132130Y0089549D01*
X0132323Y0089532D01*
X0132516Y0089510D01*
X0132708Y0089483D01*
X0132899Y0089452D01*
X0133089Y0089416D01*
X0133279Y0089376D01*
X0133467Y0089331D01*
X0133654Y0089281D01*
X0133840Y0089227D01*
X0134025Y0089169D01*
X0134208Y0089106D01*
X0134390Y0089039D01*
X0134570Y0088968D01*
X0134748Y0088892D01*
X0134925Y0088812D01*
X0135099Y0088728D01*
X0135271Y0088639D01*
X0135441Y0088547D01*
X0135609Y0088450D01*
X0135775Y0088349D01*
X0135938Y0088245D01*
X0136098Y0088137D01*
X0136256Y0088024D01*
X0136411Y0087908D01*
X0136564Y0087789D01*
X0136713Y0087665D01*
X0136860Y0087539D01*
X0137003Y0087408D01*
X0137143Y0087275D01*
X0137280Y0087138D01*
X0137413Y0086997D01*
X0137544Y0086854D01*
X0137670Y0086707D01*
X0137598Y0086647D01*
X0137473Y0086792D01*
X0137344Y0086934D01*
X0137212Y0087072D01*
X0137077Y0087208D01*
X0136938Y0087340D01*
X0136797Y0087469D01*
X0136652Y0087594D01*
X0136505Y0087716D01*
X0136354Y0087834D01*
X0136201Y0087949D01*
X0136045Y0088059D01*
X0135886Y0088167D01*
X0135725Y0088270D01*
X0135561Y0088369D01*
X0135395Y0088465D01*
X0135227Y0088556D01*
X0135057Y0088643D01*
X0134885Y0088727D01*
X0134710Y0088806D01*
X0134534Y0088881D01*
X0134356Y0088951D01*
X0134177Y0089018D01*
X0133996Y0089080D01*
X0133813Y0089137D01*
X0133629Y0089191D01*
X0133444Y0089240D01*
X0133258Y0089284D01*
X0133071Y0089324D01*
X0132883Y0089359D01*
X0132694Y0089390D01*
X0132504Y0089417D01*
X0132314Y0089438D01*
X0132124Y0089456D01*
X0131933Y0089468D01*
X0131741Y0089476D01*
X0131550Y0089480D01*
X0131550Y0089386D01*
X0131739Y0089382D01*
X0131928Y0089374D01*
X0132117Y0089362D01*
X0132305Y0089345D01*
X0132493Y0089323D01*
X0132680Y0089297D01*
X0132867Y0089267D01*
X0133053Y0089232D01*
X0133238Y0089192D01*
X0133422Y0089148D01*
X0133604Y0089100D01*
X0133786Y0089047D01*
X0133966Y0088990D01*
X0134145Y0088929D01*
X0134323Y0088863D01*
X0134499Y0088794D01*
X0134673Y0088720D01*
X0134845Y0088642D01*
X0135015Y0088559D01*
X0135183Y0088473D01*
X0135349Y0088383D01*
X0135513Y0088288D01*
X0135675Y0088190D01*
X0135834Y0088088D01*
X0135991Y0087982D01*
X0136145Y0087873D01*
X0136297Y0087759D01*
X0136445Y0087643D01*
X0136591Y0087522D01*
X0136734Y0087399D01*
X0136874Y0087271D01*
X0137011Y0087141D01*
X0137145Y0087007D01*
X0137275Y0086870D01*
X0137402Y0086730D01*
X0137526Y0086587D01*
X0137454Y0086527D01*
X0137331Y0086668D01*
X0137206Y0086806D01*
X0137077Y0086942D01*
X0136945Y0087074D01*
X0136810Y0087203D01*
X0136671Y0087328D01*
X0136530Y0087451D01*
X0136386Y0087570D01*
X0136239Y0087685D01*
X0136090Y0087797D01*
X0135937Y0087905D01*
X0135782Y0088010D01*
X0135625Y0088110D01*
X0135465Y0088207D01*
X0135304Y0088301D01*
X0135139Y0088390D01*
X0134973Y0088475D01*
X0134805Y0088556D01*
X0134635Y0088634D01*
X0134463Y0088707D01*
X0134289Y0088776D01*
X0134114Y0088840D01*
X0133937Y0088901D01*
X0133759Y0088957D01*
X0133580Y0089009D01*
X0133399Y0089057D01*
X0133217Y0089100D01*
X0133035Y0089139D01*
X0132851Y0089174D01*
X0132667Y0089204D01*
X0132482Y0089230D01*
X0132296Y0089251D01*
X0132110Y0089268D01*
X0131923Y0089280D01*
X0131737Y0089288D01*
X0131550Y0089292D01*
X0131550Y0089198D01*
X0131734Y0089194D01*
X0131919Y0089187D01*
X0132103Y0089174D01*
X0132287Y0089158D01*
X0132470Y0089137D01*
X0132653Y0089111D01*
X0132835Y0089081D01*
X0133016Y0089047D01*
X0133197Y0089009D01*
X0133376Y0088966D01*
X0133555Y0088919D01*
X0133732Y0088867D01*
X0133908Y0088812D01*
X0134083Y0088752D01*
X0134256Y0088688D01*
X0134427Y0088620D01*
X0134597Y0088548D01*
X0134765Y0088471D01*
X0134931Y0088391D01*
X0135095Y0088307D01*
X0135258Y0088219D01*
X0135418Y0088127D01*
X0135575Y0088031D01*
X0135731Y0087931D01*
X0135884Y0087828D01*
X0136034Y0087721D01*
X0136182Y0087611D01*
X0136327Y0087497D01*
X0136469Y0087379D01*
X0136609Y0087258D01*
X0136745Y0087134D01*
X0136879Y0087007D01*
X0137009Y0086876D01*
X0137137Y0086743D01*
X0137261Y0086606D01*
X0137381Y0086467D01*
X0137309Y0086406D01*
X0137190Y0086544D01*
X0137067Y0086679D01*
X0136942Y0086811D01*
X0136813Y0086940D01*
X0136681Y0087066D01*
X0136546Y0087188D01*
X0136408Y0087308D01*
X0136268Y0087424D01*
X0136124Y0087536D01*
X0135978Y0087645D01*
X0135830Y0087751D01*
X0135679Y0087853D01*
X0135525Y0087951D01*
X0135370Y0088046D01*
X0135212Y0088137D01*
X0135051Y0088224D01*
X0134889Y0088307D01*
X0134725Y0088386D01*
X0134559Y0088461D01*
X0134391Y0088533D01*
X0134222Y0088600D01*
X0134051Y0088663D01*
X0133879Y0088722D01*
X0133705Y0088777D01*
X0133530Y0088828D01*
X0133354Y0088875D01*
X0133176Y0088917D01*
X0132998Y0088955D01*
X0132819Y0088989D01*
X0132639Y0089018D01*
X0132459Y0089043D01*
X0132278Y0089064D01*
X0132096Y0089081D01*
X0131914Y0089093D01*
X0131732Y0089100D01*
X0131550Y0089104D01*
X0131549Y0073051D02*
X0131549Y0073951D01*
X0131550Y0073950D02*
X0131734Y0073954D01*
X0131919Y0073962D01*
X0132103Y0073974D01*
X0132286Y0073991D01*
X0132470Y0074013D01*
X0132652Y0074038D01*
X0132834Y0074069D01*
X0133015Y0074104D01*
X0133196Y0074143D01*
X0133375Y0074187D01*
X0133553Y0074235D01*
X0133730Y0074287D01*
X0133906Y0074344D01*
X0134080Y0074404D01*
X0134252Y0074470D01*
X0134423Y0074539D01*
X0134593Y0074612D01*
X0134760Y0074690D01*
X0134925Y0074772D01*
X0135089Y0074857D01*
X0135250Y0074947D01*
X0135409Y0075041D01*
X0135566Y0075138D01*
X0135720Y0075239D01*
X0135872Y0075344D01*
X0136021Y0075453D01*
X0136167Y0075565D01*
X0136311Y0075681D01*
X0136451Y0075800D01*
X0136589Y0075923D01*
X0136724Y0076049D01*
X0136856Y0076178D01*
X0136984Y0076311D01*
X0137109Y0076446D01*
X0137231Y0076585D01*
X0137918Y0076004D01*
X0137782Y0075848D01*
X0137641Y0075696D01*
X0137497Y0075547D01*
X0137350Y0075402D01*
X0137199Y0075261D01*
X0137045Y0075124D01*
X0136887Y0074990D01*
X0136726Y0074860D01*
X0136562Y0074734D01*
X0136395Y0074612D01*
X0136225Y0074494D01*
X0136052Y0074381D01*
X0135876Y0074272D01*
X0135698Y0074167D01*
X0135517Y0074066D01*
X0135334Y0073970D01*
X0135149Y0073878D01*
X0134961Y0073791D01*
X0134771Y0073709D01*
X0134580Y0073631D01*
X0134386Y0073558D01*
X0134191Y0073490D01*
X0133994Y0073426D01*
X0133796Y0073368D01*
X0133596Y0073314D01*
X0133395Y0073265D01*
X0133193Y0073221D01*
X0132990Y0073182D01*
X0132786Y0073148D01*
X0132581Y0073119D01*
X0132376Y0073095D01*
X0132170Y0073077D01*
X0131963Y0073063D01*
X0131757Y0073054D01*
X0131550Y0073050D01*
X0131550Y0073144D01*
X0131754Y0073148D01*
X0131959Y0073157D01*
X0132163Y0073170D01*
X0132366Y0073189D01*
X0132569Y0073213D01*
X0132772Y0073241D01*
X0132974Y0073275D01*
X0133174Y0073313D01*
X0133374Y0073357D01*
X0133573Y0073405D01*
X0133770Y0073458D01*
X0133967Y0073516D01*
X0134161Y0073579D01*
X0134354Y0073647D01*
X0134546Y0073719D01*
X0134735Y0073796D01*
X0134923Y0073877D01*
X0135108Y0073963D01*
X0135291Y0074054D01*
X0135473Y0074149D01*
X0135651Y0074248D01*
X0135827Y0074352D01*
X0136001Y0074460D01*
X0136172Y0074572D01*
X0136340Y0074689D01*
X0136505Y0074809D01*
X0136668Y0074934D01*
X0136827Y0075062D01*
X0136983Y0075194D01*
X0137135Y0075330D01*
X0137285Y0075470D01*
X0137430Y0075613D01*
X0137573Y0075760D01*
X0137711Y0075911D01*
X0137846Y0076064D01*
X0137775Y0076125D01*
X0137641Y0075973D01*
X0137504Y0075824D01*
X0137363Y0075679D01*
X0137219Y0075538D01*
X0137072Y0075399D01*
X0136921Y0075265D01*
X0136767Y0075134D01*
X0136609Y0075007D01*
X0136449Y0074884D01*
X0136285Y0074765D01*
X0136119Y0074650D01*
X0135950Y0074539D01*
X0135779Y0074432D01*
X0135604Y0074330D01*
X0135428Y0074231D01*
X0135249Y0074137D01*
X0135067Y0074048D01*
X0134884Y0073963D01*
X0134699Y0073882D01*
X0134511Y0073806D01*
X0134322Y0073735D01*
X0134131Y0073668D01*
X0133939Y0073606D01*
X0133745Y0073549D01*
X0133550Y0073496D01*
X0133353Y0073449D01*
X0133156Y0073406D01*
X0132957Y0073368D01*
X0132758Y0073334D01*
X0132558Y0073306D01*
X0132357Y0073283D01*
X0132156Y0073264D01*
X0131954Y0073250D01*
X0131752Y0073242D01*
X0131550Y0073238D01*
X0131550Y0073332D01*
X0131750Y0073336D01*
X0131949Y0073344D01*
X0132149Y0073358D01*
X0132348Y0073376D01*
X0132546Y0073399D01*
X0132744Y0073427D01*
X0132941Y0073460D01*
X0133137Y0073498D01*
X0133333Y0073540D01*
X0133527Y0073587D01*
X0133720Y0073639D01*
X0133911Y0073696D01*
X0134102Y0073757D01*
X0134290Y0073823D01*
X0134477Y0073894D01*
X0134662Y0073969D01*
X0134846Y0074049D01*
X0135027Y0074133D01*
X0135206Y0074221D01*
X0135383Y0074314D01*
X0135558Y0074411D01*
X0135730Y0074513D01*
X0135899Y0074618D01*
X0136067Y0074728D01*
X0136231Y0074842D01*
X0136392Y0074959D01*
X0136551Y0075081D01*
X0136706Y0075206D01*
X0136859Y0075336D01*
X0137008Y0075469D01*
X0137154Y0075605D01*
X0137296Y0075745D01*
X0137435Y0075889D01*
X0137571Y0076036D01*
X0137703Y0076186D01*
X0137631Y0076246D01*
X0137501Y0076098D01*
X0137367Y0075953D01*
X0137229Y0075811D01*
X0137088Y0075673D01*
X0136944Y0075538D01*
X0136797Y0075406D01*
X0136646Y0075279D01*
X0136492Y0075155D01*
X0136336Y0075034D01*
X0136176Y0074918D01*
X0136014Y0074806D01*
X0135849Y0074697D01*
X0135681Y0074593D01*
X0135511Y0074493D01*
X0135338Y0074397D01*
X0135163Y0074305D01*
X0134986Y0074217D01*
X0134807Y0074134D01*
X0134626Y0074056D01*
X0134443Y0073981D01*
X0134258Y0073912D01*
X0134072Y0073847D01*
X0133884Y0073786D01*
X0133694Y0073730D01*
X0133504Y0073679D01*
X0133312Y0073632D01*
X0133119Y0073590D01*
X0132925Y0073553D01*
X0132730Y0073520D01*
X0132534Y0073493D01*
X0132338Y0073470D01*
X0132142Y0073452D01*
X0131945Y0073438D01*
X0131747Y0073430D01*
X0131550Y0073426D01*
X0131550Y0073520D01*
X0131745Y0073524D01*
X0131940Y0073532D01*
X0132135Y0073545D01*
X0132329Y0073563D01*
X0132523Y0073586D01*
X0132716Y0073613D01*
X0132909Y0073645D01*
X0133100Y0073682D01*
X0133291Y0073724D01*
X0133481Y0073770D01*
X0133669Y0073820D01*
X0133856Y0073876D01*
X0134042Y0073936D01*
X0134226Y0074000D01*
X0134409Y0074069D01*
X0134590Y0074142D01*
X0134769Y0074220D01*
X0134946Y0074302D01*
X0135121Y0074389D01*
X0135293Y0074479D01*
X0135464Y0074574D01*
X0135632Y0074673D01*
X0135798Y0074776D01*
X0135961Y0074883D01*
X0136122Y0074994D01*
X0136279Y0075109D01*
X0136434Y0075228D01*
X0136586Y0075351D01*
X0136735Y0075477D01*
X0136881Y0075607D01*
X0137023Y0075740D01*
X0137162Y0075877D01*
X0137298Y0076017D01*
X0137430Y0076161D01*
X0137559Y0076307D01*
X0137487Y0076368D01*
X0137360Y0076223D01*
X0137229Y0076081D01*
X0137095Y0075943D01*
X0136958Y0075808D01*
X0136817Y0075676D01*
X0136673Y0075548D01*
X0136526Y0075423D01*
X0136376Y0075302D01*
X0136223Y0075185D01*
X0136067Y0075071D01*
X0135908Y0074961D01*
X0135747Y0074855D01*
X0135583Y0074754D01*
X0135417Y0074656D01*
X0135249Y0074562D01*
X0135078Y0074472D01*
X0134905Y0074387D01*
X0134730Y0074306D01*
X0134553Y0074229D01*
X0134375Y0074157D01*
X0134194Y0074088D01*
X0134012Y0074025D01*
X0133829Y0073966D01*
X0133644Y0073911D01*
X0133458Y0073861D01*
X0133270Y0073815D01*
X0133082Y0073774D01*
X0132892Y0073738D01*
X0132702Y0073706D01*
X0132511Y0073679D01*
X0132320Y0073657D01*
X0132128Y0073639D01*
X0131935Y0073626D01*
X0131743Y0073618D01*
X0131550Y0073614D01*
X0131550Y0073708D01*
X0131740Y0073712D01*
X0131931Y0073720D01*
X0132121Y0073733D01*
X0132310Y0073750D01*
X0132500Y0073772D01*
X0132688Y0073799D01*
X0132876Y0073830D01*
X0133063Y0073866D01*
X0133249Y0073907D01*
X0133434Y0073952D01*
X0133618Y0074001D01*
X0133801Y0074056D01*
X0133982Y0074114D01*
X0134162Y0074177D01*
X0134340Y0074244D01*
X0134517Y0074316D01*
X0134692Y0074392D01*
X0134864Y0074472D01*
X0135035Y0074556D01*
X0135204Y0074645D01*
X0135370Y0074737D01*
X0135535Y0074834D01*
X0135696Y0074934D01*
X0135856Y0075039D01*
X0136012Y0075147D01*
X0136166Y0075260D01*
X0136317Y0075376D01*
X0136466Y0075495D01*
X0136611Y0075618D01*
X0136753Y0075745D01*
X0136892Y0075875D01*
X0137028Y0076009D01*
X0137161Y0076145D01*
X0137290Y0076285D01*
X0137416Y0076429D01*
X0137344Y0076489D01*
X0137220Y0076348D01*
X0137092Y0076210D01*
X0136961Y0076075D01*
X0136827Y0075943D01*
X0136690Y0075814D01*
X0136549Y0075689D01*
X0136405Y0075567D01*
X0136259Y0075449D01*
X0136110Y0075335D01*
X0135958Y0075224D01*
X0135803Y0075117D01*
X0135646Y0075014D01*
X0135486Y0074914D01*
X0135324Y0074819D01*
X0135159Y0074727D01*
X0134993Y0074640D01*
X0134824Y0074557D01*
X0134653Y0074477D01*
X0134481Y0074402D01*
X0134306Y0074332D01*
X0134130Y0074265D01*
X0133953Y0074203D01*
X0133773Y0074145D01*
X0133593Y0074092D01*
X0133411Y0074043D01*
X0133229Y0073999D01*
X0133045Y0073959D01*
X0132860Y0073923D01*
X0132674Y0073892D01*
X0132488Y0073866D01*
X0132301Y0073844D01*
X0132114Y0073827D01*
X0131926Y0073814D01*
X0131738Y0073806D01*
X0131550Y0073802D01*
X0131550Y0073896D01*
X0131736Y0073900D01*
X0131921Y0073908D01*
X0132107Y0073920D01*
X0132292Y0073937D01*
X0132476Y0073959D01*
X0132660Y0073985D01*
X0132844Y0074016D01*
X0133026Y0074051D01*
X0133208Y0074090D01*
X0133388Y0074134D01*
X0133568Y0074183D01*
X0133746Y0074235D01*
X0133923Y0074292D01*
X0134098Y0074354D01*
X0134272Y0074419D01*
X0134444Y0074489D01*
X0134615Y0074563D01*
X0134783Y0074641D01*
X0134950Y0074724D01*
X0135114Y0074810D01*
X0135277Y0074900D01*
X0135437Y0074995D01*
X0135595Y0075093D01*
X0135750Y0075195D01*
X0135903Y0075300D01*
X0136053Y0075410D01*
X0136201Y0075523D01*
X0136345Y0075640D01*
X0136487Y0075760D01*
X0136626Y0075883D01*
X0136762Y0076010D01*
X0136894Y0076140D01*
X0137023Y0076274D01*
X0137150Y0076410D01*
X0137272Y0076550D01*
D18*
X0137700Y0076400D02*
X0137700Y0078200D01*
X0137700Y0084600D02*
X0137700Y0086600D01*
D19*
X0038677Y0142122D02*
X0038679Y0142161D01*
X0038685Y0142200D01*
X0038695Y0142238D01*
X0038708Y0142275D01*
X0038725Y0142310D01*
X0038745Y0142344D01*
X0038769Y0142375D01*
X0038796Y0142404D01*
X0038825Y0142430D01*
X0038857Y0142453D01*
X0038891Y0142473D01*
X0038927Y0142489D01*
X0038964Y0142501D01*
X0039003Y0142510D01*
X0039042Y0142515D01*
X0039081Y0142516D01*
X0039120Y0142513D01*
X0039159Y0142506D01*
X0039196Y0142495D01*
X0039233Y0142481D01*
X0039268Y0142463D01*
X0039301Y0142442D01*
X0039332Y0142417D01*
X0039360Y0142390D01*
X0039385Y0142360D01*
X0039407Y0142327D01*
X0039426Y0142293D01*
X0039441Y0142257D01*
X0039453Y0142219D01*
X0039461Y0142181D01*
X0039465Y0142142D01*
X0039465Y0142102D01*
X0039461Y0142063D01*
X0039453Y0142025D01*
X0039441Y0141987D01*
X0039426Y0141951D01*
X0039407Y0141917D01*
X0039385Y0141884D01*
X0039360Y0141854D01*
X0039332Y0141827D01*
X0039301Y0141802D01*
X0039268Y0141781D01*
X0039233Y0141763D01*
X0039196Y0141749D01*
X0039159Y0141738D01*
X0039120Y0141731D01*
X0039081Y0141728D01*
X0039042Y0141729D01*
X0039003Y0141734D01*
X0038964Y0141743D01*
X0038927Y0141755D01*
X0038891Y0141771D01*
X0038857Y0141791D01*
X0038825Y0141814D01*
X0038796Y0141840D01*
X0038769Y0141869D01*
X0038745Y0141900D01*
X0038725Y0141934D01*
X0038708Y0141969D01*
X0038695Y0142006D01*
X0038685Y0142044D01*
X0038679Y0142083D01*
X0038677Y0142122D01*
M02*
