G75*
%MOIN*%
%OFA0B0*%
%FSLAX25Y25*%
%IPPOS*%
%LPD*%
%AMOC8*
5,1,8,0,0,1.08239X$1,22.5*
%
%ADD10C,0.00000*%
%ADD11C,0.07400*%
%ADD12C,0.05898*%
%ADD13R,0.05898X0.05898*%
%ADD14R,0.09843X0.13780*%
%ADD15R,0.05200X0.05200*%
%ADD16C,0.05200*%
%ADD17R,0.19685X0.19685*%
%ADD18R,0.07874X0.03543*%
%ADD19R,0.03543X0.07874*%
%ADD20C,0.01000*%
%ADD21C,0.03962*%
%ADD22C,0.02000*%
D10*
X0001500Y0001500D02*
X0001500Y0175201D01*
X0156421Y0175201D01*
X0156421Y0001500D01*
X0001500Y0001500D01*
X0005595Y0011500D02*
X0005597Y0011653D01*
X0005603Y0011806D01*
X0005613Y0011959D01*
X0005627Y0012112D01*
X0005645Y0012264D01*
X0005667Y0012416D01*
X0005692Y0012567D01*
X0005722Y0012718D01*
X0005755Y0012867D01*
X0005793Y0013016D01*
X0005834Y0013164D01*
X0005879Y0013310D01*
X0005928Y0013455D01*
X0005981Y0013599D01*
X0006037Y0013742D01*
X0006097Y0013883D01*
X0006161Y0014023D01*
X0006228Y0014160D01*
X0006299Y0014296D01*
X0006373Y0014430D01*
X0006451Y0014562D01*
X0006532Y0014692D01*
X0006617Y0014820D01*
X0006705Y0014946D01*
X0006796Y0015069D01*
X0006890Y0015190D01*
X0006987Y0015309D01*
X0007088Y0015425D01*
X0007191Y0015538D01*
X0007298Y0015648D01*
X0007407Y0015756D01*
X0007518Y0015861D01*
X0007633Y0015963D01*
X0007750Y0016062D01*
X0007870Y0016157D01*
X0007992Y0016250D01*
X0008117Y0016340D01*
X0008243Y0016426D01*
X0008372Y0016509D01*
X0008503Y0016588D01*
X0008636Y0016664D01*
X0008771Y0016737D01*
X0008908Y0016806D01*
X0009047Y0016871D01*
X0009187Y0016933D01*
X0009329Y0016991D01*
X0009472Y0017046D01*
X0009617Y0017097D01*
X0009763Y0017144D01*
X0009910Y0017187D01*
X0010058Y0017226D01*
X0010207Y0017262D01*
X0010357Y0017293D01*
X0010508Y0017321D01*
X0010660Y0017345D01*
X0010812Y0017365D01*
X0010964Y0017381D01*
X0011117Y0017393D01*
X0011270Y0017401D01*
X0011423Y0017405D01*
X0011577Y0017405D01*
X0011730Y0017401D01*
X0011883Y0017393D01*
X0012036Y0017381D01*
X0012188Y0017365D01*
X0012340Y0017345D01*
X0012492Y0017321D01*
X0012643Y0017293D01*
X0012793Y0017262D01*
X0012942Y0017226D01*
X0013090Y0017187D01*
X0013237Y0017144D01*
X0013383Y0017097D01*
X0013528Y0017046D01*
X0013671Y0016991D01*
X0013813Y0016933D01*
X0013953Y0016871D01*
X0014092Y0016806D01*
X0014229Y0016737D01*
X0014364Y0016664D01*
X0014497Y0016588D01*
X0014628Y0016509D01*
X0014757Y0016426D01*
X0014883Y0016340D01*
X0015008Y0016250D01*
X0015130Y0016157D01*
X0015250Y0016062D01*
X0015367Y0015963D01*
X0015482Y0015861D01*
X0015593Y0015756D01*
X0015702Y0015648D01*
X0015809Y0015538D01*
X0015912Y0015425D01*
X0016013Y0015309D01*
X0016110Y0015190D01*
X0016204Y0015069D01*
X0016295Y0014946D01*
X0016383Y0014820D01*
X0016468Y0014692D01*
X0016549Y0014562D01*
X0016627Y0014430D01*
X0016701Y0014296D01*
X0016772Y0014160D01*
X0016839Y0014023D01*
X0016903Y0013883D01*
X0016963Y0013742D01*
X0017019Y0013599D01*
X0017072Y0013455D01*
X0017121Y0013310D01*
X0017166Y0013164D01*
X0017207Y0013016D01*
X0017245Y0012867D01*
X0017278Y0012718D01*
X0017308Y0012567D01*
X0017333Y0012416D01*
X0017355Y0012264D01*
X0017373Y0012112D01*
X0017387Y0011959D01*
X0017397Y0011806D01*
X0017403Y0011653D01*
X0017405Y0011500D01*
X0017403Y0011347D01*
X0017397Y0011194D01*
X0017387Y0011041D01*
X0017373Y0010888D01*
X0017355Y0010736D01*
X0017333Y0010584D01*
X0017308Y0010433D01*
X0017278Y0010282D01*
X0017245Y0010133D01*
X0017207Y0009984D01*
X0017166Y0009836D01*
X0017121Y0009690D01*
X0017072Y0009545D01*
X0017019Y0009401D01*
X0016963Y0009258D01*
X0016903Y0009117D01*
X0016839Y0008977D01*
X0016772Y0008840D01*
X0016701Y0008704D01*
X0016627Y0008570D01*
X0016549Y0008438D01*
X0016468Y0008308D01*
X0016383Y0008180D01*
X0016295Y0008054D01*
X0016204Y0007931D01*
X0016110Y0007810D01*
X0016013Y0007691D01*
X0015912Y0007575D01*
X0015809Y0007462D01*
X0015702Y0007352D01*
X0015593Y0007244D01*
X0015482Y0007139D01*
X0015367Y0007037D01*
X0015250Y0006938D01*
X0015130Y0006843D01*
X0015008Y0006750D01*
X0014883Y0006660D01*
X0014757Y0006574D01*
X0014628Y0006491D01*
X0014497Y0006412D01*
X0014364Y0006336D01*
X0014229Y0006263D01*
X0014092Y0006194D01*
X0013953Y0006129D01*
X0013813Y0006067D01*
X0013671Y0006009D01*
X0013528Y0005954D01*
X0013383Y0005903D01*
X0013237Y0005856D01*
X0013090Y0005813D01*
X0012942Y0005774D01*
X0012793Y0005738D01*
X0012643Y0005707D01*
X0012492Y0005679D01*
X0012340Y0005655D01*
X0012188Y0005635D01*
X0012036Y0005619D01*
X0011883Y0005607D01*
X0011730Y0005599D01*
X0011577Y0005595D01*
X0011423Y0005595D01*
X0011270Y0005599D01*
X0011117Y0005607D01*
X0010964Y0005619D01*
X0010812Y0005635D01*
X0010660Y0005655D01*
X0010508Y0005679D01*
X0010357Y0005707D01*
X0010207Y0005738D01*
X0010058Y0005774D01*
X0009910Y0005813D01*
X0009763Y0005856D01*
X0009617Y0005903D01*
X0009472Y0005954D01*
X0009329Y0006009D01*
X0009187Y0006067D01*
X0009047Y0006129D01*
X0008908Y0006194D01*
X0008771Y0006263D01*
X0008636Y0006336D01*
X0008503Y0006412D01*
X0008372Y0006491D01*
X0008243Y0006574D01*
X0008117Y0006660D01*
X0007992Y0006750D01*
X0007870Y0006843D01*
X0007750Y0006938D01*
X0007633Y0007037D01*
X0007518Y0007139D01*
X0007407Y0007244D01*
X0007298Y0007352D01*
X0007191Y0007462D01*
X0007088Y0007575D01*
X0006987Y0007691D01*
X0006890Y0007810D01*
X0006796Y0007931D01*
X0006705Y0008054D01*
X0006617Y0008180D01*
X0006532Y0008308D01*
X0006451Y0008438D01*
X0006373Y0008570D01*
X0006299Y0008704D01*
X0006228Y0008840D01*
X0006161Y0008977D01*
X0006097Y0009117D01*
X0006037Y0009258D01*
X0005981Y0009401D01*
X0005928Y0009545D01*
X0005879Y0009690D01*
X0005834Y0009836D01*
X0005793Y0009984D01*
X0005755Y0010133D01*
X0005722Y0010282D01*
X0005692Y0010433D01*
X0005667Y0010584D01*
X0005645Y0010736D01*
X0005627Y0010888D01*
X0005613Y0011041D01*
X0005603Y0011194D01*
X0005597Y0011347D01*
X0005595Y0011500D01*
X0005595Y0166500D02*
X0005597Y0166653D01*
X0005603Y0166806D01*
X0005613Y0166959D01*
X0005627Y0167112D01*
X0005645Y0167264D01*
X0005667Y0167416D01*
X0005692Y0167567D01*
X0005722Y0167718D01*
X0005755Y0167867D01*
X0005793Y0168016D01*
X0005834Y0168164D01*
X0005879Y0168310D01*
X0005928Y0168455D01*
X0005981Y0168599D01*
X0006037Y0168742D01*
X0006097Y0168883D01*
X0006161Y0169023D01*
X0006228Y0169160D01*
X0006299Y0169296D01*
X0006373Y0169430D01*
X0006451Y0169562D01*
X0006532Y0169692D01*
X0006617Y0169820D01*
X0006705Y0169946D01*
X0006796Y0170069D01*
X0006890Y0170190D01*
X0006987Y0170309D01*
X0007088Y0170425D01*
X0007191Y0170538D01*
X0007298Y0170648D01*
X0007407Y0170756D01*
X0007518Y0170861D01*
X0007633Y0170963D01*
X0007750Y0171062D01*
X0007870Y0171157D01*
X0007992Y0171250D01*
X0008117Y0171340D01*
X0008243Y0171426D01*
X0008372Y0171509D01*
X0008503Y0171588D01*
X0008636Y0171664D01*
X0008771Y0171737D01*
X0008908Y0171806D01*
X0009047Y0171871D01*
X0009187Y0171933D01*
X0009329Y0171991D01*
X0009472Y0172046D01*
X0009617Y0172097D01*
X0009763Y0172144D01*
X0009910Y0172187D01*
X0010058Y0172226D01*
X0010207Y0172262D01*
X0010357Y0172293D01*
X0010508Y0172321D01*
X0010660Y0172345D01*
X0010812Y0172365D01*
X0010964Y0172381D01*
X0011117Y0172393D01*
X0011270Y0172401D01*
X0011423Y0172405D01*
X0011577Y0172405D01*
X0011730Y0172401D01*
X0011883Y0172393D01*
X0012036Y0172381D01*
X0012188Y0172365D01*
X0012340Y0172345D01*
X0012492Y0172321D01*
X0012643Y0172293D01*
X0012793Y0172262D01*
X0012942Y0172226D01*
X0013090Y0172187D01*
X0013237Y0172144D01*
X0013383Y0172097D01*
X0013528Y0172046D01*
X0013671Y0171991D01*
X0013813Y0171933D01*
X0013953Y0171871D01*
X0014092Y0171806D01*
X0014229Y0171737D01*
X0014364Y0171664D01*
X0014497Y0171588D01*
X0014628Y0171509D01*
X0014757Y0171426D01*
X0014883Y0171340D01*
X0015008Y0171250D01*
X0015130Y0171157D01*
X0015250Y0171062D01*
X0015367Y0170963D01*
X0015482Y0170861D01*
X0015593Y0170756D01*
X0015702Y0170648D01*
X0015809Y0170538D01*
X0015912Y0170425D01*
X0016013Y0170309D01*
X0016110Y0170190D01*
X0016204Y0170069D01*
X0016295Y0169946D01*
X0016383Y0169820D01*
X0016468Y0169692D01*
X0016549Y0169562D01*
X0016627Y0169430D01*
X0016701Y0169296D01*
X0016772Y0169160D01*
X0016839Y0169023D01*
X0016903Y0168883D01*
X0016963Y0168742D01*
X0017019Y0168599D01*
X0017072Y0168455D01*
X0017121Y0168310D01*
X0017166Y0168164D01*
X0017207Y0168016D01*
X0017245Y0167867D01*
X0017278Y0167718D01*
X0017308Y0167567D01*
X0017333Y0167416D01*
X0017355Y0167264D01*
X0017373Y0167112D01*
X0017387Y0166959D01*
X0017397Y0166806D01*
X0017403Y0166653D01*
X0017405Y0166500D01*
X0017403Y0166347D01*
X0017397Y0166194D01*
X0017387Y0166041D01*
X0017373Y0165888D01*
X0017355Y0165736D01*
X0017333Y0165584D01*
X0017308Y0165433D01*
X0017278Y0165282D01*
X0017245Y0165133D01*
X0017207Y0164984D01*
X0017166Y0164836D01*
X0017121Y0164690D01*
X0017072Y0164545D01*
X0017019Y0164401D01*
X0016963Y0164258D01*
X0016903Y0164117D01*
X0016839Y0163977D01*
X0016772Y0163840D01*
X0016701Y0163704D01*
X0016627Y0163570D01*
X0016549Y0163438D01*
X0016468Y0163308D01*
X0016383Y0163180D01*
X0016295Y0163054D01*
X0016204Y0162931D01*
X0016110Y0162810D01*
X0016013Y0162691D01*
X0015912Y0162575D01*
X0015809Y0162462D01*
X0015702Y0162352D01*
X0015593Y0162244D01*
X0015482Y0162139D01*
X0015367Y0162037D01*
X0015250Y0161938D01*
X0015130Y0161843D01*
X0015008Y0161750D01*
X0014883Y0161660D01*
X0014757Y0161574D01*
X0014628Y0161491D01*
X0014497Y0161412D01*
X0014364Y0161336D01*
X0014229Y0161263D01*
X0014092Y0161194D01*
X0013953Y0161129D01*
X0013813Y0161067D01*
X0013671Y0161009D01*
X0013528Y0160954D01*
X0013383Y0160903D01*
X0013237Y0160856D01*
X0013090Y0160813D01*
X0012942Y0160774D01*
X0012793Y0160738D01*
X0012643Y0160707D01*
X0012492Y0160679D01*
X0012340Y0160655D01*
X0012188Y0160635D01*
X0012036Y0160619D01*
X0011883Y0160607D01*
X0011730Y0160599D01*
X0011577Y0160595D01*
X0011423Y0160595D01*
X0011270Y0160599D01*
X0011117Y0160607D01*
X0010964Y0160619D01*
X0010812Y0160635D01*
X0010660Y0160655D01*
X0010508Y0160679D01*
X0010357Y0160707D01*
X0010207Y0160738D01*
X0010058Y0160774D01*
X0009910Y0160813D01*
X0009763Y0160856D01*
X0009617Y0160903D01*
X0009472Y0160954D01*
X0009329Y0161009D01*
X0009187Y0161067D01*
X0009047Y0161129D01*
X0008908Y0161194D01*
X0008771Y0161263D01*
X0008636Y0161336D01*
X0008503Y0161412D01*
X0008372Y0161491D01*
X0008243Y0161574D01*
X0008117Y0161660D01*
X0007992Y0161750D01*
X0007870Y0161843D01*
X0007750Y0161938D01*
X0007633Y0162037D01*
X0007518Y0162139D01*
X0007407Y0162244D01*
X0007298Y0162352D01*
X0007191Y0162462D01*
X0007088Y0162575D01*
X0006987Y0162691D01*
X0006890Y0162810D01*
X0006796Y0162931D01*
X0006705Y0163054D01*
X0006617Y0163180D01*
X0006532Y0163308D01*
X0006451Y0163438D01*
X0006373Y0163570D01*
X0006299Y0163704D01*
X0006228Y0163840D01*
X0006161Y0163977D01*
X0006097Y0164117D01*
X0006037Y0164258D01*
X0005981Y0164401D01*
X0005928Y0164545D01*
X0005879Y0164690D01*
X0005834Y0164836D01*
X0005793Y0164984D01*
X0005755Y0165133D01*
X0005722Y0165282D01*
X0005692Y0165433D01*
X0005667Y0165584D01*
X0005645Y0165736D01*
X0005627Y0165888D01*
X0005613Y0166041D01*
X0005603Y0166194D01*
X0005597Y0166347D01*
X0005595Y0166500D01*
X0140595Y0166500D02*
X0140597Y0166653D01*
X0140603Y0166806D01*
X0140613Y0166959D01*
X0140627Y0167112D01*
X0140645Y0167264D01*
X0140667Y0167416D01*
X0140692Y0167567D01*
X0140722Y0167718D01*
X0140755Y0167867D01*
X0140793Y0168016D01*
X0140834Y0168164D01*
X0140879Y0168310D01*
X0140928Y0168455D01*
X0140981Y0168599D01*
X0141037Y0168742D01*
X0141097Y0168883D01*
X0141161Y0169023D01*
X0141228Y0169160D01*
X0141299Y0169296D01*
X0141373Y0169430D01*
X0141451Y0169562D01*
X0141532Y0169692D01*
X0141617Y0169820D01*
X0141705Y0169946D01*
X0141796Y0170069D01*
X0141890Y0170190D01*
X0141987Y0170309D01*
X0142088Y0170425D01*
X0142191Y0170538D01*
X0142298Y0170648D01*
X0142407Y0170756D01*
X0142518Y0170861D01*
X0142633Y0170963D01*
X0142750Y0171062D01*
X0142870Y0171157D01*
X0142992Y0171250D01*
X0143117Y0171340D01*
X0143243Y0171426D01*
X0143372Y0171509D01*
X0143503Y0171588D01*
X0143636Y0171664D01*
X0143771Y0171737D01*
X0143908Y0171806D01*
X0144047Y0171871D01*
X0144187Y0171933D01*
X0144329Y0171991D01*
X0144472Y0172046D01*
X0144617Y0172097D01*
X0144763Y0172144D01*
X0144910Y0172187D01*
X0145058Y0172226D01*
X0145207Y0172262D01*
X0145357Y0172293D01*
X0145508Y0172321D01*
X0145660Y0172345D01*
X0145812Y0172365D01*
X0145964Y0172381D01*
X0146117Y0172393D01*
X0146270Y0172401D01*
X0146423Y0172405D01*
X0146577Y0172405D01*
X0146730Y0172401D01*
X0146883Y0172393D01*
X0147036Y0172381D01*
X0147188Y0172365D01*
X0147340Y0172345D01*
X0147492Y0172321D01*
X0147643Y0172293D01*
X0147793Y0172262D01*
X0147942Y0172226D01*
X0148090Y0172187D01*
X0148237Y0172144D01*
X0148383Y0172097D01*
X0148528Y0172046D01*
X0148671Y0171991D01*
X0148813Y0171933D01*
X0148953Y0171871D01*
X0149092Y0171806D01*
X0149229Y0171737D01*
X0149364Y0171664D01*
X0149497Y0171588D01*
X0149628Y0171509D01*
X0149757Y0171426D01*
X0149883Y0171340D01*
X0150008Y0171250D01*
X0150130Y0171157D01*
X0150250Y0171062D01*
X0150367Y0170963D01*
X0150482Y0170861D01*
X0150593Y0170756D01*
X0150702Y0170648D01*
X0150809Y0170538D01*
X0150912Y0170425D01*
X0151013Y0170309D01*
X0151110Y0170190D01*
X0151204Y0170069D01*
X0151295Y0169946D01*
X0151383Y0169820D01*
X0151468Y0169692D01*
X0151549Y0169562D01*
X0151627Y0169430D01*
X0151701Y0169296D01*
X0151772Y0169160D01*
X0151839Y0169023D01*
X0151903Y0168883D01*
X0151963Y0168742D01*
X0152019Y0168599D01*
X0152072Y0168455D01*
X0152121Y0168310D01*
X0152166Y0168164D01*
X0152207Y0168016D01*
X0152245Y0167867D01*
X0152278Y0167718D01*
X0152308Y0167567D01*
X0152333Y0167416D01*
X0152355Y0167264D01*
X0152373Y0167112D01*
X0152387Y0166959D01*
X0152397Y0166806D01*
X0152403Y0166653D01*
X0152405Y0166500D01*
X0152403Y0166347D01*
X0152397Y0166194D01*
X0152387Y0166041D01*
X0152373Y0165888D01*
X0152355Y0165736D01*
X0152333Y0165584D01*
X0152308Y0165433D01*
X0152278Y0165282D01*
X0152245Y0165133D01*
X0152207Y0164984D01*
X0152166Y0164836D01*
X0152121Y0164690D01*
X0152072Y0164545D01*
X0152019Y0164401D01*
X0151963Y0164258D01*
X0151903Y0164117D01*
X0151839Y0163977D01*
X0151772Y0163840D01*
X0151701Y0163704D01*
X0151627Y0163570D01*
X0151549Y0163438D01*
X0151468Y0163308D01*
X0151383Y0163180D01*
X0151295Y0163054D01*
X0151204Y0162931D01*
X0151110Y0162810D01*
X0151013Y0162691D01*
X0150912Y0162575D01*
X0150809Y0162462D01*
X0150702Y0162352D01*
X0150593Y0162244D01*
X0150482Y0162139D01*
X0150367Y0162037D01*
X0150250Y0161938D01*
X0150130Y0161843D01*
X0150008Y0161750D01*
X0149883Y0161660D01*
X0149757Y0161574D01*
X0149628Y0161491D01*
X0149497Y0161412D01*
X0149364Y0161336D01*
X0149229Y0161263D01*
X0149092Y0161194D01*
X0148953Y0161129D01*
X0148813Y0161067D01*
X0148671Y0161009D01*
X0148528Y0160954D01*
X0148383Y0160903D01*
X0148237Y0160856D01*
X0148090Y0160813D01*
X0147942Y0160774D01*
X0147793Y0160738D01*
X0147643Y0160707D01*
X0147492Y0160679D01*
X0147340Y0160655D01*
X0147188Y0160635D01*
X0147036Y0160619D01*
X0146883Y0160607D01*
X0146730Y0160599D01*
X0146577Y0160595D01*
X0146423Y0160595D01*
X0146270Y0160599D01*
X0146117Y0160607D01*
X0145964Y0160619D01*
X0145812Y0160635D01*
X0145660Y0160655D01*
X0145508Y0160679D01*
X0145357Y0160707D01*
X0145207Y0160738D01*
X0145058Y0160774D01*
X0144910Y0160813D01*
X0144763Y0160856D01*
X0144617Y0160903D01*
X0144472Y0160954D01*
X0144329Y0161009D01*
X0144187Y0161067D01*
X0144047Y0161129D01*
X0143908Y0161194D01*
X0143771Y0161263D01*
X0143636Y0161336D01*
X0143503Y0161412D01*
X0143372Y0161491D01*
X0143243Y0161574D01*
X0143117Y0161660D01*
X0142992Y0161750D01*
X0142870Y0161843D01*
X0142750Y0161938D01*
X0142633Y0162037D01*
X0142518Y0162139D01*
X0142407Y0162244D01*
X0142298Y0162352D01*
X0142191Y0162462D01*
X0142088Y0162575D01*
X0141987Y0162691D01*
X0141890Y0162810D01*
X0141796Y0162931D01*
X0141705Y0163054D01*
X0141617Y0163180D01*
X0141532Y0163308D01*
X0141451Y0163438D01*
X0141373Y0163570D01*
X0141299Y0163704D01*
X0141228Y0163840D01*
X0141161Y0163977D01*
X0141097Y0164117D01*
X0141037Y0164258D01*
X0140981Y0164401D01*
X0140928Y0164545D01*
X0140879Y0164690D01*
X0140834Y0164836D01*
X0140793Y0164984D01*
X0140755Y0165133D01*
X0140722Y0165282D01*
X0140692Y0165433D01*
X0140667Y0165584D01*
X0140645Y0165736D01*
X0140627Y0165888D01*
X0140613Y0166041D01*
X0140603Y0166194D01*
X0140597Y0166347D01*
X0140595Y0166500D01*
X0140595Y0011500D02*
X0140597Y0011653D01*
X0140603Y0011806D01*
X0140613Y0011959D01*
X0140627Y0012112D01*
X0140645Y0012264D01*
X0140667Y0012416D01*
X0140692Y0012567D01*
X0140722Y0012718D01*
X0140755Y0012867D01*
X0140793Y0013016D01*
X0140834Y0013164D01*
X0140879Y0013310D01*
X0140928Y0013455D01*
X0140981Y0013599D01*
X0141037Y0013742D01*
X0141097Y0013883D01*
X0141161Y0014023D01*
X0141228Y0014160D01*
X0141299Y0014296D01*
X0141373Y0014430D01*
X0141451Y0014562D01*
X0141532Y0014692D01*
X0141617Y0014820D01*
X0141705Y0014946D01*
X0141796Y0015069D01*
X0141890Y0015190D01*
X0141987Y0015309D01*
X0142088Y0015425D01*
X0142191Y0015538D01*
X0142298Y0015648D01*
X0142407Y0015756D01*
X0142518Y0015861D01*
X0142633Y0015963D01*
X0142750Y0016062D01*
X0142870Y0016157D01*
X0142992Y0016250D01*
X0143117Y0016340D01*
X0143243Y0016426D01*
X0143372Y0016509D01*
X0143503Y0016588D01*
X0143636Y0016664D01*
X0143771Y0016737D01*
X0143908Y0016806D01*
X0144047Y0016871D01*
X0144187Y0016933D01*
X0144329Y0016991D01*
X0144472Y0017046D01*
X0144617Y0017097D01*
X0144763Y0017144D01*
X0144910Y0017187D01*
X0145058Y0017226D01*
X0145207Y0017262D01*
X0145357Y0017293D01*
X0145508Y0017321D01*
X0145660Y0017345D01*
X0145812Y0017365D01*
X0145964Y0017381D01*
X0146117Y0017393D01*
X0146270Y0017401D01*
X0146423Y0017405D01*
X0146577Y0017405D01*
X0146730Y0017401D01*
X0146883Y0017393D01*
X0147036Y0017381D01*
X0147188Y0017365D01*
X0147340Y0017345D01*
X0147492Y0017321D01*
X0147643Y0017293D01*
X0147793Y0017262D01*
X0147942Y0017226D01*
X0148090Y0017187D01*
X0148237Y0017144D01*
X0148383Y0017097D01*
X0148528Y0017046D01*
X0148671Y0016991D01*
X0148813Y0016933D01*
X0148953Y0016871D01*
X0149092Y0016806D01*
X0149229Y0016737D01*
X0149364Y0016664D01*
X0149497Y0016588D01*
X0149628Y0016509D01*
X0149757Y0016426D01*
X0149883Y0016340D01*
X0150008Y0016250D01*
X0150130Y0016157D01*
X0150250Y0016062D01*
X0150367Y0015963D01*
X0150482Y0015861D01*
X0150593Y0015756D01*
X0150702Y0015648D01*
X0150809Y0015538D01*
X0150912Y0015425D01*
X0151013Y0015309D01*
X0151110Y0015190D01*
X0151204Y0015069D01*
X0151295Y0014946D01*
X0151383Y0014820D01*
X0151468Y0014692D01*
X0151549Y0014562D01*
X0151627Y0014430D01*
X0151701Y0014296D01*
X0151772Y0014160D01*
X0151839Y0014023D01*
X0151903Y0013883D01*
X0151963Y0013742D01*
X0152019Y0013599D01*
X0152072Y0013455D01*
X0152121Y0013310D01*
X0152166Y0013164D01*
X0152207Y0013016D01*
X0152245Y0012867D01*
X0152278Y0012718D01*
X0152308Y0012567D01*
X0152333Y0012416D01*
X0152355Y0012264D01*
X0152373Y0012112D01*
X0152387Y0011959D01*
X0152397Y0011806D01*
X0152403Y0011653D01*
X0152405Y0011500D01*
X0152403Y0011347D01*
X0152397Y0011194D01*
X0152387Y0011041D01*
X0152373Y0010888D01*
X0152355Y0010736D01*
X0152333Y0010584D01*
X0152308Y0010433D01*
X0152278Y0010282D01*
X0152245Y0010133D01*
X0152207Y0009984D01*
X0152166Y0009836D01*
X0152121Y0009690D01*
X0152072Y0009545D01*
X0152019Y0009401D01*
X0151963Y0009258D01*
X0151903Y0009117D01*
X0151839Y0008977D01*
X0151772Y0008840D01*
X0151701Y0008704D01*
X0151627Y0008570D01*
X0151549Y0008438D01*
X0151468Y0008308D01*
X0151383Y0008180D01*
X0151295Y0008054D01*
X0151204Y0007931D01*
X0151110Y0007810D01*
X0151013Y0007691D01*
X0150912Y0007575D01*
X0150809Y0007462D01*
X0150702Y0007352D01*
X0150593Y0007244D01*
X0150482Y0007139D01*
X0150367Y0007037D01*
X0150250Y0006938D01*
X0150130Y0006843D01*
X0150008Y0006750D01*
X0149883Y0006660D01*
X0149757Y0006574D01*
X0149628Y0006491D01*
X0149497Y0006412D01*
X0149364Y0006336D01*
X0149229Y0006263D01*
X0149092Y0006194D01*
X0148953Y0006129D01*
X0148813Y0006067D01*
X0148671Y0006009D01*
X0148528Y0005954D01*
X0148383Y0005903D01*
X0148237Y0005856D01*
X0148090Y0005813D01*
X0147942Y0005774D01*
X0147793Y0005738D01*
X0147643Y0005707D01*
X0147492Y0005679D01*
X0147340Y0005655D01*
X0147188Y0005635D01*
X0147036Y0005619D01*
X0146883Y0005607D01*
X0146730Y0005599D01*
X0146577Y0005595D01*
X0146423Y0005595D01*
X0146270Y0005599D01*
X0146117Y0005607D01*
X0145964Y0005619D01*
X0145812Y0005635D01*
X0145660Y0005655D01*
X0145508Y0005679D01*
X0145357Y0005707D01*
X0145207Y0005738D01*
X0145058Y0005774D01*
X0144910Y0005813D01*
X0144763Y0005856D01*
X0144617Y0005903D01*
X0144472Y0005954D01*
X0144329Y0006009D01*
X0144187Y0006067D01*
X0144047Y0006129D01*
X0143908Y0006194D01*
X0143771Y0006263D01*
X0143636Y0006336D01*
X0143503Y0006412D01*
X0143372Y0006491D01*
X0143243Y0006574D01*
X0143117Y0006660D01*
X0142992Y0006750D01*
X0142870Y0006843D01*
X0142750Y0006938D01*
X0142633Y0007037D01*
X0142518Y0007139D01*
X0142407Y0007244D01*
X0142298Y0007352D01*
X0142191Y0007462D01*
X0142088Y0007575D01*
X0141987Y0007691D01*
X0141890Y0007810D01*
X0141796Y0007931D01*
X0141705Y0008054D01*
X0141617Y0008180D01*
X0141532Y0008308D01*
X0141451Y0008438D01*
X0141373Y0008570D01*
X0141299Y0008704D01*
X0141228Y0008840D01*
X0141161Y0008977D01*
X0141097Y0009117D01*
X0141037Y0009258D01*
X0140981Y0009401D01*
X0140928Y0009545D01*
X0140879Y0009690D01*
X0140834Y0009836D01*
X0140793Y0009984D01*
X0140755Y0010133D01*
X0140722Y0010282D01*
X0140692Y0010433D01*
X0140667Y0010584D01*
X0140645Y0010736D01*
X0140627Y0010888D01*
X0140613Y0011041D01*
X0140603Y0011194D01*
X0140597Y0011347D01*
X0140595Y0011500D01*
D11*
X0136500Y0081500D03*
X0126500Y0081500D03*
X0126500Y0096500D03*
X0126500Y0106500D03*
X0126500Y0116500D03*
X0126500Y0126500D03*
X0126500Y0136500D03*
X0126500Y0146500D03*
X0031500Y0031500D03*
X0031500Y0021500D03*
X0031500Y0011500D03*
X0021500Y0031500D03*
X0011500Y0031500D03*
D12*
X0034295Y0092642D03*
X0034295Y0110358D03*
X0034295Y0122642D03*
X0034295Y0140358D03*
X0008705Y0140358D03*
X0008705Y0110358D03*
D13*
X0008705Y0122642D03*
X0008705Y0092642D03*
D14*
X0021500Y0074295D03*
X0021500Y0048705D03*
D15*
X0138563Y0061500D03*
D16*
X0138563Y0053626D03*
X0146437Y0053626D03*
X0146437Y0061500D03*
X0046437Y0046626D03*
X0046437Y0038500D03*
X0046437Y0030626D03*
X0046437Y0022500D03*
X0046437Y0014626D03*
D17*
X0077563Y0112681D03*
D18*
X0048035Y0112209D03*
X0048035Y0117209D03*
X0048035Y0122209D03*
X0048035Y0127209D03*
X0048035Y0132209D03*
X0048035Y0137209D03*
X0048035Y0142209D03*
X0048035Y0107209D03*
X0048035Y0102209D03*
X0048035Y0097209D03*
X0048035Y0092209D03*
X0048035Y0087209D03*
X0048035Y0082209D03*
X0048035Y0077209D03*
X0114965Y0077209D03*
X0114965Y0082209D03*
X0114965Y0087209D03*
X0114965Y0092209D03*
X0114965Y0097209D03*
X0114965Y0102209D03*
X0114965Y0107209D03*
X0114965Y0112209D03*
X0114965Y0117209D03*
X0114965Y0122209D03*
X0114965Y0127209D03*
X0114965Y0132209D03*
X0114965Y0137209D03*
X0114965Y0142209D03*
D19*
X0104000Y0073272D03*
X0099000Y0073272D03*
X0094000Y0073272D03*
X0089000Y0073272D03*
X0084000Y0073272D03*
X0079000Y0073272D03*
X0074000Y0073272D03*
X0069000Y0073272D03*
X0064000Y0073272D03*
X0059000Y0073272D03*
D20*
X0059000Y0094118D01*
X0076500Y0111618D01*
X0076500Y0131500D01*
X0077063Y0124024D02*
X0067523Y0124024D01*
X0067141Y0123921D01*
X0066799Y0123724D01*
X0066520Y0123445D01*
X0066323Y0123103D01*
X0066220Y0122721D01*
X0066220Y0113181D01*
X0077063Y0113181D01*
X0077063Y0112181D01*
X0078063Y0112181D01*
X0078063Y0101339D01*
X0087603Y0101339D01*
X0087984Y0101441D01*
X0088327Y0101638D01*
X0088606Y0101918D01*
X0088803Y0102260D01*
X0088905Y0102641D01*
X0088905Y0112181D01*
X0078063Y0112181D01*
X0078063Y0113181D01*
X0088905Y0113181D01*
X0088905Y0122721D01*
X0088803Y0123103D01*
X0088606Y0123445D01*
X0088327Y0123724D01*
X0087984Y0123921D01*
X0087603Y0124024D01*
X0078063Y0124024D01*
X0078063Y0113181D01*
X0077063Y0113181D01*
X0077063Y0124024D01*
X0077063Y0123318D02*
X0078063Y0123318D01*
X0078063Y0122320D02*
X0077063Y0122320D01*
X0077063Y0121321D02*
X0078063Y0121321D01*
X0078063Y0120323D02*
X0077063Y0120323D01*
X0077063Y0119324D02*
X0078063Y0119324D01*
X0078063Y0118326D02*
X0077063Y0118326D01*
X0077063Y0117327D02*
X0078063Y0117327D01*
X0078063Y0116329D02*
X0077063Y0116329D01*
X0077063Y0115330D02*
X0078063Y0115330D01*
X0078063Y0114332D02*
X0077063Y0114332D01*
X0077063Y0113333D02*
X0078063Y0113333D01*
X0077563Y0112681D02*
X0076500Y0111618D01*
X0077063Y0111336D02*
X0078063Y0111336D01*
X0078063Y0110338D02*
X0077063Y0110338D01*
X0077063Y0109339D02*
X0078063Y0109339D01*
X0078063Y0108341D02*
X0077063Y0108341D01*
X0077063Y0107342D02*
X0078063Y0107342D01*
X0078063Y0106344D02*
X0077063Y0106344D01*
X0077063Y0105345D02*
X0078063Y0105345D01*
X0078063Y0104347D02*
X0077063Y0104347D01*
X0077063Y0103348D02*
X0078063Y0103348D01*
X0078063Y0102350D02*
X0077063Y0102350D01*
X0077063Y0101351D02*
X0078063Y0101351D01*
X0077063Y0101339D02*
X0077063Y0112181D01*
X0066220Y0112181D01*
X0066220Y0102641D01*
X0066323Y0102260D01*
X0066520Y0101918D01*
X0066799Y0101638D01*
X0067141Y0101441D01*
X0067523Y0101339D01*
X0077063Y0101339D01*
X0067476Y0101351D02*
X0053072Y0101351D01*
X0053072Y0100353D02*
X0109928Y0100353D01*
X0109928Y0099981D02*
X0110200Y0099709D01*
X0109928Y0099436D01*
X0109928Y0094981D01*
X0110200Y0094709D01*
X0109928Y0094436D01*
X0109928Y0089981D01*
X0110200Y0089709D01*
X0109928Y0089436D01*
X0109928Y0084981D01*
X0110200Y0084709D01*
X0109928Y0084436D01*
X0109928Y0079981D01*
X0110200Y0079709D01*
X0109928Y0079436D01*
X0109928Y0078809D01*
X0107990Y0078809D01*
X0107827Y0078971D01*
X0106890Y0079909D01*
X0075354Y0079909D01*
X0069521Y0085742D01*
X0069581Y0085887D01*
X0069581Y0087113D01*
X0069112Y0088245D01*
X0068245Y0089112D01*
X0067113Y0089581D01*
X0065887Y0089581D01*
X0064755Y0089112D01*
X0063888Y0088245D01*
X0063419Y0087113D01*
X0063419Y0085887D01*
X0063888Y0084755D01*
X0064755Y0083888D01*
X0065887Y0083419D01*
X0067113Y0083419D01*
X0067258Y0083479D01*
X0072429Y0078309D01*
X0071773Y0078309D01*
X0071500Y0078036D01*
X0071227Y0078309D01*
X0066773Y0078309D01*
X0066500Y0078036D01*
X0066227Y0078309D01*
X0061793Y0078309D01*
X0061693Y0078409D01*
X0061351Y0078606D01*
X0060969Y0078709D01*
X0059386Y0078709D01*
X0059386Y0073658D01*
X0058614Y0073658D01*
X0058614Y0078709D01*
X0057031Y0078709D01*
X0056649Y0078606D01*
X0056307Y0078409D01*
X0056028Y0078130D01*
X0055831Y0077788D01*
X0055728Y0077406D01*
X0055728Y0073657D01*
X0058614Y0073657D01*
X0058614Y0072886D01*
X0055728Y0072886D01*
X0055728Y0069137D01*
X0055831Y0068756D01*
X0056028Y0068414D01*
X0056307Y0068134D01*
X0056649Y0067937D01*
X0057031Y0067835D01*
X0058614Y0067835D01*
X0058614Y0072886D01*
X0059386Y0072886D01*
X0059386Y0067835D01*
X0060969Y0067835D01*
X0061351Y0067937D01*
X0061693Y0068134D01*
X0061793Y0068235D01*
X0066227Y0068235D01*
X0066500Y0068507D01*
X0066773Y0068235D01*
X0071227Y0068235D01*
X0071500Y0068507D01*
X0071773Y0068235D01*
X0076227Y0068235D01*
X0076500Y0068507D01*
X0076773Y0068235D01*
X0081227Y0068235D01*
X0081500Y0068507D01*
X0081773Y0068235D01*
X0086227Y0068235D01*
X0086500Y0068507D01*
X0086773Y0068235D01*
X0091227Y0068235D01*
X0091500Y0068507D01*
X0091773Y0068235D01*
X0096227Y0068235D01*
X0096500Y0068507D01*
X0096773Y0068235D01*
X0101227Y0068235D01*
X0101500Y0068507D01*
X0101773Y0068235D01*
X0106227Y0068235D01*
X0106872Y0068879D01*
X0106872Y0069900D01*
X0113828Y0069900D01*
X0113888Y0069755D01*
X0114755Y0068888D01*
X0115887Y0068419D01*
X0117113Y0068419D01*
X0118245Y0068888D01*
X0119112Y0069755D01*
X0119581Y0070887D01*
X0119581Y0072113D01*
X0119112Y0073245D01*
X0118245Y0074112D01*
X0117702Y0074337D01*
X0119357Y0074337D01*
X0120002Y0074981D01*
X0120002Y0079436D01*
X0119729Y0079709D01*
X0120002Y0079981D01*
X0120002Y0084436D01*
X0119729Y0084709D01*
X0120002Y0084981D01*
X0120002Y0085609D01*
X0120100Y0085609D01*
X0120100Y0064594D01*
X0136368Y0048326D01*
X0140758Y0048326D01*
X0143631Y0051199D01*
X0144341Y0050489D01*
X0145701Y0049926D01*
X0147173Y0049926D01*
X0148533Y0050489D01*
X0149574Y0051530D01*
X0150137Y0052890D01*
X0150137Y0054362D01*
X0149574Y0055722D01*
X0148533Y0056763D01*
X0147173Y0057326D01*
X0145701Y0057326D01*
X0144341Y0056763D01*
X0143300Y0055722D01*
X0143068Y0055161D01*
X0142263Y0054356D01*
X0142263Y0054362D01*
X0141700Y0055722D01*
X0140659Y0056763D01*
X0139299Y0057326D01*
X0137827Y0057326D01*
X0137331Y0057121D01*
X0137052Y0057400D01*
X0138263Y0057400D01*
X0138263Y0061200D01*
X0138863Y0061200D01*
X0138863Y0061800D01*
X0142663Y0061800D01*
X0142663Y0064297D01*
X0142561Y0064679D01*
X0142363Y0065021D01*
X0142084Y0065300D01*
X0141742Y0065498D01*
X0141360Y0065600D01*
X0138863Y0065600D01*
X0138863Y0061800D01*
X0138263Y0061800D01*
X0138263Y0065600D01*
X0135766Y0065600D01*
X0135384Y0065498D01*
X0135042Y0065300D01*
X0134763Y0065021D01*
X0134565Y0064679D01*
X0134463Y0064297D01*
X0134463Y0061800D01*
X0138263Y0061800D01*
X0138263Y0061200D01*
X0134463Y0061200D01*
X0134463Y0059989D01*
X0133100Y0061352D01*
X0133100Y0078112D01*
X0133781Y0077431D01*
X0135545Y0076700D01*
X0137455Y0076700D01*
X0139219Y0077431D01*
X0140569Y0078781D01*
X0141300Y0080545D01*
X0141300Y0082455D01*
X0140569Y0084219D01*
X0139219Y0085569D01*
X0137455Y0086300D01*
X0135545Y0086300D01*
X0133781Y0085569D01*
X0132631Y0084420D01*
X0132163Y0084888D01*
X0125687Y0091364D01*
X0126000Y0091314D01*
X0126000Y0096000D01*
X0121314Y0096000D01*
X0121428Y0095282D01*
X0121681Y0094504D01*
X0122053Y0093775D01*
X0122534Y0093112D01*
X0122546Y0093100D01*
X0120002Y0093100D01*
X0120002Y0094436D01*
X0119729Y0094709D01*
X0120002Y0094981D01*
X0120002Y0099436D01*
X0119729Y0099709D01*
X0120002Y0099981D01*
X0120002Y0104436D01*
X0119729Y0104709D01*
X0120002Y0104981D01*
X0120002Y0109436D01*
X0119729Y0109709D01*
X0120002Y0109981D01*
X0120002Y0114436D01*
X0119729Y0114709D01*
X0120002Y0114981D01*
X0120002Y0119436D01*
X0119729Y0119709D01*
X0120002Y0119981D01*
X0120002Y0120609D01*
X0122871Y0120609D01*
X0123809Y0121546D01*
X0124426Y0122164D01*
X0125545Y0121700D01*
X0127455Y0121700D01*
X0129219Y0122431D01*
X0130569Y0123781D01*
X0131300Y0125545D01*
X0131300Y0127455D01*
X0130569Y0129219D01*
X0129219Y0130569D01*
X0127455Y0131300D01*
X0125545Y0131300D01*
X0123781Y0130569D01*
X0122431Y0129219D01*
X0121700Y0127455D01*
X0121700Y0125545D01*
X0122164Y0124426D01*
X0121546Y0123809D01*
X0120002Y0123809D01*
X0120002Y0124436D01*
X0119729Y0124709D01*
X0120002Y0124981D01*
X0120002Y0127719D01*
X0124441Y0132158D01*
X0125545Y0131700D01*
X0127455Y0131700D01*
X0129219Y0132431D01*
X0130569Y0133781D01*
X0131300Y0135545D01*
X0131300Y0137455D01*
X0130569Y0139219D01*
X0129219Y0140569D01*
X0127455Y0141300D01*
X0125545Y0141300D01*
X0123781Y0140569D01*
X0122431Y0139219D01*
X0121700Y0137455D01*
X0121700Y0135545D01*
X0122169Y0134412D01*
X0120002Y0132244D01*
X0120002Y0134436D01*
X0119729Y0134709D01*
X0120002Y0134981D01*
X0120002Y0139416D01*
X0120102Y0139516D01*
X0120299Y0139858D01*
X0120402Y0140240D01*
X0120402Y0141823D01*
X0115350Y0141823D01*
X0115350Y0142594D01*
X0120402Y0142594D01*
X0120402Y0144178D01*
X0120299Y0144559D01*
X0120102Y0144901D01*
X0119823Y0145181D01*
X0119481Y0145378D01*
X0119099Y0145480D01*
X0115350Y0145480D01*
X0115350Y0142595D01*
X0114579Y0142595D01*
X0114579Y0145480D01*
X0110830Y0145480D01*
X0110449Y0145378D01*
X0110107Y0145181D01*
X0109827Y0144901D01*
X0109630Y0144559D01*
X0109528Y0144178D01*
X0109528Y0142594D01*
X0114579Y0142594D01*
X0114579Y0141823D01*
X0109528Y0141823D01*
X0109528Y0140240D01*
X0109630Y0139858D01*
X0109827Y0139516D01*
X0109928Y0139416D01*
X0109928Y0134981D01*
X0110200Y0134709D01*
X0109928Y0134436D01*
X0109928Y0129981D01*
X0110200Y0129709D01*
X0109928Y0129436D01*
X0109928Y0124981D01*
X0110200Y0124709D01*
X0109928Y0124436D01*
X0109928Y0119981D01*
X0110200Y0119709D01*
X0109928Y0119436D01*
X0109928Y0114981D01*
X0110200Y0114709D01*
X0109928Y0114436D01*
X0109928Y0109981D01*
X0110200Y0109709D01*
X0109928Y0109436D01*
X0109928Y0104981D01*
X0110200Y0104709D01*
X0109928Y0104436D01*
X0109928Y0099981D01*
X0109928Y0099354D02*
X0053072Y0099354D01*
X0053072Y0099436D02*
X0052800Y0099709D01*
X0053072Y0099981D01*
X0053072Y0104436D01*
X0052800Y0104709D01*
X0053072Y0104981D01*
X0053072Y0109436D01*
X0052800Y0109709D01*
X0053072Y0109981D01*
X0053072Y0114436D01*
X0052800Y0114709D01*
X0053072Y0114981D01*
X0053072Y0119436D01*
X0052800Y0119709D01*
X0053072Y0119981D01*
X0053072Y0124436D01*
X0052800Y0124709D01*
X0053072Y0124981D01*
X0053072Y0129436D01*
X0052800Y0129709D01*
X0053072Y0129981D01*
X0053072Y0134436D01*
X0052800Y0134709D01*
X0053072Y0134981D01*
X0053072Y0135609D01*
X0053534Y0135609D01*
X0053888Y0134755D01*
X0054755Y0133888D01*
X0055887Y0133419D01*
X0057113Y0133419D01*
X0058245Y0133888D01*
X0059112Y0134755D01*
X0059581Y0135887D01*
X0059581Y0137113D01*
X0059112Y0138245D01*
X0058245Y0139112D01*
X0057113Y0139581D01*
X0055887Y0139581D01*
X0054755Y0139112D01*
X0054451Y0138809D01*
X0053072Y0138809D01*
X0053072Y0139416D01*
X0053173Y0139516D01*
X0053370Y0139858D01*
X0053472Y0140240D01*
X0053472Y0141823D01*
X0048421Y0141823D01*
X0048421Y0142594D01*
X0053472Y0142594D01*
X0053472Y0144178D01*
X0053370Y0144559D01*
X0053173Y0144901D01*
X0052893Y0145181D01*
X0052551Y0145378D01*
X0052170Y0145480D01*
X0048421Y0145480D01*
X0048421Y0142595D01*
X0047650Y0142595D01*
X0047650Y0145480D01*
X0043901Y0145480D01*
X0043519Y0145378D01*
X0043177Y0145181D01*
X0042898Y0144901D01*
X0042701Y0144559D01*
X0042598Y0144178D01*
X0042598Y0142594D01*
X0047650Y0142594D01*
X0047650Y0141823D01*
X0042598Y0141823D01*
X0042598Y0140240D01*
X0042701Y0139858D01*
X0042898Y0139516D01*
X0042998Y0139416D01*
X0042998Y0134981D01*
X0043271Y0134709D01*
X0042998Y0134436D01*
X0042998Y0133918D01*
X0038057Y0138859D01*
X0038344Y0139553D01*
X0038344Y0141164D01*
X0037728Y0142652D01*
X0036589Y0143791D01*
X0035101Y0144407D01*
X0033490Y0144407D01*
X0032002Y0143791D01*
X0030863Y0142652D01*
X0030246Y0141164D01*
X0030246Y0139553D01*
X0030863Y0138065D01*
X0032002Y0136926D01*
X0033490Y0136309D01*
X0035101Y0136309D01*
X0035794Y0136597D01*
X0041782Y0130609D01*
X0042998Y0130609D01*
X0042998Y0129981D01*
X0043271Y0129709D01*
X0042998Y0129436D01*
X0042998Y0124981D01*
X0043271Y0124709D01*
X0042998Y0124436D01*
X0042998Y0119981D01*
X0043271Y0119709D01*
X0042998Y0119436D01*
X0042998Y0114981D01*
X0043271Y0114709D01*
X0042998Y0114436D01*
X0042998Y0109981D01*
X0043271Y0109709D01*
X0042998Y0109436D01*
X0042998Y0104981D01*
X0043271Y0104709D01*
X0042998Y0104436D01*
X0042998Y0099981D01*
X0043271Y0099709D01*
X0042998Y0099436D01*
X0042998Y0094981D01*
X0043271Y0094709D01*
X0042998Y0094436D01*
X0042998Y0089981D01*
X0043271Y0089709D01*
X0042998Y0089436D01*
X0042998Y0084981D01*
X0043271Y0084709D01*
X0042998Y0084436D01*
X0042998Y0079981D01*
X0043271Y0079709D01*
X0042998Y0079436D01*
X0042998Y0074981D01*
X0043643Y0074337D01*
X0052428Y0074337D01*
X0053072Y0074981D01*
X0053072Y0079436D01*
X0052800Y0079709D01*
X0053072Y0079981D01*
X0053072Y0084436D01*
X0052800Y0084709D01*
X0053072Y0084981D01*
X0053072Y0089436D01*
X0052800Y0089709D01*
X0053072Y0089981D01*
X0053072Y0094436D01*
X0052800Y0094709D01*
X0053072Y0094981D01*
X0053072Y0099436D01*
X0053072Y0098356D02*
X0109928Y0098356D01*
X0109928Y0097357D02*
X0053072Y0097357D01*
X0053072Y0096359D02*
X0109928Y0096359D01*
X0109928Y0095360D02*
X0053072Y0095360D01*
X0053072Y0094362D02*
X0109928Y0094362D01*
X0109928Y0093363D02*
X0053072Y0093363D01*
X0053072Y0092365D02*
X0109928Y0092365D01*
X0109928Y0091366D02*
X0053072Y0091366D01*
X0053072Y0090368D02*
X0109928Y0090368D01*
X0109928Y0089369D02*
X0067625Y0089369D01*
X0068987Y0088370D02*
X0109928Y0088370D01*
X0109928Y0087372D02*
X0069474Y0087372D01*
X0069581Y0086373D02*
X0109928Y0086373D01*
X0109928Y0085375D02*
X0069888Y0085375D01*
X0070886Y0084376D02*
X0109928Y0084376D01*
X0109928Y0083378D02*
X0071885Y0083378D01*
X0072883Y0082379D02*
X0109928Y0082379D01*
X0109928Y0081381D02*
X0073882Y0081381D01*
X0074880Y0080382D02*
X0109928Y0080382D01*
X0109928Y0079384D02*
X0107415Y0079384D01*
X0106227Y0078309D02*
X0074691Y0078309D01*
X0066500Y0086500D01*
X0065375Y0089369D02*
X0053072Y0089369D01*
X0053072Y0088370D02*
X0064013Y0088370D01*
X0063526Y0087372D02*
X0053072Y0087372D01*
X0053072Y0086373D02*
X0063419Y0086373D01*
X0063631Y0085375D02*
X0053072Y0085375D01*
X0053072Y0084376D02*
X0064266Y0084376D01*
X0067359Y0083378D02*
X0053072Y0083378D01*
X0053072Y0082379D02*
X0068358Y0082379D01*
X0069356Y0081381D02*
X0053072Y0081381D01*
X0053072Y0080382D02*
X0070355Y0080382D01*
X0071353Y0079384D02*
X0053072Y0079384D01*
X0053072Y0078385D02*
X0056284Y0078385D01*
X0055728Y0077387D02*
X0053072Y0077387D01*
X0053072Y0076388D02*
X0055728Y0076388D01*
X0055728Y0075390D02*
X0053072Y0075390D01*
X0052482Y0074391D02*
X0055728Y0074391D01*
X0055728Y0072394D02*
X0027921Y0072394D01*
X0027921Y0071396D02*
X0055728Y0071396D01*
X0055728Y0070397D02*
X0027921Y0070397D01*
X0027921Y0069399D02*
X0055728Y0069399D01*
X0056041Y0068400D02*
X0027921Y0068400D01*
X0027921Y0067402D02*
X0120100Y0067402D01*
X0120100Y0068400D02*
X0106393Y0068400D01*
X0106872Y0069399D02*
X0114244Y0069399D01*
X0116500Y0071500D02*
X0105772Y0071500D01*
X0104000Y0073272D01*
X0107327Y0077209D02*
X0106227Y0078309D01*
X0107327Y0077209D02*
X0114965Y0077209D01*
X0120002Y0077387D02*
X0120100Y0077387D01*
X0120100Y0078385D02*
X0120002Y0078385D01*
X0120002Y0079384D02*
X0120100Y0079384D01*
X0120100Y0080382D02*
X0120002Y0080382D01*
X0120002Y0081381D02*
X0120100Y0081381D01*
X0120100Y0082379D02*
X0120002Y0082379D01*
X0120002Y0083378D02*
X0120100Y0083378D01*
X0120100Y0084376D02*
X0120002Y0084376D01*
X0120002Y0085375D02*
X0120100Y0085375D01*
X0121700Y0086300D02*
X0120791Y0087209D01*
X0114965Y0087209D01*
X0115673Y0091500D02*
X0123288Y0091500D01*
X0131500Y0083288D01*
X0131500Y0060689D01*
X0138563Y0053626D01*
X0141003Y0056418D02*
X0143997Y0056418D01*
X0143175Y0055420D02*
X0141825Y0055420D01*
X0142238Y0054421D02*
X0142328Y0054421D01*
X0143796Y0053626D02*
X0146437Y0053626D01*
X0143796Y0053626D02*
X0140096Y0049926D01*
X0137030Y0049926D01*
X0121700Y0065256D01*
X0121700Y0086300D01*
X0126683Y0090368D02*
X0151921Y0090368D01*
X0151921Y0091366D02*
X0127326Y0091366D01*
X0127000Y0091366D02*
X0126000Y0091366D01*
X0126000Y0092365D02*
X0127000Y0092365D01*
X0127000Y0093363D02*
X0126000Y0093363D01*
X0126000Y0094362D02*
X0127000Y0094362D01*
X0127000Y0095360D02*
X0126000Y0095360D01*
X0126000Y0096000D02*
X0127000Y0096000D01*
X0127000Y0097000D01*
X0126000Y0097000D01*
X0126000Y0101686D01*
X0125282Y0101572D01*
X0124504Y0101319D01*
X0123775Y0100947D01*
X0123112Y0100466D01*
X0122534Y0099888D01*
X0122053Y0099225D01*
X0121681Y0098496D01*
X0121428Y0097718D01*
X0121314Y0097000D01*
X0126000Y0097000D01*
X0126000Y0096000D01*
X0126000Y0096359D02*
X0120002Y0096359D01*
X0120002Y0097357D02*
X0121371Y0097357D01*
X0121635Y0098356D02*
X0120002Y0098356D01*
X0120002Y0099354D02*
X0122146Y0099354D01*
X0122999Y0100353D02*
X0120002Y0100353D01*
X0120002Y0101351D02*
X0124603Y0101351D01*
X0125545Y0101700D02*
X0123781Y0102431D01*
X0122431Y0103781D01*
X0121700Y0105545D01*
X0121700Y0107455D01*
X0122431Y0109219D01*
X0123781Y0110569D01*
X0125545Y0111300D01*
X0127455Y0111300D01*
X0129219Y0110569D01*
X0130569Y0109219D01*
X0131300Y0107455D01*
X0131300Y0105545D01*
X0130569Y0103781D01*
X0129219Y0102431D01*
X0127455Y0101700D01*
X0125545Y0101700D01*
X0126000Y0101351D02*
X0127000Y0101351D01*
X0127000Y0101686D02*
X0127000Y0097000D01*
X0131686Y0097000D01*
X0131572Y0097718D01*
X0131319Y0098496D01*
X0130947Y0099225D01*
X0130466Y0099888D01*
X0129888Y0100466D01*
X0129225Y0100947D01*
X0128496Y0101319D01*
X0127718Y0101572D01*
X0127000Y0101686D01*
X0127000Y0100353D02*
X0126000Y0100353D01*
X0126000Y0099354D02*
X0127000Y0099354D01*
X0127000Y0098356D02*
X0126000Y0098356D01*
X0126000Y0097357D02*
X0127000Y0097357D01*
X0127000Y0096359D02*
X0151921Y0096359D01*
X0151921Y0097357D02*
X0131629Y0097357D01*
X0131365Y0098356D02*
X0151921Y0098356D01*
X0151921Y0099354D02*
X0130854Y0099354D01*
X0130001Y0100353D02*
X0151921Y0100353D01*
X0151921Y0101351D02*
X0128397Y0101351D01*
X0129023Y0102350D02*
X0151921Y0102350D01*
X0151921Y0103348D02*
X0130136Y0103348D01*
X0130804Y0104347D02*
X0151921Y0104347D01*
X0151921Y0105345D02*
X0131217Y0105345D01*
X0131300Y0106344D02*
X0151921Y0106344D01*
X0151921Y0107342D02*
X0131300Y0107342D01*
X0130933Y0108341D02*
X0151921Y0108341D01*
X0151921Y0109339D02*
X0130449Y0109339D01*
X0129450Y0110338D02*
X0151921Y0110338D01*
X0151921Y0111336D02*
X0120002Y0111336D01*
X0120002Y0110338D02*
X0123550Y0110338D01*
X0122551Y0109339D02*
X0120002Y0109339D01*
X0120002Y0108341D02*
X0122067Y0108341D01*
X0121700Y0107342D02*
X0120002Y0107342D01*
X0120002Y0106344D02*
X0121700Y0106344D01*
X0121783Y0105345D02*
X0120002Y0105345D01*
X0120002Y0104347D02*
X0122196Y0104347D01*
X0122864Y0103348D02*
X0120002Y0103348D01*
X0120002Y0102350D02*
X0123977Y0102350D01*
X0127000Y0096000D02*
X0131686Y0096000D01*
X0131572Y0095282D01*
X0131319Y0094504D01*
X0130947Y0093775D01*
X0130466Y0093112D01*
X0129888Y0092534D01*
X0129225Y0092053D01*
X0128496Y0091681D01*
X0127718Y0091428D01*
X0127000Y0091314D01*
X0127000Y0096000D01*
X0130648Y0093363D02*
X0151921Y0093363D01*
X0151921Y0092365D02*
X0129655Y0092365D01*
X0131246Y0094362D02*
X0151921Y0094362D01*
X0151921Y0095360D02*
X0131584Y0095360D01*
X0127682Y0089369D02*
X0151921Y0089369D01*
X0151921Y0088370D02*
X0128680Y0088370D01*
X0129679Y0087372D02*
X0151921Y0087372D01*
X0151921Y0086373D02*
X0130677Y0086373D01*
X0131676Y0085375D02*
X0133587Y0085375D01*
X0139413Y0085375D02*
X0151921Y0085375D01*
X0151921Y0084376D02*
X0140412Y0084376D01*
X0140918Y0083378D02*
X0151921Y0083378D01*
X0151921Y0082379D02*
X0141300Y0082379D01*
X0141300Y0081381D02*
X0151921Y0081381D01*
X0151921Y0080382D02*
X0141233Y0080382D01*
X0140819Y0079384D02*
X0151921Y0079384D01*
X0151921Y0078385D02*
X0140174Y0078385D01*
X0139113Y0077387D02*
X0151921Y0077387D01*
X0151921Y0076388D02*
X0133100Y0076388D01*
X0133100Y0075390D02*
X0151921Y0075390D01*
X0151921Y0074391D02*
X0133100Y0074391D01*
X0133100Y0073393D02*
X0151921Y0073393D01*
X0151921Y0072394D02*
X0133100Y0072394D01*
X0133100Y0071396D02*
X0151921Y0071396D01*
X0151921Y0070397D02*
X0133100Y0070397D01*
X0133100Y0069399D02*
X0151921Y0069399D01*
X0151921Y0068400D02*
X0133100Y0068400D01*
X0133100Y0067402D02*
X0151921Y0067402D01*
X0151921Y0066403D02*
X0133100Y0066403D01*
X0133100Y0065405D02*
X0135223Y0065405D01*
X0134492Y0064406D02*
X0133100Y0064406D01*
X0133100Y0063408D02*
X0134463Y0063408D01*
X0134463Y0062409D02*
X0133100Y0062409D01*
X0133100Y0061411D02*
X0138263Y0061411D01*
X0138863Y0061411D02*
X0142737Y0061411D01*
X0142663Y0061200D02*
X0138863Y0061200D01*
X0138863Y0057400D01*
X0141360Y0057400D01*
X0141742Y0057502D01*
X0142084Y0057700D01*
X0142363Y0057979D01*
X0142561Y0058321D01*
X0142663Y0058703D01*
X0142663Y0061200D01*
X0142737Y0060764D02*
X0143300Y0059404D01*
X0144341Y0058363D01*
X0145701Y0057800D01*
X0147173Y0057800D01*
X0148533Y0058363D01*
X0149574Y0059404D01*
X0150137Y0060764D01*
X0150137Y0062236D01*
X0149574Y0063596D01*
X0148533Y0064637D01*
X0147173Y0065200D01*
X0145701Y0065200D01*
X0144341Y0064637D01*
X0143300Y0063596D01*
X0142737Y0062236D01*
X0142737Y0060764D01*
X0142663Y0060412D02*
X0142883Y0060412D01*
X0142663Y0059414D02*
X0143296Y0059414D01*
X0142586Y0058415D02*
X0144289Y0058415D01*
X0141423Y0057417D02*
X0151921Y0057417D01*
X0151921Y0058415D02*
X0148585Y0058415D01*
X0149578Y0059414D02*
X0151921Y0059414D01*
X0151921Y0060412D02*
X0149991Y0060412D01*
X0150137Y0061411D02*
X0151921Y0061411D01*
X0151921Y0062409D02*
X0150065Y0062409D01*
X0149652Y0063408D02*
X0151921Y0063408D01*
X0151921Y0064406D02*
X0148763Y0064406D01*
X0151921Y0065405D02*
X0141903Y0065405D01*
X0142634Y0064406D02*
X0144111Y0064406D01*
X0143222Y0063408D02*
X0142663Y0063408D01*
X0142663Y0062409D02*
X0142809Y0062409D01*
X0138863Y0062409D02*
X0138263Y0062409D01*
X0138263Y0063408D02*
X0138863Y0063408D01*
X0138863Y0064406D02*
X0138263Y0064406D01*
X0138263Y0065405D02*
X0138863Y0065405D01*
X0138863Y0060412D02*
X0138263Y0060412D01*
X0138263Y0059414D02*
X0138863Y0059414D01*
X0138863Y0058415D02*
X0138263Y0058415D01*
X0138263Y0057417D02*
X0138863Y0057417D01*
X0134463Y0060412D02*
X0134040Y0060412D01*
X0129274Y0055420D02*
X0027521Y0055420D01*
X0027521Y0056050D02*
X0026877Y0056694D01*
X0016480Y0056694D01*
X0009581Y0063593D01*
X0009581Y0064243D01*
X0010093Y0064755D01*
X0010562Y0065887D01*
X0010562Y0067113D01*
X0010093Y0068245D01*
X0009226Y0069112D01*
X0008094Y0069581D01*
X0006868Y0069581D01*
X0006000Y0069221D01*
X0006000Y0088193D01*
X0008230Y0088193D01*
X0008230Y0092167D01*
X0009179Y0092167D01*
X0009179Y0088193D01*
X0011851Y0088193D01*
X0012233Y0088295D01*
X0012575Y0088493D01*
X0012854Y0088772D01*
X0013051Y0089114D01*
X0013154Y0089495D01*
X0013154Y0092167D01*
X0009179Y0092167D01*
X0009179Y0093116D01*
X0013154Y0093116D01*
X0013154Y0095788D01*
X0013051Y0096170D01*
X0012854Y0096512D01*
X0012575Y0096791D01*
X0012233Y0096988D01*
X0011851Y0097091D01*
X0009179Y0097091D01*
X0009179Y0093116D01*
X0008230Y0093116D01*
X0008230Y0097091D01*
X0006000Y0097091D01*
X0006000Y0106824D01*
X0006373Y0106553D01*
X0006997Y0106235D01*
X0007663Y0106019D01*
X0008230Y0105929D01*
X0008230Y0109884D01*
X0009179Y0109884D01*
X0009179Y0105929D01*
X0009746Y0106019D01*
X0010412Y0106235D01*
X0011036Y0106553D01*
X0011603Y0106965D01*
X0012098Y0107460D01*
X0012510Y0108027D01*
X0012828Y0108651D01*
X0013044Y0109316D01*
X0013134Y0109884D01*
X0009179Y0109884D01*
X0009179Y0110833D01*
X0008230Y0110833D01*
X0008230Y0114787D01*
X0007663Y0114698D01*
X0006997Y0114481D01*
X0006373Y0114163D01*
X0006000Y0113892D01*
X0006000Y0118193D01*
X0008230Y0118193D01*
X0008230Y0122167D01*
X0009179Y0122167D01*
X0009179Y0118193D01*
X0011851Y0118193D01*
X0012233Y0118295D01*
X0012575Y0118493D01*
X0012854Y0118772D01*
X0013051Y0119114D01*
X0013154Y0119495D01*
X0013154Y0122167D01*
X0009179Y0122167D01*
X0009179Y0123116D01*
X0013154Y0123116D01*
X0013154Y0125788D01*
X0013051Y0126170D01*
X0012854Y0126512D01*
X0012575Y0126791D01*
X0012233Y0126988D01*
X0011851Y0127091D01*
X0009179Y0127091D01*
X0009179Y0123116D01*
X0008230Y0123116D01*
X0008230Y0127091D01*
X0006000Y0127091D01*
X0006000Y0136824D01*
X0006373Y0136553D01*
X0006997Y0136235D01*
X0007663Y0136019D01*
X0008230Y0135929D01*
X0008230Y0139884D01*
X0009179Y0139884D01*
X0009179Y0135929D01*
X0009746Y0136019D01*
X0010412Y0136235D01*
X0011036Y0136553D01*
X0011603Y0136965D01*
X0012098Y0137460D01*
X0012510Y0138027D01*
X0012828Y0138651D01*
X0013044Y0139316D01*
X0013134Y0139884D01*
X0009179Y0139884D01*
X0009179Y0140833D01*
X0008230Y0140833D01*
X0008230Y0144787D01*
X0007663Y0144698D01*
X0006997Y0144481D01*
X0006373Y0144163D01*
X0006000Y0143892D01*
X0006000Y0146500D01*
X0121700Y0146500D01*
X0121700Y0145545D01*
X0122431Y0143781D01*
X0123781Y0142431D01*
X0125545Y0141700D01*
X0127455Y0141700D01*
X0129219Y0142431D01*
X0130569Y0143781D01*
X0131300Y0145545D01*
X0131300Y0146500D01*
X0151921Y0146500D01*
X0151921Y0020385D01*
X0150516Y0021196D01*
X0147870Y0021905D01*
X0145130Y0021905D01*
X0142484Y0021196D01*
X0140111Y0019826D01*
X0138174Y0017889D01*
X0136804Y0015516D01*
X0136095Y0012870D01*
X0136095Y0010130D01*
X0136804Y0007484D01*
X0137660Y0006000D01*
X0020340Y0006000D01*
X0021196Y0007484D01*
X0021905Y0010130D01*
X0021905Y0012870D01*
X0021196Y0015516D01*
X0019826Y0017889D01*
X0017889Y0019826D01*
X0015516Y0021196D01*
X0012870Y0021905D01*
X0010130Y0021905D01*
X0007484Y0021196D01*
X0006000Y0020340D01*
X0006000Y0061235D01*
X0006611Y0060624D01*
X0015479Y0051756D01*
X0015479Y0041359D01*
X0016123Y0040715D01*
X0019400Y0040715D01*
X0019400Y0035826D01*
X0018781Y0035569D01*
X0017431Y0034219D01*
X0016700Y0032455D01*
X0016700Y0030545D01*
X0017431Y0028781D01*
X0018781Y0027431D01*
X0020545Y0026700D01*
X0022455Y0026700D01*
X0024219Y0027431D01*
X0025569Y0028781D01*
X0026300Y0030545D01*
X0026300Y0032455D01*
X0025569Y0034219D01*
X0024219Y0035569D01*
X0023600Y0035826D01*
X0023600Y0040715D01*
X0026877Y0040715D01*
X0027521Y0041359D01*
X0027521Y0056050D01*
X0027153Y0056418D02*
X0128276Y0056418D01*
X0127277Y0057417D02*
X0015758Y0057417D01*
X0014759Y0058415D02*
X0126278Y0058415D01*
X0125280Y0059414D02*
X0013761Y0059414D01*
X0012762Y0060412D02*
X0124281Y0060412D01*
X0123283Y0061411D02*
X0011764Y0061411D01*
X0010765Y0062409D02*
X0122284Y0062409D01*
X0121286Y0063408D02*
X0009767Y0063408D01*
X0009745Y0064406D02*
X0120287Y0064406D01*
X0120100Y0065405D02*
X0010362Y0065405D01*
X0010562Y0066403D02*
X0015460Y0066403D01*
X0015378Y0066484D02*
X0015658Y0066205D01*
X0016000Y0066008D01*
X0016381Y0065906D01*
X0021000Y0065906D01*
X0021000Y0073795D01*
X0022000Y0073795D01*
X0022000Y0065906D01*
X0026619Y0065906D01*
X0027000Y0066008D01*
X0027342Y0066205D01*
X0027622Y0066484D01*
X0027819Y0066827D01*
X0027921Y0067208D01*
X0027921Y0073795D01*
X0022000Y0073795D01*
X0022000Y0074795D01*
X0027921Y0074795D01*
X0027921Y0081383D01*
X0027819Y0081764D01*
X0027622Y0082106D01*
X0027342Y0082385D01*
X0027000Y0082583D01*
X0026619Y0082685D01*
X0022000Y0082685D01*
X0022000Y0074795D01*
X0021000Y0074795D01*
X0021000Y0073795D01*
X0015079Y0073795D01*
X0015079Y0067208D01*
X0015181Y0066827D01*
X0015378Y0066484D01*
X0015079Y0067402D02*
X0010443Y0067402D01*
X0009938Y0068400D02*
X0015079Y0068400D01*
X0015079Y0069399D02*
X0008534Y0069399D01*
X0006428Y0069399D02*
X0006000Y0069399D01*
X0006000Y0070397D02*
X0015079Y0070397D01*
X0015079Y0071396D02*
X0006000Y0071396D01*
X0006000Y0072394D02*
X0015079Y0072394D01*
X0015079Y0073393D02*
X0006000Y0073393D01*
X0006000Y0074391D02*
X0021000Y0074391D01*
X0021000Y0074795D02*
X0015079Y0074795D01*
X0015079Y0081383D01*
X0015181Y0081764D01*
X0015378Y0082106D01*
X0015658Y0082385D01*
X0016000Y0082583D01*
X0016381Y0082685D01*
X0021000Y0082685D01*
X0021000Y0074795D01*
X0021000Y0075390D02*
X0022000Y0075390D01*
X0022000Y0076388D02*
X0021000Y0076388D01*
X0021000Y0077387D02*
X0022000Y0077387D01*
X0022000Y0078385D02*
X0021000Y0078385D01*
X0021000Y0079384D02*
X0022000Y0079384D01*
X0022000Y0080382D02*
X0021000Y0080382D01*
X0021000Y0081381D02*
X0022000Y0081381D01*
X0022000Y0082379D02*
X0021000Y0082379D01*
X0015652Y0082379D02*
X0006000Y0082379D01*
X0006000Y0081381D02*
X0015079Y0081381D01*
X0015079Y0080382D02*
X0006000Y0080382D01*
X0006000Y0079384D02*
X0015079Y0079384D01*
X0015079Y0078385D02*
X0006000Y0078385D01*
X0006000Y0077387D02*
X0015079Y0077387D01*
X0015079Y0076388D02*
X0006000Y0076388D01*
X0006000Y0075390D02*
X0015079Y0075390D01*
X0021000Y0073393D02*
X0022000Y0073393D01*
X0022000Y0074391D02*
X0043588Y0074391D01*
X0042998Y0075390D02*
X0027921Y0075390D01*
X0027921Y0076388D02*
X0042998Y0076388D01*
X0042998Y0077387D02*
X0027921Y0077387D01*
X0027921Y0078385D02*
X0042998Y0078385D01*
X0042998Y0079384D02*
X0027921Y0079384D01*
X0027921Y0080382D02*
X0042998Y0080382D01*
X0042998Y0081381D02*
X0027921Y0081381D01*
X0027348Y0082379D02*
X0042998Y0082379D01*
X0042998Y0083378D02*
X0006000Y0083378D01*
X0006000Y0084376D02*
X0042998Y0084376D01*
X0042998Y0085375D02*
X0006000Y0085375D01*
X0006000Y0086373D02*
X0042998Y0086373D01*
X0042998Y0087372D02*
X0006000Y0087372D01*
X0008230Y0088370D02*
X0009179Y0088370D01*
X0009179Y0089369D02*
X0008230Y0089369D01*
X0008230Y0090368D02*
X0009179Y0090368D01*
X0009179Y0091366D02*
X0008230Y0091366D01*
X0009179Y0092365D02*
X0030246Y0092365D01*
X0030246Y0091836D02*
X0030863Y0090348D01*
X0032002Y0089209D01*
X0033490Y0088593D01*
X0035101Y0088593D01*
X0036589Y0089209D01*
X0037728Y0090348D01*
X0038344Y0091836D01*
X0038344Y0093447D01*
X0037728Y0094935D01*
X0036589Y0096074D01*
X0035101Y0096691D01*
X0033490Y0096691D01*
X0032002Y0096074D01*
X0030863Y0094935D01*
X0030246Y0093447D01*
X0030246Y0091836D01*
X0030441Y0091366D02*
X0013154Y0091366D01*
X0013154Y0090368D02*
X0030855Y0090368D01*
X0031842Y0089369D02*
X0013120Y0089369D01*
X0012363Y0088370D02*
X0042998Y0088370D01*
X0042998Y0089369D02*
X0036748Y0089369D01*
X0037736Y0090368D02*
X0042998Y0090368D01*
X0042998Y0091366D02*
X0038149Y0091366D01*
X0038344Y0092365D02*
X0042998Y0092365D01*
X0042998Y0093363D02*
X0038344Y0093363D01*
X0037965Y0094362D02*
X0042998Y0094362D01*
X0042998Y0095360D02*
X0037303Y0095360D01*
X0035902Y0096359D02*
X0042998Y0096359D01*
X0042998Y0097357D02*
X0006000Y0097357D01*
X0006000Y0098356D02*
X0042998Y0098356D01*
X0042998Y0099354D02*
X0006000Y0099354D01*
X0006000Y0100353D02*
X0042998Y0100353D01*
X0042998Y0101351D02*
X0006000Y0101351D01*
X0006000Y0102350D02*
X0042998Y0102350D01*
X0042998Y0103348D02*
X0006000Y0103348D01*
X0006000Y0104347D02*
X0042998Y0104347D01*
X0042998Y0105345D02*
X0006000Y0105345D01*
X0006000Y0106344D02*
X0006784Y0106344D01*
X0008230Y0106344D02*
X0009179Y0106344D01*
X0009179Y0107342D02*
X0008230Y0107342D01*
X0008230Y0108341D02*
X0009179Y0108341D01*
X0009179Y0109339D02*
X0008230Y0109339D01*
X0009179Y0110338D02*
X0030246Y0110338D01*
X0030246Y0109553D02*
X0030863Y0108065D01*
X0032002Y0106926D01*
X0033490Y0106309D01*
X0035101Y0106309D01*
X0036589Y0106926D01*
X0037728Y0108065D01*
X0038344Y0109553D01*
X0038344Y0111164D01*
X0037728Y0112652D01*
X0036589Y0113791D01*
X0035101Y0114407D01*
X0033490Y0114407D01*
X0032002Y0113791D01*
X0030863Y0112652D01*
X0030246Y0111164D01*
X0030246Y0109553D01*
X0030335Y0109339D02*
X0013048Y0109339D01*
X0012670Y0108341D02*
X0030749Y0108341D01*
X0031585Y0107342D02*
X0011980Y0107342D01*
X0010625Y0106344D02*
X0033407Y0106344D01*
X0035183Y0106344D02*
X0042998Y0106344D01*
X0042998Y0107342D02*
X0037005Y0107342D01*
X0037842Y0108341D02*
X0042998Y0108341D01*
X0042998Y0109339D02*
X0038256Y0109339D01*
X0038344Y0110338D02*
X0042998Y0110338D01*
X0042998Y0111336D02*
X0038273Y0111336D01*
X0037859Y0112335D02*
X0042998Y0112335D01*
X0042998Y0113333D02*
X0037046Y0113333D01*
X0035282Y0114332D02*
X0042998Y0114332D01*
X0042998Y0115330D02*
X0006000Y0115330D01*
X0006000Y0114332D02*
X0006704Y0114332D01*
X0008230Y0114332D02*
X0009179Y0114332D01*
X0009179Y0114787D02*
X0009179Y0110833D01*
X0013134Y0110833D01*
X0013044Y0111400D01*
X0012828Y0112066D01*
X0012510Y0112690D01*
X0012098Y0113256D01*
X0011603Y0113752D01*
X0011036Y0114163D01*
X0010412Y0114481D01*
X0009746Y0114698D01*
X0009179Y0114787D01*
X0009179Y0113333D02*
X0008230Y0113333D01*
X0008230Y0112335D02*
X0009179Y0112335D01*
X0009179Y0111336D02*
X0008230Y0111336D01*
X0010706Y0114332D02*
X0033308Y0114332D01*
X0031544Y0113333D02*
X0012021Y0113333D01*
X0012691Y0112335D02*
X0030732Y0112335D01*
X0030318Y0111336D02*
X0013054Y0111336D01*
X0012286Y0118326D02*
X0042998Y0118326D01*
X0042998Y0119324D02*
X0036704Y0119324D01*
X0036589Y0119209D02*
X0037728Y0120348D01*
X0038344Y0121836D01*
X0038344Y0123447D01*
X0037728Y0124935D01*
X0036589Y0126074D01*
X0035101Y0126691D01*
X0033490Y0126691D01*
X0032002Y0126074D01*
X0030863Y0124935D01*
X0030246Y0123447D01*
X0030246Y0121836D01*
X0030863Y0120348D01*
X0032002Y0119209D01*
X0033490Y0118593D01*
X0035101Y0118593D01*
X0036589Y0119209D01*
X0037702Y0120323D02*
X0042998Y0120323D01*
X0042998Y0121321D02*
X0038131Y0121321D01*
X0038344Y0122320D02*
X0042998Y0122320D01*
X0042998Y0123318D02*
X0038344Y0123318D01*
X0037984Y0124317D02*
X0042998Y0124317D01*
X0042998Y0125315D02*
X0037347Y0125315D01*
X0036010Y0126314D02*
X0042998Y0126314D01*
X0042998Y0127312D02*
X0006000Y0127312D01*
X0006000Y0128311D02*
X0042998Y0128311D01*
X0042998Y0129309D02*
X0006000Y0129309D01*
X0006000Y0130308D02*
X0042998Y0130308D01*
X0041084Y0131306D02*
X0006000Y0131306D01*
X0006000Y0132305D02*
X0040086Y0132305D01*
X0039087Y0133303D02*
X0006000Y0133303D01*
X0006000Y0134302D02*
X0038089Y0134302D01*
X0037090Y0135301D02*
X0006000Y0135301D01*
X0006000Y0136299D02*
X0006872Y0136299D01*
X0008230Y0136299D02*
X0009179Y0136299D01*
X0009179Y0137298D02*
X0008230Y0137298D01*
X0008230Y0138296D02*
X0009179Y0138296D01*
X0009179Y0139295D02*
X0008230Y0139295D01*
X0009179Y0140293D02*
X0030246Y0140293D01*
X0030299Y0141292D02*
X0013061Y0141292D01*
X0013044Y0141400D02*
X0012828Y0142066D01*
X0012510Y0142690D01*
X0012098Y0143256D01*
X0011603Y0143752D01*
X0011036Y0144163D01*
X0010412Y0144481D01*
X0009746Y0144698D01*
X0009179Y0144787D01*
X0009179Y0140833D01*
X0013134Y0140833D01*
X0013044Y0141400D01*
X0012713Y0142290D02*
X0030713Y0142290D01*
X0031500Y0143289D02*
X0012066Y0143289D01*
X0010793Y0144287D02*
X0033200Y0144287D01*
X0035390Y0144287D02*
X0042628Y0144287D01*
X0042598Y0143289D02*
X0037091Y0143289D01*
X0037877Y0142290D02*
X0047650Y0142290D01*
X0048035Y0142209D02*
X0055791Y0142209D01*
X0056500Y0141500D01*
X0055195Y0139295D02*
X0053072Y0139295D01*
X0053472Y0140293D02*
X0109528Y0140293D01*
X0109528Y0141292D02*
X0053472Y0141292D01*
X0053472Y0143289D02*
X0109528Y0143289D01*
X0109557Y0144287D02*
X0053443Y0144287D01*
X0052712Y0145286D02*
X0110288Y0145286D01*
X0107091Y0142209D02*
X0114965Y0142209D01*
X0115350Y0142290D02*
X0124121Y0142290D01*
X0122923Y0143289D02*
X0120402Y0143289D01*
X0120372Y0144287D02*
X0122221Y0144287D01*
X0121808Y0145286D02*
X0119641Y0145286D01*
X0121700Y0146284D02*
X0006000Y0146284D01*
X0006000Y0145286D02*
X0043359Y0145286D01*
X0042598Y0141292D02*
X0038291Y0141292D01*
X0038344Y0140293D02*
X0042598Y0140293D01*
X0042998Y0139295D02*
X0038237Y0139295D01*
X0038620Y0138296D02*
X0042998Y0138296D01*
X0042998Y0137298D02*
X0039619Y0137298D01*
X0040617Y0136299D02*
X0042998Y0136299D01*
X0042998Y0135301D02*
X0041616Y0135301D01*
X0042614Y0134302D02*
X0042998Y0134302D01*
X0042445Y0132209D02*
X0034295Y0140358D01*
X0031630Y0137298D02*
X0011936Y0137298D01*
X0012647Y0138296D02*
X0030767Y0138296D01*
X0030353Y0139295D02*
X0013037Y0139295D01*
X0010537Y0136299D02*
X0036092Y0136299D01*
X0042445Y0132209D02*
X0048035Y0132209D01*
X0048035Y0137209D02*
X0055791Y0137209D01*
X0056500Y0136500D01*
X0054341Y0134302D02*
X0053072Y0134302D01*
X0053072Y0135301D02*
X0053662Y0135301D01*
X0053072Y0133303D02*
X0109928Y0133303D01*
X0109928Y0132305D02*
X0053072Y0132305D01*
X0053072Y0131306D02*
X0109928Y0131306D01*
X0109928Y0130308D02*
X0053072Y0130308D01*
X0053072Y0129309D02*
X0109928Y0129309D01*
X0109928Y0128311D02*
X0053072Y0128311D01*
X0053072Y0127312D02*
X0109928Y0127312D01*
X0109928Y0126314D02*
X0053072Y0126314D01*
X0053072Y0125315D02*
X0109928Y0125315D01*
X0109928Y0124317D02*
X0053072Y0124317D01*
X0053072Y0123318D02*
X0066447Y0123318D01*
X0066220Y0122320D02*
X0053072Y0122320D01*
X0053072Y0121321D02*
X0066220Y0121321D01*
X0066220Y0120323D02*
X0053072Y0120323D01*
X0053072Y0119324D02*
X0066220Y0119324D01*
X0066220Y0118326D02*
X0053072Y0118326D01*
X0053072Y0117327D02*
X0066220Y0117327D01*
X0066220Y0116329D02*
X0053072Y0116329D01*
X0053072Y0115330D02*
X0066220Y0115330D01*
X0066220Y0114332D02*
X0053072Y0114332D01*
X0053072Y0113333D02*
X0066220Y0113333D01*
X0066220Y0111336D02*
X0053072Y0111336D01*
X0053072Y0110338D02*
X0066220Y0110338D01*
X0066220Y0109339D02*
X0053072Y0109339D01*
X0053072Y0108341D02*
X0066220Y0108341D01*
X0066220Y0107342D02*
X0053072Y0107342D01*
X0053072Y0106344D02*
X0066220Y0106344D01*
X0066220Y0105345D02*
X0053072Y0105345D01*
X0053072Y0104347D02*
X0066220Y0104347D01*
X0066220Y0103348D02*
X0053072Y0103348D01*
X0053072Y0102350D02*
X0066299Y0102350D01*
X0077063Y0112335D02*
X0053072Y0112335D01*
X0042998Y0116329D02*
X0006000Y0116329D01*
X0006000Y0117327D02*
X0042998Y0117327D01*
X0031887Y0119324D02*
X0013108Y0119324D01*
X0013154Y0120323D02*
X0030888Y0120323D01*
X0030460Y0121321D02*
X0013154Y0121321D01*
X0013154Y0123318D02*
X0030246Y0123318D01*
X0030246Y0122320D02*
X0009179Y0122320D01*
X0009179Y0123318D02*
X0008230Y0123318D01*
X0008230Y0124317D02*
X0009179Y0124317D01*
X0009179Y0125315D02*
X0008230Y0125315D01*
X0008230Y0126314D02*
X0009179Y0126314D01*
X0012968Y0126314D02*
X0032581Y0126314D01*
X0031243Y0125315D02*
X0013154Y0125315D01*
X0013154Y0124317D02*
X0030607Y0124317D01*
X0048421Y0142290D02*
X0114579Y0142290D01*
X0114579Y0143289D02*
X0115350Y0143289D01*
X0115350Y0144287D02*
X0114579Y0144287D01*
X0114579Y0145286D02*
X0115350Y0145286D01*
X0120402Y0141292D02*
X0125525Y0141292D01*
X0127475Y0141292D02*
X0151921Y0141292D01*
X0151921Y0142290D02*
X0128879Y0142290D01*
X0130077Y0143289D02*
X0151921Y0143289D01*
X0151921Y0144287D02*
X0130779Y0144287D01*
X0131192Y0145286D02*
X0151921Y0145286D01*
X0151921Y0146284D02*
X0131300Y0146284D01*
X0129495Y0140293D02*
X0151921Y0140293D01*
X0151921Y0139295D02*
X0130494Y0139295D01*
X0130952Y0138296D02*
X0151921Y0138296D01*
X0151921Y0137298D02*
X0131300Y0137298D01*
X0131300Y0136299D02*
X0151921Y0136299D01*
X0151921Y0135301D02*
X0131199Y0135301D01*
X0130785Y0134302D02*
X0151921Y0134302D01*
X0151921Y0133303D02*
X0130092Y0133303D01*
X0128915Y0132305D02*
X0151921Y0132305D01*
X0151921Y0131306D02*
X0123589Y0131306D01*
X0123520Y0130308D02*
X0122591Y0130308D01*
X0122521Y0129309D02*
X0121592Y0129309D01*
X0122055Y0128311D02*
X0120594Y0128311D01*
X0120002Y0127312D02*
X0121700Y0127312D01*
X0121700Y0126314D02*
X0120002Y0126314D01*
X0120002Y0125315D02*
X0121795Y0125315D01*
X0122054Y0124317D02*
X0120002Y0124317D01*
X0122209Y0122209D02*
X0114965Y0122209D01*
X0114965Y0127209D02*
X0117229Y0127209D01*
X0126500Y0136480D01*
X0126500Y0136500D01*
X0123505Y0140293D02*
X0120402Y0140293D01*
X0120002Y0139295D02*
X0122506Y0139295D01*
X0122048Y0138296D02*
X0120002Y0138296D01*
X0120002Y0137298D02*
X0121700Y0137298D01*
X0121700Y0136299D02*
X0120002Y0136299D01*
X0120002Y0135301D02*
X0121801Y0135301D01*
X0122059Y0134302D02*
X0120002Y0134302D01*
X0120002Y0133303D02*
X0121061Y0133303D01*
X0120062Y0132305D02*
X0120002Y0132305D01*
X0126500Y0126500D02*
X0122209Y0122209D01*
X0123584Y0121321D02*
X0151921Y0121321D01*
X0151921Y0120323D02*
X0129465Y0120323D01*
X0129219Y0120569D02*
X0127455Y0121300D01*
X0125545Y0121300D01*
X0123781Y0120569D01*
X0122431Y0119219D01*
X0121700Y0117455D01*
X0121700Y0115545D01*
X0122431Y0113781D01*
X0123781Y0112431D01*
X0125545Y0111700D01*
X0127455Y0111700D01*
X0129219Y0112431D01*
X0130569Y0113781D01*
X0131300Y0115545D01*
X0131300Y0117455D01*
X0130569Y0119219D01*
X0129219Y0120569D01*
X0130464Y0119324D02*
X0151921Y0119324D01*
X0151921Y0118326D02*
X0130939Y0118326D01*
X0131300Y0117327D02*
X0151921Y0117327D01*
X0151921Y0116329D02*
X0131300Y0116329D01*
X0131211Y0115330D02*
X0151921Y0115330D01*
X0151921Y0114332D02*
X0130797Y0114332D01*
X0130121Y0113333D02*
X0151921Y0113333D01*
X0151921Y0112335D02*
X0128987Y0112335D01*
X0124013Y0112335D02*
X0120002Y0112335D01*
X0120002Y0113333D02*
X0122879Y0113333D01*
X0122203Y0114332D02*
X0120002Y0114332D01*
X0120002Y0115330D02*
X0121789Y0115330D01*
X0121700Y0116329D02*
X0120002Y0116329D01*
X0120002Y0117327D02*
X0121700Y0117327D01*
X0122061Y0118326D02*
X0120002Y0118326D01*
X0120002Y0119324D02*
X0122536Y0119324D01*
X0123535Y0120323D02*
X0120002Y0120323D01*
X0128951Y0122320D02*
X0151921Y0122320D01*
X0151921Y0123318D02*
X0130107Y0123318D01*
X0130791Y0124317D02*
X0151921Y0124317D01*
X0151921Y0125315D02*
X0131205Y0125315D01*
X0131300Y0126314D02*
X0151921Y0126314D01*
X0151921Y0127312D02*
X0131300Y0127312D01*
X0130945Y0128311D02*
X0151921Y0128311D01*
X0151921Y0129309D02*
X0130479Y0129309D01*
X0129480Y0130308D02*
X0151921Y0130308D01*
X0121416Y0095360D02*
X0120002Y0095360D01*
X0120002Y0094362D02*
X0121753Y0094362D01*
X0122352Y0093363D02*
X0120002Y0093363D01*
X0115673Y0091500D02*
X0114965Y0092209D01*
X0109928Y0101351D02*
X0087650Y0101351D01*
X0088827Y0102350D02*
X0109928Y0102350D01*
X0109928Y0103348D02*
X0088905Y0103348D01*
X0088905Y0104347D02*
X0109928Y0104347D01*
X0109928Y0105345D02*
X0088905Y0105345D01*
X0088905Y0106344D02*
X0109928Y0106344D01*
X0109928Y0107342D02*
X0088905Y0107342D01*
X0088905Y0108341D02*
X0109928Y0108341D01*
X0109928Y0109339D02*
X0088905Y0109339D01*
X0088905Y0110338D02*
X0109928Y0110338D01*
X0109928Y0111336D02*
X0088905Y0111336D01*
X0088905Y0113333D02*
X0109928Y0113333D01*
X0109928Y0112335D02*
X0078063Y0112335D01*
X0077563Y0112681D02*
X0107091Y0142209D01*
X0109928Y0139295D02*
X0057805Y0139295D01*
X0059061Y0138296D02*
X0109928Y0138296D01*
X0109928Y0137298D02*
X0059505Y0137298D01*
X0059581Y0136299D02*
X0109928Y0136299D01*
X0109928Y0135301D02*
X0059338Y0135301D01*
X0058659Y0134302D02*
X0109928Y0134302D01*
X0109928Y0123318D02*
X0088679Y0123318D01*
X0088905Y0122320D02*
X0109928Y0122320D01*
X0109928Y0121321D02*
X0088905Y0121321D01*
X0088905Y0120323D02*
X0109928Y0120323D01*
X0109928Y0119324D02*
X0088905Y0119324D01*
X0088905Y0118326D02*
X0109928Y0118326D01*
X0109928Y0117327D02*
X0088905Y0117327D01*
X0088905Y0116329D02*
X0109928Y0116329D01*
X0109928Y0115330D02*
X0088905Y0115330D01*
X0088905Y0114332D02*
X0109928Y0114332D01*
X0120002Y0076388D02*
X0120100Y0076388D01*
X0120100Y0075390D02*
X0120002Y0075390D01*
X0120100Y0074391D02*
X0119412Y0074391D01*
X0118965Y0073393D02*
X0120100Y0073393D01*
X0120100Y0072394D02*
X0119465Y0072394D01*
X0119581Y0071396D02*
X0120100Y0071396D01*
X0120100Y0070397D02*
X0119378Y0070397D01*
X0118756Y0069399D02*
X0120100Y0069399D01*
X0120100Y0066403D02*
X0027540Y0066403D01*
X0022000Y0066403D02*
X0021000Y0066403D01*
X0021000Y0067402D02*
X0022000Y0067402D01*
X0022000Y0068400D02*
X0021000Y0068400D01*
X0021000Y0069399D02*
X0022000Y0069399D01*
X0022000Y0070397D02*
X0021000Y0070397D01*
X0021000Y0071396D02*
X0022000Y0071396D01*
X0022000Y0072394D02*
X0021000Y0072394D01*
X0027921Y0073393D02*
X0058614Y0073393D01*
X0058614Y0074391D02*
X0059386Y0074391D01*
X0059386Y0075390D02*
X0058614Y0075390D01*
X0058614Y0076388D02*
X0059386Y0076388D01*
X0059386Y0077387D02*
X0058614Y0077387D01*
X0058614Y0078385D02*
X0059386Y0078385D01*
X0061716Y0078385D02*
X0072352Y0078385D01*
X0071607Y0068400D02*
X0071393Y0068400D01*
X0066607Y0068400D02*
X0066393Y0068400D01*
X0059386Y0068400D02*
X0058614Y0068400D01*
X0058614Y0069399D02*
X0059386Y0069399D01*
X0059386Y0070397D02*
X0058614Y0070397D01*
X0058614Y0071396D02*
X0059386Y0071396D01*
X0059386Y0072394D02*
X0058614Y0072394D01*
X0076393Y0068400D02*
X0076607Y0068400D01*
X0081393Y0068400D02*
X0081607Y0068400D01*
X0086393Y0068400D02*
X0086607Y0068400D01*
X0091393Y0068400D02*
X0091607Y0068400D01*
X0096393Y0068400D02*
X0096607Y0068400D01*
X0101393Y0068400D02*
X0101607Y0068400D01*
X0130273Y0054421D02*
X0027521Y0054421D01*
X0027521Y0053423D02*
X0131271Y0053423D01*
X0132270Y0052424D02*
X0027521Y0052424D01*
X0027521Y0051426D02*
X0133268Y0051426D01*
X0134267Y0050427D02*
X0027521Y0050427D01*
X0027521Y0049429D02*
X0044007Y0049429D01*
X0044341Y0049763D02*
X0043300Y0048722D01*
X0042737Y0047362D01*
X0042737Y0045890D01*
X0043300Y0044530D01*
X0044341Y0043489D01*
X0045701Y0042926D01*
X0047173Y0042926D01*
X0048533Y0043489D01*
X0049574Y0044530D01*
X0050137Y0045890D01*
X0050137Y0047362D01*
X0049574Y0048722D01*
X0048533Y0049763D01*
X0047173Y0050326D01*
X0045701Y0050326D01*
X0044341Y0049763D01*
X0043179Y0048430D02*
X0027521Y0048430D01*
X0027521Y0047432D02*
X0042766Y0047432D01*
X0042737Y0046433D02*
X0027521Y0046433D01*
X0027521Y0045434D02*
X0042926Y0045434D01*
X0043394Y0044436D02*
X0027521Y0044436D01*
X0027521Y0043437D02*
X0044466Y0043437D01*
X0045701Y0042200D02*
X0044341Y0041637D01*
X0043300Y0040596D01*
X0042737Y0039236D01*
X0042737Y0037764D01*
X0043300Y0036404D01*
X0044341Y0035363D01*
X0045701Y0034800D01*
X0047173Y0034800D01*
X0048533Y0035363D01*
X0049574Y0036404D01*
X0050137Y0037764D01*
X0050137Y0039236D01*
X0049574Y0040596D01*
X0048533Y0041637D01*
X0047173Y0042200D01*
X0045701Y0042200D01*
X0044145Y0041440D02*
X0027521Y0041440D01*
X0027521Y0042439D02*
X0151921Y0042439D01*
X0151921Y0043437D02*
X0048408Y0043437D01*
X0049480Y0044436D02*
X0151921Y0044436D01*
X0151921Y0045434D02*
X0049948Y0045434D01*
X0050137Y0046433D02*
X0151921Y0046433D01*
X0151921Y0047432D02*
X0050108Y0047432D01*
X0049695Y0048430D02*
X0136264Y0048430D01*
X0135265Y0049429D02*
X0048867Y0049429D01*
X0048729Y0041440D02*
X0151921Y0041440D01*
X0151921Y0040442D02*
X0049637Y0040442D01*
X0050051Y0039443D02*
X0151921Y0039443D01*
X0151921Y0038445D02*
X0050137Y0038445D01*
X0050005Y0037446D02*
X0151921Y0037446D01*
X0151921Y0036448D02*
X0049592Y0036448D01*
X0048619Y0035449D02*
X0151921Y0035449D01*
X0151921Y0034451D02*
X0035337Y0034451D01*
X0035569Y0034219D02*
X0034219Y0035569D01*
X0032455Y0036300D01*
X0030545Y0036300D01*
X0028781Y0035569D01*
X0027431Y0034219D01*
X0026700Y0032455D01*
X0026700Y0030545D01*
X0027431Y0028781D01*
X0028781Y0027431D01*
X0030545Y0026700D01*
X0032455Y0026700D01*
X0034219Y0027431D01*
X0035569Y0028781D01*
X0036300Y0030545D01*
X0036300Y0032455D01*
X0035569Y0034219D01*
X0035887Y0033452D02*
X0044031Y0033452D01*
X0044341Y0033763D02*
X0043300Y0032722D01*
X0042737Y0031362D01*
X0042737Y0029890D01*
X0043300Y0028530D01*
X0044341Y0027489D01*
X0045701Y0026926D01*
X0047173Y0026926D01*
X0048533Y0027489D01*
X0049574Y0028530D01*
X0050137Y0029890D01*
X0050137Y0031362D01*
X0049574Y0032722D01*
X0048533Y0033763D01*
X0047173Y0034326D01*
X0045701Y0034326D01*
X0044341Y0033763D01*
X0044255Y0035449D02*
X0034339Y0035449D01*
X0036300Y0032454D02*
X0043189Y0032454D01*
X0042776Y0031455D02*
X0036300Y0031455D01*
X0036263Y0030457D02*
X0042737Y0030457D01*
X0042916Y0029458D02*
X0035850Y0029458D01*
X0035248Y0028460D02*
X0043371Y0028460D01*
X0044409Y0027461D02*
X0034250Y0027461D01*
X0034219Y0025569D02*
X0032455Y0026300D01*
X0030545Y0026300D01*
X0028781Y0025569D01*
X0027431Y0024219D01*
X0027174Y0023600D01*
X0022370Y0023600D01*
X0016044Y0029926D01*
X0016300Y0030545D01*
X0016300Y0032455D01*
X0015569Y0034219D01*
X0014219Y0035569D01*
X0012455Y0036300D01*
X0010545Y0036300D01*
X0008781Y0035569D01*
X0007431Y0034219D01*
X0006700Y0032455D01*
X0006700Y0030545D01*
X0007431Y0028781D01*
X0008781Y0027431D01*
X0010545Y0026700D01*
X0012455Y0026700D01*
X0013074Y0026956D01*
X0020630Y0019400D01*
X0027174Y0019400D01*
X0027431Y0018781D01*
X0028781Y0017431D01*
X0030545Y0016700D01*
X0032455Y0016700D01*
X0034219Y0017431D01*
X0035569Y0018781D01*
X0036300Y0020545D01*
X0036300Y0022455D01*
X0035569Y0024219D01*
X0034219Y0025569D01*
X0034324Y0025464D02*
X0044169Y0025464D01*
X0044341Y0025637D02*
X0043300Y0024596D01*
X0042737Y0023236D01*
X0042737Y0021764D01*
X0043300Y0020404D01*
X0044341Y0019363D01*
X0045701Y0018800D01*
X0047173Y0018800D01*
X0048533Y0019363D01*
X0049574Y0020404D01*
X0050137Y0021764D01*
X0050137Y0023236D01*
X0049574Y0024596D01*
X0048533Y0025637D01*
X0047173Y0026200D01*
X0045701Y0026200D01*
X0044341Y0025637D01*
X0043246Y0024466D02*
X0035322Y0024466D01*
X0035881Y0023467D02*
X0042833Y0023467D01*
X0042737Y0022469D02*
X0036294Y0022469D01*
X0036300Y0021470D02*
X0042859Y0021470D01*
X0043272Y0020472D02*
X0036270Y0020472D01*
X0035856Y0019473D02*
X0044231Y0019473D01*
X0044341Y0017763D02*
X0043300Y0016722D01*
X0042737Y0015362D01*
X0042737Y0013890D01*
X0043300Y0012530D01*
X0044341Y0011489D01*
X0045701Y0010926D01*
X0047173Y0010926D01*
X0048533Y0011489D01*
X0049574Y0012530D01*
X0050137Y0013890D01*
X0050137Y0015362D01*
X0049574Y0016722D01*
X0048533Y0017763D01*
X0047173Y0018326D01*
X0045701Y0018326D01*
X0044341Y0017763D01*
X0044055Y0017476D02*
X0034264Y0017476D01*
X0033496Y0016319D02*
X0032718Y0016572D01*
X0032000Y0016686D01*
X0032000Y0012000D01*
X0036686Y0012000D01*
X0036572Y0012718D01*
X0036319Y0013496D01*
X0035947Y0014225D01*
X0035466Y0014888D01*
X0034888Y0015466D01*
X0034225Y0015947D01*
X0033496Y0016319D01*
X0033008Y0016478D02*
X0043199Y0016478D01*
X0042786Y0015479D02*
X0034870Y0015479D01*
X0035762Y0014481D02*
X0042737Y0014481D01*
X0042906Y0013482D02*
X0036324Y0013482D01*
X0036609Y0012484D02*
X0043347Y0012484D01*
X0044351Y0011485D02*
X0032000Y0011485D01*
X0032000Y0011000D02*
X0032000Y0012000D01*
X0031000Y0012000D01*
X0031000Y0016686D01*
X0030282Y0016572D01*
X0029504Y0016319D01*
X0028775Y0015947D01*
X0028112Y0015466D01*
X0027534Y0014888D01*
X0027053Y0014225D01*
X0026681Y0013496D01*
X0026428Y0012718D01*
X0026314Y0012000D01*
X0031000Y0012000D01*
X0031000Y0011000D01*
X0032000Y0011000D01*
X0036686Y0011000D01*
X0036572Y0010282D01*
X0036319Y0009504D01*
X0035947Y0008775D01*
X0035466Y0008112D01*
X0034888Y0007534D01*
X0034225Y0007053D01*
X0033496Y0006681D01*
X0032718Y0006428D01*
X0032000Y0006314D01*
X0032000Y0011000D01*
X0032000Y0010487D02*
X0031000Y0010487D01*
X0031000Y0011000D02*
X0031000Y0006314D01*
X0030282Y0006428D01*
X0029504Y0006681D01*
X0028775Y0007053D01*
X0028112Y0007534D01*
X0027534Y0008112D01*
X0027053Y0008775D01*
X0026681Y0009504D01*
X0026428Y0010282D01*
X0026314Y0011000D01*
X0031000Y0011000D01*
X0031000Y0011485D02*
X0021905Y0011485D01*
X0021905Y0010487D02*
X0026396Y0010487D01*
X0026689Y0009488D02*
X0021733Y0009488D01*
X0021466Y0008490D02*
X0027260Y0008490D01*
X0028171Y0007491D02*
X0021198Y0007491D01*
X0020624Y0006493D02*
X0030084Y0006493D01*
X0031000Y0006493D02*
X0032000Y0006493D01*
X0032916Y0006493D02*
X0137376Y0006493D01*
X0136802Y0007491D02*
X0034829Y0007491D01*
X0035740Y0008490D02*
X0136534Y0008490D01*
X0136267Y0009488D02*
X0036311Y0009488D01*
X0036604Y0010487D02*
X0136095Y0010487D01*
X0136095Y0011485D02*
X0048523Y0011485D01*
X0049527Y0012484D02*
X0136095Y0012484D01*
X0136259Y0013482D02*
X0049968Y0013482D01*
X0050137Y0014481D02*
X0136526Y0014481D01*
X0136794Y0015479D02*
X0050088Y0015479D01*
X0049675Y0016478D02*
X0137359Y0016478D01*
X0137935Y0017476D02*
X0048819Y0017476D01*
X0048643Y0019473D02*
X0139758Y0019473D01*
X0138759Y0018475D02*
X0035263Y0018475D01*
X0032000Y0016478D02*
X0031000Y0016478D01*
X0031000Y0015479D02*
X0032000Y0015479D01*
X0032000Y0014481D02*
X0031000Y0014481D01*
X0031000Y0013482D02*
X0032000Y0013482D01*
X0032000Y0012484D02*
X0031000Y0012484D01*
X0031000Y0009488D02*
X0032000Y0009488D01*
X0032000Y0008490D02*
X0031000Y0008490D01*
X0031000Y0007491D02*
X0032000Y0007491D01*
X0026391Y0012484D02*
X0021905Y0012484D01*
X0021741Y0013482D02*
X0026676Y0013482D01*
X0027238Y0014481D02*
X0021474Y0014481D01*
X0021206Y0015479D02*
X0028130Y0015479D01*
X0028736Y0017476D02*
X0020065Y0017476D01*
X0020641Y0016478D02*
X0029992Y0016478D01*
X0027737Y0018475D02*
X0019241Y0018475D01*
X0018242Y0019473D02*
X0020557Y0019473D01*
X0019558Y0020472D02*
X0016772Y0020472D01*
X0018560Y0021470D02*
X0014494Y0021470D01*
X0016563Y0023467D02*
X0006000Y0023467D01*
X0006000Y0022469D02*
X0017561Y0022469D01*
X0015564Y0024466D02*
X0006000Y0024466D01*
X0006000Y0025464D02*
X0014566Y0025464D01*
X0013567Y0026463D02*
X0006000Y0026463D01*
X0006000Y0027461D02*
X0008750Y0027461D01*
X0007752Y0028460D02*
X0006000Y0028460D01*
X0006000Y0029458D02*
X0007150Y0029458D01*
X0006737Y0030457D02*
X0006000Y0030457D01*
X0006000Y0031455D02*
X0006700Y0031455D01*
X0006700Y0032454D02*
X0006000Y0032454D01*
X0006000Y0033452D02*
X0007113Y0033452D01*
X0007663Y0034451D02*
X0006000Y0034451D01*
X0006000Y0035449D02*
X0008661Y0035449D01*
X0006000Y0036448D02*
X0019400Y0036448D01*
X0019400Y0037446D02*
X0006000Y0037446D01*
X0006000Y0038445D02*
X0019400Y0038445D01*
X0019400Y0039443D02*
X0006000Y0039443D01*
X0006000Y0040442D02*
X0019400Y0040442D01*
X0023600Y0040442D02*
X0043237Y0040442D01*
X0042823Y0039443D02*
X0023600Y0039443D01*
X0023600Y0038445D02*
X0042737Y0038445D01*
X0042869Y0037446D02*
X0023600Y0037446D01*
X0023600Y0036448D02*
X0043282Y0036448D01*
X0048843Y0033452D02*
X0151921Y0033452D01*
X0151921Y0032454D02*
X0049685Y0032454D01*
X0050098Y0031455D02*
X0151921Y0031455D01*
X0151921Y0030457D02*
X0050137Y0030457D01*
X0049958Y0029458D02*
X0151921Y0029458D01*
X0151921Y0028460D02*
X0049503Y0028460D01*
X0048465Y0027461D02*
X0151921Y0027461D01*
X0151921Y0026463D02*
X0019507Y0026463D01*
X0018750Y0027461D02*
X0018509Y0027461D01*
X0017752Y0028460D02*
X0017510Y0028460D01*
X0017150Y0029458D02*
X0016512Y0029458D01*
X0016737Y0030457D02*
X0016263Y0030457D01*
X0016300Y0031455D02*
X0016700Y0031455D01*
X0016700Y0032454D02*
X0016300Y0032454D01*
X0015887Y0033452D02*
X0017113Y0033452D01*
X0017663Y0034451D02*
X0015337Y0034451D01*
X0014339Y0035449D02*
X0018661Y0035449D01*
X0015479Y0041440D02*
X0006000Y0041440D01*
X0006000Y0042439D02*
X0015479Y0042439D01*
X0015479Y0043437D02*
X0006000Y0043437D01*
X0006000Y0044436D02*
X0015479Y0044436D01*
X0015479Y0045434D02*
X0006000Y0045434D01*
X0006000Y0046433D02*
X0015479Y0046433D01*
X0015479Y0047432D02*
X0006000Y0047432D01*
X0006000Y0048430D02*
X0015479Y0048430D01*
X0015479Y0049429D02*
X0006000Y0049429D01*
X0006000Y0050427D02*
X0015479Y0050427D01*
X0015479Y0051426D02*
X0006000Y0051426D01*
X0006000Y0052424D02*
X0014811Y0052424D01*
X0013812Y0053423D02*
X0006000Y0053423D01*
X0006000Y0054421D02*
X0012814Y0054421D01*
X0011815Y0055420D02*
X0006000Y0055420D01*
X0006000Y0056418D02*
X0010817Y0056418D01*
X0009818Y0057417D02*
X0006000Y0057417D01*
X0006000Y0058415D02*
X0008820Y0058415D01*
X0007821Y0059414D02*
X0006000Y0059414D01*
X0006000Y0060412D02*
X0006823Y0060412D01*
X0024339Y0035449D02*
X0028661Y0035449D01*
X0027663Y0034451D02*
X0025337Y0034451D01*
X0025887Y0033452D02*
X0027113Y0033452D01*
X0026700Y0032454D02*
X0026300Y0032454D01*
X0026300Y0031455D02*
X0026700Y0031455D01*
X0026737Y0030457D02*
X0026263Y0030457D01*
X0025850Y0029458D02*
X0027150Y0029458D01*
X0027752Y0028460D02*
X0025248Y0028460D01*
X0024250Y0027461D02*
X0028750Y0027461D01*
X0028676Y0025464D02*
X0020506Y0025464D01*
X0021504Y0024466D02*
X0027678Y0024466D01*
X0008506Y0021470D02*
X0006000Y0021470D01*
X0006000Y0020472D02*
X0006228Y0020472D01*
X0048705Y0025464D02*
X0151921Y0025464D01*
X0151921Y0024466D02*
X0049628Y0024466D01*
X0050041Y0023467D02*
X0151921Y0023467D01*
X0151921Y0022469D02*
X0050137Y0022469D01*
X0050015Y0021470D02*
X0143506Y0021470D01*
X0141228Y0020472D02*
X0049602Y0020472D01*
X0030246Y0093363D02*
X0013154Y0093363D01*
X0013154Y0094362D02*
X0030625Y0094362D01*
X0031288Y0095360D02*
X0013154Y0095360D01*
X0012942Y0096359D02*
X0032688Y0096359D01*
X0009179Y0096359D02*
X0008230Y0096359D01*
X0008230Y0095360D02*
X0009179Y0095360D01*
X0009179Y0094362D02*
X0008230Y0094362D01*
X0008230Y0093363D02*
X0009179Y0093363D01*
X0009179Y0118326D02*
X0008230Y0118326D01*
X0008230Y0119324D02*
X0009179Y0119324D01*
X0009179Y0120323D02*
X0008230Y0120323D01*
X0008230Y0121321D02*
X0009179Y0121321D01*
X0009179Y0141292D02*
X0008230Y0141292D01*
X0008230Y0142290D02*
X0009179Y0142290D01*
X0009179Y0143289D02*
X0008230Y0143289D01*
X0008230Y0144287D02*
X0009179Y0144287D01*
X0006616Y0144287D02*
X0006000Y0144287D01*
X0047650Y0144287D02*
X0048421Y0144287D01*
X0048421Y0143289D02*
X0047650Y0143289D01*
X0047650Y0145286D02*
X0048421Y0145286D01*
X0133100Y0077387D02*
X0133887Y0077387D01*
X0148877Y0056418D02*
X0151921Y0056418D01*
X0151921Y0055420D02*
X0149699Y0055420D01*
X0150113Y0054421D02*
X0151921Y0054421D01*
X0151921Y0053423D02*
X0150137Y0053423D01*
X0149944Y0052424D02*
X0151921Y0052424D01*
X0151921Y0051426D02*
X0149469Y0051426D01*
X0148383Y0050427D02*
X0151921Y0050427D01*
X0151921Y0049429D02*
X0141861Y0049429D01*
X0142859Y0050427D02*
X0144491Y0050427D01*
X0140862Y0048430D02*
X0151921Y0048430D01*
X0151921Y0021470D02*
X0149494Y0021470D01*
X0151772Y0020472D02*
X0151921Y0020472D01*
D21*
X0116500Y0071500D03*
X0066500Y0086500D03*
X0076500Y0131500D03*
X0056500Y0136500D03*
X0056500Y0141500D03*
X0007481Y0066500D03*
D22*
X0007481Y0062724D01*
X0021500Y0048705D01*
X0021500Y0031500D01*
X0021500Y0021500D02*
X0011500Y0031500D01*
X0021500Y0021500D02*
X0031500Y0021500D01*
X0036800Y0019305D02*
X0036800Y0058995D01*
X0021500Y0074295D01*
X0042977Y0074295D01*
X0043436Y0073837D01*
X0058435Y0073837D01*
X0059000Y0073272D01*
X0036800Y0019305D02*
X0031500Y0014005D01*
X0031500Y0011500D01*
M02*
