%
M48
M72
T01C0.0236
T02C0.0320
T03C0.0390
T04C0.0400
T05C0.1181
%
T01
X748Y6650
X6650Y8650
X7650Y13150
X5650Y13650
X5650Y14150
X11650Y7150
T02
X12650Y8150
X13650Y8150
X13856Y6150
X13856Y5363
X14644Y5363
X14644Y6150
X4644Y4663
X4644Y3850
X4644Y3063
X4644Y2250
X4644Y1463
T03
X3430Y9264
X3430Y11036
X3430Y12264
X3430Y14036
X870Y14036
X870Y12264
X870Y11036
X870Y9264
T04
X1150Y3150
X2150Y3150
X3150Y3150
X3150Y2150
X3150Y1150
X12650Y9650
X12650Y10650
X12650Y11650
X12650Y12650
X12650Y13650
X12650Y14650
T05
X1150Y1150
X14650Y1150
X14650Y16650
X1150Y16650
M30
