G75*
%MOIN*%
%OFA0B0*%
%FSLAX25Y25*%
%IPPOS*%
%LPD*%
%AMOC8*
5,1,8,0,0,1.08239X$1,22.5*
%
%ADD10C,0.00000*%
%ADD11C,0.00400*%
%ADD12C,0.00100*%
%ADD13C,0.01000*%
%ADD14C,0.00500*%
%ADD15C,0.00800*%
%ADD16C,0.00600*%
D10*
X0001500Y0020000D02*
X0001500Y0253701D01*
X0241421Y0253701D01*
X0241421Y0020000D01*
X0001500Y0020000D01*
X0005595Y0245000D02*
X0005597Y0245153D01*
X0005603Y0245306D01*
X0005613Y0245459D01*
X0005627Y0245612D01*
X0005645Y0245764D01*
X0005667Y0245916D01*
X0005692Y0246067D01*
X0005722Y0246218D01*
X0005755Y0246367D01*
X0005793Y0246516D01*
X0005834Y0246664D01*
X0005879Y0246810D01*
X0005928Y0246955D01*
X0005981Y0247099D01*
X0006037Y0247242D01*
X0006097Y0247383D01*
X0006161Y0247523D01*
X0006228Y0247660D01*
X0006299Y0247796D01*
X0006373Y0247930D01*
X0006451Y0248062D01*
X0006532Y0248192D01*
X0006617Y0248320D01*
X0006705Y0248446D01*
X0006796Y0248569D01*
X0006890Y0248690D01*
X0006987Y0248809D01*
X0007088Y0248925D01*
X0007191Y0249038D01*
X0007298Y0249148D01*
X0007407Y0249256D01*
X0007518Y0249361D01*
X0007633Y0249463D01*
X0007750Y0249562D01*
X0007870Y0249657D01*
X0007992Y0249750D01*
X0008117Y0249840D01*
X0008243Y0249926D01*
X0008372Y0250009D01*
X0008503Y0250088D01*
X0008636Y0250164D01*
X0008771Y0250237D01*
X0008908Y0250306D01*
X0009047Y0250371D01*
X0009187Y0250433D01*
X0009329Y0250491D01*
X0009472Y0250546D01*
X0009617Y0250597D01*
X0009763Y0250644D01*
X0009910Y0250687D01*
X0010058Y0250726D01*
X0010207Y0250762D01*
X0010357Y0250793D01*
X0010508Y0250821D01*
X0010660Y0250845D01*
X0010812Y0250865D01*
X0010964Y0250881D01*
X0011117Y0250893D01*
X0011270Y0250901D01*
X0011423Y0250905D01*
X0011577Y0250905D01*
X0011730Y0250901D01*
X0011883Y0250893D01*
X0012036Y0250881D01*
X0012188Y0250865D01*
X0012340Y0250845D01*
X0012492Y0250821D01*
X0012643Y0250793D01*
X0012793Y0250762D01*
X0012942Y0250726D01*
X0013090Y0250687D01*
X0013237Y0250644D01*
X0013383Y0250597D01*
X0013528Y0250546D01*
X0013671Y0250491D01*
X0013813Y0250433D01*
X0013953Y0250371D01*
X0014092Y0250306D01*
X0014229Y0250237D01*
X0014364Y0250164D01*
X0014497Y0250088D01*
X0014628Y0250009D01*
X0014757Y0249926D01*
X0014883Y0249840D01*
X0015008Y0249750D01*
X0015130Y0249657D01*
X0015250Y0249562D01*
X0015367Y0249463D01*
X0015482Y0249361D01*
X0015593Y0249256D01*
X0015702Y0249148D01*
X0015809Y0249038D01*
X0015912Y0248925D01*
X0016013Y0248809D01*
X0016110Y0248690D01*
X0016204Y0248569D01*
X0016295Y0248446D01*
X0016383Y0248320D01*
X0016468Y0248192D01*
X0016549Y0248062D01*
X0016627Y0247930D01*
X0016701Y0247796D01*
X0016772Y0247660D01*
X0016839Y0247523D01*
X0016903Y0247383D01*
X0016963Y0247242D01*
X0017019Y0247099D01*
X0017072Y0246955D01*
X0017121Y0246810D01*
X0017166Y0246664D01*
X0017207Y0246516D01*
X0017245Y0246367D01*
X0017278Y0246218D01*
X0017308Y0246067D01*
X0017333Y0245916D01*
X0017355Y0245764D01*
X0017373Y0245612D01*
X0017387Y0245459D01*
X0017397Y0245306D01*
X0017403Y0245153D01*
X0017405Y0245000D01*
X0017403Y0244847D01*
X0017397Y0244694D01*
X0017387Y0244541D01*
X0017373Y0244388D01*
X0017355Y0244236D01*
X0017333Y0244084D01*
X0017308Y0243933D01*
X0017278Y0243782D01*
X0017245Y0243633D01*
X0017207Y0243484D01*
X0017166Y0243336D01*
X0017121Y0243190D01*
X0017072Y0243045D01*
X0017019Y0242901D01*
X0016963Y0242758D01*
X0016903Y0242617D01*
X0016839Y0242477D01*
X0016772Y0242340D01*
X0016701Y0242204D01*
X0016627Y0242070D01*
X0016549Y0241938D01*
X0016468Y0241808D01*
X0016383Y0241680D01*
X0016295Y0241554D01*
X0016204Y0241431D01*
X0016110Y0241310D01*
X0016013Y0241191D01*
X0015912Y0241075D01*
X0015809Y0240962D01*
X0015702Y0240852D01*
X0015593Y0240744D01*
X0015482Y0240639D01*
X0015367Y0240537D01*
X0015250Y0240438D01*
X0015130Y0240343D01*
X0015008Y0240250D01*
X0014883Y0240160D01*
X0014757Y0240074D01*
X0014628Y0239991D01*
X0014497Y0239912D01*
X0014364Y0239836D01*
X0014229Y0239763D01*
X0014092Y0239694D01*
X0013953Y0239629D01*
X0013813Y0239567D01*
X0013671Y0239509D01*
X0013528Y0239454D01*
X0013383Y0239403D01*
X0013237Y0239356D01*
X0013090Y0239313D01*
X0012942Y0239274D01*
X0012793Y0239238D01*
X0012643Y0239207D01*
X0012492Y0239179D01*
X0012340Y0239155D01*
X0012188Y0239135D01*
X0012036Y0239119D01*
X0011883Y0239107D01*
X0011730Y0239099D01*
X0011577Y0239095D01*
X0011423Y0239095D01*
X0011270Y0239099D01*
X0011117Y0239107D01*
X0010964Y0239119D01*
X0010812Y0239135D01*
X0010660Y0239155D01*
X0010508Y0239179D01*
X0010357Y0239207D01*
X0010207Y0239238D01*
X0010058Y0239274D01*
X0009910Y0239313D01*
X0009763Y0239356D01*
X0009617Y0239403D01*
X0009472Y0239454D01*
X0009329Y0239509D01*
X0009187Y0239567D01*
X0009047Y0239629D01*
X0008908Y0239694D01*
X0008771Y0239763D01*
X0008636Y0239836D01*
X0008503Y0239912D01*
X0008372Y0239991D01*
X0008243Y0240074D01*
X0008117Y0240160D01*
X0007992Y0240250D01*
X0007870Y0240343D01*
X0007750Y0240438D01*
X0007633Y0240537D01*
X0007518Y0240639D01*
X0007407Y0240744D01*
X0007298Y0240852D01*
X0007191Y0240962D01*
X0007088Y0241075D01*
X0006987Y0241191D01*
X0006890Y0241310D01*
X0006796Y0241431D01*
X0006705Y0241554D01*
X0006617Y0241680D01*
X0006532Y0241808D01*
X0006451Y0241938D01*
X0006373Y0242070D01*
X0006299Y0242204D01*
X0006228Y0242340D01*
X0006161Y0242477D01*
X0006097Y0242617D01*
X0006037Y0242758D01*
X0005981Y0242901D01*
X0005928Y0243045D01*
X0005879Y0243190D01*
X0005834Y0243336D01*
X0005793Y0243484D01*
X0005755Y0243633D01*
X0005722Y0243782D01*
X0005692Y0243933D01*
X0005667Y0244084D01*
X0005645Y0244236D01*
X0005627Y0244388D01*
X0005613Y0244541D01*
X0005603Y0244694D01*
X0005597Y0244847D01*
X0005595Y0245000D01*
X0225595Y0245000D02*
X0225597Y0245153D01*
X0225603Y0245306D01*
X0225613Y0245459D01*
X0225627Y0245612D01*
X0225645Y0245764D01*
X0225667Y0245916D01*
X0225692Y0246067D01*
X0225722Y0246218D01*
X0225755Y0246367D01*
X0225793Y0246516D01*
X0225834Y0246664D01*
X0225879Y0246810D01*
X0225928Y0246955D01*
X0225981Y0247099D01*
X0226037Y0247242D01*
X0226097Y0247383D01*
X0226161Y0247523D01*
X0226228Y0247660D01*
X0226299Y0247796D01*
X0226373Y0247930D01*
X0226451Y0248062D01*
X0226532Y0248192D01*
X0226617Y0248320D01*
X0226705Y0248446D01*
X0226796Y0248569D01*
X0226890Y0248690D01*
X0226987Y0248809D01*
X0227088Y0248925D01*
X0227191Y0249038D01*
X0227298Y0249148D01*
X0227407Y0249256D01*
X0227518Y0249361D01*
X0227633Y0249463D01*
X0227750Y0249562D01*
X0227870Y0249657D01*
X0227992Y0249750D01*
X0228117Y0249840D01*
X0228243Y0249926D01*
X0228372Y0250009D01*
X0228503Y0250088D01*
X0228636Y0250164D01*
X0228771Y0250237D01*
X0228908Y0250306D01*
X0229047Y0250371D01*
X0229187Y0250433D01*
X0229329Y0250491D01*
X0229472Y0250546D01*
X0229617Y0250597D01*
X0229763Y0250644D01*
X0229910Y0250687D01*
X0230058Y0250726D01*
X0230207Y0250762D01*
X0230357Y0250793D01*
X0230508Y0250821D01*
X0230660Y0250845D01*
X0230812Y0250865D01*
X0230964Y0250881D01*
X0231117Y0250893D01*
X0231270Y0250901D01*
X0231423Y0250905D01*
X0231577Y0250905D01*
X0231730Y0250901D01*
X0231883Y0250893D01*
X0232036Y0250881D01*
X0232188Y0250865D01*
X0232340Y0250845D01*
X0232492Y0250821D01*
X0232643Y0250793D01*
X0232793Y0250762D01*
X0232942Y0250726D01*
X0233090Y0250687D01*
X0233237Y0250644D01*
X0233383Y0250597D01*
X0233528Y0250546D01*
X0233671Y0250491D01*
X0233813Y0250433D01*
X0233953Y0250371D01*
X0234092Y0250306D01*
X0234229Y0250237D01*
X0234364Y0250164D01*
X0234497Y0250088D01*
X0234628Y0250009D01*
X0234757Y0249926D01*
X0234883Y0249840D01*
X0235008Y0249750D01*
X0235130Y0249657D01*
X0235250Y0249562D01*
X0235367Y0249463D01*
X0235482Y0249361D01*
X0235593Y0249256D01*
X0235702Y0249148D01*
X0235809Y0249038D01*
X0235912Y0248925D01*
X0236013Y0248809D01*
X0236110Y0248690D01*
X0236204Y0248569D01*
X0236295Y0248446D01*
X0236383Y0248320D01*
X0236468Y0248192D01*
X0236549Y0248062D01*
X0236627Y0247930D01*
X0236701Y0247796D01*
X0236772Y0247660D01*
X0236839Y0247523D01*
X0236903Y0247383D01*
X0236963Y0247242D01*
X0237019Y0247099D01*
X0237072Y0246955D01*
X0237121Y0246810D01*
X0237166Y0246664D01*
X0237207Y0246516D01*
X0237245Y0246367D01*
X0237278Y0246218D01*
X0237308Y0246067D01*
X0237333Y0245916D01*
X0237355Y0245764D01*
X0237373Y0245612D01*
X0237387Y0245459D01*
X0237397Y0245306D01*
X0237403Y0245153D01*
X0237405Y0245000D01*
X0237403Y0244847D01*
X0237397Y0244694D01*
X0237387Y0244541D01*
X0237373Y0244388D01*
X0237355Y0244236D01*
X0237333Y0244084D01*
X0237308Y0243933D01*
X0237278Y0243782D01*
X0237245Y0243633D01*
X0237207Y0243484D01*
X0237166Y0243336D01*
X0237121Y0243190D01*
X0237072Y0243045D01*
X0237019Y0242901D01*
X0236963Y0242758D01*
X0236903Y0242617D01*
X0236839Y0242477D01*
X0236772Y0242340D01*
X0236701Y0242204D01*
X0236627Y0242070D01*
X0236549Y0241938D01*
X0236468Y0241808D01*
X0236383Y0241680D01*
X0236295Y0241554D01*
X0236204Y0241431D01*
X0236110Y0241310D01*
X0236013Y0241191D01*
X0235912Y0241075D01*
X0235809Y0240962D01*
X0235702Y0240852D01*
X0235593Y0240744D01*
X0235482Y0240639D01*
X0235367Y0240537D01*
X0235250Y0240438D01*
X0235130Y0240343D01*
X0235008Y0240250D01*
X0234883Y0240160D01*
X0234757Y0240074D01*
X0234628Y0239991D01*
X0234497Y0239912D01*
X0234364Y0239836D01*
X0234229Y0239763D01*
X0234092Y0239694D01*
X0233953Y0239629D01*
X0233813Y0239567D01*
X0233671Y0239509D01*
X0233528Y0239454D01*
X0233383Y0239403D01*
X0233237Y0239356D01*
X0233090Y0239313D01*
X0232942Y0239274D01*
X0232793Y0239238D01*
X0232643Y0239207D01*
X0232492Y0239179D01*
X0232340Y0239155D01*
X0232188Y0239135D01*
X0232036Y0239119D01*
X0231883Y0239107D01*
X0231730Y0239099D01*
X0231577Y0239095D01*
X0231423Y0239095D01*
X0231270Y0239099D01*
X0231117Y0239107D01*
X0230964Y0239119D01*
X0230812Y0239135D01*
X0230660Y0239155D01*
X0230508Y0239179D01*
X0230357Y0239207D01*
X0230207Y0239238D01*
X0230058Y0239274D01*
X0229910Y0239313D01*
X0229763Y0239356D01*
X0229617Y0239403D01*
X0229472Y0239454D01*
X0229329Y0239509D01*
X0229187Y0239567D01*
X0229047Y0239629D01*
X0228908Y0239694D01*
X0228771Y0239763D01*
X0228636Y0239836D01*
X0228503Y0239912D01*
X0228372Y0239991D01*
X0228243Y0240074D01*
X0228117Y0240160D01*
X0227992Y0240250D01*
X0227870Y0240343D01*
X0227750Y0240438D01*
X0227633Y0240537D01*
X0227518Y0240639D01*
X0227407Y0240744D01*
X0227298Y0240852D01*
X0227191Y0240962D01*
X0227088Y0241075D01*
X0226987Y0241191D01*
X0226890Y0241310D01*
X0226796Y0241431D01*
X0226705Y0241554D01*
X0226617Y0241680D01*
X0226532Y0241808D01*
X0226451Y0241938D01*
X0226373Y0242070D01*
X0226299Y0242204D01*
X0226228Y0242340D01*
X0226161Y0242477D01*
X0226097Y0242617D01*
X0226037Y0242758D01*
X0225981Y0242901D01*
X0225928Y0243045D01*
X0225879Y0243190D01*
X0225834Y0243336D01*
X0225793Y0243484D01*
X0225755Y0243633D01*
X0225722Y0243782D01*
X0225692Y0243933D01*
X0225667Y0244084D01*
X0225645Y0244236D01*
X0225627Y0244388D01*
X0225613Y0244541D01*
X0225603Y0244694D01*
X0225597Y0244847D01*
X0225595Y0245000D01*
X0225595Y0030000D02*
X0225597Y0030153D01*
X0225603Y0030306D01*
X0225613Y0030459D01*
X0225627Y0030612D01*
X0225645Y0030764D01*
X0225667Y0030916D01*
X0225692Y0031067D01*
X0225722Y0031218D01*
X0225755Y0031367D01*
X0225793Y0031516D01*
X0225834Y0031664D01*
X0225879Y0031810D01*
X0225928Y0031955D01*
X0225981Y0032099D01*
X0226037Y0032242D01*
X0226097Y0032383D01*
X0226161Y0032523D01*
X0226228Y0032660D01*
X0226299Y0032796D01*
X0226373Y0032930D01*
X0226451Y0033062D01*
X0226532Y0033192D01*
X0226617Y0033320D01*
X0226705Y0033446D01*
X0226796Y0033569D01*
X0226890Y0033690D01*
X0226987Y0033809D01*
X0227088Y0033925D01*
X0227191Y0034038D01*
X0227298Y0034148D01*
X0227407Y0034256D01*
X0227518Y0034361D01*
X0227633Y0034463D01*
X0227750Y0034562D01*
X0227870Y0034657D01*
X0227992Y0034750D01*
X0228117Y0034840D01*
X0228243Y0034926D01*
X0228372Y0035009D01*
X0228503Y0035088D01*
X0228636Y0035164D01*
X0228771Y0035237D01*
X0228908Y0035306D01*
X0229047Y0035371D01*
X0229187Y0035433D01*
X0229329Y0035491D01*
X0229472Y0035546D01*
X0229617Y0035597D01*
X0229763Y0035644D01*
X0229910Y0035687D01*
X0230058Y0035726D01*
X0230207Y0035762D01*
X0230357Y0035793D01*
X0230508Y0035821D01*
X0230660Y0035845D01*
X0230812Y0035865D01*
X0230964Y0035881D01*
X0231117Y0035893D01*
X0231270Y0035901D01*
X0231423Y0035905D01*
X0231577Y0035905D01*
X0231730Y0035901D01*
X0231883Y0035893D01*
X0232036Y0035881D01*
X0232188Y0035865D01*
X0232340Y0035845D01*
X0232492Y0035821D01*
X0232643Y0035793D01*
X0232793Y0035762D01*
X0232942Y0035726D01*
X0233090Y0035687D01*
X0233237Y0035644D01*
X0233383Y0035597D01*
X0233528Y0035546D01*
X0233671Y0035491D01*
X0233813Y0035433D01*
X0233953Y0035371D01*
X0234092Y0035306D01*
X0234229Y0035237D01*
X0234364Y0035164D01*
X0234497Y0035088D01*
X0234628Y0035009D01*
X0234757Y0034926D01*
X0234883Y0034840D01*
X0235008Y0034750D01*
X0235130Y0034657D01*
X0235250Y0034562D01*
X0235367Y0034463D01*
X0235482Y0034361D01*
X0235593Y0034256D01*
X0235702Y0034148D01*
X0235809Y0034038D01*
X0235912Y0033925D01*
X0236013Y0033809D01*
X0236110Y0033690D01*
X0236204Y0033569D01*
X0236295Y0033446D01*
X0236383Y0033320D01*
X0236468Y0033192D01*
X0236549Y0033062D01*
X0236627Y0032930D01*
X0236701Y0032796D01*
X0236772Y0032660D01*
X0236839Y0032523D01*
X0236903Y0032383D01*
X0236963Y0032242D01*
X0237019Y0032099D01*
X0237072Y0031955D01*
X0237121Y0031810D01*
X0237166Y0031664D01*
X0237207Y0031516D01*
X0237245Y0031367D01*
X0237278Y0031218D01*
X0237308Y0031067D01*
X0237333Y0030916D01*
X0237355Y0030764D01*
X0237373Y0030612D01*
X0237387Y0030459D01*
X0237397Y0030306D01*
X0237403Y0030153D01*
X0237405Y0030000D01*
X0237403Y0029847D01*
X0237397Y0029694D01*
X0237387Y0029541D01*
X0237373Y0029388D01*
X0237355Y0029236D01*
X0237333Y0029084D01*
X0237308Y0028933D01*
X0237278Y0028782D01*
X0237245Y0028633D01*
X0237207Y0028484D01*
X0237166Y0028336D01*
X0237121Y0028190D01*
X0237072Y0028045D01*
X0237019Y0027901D01*
X0236963Y0027758D01*
X0236903Y0027617D01*
X0236839Y0027477D01*
X0236772Y0027340D01*
X0236701Y0027204D01*
X0236627Y0027070D01*
X0236549Y0026938D01*
X0236468Y0026808D01*
X0236383Y0026680D01*
X0236295Y0026554D01*
X0236204Y0026431D01*
X0236110Y0026310D01*
X0236013Y0026191D01*
X0235912Y0026075D01*
X0235809Y0025962D01*
X0235702Y0025852D01*
X0235593Y0025744D01*
X0235482Y0025639D01*
X0235367Y0025537D01*
X0235250Y0025438D01*
X0235130Y0025343D01*
X0235008Y0025250D01*
X0234883Y0025160D01*
X0234757Y0025074D01*
X0234628Y0024991D01*
X0234497Y0024912D01*
X0234364Y0024836D01*
X0234229Y0024763D01*
X0234092Y0024694D01*
X0233953Y0024629D01*
X0233813Y0024567D01*
X0233671Y0024509D01*
X0233528Y0024454D01*
X0233383Y0024403D01*
X0233237Y0024356D01*
X0233090Y0024313D01*
X0232942Y0024274D01*
X0232793Y0024238D01*
X0232643Y0024207D01*
X0232492Y0024179D01*
X0232340Y0024155D01*
X0232188Y0024135D01*
X0232036Y0024119D01*
X0231883Y0024107D01*
X0231730Y0024099D01*
X0231577Y0024095D01*
X0231423Y0024095D01*
X0231270Y0024099D01*
X0231117Y0024107D01*
X0230964Y0024119D01*
X0230812Y0024135D01*
X0230660Y0024155D01*
X0230508Y0024179D01*
X0230357Y0024207D01*
X0230207Y0024238D01*
X0230058Y0024274D01*
X0229910Y0024313D01*
X0229763Y0024356D01*
X0229617Y0024403D01*
X0229472Y0024454D01*
X0229329Y0024509D01*
X0229187Y0024567D01*
X0229047Y0024629D01*
X0228908Y0024694D01*
X0228771Y0024763D01*
X0228636Y0024836D01*
X0228503Y0024912D01*
X0228372Y0024991D01*
X0228243Y0025074D01*
X0228117Y0025160D01*
X0227992Y0025250D01*
X0227870Y0025343D01*
X0227750Y0025438D01*
X0227633Y0025537D01*
X0227518Y0025639D01*
X0227407Y0025744D01*
X0227298Y0025852D01*
X0227191Y0025962D01*
X0227088Y0026075D01*
X0226987Y0026191D01*
X0226890Y0026310D01*
X0226796Y0026431D01*
X0226705Y0026554D01*
X0226617Y0026680D01*
X0226532Y0026808D01*
X0226451Y0026938D01*
X0226373Y0027070D01*
X0226299Y0027204D01*
X0226228Y0027340D01*
X0226161Y0027477D01*
X0226097Y0027617D01*
X0226037Y0027758D01*
X0225981Y0027901D01*
X0225928Y0028045D01*
X0225879Y0028190D01*
X0225834Y0028336D01*
X0225793Y0028484D01*
X0225755Y0028633D01*
X0225722Y0028782D01*
X0225692Y0028933D01*
X0225667Y0029084D01*
X0225645Y0029236D01*
X0225627Y0029388D01*
X0225613Y0029541D01*
X0225603Y0029694D01*
X0225597Y0029847D01*
X0225595Y0030000D01*
D11*
X0146800Y0104200D02*
X0146800Y0108800D01*
X0145522Y0108800D01*
X0145452Y0108798D01*
X0145381Y0108792D01*
X0145312Y0108783D01*
X0145243Y0108769D01*
X0145174Y0108752D01*
X0145107Y0108731D01*
X0145041Y0108706D01*
X0144977Y0108678D01*
X0144914Y0108646D01*
X0144853Y0108611D01*
X0144794Y0108572D01*
X0144737Y0108531D01*
X0144683Y0108486D01*
X0144631Y0108438D01*
X0144582Y0108388D01*
X0144535Y0108334D01*
X0144492Y0108279D01*
X0144452Y0108221D01*
X0144415Y0108161D01*
X0144382Y0108099D01*
X0144352Y0108035D01*
X0144325Y0107970D01*
X0144302Y0107904D01*
X0144283Y0107836D01*
X0144268Y0107767D01*
X0144256Y0107698D01*
X0144248Y0107628D01*
X0144244Y0107557D01*
X0144244Y0107487D01*
X0144248Y0107416D01*
X0144256Y0107346D01*
X0144268Y0107277D01*
X0144283Y0107208D01*
X0144302Y0107140D01*
X0144325Y0107074D01*
X0144352Y0107009D01*
X0144382Y0106945D01*
X0144415Y0106883D01*
X0144452Y0106823D01*
X0144492Y0106765D01*
X0144535Y0106710D01*
X0144582Y0106656D01*
X0144631Y0106606D01*
X0144683Y0106558D01*
X0144737Y0106513D01*
X0144794Y0106472D01*
X0144853Y0106433D01*
X0144914Y0106398D01*
X0144977Y0106366D01*
X0145041Y0106338D01*
X0145107Y0106313D01*
X0145174Y0106292D01*
X0145243Y0106275D01*
X0145312Y0106261D01*
X0145381Y0106252D01*
X0145452Y0106246D01*
X0145522Y0106244D01*
X0146800Y0106244D01*
X0145267Y0106244D02*
X0144244Y0104200D01*
X0142329Y0104200D02*
X0139773Y0104200D01*
X0141051Y0104200D02*
X0141051Y0108800D01*
X0142329Y0107778D01*
X0137829Y0108800D02*
X0136296Y0108800D01*
X0136233Y0108798D01*
X0136170Y0108792D01*
X0136108Y0108783D01*
X0136047Y0108769D01*
X0135986Y0108752D01*
X0135927Y0108731D01*
X0135869Y0108706D01*
X0135812Y0108678D01*
X0135758Y0108647D01*
X0135706Y0108612D01*
X0135655Y0108574D01*
X0135607Y0108533D01*
X0135562Y0108489D01*
X0135520Y0108443D01*
X0135480Y0108394D01*
X0135444Y0108343D01*
X0135411Y0108289D01*
X0135381Y0108234D01*
X0135355Y0108176D01*
X0135332Y0108118D01*
X0135313Y0108058D01*
X0135298Y0107997D01*
X0135286Y0107935D01*
X0135278Y0107872D01*
X0135274Y0107809D01*
X0135274Y0107747D01*
X0135278Y0107684D01*
X0135286Y0107621D01*
X0135298Y0107559D01*
X0135313Y0107498D01*
X0135332Y0107438D01*
X0135355Y0107380D01*
X0135381Y0107322D01*
X0135411Y0107267D01*
X0135444Y0107213D01*
X0135480Y0107162D01*
X0135520Y0107113D01*
X0135562Y0107067D01*
X0135607Y0107023D01*
X0135655Y0106982D01*
X0135706Y0106944D01*
X0135758Y0106909D01*
X0135812Y0106878D01*
X0135869Y0106850D01*
X0135927Y0106825D01*
X0135986Y0106804D01*
X0136047Y0106787D01*
X0136108Y0106773D01*
X0136170Y0106764D01*
X0136233Y0106758D01*
X0136296Y0106756D01*
X0137318Y0106756D01*
X0136551Y0106756D02*
X0136481Y0106754D01*
X0136410Y0106748D01*
X0136341Y0106739D01*
X0136272Y0106725D01*
X0136203Y0106708D01*
X0136136Y0106687D01*
X0136070Y0106662D01*
X0136006Y0106634D01*
X0135943Y0106602D01*
X0135882Y0106567D01*
X0135823Y0106528D01*
X0135766Y0106487D01*
X0135712Y0106442D01*
X0135660Y0106394D01*
X0135611Y0106344D01*
X0135564Y0106290D01*
X0135521Y0106235D01*
X0135481Y0106177D01*
X0135444Y0106117D01*
X0135411Y0106055D01*
X0135381Y0105991D01*
X0135354Y0105926D01*
X0135331Y0105860D01*
X0135312Y0105792D01*
X0135297Y0105723D01*
X0135285Y0105654D01*
X0135277Y0105584D01*
X0135273Y0105513D01*
X0135273Y0105443D01*
X0135277Y0105372D01*
X0135285Y0105302D01*
X0135297Y0105233D01*
X0135312Y0105164D01*
X0135331Y0105096D01*
X0135354Y0105030D01*
X0135381Y0104965D01*
X0135411Y0104901D01*
X0135444Y0104839D01*
X0135481Y0104779D01*
X0135521Y0104721D01*
X0135564Y0104666D01*
X0135611Y0104612D01*
X0135660Y0104562D01*
X0135712Y0104514D01*
X0135766Y0104469D01*
X0135823Y0104428D01*
X0135882Y0104389D01*
X0135943Y0104354D01*
X0136006Y0104322D01*
X0136070Y0104294D01*
X0136136Y0104269D01*
X0136203Y0104248D01*
X0136272Y0104231D01*
X0136341Y0104217D01*
X0136410Y0104208D01*
X0136481Y0104202D01*
X0136551Y0104200D01*
X0137829Y0104200D01*
X0115727Y0105200D02*
X0115727Y0109800D01*
X0114449Y0109800D01*
X0114379Y0109798D01*
X0114308Y0109792D01*
X0114239Y0109783D01*
X0114170Y0109769D01*
X0114101Y0109752D01*
X0114034Y0109731D01*
X0113968Y0109706D01*
X0113904Y0109678D01*
X0113841Y0109646D01*
X0113780Y0109611D01*
X0113721Y0109572D01*
X0113664Y0109531D01*
X0113610Y0109486D01*
X0113558Y0109438D01*
X0113509Y0109388D01*
X0113462Y0109334D01*
X0113419Y0109279D01*
X0113379Y0109221D01*
X0113342Y0109161D01*
X0113309Y0109099D01*
X0113279Y0109035D01*
X0113252Y0108970D01*
X0113229Y0108904D01*
X0113210Y0108836D01*
X0113195Y0108767D01*
X0113183Y0108698D01*
X0113175Y0108628D01*
X0113171Y0108557D01*
X0113171Y0108487D01*
X0113175Y0108416D01*
X0113183Y0108346D01*
X0113195Y0108277D01*
X0113210Y0108208D01*
X0113229Y0108140D01*
X0113252Y0108074D01*
X0113279Y0108009D01*
X0113309Y0107945D01*
X0113342Y0107883D01*
X0113379Y0107823D01*
X0113419Y0107765D01*
X0113462Y0107710D01*
X0113509Y0107656D01*
X0113558Y0107606D01*
X0113610Y0107558D01*
X0113664Y0107513D01*
X0113721Y0107472D01*
X0113780Y0107433D01*
X0113841Y0107398D01*
X0113904Y0107366D01*
X0113968Y0107338D01*
X0114034Y0107313D01*
X0114101Y0107292D01*
X0114170Y0107275D01*
X0114239Y0107261D01*
X0114308Y0107252D01*
X0114379Y0107246D01*
X0114449Y0107244D01*
X0115727Y0107244D01*
X0114193Y0107244D02*
X0113171Y0105200D01*
X0111256Y0105200D02*
X0108700Y0105200D01*
X0109978Y0105200D02*
X0109978Y0109800D01*
X0111256Y0108778D01*
X0106756Y0105200D02*
X0104200Y0105200D01*
X0106756Y0105200D02*
X0104583Y0107756D01*
X0105350Y0109800D02*
X0105424Y0109798D01*
X0105498Y0109793D01*
X0105572Y0109783D01*
X0105645Y0109770D01*
X0105718Y0109754D01*
X0105789Y0109733D01*
X0105859Y0109709D01*
X0105928Y0109682D01*
X0105996Y0109651D01*
X0106062Y0109617D01*
X0106126Y0109580D01*
X0106188Y0109539D01*
X0106249Y0109495D01*
X0106306Y0109449D01*
X0106362Y0109399D01*
X0106415Y0109347D01*
X0106465Y0109292D01*
X0106512Y0109235D01*
X0106556Y0109175D01*
X0106598Y0109113D01*
X0106636Y0109050D01*
X0106671Y0108984D01*
X0106702Y0108917D01*
X0106730Y0108848D01*
X0106755Y0108778D01*
X0104583Y0107756D02*
X0104536Y0107803D01*
X0104492Y0107853D01*
X0104450Y0107905D01*
X0104411Y0107959D01*
X0104376Y0108015D01*
X0104343Y0108073D01*
X0104313Y0108133D01*
X0104287Y0108194D01*
X0104264Y0108257D01*
X0104245Y0108321D01*
X0104229Y0108385D01*
X0104216Y0108451D01*
X0104207Y0108517D01*
X0104202Y0108583D01*
X0104200Y0108650D01*
X0104202Y0108717D01*
X0104208Y0108784D01*
X0104217Y0108850D01*
X0104231Y0108915D01*
X0104248Y0108980D01*
X0104269Y0109043D01*
X0104294Y0109105D01*
X0104322Y0109166D01*
X0104354Y0109225D01*
X0104389Y0109282D01*
X0104428Y0109337D01*
X0104469Y0109389D01*
X0104514Y0109439D01*
X0104561Y0109486D01*
X0104611Y0109531D01*
X0104663Y0109572D01*
X0104718Y0109611D01*
X0104775Y0109646D01*
X0104834Y0109678D01*
X0104895Y0109706D01*
X0104957Y0109731D01*
X0105020Y0109752D01*
X0105085Y0109769D01*
X0105150Y0109783D01*
X0105216Y0109792D01*
X0105283Y0109798D01*
X0105350Y0109800D01*
X0091300Y0115200D02*
X0091300Y0119800D01*
X0090022Y0119800D01*
X0089952Y0119798D01*
X0089881Y0119792D01*
X0089812Y0119783D01*
X0089743Y0119769D01*
X0089674Y0119752D01*
X0089607Y0119731D01*
X0089541Y0119706D01*
X0089477Y0119678D01*
X0089414Y0119646D01*
X0089353Y0119611D01*
X0089294Y0119572D01*
X0089237Y0119531D01*
X0089183Y0119486D01*
X0089131Y0119438D01*
X0089082Y0119388D01*
X0089035Y0119334D01*
X0088992Y0119279D01*
X0088952Y0119221D01*
X0088915Y0119161D01*
X0088882Y0119099D01*
X0088852Y0119035D01*
X0088825Y0118970D01*
X0088802Y0118904D01*
X0088783Y0118836D01*
X0088768Y0118767D01*
X0088756Y0118698D01*
X0088748Y0118628D01*
X0088744Y0118557D01*
X0088744Y0118487D01*
X0088748Y0118416D01*
X0088756Y0118346D01*
X0088768Y0118277D01*
X0088783Y0118208D01*
X0088802Y0118140D01*
X0088825Y0118074D01*
X0088852Y0118009D01*
X0088882Y0117945D01*
X0088915Y0117883D01*
X0088952Y0117823D01*
X0088992Y0117765D01*
X0089035Y0117710D01*
X0089082Y0117656D01*
X0089131Y0117606D01*
X0089183Y0117558D01*
X0089237Y0117513D01*
X0089294Y0117472D01*
X0089353Y0117433D01*
X0089414Y0117398D01*
X0089477Y0117366D01*
X0089541Y0117338D01*
X0089607Y0117313D01*
X0089674Y0117292D01*
X0089743Y0117275D01*
X0089812Y0117261D01*
X0089881Y0117252D01*
X0089952Y0117246D01*
X0090022Y0117244D01*
X0091300Y0117244D01*
X0089767Y0117244D02*
X0088744Y0115200D01*
X0086829Y0115200D02*
X0084273Y0115200D01*
X0082329Y0115200D02*
X0079773Y0115200D01*
X0082329Y0115200D02*
X0080157Y0117756D01*
X0080923Y0119800D02*
X0080997Y0119798D01*
X0081071Y0119793D01*
X0081145Y0119783D01*
X0081218Y0119770D01*
X0081291Y0119754D01*
X0081362Y0119733D01*
X0081432Y0119709D01*
X0081501Y0119682D01*
X0081569Y0119651D01*
X0081635Y0119617D01*
X0081699Y0119580D01*
X0081761Y0119539D01*
X0081822Y0119495D01*
X0081879Y0119449D01*
X0081935Y0119399D01*
X0081988Y0119347D01*
X0082038Y0119292D01*
X0082085Y0119235D01*
X0082129Y0119175D01*
X0082171Y0119113D01*
X0082209Y0119050D01*
X0082244Y0118984D01*
X0082275Y0118917D01*
X0082303Y0118848D01*
X0082328Y0118778D01*
X0080157Y0117756D02*
X0080110Y0117803D01*
X0080066Y0117853D01*
X0080024Y0117905D01*
X0079985Y0117959D01*
X0079950Y0118015D01*
X0079917Y0118073D01*
X0079887Y0118133D01*
X0079861Y0118194D01*
X0079838Y0118257D01*
X0079819Y0118321D01*
X0079803Y0118385D01*
X0079790Y0118451D01*
X0079781Y0118517D01*
X0079776Y0118583D01*
X0079774Y0118650D01*
X0079773Y0118650D02*
X0079775Y0118717D01*
X0079781Y0118784D01*
X0079790Y0118850D01*
X0079804Y0118915D01*
X0079821Y0118980D01*
X0079842Y0119043D01*
X0079867Y0119105D01*
X0079895Y0119166D01*
X0079927Y0119225D01*
X0079962Y0119282D01*
X0080001Y0119337D01*
X0080042Y0119389D01*
X0080087Y0119439D01*
X0080134Y0119486D01*
X0080184Y0119531D01*
X0080236Y0119572D01*
X0080291Y0119611D01*
X0080348Y0119646D01*
X0080407Y0119678D01*
X0080468Y0119706D01*
X0080530Y0119731D01*
X0080593Y0119752D01*
X0080658Y0119769D01*
X0080723Y0119783D01*
X0080789Y0119792D01*
X0080856Y0119798D01*
X0080923Y0119800D01*
X0084657Y0117756D02*
X0086829Y0115200D01*
X0086828Y0118778D02*
X0086803Y0118848D01*
X0086775Y0118917D01*
X0086744Y0118984D01*
X0086709Y0119050D01*
X0086671Y0119113D01*
X0086629Y0119175D01*
X0086585Y0119235D01*
X0086538Y0119292D01*
X0086488Y0119347D01*
X0086435Y0119399D01*
X0086379Y0119449D01*
X0086322Y0119495D01*
X0086261Y0119539D01*
X0086199Y0119580D01*
X0086135Y0119617D01*
X0086069Y0119651D01*
X0086001Y0119682D01*
X0085932Y0119709D01*
X0085862Y0119733D01*
X0085791Y0119754D01*
X0085718Y0119770D01*
X0085645Y0119783D01*
X0085571Y0119793D01*
X0085497Y0119798D01*
X0085423Y0119800D01*
X0085356Y0119798D01*
X0085289Y0119792D01*
X0085223Y0119783D01*
X0085158Y0119769D01*
X0085093Y0119752D01*
X0085030Y0119731D01*
X0084968Y0119706D01*
X0084907Y0119678D01*
X0084848Y0119646D01*
X0084791Y0119611D01*
X0084736Y0119572D01*
X0084684Y0119531D01*
X0084634Y0119486D01*
X0084587Y0119439D01*
X0084542Y0119389D01*
X0084501Y0119337D01*
X0084462Y0119282D01*
X0084427Y0119225D01*
X0084395Y0119166D01*
X0084367Y0119105D01*
X0084342Y0119043D01*
X0084321Y0118980D01*
X0084304Y0118915D01*
X0084290Y0118850D01*
X0084281Y0118784D01*
X0084275Y0118717D01*
X0084273Y0118650D01*
X0084274Y0118650D02*
X0084276Y0118583D01*
X0084281Y0118517D01*
X0084290Y0118451D01*
X0084303Y0118385D01*
X0084319Y0118321D01*
X0084338Y0118257D01*
X0084361Y0118194D01*
X0084387Y0118133D01*
X0084417Y0118073D01*
X0084450Y0118015D01*
X0084485Y0117959D01*
X0084524Y0117905D01*
X0084566Y0117853D01*
X0084610Y0117803D01*
X0084657Y0117756D01*
X0063662Y0133761D02*
X0063662Y0135806D01*
X0063660Y0135876D01*
X0063654Y0135947D01*
X0063645Y0136016D01*
X0063631Y0136085D01*
X0063614Y0136154D01*
X0063593Y0136221D01*
X0063568Y0136287D01*
X0063540Y0136351D01*
X0063508Y0136414D01*
X0063473Y0136475D01*
X0063434Y0136534D01*
X0063393Y0136591D01*
X0063348Y0136645D01*
X0063300Y0136697D01*
X0063250Y0136746D01*
X0063196Y0136793D01*
X0063141Y0136836D01*
X0063083Y0136876D01*
X0063023Y0136913D01*
X0062961Y0136946D01*
X0062897Y0136976D01*
X0062832Y0137003D01*
X0062766Y0137026D01*
X0062698Y0137045D01*
X0062629Y0137060D01*
X0062560Y0137072D01*
X0062490Y0137080D01*
X0062419Y0137084D01*
X0062349Y0137084D01*
X0062278Y0137080D01*
X0062208Y0137072D01*
X0062139Y0137060D01*
X0062070Y0137045D01*
X0062002Y0137026D01*
X0061936Y0137003D01*
X0061871Y0136976D01*
X0061807Y0136946D01*
X0061745Y0136913D01*
X0061685Y0136876D01*
X0061627Y0136836D01*
X0061572Y0136793D01*
X0061518Y0136746D01*
X0061468Y0136697D01*
X0061420Y0136645D01*
X0061375Y0136591D01*
X0061334Y0136534D01*
X0061295Y0136475D01*
X0061260Y0136414D01*
X0061228Y0136351D01*
X0061200Y0136287D01*
X0061175Y0136221D01*
X0061154Y0136154D01*
X0061137Y0136085D01*
X0061123Y0136016D01*
X0061114Y0135947D01*
X0061108Y0135876D01*
X0061106Y0135806D01*
X0061107Y0135806D02*
X0061107Y0133761D01*
X0061618Y0133506D02*
X0060596Y0132483D01*
X0059275Y0132483D02*
X0057742Y0132483D01*
X0057742Y0132484D02*
X0057680Y0132486D01*
X0057619Y0132491D01*
X0057558Y0132501D01*
X0057497Y0132514D01*
X0057438Y0132530D01*
X0057380Y0132550D01*
X0057323Y0132574D01*
X0057267Y0132601D01*
X0057213Y0132631D01*
X0057161Y0132665D01*
X0057112Y0132701D01*
X0057064Y0132741D01*
X0057019Y0132783D01*
X0056977Y0132828D01*
X0056937Y0132876D01*
X0056901Y0132925D01*
X0056867Y0132977D01*
X0056837Y0133031D01*
X0056810Y0133087D01*
X0056786Y0133144D01*
X0056766Y0133202D01*
X0056750Y0133261D01*
X0056737Y0133322D01*
X0056727Y0133383D01*
X0056722Y0133444D01*
X0056720Y0133506D01*
X0056719Y0133506D02*
X0056719Y0134017D01*
X0056720Y0134017D02*
X0056722Y0134079D01*
X0056727Y0134140D01*
X0056737Y0134201D01*
X0056750Y0134262D01*
X0056766Y0134321D01*
X0056786Y0134379D01*
X0056810Y0134436D01*
X0056837Y0134492D01*
X0056867Y0134546D01*
X0056901Y0134598D01*
X0056937Y0134647D01*
X0056977Y0134695D01*
X0057019Y0134740D01*
X0057064Y0134782D01*
X0057112Y0134822D01*
X0057161Y0134858D01*
X0057213Y0134892D01*
X0057267Y0134922D01*
X0057323Y0134949D01*
X0057380Y0134973D01*
X0057438Y0134993D01*
X0057497Y0135009D01*
X0057558Y0135022D01*
X0057619Y0135032D01*
X0057680Y0135037D01*
X0057742Y0135039D01*
X0059275Y0135039D01*
X0059275Y0137083D01*
X0056719Y0137083D01*
X0061106Y0133761D02*
X0061108Y0133691D01*
X0061114Y0133620D01*
X0061123Y0133551D01*
X0061137Y0133482D01*
X0061154Y0133413D01*
X0061175Y0133346D01*
X0061200Y0133280D01*
X0061228Y0133216D01*
X0061260Y0133153D01*
X0061295Y0133092D01*
X0061334Y0133033D01*
X0061375Y0132976D01*
X0061420Y0132922D01*
X0061468Y0132870D01*
X0061518Y0132821D01*
X0061572Y0132774D01*
X0061627Y0132731D01*
X0061685Y0132691D01*
X0061745Y0132654D01*
X0061807Y0132621D01*
X0061871Y0132591D01*
X0061936Y0132564D01*
X0062002Y0132541D01*
X0062070Y0132522D01*
X0062139Y0132507D01*
X0062208Y0132495D01*
X0062278Y0132487D01*
X0062349Y0132483D01*
X0062419Y0132483D01*
X0062490Y0132487D01*
X0062560Y0132495D01*
X0062629Y0132507D01*
X0062698Y0132522D01*
X0062766Y0132541D01*
X0062832Y0132564D01*
X0062897Y0132591D01*
X0062961Y0132621D01*
X0063023Y0132654D01*
X0063083Y0132691D01*
X0063141Y0132731D01*
X0063196Y0132774D01*
X0063250Y0132821D01*
X0063300Y0132870D01*
X0063348Y0132922D01*
X0063393Y0132976D01*
X0063434Y0133033D01*
X0063473Y0133092D01*
X0063508Y0133153D01*
X0063540Y0133216D01*
X0063568Y0133280D01*
X0063593Y0133346D01*
X0063614Y0133413D01*
X0063631Y0133482D01*
X0063645Y0133551D01*
X0063654Y0133620D01*
X0063660Y0133691D01*
X0063662Y0133761D01*
X0076700Y0145273D02*
X0081300Y0145273D01*
X0081300Y0146551D01*
X0081298Y0146621D01*
X0081292Y0146692D01*
X0081283Y0146761D01*
X0081269Y0146830D01*
X0081252Y0146899D01*
X0081231Y0146966D01*
X0081206Y0147032D01*
X0081178Y0147096D01*
X0081146Y0147159D01*
X0081111Y0147220D01*
X0081072Y0147279D01*
X0081031Y0147336D01*
X0080986Y0147390D01*
X0080938Y0147442D01*
X0080888Y0147491D01*
X0080834Y0147538D01*
X0080779Y0147581D01*
X0080721Y0147621D01*
X0080661Y0147658D01*
X0080599Y0147691D01*
X0080535Y0147721D01*
X0080470Y0147748D01*
X0080404Y0147771D01*
X0080336Y0147790D01*
X0080267Y0147805D01*
X0080198Y0147817D01*
X0080128Y0147825D01*
X0080057Y0147829D01*
X0079987Y0147829D01*
X0079916Y0147825D01*
X0079846Y0147817D01*
X0079777Y0147805D01*
X0079708Y0147790D01*
X0079640Y0147771D01*
X0079574Y0147748D01*
X0079509Y0147721D01*
X0079445Y0147691D01*
X0079383Y0147658D01*
X0079323Y0147621D01*
X0079265Y0147581D01*
X0079210Y0147538D01*
X0079156Y0147491D01*
X0079106Y0147442D01*
X0079058Y0147390D01*
X0079013Y0147336D01*
X0078972Y0147279D01*
X0078933Y0147220D01*
X0078898Y0147159D01*
X0078866Y0147096D01*
X0078838Y0147032D01*
X0078813Y0146966D01*
X0078792Y0146899D01*
X0078775Y0146830D01*
X0078761Y0146761D01*
X0078752Y0146692D01*
X0078746Y0146621D01*
X0078744Y0146551D01*
X0078744Y0145273D01*
X0078744Y0146807D02*
X0076700Y0147829D01*
X0076700Y0151022D02*
X0081300Y0152300D01*
X0081300Y0149744D01*
X0080789Y0149744D01*
X0081300Y0160273D02*
X0076700Y0160273D01*
X0078744Y0160273D02*
X0078744Y0161551D01*
X0078744Y0161807D02*
X0076700Y0162829D01*
X0076700Y0164744D02*
X0076700Y0166278D01*
X0076702Y0166340D01*
X0076707Y0166401D01*
X0076717Y0166462D01*
X0076730Y0166523D01*
X0076746Y0166582D01*
X0076766Y0166640D01*
X0076790Y0166697D01*
X0076817Y0166753D01*
X0076847Y0166807D01*
X0076881Y0166859D01*
X0076917Y0166908D01*
X0076957Y0166956D01*
X0076999Y0167001D01*
X0077044Y0167043D01*
X0077092Y0167083D01*
X0077141Y0167119D01*
X0077193Y0167153D01*
X0077247Y0167183D01*
X0077303Y0167210D01*
X0077360Y0167234D01*
X0077418Y0167254D01*
X0077477Y0167270D01*
X0077538Y0167283D01*
X0077599Y0167293D01*
X0077660Y0167298D01*
X0077722Y0167300D01*
X0078233Y0167300D01*
X0078295Y0167298D01*
X0078356Y0167293D01*
X0078417Y0167283D01*
X0078478Y0167270D01*
X0078537Y0167254D01*
X0078595Y0167234D01*
X0078652Y0167210D01*
X0078708Y0167183D01*
X0078762Y0167153D01*
X0078814Y0167119D01*
X0078863Y0167083D01*
X0078911Y0167043D01*
X0078956Y0167001D01*
X0078998Y0166956D01*
X0079038Y0166908D01*
X0079074Y0166859D01*
X0079108Y0166807D01*
X0079138Y0166753D01*
X0079165Y0166697D01*
X0079189Y0166640D01*
X0079209Y0166582D01*
X0079225Y0166523D01*
X0079238Y0166462D01*
X0079248Y0166401D01*
X0079253Y0166340D01*
X0079255Y0166278D01*
X0079256Y0166278D02*
X0079256Y0164744D01*
X0081300Y0164744D01*
X0081300Y0167300D01*
X0081300Y0161551D02*
X0081300Y0160273D01*
X0081300Y0161551D02*
X0081298Y0161621D01*
X0081292Y0161692D01*
X0081283Y0161761D01*
X0081269Y0161830D01*
X0081252Y0161899D01*
X0081231Y0161966D01*
X0081206Y0162032D01*
X0081178Y0162096D01*
X0081146Y0162159D01*
X0081111Y0162220D01*
X0081072Y0162279D01*
X0081031Y0162336D01*
X0080986Y0162390D01*
X0080938Y0162442D01*
X0080888Y0162491D01*
X0080834Y0162538D01*
X0080779Y0162581D01*
X0080721Y0162621D01*
X0080661Y0162658D01*
X0080599Y0162691D01*
X0080535Y0162721D01*
X0080470Y0162748D01*
X0080404Y0162771D01*
X0080336Y0162790D01*
X0080267Y0162805D01*
X0080198Y0162817D01*
X0080128Y0162825D01*
X0080057Y0162829D01*
X0079987Y0162829D01*
X0079916Y0162825D01*
X0079846Y0162817D01*
X0079777Y0162805D01*
X0079708Y0162790D01*
X0079640Y0162771D01*
X0079574Y0162748D01*
X0079509Y0162721D01*
X0079445Y0162691D01*
X0079383Y0162658D01*
X0079323Y0162621D01*
X0079265Y0162581D01*
X0079210Y0162538D01*
X0079156Y0162491D01*
X0079106Y0162442D01*
X0079058Y0162390D01*
X0079013Y0162336D01*
X0078972Y0162279D01*
X0078933Y0162220D01*
X0078898Y0162159D01*
X0078866Y0162096D01*
X0078838Y0162032D01*
X0078813Y0161966D01*
X0078792Y0161899D01*
X0078775Y0161830D01*
X0078761Y0161761D01*
X0078752Y0161692D01*
X0078746Y0161621D01*
X0078744Y0161551D01*
X0063662Y0173761D02*
X0063662Y0175806D01*
X0063660Y0175876D01*
X0063654Y0175947D01*
X0063645Y0176016D01*
X0063631Y0176085D01*
X0063614Y0176154D01*
X0063593Y0176221D01*
X0063568Y0176287D01*
X0063540Y0176351D01*
X0063508Y0176414D01*
X0063473Y0176475D01*
X0063434Y0176534D01*
X0063393Y0176591D01*
X0063348Y0176645D01*
X0063300Y0176697D01*
X0063250Y0176746D01*
X0063196Y0176793D01*
X0063141Y0176836D01*
X0063083Y0176876D01*
X0063023Y0176913D01*
X0062961Y0176946D01*
X0062897Y0176976D01*
X0062832Y0177003D01*
X0062766Y0177026D01*
X0062698Y0177045D01*
X0062629Y0177060D01*
X0062560Y0177072D01*
X0062490Y0177080D01*
X0062419Y0177084D01*
X0062349Y0177084D01*
X0062278Y0177080D01*
X0062208Y0177072D01*
X0062139Y0177060D01*
X0062070Y0177045D01*
X0062002Y0177026D01*
X0061936Y0177003D01*
X0061871Y0176976D01*
X0061807Y0176946D01*
X0061745Y0176913D01*
X0061685Y0176876D01*
X0061627Y0176836D01*
X0061572Y0176793D01*
X0061518Y0176746D01*
X0061468Y0176697D01*
X0061420Y0176645D01*
X0061375Y0176591D01*
X0061334Y0176534D01*
X0061295Y0176475D01*
X0061260Y0176414D01*
X0061228Y0176351D01*
X0061200Y0176287D01*
X0061175Y0176221D01*
X0061154Y0176154D01*
X0061137Y0176085D01*
X0061123Y0176016D01*
X0061114Y0175947D01*
X0061108Y0175876D01*
X0061106Y0175806D01*
X0061107Y0175806D02*
X0061107Y0173761D01*
X0061618Y0173506D02*
X0060596Y0172483D01*
X0059275Y0173761D02*
X0059275Y0175039D01*
X0057742Y0175039D01*
X0059274Y0175039D02*
X0059272Y0175128D01*
X0059266Y0175217D01*
X0059257Y0175306D01*
X0059243Y0175394D01*
X0059226Y0175481D01*
X0059204Y0175568D01*
X0059179Y0175654D01*
X0059151Y0175738D01*
X0059118Y0175821D01*
X0059082Y0175903D01*
X0059043Y0175983D01*
X0059000Y0176061D01*
X0058954Y0176137D01*
X0058904Y0176211D01*
X0058852Y0176283D01*
X0058796Y0176353D01*
X0058737Y0176420D01*
X0058675Y0176484D01*
X0058611Y0176546D01*
X0058544Y0176605D01*
X0058474Y0176661D01*
X0058402Y0176713D01*
X0058328Y0176763D01*
X0058252Y0176809D01*
X0058174Y0176852D01*
X0058094Y0176891D01*
X0058012Y0176927D01*
X0057929Y0176960D01*
X0057845Y0176988D01*
X0057759Y0177013D01*
X0057672Y0177035D01*
X0057585Y0177052D01*
X0057497Y0177066D01*
X0057408Y0177075D01*
X0057319Y0177081D01*
X0057230Y0177083D01*
X0056719Y0174017D02*
X0056719Y0173761D01*
X0056720Y0174017D02*
X0056722Y0174079D01*
X0056727Y0174140D01*
X0056737Y0174201D01*
X0056750Y0174262D01*
X0056766Y0174321D01*
X0056786Y0174379D01*
X0056810Y0174436D01*
X0056837Y0174492D01*
X0056867Y0174546D01*
X0056901Y0174598D01*
X0056937Y0174647D01*
X0056977Y0174695D01*
X0057019Y0174740D01*
X0057064Y0174782D01*
X0057112Y0174822D01*
X0057161Y0174858D01*
X0057213Y0174892D01*
X0057267Y0174922D01*
X0057323Y0174949D01*
X0057380Y0174973D01*
X0057438Y0174993D01*
X0057497Y0175009D01*
X0057558Y0175022D01*
X0057619Y0175032D01*
X0057680Y0175037D01*
X0057742Y0175039D01*
X0056719Y0173761D02*
X0056721Y0173691D01*
X0056727Y0173620D01*
X0056736Y0173551D01*
X0056750Y0173482D01*
X0056767Y0173413D01*
X0056788Y0173346D01*
X0056813Y0173280D01*
X0056841Y0173216D01*
X0056873Y0173153D01*
X0056908Y0173092D01*
X0056947Y0173033D01*
X0056988Y0172976D01*
X0057033Y0172922D01*
X0057081Y0172870D01*
X0057131Y0172821D01*
X0057185Y0172774D01*
X0057240Y0172731D01*
X0057298Y0172691D01*
X0057358Y0172654D01*
X0057420Y0172621D01*
X0057484Y0172591D01*
X0057549Y0172564D01*
X0057615Y0172541D01*
X0057683Y0172522D01*
X0057752Y0172507D01*
X0057821Y0172495D01*
X0057891Y0172487D01*
X0057962Y0172483D01*
X0058032Y0172483D01*
X0058103Y0172487D01*
X0058173Y0172495D01*
X0058242Y0172507D01*
X0058311Y0172522D01*
X0058379Y0172541D01*
X0058445Y0172564D01*
X0058510Y0172591D01*
X0058574Y0172621D01*
X0058636Y0172654D01*
X0058696Y0172691D01*
X0058754Y0172731D01*
X0058809Y0172774D01*
X0058863Y0172821D01*
X0058913Y0172870D01*
X0058961Y0172922D01*
X0059006Y0172976D01*
X0059047Y0173033D01*
X0059086Y0173092D01*
X0059121Y0173153D01*
X0059153Y0173216D01*
X0059181Y0173280D01*
X0059206Y0173346D01*
X0059227Y0173413D01*
X0059244Y0173482D01*
X0059258Y0173551D01*
X0059267Y0173620D01*
X0059273Y0173691D01*
X0059275Y0173761D01*
X0061106Y0173761D02*
X0061108Y0173691D01*
X0061114Y0173620D01*
X0061123Y0173551D01*
X0061137Y0173482D01*
X0061154Y0173413D01*
X0061175Y0173346D01*
X0061200Y0173280D01*
X0061228Y0173216D01*
X0061260Y0173153D01*
X0061295Y0173092D01*
X0061334Y0173033D01*
X0061375Y0172976D01*
X0061420Y0172922D01*
X0061468Y0172870D01*
X0061518Y0172821D01*
X0061572Y0172774D01*
X0061627Y0172731D01*
X0061685Y0172691D01*
X0061745Y0172654D01*
X0061807Y0172621D01*
X0061871Y0172591D01*
X0061936Y0172564D01*
X0062002Y0172541D01*
X0062070Y0172522D01*
X0062139Y0172507D01*
X0062208Y0172495D01*
X0062278Y0172487D01*
X0062349Y0172483D01*
X0062419Y0172483D01*
X0062490Y0172487D01*
X0062560Y0172495D01*
X0062629Y0172507D01*
X0062698Y0172522D01*
X0062766Y0172541D01*
X0062832Y0172564D01*
X0062897Y0172591D01*
X0062961Y0172621D01*
X0063023Y0172654D01*
X0063083Y0172691D01*
X0063141Y0172731D01*
X0063196Y0172774D01*
X0063250Y0172821D01*
X0063300Y0172870D01*
X0063348Y0172922D01*
X0063393Y0172976D01*
X0063434Y0173033D01*
X0063473Y0173092D01*
X0063508Y0173153D01*
X0063540Y0173216D01*
X0063568Y0173280D01*
X0063593Y0173346D01*
X0063614Y0173413D01*
X0063631Y0173482D01*
X0063645Y0173551D01*
X0063654Y0173620D01*
X0063660Y0173691D01*
X0063662Y0173761D01*
X0036281Y0189194D02*
X0036281Y0191239D01*
X0036279Y0191309D01*
X0036273Y0191380D01*
X0036264Y0191449D01*
X0036250Y0191518D01*
X0036233Y0191587D01*
X0036212Y0191654D01*
X0036187Y0191720D01*
X0036159Y0191784D01*
X0036127Y0191847D01*
X0036092Y0191908D01*
X0036053Y0191967D01*
X0036012Y0192024D01*
X0035967Y0192078D01*
X0035919Y0192130D01*
X0035869Y0192179D01*
X0035815Y0192226D01*
X0035760Y0192269D01*
X0035702Y0192309D01*
X0035642Y0192346D01*
X0035580Y0192379D01*
X0035516Y0192409D01*
X0035451Y0192436D01*
X0035385Y0192459D01*
X0035317Y0192478D01*
X0035248Y0192493D01*
X0035179Y0192505D01*
X0035109Y0192513D01*
X0035038Y0192517D01*
X0034968Y0192517D01*
X0034897Y0192513D01*
X0034827Y0192505D01*
X0034758Y0192493D01*
X0034689Y0192478D01*
X0034621Y0192459D01*
X0034555Y0192436D01*
X0034490Y0192409D01*
X0034426Y0192379D01*
X0034364Y0192346D01*
X0034304Y0192309D01*
X0034246Y0192269D01*
X0034191Y0192226D01*
X0034137Y0192179D01*
X0034087Y0192130D01*
X0034039Y0192078D01*
X0033994Y0192024D01*
X0033953Y0191967D01*
X0033914Y0191908D01*
X0033879Y0191847D01*
X0033847Y0191784D01*
X0033819Y0191720D01*
X0033794Y0191654D01*
X0033773Y0191587D01*
X0033756Y0191518D01*
X0033742Y0191449D01*
X0033733Y0191380D01*
X0033727Y0191309D01*
X0033725Y0191239D01*
X0033725Y0189194D01*
X0034236Y0188939D02*
X0033214Y0187917D01*
X0033725Y0189194D02*
X0033727Y0189124D01*
X0033733Y0189053D01*
X0033742Y0188984D01*
X0033756Y0188915D01*
X0033773Y0188846D01*
X0033794Y0188779D01*
X0033819Y0188713D01*
X0033847Y0188649D01*
X0033879Y0188586D01*
X0033914Y0188525D01*
X0033953Y0188466D01*
X0033994Y0188409D01*
X0034039Y0188355D01*
X0034087Y0188303D01*
X0034137Y0188254D01*
X0034191Y0188207D01*
X0034246Y0188164D01*
X0034304Y0188124D01*
X0034364Y0188087D01*
X0034426Y0188054D01*
X0034490Y0188024D01*
X0034555Y0187997D01*
X0034621Y0187974D01*
X0034689Y0187955D01*
X0034758Y0187940D01*
X0034827Y0187928D01*
X0034897Y0187920D01*
X0034968Y0187916D01*
X0035038Y0187916D01*
X0035109Y0187920D01*
X0035179Y0187928D01*
X0035248Y0187940D01*
X0035317Y0187955D01*
X0035385Y0187974D01*
X0035451Y0187997D01*
X0035516Y0188024D01*
X0035580Y0188054D01*
X0035642Y0188087D01*
X0035702Y0188124D01*
X0035760Y0188164D01*
X0035815Y0188207D01*
X0035869Y0188254D01*
X0035919Y0188303D01*
X0035967Y0188355D01*
X0036012Y0188409D01*
X0036053Y0188466D01*
X0036092Y0188525D01*
X0036127Y0188586D01*
X0036159Y0188649D01*
X0036187Y0188713D01*
X0036212Y0188779D01*
X0036233Y0188846D01*
X0036250Y0188915D01*
X0036264Y0188984D01*
X0036273Y0189053D01*
X0036279Y0189124D01*
X0036281Y0189194D01*
X0031894Y0189194D02*
X0031892Y0189124D01*
X0031886Y0189053D01*
X0031877Y0188984D01*
X0031863Y0188915D01*
X0031846Y0188846D01*
X0031825Y0188779D01*
X0031800Y0188713D01*
X0031772Y0188649D01*
X0031740Y0188586D01*
X0031705Y0188525D01*
X0031666Y0188466D01*
X0031625Y0188409D01*
X0031580Y0188355D01*
X0031532Y0188303D01*
X0031482Y0188254D01*
X0031428Y0188207D01*
X0031373Y0188164D01*
X0031315Y0188124D01*
X0031255Y0188087D01*
X0031193Y0188054D01*
X0031129Y0188024D01*
X0031064Y0187997D01*
X0030998Y0187974D01*
X0030930Y0187955D01*
X0030861Y0187940D01*
X0030792Y0187928D01*
X0030722Y0187920D01*
X0030651Y0187916D01*
X0030581Y0187916D01*
X0030510Y0187920D01*
X0030440Y0187928D01*
X0030371Y0187940D01*
X0030302Y0187955D01*
X0030234Y0187974D01*
X0030168Y0187997D01*
X0030103Y0188024D01*
X0030039Y0188054D01*
X0029977Y0188087D01*
X0029917Y0188124D01*
X0029859Y0188164D01*
X0029804Y0188207D01*
X0029750Y0188254D01*
X0029700Y0188303D01*
X0029652Y0188355D01*
X0029607Y0188409D01*
X0029566Y0188466D01*
X0029527Y0188525D01*
X0029492Y0188586D01*
X0029460Y0188649D01*
X0029432Y0188713D01*
X0029407Y0188779D01*
X0029386Y0188846D01*
X0029369Y0188915D01*
X0029355Y0188984D01*
X0029346Y0189053D01*
X0029340Y0189124D01*
X0029338Y0189194D01*
X0029340Y0189264D01*
X0029346Y0189335D01*
X0029355Y0189404D01*
X0029369Y0189473D01*
X0029386Y0189542D01*
X0029407Y0189609D01*
X0029432Y0189675D01*
X0029460Y0189739D01*
X0029492Y0189802D01*
X0029527Y0189863D01*
X0029566Y0189922D01*
X0029607Y0189979D01*
X0029652Y0190033D01*
X0029700Y0190085D01*
X0029750Y0190134D01*
X0029804Y0190181D01*
X0029859Y0190224D01*
X0029917Y0190264D01*
X0029977Y0190301D01*
X0030039Y0190334D01*
X0030103Y0190364D01*
X0030168Y0190391D01*
X0030234Y0190414D01*
X0030302Y0190433D01*
X0030371Y0190448D01*
X0030440Y0190460D01*
X0030510Y0190468D01*
X0030581Y0190472D01*
X0030651Y0190472D01*
X0030722Y0190468D01*
X0030792Y0190460D01*
X0030861Y0190448D01*
X0030930Y0190433D01*
X0030998Y0190414D01*
X0031064Y0190391D01*
X0031129Y0190364D01*
X0031193Y0190334D01*
X0031255Y0190301D01*
X0031315Y0190264D01*
X0031373Y0190224D01*
X0031428Y0190181D01*
X0031482Y0190134D01*
X0031532Y0190085D01*
X0031580Y0190033D01*
X0031625Y0189979D01*
X0031666Y0189922D01*
X0031705Y0189863D01*
X0031740Y0189802D01*
X0031772Y0189739D01*
X0031800Y0189675D01*
X0031825Y0189609D01*
X0031846Y0189542D01*
X0031863Y0189473D01*
X0031877Y0189404D01*
X0031886Y0189335D01*
X0031892Y0189264D01*
X0031894Y0189194D01*
X0031638Y0191494D02*
X0031636Y0191431D01*
X0031630Y0191368D01*
X0031621Y0191306D01*
X0031607Y0191245D01*
X0031590Y0191184D01*
X0031569Y0191125D01*
X0031544Y0191067D01*
X0031516Y0191010D01*
X0031485Y0190956D01*
X0031450Y0190904D01*
X0031412Y0190853D01*
X0031371Y0190805D01*
X0031327Y0190760D01*
X0031281Y0190718D01*
X0031232Y0190678D01*
X0031181Y0190642D01*
X0031127Y0190609D01*
X0031072Y0190579D01*
X0031014Y0190553D01*
X0030956Y0190530D01*
X0030896Y0190511D01*
X0030835Y0190496D01*
X0030773Y0190484D01*
X0030710Y0190476D01*
X0030647Y0190472D01*
X0030585Y0190472D01*
X0030522Y0190476D01*
X0030459Y0190484D01*
X0030397Y0190496D01*
X0030336Y0190511D01*
X0030276Y0190530D01*
X0030218Y0190553D01*
X0030160Y0190579D01*
X0030105Y0190609D01*
X0030051Y0190642D01*
X0030000Y0190678D01*
X0029951Y0190718D01*
X0029905Y0190760D01*
X0029861Y0190805D01*
X0029820Y0190853D01*
X0029782Y0190904D01*
X0029747Y0190956D01*
X0029716Y0191010D01*
X0029688Y0191067D01*
X0029663Y0191125D01*
X0029642Y0191184D01*
X0029625Y0191245D01*
X0029611Y0191306D01*
X0029602Y0191368D01*
X0029596Y0191431D01*
X0029594Y0191494D01*
X0029596Y0191557D01*
X0029602Y0191620D01*
X0029611Y0191682D01*
X0029625Y0191743D01*
X0029642Y0191804D01*
X0029663Y0191863D01*
X0029688Y0191921D01*
X0029716Y0191978D01*
X0029747Y0192032D01*
X0029782Y0192084D01*
X0029820Y0192135D01*
X0029861Y0192183D01*
X0029905Y0192228D01*
X0029951Y0192270D01*
X0030000Y0192310D01*
X0030051Y0192346D01*
X0030105Y0192379D01*
X0030160Y0192409D01*
X0030218Y0192435D01*
X0030276Y0192458D01*
X0030336Y0192477D01*
X0030397Y0192492D01*
X0030459Y0192504D01*
X0030522Y0192512D01*
X0030585Y0192516D01*
X0030647Y0192516D01*
X0030710Y0192512D01*
X0030773Y0192504D01*
X0030835Y0192492D01*
X0030896Y0192477D01*
X0030956Y0192458D01*
X0031014Y0192435D01*
X0031072Y0192409D01*
X0031127Y0192379D01*
X0031181Y0192346D01*
X0031232Y0192310D01*
X0031281Y0192270D01*
X0031327Y0192228D01*
X0031371Y0192183D01*
X0031412Y0192135D01*
X0031450Y0192084D01*
X0031485Y0192032D01*
X0031516Y0191978D01*
X0031544Y0191921D01*
X0031569Y0191863D01*
X0031590Y0191804D01*
X0031607Y0191743D01*
X0031621Y0191682D01*
X0031630Y0191620D01*
X0031636Y0191557D01*
X0031638Y0191494D01*
X0031756Y0215200D02*
X0030478Y0215200D01*
X0030408Y0215202D01*
X0030337Y0215208D01*
X0030268Y0215217D01*
X0030199Y0215231D01*
X0030130Y0215248D01*
X0030063Y0215269D01*
X0029997Y0215294D01*
X0029933Y0215322D01*
X0029870Y0215354D01*
X0029809Y0215389D01*
X0029750Y0215428D01*
X0029693Y0215469D01*
X0029639Y0215514D01*
X0029587Y0215562D01*
X0029538Y0215612D01*
X0029491Y0215666D01*
X0029448Y0215721D01*
X0029408Y0215779D01*
X0029371Y0215839D01*
X0029338Y0215901D01*
X0029308Y0215965D01*
X0029281Y0216030D01*
X0029258Y0216096D01*
X0029239Y0216164D01*
X0029224Y0216233D01*
X0029212Y0216302D01*
X0029204Y0216372D01*
X0029200Y0216443D01*
X0029200Y0216513D01*
X0029204Y0216584D01*
X0029212Y0216654D01*
X0029224Y0216723D01*
X0029239Y0216792D01*
X0029258Y0216860D01*
X0029281Y0216926D01*
X0029308Y0216991D01*
X0029338Y0217055D01*
X0029371Y0217117D01*
X0029408Y0217177D01*
X0029448Y0217235D01*
X0029491Y0217290D01*
X0029538Y0217344D01*
X0029587Y0217394D01*
X0029639Y0217442D01*
X0029693Y0217487D01*
X0029750Y0217528D01*
X0029809Y0217567D01*
X0029870Y0217602D01*
X0029933Y0217634D01*
X0029997Y0217662D01*
X0030063Y0217687D01*
X0030130Y0217708D01*
X0030199Y0217725D01*
X0030268Y0217739D01*
X0030337Y0217748D01*
X0030408Y0217754D01*
X0030478Y0217756D01*
X0030222Y0217756D02*
X0031244Y0217756D01*
X0030222Y0217756D02*
X0030159Y0217758D01*
X0030096Y0217764D01*
X0030034Y0217773D01*
X0029973Y0217787D01*
X0029912Y0217804D01*
X0029853Y0217825D01*
X0029795Y0217850D01*
X0029738Y0217878D01*
X0029684Y0217909D01*
X0029632Y0217944D01*
X0029581Y0217982D01*
X0029533Y0218023D01*
X0029488Y0218067D01*
X0029446Y0218113D01*
X0029406Y0218162D01*
X0029370Y0218213D01*
X0029337Y0218267D01*
X0029307Y0218322D01*
X0029281Y0218380D01*
X0029258Y0218438D01*
X0029239Y0218498D01*
X0029224Y0218559D01*
X0029212Y0218621D01*
X0029204Y0218684D01*
X0029200Y0218747D01*
X0029200Y0218809D01*
X0029204Y0218872D01*
X0029212Y0218935D01*
X0029224Y0218997D01*
X0029239Y0219058D01*
X0029258Y0219118D01*
X0029281Y0219176D01*
X0029307Y0219234D01*
X0029337Y0219289D01*
X0029370Y0219343D01*
X0029406Y0219394D01*
X0029446Y0219443D01*
X0029488Y0219489D01*
X0029533Y0219533D01*
X0029581Y0219574D01*
X0029632Y0219612D01*
X0029684Y0219647D01*
X0029738Y0219678D01*
X0029795Y0219706D01*
X0029853Y0219731D01*
X0029912Y0219752D01*
X0029973Y0219769D01*
X0030034Y0219783D01*
X0030096Y0219792D01*
X0030159Y0219798D01*
X0030222Y0219800D01*
X0031756Y0219800D01*
X0034949Y0219800D02*
X0036227Y0219800D01*
X0036227Y0215200D01*
X0036227Y0217244D02*
X0034949Y0217244D01*
X0034693Y0217244D02*
X0033671Y0215200D01*
X0034949Y0217244D02*
X0034879Y0217246D01*
X0034808Y0217252D01*
X0034739Y0217261D01*
X0034670Y0217275D01*
X0034601Y0217292D01*
X0034534Y0217313D01*
X0034468Y0217338D01*
X0034404Y0217366D01*
X0034341Y0217398D01*
X0034280Y0217433D01*
X0034221Y0217472D01*
X0034164Y0217513D01*
X0034110Y0217558D01*
X0034058Y0217606D01*
X0034009Y0217656D01*
X0033962Y0217710D01*
X0033919Y0217765D01*
X0033879Y0217823D01*
X0033842Y0217883D01*
X0033809Y0217945D01*
X0033779Y0218009D01*
X0033752Y0218074D01*
X0033729Y0218140D01*
X0033710Y0218208D01*
X0033695Y0218277D01*
X0033683Y0218346D01*
X0033675Y0218416D01*
X0033671Y0218487D01*
X0033671Y0218557D01*
X0033675Y0218628D01*
X0033683Y0218698D01*
X0033695Y0218767D01*
X0033710Y0218836D01*
X0033729Y0218904D01*
X0033752Y0218970D01*
X0033779Y0219035D01*
X0033809Y0219099D01*
X0033842Y0219161D01*
X0033879Y0219221D01*
X0033919Y0219279D01*
X0033962Y0219334D01*
X0034009Y0219388D01*
X0034058Y0219438D01*
X0034110Y0219486D01*
X0034164Y0219531D01*
X0034221Y0219572D01*
X0034280Y0219611D01*
X0034341Y0219646D01*
X0034404Y0219678D01*
X0034468Y0219706D01*
X0034534Y0219731D01*
X0034601Y0219752D01*
X0034670Y0219769D01*
X0034739Y0219783D01*
X0034808Y0219792D01*
X0034879Y0219798D01*
X0034949Y0219800D01*
X0021227Y0230200D02*
X0021227Y0234800D01*
X0019949Y0234800D01*
X0019879Y0234798D01*
X0019808Y0234792D01*
X0019739Y0234783D01*
X0019670Y0234769D01*
X0019601Y0234752D01*
X0019534Y0234731D01*
X0019468Y0234706D01*
X0019404Y0234678D01*
X0019341Y0234646D01*
X0019280Y0234611D01*
X0019221Y0234572D01*
X0019164Y0234531D01*
X0019110Y0234486D01*
X0019058Y0234438D01*
X0019009Y0234388D01*
X0018962Y0234334D01*
X0018919Y0234279D01*
X0018879Y0234221D01*
X0018842Y0234161D01*
X0018809Y0234099D01*
X0018779Y0234035D01*
X0018752Y0233970D01*
X0018729Y0233904D01*
X0018710Y0233836D01*
X0018695Y0233767D01*
X0018683Y0233698D01*
X0018675Y0233628D01*
X0018671Y0233557D01*
X0018671Y0233487D01*
X0018675Y0233416D01*
X0018683Y0233346D01*
X0018695Y0233277D01*
X0018710Y0233208D01*
X0018729Y0233140D01*
X0018752Y0233074D01*
X0018779Y0233009D01*
X0018809Y0232945D01*
X0018842Y0232883D01*
X0018879Y0232823D01*
X0018919Y0232765D01*
X0018962Y0232710D01*
X0019009Y0232656D01*
X0019058Y0232606D01*
X0019110Y0232558D01*
X0019164Y0232513D01*
X0019221Y0232472D01*
X0019280Y0232433D01*
X0019341Y0232398D01*
X0019404Y0232366D01*
X0019468Y0232338D01*
X0019534Y0232313D01*
X0019601Y0232292D01*
X0019670Y0232275D01*
X0019739Y0232261D01*
X0019808Y0232252D01*
X0019879Y0232246D01*
X0019949Y0232244D01*
X0021227Y0232244D01*
X0019693Y0232244D02*
X0018671Y0230200D01*
X0016756Y0230200D02*
X0014200Y0230200D01*
X0015478Y0230200D02*
X0015478Y0234800D01*
X0016756Y0233778D01*
X0008583Y0214781D02*
X0003983Y0213503D01*
X0003983Y0210904D02*
X0005006Y0209882D01*
X0005261Y0210393D02*
X0007306Y0210393D01*
X0007306Y0210394D02*
X0007376Y0210392D01*
X0007447Y0210386D01*
X0007516Y0210377D01*
X0007585Y0210363D01*
X0007654Y0210346D01*
X0007721Y0210325D01*
X0007787Y0210300D01*
X0007851Y0210272D01*
X0007914Y0210240D01*
X0007975Y0210205D01*
X0008034Y0210166D01*
X0008091Y0210125D01*
X0008145Y0210080D01*
X0008197Y0210032D01*
X0008246Y0209982D01*
X0008293Y0209928D01*
X0008336Y0209873D01*
X0008376Y0209815D01*
X0008413Y0209755D01*
X0008446Y0209693D01*
X0008476Y0209629D01*
X0008503Y0209564D01*
X0008526Y0209498D01*
X0008545Y0209430D01*
X0008560Y0209361D01*
X0008572Y0209292D01*
X0008580Y0209222D01*
X0008584Y0209151D01*
X0008584Y0209081D01*
X0008580Y0209010D01*
X0008572Y0208940D01*
X0008560Y0208871D01*
X0008545Y0208802D01*
X0008526Y0208734D01*
X0008503Y0208668D01*
X0008476Y0208603D01*
X0008446Y0208539D01*
X0008413Y0208477D01*
X0008376Y0208417D01*
X0008336Y0208359D01*
X0008293Y0208304D01*
X0008246Y0208250D01*
X0008197Y0208200D01*
X0008145Y0208152D01*
X0008091Y0208107D01*
X0008034Y0208066D01*
X0007975Y0208027D01*
X0007914Y0207992D01*
X0007851Y0207960D01*
X0007787Y0207932D01*
X0007721Y0207907D01*
X0007654Y0207886D01*
X0007585Y0207869D01*
X0007516Y0207855D01*
X0007447Y0207846D01*
X0007376Y0207840D01*
X0007306Y0207838D01*
X0005261Y0207838D01*
X0005191Y0207840D01*
X0005120Y0207846D01*
X0005051Y0207855D01*
X0004982Y0207869D01*
X0004913Y0207886D01*
X0004846Y0207907D01*
X0004780Y0207932D01*
X0004716Y0207960D01*
X0004653Y0207992D01*
X0004592Y0208027D01*
X0004533Y0208066D01*
X0004476Y0208107D01*
X0004422Y0208152D01*
X0004370Y0208200D01*
X0004321Y0208250D01*
X0004274Y0208304D01*
X0004231Y0208359D01*
X0004191Y0208417D01*
X0004154Y0208477D01*
X0004121Y0208539D01*
X0004091Y0208603D01*
X0004064Y0208668D01*
X0004041Y0208734D01*
X0004022Y0208802D01*
X0004007Y0208871D01*
X0003995Y0208940D01*
X0003987Y0209010D01*
X0003983Y0209081D01*
X0003983Y0209151D01*
X0003987Y0209222D01*
X0003995Y0209292D01*
X0004007Y0209361D01*
X0004022Y0209430D01*
X0004041Y0209498D01*
X0004064Y0209564D01*
X0004091Y0209629D01*
X0004121Y0209693D01*
X0004154Y0209755D01*
X0004191Y0209815D01*
X0004231Y0209873D01*
X0004274Y0209928D01*
X0004321Y0209982D01*
X0004370Y0210032D01*
X0004422Y0210080D01*
X0004476Y0210125D01*
X0004533Y0210166D01*
X0004592Y0210205D01*
X0004653Y0210240D01*
X0004716Y0210272D01*
X0004780Y0210300D01*
X0004846Y0210325D01*
X0004913Y0210346D01*
X0004982Y0210363D01*
X0005051Y0210377D01*
X0005120Y0210386D01*
X0005191Y0210392D01*
X0005261Y0210394D01*
X0008072Y0212225D02*
X0008583Y0212225D01*
X0008583Y0214781D01*
X0027085Y0153819D02*
X0027085Y0150219D01*
X0028085Y0150219D02*
X0026085Y0150219D01*
X0028085Y0153019D02*
X0027085Y0153819D01*
X0030445Y0153819D02*
X0030445Y0150219D01*
X0030146Y0150619D02*
X0030099Y0150629D01*
X0030053Y0150644D01*
X0030008Y0150662D01*
X0029965Y0150683D01*
X0029924Y0150708D01*
X0029885Y0150736D01*
X0029848Y0150767D01*
X0029814Y0150801D01*
X0029783Y0150838D01*
X0029755Y0150877D01*
X0029730Y0150918D01*
X0029708Y0150962D01*
X0029690Y0151006D01*
X0029676Y0151052D01*
X0029666Y0151099D01*
X0029659Y0151147D01*
X0029656Y0151195D01*
X0029657Y0151243D01*
X0029662Y0151291D01*
X0029671Y0151338D01*
X0029683Y0151385D01*
X0029700Y0151430D01*
X0029720Y0151474D01*
X0029743Y0151516D01*
X0029770Y0151556D01*
X0029799Y0151594D01*
X0029832Y0151629D01*
X0029868Y0151662D01*
X0029906Y0151691D01*
X0029946Y0151718D01*
X0029945Y0151719D02*
X0030445Y0152019D01*
X0030945Y0152319D01*
X0031245Y0150819D02*
X0031179Y0150781D01*
X0031111Y0150747D01*
X0031041Y0150716D01*
X0030970Y0150688D01*
X0030898Y0150664D01*
X0030825Y0150643D01*
X0030751Y0150626D01*
X0030676Y0150612D01*
X0030600Y0150602D01*
X0030524Y0150596D01*
X0030448Y0150593D01*
X0030372Y0150594D01*
X0030296Y0150599D01*
X0030221Y0150607D01*
X0030145Y0150619D01*
X0029646Y0153218D02*
X0029712Y0153256D01*
X0029780Y0153290D01*
X0029850Y0153321D01*
X0029921Y0153349D01*
X0029993Y0153373D01*
X0030066Y0153394D01*
X0030140Y0153411D01*
X0030215Y0153425D01*
X0030291Y0153435D01*
X0030367Y0153441D01*
X0030443Y0153444D01*
X0030519Y0153443D01*
X0030595Y0153438D01*
X0030670Y0153430D01*
X0030746Y0153418D01*
X0030745Y0153418D02*
X0030792Y0153408D01*
X0030838Y0153393D01*
X0030883Y0153375D01*
X0030926Y0153354D01*
X0030967Y0153329D01*
X0031006Y0153301D01*
X0031043Y0153270D01*
X0031077Y0153236D01*
X0031108Y0153199D01*
X0031136Y0153160D01*
X0031161Y0153119D01*
X0031183Y0153075D01*
X0031201Y0153031D01*
X0031215Y0152985D01*
X0031225Y0152938D01*
X0031232Y0152890D01*
X0031235Y0152842D01*
X0031234Y0152794D01*
X0031229Y0152746D01*
X0031220Y0152699D01*
X0031208Y0152652D01*
X0031191Y0152607D01*
X0031171Y0152563D01*
X0031148Y0152521D01*
X0031121Y0152481D01*
X0031092Y0152443D01*
X0031059Y0152408D01*
X0031023Y0152375D01*
X0030985Y0152346D01*
X0030945Y0152319D01*
X0032925Y0151219D02*
X0032925Y0153819D01*
X0034925Y0153819D02*
X0034925Y0151219D01*
X0034923Y0151157D01*
X0034917Y0151096D01*
X0034908Y0151035D01*
X0034895Y0150975D01*
X0034878Y0150916D01*
X0034857Y0150858D01*
X0034833Y0150801D01*
X0034806Y0150746D01*
X0034775Y0150693D01*
X0034741Y0150641D01*
X0034704Y0150592D01*
X0034664Y0150545D01*
X0034621Y0150501D01*
X0034576Y0150460D01*
X0034528Y0150421D01*
X0034477Y0150385D01*
X0034425Y0150353D01*
X0034371Y0150324D01*
X0034315Y0150298D01*
X0034257Y0150276D01*
X0034199Y0150257D01*
X0034139Y0150242D01*
X0034078Y0150231D01*
X0034017Y0150223D01*
X0033956Y0150219D01*
X0033894Y0150219D01*
X0033833Y0150223D01*
X0033772Y0150231D01*
X0033711Y0150242D01*
X0033651Y0150257D01*
X0033593Y0150276D01*
X0033535Y0150298D01*
X0033479Y0150324D01*
X0033425Y0150353D01*
X0033373Y0150385D01*
X0033322Y0150421D01*
X0033274Y0150460D01*
X0033229Y0150501D01*
X0033186Y0150545D01*
X0033146Y0150592D01*
X0033109Y0150641D01*
X0033075Y0150693D01*
X0033044Y0150746D01*
X0033017Y0150801D01*
X0032993Y0150858D01*
X0032972Y0150916D01*
X0032955Y0150975D01*
X0032942Y0151035D01*
X0032933Y0151096D01*
X0032927Y0151157D01*
X0032925Y0151219D01*
X0021996Y0119800D02*
X0020974Y0119800D01*
X0021996Y0119800D02*
X0022058Y0119798D01*
X0022119Y0119793D01*
X0022180Y0119783D01*
X0022241Y0119770D01*
X0022300Y0119754D01*
X0022358Y0119734D01*
X0022415Y0119710D01*
X0022471Y0119683D01*
X0022525Y0119653D01*
X0022577Y0119619D01*
X0022626Y0119583D01*
X0022674Y0119543D01*
X0022719Y0119501D01*
X0022761Y0119456D01*
X0022801Y0119408D01*
X0022837Y0119359D01*
X0022871Y0119307D01*
X0022901Y0119253D01*
X0022928Y0119197D01*
X0022952Y0119140D01*
X0022972Y0119082D01*
X0022988Y0119023D01*
X0023001Y0118962D01*
X0023011Y0118901D01*
X0023016Y0118840D01*
X0023018Y0118778D01*
X0023019Y0118778D02*
X0023019Y0116222D01*
X0023018Y0116222D02*
X0023016Y0116160D01*
X0023011Y0116099D01*
X0023001Y0116038D01*
X0022988Y0115977D01*
X0022972Y0115918D01*
X0022952Y0115860D01*
X0022928Y0115803D01*
X0022901Y0115747D01*
X0022871Y0115693D01*
X0022837Y0115641D01*
X0022801Y0115592D01*
X0022761Y0115544D01*
X0022719Y0115499D01*
X0022674Y0115457D01*
X0022626Y0115417D01*
X0022577Y0115381D01*
X0022525Y0115347D01*
X0022471Y0115317D01*
X0022415Y0115290D01*
X0022358Y0115266D01*
X0022300Y0115246D01*
X0022241Y0115230D01*
X0022180Y0115217D01*
X0022119Y0115207D01*
X0022058Y0115202D01*
X0021996Y0115200D01*
X0020974Y0115200D01*
X0019256Y0115200D02*
X0016700Y0115200D01*
X0017978Y0115200D02*
X0017978Y0119800D01*
X0019256Y0118778D01*
X0056700Y0115449D02*
X0056700Y0114171D01*
X0056700Y0115449D02*
X0056702Y0115519D01*
X0056708Y0115590D01*
X0056717Y0115659D01*
X0056731Y0115728D01*
X0056748Y0115797D01*
X0056769Y0115864D01*
X0056794Y0115930D01*
X0056822Y0115994D01*
X0056854Y0116057D01*
X0056889Y0116118D01*
X0056928Y0116177D01*
X0056969Y0116234D01*
X0057014Y0116288D01*
X0057062Y0116340D01*
X0057112Y0116389D01*
X0057166Y0116436D01*
X0057221Y0116479D01*
X0057279Y0116519D01*
X0057339Y0116556D01*
X0057401Y0116589D01*
X0057465Y0116619D01*
X0057530Y0116646D01*
X0057596Y0116669D01*
X0057664Y0116688D01*
X0057733Y0116703D01*
X0057802Y0116715D01*
X0057872Y0116723D01*
X0057943Y0116727D01*
X0058013Y0116727D01*
X0058084Y0116723D01*
X0058154Y0116715D01*
X0058223Y0116703D01*
X0058292Y0116688D01*
X0058360Y0116669D01*
X0058426Y0116646D01*
X0058491Y0116619D01*
X0058555Y0116589D01*
X0058617Y0116556D01*
X0058677Y0116519D01*
X0058735Y0116479D01*
X0058790Y0116436D01*
X0058844Y0116389D01*
X0058894Y0116340D01*
X0058942Y0116288D01*
X0058987Y0116234D01*
X0059028Y0116177D01*
X0059067Y0116118D01*
X0059102Y0116057D01*
X0059134Y0115994D01*
X0059162Y0115930D01*
X0059187Y0115864D01*
X0059208Y0115797D01*
X0059225Y0115728D01*
X0059239Y0115659D01*
X0059248Y0115590D01*
X0059254Y0115519D01*
X0059256Y0115449D01*
X0059256Y0115704D02*
X0059256Y0114682D01*
X0059256Y0115704D02*
X0059258Y0115767D01*
X0059264Y0115830D01*
X0059273Y0115892D01*
X0059287Y0115953D01*
X0059304Y0116014D01*
X0059325Y0116073D01*
X0059350Y0116131D01*
X0059378Y0116188D01*
X0059409Y0116242D01*
X0059444Y0116294D01*
X0059482Y0116345D01*
X0059523Y0116393D01*
X0059567Y0116438D01*
X0059613Y0116480D01*
X0059662Y0116520D01*
X0059713Y0116556D01*
X0059767Y0116589D01*
X0059822Y0116619D01*
X0059880Y0116645D01*
X0059938Y0116668D01*
X0059998Y0116687D01*
X0060059Y0116702D01*
X0060121Y0116714D01*
X0060184Y0116722D01*
X0060247Y0116726D01*
X0060309Y0116726D01*
X0060372Y0116722D01*
X0060435Y0116714D01*
X0060497Y0116702D01*
X0060558Y0116687D01*
X0060618Y0116668D01*
X0060676Y0116645D01*
X0060734Y0116619D01*
X0060789Y0116589D01*
X0060843Y0116556D01*
X0060894Y0116520D01*
X0060943Y0116480D01*
X0060989Y0116438D01*
X0061033Y0116393D01*
X0061074Y0116345D01*
X0061112Y0116294D01*
X0061147Y0116242D01*
X0061178Y0116188D01*
X0061206Y0116131D01*
X0061231Y0116073D01*
X0061252Y0116014D01*
X0061269Y0115953D01*
X0061283Y0115892D01*
X0061292Y0115830D01*
X0061298Y0115767D01*
X0061300Y0115704D01*
X0061300Y0114171D01*
X0059256Y0111843D02*
X0056700Y0109671D01*
X0056700Y0112227D01*
X0060278Y0109672D02*
X0060348Y0109697D01*
X0060417Y0109725D01*
X0060484Y0109756D01*
X0060550Y0109791D01*
X0060613Y0109829D01*
X0060675Y0109871D01*
X0060735Y0109915D01*
X0060792Y0109962D01*
X0060847Y0110012D01*
X0060899Y0110065D01*
X0060949Y0110121D01*
X0060995Y0110179D01*
X0061039Y0110239D01*
X0061080Y0110301D01*
X0061117Y0110365D01*
X0061151Y0110431D01*
X0061182Y0110499D01*
X0061209Y0110568D01*
X0061233Y0110638D01*
X0061254Y0110709D01*
X0061270Y0110782D01*
X0061283Y0110855D01*
X0061293Y0110929D01*
X0061298Y0111003D01*
X0061300Y0111077D01*
X0061298Y0111144D01*
X0061292Y0111211D01*
X0061283Y0111277D01*
X0061269Y0111342D01*
X0061252Y0111407D01*
X0061231Y0111470D01*
X0061206Y0111532D01*
X0061178Y0111593D01*
X0061146Y0111652D01*
X0061111Y0111709D01*
X0061072Y0111764D01*
X0061031Y0111816D01*
X0060986Y0111866D01*
X0060939Y0111913D01*
X0060889Y0111958D01*
X0060837Y0111999D01*
X0060782Y0112038D01*
X0060725Y0112073D01*
X0060666Y0112105D01*
X0060605Y0112133D01*
X0060543Y0112158D01*
X0060480Y0112179D01*
X0060415Y0112196D01*
X0060350Y0112210D01*
X0060284Y0112219D01*
X0060217Y0112225D01*
X0060150Y0112227D01*
X0060150Y0112226D02*
X0060083Y0112224D01*
X0060017Y0112219D01*
X0059951Y0112210D01*
X0059885Y0112197D01*
X0059821Y0112181D01*
X0059757Y0112162D01*
X0059694Y0112139D01*
X0059633Y0112113D01*
X0059573Y0112083D01*
X0059515Y0112050D01*
X0059459Y0112015D01*
X0059405Y0111976D01*
X0059353Y0111934D01*
X0059303Y0111890D01*
X0059256Y0111843D01*
X0056700Y0107756D02*
X0058744Y0106733D01*
X0058744Y0106478D02*
X0058744Y0105200D01*
X0058744Y0106478D02*
X0058746Y0106548D01*
X0058752Y0106619D01*
X0058761Y0106688D01*
X0058775Y0106757D01*
X0058792Y0106826D01*
X0058813Y0106893D01*
X0058838Y0106959D01*
X0058866Y0107023D01*
X0058898Y0107086D01*
X0058933Y0107147D01*
X0058972Y0107206D01*
X0059013Y0107263D01*
X0059058Y0107317D01*
X0059106Y0107369D01*
X0059156Y0107418D01*
X0059210Y0107465D01*
X0059265Y0107508D01*
X0059323Y0107548D01*
X0059383Y0107585D01*
X0059445Y0107618D01*
X0059509Y0107648D01*
X0059574Y0107675D01*
X0059640Y0107698D01*
X0059708Y0107717D01*
X0059777Y0107732D01*
X0059846Y0107744D01*
X0059916Y0107752D01*
X0059987Y0107756D01*
X0060057Y0107756D01*
X0060128Y0107752D01*
X0060198Y0107744D01*
X0060267Y0107732D01*
X0060336Y0107717D01*
X0060404Y0107698D01*
X0060470Y0107675D01*
X0060535Y0107648D01*
X0060599Y0107618D01*
X0060661Y0107585D01*
X0060721Y0107548D01*
X0060779Y0107508D01*
X0060834Y0107465D01*
X0060888Y0107418D01*
X0060938Y0107369D01*
X0060986Y0107317D01*
X0061031Y0107263D01*
X0061072Y0107206D01*
X0061111Y0107147D01*
X0061146Y0107086D01*
X0061178Y0107023D01*
X0061206Y0106959D01*
X0061231Y0106893D01*
X0061252Y0106826D01*
X0061269Y0106757D01*
X0061283Y0106688D01*
X0061292Y0106619D01*
X0061298Y0106548D01*
X0061300Y0106478D01*
X0061300Y0105200D01*
X0056700Y0105200D01*
X0059256Y0088778D02*
X0059256Y0087756D01*
X0059256Y0088778D02*
X0059258Y0088841D01*
X0059264Y0088904D01*
X0059273Y0088966D01*
X0059287Y0089027D01*
X0059304Y0089088D01*
X0059325Y0089147D01*
X0059350Y0089205D01*
X0059378Y0089262D01*
X0059409Y0089316D01*
X0059444Y0089368D01*
X0059482Y0089419D01*
X0059523Y0089467D01*
X0059567Y0089512D01*
X0059613Y0089554D01*
X0059662Y0089594D01*
X0059713Y0089630D01*
X0059767Y0089663D01*
X0059822Y0089693D01*
X0059880Y0089719D01*
X0059938Y0089742D01*
X0059998Y0089761D01*
X0060059Y0089776D01*
X0060121Y0089788D01*
X0060184Y0089796D01*
X0060247Y0089800D01*
X0060309Y0089800D01*
X0060372Y0089796D01*
X0060435Y0089788D01*
X0060497Y0089776D01*
X0060558Y0089761D01*
X0060618Y0089742D01*
X0060676Y0089719D01*
X0060734Y0089693D01*
X0060789Y0089663D01*
X0060843Y0089630D01*
X0060894Y0089594D01*
X0060943Y0089554D01*
X0060989Y0089512D01*
X0061033Y0089467D01*
X0061074Y0089419D01*
X0061112Y0089368D01*
X0061147Y0089316D01*
X0061178Y0089262D01*
X0061206Y0089205D01*
X0061231Y0089147D01*
X0061252Y0089088D01*
X0061269Y0089027D01*
X0061283Y0088966D01*
X0061292Y0088904D01*
X0061298Y0088841D01*
X0061300Y0088778D01*
X0061300Y0087244D01*
X0061300Y0085526D02*
X0061300Y0084504D01*
X0061298Y0084442D01*
X0061293Y0084381D01*
X0061283Y0084320D01*
X0061270Y0084259D01*
X0061254Y0084200D01*
X0061234Y0084142D01*
X0061210Y0084085D01*
X0061183Y0084029D01*
X0061153Y0083975D01*
X0061119Y0083923D01*
X0061082Y0083874D01*
X0061043Y0083826D01*
X0061001Y0083781D01*
X0060956Y0083739D01*
X0060908Y0083699D01*
X0060859Y0083663D01*
X0060807Y0083629D01*
X0060753Y0083599D01*
X0060697Y0083572D01*
X0060640Y0083548D01*
X0060582Y0083528D01*
X0060523Y0083512D01*
X0060462Y0083499D01*
X0060401Y0083489D01*
X0060340Y0083484D01*
X0060278Y0083482D01*
X0060278Y0083481D02*
X0057722Y0083481D01*
X0057722Y0083482D02*
X0057660Y0083484D01*
X0057599Y0083489D01*
X0057538Y0083499D01*
X0057477Y0083512D01*
X0057418Y0083528D01*
X0057360Y0083548D01*
X0057303Y0083572D01*
X0057247Y0083599D01*
X0057193Y0083629D01*
X0057141Y0083663D01*
X0057092Y0083699D01*
X0057044Y0083739D01*
X0056999Y0083781D01*
X0056957Y0083826D01*
X0056917Y0083874D01*
X0056881Y0083923D01*
X0056847Y0083975D01*
X0056817Y0084029D01*
X0056790Y0084085D01*
X0056766Y0084142D01*
X0056746Y0084200D01*
X0056730Y0084259D01*
X0056717Y0084320D01*
X0056707Y0084381D01*
X0056702Y0084442D01*
X0056700Y0084504D01*
X0056700Y0085526D01*
X0056700Y0087244D02*
X0056700Y0088522D01*
X0056702Y0088592D01*
X0056708Y0088663D01*
X0056717Y0088732D01*
X0056731Y0088801D01*
X0056748Y0088870D01*
X0056769Y0088937D01*
X0056794Y0089003D01*
X0056822Y0089067D01*
X0056854Y0089130D01*
X0056889Y0089191D01*
X0056928Y0089250D01*
X0056969Y0089307D01*
X0057014Y0089361D01*
X0057062Y0089413D01*
X0057112Y0089462D01*
X0057166Y0089509D01*
X0057221Y0089552D01*
X0057279Y0089592D01*
X0057339Y0089629D01*
X0057401Y0089662D01*
X0057465Y0089692D01*
X0057530Y0089719D01*
X0057596Y0089742D01*
X0057664Y0089761D01*
X0057733Y0089776D01*
X0057802Y0089788D01*
X0057872Y0089796D01*
X0057943Y0089800D01*
X0058013Y0089800D01*
X0058084Y0089796D01*
X0058154Y0089788D01*
X0058223Y0089776D01*
X0058292Y0089761D01*
X0058360Y0089742D01*
X0058426Y0089719D01*
X0058491Y0089692D01*
X0058555Y0089662D01*
X0058617Y0089629D01*
X0058677Y0089592D01*
X0058735Y0089552D01*
X0058790Y0089509D01*
X0058844Y0089462D01*
X0058894Y0089413D01*
X0058942Y0089361D01*
X0058987Y0089307D01*
X0059028Y0089250D01*
X0059067Y0089191D01*
X0059102Y0089130D01*
X0059134Y0089067D01*
X0059162Y0089003D01*
X0059187Y0088937D01*
X0059208Y0088870D01*
X0059225Y0088801D01*
X0059239Y0088732D01*
X0059248Y0088663D01*
X0059254Y0088592D01*
X0059256Y0088522D01*
X0089981Y0054800D02*
X0092537Y0054800D01*
X0092537Y0052756D01*
X0091004Y0052756D01*
X0091004Y0052755D02*
X0090942Y0052753D01*
X0090881Y0052748D01*
X0090820Y0052738D01*
X0090759Y0052725D01*
X0090700Y0052709D01*
X0090642Y0052689D01*
X0090585Y0052665D01*
X0090529Y0052638D01*
X0090475Y0052608D01*
X0090423Y0052574D01*
X0090374Y0052538D01*
X0090326Y0052498D01*
X0090281Y0052456D01*
X0090239Y0052411D01*
X0090199Y0052363D01*
X0090163Y0052314D01*
X0090129Y0052262D01*
X0090099Y0052208D01*
X0090072Y0052152D01*
X0090048Y0052095D01*
X0090028Y0052037D01*
X0090012Y0051978D01*
X0089999Y0051917D01*
X0089989Y0051856D01*
X0089984Y0051795D01*
X0089982Y0051733D01*
X0089981Y0051733D02*
X0089981Y0051222D01*
X0089982Y0051222D02*
X0089984Y0051160D01*
X0089989Y0051099D01*
X0089999Y0051038D01*
X0090012Y0050977D01*
X0090028Y0050918D01*
X0090048Y0050860D01*
X0090072Y0050803D01*
X0090099Y0050747D01*
X0090129Y0050693D01*
X0090163Y0050641D01*
X0090199Y0050592D01*
X0090239Y0050544D01*
X0090281Y0050499D01*
X0090326Y0050457D01*
X0090374Y0050417D01*
X0090423Y0050381D01*
X0090475Y0050347D01*
X0090529Y0050317D01*
X0090585Y0050290D01*
X0090642Y0050266D01*
X0090700Y0050246D01*
X0090759Y0050230D01*
X0090820Y0050217D01*
X0090881Y0050207D01*
X0090942Y0050202D01*
X0091004Y0050200D01*
X0092537Y0050200D01*
X0094256Y0050200D02*
X0095278Y0050200D01*
X0095340Y0050202D01*
X0095401Y0050207D01*
X0095462Y0050217D01*
X0095523Y0050230D01*
X0095582Y0050246D01*
X0095640Y0050266D01*
X0095697Y0050290D01*
X0095753Y0050317D01*
X0095807Y0050347D01*
X0095859Y0050381D01*
X0095908Y0050417D01*
X0095956Y0050457D01*
X0096001Y0050499D01*
X0096043Y0050544D01*
X0096083Y0050592D01*
X0096119Y0050641D01*
X0096153Y0050693D01*
X0096183Y0050747D01*
X0096210Y0050803D01*
X0096234Y0050860D01*
X0096254Y0050918D01*
X0096270Y0050977D01*
X0096283Y0051038D01*
X0096293Y0051099D01*
X0096298Y0051160D01*
X0096300Y0051222D01*
X0096300Y0053778D01*
X0096298Y0053840D01*
X0096293Y0053901D01*
X0096283Y0053962D01*
X0096270Y0054023D01*
X0096254Y0054082D01*
X0096234Y0054140D01*
X0096210Y0054197D01*
X0096183Y0054253D01*
X0096153Y0054307D01*
X0096119Y0054359D01*
X0096083Y0054408D01*
X0096043Y0054456D01*
X0096001Y0054501D01*
X0095956Y0054543D01*
X0095908Y0054583D01*
X0095859Y0054619D01*
X0095807Y0054653D01*
X0095753Y0054683D01*
X0095697Y0054710D01*
X0095640Y0054734D01*
X0095582Y0054754D01*
X0095523Y0054770D01*
X0095462Y0054783D01*
X0095401Y0054793D01*
X0095340Y0054798D01*
X0095278Y0054800D01*
X0094256Y0054800D01*
X0128700Y0055244D02*
X0128700Y0057800D01*
X0128700Y0056522D02*
X0133300Y0056522D01*
X0132278Y0055244D01*
X0131256Y0052917D02*
X0128700Y0050744D01*
X0128700Y0053300D01*
X0128700Y0048829D02*
X0130744Y0047807D01*
X0130744Y0047551D02*
X0130744Y0046273D01*
X0130744Y0047551D02*
X0130746Y0047621D01*
X0130752Y0047692D01*
X0130761Y0047761D01*
X0130775Y0047830D01*
X0130792Y0047899D01*
X0130813Y0047966D01*
X0130838Y0048032D01*
X0130866Y0048096D01*
X0130898Y0048159D01*
X0130933Y0048220D01*
X0130972Y0048279D01*
X0131013Y0048336D01*
X0131058Y0048390D01*
X0131106Y0048442D01*
X0131156Y0048491D01*
X0131210Y0048538D01*
X0131265Y0048581D01*
X0131323Y0048621D01*
X0131383Y0048658D01*
X0131445Y0048691D01*
X0131509Y0048721D01*
X0131574Y0048748D01*
X0131640Y0048771D01*
X0131708Y0048790D01*
X0131777Y0048805D01*
X0131846Y0048817D01*
X0131916Y0048825D01*
X0131987Y0048829D01*
X0132057Y0048829D01*
X0132128Y0048825D01*
X0132198Y0048817D01*
X0132267Y0048805D01*
X0132336Y0048790D01*
X0132404Y0048771D01*
X0132470Y0048748D01*
X0132535Y0048721D01*
X0132599Y0048691D01*
X0132661Y0048658D01*
X0132721Y0048621D01*
X0132779Y0048581D01*
X0132834Y0048538D01*
X0132888Y0048491D01*
X0132938Y0048442D01*
X0132986Y0048390D01*
X0133031Y0048336D01*
X0133072Y0048279D01*
X0133111Y0048220D01*
X0133146Y0048159D01*
X0133178Y0048096D01*
X0133206Y0048032D01*
X0133231Y0047966D01*
X0133252Y0047899D01*
X0133269Y0047830D01*
X0133283Y0047761D01*
X0133292Y0047692D01*
X0133298Y0047621D01*
X0133300Y0047551D01*
X0133300Y0046273D01*
X0128700Y0046273D01*
X0132278Y0050745D02*
X0132348Y0050770D01*
X0132417Y0050798D01*
X0132484Y0050829D01*
X0132550Y0050864D01*
X0132613Y0050902D01*
X0132675Y0050944D01*
X0132735Y0050988D01*
X0132792Y0051035D01*
X0132847Y0051085D01*
X0132899Y0051138D01*
X0132949Y0051194D01*
X0132995Y0051252D01*
X0133039Y0051312D01*
X0133080Y0051374D01*
X0133117Y0051438D01*
X0133151Y0051504D01*
X0133182Y0051572D01*
X0133209Y0051641D01*
X0133233Y0051711D01*
X0133254Y0051782D01*
X0133270Y0051855D01*
X0133283Y0051928D01*
X0133293Y0052002D01*
X0133298Y0052076D01*
X0133300Y0052150D01*
X0133298Y0052217D01*
X0133292Y0052284D01*
X0133283Y0052350D01*
X0133269Y0052415D01*
X0133252Y0052480D01*
X0133231Y0052543D01*
X0133206Y0052605D01*
X0133178Y0052666D01*
X0133146Y0052725D01*
X0133111Y0052782D01*
X0133072Y0052837D01*
X0133031Y0052889D01*
X0132986Y0052939D01*
X0132939Y0052986D01*
X0132889Y0053031D01*
X0132837Y0053072D01*
X0132782Y0053111D01*
X0132725Y0053146D01*
X0132666Y0053178D01*
X0132605Y0053206D01*
X0132543Y0053231D01*
X0132480Y0053252D01*
X0132415Y0053269D01*
X0132350Y0053283D01*
X0132284Y0053292D01*
X0132217Y0053298D01*
X0132150Y0053300D01*
X0132083Y0053298D01*
X0132017Y0053293D01*
X0131951Y0053284D01*
X0131885Y0053271D01*
X0131821Y0053255D01*
X0131757Y0053236D01*
X0131694Y0053213D01*
X0131633Y0053187D01*
X0131573Y0053157D01*
X0131515Y0053124D01*
X0131459Y0053089D01*
X0131405Y0053050D01*
X0131353Y0053008D01*
X0131303Y0052964D01*
X0131256Y0052917D01*
X0136981Y0135200D02*
X0139537Y0135200D01*
X0137365Y0137756D01*
X0138131Y0139800D02*
X0138205Y0139798D01*
X0138279Y0139793D01*
X0138353Y0139783D01*
X0138426Y0139770D01*
X0138499Y0139754D01*
X0138570Y0139733D01*
X0138640Y0139709D01*
X0138709Y0139682D01*
X0138777Y0139651D01*
X0138843Y0139617D01*
X0138907Y0139580D01*
X0138969Y0139539D01*
X0139030Y0139495D01*
X0139087Y0139449D01*
X0139143Y0139399D01*
X0139196Y0139347D01*
X0139246Y0139292D01*
X0139293Y0139235D01*
X0139337Y0139175D01*
X0139379Y0139113D01*
X0139417Y0139050D01*
X0139452Y0138984D01*
X0139483Y0138917D01*
X0139511Y0138848D01*
X0139536Y0138778D01*
X0137365Y0137756D02*
X0137318Y0137803D01*
X0137274Y0137853D01*
X0137232Y0137905D01*
X0137193Y0137959D01*
X0137158Y0138015D01*
X0137125Y0138073D01*
X0137095Y0138133D01*
X0137069Y0138194D01*
X0137046Y0138257D01*
X0137027Y0138321D01*
X0137011Y0138385D01*
X0136998Y0138451D01*
X0136989Y0138517D01*
X0136984Y0138583D01*
X0136982Y0138650D01*
X0136981Y0138650D02*
X0136983Y0138717D01*
X0136989Y0138784D01*
X0136998Y0138850D01*
X0137012Y0138915D01*
X0137029Y0138980D01*
X0137050Y0139043D01*
X0137075Y0139105D01*
X0137103Y0139166D01*
X0137135Y0139225D01*
X0137170Y0139282D01*
X0137209Y0139337D01*
X0137250Y0139389D01*
X0137295Y0139439D01*
X0137342Y0139486D01*
X0137392Y0139531D01*
X0137444Y0139572D01*
X0137499Y0139611D01*
X0137556Y0139646D01*
X0137615Y0139678D01*
X0137676Y0139706D01*
X0137738Y0139731D01*
X0137801Y0139752D01*
X0137866Y0139769D01*
X0137931Y0139783D01*
X0137997Y0139792D01*
X0138064Y0139798D01*
X0138131Y0139800D01*
X0142759Y0139800D02*
X0142759Y0135200D01*
X0144037Y0135200D02*
X0141481Y0135200D01*
X0145756Y0135200D02*
X0146778Y0135200D01*
X0146840Y0135202D01*
X0146901Y0135207D01*
X0146962Y0135217D01*
X0147023Y0135230D01*
X0147082Y0135246D01*
X0147140Y0135266D01*
X0147197Y0135290D01*
X0147253Y0135317D01*
X0147307Y0135347D01*
X0147359Y0135381D01*
X0147408Y0135417D01*
X0147456Y0135457D01*
X0147501Y0135499D01*
X0147543Y0135544D01*
X0147583Y0135592D01*
X0147619Y0135641D01*
X0147653Y0135693D01*
X0147683Y0135747D01*
X0147710Y0135803D01*
X0147734Y0135860D01*
X0147754Y0135918D01*
X0147770Y0135977D01*
X0147783Y0136038D01*
X0147793Y0136099D01*
X0147798Y0136160D01*
X0147800Y0136222D01*
X0147800Y0138778D01*
X0147798Y0138840D01*
X0147793Y0138901D01*
X0147783Y0138962D01*
X0147770Y0139023D01*
X0147754Y0139082D01*
X0147734Y0139140D01*
X0147710Y0139197D01*
X0147683Y0139253D01*
X0147653Y0139307D01*
X0147619Y0139359D01*
X0147583Y0139408D01*
X0147543Y0139456D01*
X0147501Y0139501D01*
X0147456Y0139543D01*
X0147408Y0139583D01*
X0147359Y0139619D01*
X0147307Y0139653D01*
X0147253Y0139683D01*
X0147197Y0139710D01*
X0147140Y0139734D01*
X0147082Y0139754D01*
X0147023Y0139770D01*
X0146962Y0139783D01*
X0146901Y0139793D01*
X0146840Y0139798D01*
X0146778Y0139800D01*
X0145756Y0139800D01*
X0144037Y0138778D02*
X0142759Y0139800D01*
X0144967Y0145200D02*
X0144967Y0147244D01*
X0144200Y0146222D02*
X0146756Y0146222D01*
X0145733Y0149800D01*
X0149978Y0149800D02*
X0149978Y0145200D01*
X0151256Y0145200D02*
X0148700Y0145200D01*
X0151256Y0148778D02*
X0149978Y0149800D01*
X0154449Y0149800D02*
X0155727Y0149800D01*
X0155727Y0145200D01*
X0155727Y0147244D02*
X0154449Y0147244D01*
X0154193Y0147244D02*
X0153171Y0145200D01*
X0154449Y0147244D02*
X0154379Y0147246D01*
X0154308Y0147252D01*
X0154239Y0147261D01*
X0154170Y0147275D01*
X0154101Y0147292D01*
X0154034Y0147313D01*
X0153968Y0147338D01*
X0153904Y0147366D01*
X0153841Y0147398D01*
X0153780Y0147433D01*
X0153721Y0147472D01*
X0153664Y0147513D01*
X0153610Y0147558D01*
X0153558Y0147606D01*
X0153509Y0147656D01*
X0153462Y0147710D01*
X0153419Y0147765D01*
X0153379Y0147823D01*
X0153342Y0147883D01*
X0153309Y0147945D01*
X0153279Y0148009D01*
X0153252Y0148074D01*
X0153229Y0148140D01*
X0153210Y0148208D01*
X0153195Y0148277D01*
X0153183Y0148346D01*
X0153175Y0148416D01*
X0153171Y0148487D01*
X0153171Y0148557D01*
X0153175Y0148628D01*
X0153183Y0148698D01*
X0153195Y0148767D01*
X0153210Y0148836D01*
X0153229Y0148904D01*
X0153252Y0148970D01*
X0153279Y0149035D01*
X0153309Y0149099D01*
X0153342Y0149161D01*
X0153379Y0149221D01*
X0153419Y0149279D01*
X0153462Y0149334D01*
X0153509Y0149388D01*
X0153558Y0149438D01*
X0153610Y0149486D01*
X0153664Y0149531D01*
X0153721Y0149572D01*
X0153780Y0149611D01*
X0153841Y0149646D01*
X0153904Y0149678D01*
X0153968Y0149706D01*
X0154034Y0149731D01*
X0154101Y0149752D01*
X0154170Y0149769D01*
X0154239Y0149783D01*
X0154308Y0149792D01*
X0154379Y0149798D01*
X0154449Y0149800D01*
X0155727Y0155200D02*
X0155727Y0159800D01*
X0154449Y0159800D01*
X0154379Y0159798D01*
X0154308Y0159792D01*
X0154239Y0159783D01*
X0154170Y0159769D01*
X0154101Y0159752D01*
X0154034Y0159731D01*
X0153968Y0159706D01*
X0153904Y0159678D01*
X0153841Y0159646D01*
X0153780Y0159611D01*
X0153721Y0159572D01*
X0153664Y0159531D01*
X0153610Y0159486D01*
X0153558Y0159438D01*
X0153509Y0159388D01*
X0153462Y0159334D01*
X0153419Y0159279D01*
X0153379Y0159221D01*
X0153342Y0159161D01*
X0153309Y0159099D01*
X0153279Y0159035D01*
X0153252Y0158970D01*
X0153229Y0158904D01*
X0153210Y0158836D01*
X0153195Y0158767D01*
X0153183Y0158698D01*
X0153175Y0158628D01*
X0153171Y0158557D01*
X0153171Y0158487D01*
X0153175Y0158416D01*
X0153183Y0158346D01*
X0153195Y0158277D01*
X0153210Y0158208D01*
X0153229Y0158140D01*
X0153252Y0158074D01*
X0153279Y0158009D01*
X0153309Y0157945D01*
X0153342Y0157883D01*
X0153379Y0157823D01*
X0153419Y0157765D01*
X0153462Y0157710D01*
X0153509Y0157656D01*
X0153558Y0157606D01*
X0153610Y0157558D01*
X0153664Y0157513D01*
X0153721Y0157472D01*
X0153780Y0157433D01*
X0153841Y0157398D01*
X0153904Y0157366D01*
X0153968Y0157338D01*
X0154034Y0157313D01*
X0154101Y0157292D01*
X0154170Y0157275D01*
X0154239Y0157261D01*
X0154308Y0157252D01*
X0154379Y0157246D01*
X0154449Y0157244D01*
X0155727Y0157244D01*
X0154193Y0157244D02*
X0153171Y0155200D01*
X0151256Y0155200D02*
X0148700Y0155200D01*
X0149978Y0155200D02*
X0149978Y0159800D01*
X0151256Y0158778D01*
X0146756Y0157756D02*
X0146756Y0159800D01*
X0144200Y0159800D01*
X0145222Y0157756D02*
X0146756Y0157756D01*
X0145222Y0157755D02*
X0145160Y0157753D01*
X0145099Y0157748D01*
X0145038Y0157738D01*
X0144977Y0157725D01*
X0144918Y0157709D01*
X0144860Y0157689D01*
X0144803Y0157665D01*
X0144747Y0157638D01*
X0144693Y0157608D01*
X0144641Y0157574D01*
X0144592Y0157538D01*
X0144544Y0157498D01*
X0144499Y0157456D01*
X0144457Y0157411D01*
X0144417Y0157363D01*
X0144381Y0157314D01*
X0144347Y0157262D01*
X0144317Y0157208D01*
X0144290Y0157152D01*
X0144266Y0157095D01*
X0144246Y0157037D01*
X0144230Y0156978D01*
X0144217Y0156917D01*
X0144207Y0156856D01*
X0144202Y0156795D01*
X0144200Y0156733D01*
X0144200Y0156222D01*
X0144202Y0156160D01*
X0144207Y0156099D01*
X0144217Y0156038D01*
X0144230Y0155977D01*
X0144246Y0155918D01*
X0144266Y0155860D01*
X0144290Y0155803D01*
X0144317Y0155747D01*
X0144347Y0155693D01*
X0144381Y0155641D01*
X0144417Y0155592D01*
X0144457Y0155544D01*
X0144499Y0155499D01*
X0144544Y0155457D01*
X0144592Y0155417D01*
X0144641Y0155381D01*
X0144693Y0155347D01*
X0144747Y0155317D01*
X0144803Y0155290D01*
X0144860Y0155266D01*
X0144918Y0155246D01*
X0144977Y0155230D01*
X0145038Y0155217D01*
X0145099Y0155207D01*
X0145160Y0155202D01*
X0145222Y0155200D01*
X0146756Y0155200D01*
X0148700Y0165200D02*
X0151256Y0165200D01*
X0149978Y0165200D02*
X0149978Y0169800D01*
X0151256Y0168778D01*
X0154449Y0169800D02*
X0154379Y0169798D01*
X0154308Y0169792D01*
X0154239Y0169783D01*
X0154170Y0169769D01*
X0154101Y0169752D01*
X0154034Y0169731D01*
X0153968Y0169706D01*
X0153904Y0169678D01*
X0153841Y0169646D01*
X0153780Y0169611D01*
X0153721Y0169572D01*
X0153664Y0169531D01*
X0153610Y0169486D01*
X0153558Y0169438D01*
X0153509Y0169388D01*
X0153462Y0169334D01*
X0153419Y0169279D01*
X0153379Y0169221D01*
X0153342Y0169161D01*
X0153309Y0169099D01*
X0153279Y0169035D01*
X0153252Y0168970D01*
X0153229Y0168904D01*
X0153210Y0168836D01*
X0153195Y0168767D01*
X0153183Y0168698D01*
X0153175Y0168628D01*
X0153171Y0168557D01*
X0153171Y0168487D01*
X0153175Y0168416D01*
X0153183Y0168346D01*
X0153195Y0168277D01*
X0153210Y0168208D01*
X0153229Y0168140D01*
X0153252Y0168074D01*
X0153279Y0168009D01*
X0153309Y0167945D01*
X0153342Y0167883D01*
X0153379Y0167823D01*
X0153419Y0167765D01*
X0153462Y0167710D01*
X0153509Y0167656D01*
X0153558Y0167606D01*
X0153610Y0167558D01*
X0153664Y0167513D01*
X0153721Y0167472D01*
X0153780Y0167433D01*
X0153841Y0167398D01*
X0153904Y0167366D01*
X0153968Y0167338D01*
X0154034Y0167313D01*
X0154101Y0167292D01*
X0154170Y0167275D01*
X0154239Y0167261D01*
X0154308Y0167252D01*
X0154379Y0167246D01*
X0154449Y0167244D01*
X0155727Y0167244D01*
X0154193Y0167244D02*
X0153171Y0165200D01*
X0155727Y0165200D02*
X0155727Y0169800D01*
X0154449Y0169800D01*
X0155727Y0175200D02*
X0155727Y0179800D01*
X0154449Y0179800D01*
X0154379Y0179798D01*
X0154308Y0179792D01*
X0154239Y0179783D01*
X0154170Y0179769D01*
X0154101Y0179752D01*
X0154034Y0179731D01*
X0153968Y0179706D01*
X0153904Y0179678D01*
X0153841Y0179646D01*
X0153780Y0179611D01*
X0153721Y0179572D01*
X0153664Y0179531D01*
X0153610Y0179486D01*
X0153558Y0179438D01*
X0153509Y0179388D01*
X0153462Y0179334D01*
X0153419Y0179279D01*
X0153379Y0179221D01*
X0153342Y0179161D01*
X0153309Y0179099D01*
X0153279Y0179035D01*
X0153252Y0178970D01*
X0153229Y0178904D01*
X0153210Y0178836D01*
X0153195Y0178767D01*
X0153183Y0178698D01*
X0153175Y0178628D01*
X0153171Y0178557D01*
X0153171Y0178487D01*
X0153175Y0178416D01*
X0153183Y0178346D01*
X0153195Y0178277D01*
X0153210Y0178208D01*
X0153229Y0178140D01*
X0153252Y0178074D01*
X0153279Y0178009D01*
X0153309Y0177945D01*
X0153342Y0177883D01*
X0153379Y0177823D01*
X0153419Y0177765D01*
X0153462Y0177710D01*
X0153509Y0177656D01*
X0153558Y0177606D01*
X0153610Y0177558D01*
X0153664Y0177513D01*
X0153721Y0177472D01*
X0153780Y0177433D01*
X0153841Y0177398D01*
X0153904Y0177366D01*
X0153968Y0177338D01*
X0154034Y0177313D01*
X0154101Y0177292D01*
X0154170Y0177275D01*
X0154239Y0177261D01*
X0154308Y0177252D01*
X0154379Y0177246D01*
X0154449Y0177244D01*
X0155727Y0177244D01*
X0154193Y0177244D02*
X0153171Y0175200D01*
X0151256Y0175200D02*
X0148700Y0175200D01*
X0149978Y0175200D02*
X0149978Y0179800D01*
X0151256Y0178778D01*
X0146756Y0179289D02*
X0146756Y0179800D01*
X0144200Y0179800D01*
X0145478Y0175200D01*
X0145222Y0167756D02*
X0146756Y0167756D01*
X0146756Y0166478D01*
X0146754Y0166408D01*
X0146748Y0166337D01*
X0146739Y0166268D01*
X0146725Y0166199D01*
X0146708Y0166130D01*
X0146687Y0166063D01*
X0146662Y0165997D01*
X0146634Y0165933D01*
X0146602Y0165870D01*
X0146567Y0165809D01*
X0146528Y0165750D01*
X0146487Y0165693D01*
X0146442Y0165639D01*
X0146394Y0165587D01*
X0146344Y0165538D01*
X0146290Y0165491D01*
X0146235Y0165448D01*
X0146177Y0165408D01*
X0146117Y0165371D01*
X0146055Y0165338D01*
X0145991Y0165308D01*
X0145926Y0165281D01*
X0145860Y0165258D01*
X0145792Y0165239D01*
X0145723Y0165224D01*
X0145654Y0165212D01*
X0145584Y0165204D01*
X0145513Y0165200D01*
X0145443Y0165200D01*
X0145372Y0165204D01*
X0145302Y0165212D01*
X0145233Y0165224D01*
X0145164Y0165239D01*
X0145096Y0165258D01*
X0145030Y0165281D01*
X0144965Y0165308D01*
X0144901Y0165338D01*
X0144839Y0165371D01*
X0144779Y0165408D01*
X0144721Y0165448D01*
X0144666Y0165491D01*
X0144612Y0165538D01*
X0144562Y0165587D01*
X0144514Y0165639D01*
X0144469Y0165693D01*
X0144428Y0165750D01*
X0144389Y0165809D01*
X0144354Y0165870D01*
X0144322Y0165933D01*
X0144294Y0165997D01*
X0144269Y0166063D01*
X0144248Y0166130D01*
X0144231Y0166199D01*
X0144217Y0166268D01*
X0144208Y0166337D01*
X0144202Y0166408D01*
X0144200Y0166478D01*
X0144200Y0166733D01*
X0144202Y0166795D01*
X0144207Y0166856D01*
X0144217Y0166917D01*
X0144230Y0166978D01*
X0144246Y0167037D01*
X0144266Y0167095D01*
X0144290Y0167152D01*
X0144317Y0167208D01*
X0144347Y0167262D01*
X0144381Y0167314D01*
X0144417Y0167363D01*
X0144457Y0167411D01*
X0144499Y0167456D01*
X0144544Y0167498D01*
X0144592Y0167538D01*
X0144641Y0167574D01*
X0144693Y0167608D01*
X0144747Y0167638D01*
X0144803Y0167665D01*
X0144860Y0167689D01*
X0144918Y0167709D01*
X0144977Y0167725D01*
X0145038Y0167738D01*
X0145099Y0167748D01*
X0145160Y0167753D01*
X0145222Y0167755D01*
X0146755Y0167756D02*
X0146753Y0167845D01*
X0146747Y0167934D01*
X0146738Y0168023D01*
X0146724Y0168111D01*
X0146707Y0168198D01*
X0146685Y0168285D01*
X0146660Y0168371D01*
X0146632Y0168455D01*
X0146599Y0168538D01*
X0146563Y0168620D01*
X0146524Y0168700D01*
X0146481Y0168778D01*
X0146435Y0168854D01*
X0146385Y0168928D01*
X0146333Y0169000D01*
X0146277Y0169070D01*
X0146218Y0169137D01*
X0146156Y0169201D01*
X0146092Y0169263D01*
X0146025Y0169322D01*
X0145955Y0169378D01*
X0145883Y0169430D01*
X0145809Y0169480D01*
X0145733Y0169526D01*
X0145655Y0169569D01*
X0145575Y0169608D01*
X0145493Y0169644D01*
X0145410Y0169677D01*
X0145326Y0169705D01*
X0145240Y0169730D01*
X0145153Y0169752D01*
X0145066Y0169769D01*
X0144978Y0169783D01*
X0144889Y0169792D01*
X0144800Y0169798D01*
X0144711Y0169800D01*
X0148700Y0185200D02*
X0151256Y0185200D01*
X0149978Y0185200D02*
X0149978Y0189800D01*
X0151256Y0188778D01*
X0154449Y0189800D02*
X0154379Y0189798D01*
X0154308Y0189792D01*
X0154239Y0189783D01*
X0154170Y0189769D01*
X0154101Y0189752D01*
X0154034Y0189731D01*
X0153968Y0189706D01*
X0153904Y0189678D01*
X0153841Y0189646D01*
X0153780Y0189611D01*
X0153721Y0189572D01*
X0153664Y0189531D01*
X0153610Y0189486D01*
X0153558Y0189438D01*
X0153509Y0189388D01*
X0153462Y0189334D01*
X0153419Y0189279D01*
X0153379Y0189221D01*
X0153342Y0189161D01*
X0153309Y0189099D01*
X0153279Y0189035D01*
X0153252Y0188970D01*
X0153229Y0188904D01*
X0153210Y0188836D01*
X0153195Y0188767D01*
X0153183Y0188698D01*
X0153175Y0188628D01*
X0153171Y0188557D01*
X0153171Y0188487D01*
X0153175Y0188416D01*
X0153183Y0188346D01*
X0153195Y0188277D01*
X0153210Y0188208D01*
X0153229Y0188140D01*
X0153252Y0188074D01*
X0153279Y0188009D01*
X0153309Y0187945D01*
X0153342Y0187883D01*
X0153379Y0187823D01*
X0153419Y0187765D01*
X0153462Y0187710D01*
X0153509Y0187656D01*
X0153558Y0187606D01*
X0153610Y0187558D01*
X0153664Y0187513D01*
X0153721Y0187472D01*
X0153780Y0187433D01*
X0153841Y0187398D01*
X0153904Y0187366D01*
X0153968Y0187338D01*
X0154034Y0187313D01*
X0154101Y0187292D01*
X0154170Y0187275D01*
X0154239Y0187261D01*
X0154308Y0187252D01*
X0154379Y0187246D01*
X0154449Y0187244D01*
X0155727Y0187244D01*
X0154193Y0187244D02*
X0153171Y0185200D01*
X0155727Y0185200D02*
X0155727Y0189800D01*
X0154449Y0189800D01*
X0155727Y0195200D02*
X0155727Y0199800D01*
X0154449Y0199800D01*
X0154379Y0199798D01*
X0154308Y0199792D01*
X0154239Y0199783D01*
X0154170Y0199769D01*
X0154101Y0199752D01*
X0154034Y0199731D01*
X0153968Y0199706D01*
X0153904Y0199678D01*
X0153841Y0199646D01*
X0153780Y0199611D01*
X0153721Y0199572D01*
X0153664Y0199531D01*
X0153610Y0199486D01*
X0153558Y0199438D01*
X0153509Y0199388D01*
X0153462Y0199334D01*
X0153419Y0199279D01*
X0153379Y0199221D01*
X0153342Y0199161D01*
X0153309Y0199099D01*
X0153279Y0199035D01*
X0153252Y0198970D01*
X0153229Y0198904D01*
X0153210Y0198836D01*
X0153195Y0198767D01*
X0153183Y0198698D01*
X0153175Y0198628D01*
X0153171Y0198557D01*
X0153171Y0198487D01*
X0153175Y0198416D01*
X0153183Y0198346D01*
X0153195Y0198277D01*
X0153210Y0198208D01*
X0153229Y0198140D01*
X0153252Y0198074D01*
X0153279Y0198009D01*
X0153309Y0197945D01*
X0153342Y0197883D01*
X0153379Y0197823D01*
X0153419Y0197765D01*
X0153462Y0197710D01*
X0153509Y0197656D01*
X0153558Y0197606D01*
X0153610Y0197558D01*
X0153664Y0197513D01*
X0153721Y0197472D01*
X0153780Y0197433D01*
X0153841Y0197398D01*
X0153904Y0197366D01*
X0153968Y0197338D01*
X0154034Y0197313D01*
X0154101Y0197292D01*
X0154170Y0197275D01*
X0154239Y0197261D01*
X0154308Y0197252D01*
X0154379Y0197246D01*
X0154449Y0197244D01*
X0155727Y0197244D01*
X0154193Y0197244D02*
X0153171Y0195200D01*
X0151256Y0195200D02*
X0148700Y0195200D01*
X0149978Y0195200D02*
X0149978Y0199800D01*
X0151256Y0198778D01*
X0146756Y0198522D02*
X0146756Y0198267D01*
X0146755Y0198267D02*
X0146753Y0198205D01*
X0146748Y0198144D01*
X0146738Y0198083D01*
X0146725Y0198022D01*
X0146709Y0197963D01*
X0146689Y0197905D01*
X0146665Y0197848D01*
X0146638Y0197792D01*
X0146608Y0197738D01*
X0146574Y0197686D01*
X0146538Y0197637D01*
X0146498Y0197589D01*
X0146456Y0197544D01*
X0146411Y0197502D01*
X0146363Y0197462D01*
X0146314Y0197426D01*
X0146262Y0197392D01*
X0146208Y0197362D01*
X0146152Y0197335D01*
X0146095Y0197311D01*
X0146037Y0197291D01*
X0145978Y0197275D01*
X0145917Y0197262D01*
X0145856Y0197252D01*
X0145795Y0197247D01*
X0145733Y0197245D01*
X0145733Y0197244D02*
X0144200Y0197244D01*
X0144200Y0198522D01*
X0144202Y0198592D01*
X0144208Y0198663D01*
X0144217Y0198732D01*
X0144231Y0198801D01*
X0144248Y0198870D01*
X0144269Y0198937D01*
X0144294Y0199003D01*
X0144322Y0199067D01*
X0144354Y0199130D01*
X0144389Y0199191D01*
X0144428Y0199250D01*
X0144469Y0199307D01*
X0144514Y0199361D01*
X0144562Y0199413D01*
X0144612Y0199462D01*
X0144666Y0199509D01*
X0144721Y0199552D01*
X0144779Y0199592D01*
X0144839Y0199629D01*
X0144901Y0199662D01*
X0144965Y0199692D01*
X0145030Y0199719D01*
X0145096Y0199742D01*
X0145164Y0199761D01*
X0145233Y0199776D01*
X0145302Y0199788D01*
X0145372Y0199796D01*
X0145443Y0199800D01*
X0145513Y0199800D01*
X0145584Y0199796D01*
X0145654Y0199788D01*
X0145723Y0199776D01*
X0145792Y0199761D01*
X0145860Y0199742D01*
X0145926Y0199719D01*
X0145991Y0199692D01*
X0146055Y0199662D01*
X0146117Y0199629D01*
X0146177Y0199592D01*
X0146235Y0199552D01*
X0146290Y0199509D01*
X0146344Y0199462D01*
X0146394Y0199413D01*
X0146442Y0199361D01*
X0146487Y0199307D01*
X0146528Y0199250D01*
X0146567Y0199191D01*
X0146602Y0199130D01*
X0146634Y0199067D01*
X0146662Y0199003D01*
X0146687Y0198937D01*
X0146708Y0198870D01*
X0146725Y0198801D01*
X0146739Y0198732D01*
X0146748Y0198663D01*
X0146754Y0198592D01*
X0146756Y0198522D01*
X0144200Y0197244D02*
X0144202Y0197155D01*
X0144208Y0197066D01*
X0144217Y0196977D01*
X0144231Y0196889D01*
X0144248Y0196802D01*
X0144270Y0196715D01*
X0144295Y0196629D01*
X0144323Y0196545D01*
X0144356Y0196462D01*
X0144392Y0196380D01*
X0144431Y0196300D01*
X0144474Y0196222D01*
X0144520Y0196146D01*
X0144570Y0196072D01*
X0144622Y0196000D01*
X0144678Y0195930D01*
X0144737Y0195863D01*
X0144799Y0195799D01*
X0144863Y0195737D01*
X0144930Y0195678D01*
X0145000Y0195622D01*
X0145072Y0195570D01*
X0145146Y0195520D01*
X0145222Y0195474D01*
X0145300Y0195431D01*
X0145380Y0195392D01*
X0145462Y0195356D01*
X0145545Y0195323D01*
X0145629Y0195295D01*
X0145715Y0195270D01*
X0145802Y0195248D01*
X0145889Y0195231D01*
X0145977Y0195217D01*
X0146066Y0195208D01*
X0146155Y0195202D01*
X0146244Y0195200D01*
X0146500Y0188778D02*
X0146498Y0188715D01*
X0146492Y0188652D01*
X0146483Y0188590D01*
X0146469Y0188529D01*
X0146452Y0188468D01*
X0146431Y0188409D01*
X0146406Y0188351D01*
X0146378Y0188294D01*
X0146347Y0188240D01*
X0146312Y0188188D01*
X0146274Y0188137D01*
X0146233Y0188089D01*
X0146189Y0188044D01*
X0146143Y0188002D01*
X0146094Y0187962D01*
X0146043Y0187926D01*
X0145989Y0187893D01*
X0145934Y0187863D01*
X0145876Y0187837D01*
X0145818Y0187814D01*
X0145758Y0187795D01*
X0145697Y0187780D01*
X0145635Y0187768D01*
X0145572Y0187760D01*
X0145509Y0187756D01*
X0145447Y0187756D01*
X0145384Y0187760D01*
X0145321Y0187768D01*
X0145259Y0187780D01*
X0145198Y0187795D01*
X0145138Y0187814D01*
X0145080Y0187837D01*
X0145022Y0187863D01*
X0144967Y0187893D01*
X0144913Y0187926D01*
X0144862Y0187962D01*
X0144813Y0188002D01*
X0144767Y0188044D01*
X0144723Y0188089D01*
X0144682Y0188137D01*
X0144644Y0188188D01*
X0144609Y0188240D01*
X0144578Y0188294D01*
X0144550Y0188351D01*
X0144525Y0188409D01*
X0144504Y0188468D01*
X0144487Y0188529D01*
X0144473Y0188590D01*
X0144464Y0188652D01*
X0144458Y0188715D01*
X0144456Y0188778D01*
X0144458Y0188841D01*
X0144464Y0188904D01*
X0144473Y0188966D01*
X0144487Y0189027D01*
X0144504Y0189088D01*
X0144525Y0189147D01*
X0144550Y0189205D01*
X0144578Y0189262D01*
X0144609Y0189316D01*
X0144644Y0189368D01*
X0144682Y0189419D01*
X0144723Y0189467D01*
X0144767Y0189512D01*
X0144813Y0189554D01*
X0144862Y0189594D01*
X0144913Y0189630D01*
X0144967Y0189663D01*
X0145022Y0189693D01*
X0145080Y0189719D01*
X0145138Y0189742D01*
X0145198Y0189761D01*
X0145259Y0189776D01*
X0145321Y0189788D01*
X0145384Y0189796D01*
X0145447Y0189800D01*
X0145509Y0189800D01*
X0145572Y0189796D01*
X0145635Y0189788D01*
X0145697Y0189776D01*
X0145758Y0189761D01*
X0145818Y0189742D01*
X0145876Y0189719D01*
X0145934Y0189693D01*
X0145989Y0189663D01*
X0146043Y0189630D01*
X0146094Y0189594D01*
X0146143Y0189554D01*
X0146189Y0189512D01*
X0146233Y0189467D01*
X0146274Y0189419D01*
X0146312Y0189368D01*
X0146347Y0189316D01*
X0146378Y0189262D01*
X0146406Y0189205D01*
X0146431Y0189147D01*
X0146452Y0189088D01*
X0146469Y0189027D01*
X0146483Y0188966D01*
X0146492Y0188904D01*
X0146498Y0188841D01*
X0146500Y0188778D01*
X0146756Y0186478D02*
X0146754Y0186408D01*
X0146748Y0186337D01*
X0146739Y0186268D01*
X0146725Y0186199D01*
X0146708Y0186130D01*
X0146687Y0186063D01*
X0146662Y0185997D01*
X0146634Y0185933D01*
X0146602Y0185870D01*
X0146567Y0185809D01*
X0146528Y0185750D01*
X0146487Y0185693D01*
X0146442Y0185639D01*
X0146394Y0185587D01*
X0146344Y0185538D01*
X0146290Y0185491D01*
X0146235Y0185448D01*
X0146177Y0185408D01*
X0146117Y0185371D01*
X0146055Y0185338D01*
X0145991Y0185308D01*
X0145926Y0185281D01*
X0145860Y0185258D01*
X0145792Y0185239D01*
X0145723Y0185224D01*
X0145654Y0185212D01*
X0145584Y0185204D01*
X0145513Y0185200D01*
X0145443Y0185200D01*
X0145372Y0185204D01*
X0145302Y0185212D01*
X0145233Y0185224D01*
X0145164Y0185239D01*
X0145096Y0185258D01*
X0145030Y0185281D01*
X0144965Y0185308D01*
X0144901Y0185338D01*
X0144839Y0185371D01*
X0144779Y0185408D01*
X0144721Y0185448D01*
X0144666Y0185491D01*
X0144612Y0185538D01*
X0144562Y0185587D01*
X0144514Y0185639D01*
X0144469Y0185693D01*
X0144428Y0185750D01*
X0144389Y0185809D01*
X0144354Y0185870D01*
X0144322Y0185933D01*
X0144294Y0185997D01*
X0144269Y0186063D01*
X0144248Y0186130D01*
X0144231Y0186199D01*
X0144217Y0186268D01*
X0144208Y0186337D01*
X0144202Y0186408D01*
X0144200Y0186478D01*
X0144202Y0186548D01*
X0144208Y0186619D01*
X0144217Y0186688D01*
X0144231Y0186757D01*
X0144248Y0186826D01*
X0144269Y0186893D01*
X0144294Y0186959D01*
X0144322Y0187023D01*
X0144354Y0187086D01*
X0144389Y0187147D01*
X0144428Y0187206D01*
X0144469Y0187263D01*
X0144514Y0187317D01*
X0144562Y0187369D01*
X0144612Y0187418D01*
X0144666Y0187465D01*
X0144721Y0187508D01*
X0144779Y0187548D01*
X0144839Y0187585D01*
X0144901Y0187618D01*
X0144965Y0187648D01*
X0145030Y0187675D01*
X0145096Y0187698D01*
X0145164Y0187717D01*
X0145233Y0187732D01*
X0145302Y0187744D01*
X0145372Y0187752D01*
X0145443Y0187756D01*
X0145513Y0187756D01*
X0145584Y0187752D01*
X0145654Y0187744D01*
X0145723Y0187732D01*
X0145792Y0187717D01*
X0145860Y0187698D01*
X0145926Y0187675D01*
X0145991Y0187648D01*
X0146055Y0187618D01*
X0146117Y0187585D01*
X0146177Y0187548D01*
X0146235Y0187508D01*
X0146290Y0187465D01*
X0146344Y0187418D01*
X0146394Y0187369D01*
X0146442Y0187317D01*
X0146487Y0187263D01*
X0146528Y0187206D01*
X0146567Y0187147D01*
X0146602Y0187086D01*
X0146634Y0187023D01*
X0146662Y0186959D01*
X0146687Y0186893D01*
X0146708Y0186826D01*
X0146725Y0186757D01*
X0146739Y0186688D01*
X0146748Y0186619D01*
X0146754Y0186548D01*
X0146756Y0186478D01*
X0146756Y0205200D02*
X0144200Y0205200D01*
X0145478Y0205200D02*
X0145478Y0209800D01*
X0146756Y0208778D01*
X0149978Y0209800D02*
X0149978Y0205200D01*
X0151256Y0205200D02*
X0148700Y0205200D01*
X0151256Y0208778D02*
X0149978Y0209800D01*
X0154449Y0209800D02*
X0155727Y0209800D01*
X0155727Y0205200D01*
X0155727Y0207244D02*
X0154449Y0207244D01*
X0154193Y0207244D02*
X0153171Y0205200D01*
X0154449Y0207244D02*
X0154379Y0207246D01*
X0154308Y0207252D01*
X0154239Y0207261D01*
X0154170Y0207275D01*
X0154101Y0207292D01*
X0154034Y0207313D01*
X0153968Y0207338D01*
X0153904Y0207366D01*
X0153841Y0207398D01*
X0153780Y0207433D01*
X0153721Y0207472D01*
X0153664Y0207513D01*
X0153610Y0207558D01*
X0153558Y0207606D01*
X0153509Y0207656D01*
X0153462Y0207710D01*
X0153419Y0207765D01*
X0153379Y0207823D01*
X0153342Y0207883D01*
X0153309Y0207945D01*
X0153279Y0208009D01*
X0153252Y0208074D01*
X0153229Y0208140D01*
X0153210Y0208208D01*
X0153195Y0208277D01*
X0153183Y0208346D01*
X0153175Y0208416D01*
X0153171Y0208487D01*
X0153171Y0208557D01*
X0153175Y0208628D01*
X0153183Y0208698D01*
X0153195Y0208767D01*
X0153210Y0208836D01*
X0153229Y0208904D01*
X0153252Y0208970D01*
X0153279Y0209035D01*
X0153309Y0209099D01*
X0153342Y0209161D01*
X0153379Y0209221D01*
X0153419Y0209279D01*
X0153462Y0209334D01*
X0153509Y0209388D01*
X0153558Y0209438D01*
X0153610Y0209486D01*
X0153664Y0209531D01*
X0153721Y0209572D01*
X0153780Y0209611D01*
X0153841Y0209646D01*
X0153904Y0209678D01*
X0153968Y0209706D01*
X0154034Y0209731D01*
X0154101Y0209752D01*
X0154170Y0209769D01*
X0154239Y0209783D01*
X0154308Y0209792D01*
X0154379Y0209798D01*
X0154449Y0209800D01*
X0194200Y0181227D02*
X0194200Y0178671D01*
X0194200Y0179949D02*
X0198800Y0179949D01*
X0197778Y0178671D01*
X0196500Y0185727D02*
X0196385Y0185725D01*
X0196271Y0185720D01*
X0196157Y0185711D01*
X0196043Y0185699D01*
X0195929Y0185684D01*
X0195816Y0185665D01*
X0195704Y0185642D01*
X0195592Y0185617D01*
X0195481Y0185587D01*
X0195371Y0185555D01*
X0195262Y0185519D01*
X0195154Y0185480D01*
X0195048Y0185438D01*
X0194943Y0185392D01*
X0194839Y0185344D01*
X0194784Y0185323D01*
X0194731Y0185299D01*
X0194679Y0185272D01*
X0194629Y0185241D01*
X0194581Y0185208D01*
X0194535Y0185171D01*
X0194491Y0185132D01*
X0194450Y0185090D01*
X0194412Y0185046D01*
X0194376Y0184999D01*
X0194344Y0184950D01*
X0194314Y0184899D01*
X0194288Y0184847D01*
X0194265Y0184793D01*
X0194245Y0184738D01*
X0194229Y0184681D01*
X0194216Y0184624D01*
X0194207Y0184566D01*
X0194202Y0184508D01*
X0194200Y0184449D01*
X0194202Y0184390D01*
X0194207Y0184332D01*
X0194216Y0184274D01*
X0194229Y0184217D01*
X0194245Y0184160D01*
X0194265Y0184105D01*
X0194288Y0184051D01*
X0194314Y0183999D01*
X0194344Y0183948D01*
X0194376Y0183899D01*
X0194412Y0183852D01*
X0194450Y0183808D01*
X0194491Y0183766D01*
X0194535Y0183727D01*
X0194581Y0183690D01*
X0194629Y0183657D01*
X0194679Y0183626D01*
X0194731Y0183599D01*
X0194784Y0183575D01*
X0194839Y0183554D01*
X0195222Y0183427D02*
X0197778Y0185471D01*
X0198161Y0185344D02*
X0198216Y0185323D01*
X0198269Y0185299D01*
X0198321Y0185272D01*
X0198371Y0185241D01*
X0198419Y0185208D01*
X0198465Y0185171D01*
X0198509Y0185132D01*
X0198550Y0185090D01*
X0198588Y0185046D01*
X0198624Y0184999D01*
X0198656Y0184950D01*
X0198686Y0184899D01*
X0198712Y0184847D01*
X0198735Y0184793D01*
X0198755Y0184738D01*
X0198771Y0184681D01*
X0198784Y0184624D01*
X0198793Y0184566D01*
X0198798Y0184508D01*
X0198800Y0184449D01*
X0198798Y0184390D01*
X0198793Y0184332D01*
X0198784Y0184274D01*
X0198771Y0184217D01*
X0198755Y0184160D01*
X0198735Y0184105D01*
X0198712Y0184051D01*
X0198686Y0183999D01*
X0198656Y0183948D01*
X0198624Y0183899D01*
X0198588Y0183852D01*
X0198550Y0183808D01*
X0198509Y0183766D01*
X0198465Y0183727D01*
X0198419Y0183690D01*
X0198371Y0183657D01*
X0198321Y0183626D01*
X0198269Y0183599D01*
X0198216Y0183575D01*
X0198161Y0183554D01*
X0198161Y0185344D02*
X0198057Y0185392D01*
X0197952Y0185438D01*
X0197846Y0185480D01*
X0197738Y0185519D01*
X0197629Y0185555D01*
X0197519Y0185587D01*
X0197408Y0185617D01*
X0197296Y0185642D01*
X0197184Y0185665D01*
X0197071Y0185684D01*
X0196957Y0185699D01*
X0196843Y0185711D01*
X0196729Y0185720D01*
X0196615Y0185725D01*
X0196500Y0185727D01*
X0196500Y0183171D02*
X0196615Y0183173D01*
X0196729Y0183178D01*
X0196843Y0183187D01*
X0196957Y0183199D01*
X0197071Y0183214D01*
X0197184Y0183233D01*
X0197296Y0183256D01*
X0197408Y0183281D01*
X0197519Y0183311D01*
X0197629Y0183343D01*
X0197738Y0183379D01*
X0197846Y0183418D01*
X0197952Y0183460D01*
X0198057Y0183506D01*
X0198161Y0183554D01*
X0196500Y0183171D02*
X0196385Y0183173D01*
X0196271Y0183178D01*
X0196157Y0183187D01*
X0196043Y0183199D01*
X0195929Y0183214D01*
X0195816Y0183233D01*
X0195704Y0183256D01*
X0195592Y0183281D01*
X0195481Y0183311D01*
X0195371Y0183343D01*
X0195262Y0183379D01*
X0195154Y0183418D01*
X0195048Y0183460D01*
X0194943Y0183506D01*
X0194839Y0183554D01*
X0194200Y0176756D02*
X0196244Y0175733D01*
X0196244Y0175478D02*
X0196244Y0174200D01*
X0196244Y0175478D02*
X0196246Y0175548D01*
X0196252Y0175619D01*
X0196261Y0175688D01*
X0196275Y0175757D01*
X0196292Y0175826D01*
X0196313Y0175893D01*
X0196338Y0175959D01*
X0196366Y0176023D01*
X0196398Y0176086D01*
X0196433Y0176147D01*
X0196472Y0176206D01*
X0196513Y0176263D01*
X0196558Y0176317D01*
X0196606Y0176369D01*
X0196656Y0176418D01*
X0196710Y0176465D01*
X0196765Y0176508D01*
X0196823Y0176548D01*
X0196883Y0176585D01*
X0196945Y0176618D01*
X0197009Y0176648D01*
X0197074Y0176675D01*
X0197140Y0176698D01*
X0197208Y0176717D01*
X0197277Y0176732D01*
X0197346Y0176744D01*
X0197416Y0176752D01*
X0197487Y0176756D01*
X0197557Y0176756D01*
X0197628Y0176752D01*
X0197698Y0176744D01*
X0197767Y0176732D01*
X0197836Y0176717D01*
X0197904Y0176698D01*
X0197970Y0176675D01*
X0198035Y0176648D01*
X0198099Y0176618D01*
X0198161Y0176585D01*
X0198221Y0176548D01*
X0198279Y0176508D01*
X0198334Y0176465D01*
X0198388Y0176418D01*
X0198438Y0176369D01*
X0198486Y0176317D01*
X0198531Y0176263D01*
X0198572Y0176206D01*
X0198611Y0176147D01*
X0198646Y0176086D01*
X0198678Y0176023D01*
X0198706Y0175959D01*
X0198731Y0175893D01*
X0198752Y0175826D01*
X0198769Y0175757D01*
X0198783Y0175688D01*
X0198792Y0175619D01*
X0198798Y0175548D01*
X0198800Y0175478D01*
X0198800Y0174200D01*
X0194200Y0174200D01*
X0116019Y0138778D02*
X0116019Y0136222D01*
X0116018Y0136222D02*
X0116016Y0136160D01*
X0116011Y0136099D01*
X0116001Y0136038D01*
X0115988Y0135977D01*
X0115972Y0135918D01*
X0115952Y0135860D01*
X0115928Y0135803D01*
X0115901Y0135747D01*
X0115871Y0135693D01*
X0115837Y0135641D01*
X0115801Y0135592D01*
X0115761Y0135544D01*
X0115719Y0135499D01*
X0115674Y0135457D01*
X0115626Y0135417D01*
X0115577Y0135381D01*
X0115525Y0135347D01*
X0115471Y0135317D01*
X0115415Y0135290D01*
X0115358Y0135266D01*
X0115300Y0135246D01*
X0115241Y0135230D01*
X0115180Y0135217D01*
X0115119Y0135207D01*
X0115058Y0135202D01*
X0114996Y0135200D01*
X0113974Y0135200D01*
X0112256Y0135200D02*
X0109700Y0135200D01*
X0110978Y0135200D02*
X0110978Y0139800D01*
X0112256Y0138778D01*
X0113974Y0139800D02*
X0114996Y0139800D01*
X0115058Y0139798D01*
X0115119Y0139793D01*
X0115180Y0139783D01*
X0115241Y0139770D01*
X0115300Y0139754D01*
X0115358Y0139734D01*
X0115415Y0139710D01*
X0115471Y0139683D01*
X0115525Y0139653D01*
X0115577Y0139619D01*
X0115626Y0139583D01*
X0115674Y0139543D01*
X0115719Y0139501D01*
X0115761Y0139456D01*
X0115801Y0139408D01*
X0115837Y0139359D01*
X0115871Y0139307D01*
X0115901Y0139253D01*
X0115928Y0139197D01*
X0115952Y0139140D01*
X0115972Y0139082D01*
X0115988Y0139023D01*
X0116001Y0138962D01*
X0116011Y0138901D01*
X0116016Y0138840D01*
X0116018Y0138778D01*
X0107756Y0138778D02*
X0106478Y0139800D01*
X0106478Y0135200D01*
X0107756Y0135200D02*
X0105200Y0135200D01*
D12*
X0159189Y0110765D02*
X0159970Y0111211D01*
X0160063Y0111054D01*
X0160160Y0110900D01*
X0160261Y0110748D01*
X0160366Y0110599D01*
X0160474Y0110452D01*
X0160585Y0110307D01*
X0160700Y0110166D01*
X0160819Y0110027D01*
X0160941Y0109892D01*
X0161066Y0109759D01*
X0161194Y0109629D01*
X0161325Y0109503D01*
X0161459Y0109379D01*
X0161596Y0109259D01*
X0161736Y0109142D01*
X0161879Y0109029D01*
X0162025Y0108919D01*
X0162173Y0108813D01*
X0162324Y0108710D01*
X0162477Y0108611D01*
X0162632Y0108516D01*
X0162790Y0108425D01*
X0162950Y0108337D01*
X0163112Y0108253D01*
X0163275Y0108173D01*
X0163441Y0108097D01*
X0163609Y0108026D01*
X0163778Y0107958D01*
X0163949Y0107894D01*
X0164121Y0107835D01*
X0164295Y0107779D01*
X0164470Y0107728D01*
X0164646Y0107681D01*
X0164823Y0107639D01*
X0165002Y0107600D01*
X0165181Y0107566D01*
X0165361Y0107536D01*
X0165541Y0107511D01*
X0165722Y0107490D01*
X0165904Y0107474D01*
X0166086Y0107461D01*
X0166268Y0107454D01*
X0166450Y0107450D01*
X0166451Y0106551D01*
X0166450Y0106550D01*
X0166246Y0106554D01*
X0166042Y0106562D01*
X0165838Y0106576D01*
X0165634Y0106594D01*
X0165431Y0106618D01*
X0165229Y0106646D01*
X0165027Y0106679D01*
X0164827Y0106717D01*
X0164627Y0106760D01*
X0164428Y0106808D01*
X0164231Y0106860D01*
X0164035Y0106918D01*
X0163840Y0106980D01*
X0163647Y0107046D01*
X0163455Y0107118D01*
X0163266Y0107194D01*
X0163078Y0107274D01*
X0162892Y0107359D01*
X0162708Y0107449D01*
X0162527Y0107542D01*
X0162348Y0107641D01*
X0162171Y0107743D01*
X0161997Y0107850D01*
X0161825Y0107961D01*
X0161656Y0108076D01*
X0161490Y0108195D01*
X0161327Y0108318D01*
X0161167Y0108445D01*
X0161010Y0108576D01*
X0160856Y0108711D01*
X0160706Y0108849D01*
X0160559Y0108991D01*
X0160415Y0109136D01*
X0160275Y0109285D01*
X0160139Y0109437D01*
X0160006Y0109593D01*
X0159878Y0109751D01*
X0159753Y0109913D01*
X0159632Y0110078D01*
X0159515Y0110245D01*
X0159402Y0110416D01*
X0159293Y0110589D01*
X0159188Y0110764D01*
X0159270Y0110811D01*
X0159373Y0110637D01*
X0159481Y0110466D01*
X0159593Y0110298D01*
X0159708Y0110132D01*
X0159828Y0109969D01*
X0159952Y0109810D01*
X0160079Y0109653D01*
X0160210Y0109499D01*
X0160345Y0109349D01*
X0160483Y0109201D01*
X0160625Y0109058D01*
X0160771Y0108917D01*
X0160919Y0108781D01*
X0161071Y0108648D01*
X0161227Y0108518D01*
X0161385Y0108393D01*
X0161546Y0108271D01*
X0161710Y0108153D01*
X0161877Y0108039D01*
X0162047Y0107930D01*
X0162219Y0107824D01*
X0162394Y0107723D01*
X0162571Y0107625D01*
X0162750Y0107533D01*
X0162932Y0107444D01*
X0163116Y0107360D01*
X0163301Y0107280D01*
X0163489Y0107205D01*
X0163678Y0107135D01*
X0163869Y0107069D01*
X0164062Y0107008D01*
X0164256Y0106951D01*
X0164451Y0106899D01*
X0164647Y0106852D01*
X0164845Y0106810D01*
X0165043Y0106772D01*
X0165243Y0106739D01*
X0165443Y0106711D01*
X0165644Y0106688D01*
X0165845Y0106670D01*
X0166046Y0106656D01*
X0166248Y0106648D01*
X0166450Y0106644D01*
X0166450Y0106738D01*
X0166251Y0106742D01*
X0166051Y0106750D01*
X0165852Y0106763D01*
X0165653Y0106782D01*
X0165454Y0106804D01*
X0165257Y0106832D01*
X0165059Y0106865D01*
X0164863Y0106902D01*
X0164668Y0106944D01*
X0164474Y0106990D01*
X0164281Y0107042D01*
X0164089Y0107098D01*
X0163899Y0107158D01*
X0163710Y0107223D01*
X0163523Y0107293D01*
X0163337Y0107367D01*
X0163154Y0107446D01*
X0162972Y0107529D01*
X0162792Y0107617D01*
X0162615Y0107708D01*
X0162440Y0107804D01*
X0162267Y0107905D01*
X0162097Y0108009D01*
X0161929Y0108118D01*
X0161764Y0108230D01*
X0161602Y0108346D01*
X0161443Y0108467D01*
X0161286Y0108591D01*
X0161133Y0108719D01*
X0160982Y0108850D01*
X0160835Y0108986D01*
X0160692Y0109124D01*
X0160551Y0109266D01*
X0160414Y0109412D01*
X0160281Y0109561D01*
X0160151Y0109713D01*
X0160025Y0109868D01*
X0159903Y0110026D01*
X0159785Y0110187D01*
X0159671Y0110350D01*
X0159560Y0110517D01*
X0159454Y0110686D01*
X0159352Y0110857D01*
X0159433Y0110904D01*
X0159534Y0110734D01*
X0159639Y0110567D01*
X0159749Y0110403D01*
X0159862Y0110241D01*
X0159979Y0110082D01*
X0160099Y0109926D01*
X0160224Y0109772D01*
X0160352Y0109622D01*
X0160484Y0109475D01*
X0160619Y0109331D01*
X0160758Y0109191D01*
X0160900Y0109054D01*
X0161045Y0108920D01*
X0161194Y0108790D01*
X0161346Y0108664D01*
X0161500Y0108541D01*
X0161658Y0108422D01*
X0161818Y0108307D01*
X0161981Y0108196D01*
X0162147Y0108089D01*
X0162315Y0107985D01*
X0162486Y0107886D01*
X0162659Y0107791D01*
X0162835Y0107701D01*
X0163012Y0107614D01*
X0163192Y0107532D01*
X0163373Y0107454D01*
X0163556Y0107381D01*
X0163741Y0107312D01*
X0163928Y0107248D01*
X0164116Y0107188D01*
X0164306Y0107132D01*
X0164496Y0107082D01*
X0164688Y0107035D01*
X0164881Y0106994D01*
X0165075Y0106957D01*
X0165270Y0106925D01*
X0165466Y0106898D01*
X0165662Y0106875D01*
X0165859Y0106857D01*
X0166056Y0106844D01*
X0166253Y0106836D01*
X0166450Y0106832D01*
X0166450Y0106926D01*
X0166255Y0106930D01*
X0166060Y0106938D01*
X0165865Y0106951D01*
X0165671Y0106969D01*
X0165477Y0106991D01*
X0165284Y0107018D01*
X0165091Y0107050D01*
X0164900Y0107086D01*
X0164709Y0107127D01*
X0164519Y0107173D01*
X0164331Y0107223D01*
X0164143Y0107278D01*
X0163957Y0107337D01*
X0163773Y0107400D01*
X0163590Y0107469D01*
X0163409Y0107541D01*
X0163230Y0107618D01*
X0163052Y0107699D01*
X0162877Y0107785D01*
X0162703Y0107874D01*
X0162532Y0107968D01*
X0162364Y0108066D01*
X0162197Y0108168D01*
X0162033Y0108274D01*
X0161872Y0108384D01*
X0161714Y0108498D01*
X0161558Y0108615D01*
X0161405Y0108737D01*
X0161255Y0108862D01*
X0161108Y0108990D01*
X0160965Y0109122D01*
X0160824Y0109258D01*
X0160687Y0109397D01*
X0160553Y0109539D01*
X0160423Y0109684D01*
X0160296Y0109832D01*
X0160173Y0109984D01*
X0160054Y0110138D01*
X0159938Y0110295D01*
X0159827Y0110455D01*
X0159719Y0110618D01*
X0159615Y0110783D01*
X0159515Y0110951D01*
X0159596Y0110997D01*
X0159695Y0110832D01*
X0159798Y0110668D01*
X0159905Y0110508D01*
X0160015Y0110350D01*
X0160129Y0110194D01*
X0160247Y0110042D01*
X0160369Y0109892D01*
X0160494Y0109746D01*
X0160623Y0109602D01*
X0160755Y0109462D01*
X0160890Y0109324D01*
X0161029Y0109190D01*
X0161171Y0109060D01*
X0161316Y0108933D01*
X0161464Y0108809D01*
X0161615Y0108690D01*
X0161769Y0108573D01*
X0161926Y0108461D01*
X0162085Y0108352D01*
X0162247Y0108248D01*
X0162412Y0108147D01*
X0162578Y0108050D01*
X0162748Y0107957D01*
X0162919Y0107869D01*
X0163092Y0107784D01*
X0163268Y0107704D01*
X0163445Y0107628D01*
X0163624Y0107556D01*
X0163805Y0107489D01*
X0163987Y0107426D01*
X0164171Y0107368D01*
X0164356Y0107314D01*
X0164542Y0107264D01*
X0164730Y0107219D01*
X0164918Y0107178D01*
X0165107Y0107142D01*
X0165298Y0107111D01*
X0165489Y0107084D01*
X0165680Y0107062D01*
X0165872Y0107045D01*
X0166065Y0107032D01*
X0166257Y0107024D01*
X0166450Y0107020D01*
X0166450Y0107114D01*
X0166260Y0107118D01*
X0166069Y0107126D01*
X0165879Y0107138D01*
X0165689Y0107156D01*
X0165500Y0107178D01*
X0165312Y0107204D01*
X0165124Y0107235D01*
X0164936Y0107271D01*
X0164750Y0107311D01*
X0164565Y0107355D01*
X0164381Y0107404D01*
X0164198Y0107458D01*
X0164016Y0107515D01*
X0163836Y0107578D01*
X0163658Y0107644D01*
X0163481Y0107715D01*
X0163306Y0107790D01*
X0163132Y0107869D01*
X0162961Y0107953D01*
X0162792Y0108040D01*
X0162625Y0108132D01*
X0162460Y0108228D01*
X0162297Y0108327D01*
X0162137Y0108431D01*
X0161980Y0108538D01*
X0161825Y0108649D01*
X0161673Y0108764D01*
X0161524Y0108882D01*
X0161378Y0109004D01*
X0161234Y0109130D01*
X0161094Y0109259D01*
X0160957Y0109391D01*
X0160823Y0109527D01*
X0160692Y0109665D01*
X0160565Y0109807D01*
X0160441Y0109952D01*
X0160321Y0110100D01*
X0160205Y0110251D01*
X0160092Y0110404D01*
X0159983Y0110560D01*
X0159877Y0110719D01*
X0159776Y0110880D01*
X0159678Y0111044D01*
X0159760Y0111091D01*
X0159856Y0110929D01*
X0159956Y0110770D01*
X0160060Y0110613D01*
X0160168Y0110458D01*
X0160280Y0110307D01*
X0160395Y0110158D01*
X0160514Y0110012D01*
X0160636Y0109869D01*
X0160762Y0109729D01*
X0160891Y0109592D01*
X0161023Y0109458D01*
X0161159Y0109327D01*
X0161297Y0109200D01*
X0161439Y0109076D01*
X0161583Y0108955D01*
X0161731Y0108838D01*
X0161881Y0108725D01*
X0162034Y0108615D01*
X0162190Y0108509D01*
X0162348Y0108407D01*
X0162508Y0108308D01*
X0162671Y0108214D01*
X0162836Y0108123D01*
X0163003Y0108037D01*
X0163172Y0107954D01*
X0163343Y0107876D01*
X0163516Y0107802D01*
X0163691Y0107732D01*
X0163868Y0107666D01*
X0164046Y0107605D01*
X0164225Y0107548D01*
X0164406Y0107495D01*
X0164588Y0107446D01*
X0164771Y0107402D01*
X0164955Y0107363D01*
X0165140Y0107328D01*
X0165325Y0107297D01*
X0165512Y0107271D01*
X0165699Y0107249D01*
X0165886Y0107232D01*
X0166074Y0107220D01*
X0166262Y0107212D01*
X0166450Y0107208D01*
X0166450Y0107302D01*
X0166264Y0107306D01*
X0166079Y0107314D01*
X0165893Y0107326D01*
X0165708Y0107343D01*
X0165523Y0107364D01*
X0165339Y0107390D01*
X0165156Y0107420D01*
X0164973Y0107455D01*
X0164791Y0107494D01*
X0164610Y0107538D01*
X0164431Y0107585D01*
X0164252Y0107638D01*
X0164075Y0107694D01*
X0163899Y0107755D01*
X0163725Y0107820D01*
X0163552Y0107889D01*
X0163381Y0107962D01*
X0163212Y0108039D01*
X0163045Y0108121D01*
X0162880Y0108206D01*
X0162717Y0108296D01*
X0162556Y0108389D01*
X0162398Y0108486D01*
X0162242Y0108587D01*
X0162088Y0108692D01*
X0161937Y0108800D01*
X0161788Y0108912D01*
X0161643Y0109028D01*
X0161500Y0109147D01*
X0161360Y0109269D01*
X0161223Y0109395D01*
X0161089Y0109524D01*
X0160959Y0109657D01*
X0160831Y0109792D01*
X0160707Y0109930D01*
X0160586Y0110072D01*
X0160469Y0110216D01*
X0160355Y0110363D01*
X0160245Y0110513D01*
X0160138Y0110665D01*
X0160036Y0110820D01*
X0159937Y0110978D01*
X0159841Y0111137D01*
X0159923Y0111184D01*
X0160017Y0111026D01*
X0160115Y0110871D01*
X0160216Y0110718D01*
X0160322Y0110567D01*
X0160431Y0110419D01*
X0160543Y0110274D01*
X0160659Y0110132D01*
X0160778Y0109992D01*
X0160901Y0109855D01*
X0161027Y0109722D01*
X0161156Y0109591D01*
X0161288Y0109463D01*
X0161423Y0109339D01*
X0161561Y0109218D01*
X0161702Y0109101D01*
X0161846Y0108987D01*
X0161993Y0108876D01*
X0162142Y0108769D01*
X0162294Y0108665D01*
X0162448Y0108566D01*
X0162604Y0108470D01*
X0162763Y0108378D01*
X0162924Y0108289D01*
X0163087Y0108205D01*
X0163252Y0108124D01*
X0163419Y0108048D01*
X0163588Y0107976D01*
X0163759Y0107907D01*
X0163931Y0107843D01*
X0164104Y0107783D01*
X0164279Y0107727D01*
X0164456Y0107676D01*
X0164633Y0107629D01*
X0164812Y0107586D01*
X0164991Y0107547D01*
X0165172Y0107513D01*
X0165353Y0107483D01*
X0165535Y0107458D01*
X0165717Y0107436D01*
X0165900Y0107420D01*
X0166083Y0107407D01*
X0166267Y0107400D01*
X0166450Y0107396D01*
X0166450Y0123449D02*
X0166450Y0122549D01*
X0166450Y0122550D02*
X0166267Y0122546D01*
X0166084Y0122539D01*
X0165901Y0122526D01*
X0165718Y0122509D01*
X0165536Y0122488D01*
X0165355Y0122463D01*
X0165174Y0122433D01*
X0164994Y0122398D01*
X0164815Y0122360D01*
X0164637Y0122317D01*
X0164460Y0122269D01*
X0164285Y0122218D01*
X0164110Y0122162D01*
X0163937Y0122102D01*
X0163766Y0122037D01*
X0163596Y0121969D01*
X0163427Y0121897D01*
X0163261Y0121820D01*
X0163097Y0121739D01*
X0162934Y0121655D01*
X0162774Y0121566D01*
X0162615Y0121474D01*
X0162459Y0121378D01*
X0162306Y0121278D01*
X0162155Y0121174D01*
X0162006Y0121067D01*
X0161860Y0120956D01*
X0161717Y0120842D01*
X0161577Y0120724D01*
X0161440Y0120603D01*
X0161305Y0120479D01*
X0161174Y0120351D01*
X0161045Y0120220D01*
X0160920Y0120086D01*
X0160799Y0119950D01*
X0160680Y0119810D01*
X0160565Y0119667D01*
X0160454Y0119522D01*
X0160346Y0119374D01*
X0160242Y0119223D01*
X0160141Y0119070D01*
X0160044Y0118915D01*
X0159951Y0118757D01*
X0159862Y0118597D01*
X0159068Y0119020D01*
X0159168Y0119200D01*
X0159272Y0119377D01*
X0159380Y0119551D01*
X0159493Y0119723D01*
X0159610Y0119891D01*
X0159731Y0120057D01*
X0159855Y0120220D01*
X0159984Y0120380D01*
X0160117Y0120537D01*
X0160253Y0120690D01*
X0160393Y0120840D01*
X0160537Y0120987D01*
X0160684Y0121130D01*
X0160835Y0121270D01*
X0160989Y0121405D01*
X0161146Y0121537D01*
X0161306Y0121665D01*
X0161470Y0121790D01*
X0161636Y0121910D01*
X0161806Y0122026D01*
X0161978Y0122138D01*
X0162152Y0122246D01*
X0162330Y0122349D01*
X0162509Y0122448D01*
X0162692Y0122543D01*
X0162876Y0122633D01*
X0163062Y0122719D01*
X0163251Y0122800D01*
X0163441Y0122877D01*
X0163634Y0122949D01*
X0163828Y0123016D01*
X0164023Y0123079D01*
X0164220Y0123137D01*
X0164418Y0123190D01*
X0164618Y0123238D01*
X0164819Y0123281D01*
X0165020Y0123319D01*
X0165223Y0123353D01*
X0165426Y0123381D01*
X0165630Y0123405D01*
X0165835Y0123424D01*
X0166039Y0123437D01*
X0166244Y0123446D01*
X0166450Y0123450D01*
X0166450Y0123356D01*
X0166247Y0123352D01*
X0166044Y0123344D01*
X0165841Y0123330D01*
X0165639Y0123312D01*
X0165438Y0123288D01*
X0165237Y0123260D01*
X0165036Y0123227D01*
X0164837Y0123189D01*
X0164639Y0123146D01*
X0164441Y0123098D01*
X0164245Y0123046D01*
X0164050Y0122989D01*
X0163857Y0122927D01*
X0163665Y0122860D01*
X0163475Y0122789D01*
X0163287Y0122714D01*
X0163101Y0122633D01*
X0162916Y0122548D01*
X0162734Y0122459D01*
X0162554Y0122365D01*
X0162376Y0122267D01*
X0162201Y0122165D01*
X0162028Y0122059D01*
X0161858Y0121948D01*
X0161690Y0121833D01*
X0161526Y0121714D01*
X0161364Y0121591D01*
X0161206Y0121465D01*
X0161050Y0121334D01*
X0160898Y0121200D01*
X0160749Y0121062D01*
X0160603Y0120921D01*
X0160461Y0120776D01*
X0160323Y0120627D01*
X0160188Y0120476D01*
X0160057Y0120321D01*
X0159930Y0120163D01*
X0159806Y0120001D01*
X0159687Y0119837D01*
X0159571Y0119670D01*
X0159460Y0119501D01*
X0159352Y0119328D01*
X0159249Y0119153D01*
X0159151Y0118976D01*
X0159234Y0118932D01*
X0159331Y0119107D01*
X0159433Y0119280D01*
X0159539Y0119450D01*
X0159649Y0119618D01*
X0159763Y0119783D01*
X0159882Y0119945D01*
X0160004Y0120105D01*
X0160130Y0120261D01*
X0160259Y0120414D01*
X0160393Y0120564D01*
X0160529Y0120711D01*
X0160670Y0120854D01*
X0160814Y0120994D01*
X0160961Y0121130D01*
X0161112Y0121263D01*
X0161265Y0121392D01*
X0161422Y0121517D01*
X0161582Y0121639D01*
X0161745Y0121756D01*
X0161910Y0121870D01*
X0162078Y0121979D01*
X0162249Y0122085D01*
X0162422Y0122186D01*
X0162598Y0122283D01*
X0162776Y0122375D01*
X0162956Y0122463D01*
X0163139Y0122547D01*
X0163323Y0122627D01*
X0163509Y0122702D01*
X0163697Y0122772D01*
X0163887Y0122838D01*
X0164078Y0122899D01*
X0164270Y0122955D01*
X0164464Y0123007D01*
X0164659Y0123054D01*
X0164855Y0123097D01*
X0165053Y0123134D01*
X0165251Y0123167D01*
X0165449Y0123195D01*
X0165649Y0123218D01*
X0165848Y0123236D01*
X0166049Y0123250D01*
X0166249Y0123258D01*
X0166450Y0123262D01*
X0166450Y0123168D01*
X0166251Y0123164D01*
X0166053Y0123156D01*
X0165855Y0123143D01*
X0165658Y0123124D01*
X0165461Y0123102D01*
X0165264Y0123074D01*
X0165069Y0123042D01*
X0164874Y0123004D01*
X0164680Y0122963D01*
X0164487Y0122916D01*
X0164295Y0122865D01*
X0164105Y0122809D01*
X0163916Y0122749D01*
X0163729Y0122684D01*
X0163543Y0122614D01*
X0163359Y0122540D01*
X0163177Y0122461D01*
X0162997Y0122378D01*
X0162818Y0122291D01*
X0162642Y0122200D01*
X0162469Y0122104D01*
X0162297Y0122004D01*
X0162129Y0121900D01*
X0161962Y0121792D01*
X0161799Y0121679D01*
X0161638Y0121563D01*
X0161480Y0121443D01*
X0161325Y0121319D01*
X0161173Y0121192D01*
X0161024Y0121061D01*
X0160879Y0120926D01*
X0160736Y0120788D01*
X0160598Y0120646D01*
X0160462Y0120501D01*
X0160330Y0120353D01*
X0160202Y0120201D01*
X0160078Y0120047D01*
X0159957Y0119890D01*
X0159840Y0119729D01*
X0159727Y0119566D01*
X0159619Y0119400D01*
X0159514Y0119232D01*
X0159413Y0119061D01*
X0159317Y0118888D01*
X0159399Y0118843D01*
X0159495Y0119015D01*
X0159594Y0119184D01*
X0159698Y0119350D01*
X0159806Y0119514D01*
X0159917Y0119675D01*
X0160033Y0119834D01*
X0160152Y0119989D01*
X0160275Y0120142D01*
X0160402Y0120291D01*
X0160532Y0120438D01*
X0160666Y0120581D01*
X0160803Y0120721D01*
X0160944Y0120858D01*
X0161087Y0120991D01*
X0161234Y0121121D01*
X0161385Y0121247D01*
X0161538Y0121369D01*
X0161694Y0121488D01*
X0161853Y0121603D01*
X0162015Y0121713D01*
X0162179Y0121820D01*
X0162346Y0121923D01*
X0162515Y0122022D01*
X0162687Y0122117D01*
X0162861Y0122207D01*
X0163037Y0122294D01*
X0163215Y0122375D01*
X0163395Y0122453D01*
X0163577Y0122526D01*
X0163760Y0122595D01*
X0163946Y0122659D01*
X0164132Y0122719D01*
X0164320Y0122774D01*
X0164510Y0122825D01*
X0164700Y0122871D01*
X0164892Y0122912D01*
X0165085Y0122949D01*
X0165278Y0122981D01*
X0165472Y0123008D01*
X0165667Y0123031D01*
X0165862Y0123049D01*
X0166058Y0123062D01*
X0166254Y0123070D01*
X0166450Y0123074D01*
X0166450Y0122980D01*
X0166256Y0122976D01*
X0166062Y0122968D01*
X0165869Y0122955D01*
X0165676Y0122937D01*
X0165484Y0122915D01*
X0165292Y0122888D01*
X0165101Y0122856D01*
X0164910Y0122820D01*
X0164721Y0122779D01*
X0164533Y0122734D01*
X0164346Y0122684D01*
X0164160Y0122629D01*
X0163975Y0122570D01*
X0163792Y0122507D01*
X0163611Y0122439D01*
X0163431Y0122366D01*
X0163253Y0122290D01*
X0163077Y0122209D01*
X0162903Y0122123D01*
X0162731Y0122034D01*
X0162561Y0121940D01*
X0162394Y0121843D01*
X0162229Y0121741D01*
X0162067Y0121635D01*
X0161907Y0121526D01*
X0161750Y0121412D01*
X0161596Y0121295D01*
X0161444Y0121174D01*
X0161296Y0121050D01*
X0161151Y0120922D01*
X0161008Y0120790D01*
X0160869Y0120655D01*
X0160734Y0120517D01*
X0160602Y0120375D01*
X0160473Y0120230D01*
X0160348Y0120082D01*
X0160226Y0119931D01*
X0160108Y0119778D01*
X0159994Y0119621D01*
X0159884Y0119462D01*
X0159778Y0119300D01*
X0159675Y0119135D01*
X0159577Y0118968D01*
X0159482Y0118799D01*
X0159565Y0118755D01*
X0159659Y0118922D01*
X0159756Y0119087D01*
X0159857Y0119250D01*
X0159962Y0119410D01*
X0160071Y0119567D01*
X0160184Y0119722D01*
X0160300Y0119874D01*
X0160420Y0120023D01*
X0160544Y0120169D01*
X0160671Y0120312D01*
X0160802Y0120452D01*
X0160936Y0120588D01*
X0161073Y0120722D01*
X0161214Y0120852D01*
X0161357Y0120979D01*
X0161504Y0121102D01*
X0161654Y0121221D01*
X0161806Y0121337D01*
X0161961Y0121449D01*
X0162119Y0121557D01*
X0162280Y0121662D01*
X0162443Y0121762D01*
X0162608Y0121859D01*
X0162775Y0121951D01*
X0162945Y0122039D01*
X0163117Y0122124D01*
X0163291Y0122204D01*
X0163467Y0122279D01*
X0163645Y0122351D01*
X0163824Y0122418D01*
X0164005Y0122481D01*
X0164187Y0122539D01*
X0164371Y0122593D01*
X0164556Y0122643D01*
X0164742Y0122687D01*
X0164929Y0122728D01*
X0165117Y0122764D01*
X0165306Y0122795D01*
X0165495Y0122822D01*
X0165685Y0122844D01*
X0165876Y0122861D01*
X0166067Y0122874D01*
X0166258Y0122882D01*
X0166450Y0122886D01*
X0166450Y0122792D01*
X0166261Y0122788D01*
X0166072Y0122780D01*
X0165883Y0122768D01*
X0165695Y0122750D01*
X0165507Y0122728D01*
X0165320Y0122702D01*
X0165133Y0122671D01*
X0164947Y0122636D01*
X0164762Y0122596D01*
X0164578Y0122551D01*
X0164396Y0122502D01*
X0164214Y0122449D01*
X0164034Y0122392D01*
X0163856Y0122330D01*
X0163678Y0122263D01*
X0163503Y0122193D01*
X0163329Y0122118D01*
X0163157Y0122039D01*
X0162988Y0121955D01*
X0162820Y0121868D01*
X0162654Y0121777D01*
X0162491Y0121681D01*
X0162330Y0121582D01*
X0162171Y0121479D01*
X0162015Y0121372D01*
X0161862Y0121261D01*
X0161711Y0121147D01*
X0161564Y0121029D01*
X0161419Y0120907D01*
X0161277Y0120782D01*
X0161138Y0120654D01*
X0161003Y0120522D01*
X0160870Y0120387D01*
X0160741Y0120249D01*
X0160615Y0120107D01*
X0160493Y0119963D01*
X0160374Y0119816D01*
X0160259Y0119666D01*
X0160148Y0119513D01*
X0160040Y0119357D01*
X0159936Y0119199D01*
X0159836Y0119039D01*
X0159740Y0118876D01*
X0159648Y0118711D01*
X0159731Y0118666D01*
X0159822Y0118830D01*
X0159917Y0118991D01*
X0160016Y0119149D01*
X0160118Y0119305D01*
X0160225Y0119459D01*
X0160335Y0119610D01*
X0160449Y0119758D01*
X0160566Y0119904D01*
X0160687Y0120046D01*
X0160811Y0120186D01*
X0160938Y0120322D01*
X0161069Y0120456D01*
X0161203Y0120586D01*
X0161340Y0120713D01*
X0161480Y0120836D01*
X0161623Y0120956D01*
X0161769Y0121073D01*
X0161918Y0121186D01*
X0162070Y0121295D01*
X0162224Y0121401D01*
X0162380Y0121503D01*
X0162539Y0121601D01*
X0162701Y0121695D01*
X0162864Y0121785D01*
X0163030Y0121872D01*
X0163198Y0121954D01*
X0163367Y0122032D01*
X0163539Y0122106D01*
X0163712Y0122175D01*
X0163887Y0122241D01*
X0164064Y0122302D01*
X0164242Y0122359D01*
X0164421Y0122412D01*
X0164601Y0122460D01*
X0164783Y0122504D01*
X0164966Y0122544D01*
X0165149Y0122579D01*
X0165333Y0122609D01*
X0165518Y0122635D01*
X0165704Y0122657D01*
X0165890Y0122674D01*
X0166076Y0122686D01*
X0166263Y0122694D01*
X0166450Y0122698D01*
X0166450Y0122604D01*
X0166265Y0122600D01*
X0166081Y0122592D01*
X0165897Y0122580D01*
X0165713Y0122563D01*
X0165530Y0122542D01*
X0165347Y0122516D01*
X0165165Y0122486D01*
X0164984Y0122451D01*
X0164804Y0122412D01*
X0164624Y0122369D01*
X0164446Y0122321D01*
X0164269Y0122269D01*
X0164093Y0122213D01*
X0163919Y0122153D01*
X0163746Y0122088D01*
X0163575Y0122019D01*
X0163406Y0121946D01*
X0163238Y0121869D01*
X0163072Y0121788D01*
X0162909Y0121702D01*
X0162747Y0121613D01*
X0162588Y0121520D01*
X0162431Y0121423D01*
X0162276Y0121323D01*
X0162124Y0121218D01*
X0161974Y0121110D01*
X0161827Y0120999D01*
X0161683Y0120884D01*
X0161542Y0120765D01*
X0161403Y0120643D01*
X0161268Y0120518D01*
X0161136Y0120389D01*
X0161006Y0120257D01*
X0160880Y0120123D01*
X0160758Y0119985D01*
X0160639Y0119844D01*
X0160523Y0119700D01*
X0160410Y0119554D01*
X0160302Y0119405D01*
X0160197Y0119253D01*
X0160095Y0119099D01*
X0159998Y0118942D01*
X0159904Y0118783D01*
X0159814Y0118622D01*
X0172959Y0120448D02*
X0172267Y0119871D01*
X0172268Y0119872D02*
X0172149Y0120009D01*
X0172028Y0120143D01*
X0171903Y0120274D01*
X0171775Y0120402D01*
X0171644Y0120526D01*
X0171510Y0120648D01*
X0171373Y0120767D01*
X0171234Y0120882D01*
X0171091Y0120993D01*
X0170946Y0121102D01*
X0170799Y0121207D01*
X0170649Y0121308D01*
X0170497Y0121405D01*
X0170342Y0121499D01*
X0170185Y0121590D01*
X0170026Y0121676D01*
X0169865Y0121759D01*
X0169702Y0121837D01*
X0169537Y0121912D01*
X0169371Y0121983D01*
X0169203Y0122050D01*
X0169033Y0122112D01*
X0168862Y0122171D01*
X0168689Y0122226D01*
X0168516Y0122276D01*
X0168341Y0122322D01*
X0168165Y0122364D01*
X0167988Y0122402D01*
X0167810Y0122435D01*
X0167631Y0122465D01*
X0167452Y0122490D01*
X0167272Y0122510D01*
X0167092Y0122527D01*
X0166912Y0122539D01*
X0166731Y0122546D01*
X0166550Y0122550D01*
X0166549Y0123449D01*
X0166550Y0123450D01*
X0166753Y0123446D01*
X0166955Y0123438D01*
X0167158Y0123424D01*
X0167360Y0123406D01*
X0167561Y0123383D01*
X0167762Y0123355D01*
X0167962Y0123322D01*
X0168162Y0123285D01*
X0168360Y0123243D01*
X0168558Y0123196D01*
X0168754Y0123144D01*
X0168948Y0123087D01*
X0169142Y0123026D01*
X0169334Y0122961D01*
X0169524Y0122890D01*
X0169713Y0122815D01*
X0169899Y0122736D01*
X0170084Y0122652D01*
X0170267Y0122564D01*
X0170447Y0122471D01*
X0170625Y0122375D01*
X0170801Y0122273D01*
X0170974Y0122168D01*
X0171145Y0122059D01*
X0171313Y0121945D01*
X0171479Y0121828D01*
X0171641Y0121706D01*
X0171801Y0121581D01*
X0171957Y0121452D01*
X0172110Y0121319D01*
X0172260Y0121182D01*
X0172407Y0121042D01*
X0172550Y0120899D01*
X0172690Y0120752D01*
X0172827Y0120602D01*
X0172959Y0120448D01*
X0172887Y0120388D01*
X0172756Y0120540D01*
X0172621Y0120688D01*
X0172483Y0120833D01*
X0172341Y0120975D01*
X0172196Y0121114D01*
X0172048Y0121249D01*
X0171896Y0121380D01*
X0171741Y0121508D01*
X0171584Y0121632D01*
X0171423Y0121752D01*
X0171260Y0121868D01*
X0171093Y0121980D01*
X0170925Y0122088D01*
X0170753Y0122193D01*
X0170579Y0122293D01*
X0170403Y0122388D01*
X0170225Y0122480D01*
X0170044Y0122567D01*
X0169861Y0122650D01*
X0169677Y0122729D01*
X0169491Y0122803D01*
X0169302Y0122872D01*
X0169113Y0122937D01*
X0168921Y0122997D01*
X0168729Y0123053D01*
X0168535Y0123104D01*
X0168340Y0123151D01*
X0168144Y0123193D01*
X0167947Y0123230D01*
X0167749Y0123262D01*
X0167550Y0123290D01*
X0167351Y0123313D01*
X0167151Y0123331D01*
X0166951Y0123344D01*
X0166750Y0123352D01*
X0166550Y0123356D01*
X0166550Y0123262D01*
X0166748Y0123258D01*
X0166946Y0123250D01*
X0167144Y0123237D01*
X0167342Y0123219D01*
X0167539Y0123196D01*
X0167735Y0123169D01*
X0167931Y0123137D01*
X0168125Y0123101D01*
X0168319Y0123059D01*
X0168512Y0123013D01*
X0168704Y0122963D01*
X0168894Y0122907D01*
X0169083Y0122848D01*
X0169271Y0122783D01*
X0169457Y0122715D01*
X0169641Y0122642D01*
X0169824Y0122564D01*
X0170004Y0122482D01*
X0170183Y0122396D01*
X0170359Y0122305D01*
X0170533Y0122211D01*
X0170705Y0122112D01*
X0170875Y0122009D01*
X0171042Y0121902D01*
X0171206Y0121791D01*
X0171367Y0121676D01*
X0171526Y0121557D01*
X0171682Y0121435D01*
X0171835Y0121309D01*
X0171985Y0121179D01*
X0172132Y0121045D01*
X0172275Y0120908D01*
X0172415Y0120768D01*
X0172552Y0120625D01*
X0172685Y0120478D01*
X0172815Y0120328D01*
X0172743Y0120268D01*
X0172614Y0120416D01*
X0172483Y0120561D01*
X0172348Y0120703D01*
X0172209Y0120841D01*
X0172067Y0120977D01*
X0171922Y0121109D01*
X0171774Y0121237D01*
X0171623Y0121362D01*
X0171469Y0121483D01*
X0171312Y0121600D01*
X0171152Y0121714D01*
X0170990Y0121823D01*
X0170825Y0121929D01*
X0170657Y0122031D01*
X0170487Y0122129D01*
X0170315Y0122222D01*
X0170141Y0122312D01*
X0169964Y0122397D01*
X0169786Y0122478D01*
X0169606Y0122555D01*
X0169423Y0122627D01*
X0169240Y0122695D01*
X0169054Y0122758D01*
X0168867Y0122817D01*
X0168679Y0122872D01*
X0168490Y0122922D01*
X0168299Y0122967D01*
X0168107Y0123008D01*
X0167915Y0123045D01*
X0167721Y0123076D01*
X0167527Y0123103D01*
X0167332Y0123125D01*
X0167137Y0123143D01*
X0166942Y0123156D01*
X0166746Y0123164D01*
X0166550Y0123168D01*
X0166550Y0123074D01*
X0166744Y0123070D01*
X0166937Y0123062D01*
X0167130Y0123049D01*
X0167323Y0123032D01*
X0167516Y0123010D01*
X0167708Y0122983D01*
X0167899Y0122952D01*
X0168089Y0122916D01*
X0168279Y0122876D01*
X0168467Y0122831D01*
X0168654Y0122781D01*
X0168840Y0122727D01*
X0169025Y0122669D01*
X0169208Y0122606D01*
X0169390Y0122539D01*
X0169570Y0122468D01*
X0169748Y0122392D01*
X0169925Y0122312D01*
X0170099Y0122228D01*
X0170271Y0122139D01*
X0170441Y0122047D01*
X0170609Y0121950D01*
X0170775Y0121849D01*
X0170938Y0121745D01*
X0171098Y0121637D01*
X0171256Y0121524D01*
X0171411Y0121408D01*
X0171564Y0121289D01*
X0171713Y0121165D01*
X0171860Y0121039D01*
X0172003Y0120908D01*
X0172143Y0120775D01*
X0172280Y0120638D01*
X0172413Y0120497D01*
X0172544Y0120354D01*
X0172670Y0120207D01*
X0172598Y0120147D01*
X0172473Y0120292D01*
X0172344Y0120434D01*
X0172212Y0120572D01*
X0172077Y0120708D01*
X0171938Y0120840D01*
X0171797Y0120969D01*
X0171652Y0121094D01*
X0171505Y0121216D01*
X0171354Y0121334D01*
X0171201Y0121449D01*
X0171045Y0121559D01*
X0170886Y0121667D01*
X0170725Y0121770D01*
X0170561Y0121869D01*
X0170395Y0121965D01*
X0170227Y0122056D01*
X0170057Y0122143D01*
X0169885Y0122227D01*
X0169710Y0122306D01*
X0169534Y0122381D01*
X0169356Y0122451D01*
X0169177Y0122518D01*
X0168996Y0122580D01*
X0168813Y0122637D01*
X0168629Y0122691D01*
X0168444Y0122740D01*
X0168258Y0122784D01*
X0168071Y0122824D01*
X0167883Y0122859D01*
X0167694Y0122890D01*
X0167504Y0122917D01*
X0167314Y0122938D01*
X0167124Y0122956D01*
X0166933Y0122968D01*
X0166741Y0122976D01*
X0166550Y0122980D01*
X0166550Y0122886D01*
X0166739Y0122882D01*
X0166928Y0122874D01*
X0167117Y0122862D01*
X0167305Y0122845D01*
X0167493Y0122823D01*
X0167680Y0122797D01*
X0167867Y0122767D01*
X0168053Y0122732D01*
X0168238Y0122692D01*
X0168422Y0122648D01*
X0168604Y0122600D01*
X0168786Y0122547D01*
X0168966Y0122490D01*
X0169145Y0122429D01*
X0169323Y0122363D01*
X0169499Y0122294D01*
X0169673Y0122220D01*
X0169845Y0122142D01*
X0170015Y0122059D01*
X0170183Y0121973D01*
X0170349Y0121883D01*
X0170513Y0121788D01*
X0170675Y0121690D01*
X0170834Y0121588D01*
X0170991Y0121482D01*
X0171145Y0121373D01*
X0171297Y0121259D01*
X0171445Y0121143D01*
X0171591Y0121022D01*
X0171734Y0120899D01*
X0171874Y0120771D01*
X0172011Y0120641D01*
X0172145Y0120507D01*
X0172275Y0120370D01*
X0172402Y0120230D01*
X0172526Y0120087D01*
X0172454Y0120027D01*
X0172331Y0120168D01*
X0172206Y0120306D01*
X0172077Y0120442D01*
X0171945Y0120574D01*
X0171810Y0120703D01*
X0171671Y0120828D01*
X0171530Y0120951D01*
X0171386Y0121070D01*
X0171239Y0121185D01*
X0171090Y0121297D01*
X0170937Y0121405D01*
X0170782Y0121510D01*
X0170625Y0121610D01*
X0170465Y0121707D01*
X0170304Y0121801D01*
X0170139Y0121890D01*
X0169973Y0121975D01*
X0169805Y0122056D01*
X0169635Y0122134D01*
X0169463Y0122207D01*
X0169289Y0122276D01*
X0169114Y0122340D01*
X0168937Y0122401D01*
X0168759Y0122457D01*
X0168580Y0122509D01*
X0168399Y0122557D01*
X0168217Y0122600D01*
X0168035Y0122639D01*
X0167851Y0122674D01*
X0167667Y0122704D01*
X0167482Y0122730D01*
X0167296Y0122751D01*
X0167110Y0122768D01*
X0166923Y0122780D01*
X0166737Y0122788D01*
X0166550Y0122792D01*
X0166550Y0122698D01*
X0166734Y0122694D01*
X0166919Y0122687D01*
X0167103Y0122674D01*
X0167287Y0122658D01*
X0167470Y0122637D01*
X0167653Y0122611D01*
X0167835Y0122581D01*
X0168016Y0122547D01*
X0168197Y0122509D01*
X0168376Y0122466D01*
X0168555Y0122419D01*
X0168732Y0122367D01*
X0168908Y0122312D01*
X0169083Y0122252D01*
X0169256Y0122188D01*
X0169427Y0122120D01*
X0169597Y0122048D01*
X0169765Y0121971D01*
X0169931Y0121891D01*
X0170095Y0121807D01*
X0170258Y0121719D01*
X0170418Y0121627D01*
X0170575Y0121531D01*
X0170731Y0121431D01*
X0170884Y0121328D01*
X0171034Y0121221D01*
X0171182Y0121111D01*
X0171327Y0120997D01*
X0171469Y0120879D01*
X0171609Y0120758D01*
X0171745Y0120634D01*
X0171879Y0120507D01*
X0172009Y0120376D01*
X0172137Y0120243D01*
X0172261Y0120106D01*
X0172381Y0119967D01*
X0172309Y0119906D01*
X0172190Y0120044D01*
X0172067Y0120179D01*
X0171942Y0120311D01*
X0171813Y0120440D01*
X0171681Y0120566D01*
X0171546Y0120688D01*
X0171408Y0120808D01*
X0171268Y0120924D01*
X0171124Y0121036D01*
X0170978Y0121145D01*
X0170830Y0121251D01*
X0170679Y0121353D01*
X0170525Y0121451D01*
X0170370Y0121546D01*
X0170212Y0121637D01*
X0170051Y0121724D01*
X0169889Y0121807D01*
X0169725Y0121886D01*
X0169559Y0121961D01*
X0169391Y0122033D01*
X0169222Y0122100D01*
X0169051Y0122163D01*
X0168879Y0122222D01*
X0168705Y0122277D01*
X0168530Y0122328D01*
X0168354Y0122375D01*
X0168176Y0122417D01*
X0167998Y0122455D01*
X0167819Y0122489D01*
X0167639Y0122518D01*
X0167459Y0122543D01*
X0167278Y0122564D01*
X0167096Y0122581D01*
X0166914Y0122593D01*
X0166732Y0122600D01*
X0166550Y0122604D01*
X0166549Y0106551D02*
X0166549Y0107451D01*
X0166550Y0107450D02*
X0166734Y0107454D01*
X0166919Y0107462D01*
X0167103Y0107474D01*
X0167286Y0107491D01*
X0167470Y0107513D01*
X0167652Y0107538D01*
X0167834Y0107569D01*
X0168015Y0107604D01*
X0168196Y0107643D01*
X0168375Y0107687D01*
X0168553Y0107735D01*
X0168730Y0107787D01*
X0168906Y0107844D01*
X0169080Y0107904D01*
X0169252Y0107970D01*
X0169423Y0108039D01*
X0169593Y0108112D01*
X0169760Y0108190D01*
X0169925Y0108272D01*
X0170089Y0108357D01*
X0170250Y0108447D01*
X0170409Y0108541D01*
X0170566Y0108638D01*
X0170720Y0108739D01*
X0170872Y0108844D01*
X0171021Y0108953D01*
X0171167Y0109065D01*
X0171311Y0109181D01*
X0171451Y0109300D01*
X0171589Y0109423D01*
X0171724Y0109549D01*
X0171856Y0109678D01*
X0171984Y0109811D01*
X0172109Y0109946D01*
X0172231Y0110085D01*
X0172918Y0109504D01*
X0172782Y0109348D01*
X0172641Y0109196D01*
X0172497Y0109047D01*
X0172350Y0108902D01*
X0172199Y0108761D01*
X0172045Y0108624D01*
X0171887Y0108490D01*
X0171726Y0108360D01*
X0171562Y0108234D01*
X0171395Y0108112D01*
X0171225Y0107994D01*
X0171052Y0107881D01*
X0170876Y0107772D01*
X0170698Y0107667D01*
X0170517Y0107566D01*
X0170334Y0107470D01*
X0170149Y0107378D01*
X0169961Y0107291D01*
X0169771Y0107209D01*
X0169580Y0107131D01*
X0169386Y0107058D01*
X0169191Y0106990D01*
X0168994Y0106926D01*
X0168796Y0106868D01*
X0168596Y0106814D01*
X0168395Y0106765D01*
X0168193Y0106721D01*
X0167990Y0106682D01*
X0167786Y0106648D01*
X0167581Y0106619D01*
X0167376Y0106595D01*
X0167170Y0106577D01*
X0166963Y0106563D01*
X0166757Y0106554D01*
X0166550Y0106550D01*
X0166550Y0106644D01*
X0166754Y0106648D01*
X0166959Y0106657D01*
X0167163Y0106670D01*
X0167366Y0106689D01*
X0167569Y0106713D01*
X0167772Y0106741D01*
X0167974Y0106775D01*
X0168174Y0106813D01*
X0168374Y0106857D01*
X0168573Y0106905D01*
X0168770Y0106958D01*
X0168967Y0107016D01*
X0169161Y0107079D01*
X0169354Y0107147D01*
X0169546Y0107219D01*
X0169735Y0107296D01*
X0169923Y0107377D01*
X0170108Y0107463D01*
X0170291Y0107554D01*
X0170473Y0107649D01*
X0170651Y0107748D01*
X0170827Y0107852D01*
X0171001Y0107960D01*
X0171172Y0108072D01*
X0171340Y0108189D01*
X0171505Y0108309D01*
X0171668Y0108434D01*
X0171827Y0108562D01*
X0171983Y0108694D01*
X0172135Y0108830D01*
X0172285Y0108970D01*
X0172430Y0109113D01*
X0172573Y0109260D01*
X0172711Y0109411D01*
X0172846Y0109564D01*
X0172775Y0109625D01*
X0172641Y0109473D01*
X0172504Y0109324D01*
X0172363Y0109179D01*
X0172219Y0109038D01*
X0172072Y0108899D01*
X0171921Y0108765D01*
X0171767Y0108634D01*
X0171609Y0108507D01*
X0171449Y0108384D01*
X0171285Y0108265D01*
X0171119Y0108150D01*
X0170950Y0108039D01*
X0170779Y0107932D01*
X0170604Y0107830D01*
X0170428Y0107731D01*
X0170249Y0107637D01*
X0170067Y0107548D01*
X0169884Y0107463D01*
X0169699Y0107382D01*
X0169511Y0107306D01*
X0169322Y0107235D01*
X0169131Y0107168D01*
X0168939Y0107106D01*
X0168745Y0107049D01*
X0168550Y0106996D01*
X0168353Y0106949D01*
X0168156Y0106906D01*
X0167957Y0106868D01*
X0167758Y0106834D01*
X0167558Y0106806D01*
X0167357Y0106783D01*
X0167156Y0106764D01*
X0166954Y0106750D01*
X0166752Y0106742D01*
X0166550Y0106738D01*
X0166550Y0106832D01*
X0166750Y0106836D01*
X0166949Y0106844D01*
X0167149Y0106858D01*
X0167348Y0106876D01*
X0167546Y0106899D01*
X0167744Y0106927D01*
X0167941Y0106960D01*
X0168137Y0106998D01*
X0168333Y0107040D01*
X0168527Y0107087D01*
X0168720Y0107139D01*
X0168911Y0107196D01*
X0169102Y0107257D01*
X0169290Y0107323D01*
X0169477Y0107394D01*
X0169662Y0107469D01*
X0169846Y0107549D01*
X0170027Y0107633D01*
X0170206Y0107721D01*
X0170383Y0107814D01*
X0170558Y0107911D01*
X0170730Y0108013D01*
X0170899Y0108118D01*
X0171067Y0108228D01*
X0171231Y0108342D01*
X0171392Y0108459D01*
X0171551Y0108581D01*
X0171706Y0108706D01*
X0171859Y0108836D01*
X0172008Y0108969D01*
X0172154Y0109105D01*
X0172296Y0109245D01*
X0172435Y0109389D01*
X0172571Y0109536D01*
X0172703Y0109686D01*
X0172631Y0109746D01*
X0172501Y0109598D01*
X0172367Y0109453D01*
X0172229Y0109311D01*
X0172088Y0109173D01*
X0171944Y0109038D01*
X0171797Y0108906D01*
X0171646Y0108779D01*
X0171492Y0108655D01*
X0171336Y0108534D01*
X0171176Y0108418D01*
X0171014Y0108306D01*
X0170849Y0108197D01*
X0170681Y0108093D01*
X0170511Y0107993D01*
X0170338Y0107897D01*
X0170163Y0107805D01*
X0169986Y0107717D01*
X0169807Y0107634D01*
X0169626Y0107556D01*
X0169443Y0107481D01*
X0169258Y0107412D01*
X0169072Y0107347D01*
X0168884Y0107286D01*
X0168694Y0107230D01*
X0168504Y0107179D01*
X0168312Y0107132D01*
X0168119Y0107090D01*
X0167925Y0107053D01*
X0167730Y0107020D01*
X0167534Y0106993D01*
X0167338Y0106970D01*
X0167142Y0106952D01*
X0166945Y0106938D01*
X0166747Y0106930D01*
X0166550Y0106926D01*
X0166550Y0107020D01*
X0166745Y0107024D01*
X0166940Y0107032D01*
X0167135Y0107045D01*
X0167329Y0107063D01*
X0167523Y0107086D01*
X0167716Y0107113D01*
X0167909Y0107145D01*
X0168100Y0107182D01*
X0168291Y0107224D01*
X0168481Y0107270D01*
X0168669Y0107320D01*
X0168856Y0107376D01*
X0169042Y0107436D01*
X0169226Y0107500D01*
X0169409Y0107569D01*
X0169590Y0107642D01*
X0169769Y0107720D01*
X0169946Y0107802D01*
X0170121Y0107889D01*
X0170293Y0107979D01*
X0170464Y0108074D01*
X0170632Y0108173D01*
X0170798Y0108276D01*
X0170961Y0108383D01*
X0171122Y0108494D01*
X0171279Y0108609D01*
X0171434Y0108728D01*
X0171586Y0108851D01*
X0171735Y0108977D01*
X0171881Y0109107D01*
X0172023Y0109240D01*
X0172162Y0109377D01*
X0172298Y0109517D01*
X0172430Y0109661D01*
X0172559Y0109807D01*
X0172487Y0109868D01*
X0172360Y0109723D01*
X0172229Y0109581D01*
X0172095Y0109443D01*
X0171958Y0109308D01*
X0171817Y0109176D01*
X0171673Y0109048D01*
X0171526Y0108923D01*
X0171376Y0108802D01*
X0171223Y0108685D01*
X0171067Y0108571D01*
X0170908Y0108461D01*
X0170747Y0108355D01*
X0170583Y0108254D01*
X0170417Y0108156D01*
X0170249Y0108062D01*
X0170078Y0107972D01*
X0169905Y0107887D01*
X0169730Y0107806D01*
X0169553Y0107729D01*
X0169375Y0107657D01*
X0169194Y0107588D01*
X0169012Y0107525D01*
X0168829Y0107466D01*
X0168644Y0107411D01*
X0168458Y0107361D01*
X0168270Y0107315D01*
X0168082Y0107274D01*
X0167892Y0107238D01*
X0167702Y0107206D01*
X0167511Y0107179D01*
X0167320Y0107157D01*
X0167128Y0107139D01*
X0166935Y0107126D01*
X0166743Y0107118D01*
X0166550Y0107114D01*
X0166550Y0107208D01*
X0166740Y0107212D01*
X0166931Y0107220D01*
X0167121Y0107233D01*
X0167310Y0107250D01*
X0167500Y0107272D01*
X0167688Y0107299D01*
X0167876Y0107330D01*
X0168063Y0107366D01*
X0168249Y0107407D01*
X0168434Y0107452D01*
X0168618Y0107501D01*
X0168801Y0107556D01*
X0168982Y0107614D01*
X0169162Y0107677D01*
X0169340Y0107744D01*
X0169517Y0107816D01*
X0169692Y0107892D01*
X0169864Y0107972D01*
X0170035Y0108056D01*
X0170204Y0108145D01*
X0170370Y0108237D01*
X0170535Y0108334D01*
X0170696Y0108434D01*
X0170856Y0108539D01*
X0171012Y0108647D01*
X0171166Y0108760D01*
X0171317Y0108876D01*
X0171466Y0108995D01*
X0171611Y0109118D01*
X0171753Y0109245D01*
X0171892Y0109375D01*
X0172028Y0109509D01*
X0172161Y0109645D01*
X0172290Y0109785D01*
X0172416Y0109929D01*
X0172344Y0109989D01*
X0172220Y0109848D01*
X0172092Y0109710D01*
X0171961Y0109575D01*
X0171827Y0109443D01*
X0171690Y0109314D01*
X0171549Y0109189D01*
X0171405Y0109067D01*
X0171259Y0108949D01*
X0171110Y0108835D01*
X0170958Y0108724D01*
X0170803Y0108617D01*
X0170646Y0108514D01*
X0170486Y0108414D01*
X0170324Y0108319D01*
X0170159Y0108227D01*
X0169993Y0108140D01*
X0169824Y0108057D01*
X0169653Y0107977D01*
X0169481Y0107902D01*
X0169306Y0107832D01*
X0169130Y0107765D01*
X0168953Y0107703D01*
X0168773Y0107645D01*
X0168593Y0107592D01*
X0168411Y0107543D01*
X0168229Y0107499D01*
X0168045Y0107459D01*
X0167860Y0107423D01*
X0167674Y0107392D01*
X0167488Y0107366D01*
X0167301Y0107344D01*
X0167114Y0107327D01*
X0166926Y0107314D01*
X0166738Y0107306D01*
X0166550Y0107302D01*
X0166550Y0107396D01*
X0166736Y0107400D01*
X0166921Y0107408D01*
X0167107Y0107420D01*
X0167292Y0107437D01*
X0167476Y0107459D01*
X0167660Y0107485D01*
X0167844Y0107516D01*
X0168026Y0107551D01*
X0168208Y0107590D01*
X0168388Y0107634D01*
X0168568Y0107683D01*
X0168746Y0107735D01*
X0168923Y0107792D01*
X0169098Y0107854D01*
X0169272Y0107919D01*
X0169444Y0107989D01*
X0169615Y0108063D01*
X0169783Y0108141D01*
X0169950Y0108224D01*
X0170114Y0108310D01*
X0170277Y0108400D01*
X0170437Y0108495D01*
X0170595Y0108593D01*
X0170750Y0108695D01*
X0170903Y0108800D01*
X0171053Y0108910D01*
X0171201Y0109023D01*
X0171345Y0109140D01*
X0171487Y0109260D01*
X0171626Y0109383D01*
X0171762Y0109510D01*
X0171894Y0109640D01*
X0172023Y0109774D01*
X0172150Y0109910D01*
X0172272Y0110050D01*
X0055550Y0052371D02*
X0054050Y0051955D01*
X0054467Y0050883D02*
X0055133Y0050883D01*
X0055133Y0050884D02*
X0055171Y0050882D01*
X0055210Y0050877D01*
X0055247Y0050868D01*
X0055284Y0050856D01*
X0055319Y0050840D01*
X0055353Y0050822D01*
X0055384Y0050800D01*
X0055414Y0050775D01*
X0055441Y0050748D01*
X0055466Y0050718D01*
X0055488Y0050687D01*
X0055506Y0050653D01*
X0055522Y0050618D01*
X0055534Y0050581D01*
X0055543Y0050544D01*
X0055548Y0050505D01*
X0055550Y0050467D01*
X0055550Y0050050D01*
X0054050Y0050050D01*
X0054050Y0050467D01*
X0054052Y0050505D01*
X0054057Y0050544D01*
X0054066Y0050581D01*
X0054078Y0050618D01*
X0054094Y0050653D01*
X0054112Y0050687D01*
X0054134Y0050718D01*
X0054159Y0050748D01*
X0054186Y0050775D01*
X0054216Y0050800D01*
X0054247Y0050822D01*
X0054281Y0050840D01*
X0054316Y0050856D01*
X0054353Y0050868D01*
X0054390Y0050877D01*
X0054429Y0050882D01*
X0054467Y0050884D01*
X0055383Y0051538D02*
X0055550Y0051538D01*
X0055550Y0052371D01*
X0030550Y0051871D02*
X0029383Y0051538D01*
X0029383Y0052371D01*
X0029050Y0052121D02*
X0029717Y0052121D01*
X0029467Y0050883D02*
X0030133Y0050883D01*
X0030133Y0050884D02*
X0030171Y0050882D01*
X0030210Y0050877D01*
X0030247Y0050868D01*
X0030284Y0050856D01*
X0030319Y0050840D01*
X0030353Y0050822D01*
X0030384Y0050800D01*
X0030414Y0050775D01*
X0030441Y0050748D01*
X0030466Y0050718D01*
X0030488Y0050687D01*
X0030506Y0050653D01*
X0030522Y0050618D01*
X0030534Y0050581D01*
X0030543Y0050544D01*
X0030548Y0050505D01*
X0030550Y0050467D01*
X0030550Y0050050D01*
X0029050Y0050050D01*
X0029050Y0050467D01*
X0029052Y0050505D01*
X0029057Y0050544D01*
X0029066Y0050581D01*
X0029078Y0050618D01*
X0029094Y0050653D01*
X0029112Y0050687D01*
X0029134Y0050718D01*
X0029159Y0050748D01*
X0029186Y0050775D01*
X0029216Y0050800D01*
X0029247Y0050822D01*
X0029281Y0050840D01*
X0029316Y0050856D01*
X0029353Y0050868D01*
X0029390Y0050877D01*
X0029429Y0050882D01*
X0029467Y0050884D01*
X0037450Y0102629D02*
X0037450Y0103045D01*
X0037450Y0102629D02*
X0038950Y0102629D01*
X0038950Y0103045D01*
X0038948Y0103083D01*
X0038943Y0103122D01*
X0038934Y0103159D01*
X0038922Y0103196D01*
X0038906Y0103231D01*
X0038888Y0103265D01*
X0038866Y0103296D01*
X0038841Y0103326D01*
X0038814Y0103353D01*
X0038784Y0103378D01*
X0038753Y0103400D01*
X0038719Y0103418D01*
X0038684Y0103434D01*
X0038647Y0103446D01*
X0038610Y0103455D01*
X0038571Y0103460D01*
X0038533Y0103462D01*
X0037867Y0103462D01*
X0037829Y0103460D01*
X0037790Y0103455D01*
X0037753Y0103446D01*
X0037716Y0103434D01*
X0037681Y0103418D01*
X0037647Y0103400D01*
X0037616Y0103378D01*
X0037586Y0103353D01*
X0037559Y0103326D01*
X0037534Y0103296D01*
X0037512Y0103265D01*
X0037494Y0103231D01*
X0037478Y0103196D01*
X0037466Y0103159D01*
X0037457Y0103122D01*
X0037452Y0103083D01*
X0037450Y0103045D01*
X0037867Y0104116D02*
X0037827Y0104118D01*
X0037788Y0104124D01*
X0037750Y0104133D01*
X0037712Y0104146D01*
X0037676Y0104162D01*
X0037642Y0104182D01*
X0037609Y0104205D01*
X0037579Y0104231D01*
X0037552Y0104260D01*
X0037527Y0104291D01*
X0037506Y0104325D01*
X0037488Y0104360D01*
X0037473Y0104397D01*
X0037462Y0104435D01*
X0037454Y0104474D01*
X0037450Y0104513D01*
X0037450Y0104553D01*
X0037454Y0104592D01*
X0037462Y0104631D01*
X0037473Y0104669D01*
X0037488Y0104706D01*
X0037506Y0104742D01*
X0037527Y0104775D01*
X0037552Y0104806D01*
X0037579Y0104835D01*
X0037609Y0104861D01*
X0037642Y0104884D01*
X0037676Y0104904D01*
X0037712Y0104920D01*
X0037750Y0104933D01*
X0037788Y0104942D01*
X0037827Y0104948D01*
X0037867Y0104950D01*
X0037907Y0104948D01*
X0037946Y0104942D01*
X0037984Y0104933D01*
X0038022Y0104920D01*
X0038058Y0104904D01*
X0038092Y0104884D01*
X0038125Y0104861D01*
X0038155Y0104835D01*
X0038182Y0104806D01*
X0038207Y0104775D01*
X0038228Y0104742D01*
X0038246Y0104706D01*
X0038261Y0104669D01*
X0038272Y0104631D01*
X0038280Y0104592D01*
X0038284Y0104553D01*
X0038284Y0104513D01*
X0038280Y0104474D01*
X0038272Y0104435D01*
X0038261Y0104397D01*
X0038246Y0104360D01*
X0038228Y0104325D01*
X0038207Y0104291D01*
X0038182Y0104260D01*
X0038155Y0104231D01*
X0038125Y0104205D01*
X0038092Y0104182D01*
X0038058Y0104162D01*
X0038022Y0104146D01*
X0037984Y0104133D01*
X0037946Y0104124D01*
X0037907Y0104118D01*
X0037867Y0104116D01*
X0038617Y0104200D02*
X0038582Y0104202D01*
X0038548Y0104207D01*
X0038514Y0104216D01*
X0038482Y0104229D01*
X0038451Y0104245D01*
X0038421Y0104264D01*
X0038394Y0104286D01*
X0038370Y0104310D01*
X0038348Y0104337D01*
X0038329Y0104367D01*
X0038313Y0104398D01*
X0038300Y0104430D01*
X0038291Y0104464D01*
X0038286Y0104498D01*
X0038284Y0104533D01*
X0038286Y0104568D01*
X0038291Y0104602D01*
X0038300Y0104636D01*
X0038313Y0104668D01*
X0038329Y0104700D01*
X0038348Y0104729D01*
X0038370Y0104756D01*
X0038394Y0104780D01*
X0038421Y0104802D01*
X0038451Y0104821D01*
X0038482Y0104837D01*
X0038514Y0104850D01*
X0038548Y0104859D01*
X0038582Y0104864D01*
X0038617Y0104866D01*
X0038652Y0104864D01*
X0038686Y0104859D01*
X0038720Y0104850D01*
X0038752Y0104837D01*
X0038784Y0104821D01*
X0038813Y0104802D01*
X0038840Y0104780D01*
X0038864Y0104756D01*
X0038886Y0104729D01*
X0038905Y0104700D01*
X0038921Y0104668D01*
X0038934Y0104636D01*
X0038943Y0104602D01*
X0038948Y0104568D01*
X0038950Y0104533D01*
X0038948Y0104498D01*
X0038943Y0104464D01*
X0038934Y0104430D01*
X0038921Y0104398D01*
X0038905Y0104367D01*
X0038886Y0104337D01*
X0038864Y0104310D01*
X0038840Y0104286D01*
X0038813Y0104264D01*
X0038784Y0104245D01*
X0038752Y0104229D01*
X0038720Y0104216D01*
X0038686Y0104207D01*
X0038652Y0104202D01*
X0038617Y0104200D01*
X0013950Y0104117D02*
X0013950Y0104617D01*
X0013948Y0104652D01*
X0013943Y0104686D01*
X0013934Y0104720D01*
X0013921Y0104752D01*
X0013905Y0104784D01*
X0013886Y0104813D01*
X0013864Y0104840D01*
X0013840Y0104864D01*
X0013813Y0104886D01*
X0013784Y0104905D01*
X0013752Y0104921D01*
X0013720Y0104934D01*
X0013686Y0104943D01*
X0013652Y0104948D01*
X0013617Y0104950D01*
X0013582Y0104948D01*
X0013548Y0104943D01*
X0013514Y0104934D01*
X0013482Y0104921D01*
X0013451Y0104905D01*
X0013421Y0104886D01*
X0013394Y0104864D01*
X0013370Y0104840D01*
X0013348Y0104813D01*
X0013329Y0104784D01*
X0013313Y0104752D01*
X0013300Y0104720D01*
X0013291Y0104686D01*
X0013286Y0104652D01*
X0013284Y0104617D01*
X0013283Y0104617D02*
X0013283Y0104283D01*
X0013284Y0104533D02*
X0013282Y0104573D01*
X0013276Y0104612D01*
X0013267Y0104650D01*
X0013254Y0104688D01*
X0013238Y0104724D01*
X0013218Y0104758D01*
X0013195Y0104791D01*
X0013169Y0104821D01*
X0013140Y0104848D01*
X0013109Y0104873D01*
X0013076Y0104894D01*
X0013040Y0104912D01*
X0013003Y0104927D01*
X0012965Y0104938D01*
X0012926Y0104946D01*
X0012887Y0104950D01*
X0012847Y0104950D01*
X0012808Y0104946D01*
X0012769Y0104938D01*
X0012731Y0104927D01*
X0012694Y0104912D01*
X0012659Y0104894D01*
X0012625Y0104873D01*
X0012594Y0104848D01*
X0012565Y0104821D01*
X0012539Y0104791D01*
X0012516Y0104758D01*
X0012496Y0104724D01*
X0012480Y0104688D01*
X0012467Y0104650D01*
X0012458Y0104612D01*
X0012452Y0104573D01*
X0012450Y0104533D01*
X0012450Y0104117D01*
X0012867Y0103462D02*
X0013533Y0103462D01*
X0013571Y0103460D01*
X0013610Y0103455D01*
X0013647Y0103446D01*
X0013684Y0103434D01*
X0013719Y0103418D01*
X0013753Y0103400D01*
X0013784Y0103378D01*
X0013814Y0103353D01*
X0013841Y0103326D01*
X0013866Y0103296D01*
X0013888Y0103265D01*
X0013906Y0103231D01*
X0013922Y0103196D01*
X0013934Y0103159D01*
X0013943Y0103122D01*
X0013948Y0103083D01*
X0013950Y0103045D01*
X0013950Y0102629D01*
X0012450Y0102629D01*
X0012450Y0103045D01*
X0012452Y0103083D01*
X0012457Y0103122D01*
X0012466Y0103159D01*
X0012478Y0103196D01*
X0012494Y0103231D01*
X0012512Y0103265D01*
X0012534Y0103296D01*
X0012559Y0103326D01*
X0012586Y0103353D01*
X0012616Y0103378D01*
X0012647Y0103400D01*
X0012681Y0103418D01*
X0012716Y0103434D01*
X0012753Y0103446D01*
X0012790Y0103455D01*
X0012829Y0103460D01*
X0012867Y0103462D01*
D13*
X0172700Y0109900D02*
X0172700Y0111700D01*
X0172700Y0118100D02*
X0172700Y0120100D01*
D14*
X0052799Y0109917D02*
X0052799Y0079976D01*
X0041012Y0079976D01*
X0041238Y0079976D01*
X0041012Y0079976D02*
X0040201Y0079976D01*
X0040201Y0109917D01*
X0051012Y0109917D01*
X0052799Y0109917D01*
X0051988Y0109917D02*
X0051012Y0109917D01*
X0048250Y0097750D02*
X0044750Y0097750D01*
X0044750Y0096250D02*
X0046500Y0097750D01*
X0048250Y0096250D01*
X0044750Y0096250D01*
X0027799Y0109917D02*
X0027799Y0079976D01*
X0016012Y0079976D01*
X0016238Y0079976D01*
X0016012Y0079976D02*
X0015201Y0079976D01*
X0015201Y0109917D01*
X0026012Y0109917D01*
X0027799Y0109917D01*
X0026988Y0109917D02*
X0026012Y0109917D01*
X0023250Y0097750D02*
X0019750Y0097750D01*
X0019750Y0096250D02*
X0021500Y0097750D01*
X0023250Y0096250D01*
X0019750Y0096250D01*
X0015201Y0075024D02*
X0015201Y0045083D01*
X0016988Y0045083D01*
X0027799Y0045083D01*
X0027799Y0075024D01*
X0026988Y0075024D01*
X0015201Y0075024D01*
X0026762Y0075024D02*
X0026988Y0075024D01*
X0040201Y0075024D02*
X0040201Y0045083D01*
X0041988Y0045083D01*
X0052799Y0045083D01*
X0052799Y0075024D01*
X0051988Y0075024D01*
X0040201Y0075024D01*
X0051762Y0075024D02*
X0051988Y0075024D01*
X0048250Y0058750D02*
X0044750Y0058750D01*
X0046500Y0057250D01*
X0048250Y0058750D01*
X0048250Y0057250D02*
X0044750Y0057250D01*
X0041988Y0045083D02*
X0041012Y0045083D01*
X0023250Y0057250D02*
X0019750Y0057250D01*
X0019750Y0058750D02*
X0021500Y0057250D01*
X0023250Y0058750D01*
X0019750Y0058750D01*
X0016988Y0045083D02*
X0016012Y0045083D01*
D15*
X0084500Y0067098D02*
X0098500Y0067098D01*
X0098500Y0092902D01*
X0084500Y0092902D01*
X0084500Y0067098D01*
D16*
X0062957Y0139291D02*
X0058941Y0139291D01*
X0058941Y0142717D01*
X0058941Y0147283D02*
X0058941Y0150709D01*
X0062957Y0150709D01*
X0064059Y0146457D02*
X0064059Y0143543D01*
X0062957Y0159291D02*
X0058941Y0159291D01*
X0058941Y0162717D01*
X0058941Y0167283D02*
X0058941Y0170709D01*
X0062957Y0170709D01*
X0064059Y0166457D02*
X0064059Y0163543D01*
X0037209Y0197441D02*
X0033783Y0197441D01*
X0029217Y0197441D02*
X0025791Y0197441D01*
X0025791Y0201457D01*
X0030043Y0202559D02*
X0032957Y0202559D01*
X0037209Y0201457D02*
X0037209Y0197441D01*
X0022209Y0212441D02*
X0018783Y0212441D01*
X0022209Y0212441D02*
X0022209Y0216457D01*
X0017957Y0217559D02*
X0015043Y0217559D01*
X0010791Y0216457D02*
X0010791Y0212441D01*
X0014217Y0212441D01*
X0031000Y0147800D02*
X0031063Y0147773D01*
X0031128Y0147750D01*
X0031194Y0147730D01*
X0031261Y0147715D01*
X0031329Y0147703D01*
X0031397Y0147695D01*
X0031466Y0147691D01*
X0031534Y0147691D01*
X0031603Y0147695D01*
X0031671Y0147703D01*
X0031739Y0147715D01*
X0031806Y0147730D01*
X0031872Y0147750D01*
X0031937Y0147773D01*
X0032000Y0147800D01*
M02*
