%
M48
M72
T01C0.0217
T02C0.0236
T03C0.0320
T04C0.0390
T05C0.0394
T06C0.0400
T07C0.0433
T08C0.0472
T09C0.1102
T10C0.1181
T11C0.1260
%
T01
X3150Y7500
X3150Y8000
X3650Y8000
X3650Y7500
X3150Y9500
X3150Y10000
X6650Y13000
X7150Y12500
X7150Y13500
X7150Y15500
X7650Y15500
X8650Y15500
X8650Y16000
X8650Y16500
X8150Y17000
X9650Y15000
X9150Y14500
X10758Y14500
X12150Y12500
X15150Y16000
X15150Y16500
X15150Y17000
X15150Y17500
X14150Y19500
X14650Y20000
X12650Y19500
X12650Y19000
X12650Y18500
X12150Y18500
X12150Y19000
X12150Y19500
X11650Y19500
X11650Y19000
X11650Y18500
X11150Y17500
X10650Y18000
X10150Y18500
X10150Y19500
X10150Y21500
X11650Y17000
X3650Y17000
X3650Y16500
X3150Y16500
X3150Y17000
X3150Y17500
X2650Y17500
X2650Y17000
X2650Y16500
X3650Y17500
X2150Y15000
X2150Y20000
X1150Y21458
X12650Y7500
X19650Y11000
X22458Y15000
X19650Y21000
X19650Y22000
T02
X15150Y20500
T03
X16150Y11500
X17150Y11500
X4650Y13500
X4650Y14500
X4650Y15500
X4650Y16500
X4650Y17500
X4650Y18500
X4650Y19500
X4650Y20500
X1650Y20500
X1650Y19500
X1650Y18500
X1650Y17500
X1650Y16500
X1650Y15500
X1650Y14500
X1650Y13500
T04
X10264Y13780
X12036Y13780
X13264Y13780
X15036Y13780
X15036Y11220
X13264Y11220
X12036Y11220
X10264Y11220
T05
X9650Y9976
X8650Y9976
X7650Y9976
T06
X12150Y5000
X12150Y4000
X12150Y3000
X20650Y3000
X20650Y4000
X20650Y5000
X20650Y6000
X20650Y7000
X20650Y8000
X20650Y9000
X20650Y10000
X20650Y11000
X20650Y12000
X20650Y13000
X20650Y14000
X20650Y15000
X20650Y16000
X20650Y17000
X20650Y18000
X20650Y19000
X20650Y20000
X20650Y21000
X20650Y22000
X21650Y22000
X21650Y21000
X21650Y20000
X21650Y19000
X21650Y18000
X21650Y17000
X21650Y16000
X21650Y15000
X21650Y14000
X21650Y13000
X21650Y12000
X21650Y11000
X21650Y10000
X21650Y9000
X21650Y8000
X21650Y7000
X21650Y6000
X21650Y5000
X21650Y4000
X21650Y3000
X23150Y17000
X23150Y18000
X23150Y19000
X23150Y20000
X23150Y21000
X23150Y22000
T07
X18150Y22000
X18150Y21000
X18150Y20000
X18150Y19000
X18150Y18000
X18150Y17000
X18150Y16000
X18150Y15000
X18150Y14000
X18150Y13000
X18150Y12000
X18150Y11000
X18150Y10000
X18150Y9000
X18150Y8000
X18150Y7000
X18150Y6000
X18150Y5000
X18150Y4000
X18150Y3000
T08
X1650Y3500
X2650Y3500
X4150Y3500
X5150Y3500
T09
X14650Y3394
X16540Y4732
T10
X23150Y3000
X23150Y24500
X1150Y24500
T11
X14650Y5854
M30
