G75*
%MOIN*%
%OFA0B0*%
%FSLAX25Y25*%
%IPPOS*%
%LPD*%
%AMOC8*
5,1,8,0,0,1.08239X$1,22.5*
%
%ADD10C,0.00000*%
%ADD11C,0.05846*%
%ADD12R,0.05846X0.05846*%
%ADD13R,0.05118X0.05906*%
%ADD14R,0.10236X0.06299*%
%ADD15R,0.05906X0.05118*%
%ADD16R,0.13780X0.09843*%
%ADD17R,0.06299X0.10236*%
%ADD18C,0.16598*%
%ADD19C,0.15024*%
%ADD20R,0.10000X0.10000*%
%ADD21C,0.07400*%
%ADD22C,0.04800*%
%ADD23R,0.06496X0.06496*%
%ADD24C,0.06496*%
%ADD25C,0.07087*%
%ADD26OC8,0.06000*%
%ADD27R,0.19685X0.19685*%
%ADD28R,0.07874X0.03543*%
%ADD29R,0.03543X0.07874*%
%ADD30R,0.05906X0.05906*%
%ADD31C,0.05906*%
%ADD32C,0.03565*%
%ADD33C,0.01000*%
%ADD34C,0.01500*%
%ADD35C,0.02000*%
%ADD36C,0.00800*%
%ADD37C,0.05000*%
%ADD38C,0.03200*%
%ADD39C,0.01800*%
%ADD40C,0.08500*%
%ADD41C,0.04700*%
%ADD42C,0.03762*%
D10*
X0001500Y0020000D02*
X0001500Y0253701D01*
X0241421Y0253701D01*
X0241421Y0020000D01*
X0001500Y0020000D01*
X0005595Y0245000D02*
X0005597Y0245153D01*
X0005603Y0245306D01*
X0005613Y0245459D01*
X0005627Y0245612D01*
X0005645Y0245764D01*
X0005667Y0245916D01*
X0005692Y0246067D01*
X0005722Y0246218D01*
X0005755Y0246367D01*
X0005793Y0246516D01*
X0005834Y0246664D01*
X0005879Y0246810D01*
X0005928Y0246955D01*
X0005981Y0247099D01*
X0006037Y0247242D01*
X0006097Y0247383D01*
X0006161Y0247523D01*
X0006228Y0247660D01*
X0006299Y0247796D01*
X0006373Y0247930D01*
X0006451Y0248062D01*
X0006532Y0248192D01*
X0006617Y0248320D01*
X0006705Y0248446D01*
X0006796Y0248569D01*
X0006890Y0248690D01*
X0006987Y0248809D01*
X0007088Y0248925D01*
X0007191Y0249038D01*
X0007298Y0249148D01*
X0007407Y0249256D01*
X0007518Y0249361D01*
X0007633Y0249463D01*
X0007750Y0249562D01*
X0007870Y0249657D01*
X0007992Y0249750D01*
X0008117Y0249840D01*
X0008243Y0249926D01*
X0008372Y0250009D01*
X0008503Y0250088D01*
X0008636Y0250164D01*
X0008771Y0250237D01*
X0008908Y0250306D01*
X0009047Y0250371D01*
X0009187Y0250433D01*
X0009329Y0250491D01*
X0009472Y0250546D01*
X0009617Y0250597D01*
X0009763Y0250644D01*
X0009910Y0250687D01*
X0010058Y0250726D01*
X0010207Y0250762D01*
X0010357Y0250793D01*
X0010508Y0250821D01*
X0010660Y0250845D01*
X0010812Y0250865D01*
X0010964Y0250881D01*
X0011117Y0250893D01*
X0011270Y0250901D01*
X0011423Y0250905D01*
X0011577Y0250905D01*
X0011730Y0250901D01*
X0011883Y0250893D01*
X0012036Y0250881D01*
X0012188Y0250865D01*
X0012340Y0250845D01*
X0012492Y0250821D01*
X0012643Y0250793D01*
X0012793Y0250762D01*
X0012942Y0250726D01*
X0013090Y0250687D01*
X0013237Y0250644D01*
X0013383Y0250597D01*
X0013528Y0250546D01*
X0013671Y0250491D01*
X0013813Y0250433D01*
X0013953Y0250371D01*
X0014092Y0250306D01*
X0014229Y0250237D01*
X0014364Y0250164D01*
X0014497Y0250088D01*
X0014628Y0250009D01*
X0014757Y0249926D01*
X0014883Y0249840D01*
X0015008Y0249750D01*
X0015130Y0249657D01*
X0015250Y0249562D01*
X0015367Y0249463D01*
X0015482Y0249361D01*
X0015593Y0249256D01*
X0015702Y0249148D01*
X0015809Y0249038D01*
X0015912Y0248925D01*
X0016013Y0248809D01*
X0016110Y0248690D01*
X0016204Y0248569D01*
X0016295Y0248446D01*
X0016383Y0248320D01*
X0016468Y0248192D01*
X0016549Y0248062D01*
X0016627Y0247930D01*
X0016701Y0247796D01*
X0016772Y0247660D01*
X0016839Y0247523D01*
X0016903Y0247383D01*
X0016963Y0247242D01*
X0017019Y0247099D01*
X0017072Y0246955D01*
X0017121Y0246810D01*
X0017166Y0246664D01*
X0017207Y0246516D01*
X0017245Y0246367D01*
X0017278Y0246218D01*
X0017308Y0246067D01*
X0017333Y0245916D01*
X0017355Y0245764D01*
X0017373Y0245612D01*
X0017387Y0245459D01*
X0017397Y0245306D01*
X0017403Y0245153D01*
X0017405Y0245000D01*
X0017403Y0244847D01*
X0017397Y0244694D01*
X0017387Y0244541D01*
X0017373Y0244388D01*
X0017355Y0244236D01*
X0017333Y0244084D01*
X0017308Y0243933D01*
X0017278Y0243782D01*
X0017245Y0243633D01*
X0017207Y0243484D01*
X0017166Y0243336D01*
X0017121Y0243190D01*
X0017072Y0243045D01*
X0017019Y0242901D01*
X0016963Y0242758D01*
X0016903Y0242617D01*
X0016839Y0242477D01*
X0016772Y0242340D01*
X0016701Y0242204D01*
X0016627Y0242070D01*
X0016549Y0241938D01*
X0016468Y0241808D01*
X0016383Y0241680D01*
X0016295Y0241554D01*
X0016204Y0241431D01*
X0016110Y0241310D01*
X0016013Y0241191D01*
X0015912Y0241075D01*
X0015809Y0240962D01*
X0015702Y0240852D01*
X0015593Y0240744D01*
X0015482Y0240639D01*
X0015367Y0240537D01*
X0015250Y0240438D01*
X0015130Y0240343D01*
X0015008Y0240250D01*
X0014883Y0240160D01*
X0014757Y0240074D01*
X0014628Y0239991D01*
X0014497Y0239912D01*
X0014364Y0239836D01*
X0014229Y0239763D01*
X0014092Y0239694D01*
X0013953Y0239629D01*
X0013813Y0239567D01*
X0013671Y0239509D01*
X0013528Y0239454D01*
X0013383Y0239403D01*
X0013237Y0239356D01*
X0013090Y0239313D01*
X0012942Y0239274D01*
X0012793Y0239238D01*
X0012643Y0239207D01*
X0012492Y0239179D01*
X0012340Y0239155D01*
X0012188Y0239135D01*
X0012036Y0239119D01*
X0011883Y0239107D01*
X0011730Y0239099D01*
X0011577Y0239095D01*
X0011423Y0239095D01*
X0011270Y0239099D01*
X0011117Y0239107D01*
X0010964Y0239119D01*
X0010812Y0239135D01*
X0010660Y0239155D01*
X0010508Y0239179D01*
X0010357Y0239207D01*
X0010207Y0239238D01*
X0010058Y0239274D01*
X0009910Y0239313D01*
X0009763Y0239356D01*
X0009617Y0239403D01*
X0009472Y0239454D01*
X0009329Y0239509D01*
X0009187Y0239567D01*
X0009047Y0239629D01*
X0008908Y0239694D01*
X0008771Y0239763D01*
X0008636Y0239836D01*
X0008503Y0239912D01*
X0008372Y0239991D01*
X0008243Y0240074D01*
X0008117Y0240160D01*
X0007992Y0240250D01*
X0007870Y0240343D01*
X0007750Y0240438D01*
X0007633Y0240537D01*
X0007518Y0240639D01*
X0007407Y0240744D01*
X0007298Y0240852D01*
X0007191Y0240962D01*
X0007088Y0241075D01*
X0006987Y0241191D01*
X0006890Y0241310D01*
X0006796Y0241431D01*
X0006705Y0241554D01*
X0006617Y0241680D01*
X0006532Y0241808D01*
X0006451Y0241938D01*
X0006373Y0242070D01*
X0006299Y0242204D01*
X0006228Y0242340D01*
X0006161Y0242477D01*
X0006097Y0242617D01*
X0006037Y0242758D01*
X0005981Y0242901D01*
X0005928Y0243045D01*
X0005879Y0243190D01*
X0005834Y0243336D01*
X0005793Y0243484D01*
X0005755Y0243633D01*
X0005722Y0243782D01*
X0005692Y0243933D01*
X0005667Y0244084D01*
X0005645Y0244236D01*
X0005627Y0244388D01*
X0005613Y0244541D01*
X0005603Y0244694D01*
X0005597Y0244847D01*
X0005595Y0245000D01*
X0225595Y0245000D02*
X0225597Y0245153D01*
X0225603Y0245306D01*
X0225613Y0245459D01*
X0225627Y0245612D01*
X0225645Y0245764D01*
X0225667Y0245916D01*
X0225692Y0246067D01*
X0225722Y0246218D01*
X0225755Y0246367D01*
X0225793Y0246516D01*
X0225834Y0246664D01*
X0225879Y0246810D01*
X0225928Y0246955D01*
X0225981Y0247099D01*
X0226037Y0247242D01*
X0226097Y0247383D01*
X0226161Y0247523D01*
X0226228Y0247660D01*
X0226299Y0247796D01*
X0226373Y0247930D01*
X0226451Y0248062D01*
X0226532Y0248192D01*
X0226617Y0248320D01*
X0226705Y0248446D01*
X0226796Y0248569D01*
X0226890Y0248690D01*
X0226987Y0248809D01*
X0227088Y0248925D01*
X0227191Y0249038D01*
X0227298Y0249148D01*
X0227407Y0249256D01*
X0227518Y0249361D01*
X0227633Y0249463D01*
X0227750Y0249562D01*
X0227870Y0249657D01*
X0227992Y0249750D01*
X0228117Y0249840D01*
X0228243Y0249926D01*
X0228372Y0250009D01*
X0228503Y0250088D01*
X0228636Y0250164D01*
X0228771Y0250237D01*
X0228908Y0250306D01*
X0229047Y0250371D01*
X0229187Y0250433D01*
X0229329Y0250491D01*
X0229472Y0250546D01*
X0229617Y0250597D01*
X0229763Y0250644D01*
X0229910Y0250687D01*
X0230058Y0250726D01*
X0230207Y0250762D01*
X0230357Y0250793D01*
X0230508Y0250821D01*
X0230660Y0250845D01*
X0230812Y0250865D01*
X0230964Y0250881D01*
X0231117Y0250893D01*
X0231270Y0250901D01*
X0231423Y0250905D01*
X0231577Y0250905D01*
X0231730Y0250901D01*
X0231883Y0250893D01*
X0232036Y0250881D01*
X0232188Y0250865D01*
X0232340Y0250845D01*
X0232492Y0250821D01*
X0232643Y0250793D01*
X0232793Y0250762D01*
X0232942Y0250726D01*
X0233090Y0250687D01*
X0233237Y0250644D01*
X0233383Y0250597D01*
X0233528Y0250546D01*
X0233671Y0250491D01*
X0233813Y0250433D01*
X0233953Y0250371D01*
X0234092Y0250306D01*
X0234229Y0250237D01*
X0234364Y0250164D01*
X0234497Y0250088D01*
X0234628Y0250009D01*
X0234757Y0249926D01*
X0234883Y0249840D01*
X0235008Y0249750D01*
X0235130Y0249657D01*
X0235250Y0249562D01*
X0235367Y0249463D01*
X0235482Y0249361D01*
X0235593Y0249256D01*
X0235702Y0249148D01*
X0235809Y0249038D01*
X0235912Y0248925D01*
X0236013Y0248809D01*
X0236110Y0248690D01*
X0236204Y0248569D01*
X0236295Y0248446D01*
X0236383Y0248320D01*
X0236468Y0248192D01*
X0236549Y0248062D01*
X0236627Y0247930D01*
X0236701Y0247796D01*
X0236772Y0247660D01*
X0236839Y0247523D01*
X0236903Y0247383D01*
X0236963Y0247242D01*
X0237019Y0247099D01*
X0237072Y0246955D01*
X0237121Y0246810D01*
X0237166Y0246664D01*
X0237207Y0246516D01*
X0237245Y0246367D01*
X0237278Y0246218D01*
X0237308Y0246067D01*
X0237333Y0245916D01*
X0237355Y0245764D01*
X0237373Y0245612D01*
X0237387Y0245459D01*
X0237397Y0245306D01*
X0237403Y0245153D01*
X0237405Y0245000D01*
X0237403Y0244847D01*
X0237397Y0244694D01*
X0237387Y0244541D01*
X0237373Y0244388D01*
X0237355Y0244236D01*
X0237333Y0244084D01*
X0237308Y0243933D01*
X0237278Y0243782D01*
X0237245Y0243633D01*
X0237207Y0243484D01*
X0237166Y0243336D01*
X0237121Y0243190D01*
X0237072Y0243045D01*
X0237019Y0242901D01*
X0236963Y0242758D01*
X0236903Y0242617D01*
X0236839Y0242477D01*
X0236772Y0242340D01*
X0236701Y0242204D01*
X0236627Y0242070D01*
X0236549Y0241938D01*
X0236468Y0241808D01*
X0236383Y0241680D01*
X0236295Y0241554D01*
X0236204Y0241431D01*
X0236110Y0241310D01*
X0236013Y0241191D01*
X0235912Y0241075D01*
X0235809Y0240962D01*
X0235702Y0240852D01*
X0235593Y0240744D01*
X0235482Y0240639D01*
X0235367Y0240537D01*
X0235250Y0240438D01*
X0235130Y0240343D01*
X0235008Y0240250D01*
X0234883Y0240160D01*
X0234757Y0240074D01*
X0234628Y0239991D01*
X0234497Y0239912D01*
X0234364Y0239836D01*
X0234229Y0239763D01*
X0234092Y0239694D01*
X0233953Y0239629D01*
X0233813Y0239567D01*
X0233671Y0239509D01*
X0233528Y0239454D01*
X0233383Y0239403D01*
X0233237Y0239356D01*
X0233090Y0239313D01*
X0232942Y0239274D01*
X0232793Y0239238D01*
X0232643Y0239207D01*
X0232492Y0239179D01*
X0232340Y0239155D01*
X0232188Y0239135D01*
X0232036Y0239119D01*
X0231883Y0239107D01*
X0231730Y0239099D01*
X0231577Y0239095D01*
X0231423Y0239095D01*
X0231270Y0239099D01*
X0231117Y0239107D01*
X0230964Y0239119D01*
X0230812Y0239135D01*
X0230660Y0239155D01*
X0230508Y0239179D01*
X0230357Y0239207D01*
X0230207Y0239238D01*
X0230058Y0239274D01*
X0229910Y0239313D01*
X0229763Y0239356D01*
X0229617Y0239403D01*
X0229472Y0239454D01*
X0229329Y0239509D01*
X0229187Y0239567D01*
X0229047Y0239629D01*
X0228908Y0239694D01*
X0228771Y0239763D01*
X0228636Y0239836D01*
X0228503Y0239912D01*
X0228372Y0239991D01*
X0228243Y0240074D01*
X0228117Y0240160D01*
X0227992Y0240250D01*
X0227870Y0240343D01*
X0227750Y0240438D01*
X0227633Y0240537D01*
X0227518Y0240639D01*
X0227407Y0240744D01*
X0227298Y0240852D01*
X0227191Y0240962D01*
X0227088Y0241075D01*
X0226987Y0241191D01*
X0226890Y0241310D01*
X0226796Y0241431D01*
X0226705Y0241554D01*
X0226617Y0241680D01*
X0226532Y0241808D01*
X0226451Y0241938D01*
X0226373Y0242070D01*
X0226299Y0242204D01*
X0226228Y0242340D01*
X0226161Y0242477D01*
X0226097Y0242617D01*
X0226037Y0242758D01*
X0225981Y0242901D01*
X0225928Y0243045D01*
X0225879Y0243190D01*
X0225834Y0243336D01*
X0225793Y0243484D01*
X0225755Y0243633D01*
X0225722Y0243782D01*
X0225692Y0243933D01*
X0225667Y0244084D01*
X0225645Y0244236D01*
X0225627Y0244388D01*
X0225613Y0244541D01*
X0225603Y0244694D01*
X0225597Y0244847D01*
X0225595Y0245000D01*
X0225595Y0030000D02*
X0225597Y0030153D01*
X0225603Y0030306D01*
X0225613Y0030459D01*
X0225627Y0030612D01*
X0225645Y0030764D01*
X0225667Y0030916D01*
X0225692Y0031067D01*
X0225722Y0031218D01*
X0225755Y0031367D01*
X0225793Y0031516D01*
X0225834Y0031664D01*
X0225879Y0031810D01*
X0225928Y0031955D01*
X0225981Y0032099D01*
X0226037Y0032242D01*
X0226097Y0032383D01*
X0226161Y0032523D01*
X0226228Y0032660D01*
X0226299Y0032796D01*
X0226373Y0032930D01*
X0226451Y0033062D01*
X0226532Y0033192D01*
X0226617Y0033320D01*
X0226705Y0033446D01*
X0226796Y0033569D01*
X0226890Y0033690D01*
X0226987Y0033809D01*
X0227088Y0033925D01*
X0227191Y0034038D01*
X0227298Y0034148D01*
X0227407Y0034256D01*
X0227518Y0034361D01*
X0227633Y0034463D01*
X0227750Y0034562D01*
X0227870Y0034657D01*
X0227992Y0034750D01*
X0228117Y0034840D01*
X0228243Y0034926D01*
X0228372Y0035009D01*
X0228503Y0035088D01*
X0228636Y0035164D01*
X0228771Y0035237D01*
X0228908Y0035306D01*
X0229047Y0035371D01*
X0229187Y0035433D01*
X0229329Y0035491D01*
X0229472Y0035546D01*
X0229617Y0035597D01*
X0229763Y0035644D01*
X0229910Y0035687D01*
X0230058Y0035726D01*
X0230207Y0035762D01*
X0230357Y0035793D01*
X0230508Y0035821D01*
X0230660Y0035845D01*
X0230812Y0035865D01*
X0230964Y0035881D01*
X0231117Y0035893D01*
X0231270Y0035901D01*
X0231423Y0035905D01*
X0231577Y0035905D01*
X0231730Y0035901D01*
X0231883Y0035893D01*
X0232036Y0035881D01*
X0232188Y0035865D01*
X0232340Y0035845D01*
X0232492Y0035821D01*
X0232643Y0035793D01*
X0232793Y0035762D01*
X0232942Y0035726D01*
X0233090Y0035687D01*
X0233237Y0035644D01*
X0233383Y0035597D01*
X0233528Y0035546D01*
X0233671Y0035491D01*
X0233813Y0035433D01*
X0233953Y0035371D01*
X0234092Y0035306D01*
X0234229Y0035237D01*
X0234364Y0035164D01*
X0234497Y0035088D01*
X0234628Y0035009D01*
X0234757Y0034926D01*
X0234883Y0034840D01*
X0235008Y0034750D01*
X0235130Y0034657D01*
X0235250Y0034562D01*
X0235367Y0034463D01*
X0235482Y0034361D01*
X0235593Y0034256D01*
X0235702Y0034148D01*
X0235809Y0034038D01*
X0235912Y0033925D01*
X0236013Y0033809D01*
X0236110Y0033690D01*
X0236204Y0033569D01*
X0236295Y0033446D01*
X0236383Y0033320D01*
X0236468Y0033192D01*
X0236549Y0033062D01*
X0236627Y0032930D01*
X0236701Y0032796D01*
X0236772Y0032660D01*
X0236839Y0032523D01*
X0236903Y0032383D01*
X0236963Y0032242D01*
X0237019Y0032099D01*
X0237072Y0031955D01*
X0237121Y0031810D01*
X0237166Y0031664D01*
X0237207Y0031516D01*
X0237245Y0031367D01*
X0237278Y0031218D01*
X0237308Y0031067D01*
X0237333Y0030916D01*
X0237355Y0030764D01*
X0237373Y0030612D01*
X0237387Y0030459D01*
X0237397Y0030306D01*
X0237403Y0030153D01*
X0237405Y0030000D01*
X0237403Y0029847D01*
X0237397Y0029694D01*
X0237387Y0029541D01*
X0237373Y0029388D01*
X0237355Y0029236D01*
X0237333Y0029084D01*
X0237308Y0028933D01*
X0237278Y0028782D01*
X0237245Y0028633D01*
X0237207Y0028484D01*
X0237166Y0028336D01*
X0237121Y0028190D01*
X0237072Y0028045D01*
X0237019Y0027901D01*
X0236963Y0027758D01*
X0236903Y0027617D01*
X0236839Y0027477D01*
X0236772Y0027340D01*
X0236701Y0027204D01*
X0236627Y0027070D01*
X0236549Y0026938D01*
X0236468Y0026808D01*
X0236383Y0026680D01*
X0236295Y0026554D01*
X0236204Y0026431D01*
X0236110Y0026310D01*
X0236013Y0026191D01*
X0235912Y0026075D01*
X0235809Y0025962D01*
X0235702Y0025852D01*
X0235593Y0025744D01*
X0235482Y0025639D01*
X0235367Y0025537D01*
X0235250Y0025438D01*
X0235130Y0025343D01*
X0235008Y0025250D01*
X0234883Y0025160D01*
X0234757Y0025074D01*
X0234628Y0024991D01*
X0234497Y0024912D01*
X0234364Y0024836D01*
X0234229Y0024763D01*
X0234092Y0024694D01*
X0233953Y0024629D01*
X0233813Y0024567D01*
X0233671Y0024509D01*
X0233528Y0024454D01*
X0233383Y0024403D01*
X0233237Y0024356D01*
X0233090Y0024313D01*
X0232942Y0024274D01*
X0232793Y0024238D01*
X0232643Y0024207D01*
X0232492Y0024179D01*
X0232340Y0024155D01*
X0232188Y0024135D01*
X0232036Y0024119D01*
X0231883Y0024107D01*
X0231730Y0024099D01*
X0231577Y0024095D01*
X0231423Y0024095D01*
X0231270Y0024099D01*
X0231117Y0024107D01*
X0230964Y0024119D01*
X0230812Y0024135D01*
X0230660Y0024155D01*
X0230508Y0024179D01*
X0230357Y0024207D01*
X0230207Y0024238D01*
X0230058Y0024274D01*
X0229910Y0024313D01*
X0229763Y0024356D01*
X0229617Y0024403D01*
X0229472Y0024454D01*
X0229329Y0024509D01*
X0229187Y0024567D01*
X0229047Y0024629D01*
X0228908Y0024694D01*
X0228771Y0024763D01*
X0228636Y0024836D01*
X0228503Y0024912D01*
X0228372Y0024991D01*
X0228243Y0025074D01*
X0228117Y0025160D01*
X0227992Y0025250D01*
X0227870Y0025343D01*
X0227750Y0025438D01*
X0227633Y0025537D01*
X0227518Y0025639D01*
X0227407Y0025744D01*
X0227298Y0025852D01*
X0227191Y0025962D01*
X0227088Y0026075D01*
X0226987Y0026191D01*
X0226890Y0026310D01*
X0226796Y0026431D01*
X0226705Y0026554D01*
X0226617Y0026680D01*
X0226532Y0026808D01*
X0226451Y0026938D01*
X0226373Y0027070D01*
X0226299Y0027204D01*
X0226228Y0027340D01*
X0226161Y0027477D01*
X0226097Y0027617D01*
X0226037Y0027758D01*
X0225981Y0027901D01*
X0225928Y0028045D01*
X0225879Y0028190D01*
X0225834Y0028336D01*
X0225793Y0028484D01*
X0225755Y0028633D01*
X0225722Y0028782D01*
X0225692Y0028933D01*
X0225667Y0029084D01*
X0225645Y0029236D01*
X0225627Y0029388D01*
X0225613Y0029541D01*
X0225603Y0029694D01*
X0225597Y0029847D01*
X0225595Y0030000D01*
D11*
X0132642Y0112205D03*
X0132642Y0137795D03*
X0120358Y0137795D03*
X0102642Y0137795D03*
X0102642Y0112205D03*
X0150358Y0137795D03*
D12*
X0150358Y0112205D03*
X0120358Y0112205D03*
D13*
X0085240Y0135000D03*
X0077760Y0135000D03*
X0080240Y0145000D03*
X0072760Y0145000D03*
X0045240Y0215000D03*
X0037760Y0215000D03*
X0162760Y0130000D03*
X0170240Y0130000D03*
D14*
X0088587Y0115000D03*
X0074413Y0115000D03*
D15*
X0081500Y0211260D03*
X0081500Y0218740D03*
X0026500Y0221260D03*
X0026500Y0228740D03*
X0016500Y0228740D03*
X0016500Y0221260D03*
X0170500Y0188740D03*
X0170500Y0181260D03*
D16*
X0164295Y0085000D03*
X0138705Y0085000D03*
D17*
X0121500Y0082913D03*
X0121500Y0097087D03*
D18*
X0146500Y0058543D03*
D19*
X0165398Y0047323D03*
X0146500Y0033937D03*
D20*
X0046500Y0050750D03*
X0046500Y0069250D03*
X0046500Y0085750D03*
X0046500Y0104250D03*
X0021500Y0104250D03*
X0021500Y0085750D03*
X0021500Y0069250D03*
X0021500Y0050750D03*
D21*
X0121500Y0050000D03*
X0121500Y0040000D03*
X0121500Y0030000D03*
X0161500Y0115000D03*
X0171500Y0115000D03*
X0231500Y0170000D03*
X0231500Y0180000D03*
X0231500Y0190000D03*
X0231500Y0200000D03*
X0231500Y0210000D03*
X0231500Y0220000D03*
D22*
X0048900Y0205000D02*
X0044100Y0205000D01*
X0044100Y0195000D02*
X0048900Y0195000D01*
X0048900Y0185000D02*
X0044100Y0185000D01*
X0044100Y0175000D02*
X0048900Y0175000D01*
X0048900Y0165000D02*
X0044100Y0165000D01*
X0044100Y0155000D02*
X0048900Y0155000D01*
X0048900Y0145000D02*
X0044100Y0145000D01*
X0044100Y0135000D02*
X0048900Y0135000D01*
X0018900Y0135000D02*
X0014100Y0135000D01*
X0014100Y0145000D02*
X0018900Y0145000D01*
X0018900Y0155000D02*
X0014100Y0155000D01*
X0014100Y0165000D02*
X0018900Y0165000D01*
X0018900Y0175000D02*
X0014100Y0175000D01*
X0014100Y0185000D02*
X0018900Y0185000D01*
X0018900Y0195000D02*
X0014100Y0195000D01*
X0014100Y0205000D02*
X0018900Y0205000D01*
D23*
X0181500Y0030000D03*
D24*
X0181500Y0040000D03*
X0181500Y0050000D03*
X0181500Y0060000D03*
X0181500Y0070000D03*
X0181500Y0080000D03*
X0181500Y0090000D03*
X0181500Y0100000D03*
X0181500Y0110000D03*
X0181500Y0120000D03*
X0181500Y0130000D03*
X0181500Y0140000D03*
X0181500Y0150000D03*
X0181500Y0160000D03*
X0181500Y0170000D03*
X0181500Y0180000D03*
X0181500Y0190000D03*
X0181500Y0200000D03*
X0181500Y0210000D03*
X0181500Y0220000D03*
D25*
X0051500Y0038543D02*
X0051500Y0031457D01*
X0041500Y0031457D02*
X0041500Y0038543D01*
X0026500Y0038543D02*
X0026500Y0031457D01*
X0016500Y0031457D02*
X0016500Y0038543D01*
D26*
X0206500Y0040000D03*
X0206500Y0030000D03*
X0216500Y0030000D03*
X0216500Y0040000D03*
X0216500Y0050000D03*
X0216500Y0060000D03*
X0216500Y0070000D03*
X0216500Y0080000D03*
X0216500Y0090000D03*
X0216500Y0100000D03*
X0216500Y0110000D03*
X0216500Y0120000D03*
X0216500Y0130000D03*
X0216500Y0140000D03*
X0216500Y0150000D03*
X0216500Y0160000D03*
X0216500Y0170000D03*
X0216500Y0180000D03*
X0216500Y0190000D03*
X0216500Y0200000D03*
X0216500Y0210000D03*
X0216500Y0220000D03*
X0206500Y0220000D03*
X0206500Y0210000D03*
X0206500Y0200000D03*
X0206500Y0190000D03*
X0206500Y0180000D03*
X0206500Y0170000D03*
X0206500Y0160000D03*
X0206500Y0150000D03*
X0206500Y0140000D03*
X0206500Y0130000D03*
X0206500Y0120000D03*
X0206500Y0110000D03*
X0206500Y0100000D03*
X0206500Y0090000D03*
X0206500Y0080000D03*
X0206500Y0070000D03*
X0206500Y0060000D03*
X0206500Y0050000D03*
D27*
X0122563Y0191181D03*
D28*
X0093035Y0190709D03*
X0093035Y0195709D03*
X0093035Y0200709D03*
X0093035Y0205709D03*
X0093035Y0210709D03*
X0093035Y0215709D03*
X0093035Y0220709D03*
X0093035Y0185709D03*
X0093035Y0180709D03*
X0093035Y0175709D03*
X0093035Y0170709D03*
X0093035Y0165709D03*
X0093035Y0160709D03*
X0093035Y0155709D03*
X0159965Y0155709D03*
X0159965Y0160709D03*
X0159965Y0165709D03*
X0159965Y0170709D03*
X0159965Y0175709D03*
X0159965Y0180709D03*
X0159965Y0185709D03*
X0159965Y0190709D03*
X0159965Y0195709D03*
X0159965Y0200709D03*
X0159965Y0205709D03*
X0159965Y0210709D03*
X0159965Y0215709D03*
X0159965Y0220709D03*
D29*
X0149000Y0151772D03*
X0144000Y0151772D03*
X0139000Y0151772D03*
X0134000Y0151772D03*
X0129000Y0151772D03*
X0124000Y0151772D03*
X0119000Y0151772D03*
X0114000Y0151772D03*
X0109000Y0151772D03*
X0104000Y0151772D03*
D30*
X0096500Y0099764D03*
D31*
X0086500Y0099764D03*
X0076500Y0099764D03*
D32*
X0071500Y0125000D03*
X0066500Y0130000D03*
X0071500Y0135000D03*
X0071500Y0155000D03*
X0076500Y0155000D03*
X0086500Y0155000D03*
X0086500Y0160000D03*
X0086500Y0165000D03*
X0081500Y0170000D03*
X0096500Y0150000D03*
X0091500Y0145000D03*
X0107583Y0145000D03*
X0121500Y0125000D03*
X0151500Y0160000D03*
X0151500Y0165000D03*
X0151500Y0170000D03*
X0151500Y0175000D03*
X0141500Y0195000D03*
X0146500Y0200000D03*
X0126500Y0195000D03*
X0126500Y0190000D03*
X0126500Y0185000D03*
X0121500Y0185000D03*
X0121500Y0190000D03*
X0121500Y0195000D03*
X0116500Y0195000D03*
X0116500Y0190000D03*
X0116500Y0185000D03*
X0111500Y0175000D03*
X0106500Y0180000D03*
X0101500Y0185000D03*
X0101500Y0195000D03*
X0101500Y0215000D03*
X0116500Y0170000D03*
X0036500Y0170000D03*
X0036500Y0165000D03*
X0031500Y0165000D03*
X0031500Y0170000D03*
X0031500Y0175000D03*
X0026500Y0175000D03*
X0026500Y0170000D03*
X0026500Y0165000D03*
X0036500Y0175000D03*
X0021500Y0150000D03*
X0031500Y0100000D03*
X0031500Y0095000D03*
X0031500Y0080000D03*
X0031500Y0075000D03*
X0036500Y0075000D03*
X0036500Y0080000D03*
X0126500Y0075000D03*
X0196500Y0110000D03*
X0224583Y0150000D03*
X0196500Y0210000D03*
X0196500Y0220000D03*
X0021500Y0200000D03*
X0011500Y0214583D03*
D33*
X0016500Y0219583D01*
X0016500Y0221260D01*
X0016864Y0217401D02*
X0019991Y0217401D01*
X0020753Y0218162D01*
X0020753Y0224357D01*
X0020110Y0225000D01*
X0022890Y0225000D01*
X0022247Y0224357D01*
X0022247Y0218162D01*
X0023009Y0217401D01*
X0024700Y0217401D01*
X0024700Y0205746D01*
X0022163Y0203208D01*
X0022600Y0204264D01*
X0022600Y0205736D01*
X0022037Y0207096D01*
X0020996Y0208137D01*
X0019636Y0208700D01*
X0013364Y0208700D01*
X0012004Y0208137D01*
X0010963Y0207096D01*
X0010400Y0205736D01*
X0010400Y0204264D01*
X0010963Y0202904D01*
X0012004Y0201863D01*
X0013364Y0201300D01*
X0018702Y0201300D01*
X0018417Y0200613D01*
X0018417Y0199387D01*
X0018702Y0198700D01*
X0013364Y0198700D01*
X0012004Y0198137D01*
X0010963Y0197096D01*
X0010400Y0195736D01*
X0010400Y0194264D01*
X0010963Y0192904D01*
X0012004Y0191863D01*
X0013364Y0191300D01*
X0019636Y0191300D01*
X0020996Y0191863D01*
X0022037Y0192904D01*
X0022600Y0194264D01*
X0022600Y0195736D01*
X0022111Y0196917D01*
X0022113Y0196917D01*
X0023246Y0197387D01*
X0024113Y0198254D01*
X0024583Y0199387D01*
X0024583Y0200537D01*
X0027246Y0203200D01*
X0028300Y0204254D01*
X0028300Y0217401D01*
X0029991Y0217401D01*
X0030753Y0218162D01*
X0030753Y0221942D01*
X0033935Y0218760D01*
X0033803Y0218532D01*
X0033701Y0218150D01*
X0033701Y0215500D01*
X0037260Y0215500D01*
X0037260Y0214500D01*
X0038260Y0214500D01*
X0038260Y0210547D01*
X0040516Y0210547D01*
X0040898Y0210649D01*
X0041240Y0210847D01*
X0041519Y0211126D01*
X0041590Y0211249D01*
X0041590Y0207723D01*
X0040963Y0207096D01*
X0040400Y0205736D01*
X0040400Y0204264D01*
X0040963Y0202904D01*
X0042004Y0201863D01*
X0043364Y0201300D01*
X0045038Y0201300D01*
X0047638Y0198700D01*
X0043364Y0198700D01*
X0042004Y0198137D01*
X0040963Y0197096D01*
X0040400Y0195736D01*
X0040400Y0194264D01*
X0040963Y0192904D01*
X0042004Y0191863D01*
X0043364Y0191300D01*
X0049636Y0191300D01*
X0050996Y0191863D01*
X0052037Y0192904D01*
X0052519Y0194068D01*
X0059000Y0187587D01*
X0059000Y0176601D01*
X0052230Y0183371D01*
X0052600Y0184264D01*
X0052600Y0185736D01*
X0052037Y0187096D01*
X0050996Y0188137D01*
X0049636Y0188700D01*
X0043364Y0188700D01*
X0042004Y0188137D01*
X0040963Y0187096D01*
X0040400Y0185736D01*
X0040400Y0184264D01*
X0040963Y0182904D01*
X0042004Y0181863D01*
X0043364Y0181300D01*
X0046099Y0181300D01*
X0048499Y0178900D01*
X0046800Y0178900D01*
X0046800Y0175300D01*
X0046200Y0175300D01*
X0046200Y0178900D01*
X0043716Y0178900D01*
X0042962Y0178750D01*
X0042253Y0178456D01*
X0041614Y0178029D01*
X0041071Y0177486D01*
X0040644Y0176847D01*
X0040350Y0176138D01*
X0040200Y0175384D01*
X0040200Y0175300D01*
X0046200Y0175300D01*
X0046200Y0178900D01*
X0043716Y0178900D01*
X0042962Y0178750D01*
X0042253Y0178456D01*
X0041614Y0178029D01*
X0041071Y0177486D01*
X0040644Y0176847D01*
X0040350Y0176138D01*
X0040200Y0175384D01*
X0040200Y0175300D01*
X0046200Y0175300D01*
X0046800Y0175300D01*
X0046800Y0178900D01*
X0048499Y0178900D01*
X0047399Y0180000D01*
X0015601Y0180000D01*
X0014501Y0178900D01*
X0016901Y0181300D01*
X0019636Y0181300D01*
X0020996Y0181863D01*
X0022037Y0182904D01*
X0022600Y0184264D01*
X0022600Y0185736D01*
X0022037Y0187096D01*
X0020996Y0188137D01*
X0019636Y0188700D01*
X0013364Y0188700D01*
X0012004Y0188137D01*
X0010963Y0187096D01*
X0010400Y0185736D01*
X0010400Y0184264D01*
X0010770Y0183371D01*
X0003657Y0176258D01*
X0003500Y0176101D01*
X0003500Y0225000D01*
X0012890Y0225000D01*
X0012247Y0224357D01*
X0012247Y0218162D01*
X0012391Y0218019D01*
X0012037Y0217665D01*
X0010887Y0217665D01*
X0009754Y0217196D01*
X0008887Y0216329D01*
X0008417Y0215196D01*
X0008417Y0213969D01*
X0008887Y0212836D01*
X0009754Y0211969D01*
X0010887Y0211500D01*
X0012113Y0211500D01*
X0013246Y0211969D01*
X0014113Y0212836D01*
X0014583Y0213969D01*
X0014583Y0215120D01*
X0016864Y0217401D01*
X0016170Y0216707D02*
X0024700Y0216707D01*
X0024700Y0215708D02*
X0015171Y0215708D01*
X0014583Y0214710D02*
X0024700Y0214710D01*
X0024700Y0213711D02*
X0014476Y0213711D01*
X0013990Y0212713D02*
X0024700Y0212713D01*
X0024700Y0211714D02*
X0012630Y0211714D01*
X0010370Y0211714D02*
X0003500Y0211714D01*
X0003500Y0210716D02*
X0024700Y0210716D01*
X0024700Y0209717D02*
X0003500Y0209717D01*
X0003500Y0208719D02*
X0024700Y0208719D01*
X0024700Y0207720D02*
X0021412Y0207720D01*
X0022192Y0206722D02*
X0024700Y0206722D01*
X0024678Y0205723D02*
X0022600Y0205723D01*
X0022600Y0204725D02*
X0023679Y0204725D01*
X0022681Y0203726D02*
X0022377Y0203726D01*
X0021500Y0200000D02*
X0026500Y0205000D01*
X0026500Y0221260D01*
X0022247Y0221699D02*
X0020753Y0221699D01*
X0020753Y0220701D02*
X0022247Y0220701D01*
X0022247Y0219702D02*
X0020753Y0219702D01*
X0020753Y0218704D02*
X0022247Y0218704D01*
X0022704Y0217705D02*
X0020296Y0217705D01*
X0020753Y0222698D02*
X0022247Y0222698D01*
X0022247Y0223696D02*
X0020753Y0223696D01*
X0020415Y0224695D02*
X0022585Y0224695D01*
X0026500Y0228740D02*
X0035987Y0219253D01*
X0048338Y0219253D01*
X0066300Y0201290D01*
X0066300Y0144110D01*
X0069662Y0140747D01*
X0075857Y0140747D01*
X0080110Y0145000D01*
X0080240Y0145000D01*
X0080240Y0140000D01*
X0085240Y0135000D01*
X0085240Y0125827D01*
X0074413Y0115000D01*
X0076317Y0119450D02*
X0068757Y0119450D01*
X0067995Y0118688D01*
X0067995Y0111312D01*
X0068757Y0110550D01*
X0070613Y0110550D01*
X0070613Y0101095D01*
X0071192Y0099698D01*
X0072261Y0098629D01*
X0072442Y0098448D01*
X0072895Y0097355D01*
X0074091Y0096158D01*
X0075654Y0095511D01*
X0077346Y0095511D01*
X0077555Y0095598D01*
X0099064Y0074089D01*
X0100352Y0072800D01*
X0124340Y0072800D01*
X0124754Y0072387D01*
X0125887Y0071917D01*
X0127113Y0071917D01*
X0128246Y0072387D01*
X0129113Y0073254D01*
X0129583Y0074387D01*
X0129583Y0075613D01*
X0129113Y0076746D01*
X0128246Y0077613D01*
X0127113Y0078083D01*
X0126150Y0078083D01*
X0126150Y0082413D01*
X0122000Y0082413D01*
X0122000Y0083413D01*
X0126150Y0083413D01*
X0126150Y0085824D01*
X0130515Y0081459D01*
X0130515Y0079540D01*
X0131276Y0078779D01*
X0133155Y0078779D01*
X0133155Y0071926D01*
X0130007Y0068778D01*
X0128446Y0067217D01*
X0127601Y0065177D01*
X0127601Y0063950D01*
X0116795Y0053144D01*
X0116694Y0052900D01*
X0077872Y0052900D01*
X0076806Y0052458D01*
X0056343Y0031996D01*
X0056343Y0039507D01*
X0055606Y0041287D01*
X0054400Y0042493D01*
X0054400Y0046327D01*
X0053958Y0047393D01*
X0053143Y0048208D01*
X0052800Y0048551D01*
X0052800Y0051630D01*
X0052950Y0051691D01*
X0053765Y0052507D01*
X0060358Y0059100D01*
X0060800Y0060166D01*
X0060800Y0130538D01*
X0064432Y0126906D01*
X0065774Y0126350D01*
X0067226Y0126350D01*
X0068568Y0126906D01*
X0069594Y0127932D01*
X0070150Y0129274D01*
X0070150Y0130726D01*
X0069594Y0132068D01*
X0066300Y0135362D01*
X0066300Y0141564D01*
X0068917Y0138947D01*
X0074357Y0138947D01*
X0073901Y0138491D01*
X0073901Y0136959D01*
X0073246Y0137613D01*
X0072113Y0138083D01*
X0070887Y0138083D01*
X0069754Y0137613D01*
X0068887Y0136746D01*
X0068417Y0135613D01*
X0068417Y0134387D01*
X0068887Y0133254D01*
X0069754Y0132387D01*
X0070887Y0131917D01*
X0072113Y0131917D01*
X0073246Y0132387D01*
X0073901Y0133041D01*
X0073901Y0131509D01*
X0074662Y0130747D01*
X0080857Y0130747D01*
X0081500Y0131390D01*
X0082143Y0130747D01*
X0083440Y0130747D01*
X0083440Y0126572D01*
X0076317Y0119450D01*
X0076719Y0119851D02*
X0060800Y0119851D01*
X0060800Y0118853D02*
X0068160Y0118853D01*
X0067995Y0117854D02*
X0060800Y0117854D01*
X0060800Y0116856D02*
X0067995Y0116856D01*
X0067995Y0115857D02*
X0060800Y0115857D01*
X0060800Y0114859D02*
X0067995Y0114859D01*
X0067995Y0113860D02*
X0060800Y0113860D01*
X0060800Y0112862D02*
X0067995Y0112862D01*
X0067995Y0111863D02*
X0060800Y0111863D01*
X0060800Y0110865D02*
X0068443Y0110865D01*
X0070613Y0109866D02*
X0060800Y0109866D01*
X0060800Y0108868D02*
X0070613Y0108868D01*
X0070613Y0107869D02*
X0060800Y0107869D01*
X0060800Y0106870D02*
X0070613Y0106870D01*
X0070613Y0105872D02*
X0060800Y0105872D01*
X0060800Y0104873D02*
X0070613Y0104873D01*
X0070613Y0103875D02*
X0060800Y0103875D01*
X0060800Y0102876D02*
X0070613Y0102876D01*
X0070613Y0101878D02*
X0060800Y0101878D01*
X0060800Y0100879D02*
X0070702Y0100879D01*
X0071116Y0099881D02*
X0060800Y0099881D01*
X0060800Y0098882D02*
X0072007Y0098882D01*
X0072676Y0097884D02*
X0060800Y0097884D01*
X0060800Y0096885D02*
X0073364Y0096885D01*
X0074747Y0095887D02*
X0060800Y0095887D01*
X0060800Y0094888D02*
X0078264Y0094888D01*
X0079263Y0093890D02*
X0060800Y0093890D01*
X0060800Y0092891D02*
X0080261Y0092891D01*
X0081260Y0091893D02*
X0060800Y0091893D01*
X0060800Y0090894D02*
X0082258Y0090894D01*
X0083257Y0089896D02*
X0060800Y0089896D01*
X0060800Y0088897D02*
X0084255Y0088897D01*
X0085254Y0087899D02*
X0060800Y0087899D01*
X0060800Y0086900D02*
X0086252Y0086900D01*
X0087251Y0085902D02*
X0060800Y0085902D01*
X0060800Y0084903D02*
X0088249Y0084903D01*
X0089248Y0083905D02*
X0060800Y0083905D01*
X0060800Y0082906D02*
X0090246Y0082906D01*
X0091245Y0081908D02*
X0060800Y0081908D01*
X0060800Y0080909D02*
X0092243Y0080909D01*
X0093242Y0079911D02*
X0060800Y0079911D01*
X0060800Y0078912D02*
X0094240Y0078912D01*
X0095239Y0077914D02*
X0060800Y0077914D01*
X0060800Y0076915D02*
X0096237Y0076915D01*
X0097236Y0075917D02*
X0060800Y0075917D01*
X0060800Y0074918D02*
X0098234Y0074918D01*
X0099233Y0073920D02*
X0060800Y0073920D01*
X0060800Y0072921D02*
X0100231Y0072921D01*
X0102175Y0077200D02*
X0080666Y0098709D01*
X0080753Y0098918D01*
X0080753Y0100610D01*
X0080105Y0102173D01*
X0078909Y0103369D01*
X0078213Y0103657D01*
X0078213Y0110550D01*
X0080070Y0110550D01*
X0080831Y0111312D01*
X0080831Y0118688D01*
X0080739Y0118780D01*
X0087040Y0125081D01*
X0087040Y0130747D01*
X0088338Y0130747D01*
X0089099Y0131509D01*
X0089099Y0138491D01*
X0088338Y0139253D01*
X0083533Y0139253D01*
X0082040Y0140746D01*
X0082040Y0140747D01*
X0083338Y0140747D01*
X0084099Y0141509D01*
X0084099Y0148491D01*
X0083338Y0149253D01*
X0077143Y0149253D01*
X0076500Y0148610D01*
X0075857Y0149253D01*
X0074560Y0149253D01*
X0074560Y0152581D01*
X0074754Y0152387D01*
X0075887Y0151917D01*
X0077113Y0151917D01*
X0078246Y0152387D01*
X0078993Y0153133D01*
X0080047Y0153133D01*
X0080547Y0152633D01*
X0084063Y0149117D01*
X0084130Y0149117D01*
X0088417Y0144830D01*
X0088417Y0144387D01*
X0088887Y0143254D01*
X0089754Y0142387D01*
X0090887Y0141917D01*
X0092113Y0141917D01*
X0093246Y0142387D01*
X0094113Y0143254D01*
X0094583Y0144387D01*
X0094583Y0145613D01*
X0094113Y0146746D01*
X0093246Y0147613D01*
X0092113Y0148083D01*
X0091670Y0148083D01*
X0087624Y0152129D01*
X0088246Y0152387D01*
X0088528Y0152669D01*
X0088560Y0152637D01*
X0094811Y0152637D01*
X0094754Y0152613D01*
X0093887Y0151746D01*
X0093417Y0150613D01*
X0093417Y0149387D01*
X0093887Y0148254D01*
X0094700Y0147440D01*
X0094700Y0143191D01*
X0095754Y0142137D01*
X0098664Y0139228D01*
X0098419Y0138635D01*
X0098419Y0136955D01*
X0099061Y0135403D01*
X0100249Y0134215D01*
X0101802Y0133572D01*
X0103482Y0133572D01*
X0105034Y0134215D01*
X0106222Y0135403D01*
X0106865Y0136955D01*
X0106865Y0138635D01*
X0106222Y0140188D01*
X0105034Y0141376D01*
X0103482Y0142018D01*
X0101802Y0142018D01*
X0101209Y0141773D01*
X0098300Y0144683D01*
X0098300Y0147440D01*
X0099113Y0148254D01*
X0099583Y0149387D01*
X0099583Y0150613D01*
X0099113Y0151746D01*
X0098246Y0152613D01*
X0097710Y0152836D01*
X0098272Y0153399D01*
X0098272Y0158019D01*
X0098083Y0158209D01*
X0098272Y0158399D01*
X0098272Y0163019D01*
X0098083Y0163209D01*
X0098272Y0163399D01*
X0098272Y0168019D01*
X0098083Y0168209D01*
X0098272Y0168399D01*
X0098272Y0168909D01*
X0113615Y0168909D01*
X0113887Y0168254D01*
X0114754Y0167387D01*
X0115887Y0166917D01*
X0117113Y0166917D01*
X0118246Y0167387D01*
X0119113Y0168254D01*
X0119583Y0169387D01*
X0119583Y0170613D01*
X0119113Y0171746D01*
X0118246Y0172613D01*
X0117113Y0173083D01*
X0115887Y0173083D01*
X0114754Y0172613D01*
X0114649Y0172509D01*
X0113368Y0172509D01*
X0114113Y0173254D01*
X0114583Y0174387D01*
X0114583Y0175613D01*
X0114113Y0176746D01*
X0113246Y0177613D01*
X0112113Y0178083D01*
X0110887Y0178083D01*
X0109754Y0177613D01*
X0109649Y0177509D01*
X0108368Y0177509D01*
X0109113Y0178254D01*
X0109583Y0179387D01*
X0109583Y0180613D01*
X0109113Y0181746D01*
X0108246Y0182613D01*
X0107113Y0183083D01*
X0105887Y0183083D01*
X0104754Y0182613D01*
X0104649Y0182509D01*
X0103368Y0182509D01*
X0104113Y0183254D01*
X0104583Y0184387D01*
X0104583Y0185613D01*
X0104113Y0186746D01*
X0103246Y0187613D01*
X0102113Y0188083D01*
X0100887Y0188083D01*
X0099754Y0187613D01*
X0099649Y0187509D01*
X0098272Y0187509D01*
X0098272Y0188019D01*
X0098083Y0188209D01*
X0098272Y0188399D01*
X0098272Y0193019D01*
X0098083Y0193209D01*
X0098272Y0193399D01*
X0098272Y0198019D01*
X0098083Y0198209D01*
X0098272Y0198399D01*
X0098272Y0203019D01*
X0098083Y0203209D01*
X0098272Y0203399D01*
X0098272Y0205473D01*
X0099700Y0204046D01*
X0099700Y0197560D01*
X0098887Y0196746D01*
X0098417Y0195613D01*
X0098417Y0194387D01*
X0098887Y0193254D01*
X0099754Y0192387D01*
X0100887Y0191917D01*
X0102113Y0191917D01*
X0103246Y0192387D01*
X0104113Y0193254D01*
X0104583Y0194387D01*
X0104583Y0195613D01*
X0104113Y0196746D01*
X0103300Y0197560D01*
X0103300Y0205537D01*
X0102246Y0206591D01*
X0098272Y0210564D01*
X0098272Y0213019D01*
X0098083Y0213209D01*
X0098272Y0213399D01*
X0098272Y0213659D01*
X0098719Y0213659D01*
X0098887Y0213254D01*
X0099754Y0212387D01*
X0100887Y0211917D01*
X0102113Y0211917D01*
X0103246Y0212387D01*
X0104113Y0213254D01*
X0104583Y0214387D01*
X0104583Y0215613D01*
X0104113Y0216746D01*
X0103246Y0217613D01*
X0102113Y0218083D01*
X0100887Y0218083D01*
X0100105Y0217759D01*
X0098272Y0217759D01*
X0098272Y0218019D01*
X0098210Y0218081D01*
X0098370Y0218358D01*
X0098472Y0218740D01*
X0098472Y0220323D01*
X0093421Y0220323D01*
X0093421Y0221094D01*
X0098472Y0221094D01*
X0098472Y0222678D01*
X0098370Y0223059D01*
X0098173Y0223401D01*
X0097893Y0223681D01*
X0097551Y0223878D01*
X0097170Y0223980D01*
X0093421Y0223980D01*
X0093421Y0221095D01*
X0092650Y0221095D01*
X0092650Y0223980D01*
X0088901Y0223980D01*
X0088519Y0223878D01*
X0088177Y0223681D01*
X0087898Y0223401D01*
X0087701Y0223059D01*
X0087598Y0222678D01*
X0087598Y0221094D01*
X0092650Y0221094D01*
X0092650Y0220323D01*
X0087598Y0220323D01*
X0087598Y0218740D01*
X0087701Y0218358D01*
X0087861Y0218081D01*
X0087798Y0218019D01*
X0087798Y0217759D01*
X0085953Y0217759D01*
X0085953Y0218240D01*
X0082000Y0218240D01*
X0082000Y0219240D01*
X0085953Y0219240D01*
X0085953Y0221497D01*
X0085851Y0221878D01*
X0085653Y0222220D01*
X0085374Y0222499D01*
X0085032Y0222697D01*
X0084650Y0222799D01*
X0082000Y0222799D01*
X0082000Y0219240D01*
X0081000Y0219240D01*
X0081000Y0218240D01*
X0077047Y0218240D01*
X0077047Y0215984D01*
X0077149Y0215602D01*
X0077347Y0215260D01*
X0077626Y0214981D01*
X0077781Y0214891D01*
X0077247Y0214357D01*
X0077247Y0208162D01*
X0078009Y0207401D01*
X0079200Y0207401D01*
X0079200Y0172060D01*
X0078887Y0171746D01*
X0078417Y0170613D01*
X0078417Y0169387D01*
X0078887Y0168254D01*
X0079200Y0167940D01*
X0079200Y0156733D01*
X0079119Y0156733D01*
X0079113Y0156746D01*
X0078246Y0157613D01*
X0077113Y0158083D01*
X0075887Y0158083D01*
X0074754Y0157613D01*
X0074000Y0156860D01*
X0073246Y0157613D01*
X0072113Y0158083D01*
X0070887Y0158083D01*
X0069754Y0157613D01*
X0068887Y0156746D01*
X0068417Y0155613D01*
X0068417Y0154387D01*
X0068887Y0153254D01*
X0069754Y0152387D01*
X0070887Y0151917D01*
X0070960Y0151917D01*
X0070960Y0149253D01*
X0069662Y0149253D01*
X0068901Y0148491D01*
X0068901Y0144054D01*
X0068100Y0144855D01*
X0068100Y0202036D01*
X0050138Y0219998D01*
X0049083Y0221053D01*
X0036733Y0221053D01*
X0032786Y0225000D01*
X0239421Y0225000D01*
X0239421Y0022000D01*
X0003500Y0022000D01*
X0003500Y0064098D01*
X0003657Y0063941D01*
X0015200Y0052398D01*
X0015200Y0045212D01*
X0015962Y0044450D01*
X0018600Y0044450D01*
X0018600Y0043150D01*
X0018435Y0042984D01*
X0017463Y0043387D01*
X0015537Y0043387D01*
X0013756Y0042649D01*
X0012394Y0041287D01*
X0011657Y0039507D01*
X0011657Y0030493D01*
X0012394Y0028713D01*
X0013756Y0027351D01*
X0015537Y0026613D01*
X0017463Y0026613D01*
X0019244Y0027351D01*
X0020606Y0028713D01*
X0021343Y0030493D01*
X0021343Y0035742D01*
X0021657Y0036055D01*
X0021657Y0030493D01*
X0022394Y0028713D01*
X0023756Y0027351D01*
X0025537Y0026613D01*
X0027463Y0026613D01*
X0029244Y0027351D01*
X0030606Y0028713D01*
X0031343Y0030493D01*
X0031343Y0039507D01*
X0030606Y0041287D01*
X0030069Y0041824D01*
X0030543Y0042297D01*
X0031358Y0043113D01*
X0031800Y0044179D01*
X0031800Y0057321D01*
X0031358Y0058387D01*
X0030543Y0059203D01*
X0029137Y0060608D01*
X0028071Y0061050D01*
X0020407Y0061050D01*
X0018507Y0062950D01*
X0027038Y0062950D01*
X0027800Y0063712D01*
X0027800Y0066350D01*
X0039499Y0066350D01*
X0038147Y0064998D01*
X0037206Y0064608D01*
X0036391Y0063793D01*
X0033457Y0060859D01*
X0032641Y0060044D01*
X0032200Y0058978D01*
X0032200Y0028875D01*
X0032641Y0027809D01*
X0037395Y0023055D01*
X0038461Y0022613D01*
X0054539Y0022613D01*
X0055605Y0023055D01*
X0079650Y0047100D01*
X0116694Y0047100D01*
X0116795Y0046856D01*
X0118356Y0045295D01*
X0119068Y0045000D01*
X0118356Y0044705D01*
X0116795Y0043144D01*
X0115950Y0041104D01*
X0115950Y0038896D01*
X0116795Y0036856D01*
X0118356Y0035295D01*
X0119787Y0034702D01*
X0118668Y0034239D01*
X0117261Y0032832D01*
X0116500Y0030995D01*
X0116500Y0029005D01*
X0117261Y0027168D01*
X0118668Y0025761D01*
X0120505Y0025000D01*
X0122495Y0025000D01*
X0124332Y0025761D01*
X0125739Y0027168D01*
X0126500Y0029005D01*
X0126500Y0030995D01*
X0125739Y0032832D01*
X0124332Y0034239D01*
X0123822Y0034450D01*
X0129061Y0034450D01*
X0131101Y0035295D01*
X0132662Y0036856D01*
X0144750Y0048944D01*
X0148409Y0048944D01*
X0151938Y0050405D01*
X0154638Y0053106D01*
X0156099Y0056634D01*
X0156099Y0060453D01*
X0154638Y0063981D01*
X0151938Y0066681D01*
X0148409Y0068143D01*
X0144591Y0068143D01*
X0143995Y0067896D01*
X0144255Y0068523D01*
X0144255Y0078779D01*
X0146133Y0078779D01*
X0146894Y0079540D01*
X0146894Y0090460D01*
X0146133Y0091221D01*
X0136451Y0091221D01*
X0129885Y0097787D01*
X0127845Y0098631D01*
X0127804Y0098631D01*
X0126205Y0100230D01*
X0126205Y0100230D01*
X0125950Y0100486D01*
X0125950Y0102743D01*
X0125188Y0103505D01*
X0122931Y0103505D01*
X0121967Y0104469D01*
X0119927Y0105314D01*
X0095396Y0105314D01*
X0093356Y0104469D01*
X0091795Y0102908D01*
X0090950Y0100868D01*
X0090950Y0098660D01*
X0091795Y0096620D01*
X0093356Y0095059D01*
X0095396Y0094214D01*
X0116524Y0094214D01*
X0117050Y0093687D01*
X0117050Y0091430D01*
X0117812Y0090669D01*
X0120069Y0090669D01*
X0120800Y0089938D01*
X0122000Y0088738D01*
X0122000Y0083413D01*
X0121000Y0083413D01*
X0121000Y0082413D01*
X0116850Y0082413D01*
X0116850Y0077598D01*
X0116953Y0077216D01*
X0116962Y0077200D01*
X0102175Y0077200D01*
X0101461Y0077914D02*
X0116850Y0077914D01*
X0116850Y0078912D02*
X0100463Y0078912D01*
X0099464Y0079911D02*
X0116850Y0079911D01*
X0116850Y0080909D02*
X0098466Y0080909D01*
X0097467Y0081908D02*
X0116850Y0081908D01*
X0116850Y0083413D02*
X0121000Y0083413D01*
X0121000Y0089531D01*
X0118153Y0089531D01*
X0117771Y0089429D01*
X0117429Y0089232D01*
X0117150Y0088953D01*
X0116953Y0088610D01*
X0116850Y0088229D01*
X0116850Y0083413D01*
X0116850Y0083905D02*
X0095470Y0083905D01*
X0094472Y0084903D02*
X0116850Y0084903D01*
X0116850Y0085902D02*
X0093473Y0085902D01*
X0092475Y0086900D02*
X0116850Y0086900D01*
X0116850Y0087899D02*
X0091476Y0087899D01*
X0090478Y0088897D02*
X0117118Y0088897D01*
X0117586Y0090894D02*
X0088481Y0090894D01*
X0089479Y0089896D02*
X0120842Y0089896D01*
X0121000Y0088897D02*
X0121840Y0088897D01*
X0122000Y0087899D02*
X0121000Y0087899D01*
X0121000Y0086900D02*
X0122000Y0086900D01*
X0122000Y0085902D02*
X0121000Y0085902D01*
X0121000Y0084903D02*
X0122000Y0084903D01*
X0122000Y0083905D02*
X0121000Y0083905D01*
X0121000Y0082906D02*
X0096469Y0082906D01*
X0087482Y0091893D02*
X0117050Y0091893D01*
X0117050Y0092891D02*
X0086484Y0092891D01*
X0085485Y0093890D02*
X0116848Y0093890D01*
X0125950Y0100879D02*
X0176952Y0100879D01*
X0176952Y0100905D02*
X0176952Y0099095D01*
X0177644Y0097424D01*
X0178924Y0096144D01*
X0180595Y0095452D01*
X0182405Y0095452D01*
X0184076Y0096144D01*
X0185356Y0097424D01*
X0186048Y0099095D01*
X0186048Y0100905D01*
X0185356Y0102576D01*
X0184076Y0103856D01*
X0182405Y0104548D01*
X0180595Y0104548D01*
X0178924Y0103856D01*
X0177644Y0102576D01*
X0176952Y0100905D01*
X0176952Y0099881D02*
X0126555Y0099881D01*
X0127553Y0098882D02*
X0177040Y0098882D01*
X0177454Y0097884D02*
X0129650Y0097884D01*
X0130786Y0096885D02*
X0178183Y0096885D01*
X0179545Y0095887D02*
X0131785Y0095887D01*
X0132783Y0094888D02*
X0239421Y0094888D01*
X0239421Y0093890D02*
X0218691Y0093890D01*
X0218281Y0094300D02*
X0214719Y0094300D01*
X0212200Y0091781D01*
X0212200Y0088219D01*
X0214719Y0085700D01*
X0218281Y0085700D01*
X0220800Y0088219D01*
X0220800Y0091781D01*
X0218281Y0094300D01*
X0218281Y0095700D02*
X0220800Y0098219D01*
X0220800Y0101781D01*
X0218281Y0104300D01*
X0214719Y0104300D01*
X0212200Y0101781D01*
X0212200Y0098219D01*
X0214719Y0095700D01*
X0218281Y0095700D01*
X0218468Y0095887D02*
X0239421Y0095887D01*
X0239421Y0096885D02*
X0219466Y0096885D01*
X0220465Y0097884D02*
X0239421Y0097884D01*
X0239421Y0098882D02*
X0220800Y0098882D01*
X0220800Y0099881D02*
X0239421Y0099881D01*
X0239421Y0100879D02*
X0220800Y0100879D01*
X0220703Y0101878D02*
X0239421Y0101878D01*
X0239421Y0102876D02*
X0219705Y0102876D01*
X0218706Y0103875D02*
X0239421Y0103875D01*
X0239421Y0104873D02*
X0120990Y0104873D01*
X0122561Y0103875D02*
X0178970Y0103875D01*
X0177945Y0102876D02*
X0125816Y0102876D01*
X0125950Y0101878D02*
X0177355Y0101878D01*
X0178924Y0106144D02*
X0180595Y0105452D01*
X0182405Y0105452D01*
X0184076Y0106144D01*
X0185356Y0107424D01*
X0186048Y0109095D01*
X0186048Y0110905D01*
X0185356Y0112576D01*
X0184076Y0113856D01*
X0182405Y0114548D01*
X0180595Y0114548D01*
X0178924Y0113856D01*
X0177644Y0112576D01*
X0176952Y0110905D01*
X0176952Y0109095D01*
X0177644Y0107424D01*
X0178924Y0106144D01*
X0179581Y0105872D02*
X0078213Y0105872D01*
X0078213Y0106870D02*
X0178198Y0106870D01*
X0177460Y0107869D02*
X0153805Y0107869D01*
X0153860Y0107884D02*
X0154203Y0108081D01*
X0154482Y0108360D01*
X0154679Y0108703D01*
X0154781Y0109084D01*
X0154781Y0111730D01*
X0150833Y0111730D01*
X0150833Y0112679D01*
X0154781Y0112679D01*
X0154781Y0115325D01*
X0154679Y0115707D01*
X0154482Y0116049D01*
X0154203Y0116328D01*
X0153860Y0116526D01*
X0153479Y0116628D01*
X0150833Y0116628D01*
X0150833Y0112679D01*
X0149884Y0112679D01*
X0149884Y0111730D01*
X0150833Y0111730D01*
X0150833Y0107781D01*
X0153479Y0107781D01*
X0153860Y0107884D01*
X0154723Y0108868D02*
X0177046Y0108868D01*
X0176952Y0109866D02*
X0154781Y0109866D01*
X0154781Y0110865D02*
X0158564Y0110865D01*
X0158668Y0110761D02*
X0160505Y0110000D01*
X0162495Y0110000D01*
X0164332Y0110761D01*
X0165739Y0112168D01*
X0166500Y0114005D01*
X0166500Y0115995D01*
X0165739Y0117832D01*
X0164332Y0119239D01*
X0162495Y0120000D01*
X0160505Y0120000D01*
X0159473Y0119572D01*
X0147935Y0131111D01*
X0147935Y0134246D01*
X0147966Y0134215D01*
X0149518Y0133572D01*
X0151198Y0133572D01*
X0152751Y0134215D01*
X0153939Y0135403D01*
X0154581Y0136955D01*
X0154581Y0138635D01*
X0154336Y0139228D01*
X0161765Y0146656D01*
X0161765Y0152637D01*
X0164440Y0152637D01*
X0165202Y0153399D01*
X0165202Y0158019D01*
X0165012Y0158209D01*
X0165202Y0158399D01*
X0165202Y0163019D01*
X0165012Y0163209D01*
X0165202Y0163399D01*
X0165202Y0168019D01*
X0165012Y0168209D01*
X0165202Y0168399D01*
X0165202Y0173019D01*
X0165012Y0173209D01*
X0165202Y0173399D01*
X0165202Y0178019D01*
X0165012Y0178209D01*
X0165202Y0178399D01*
X0165202Y0178909D01*
X0166247Y0178909D01*
X0166247Y0178162D01*
X0167009Y0177401D01*
X0173991Y0177401D01*
X0174753Y0178162D01*
X0174753Y0184357D01*
X0174110Y0185000D01*
X0174753Y0185643D01*
X0174753Y0188200D01*
X0177323Y0188200D01*
X0177644Y0187424D01*
X0178924Y0186144D01*
X0180595Y0185452D01*
X0182405Y0185452D01*
X0184076Y0186144D01*
X0185356Y0187424D01*
X0186048Y0189095D01*
X0186048Y0190905D01*
X0185356Y0192576D01*
X0184280Y0193652D01*
X0204071Y0193652D01*
X0202200Y0191781D01*
X0202200Y0188219D01*
X0204719Y0185700D01*
X0208281Y0185700D01*
X0210800Y0188219D01*
X0210800Y0191781D01*
X0208929Y0193652D01*
X0214071Y0193652D01*
X0212200Y0191781D01*
X0212200Y0188219D01*
X0214719Y0185700D01*
X0218281Y0185700D01*
X0220800Y0188219D01*
X0220800Y0191781D01*
X0218854Y0193727D01*
X0223327Y0198200D01*
X0226834Y0198200D01*
X0227261Y0197168D01*
X0228668Y0195761D01*
X0230505Y0195000D01*
X0228668Y0194239D01*
X0227261Y0192832D01*
X0226500Y0190995D01*
X0226500Y0189005D01*
X0227261Y0187168D01*
X0228668Y0185761D01*
X0230505Y0185000D01*
X0232495Y0185000D01*
X0234332Y0185761D01*
X0235739Y0187168D01*
X0236500Y0189005D01*
X0236500Y0190995D01*
X0235739Y0192832D01*
X0234844Y0193727D01*
X0238300Y0197183D01*
X0238300Y0212817D01*
X0237246Y0213871D01*
X0235371Y0215746D01*
X0234844Y0216273D01*
X0235739Y0217168D01*
X0236500Y0219005D01*
X0236500Y0220995D01*
X0235739Y0222832D01*
X0234332Y0224239D01*
X0232495Y0225000D01*
X0230505Y0225000D01*
X0228668Y0224239D01*
X0227261Y0222832D01*
X0226500Y0220995D01*
X0226500Y0219005D01*
X0227261Y0217168D01*
X0227629Y0216800D01*
X0219381Y0216800D01*
X0220800Y0218219D01*
X0220800Y0221781D01*
X0218281Y0224300D01*
X0214719Y0224300D01*
X0212200Y0221781D01*
X0212200Y0218219D01*
X0213619Y0216800D01*
X0209381Y0216800D01*
X0210800Y0218219D01*
X0210800Y0221781D01*
X0208281Y0224300D01*
X0204719Y0224300D01*
X0202200Y0221781D01*
X0202200Y0220764D01*
X0201164Y0221800D01*
X0199060Y0221800D01*
X0198246Y0222613D01*
X0197113Y0223083D01*
X0195887Y0223083D01*
X0194754Y0222613D01*
X0193887Y0221746D01*
X0193417Y0220613D01*
X0193417Y0219387D01*
X0193887Y0218254D01*
X0194754Y0217387D01*
X0195887Y0216917D01*
X0197113Y0216917D01*
X0198246Y0217387D01*
X0199060Y0218200D01*
X0199673Y0218200D01*
X0204146Y0213727D01*
X0202200Y0211781D01*
X0202200Y0208219D01*
X0203167Y0207252D01*
X0197921Y0207252D01*
X0198246Y0207387D01*
X0199113Y0208254D01*
X0199583Y0209387D01*
X0199583Y0210613D01*
X0199113Y0211746D01*
X0198246Y0212613D01*
X0197113Y0213083D01*
X0195963Y0213083D01*
X0192698Y0216348D01*
X0184551Y0216348D01*
X0184593Y0216378D01*
X0185122Y0216907D01*
X0185561Y0217511D01*
X0185900Y0218177D01*
X0186131Y0218888D01*
X0186228Y0219500D01*
X0182000Y0219500D01*
X0182000Y0220500D01*
X0181000Y0220500D01*
X0181000Y0224728D01*
X0180388Y0224631D01*
X0179677Y0224400D01*
X0179011Y0224061D01*
X0178407Y0223622D01*
X0177878Y0223093D01*
X0177439Y0222489D01*
X0177100Y0221823D01*
X0176869Y0221112D01*
X0176772Y0220500D01*
X0181000Y0220500D01*
X0181000Y0219500D01*
X0176772Y0219500D01*
X0176869Y0218888D01*
X0177100Y0218177D01*
X0177439Y0217511D01*
X0177878Y0216907D01*
X0178407Y0216378D01*
X0178693Y0216170D01*
X0177816Y0215294D01*
X0175031Y0212509D01*
X0165202Y0212509D01*
X0165202Y0213019D01*
X0165012Y0213209D01*
X0165202Y0213399D01*
X0165202Y0218019D01*
X0165139Y0218081D01*
X0165299Y0218358D01*
X0165402Y0218740D01*
X0165402Y0220323D01*
X0160350Y0220323D01*
X0160350Y0221094D01*
X0165402Y0221094D01*
X0165402Y0222678D01*
X0165299Y0223059D01*
X0165102Y0223401D01*
X0164823Y0223681D01*
X0164481Y0223878D01*
X0164099Y0223980D01*
X0160350Y0223980D01*
X0160350Y0221095D01*
X0159579Y0221095D01*
X0159579Y0223980D01*
X0155830Y0223980D01*
X0155449Y0223878D01*
X0155107Y0223681D01*
X0154827Y0223401D01*
X0154630Y0223059D01*
X0154528Y0222678D01*
X0154528Y0221094D01*
X0159579Y0221094D01*
X0159579Y0220323D01*
X0154528Y0220323D01*
X0154528Y0218740D01*
X0154630Y0218358D01*
X0154790Y0218081D01*
X0154728Y0218019D01*
X0154728Y0215580D01*
X0150175Y0215580D01*
X0140754Y0206160D01*
X0139700Y0205105D01*
X0139700Y0197560D01*
X0138887Y0196746D01*
X0138417Y0195613D01*
X0138417Y0194387D01*
X0138887Y0193254D01*
X0139754Y0192387D01*
X0140887Y0191917D01*
X0142113Y0191917D01*
X0143246Y0192387D01*
X0144113Y0193254D01*
X0144583Y0194387D01*
X0144583Y0195613D01*
X0144113Y0196746D01*
X0143300Y0197560D01*
X0143300Y0203614D01*
X0151666Y0211980D01*
X0154728Y0211980D01*
X0154728Y0208399D01*
X0154917Y0208209D01*
X0154728Y0208019D01*
X0154728Y0203399D01*
X0154917Y0203209D01*
X0154728Y0203019D01*
X0154728Y0200944D01*
X0153335Y0202336D01*
X0154197Y0203198D01*
X0154681Y0204367D01*
X0154681Y0205633D01*
X0154197Y0206802D01*
X0153302Y0207697D01*
X0152133Y0208181D01*
X0150867Y0208181D01*
X0149698Y0207697D01*
X0148803Y0206802D01*
X0148319Y0205633D01*
X0148319Y0204367D01*
X0148803Y0203198D01*
X0149698Y0202303D01*
X0149700Y0202302D01*
X0149700Y0200880D01*
X0150754Y0199826D01*
X0154728Y0195853D01*
X0154728Y0193399D01*
X0154917Y0193209D01*
X0154728Y0193019D01*
X0154728Y0190944D01*
X0148300Y0197372D01*
X0148300Y0197440D01*
X0149113Y0198254D01*
X0149583Y0199387D01*
X0149583Y0200613D01*
X0149113Y0201746D01*
X0148246Y0202613D01*
X0147113Y0203083D01*
X0145887Y0203083D01*
X0144754Y0202613D01*
X0143887Y0201746D01*
X0143417Y0200613D01*
X0143417Y0199387D01*
X0143887Y0198254D01*
X0144700Y0197440D01*
X0144700Y0195880D01*
X0145754Y0194826D01*
X0154728Y0185853D01*
X0154728Y0183399D01*
X0154917Y0183209D01*
X0154728Y0183019D01*
X0154728Y0178399D01*
X0154917Y0178209D01*
X0154728Y0178019D01*
X0154728Y0177509D01*
X0153351Y0177509D01*
X0153246Y0177613D01*
X0152113Y0178083D01*
X0150887Y0178083D01*
X0149754Y0177613D01*
X0148887Y0176746D01*
X0148417Y0175613D01*
X0148417Y0174387D01*
X0148887Y0173254D01*
X0149640Y0172500D01*
X0148887Y0171746D01*
X0148417Y0170613D01*
X0148417Y0169387D01*
X0148887Y0168254D01*
X0149640Y0167500D01*
X0148887Y0166746D01*
X0148417Y0165613D01*
X0148417Y0164387D01*
X0148887Y0163254D01*
X0149640Y0162500D01*
X0148887Y0161746D01*
X0148417Y0160613D01*
X0148417Y0159387D01*
X0148887Y0158254D01*
X0149754Y0157387D01*
X0150666Y0157009D01*
X0146690Y0157009D01*
X0146500Y0156819D01*
X0146310Y0157009D01*
X0141690Y0157009D01*
X0141500Y0156819D01*
X0141310Y0157009D01*
X0136690Y0157009D01*
X0136500Y0156819D01*
X0136310Y0157009D01*
X0131690Y0157009D01*
X0131500Y0156819D01*
X0131310Y0157009D01*
X0126690Y0157009D01*
X0126500Y0156819D01*
X0126310Y0157009D01*
X0121690Y0157009D01*
X0121500Y0156819D01*
X0121310Y0157009D01*
X0116690Y0157009D01*
X0116500Y0156819D01*
X0116310Y0157009D01*
X0111690Y0157009D01*
X0111500Y0156819D01*
X0111310Y0157009D01*
X0106690Y0157009D01*
X0106628Y0156946D01*
X0106351Y0157106D01*
X0105969Y0157209D01*
X0104386Y0157209D01*
X0104386Y0152158D01*
X0103614Y0152158D01*
X0103614Y0157209D01*
X0102031Y0157209D01*
X0101649Y0157106D01*
X0101307Y0156909D01*
X0101028Y0156630D01*
X0100831Y0156288D01*
X0100728Y0155906D01*
X0100728Y0152157D01*
X0103614Y0152157D01*
X0103614Y0151386D01*
X0100728Y0151386D01*
X0100728Y0147637D01*
X0100831Y0147256D01*
X0101028Y0146914D01*
X0101307Y0146634D01*
X0101649Y0146437D01*
X0102031Y0146335D01*
X0103614Y0146335D01*
X0103614Y0151386D01*
X0104386Y0151386D01*
X0104386Y0146335D01*
X0104799Y0146335D01*
X0104500Y0145613D01*
X0104500Y0144387D01*
X0104969Y0143254D01*
X0105836Y0142387D01*
X0106969Y0141917D01*
X0108196Y0141917D01*
X0109329Y0142387D01*
X0110196Y0143254D01*
X0110665Y0144387D01*
X0110665Y0145537D01*
X0110800Y0145672D01*
X0110800Y0146535D01*
X0111310Y0146535D01*
X0111500Y0146725D01*
X0111690Y0146535D01*
X0116310Y0146535D01*
X0116500Y0146725D01*
X0116690Y0146535D01*
X0121310Y0146535D01*
X0121500Y0146725D01*
X0121690Y0146535D01*
X0126310Y0146535D01*
X0126500Y0146725D01*
X0126690Y0146535D01*
X0131310Y0146535D01*
X0131500Y0146725D01*
X0131690Y0146535D01*
X0136310Y0146535D01*
X0136500Y0146725D01*
X0136690Y0146535D01*
X0141310Y0146535D01*
X0141500Y0146725D01*
X0141690Y0146535D01*
X0146310Y0146535D01*
X0146500Y0146725D01*
X0146690Y0146535D01*
X0147200Y0146535D01*
X0147200Y0143155D01*
X0145389Y0141345D01*
X0144335Y0140290D01*
X0144335Y0129619D01*
X0156928Y0117027D01*
X0156500Y0115995D01*
X0156500Y0114005D01*
X0157261Y0112168D01*
X0158668Y0110761D01*
X0157566Y0111863D02*
X0150833Y0111863D01*
X0149884Y0111863D02*
X0133116Y0111863D01*
X0133116Y0111730D02*
X0133116Y0112679D01*
X0132167Y0112679D01*
X0132167Y0111730D01*
X0128239Y0111730D01*
X0128327Y0111169D01*
X0128543Y0110507D01*
X0128859Y0109886D01*
X0129268Y0109323D01*
X0129760Y0108831D01*
X0130323Y0108422D01*
X0130944Y0108106D01*
X0131606Y0107890D01*
X0132167Y0107802D01*
X0132167Y0111730D01*
X0133116Y0111730D01*
X0133116Y0107802D01*
X0133678Y0107890D01*
X0134340Y0108106D01*
X0134960Y0108422D01*
X0135523Y0108831D01*
X0136016Y0109323D01*
X0136425Y0109886D01*
X0136741Y0110507D01*
X0136956Y0111169D01*
X0137045Y0111730D01*
X0133116Y0111730D01*
X0133116Y0110865D02*
X0132167Y0110865D01*
X0132167Y0111863D02*
X0120833Y0111863D01*
X0120833Y0111730D02*
X0120833Y0112679D01*
X0124781Y0112679D01*
X0124781Y0115325D01*
X0124679Y0115707D01*
X0124482Y0116049D01*
X0124203Y0116328D01*
X0123860Y0116526D01*
X0123479Y0116628D01*
X0120833Y0116628D01*
X0120833Y0112679D01*
X0119884Y0112679D01*
X0119884Y0111730D01*
X0120833Y0111730D01*
X0124781Y0111730D01*
X0124781Y0109084D01*
X0124679Y0108703D01*
X0124482Y0108360D01*
X0124203Y0108081D01*
X0123860Y0107884D01*
X0123479Y0107781D01*
X0120833Y0107781D01*
X0120833Y0111730D01*
X0120833Y0110865D02*
X0119884Y0110865D01*
X0119884Y0111730D02*
X0119884Y0107781D01*
X0117238Y0107781D01*
X0116856Y0107884D01*
X0116514Y0108081D01*
X0116235Y0108360D01*
X0116037Y0108703D01*
X0115935Y0109084D01*
X0115935Y0111730D01*
X0119884Y0111730D01*
X0119884Y0111863D02*
X0103116Y0111863D01*
X0103116Y0111730D02*
X0103116Y0112679D01*
X0102167Y0112679D01*
X0102167Y0111730D01*
X0098239Y0111730D01*
X0098327Y0111169D01*
X0098543Y0110507D01*
X0098859Y0109886D01*
X0099268Y0109323D01*
X0099760Y0108831D01*
X0100323Y0108422D01*
X0100944Y0108106D01*
X0101606Y0107890D01*
X0102167Y0107802D01*
X0102167Y0111730D01*
X0103116Y0111730D01*
X0103116Y0107802D01*
X0103678Y0107890D01*
X0104340Y0108106D01*
X0104960Y0108422D01*
X0105523Y0108831D01*
X0106016Y0109323D01*
X0106425Y0109886D01*
X0106741Y0110507D01*
X0106956Y0111169D01*
X0107045Y0111730D01*
X0103116Y0111730D01*
X0103116Y0110865D02*
X0102167Y0110865D01*
X0102167Y0111863D02*
X0095205Y0111863D01*
X0095205Y0111653D02*
X0095205Y0114500D01*
X0089087Y0114500D01*
X0089087Y0115500D01*
X0095205Y0115500D01*
X0095205Y0118347D01*
X0095102Y0118729D01*
X0094905Y0119071D01*
X0094626Y0119350D01*
X0094284Y0119547D01*
X0093902Y0119650D01*
X0089087Y0119650D01*
X0089087Y0115500D01*
X0088087Y0115500D01*
X0088087Y0119650D01*
X0083271Y0119650D01*
X0082890Y0119547D01*
X0082547Y0119350D01*
X0082268Y0119071D01*
X0082071Y0118729D01*
X0081969Y0118347D01*
X0081969Y0115500D01*
X0088087Y0115500D01*
X0088087Y0114500D01*
X0089087Y0114500D01*
X0089087Y0110350D01*
X0093902Y0110350D01*
X0094284Y0110453D01*
X0094626Y0110650D01*
X0094905Y0110929D01*
X0095102Y0111271D01*
X0095205Y0111653D01*
X0094840Y0110865D02*
X0098426Y0110865D01*
X0098873Y0109866D02*
X0078213Y0109866D01*
X0078213Y0108868D02*
X0099724Y0108868D01*
X0101741Y0107869D02*
X0078213Y0107869D01*
X0078213Y0104873D02*
X0094333Y0104873D01*
X0092762Y0103875D02*
X0088239Y0103875D01*
X0088209Y0103890D02*
X0087543Y0104107D01*
X0086984Y0104195D01*
X0086984Y0100248D01*
X0086016Y0100248D01*
X0086016Y0104195D01*
X0085457Y0104107D01*
X0084791Y0103890D01*
X0084166Y0103572D01*
X0083599Y0103160D01*
X0083104Y0102665D01*
X0082692Y0102098D01*
X0082373Y0101473D01*
X0082157Y0100806D01*
X0082068Y0100248D01*
X0086016Y0100248D01*
X0086016Y0099280D01*
X0082068Y0099280D01*
X0082157Y0098721D01*
X0082373Y0098055D01*
X0082692Y0097430D01*
X0083104Y0096863D01*
X0083599Y0096367D01*
X0084166Y0095955D01*
X0084791Y0095637D01*
X0085457Y0095421D01*
X0086016Y0095332D01*
X0086016Y0099279D01*
X0086984Y0099279D01*
X0086984Y0095332D01*
X0087543Y0095421D01*
X0088209Y0095637D01*
X0088834Y0095955D01*
X0089401Y0096367D01*
X0089896Y0096863D01*
X0090308Y0097430D01*
X0090627Y0098055D01*
X0090843Y0098721D01*
X0090932Y0099280D01*
X0086984Y0099280D01*
X0086984Y0100248D01*
X0090932Y0100248D01*
X0090843Y0100806D01*
X0090627Y0101473D01*
X0090308Y0102098D01*
X0089896Y0102665D01*
X0089401Y0103160D01*
X0088834Y0103572D01*
X0088209Y0103890D01*
X0086984Y0103875D02*
X0086016Y0103875D01*
X0086016Y0102876D02*
X0086984Y0102876D01*
X0086984Y0101878D02*
X0086016Y0101878D01*
X0086016Y0100879D02*
X0086984Y0100879D01*
X0086984Y0099881D02*
X0090950Y0099881D01*
X0090955Y0100879D02*
X0090819Y0100879D01*
X0090420Y0101878D02*
X0091368Y0101878D01*
X0091782Y0102876D02*
X0089684Y0102876D01*
X0086016Y0099881D02*
X0080753Y0099881D01*
X0080738Y0098882D02*
X0082131Y0098882D01*
X0082460Y0097884D02*
X0081491Y0097884D01*
X0082490Y0096885D02*
X0083087Y0096885D01*
X0083488Y0095887D02*
X0084301Y0095887D01*
X0084487Y0094888D02*
X0093767Y0094888D01*
X0092528Y0095887D02*
X0088699Y0095887D01*
X0089913Y0096885D02*
X0091685Y0096885D01*
X0091271Y0097884D02*
X0090540Y0097884D01*
X0090869Y0098882D02*
X0090950Y0098882D01*
X0086984Y0098882D02*
X0086016Y0098882D01*
X0086016Y0097884D02*
X0086984Y0097884D01*
X0086984Y0096885D02*
X0086016Y0096885D01*
X0086016Y0095887D02*
X0086984Y0095887D01*
X0082181Y0100879D02*
X0080641Y0100879D01*
X0080227Y0101878D02*
X0082580Y0101878D01*
X0083316Y0102876D02*
X0079402Y0102876D01*
X0078213Y0103875D02*
X0084761Y0103875D01*
X0083271Y0110350D02*
X0088087Y0110350D01*
X0088087Y0114500D01*
X0081969Y0114500D01*
X0081969Y0111653D01*
X0082071Y0111271D01*
X0082268Y0110929D01*
X0082547Y0110650D01*
X0082890Y0110453D01*
X0083271Y0110350D01*
X0082333Y0110865D02*
X0080384Y0110865D01*
X0080831Y0111863D02*
X0081969Y0111863D01*
X0081969Y0112862D02*
X0080831Y0112862D01*
X0080831Y0113860D02*
X0081969Y0113860D01*
X0080831Y0114859D02*
X0088087Y0114859D01*
X0088087Y0115857D02*
X0089087Y0115857D01*
X0089087Y0114859D02*
X0099102Y0114859D01*
X0099268Y0115086D02*
X0098859Y0114523D01*
X0098543Y0113903D01*
X0098327Y0113241D01*
X0098239Y0112679D01*
X0102167Y0112679D01*
X0102167Y0116608D01*
X0101606Y0116519D01*
X0100944Y0116304D01*
X0100323Y0115988D01*
X0099760Y0115579D01*
X0099268Y0115086D01*
X0100144Y0115857D02*
X0095205Y0115857D01*
X0095205Y0116856D02*
X0156857Y0116856D01*
X0156500Y0115857D02*
X0154593Y0115857D01*
X0154781Y0114859D02*
X0156500Y0114859D01*
X0156560Y0113860D02*
X0154781Y0113860D01*
X0154781Y0112862D02*
X0156974Y0112862D01*
X0161500Y0115000D02*
X0146135Y0130365D01*
X0146135Y0139545D01*
X0149000Y0142410D01*
X0149000Y0151772D01*
X0149346Y0157795D02*
X0098272Y0157795D01*
X0098272Y0158793D02*
X0148663Y0158793D01*
X0148417Y0159792D02*
X0098272Y0159792D01*
X0098272Y0160790D02*
X0148491Y0160790D01*
X0148929Y0161789D02*
X0098272Y0161789D01*
X0098272Y0162787D02*
X0149353Y0162787D01*
X0148666Y0163786D02*
X0098272Y0163786D01*
X0098272Y0164784D02*
X0148417Y0164784D01*
X0148488Y0165783D02*
X0098272Y0165783D01*
X0098272Y0166781D02*
X0148922Y0166781D01*
X0149361Y0167780D02*
X0118639Y0167780D01*
X0119331Y0168778D02*
X0148669Y0168778D01*
X0148417Y0169777D02*
X0119583Y0169777D01*
X0119516Y0170775D02*
X0148484Y0170775D01*
X0148914Y0171774D02*
X0119086Y0171774D01*
X0117863Y0172772D02*
X0149368Y0172772D01*
X0148673Y0173771D02*
X0114327Y0173771D01*
X0114583Y0174769D02*
X0148417Y0174769D01*
X0148481Y0175768D02*
X0114519Y0175768D01*
X0114093Y0176766D02*
X0148907Y0176766D01*
X0150119Y0177765D02*
X0112881Y0177765D01*
X0112523Y0179839D02*
X0122063Y0179839D01*
X0122063Y0190681D01*
X0123063Y0190681D01*
X0123063Y0179839D01*
X0132603Y0179839D01*
X0132984Y0179941D01*
X0133327Y0180138D01*
X0133606Y0180418D01*
X0133803Y0180760D01*
X0133905Y0181141D01*
X0133905Y0190681D01*
X0123063Y0190681D01*
X0123063Y0191681D01*
X0133905Y0191681D01*
X0133905Y0201221D01*
X0133803Y0201603D01*
X0133606Y0201945D01*
X0133327Y0202224D01*
X0132984Y0202421D01*
X0132603Y0202524D01*
X0123063Y0202524D01*
X0123063Y0191681D01*
X0122063Y0191681D01*
X0122063Y0190681D01*
X0111220Y0190681D01*
X0111220Y0181141D01*
X0111323Y0180760D01*
X0111520Y0180418D01*
X0111799Y0180138D01*
X0112141Y0179941D01*
X0112523Y0179839D01*
X0111323Y0180760D02*
X0109522Y0180760D01*
X0109583Y0179762D02*
X0154728Y0179762D01*
X0154728Y0180760D02*
X0133803Y0180760D01*
X0133905Y0181759D02*
X0154728Y0181759D01*
X0154728Y0182757D02*
X0133905Y0182757D01*
X0133905Y0183756D02*
X0154728Y0183756D01*
X0154728Y0184754D02*
X0133905Y0184754D01*
X0133905Y0185753D02*
X0154728Y0185753D01*
X0153829Y0186751D02*
X0133905Y0186751D01*
X0133905Y0187750D02*
X0152831Y0187750D01*
X0151832Y0188748D02*
X0133905Y0188748D01*
X0133905Y0189747D02*
X0150834Y0189747D01*
X0149835Y0190745D02*
X0123063Y0190745D01*
X0123063Y0189747D02*
X0122063Y0189747D01*
X0122063Y0190745D02*
X0098272Y0190745D01*
X0098272Y0189747D02*
X0111220Y0189747D01*
X0111220Y0188748D02*
X0098272Y0188748D01*
X0098272Y0187750D02*
X0100083Y0187750D01*
X0100791Y0185709D02*
X0101500Y0185000D01*
X0100791Y0185709D02*
X0093035Y0185709D01*
X0093035Y0180709D02*
X0105791Y0180709D01*
X0106500Y0180000D01*
X0109324Y0178763D02*
X0154728Y0178763D01*
X0154728Y0177765D02*
X0152881Y0177765D01*
X0152209Y0175709D02*
X0151500Y0175000D01*
X0152209Y0175709D02*
X0159965Y0175709D01*
X0159965Y0170709D02*
X0152209Y0170709D01*
X0151500Y0170000D01*
X0152209Y0165709D02*
X0151500Y0165000D01*
X0152209Y0165709D02*
X0159965Y0165709D01*
X0159965Y0160709D02*
X0152209Y0160709D01*
X0151500Y0160000D01*
X0159965Y0155709D02*
X0159965Y0147402D01*
X0150358Y0137795D01*
X0145863Y0141818D02*
X0133965Y0141818D01*
X0133482Y0142018D02*
X0135034Y0141376D01*
X0136222Y0140188D01*
X0136865Y0138635D01*
X0136865Y0136955D01*
X0136222Y0135403D01*
X0135034Y0134215D01*
X0133482Y0133572D01*
X0131802Y0133572D01*
X0130249Y0134215D01*
X0129061Y0135403D01*
X0128419Y0136955D01*
X0128419Y0138635D01*
X0129061Y0140188D01*
X0130249Y0141376D01*
X0131802Y0142018D01*
X0133482Y0142018D01*
X0131319Y0141818D02*
X0121681Y0141818D01*
X0121198Y0142018D02*
X0122751Y0141376D01*
X0123939Y0140188D01*
X0124581Y0138635D01*
X0124581Y0136955D01*
X0123939Y0135403D01*
X0122751Y0134215D01*
X0121198Y0133572D01*
X0119518Y0133572D01*
X0117966Y0134215D01*
X0116778Y0135403D01*
X0116135Y0136955D01*
X0116135Y0138635D01*
X0116778Y0140188D01*
X0117966Y0141376D01*
X0119518Y0142018D01*
X0121198Y0142018D01*
X0119035Y0141818D02*
X0103965Y0141818D01*
X0105406Y0142817D02*
X0100166Y0142817D01*
X0101164Y0141818D02*
X0101319Y0141818D01*
X0099167Y0143815D02*
X0104737Y0143815D01*
X0104500Y0144814D02*
X0098300Y0144814D01*
X0098300Y0145812D02*
X0104583Y0145812D01*
X0104386Y0146811D02*
X0103614Y0146811D01*
X0103614Y0147809D02*
X0104386Y0147809D01*
X0104386Y0148808D02*
X0103614Y0148808D01*
X0103614Y0149806D02*
X0104386Y0149806D01*
X0104386Y0150805D02*
X0103614Y0150805D01*
X0103614Y0151803D02*
X0099056Y0151803D01*
X0099503Y0150805D02*
X0100728Y0150805D01*
X0100728Y0149806D02*
X0099583Y0149806D01*
X0099343Y0148808D02*
X0100728Y0148808D01*
X0100728Y0147809D02*
X0098669Y0147809D01*
X0098300Y0146811D02*
X0101131Y0146811D01*
X0096500Y0143937D02*
X0096500Y0150000D01*
X0093657Y0148808D02*
X0090945Y0148808D01*
X0089946Y0149806D02*
X0093417Y0149806D01*
X0093497Y0150805D02*
X0088948Y0150805D01*
X0087949Y0151803D02*
X0093944Y0151803D01*
X0092327Y0155000D02*
X0086500Y0155000D01*
X0086500Y0160000D02*
X0092327Y0160000D01*
X0093035Y0160709D01*
X0092327Y0165000D02*
X0086500Y0165000D01*
X0092327Y0165000D02*
X0093035Y0165709D01*
X0093035Y0170709D02*
X0115791Y0170709D01*
X0116500Y0170000D01*
X0113669Y0168778D02*
X0098272Y0168778D01*
X0098272Y0167780D02*
X0114361Y0167780D01*
X0113632Y0172772D02*
X0115137Y0172772D01*
X0111500Y0175000D02*
X0110791Y0175709D01*
X0093035Y0175709D01*
X0103617Y0182757D02*
X0105101Y0182757D01*
X0104321Y0183756D02*
X0111220Y0183756D01*
X0111220Y0184754D02*
X0104583Y0184754D01*
X0104525Y0185753D02*
X0111220Y0185753D01*
X0111220Y0186751D02*
X0104108Y0186751D01*
X0102917Y0187750D02*
X0111220Y0187750D01*
X0111220Y0191681D02*
X0122063Y0191681D01*
X0122063Y0202524D01*
X0112523Y0202524D01*
X0112141Y0202421D01*
X0111799Y0202224D01*
X0111520Y0201945D01*
X0111323Y0201603D01*
X0111220Y0201221D01*
X0111220Y0191681D01*
X0111220Y0191744D02*
X0098272Y0191744D01*
X0098272Y0192742D02*
X0099398Y0192742D01*
X0098685Y0193741D02*
X0098272Y0193741D01*
X0098272Y0194739D02*
X0098417Y0194739D01*
X0098469Y0195738D02*
X0098272Y0195738D01*
X0098272Y0196737D02*
X0098883Y0196737D01*
X0098272Y0197735D02*
X0099700Y0197735D01*
X0099700Y0198734D02*
X0098272Y0198734D01*
X0098272Y0199732D02*
X0099700Y0199732D01*
X0099700Y0200731D02*
X0098272Y0200731D01*
X0098272Y0201729D02*
X0099700Y0201729D01*
X0099700Y0202728D02*
X0098272Y0202728D01*
X0098272Y0203726D02*
X0099700Y0203726D01*
X0099021Y0204725D02*
X0098272Y0204725D01*
X0101500Y0204791D02*
X0097511Y0208780D01*
X0094964Y0208780D01*
X0093035Y0210709D01*
X0098272Y0210716D02*
X0145311Y0210716D01*
X0146309Y0211714D02*
X0098272Y0211714D01*
X0098272Y0212713D02*
X0099428Y0212713D01*
X0099120Y0209717D02*
X0144312Y0209717D01*
X0143313Y0208719D02*
X0100118Y0208719D01*
X0101117Y0207720D02*
X0142315Y0207720D01*
X0141316Y0206722D02*
X0102115Y0206722D01*
X0103114Y0205723D02*
X0140318Y0205723D01*
X0140754Y0206160D02*
X0140754Y0206160D01*
X0139700Y0204725D02*
X0103300Y0204725D01*
X0103300Y0203726D02*
X0139700Y0203726D01*
X0139700Y0202728D02*
X0103300Y0202728D01*
X0103300Y0201729D02*
X0111396Y0201729D01*
X0111220Y0200731D02*
X0103300Y0200731D01*
X0103300Y0199732D02*
X0111220Y0199732D01*
X0111220Y0198734D02*
X0103300Y0198734D01*
X0103300Y0197735D02*
X0111220Y0197735D01*
X0111220Y0196737D02*
X0104117Y0196737D01*
X0104531Y0195738D02*
X0111220Y0195738D01*
X0111220Y0194739D02*
X0104583Y0194739D01*
X0104315Y0193741D02*
X0111220Y0193741D01*
X0111220Y0192742D02*
X0103602Y0192742D01*
X0101500Y0195000D02*
X0101500Y0204791D01*
X0103572Y0212713D02*
X0147308Y0212713D01*
X0148306Y0213711D02*
X0104303Y0213711D01*
X0104583Y0214710D02*
X0149305Y0214710D01*
X0150921Y0213780D02*
X0141500Y0204360D01*
X0141500Y0195000D01*
X0144315Y0193741D02*
X0146840Y0193741D01*
X0147838Y0192742D02*
X0143602Y0192742D01*
X0144583Y0194739D02*
X0145841Y0194739D01*
X0144842Y0195738D02*
X0144531Y0195738D01*
X0144700Y0196737D02*
X0144117Y0196737D01*
X0144405Y0197735D02*
X0143300Y0197735D01*
X0143300Y0198734D02*
X0143688Y0198734D01*
X0143417Y0199732D02*
X0143300Y0199732D01*
X0143300Y0200731D02*
X0143466Y0200731D01*
X0143300Y0201729D02*
X0143880Y0201729D01*
X0143300Y0202728D02*
X0145030Y0202728D01*
X0143412Y0203726D02*
X0148584Y0203726D01*
X0148319Y0204725D02*
X0144411Y0204725D01*
X0145409Y0205723D02*
X0148356Y0205723D01*
X0148770Y0206722D02*
X0146408Y0206722D01*
X0147406Y0207720D02*
X0149754Y0207720D01*
X0148405Y0208719D02*
X0154728Y0208719D01*
X0154728Y0209717D02*
X0149403Y0209717D01*
X0150402Y0210716D02*
X0154728Y0210716D01*
X0154728Y0211714D02*
X0151400Y0211714D01*
X0150921Y0213780D02*
X0158036Y0213780D01*
X0159965Y0215709D01*
X0159965Y0210709D02*
X0175777Y0210709D01*
X0179616Y0214548D01*
X0191952Y0214548D01*
X0196500Y0210000D01*
X0198580Y0207720D02*
X0202699Y0207720D01*
X0202200Y0208719D02*
X0199306Y0208719D01*
X0199583Y0209717D02*
X0202200Y0209717D01*
X0202200Y0210716D02*
X0199540Y0210716D01*
X0199127Y0211714D02*
X0202200Y0211714D01*
X0203132Y0212713D02*
X0198006Y0212713D01*
X0195334Y0213711D02*
X0204130Y0213711D01*
X0203164Y0214710D02*
X0194336Y0214710D01*
X0193337Y0215708D02*
X0202165Y0215708D01*
X0201167Y0216707D02*
X0184921Y0216707D01*
X0185660Y0217705D02*
X0194435Y0217705D01*
X0193700Y0218704D02*
X0186071Y0218704D01*
X0186228Y0220500D02*
X0186131Y0221112D01*
X0185900Y0221823D01*
X0185561Y0222489D01*
X0185122Y0223093D01*
X0184593Y0223622D01*
X0183989Y0224061D01*
X0183323Y0224400D01*
X0182612Y0224631D01*
X0182000Y0224728D01*
X0182000Y0220500D01*
X0186228Y0220500D01*
X0186196Y0220701D02*
X0193454Y0220701D01*
X0193417Y0219702D02*
X0182000Y0219702D01*
X0182000Y0220701D02*
X0181000Y0220701D01*
X0181000Y0221699D02*
X0182000Y0221699D01*
X0182000Y0222698D02*
X0181000Y0222698D01*
X0181000Y0223696D02*
X0182000Y0223696D01*
X0182000Y0224695D02*
X0181000Y0224695D01*
X0180790Y0224695D02*
X0033091Y0224695D01*
X0034089Y0223696D02*
X0088205Y0223696D01*
X0087604Y0222698D02*
X0085029Y0222698D01*
X0085898Y0221699D02*
X0087598Y0221699D01*
X0085953Y0220701D02*
X0092650Y0220701D01*
X0093035Y0220709D02*
X0083469Y0220709D01*
X0081500Y0218740D01*
X0082000Y0218704D02*
X0087608Y0218704D01*
X0087598Y0219702D02*
X0085953Y0219702D01*
X0082000Y0219702D02*
X0081000Y0219702D01*
X0081000Y0219240D02*
X0081000Y0222799D01*
X0078350Y0222799D01*
X0077968Y0222697D01*
X0077626Y0222499D01*
X0077347Y0222220D01*
X0077149Y0221878D01*
X0077047Y0221497D01*
X0077047Y0219240D01*
X0081000Y0219240D01*
X0081000Y0218704D02*
X0051432Y0218704D01*
X0050434Y0219702D02*
X0077047Y0219702D01*
X0077047Y0220701D02*
X0049435Y0220701D01*
X0052431Y0217705D02*
X0077047Y0217705D01*
X0077047Y0216707D02*
X0053429Y0216707D01*
X0054428Y0215708D02*
X0077121Y0215708D01*
X0077600Y0214710D02*
X0055426Y0214710D01*
X0056425Y0213711D02*
X0077247Y0213711D01*
X0077247Y0212713D02*
X0057423Y0212713D01*
X0058422Y0211714D02*
X0077247Y0211714D01*
X0077247Y0210716D02*
X0059420Y0210716D01*
X0060419Y0209717D02*
X0077247Y0209717D01*
X0077247Y0208719D02*
X0061417Y0208719D01*
X0062416Y0207720D02*
X0077689Y0207720D01*
X0079200Y0206722D02*
X0063414Y0206722D01*
X0064413Y0205723D02*
X0079200Y0205723D01*
X0079200Y0204725D02*
X0065411Y0204725D01*
X0066410Y0203726D02*
X0079200Y0203726D01*
X0079200Y0202728D02*
X0067408Y0202728D01*
X0068100Y0201729D02*
X0079200Y0201729D01*
X0079200Y0200731D02*
X0068100Y0200731D01*
X0068100Y0199732D02*
X0079200Y0199732D01*
X0079200Y0198734D02*
X0068100Y0198734D01*
X0068100Y0197735D02*
X0079200Y0197735D01*
X0079200Y0196737D02*
X0068100Y0196737D01*
X0068100Y0195738D02*
X0079200Y0195738D01*
X0079200Y0194739D02*
X0068100Y0194739D01*
X0068100Y0193741D02*
X0079200Y0193741D01*
X0079200Y0192742D02*
X0068100Y0192742D01*
X0068100Y0191744D02*
X0079200Y0191744D01*
X0079200Y0190745D02*
X0068100Y0190745D01*
X0068100Y0189747D02*
X0079200Y0189747D01*
X0079200Y0188748D02*
X0068100Y0188748D01*
X0068100Y0187750D02*
X0079200Y0187750D01*
X0079200Y0186751D02*
X0068100Y0186751D01*
X0068100Y0185753D02*
X0079200Y0185753D01*
X0079200Y0184754D02*
X0068100Y0184754D01*
X0068100Y0183756D02*
X0079200Y0183756D01*
X0079200Y0182757D02*
X0068100Y0182757D01*
X0068100Y0181759D02*
X0079200Y0181759D01*
X0079200Y0180760D02*
X0068100Y0180760D01*
X0068100Y0179762D02*
X0079200Y0179762D01*
X0079200Y0178763D02*
X0068100Y0178763D01*
X0068100Y0177765D02*
X0079200Y0177765D01*
X0079200Y0176766D02*
X0068100Y0176766D01*
X0068100Y0175768D02*
X0079200Y0175768D01*
X0079200Y0174769D02*
X0068100Y0174769D01*
X0068100Y0173771D02*
X0079200Y0173771D01*
X0079200Y0172772D02*
X0068100Y0172772D01*
X0068100Y0171774D02*
X0078914Y0171774D01*
X0078484Y0170775D02*
X0068100Y0170775D01*
X0068100Y0169777D02*
X0078417Y0169777D01*
X0078669Y0168778D02*
X0068100Y0168778D01*
X0068100Y0167780D02*
X0079200Y0167780D01*
X0079200Y0166781D02*
X0068100Y0166781D01*
X0068100Y0165783D02*
X0079200Y0165783D01*
X0079200Y0164784D02*
X0068100Y0164784D01*
X0068100Y0163786D02*
X0079200Y0163786D01*
X0079200Y0162787D02*
X0068100Y0162787D01*
X0068100Y0161789D02*
X0079200Y0161789D01*
X0079200Y0160790D02*
X0068100Y0160790D01*
X0068100Y0159792D02*
X0079200Y0159792D01*
X0079200Y0158793D02*
X0068100Y0158793D01*
X0068100Y0157795D02*
X0070191Y0157795D01*
X0068936Y0156796D02*
X0068100Y0156796D01*
X0068100Y0155798D02*
X0068494Y0155798D01*
X0068417Y0154799D02*
X0068100Y0154799D01*
X0068100Y0153801D02*
X0068660Y0153801D01*
X0068100Y0152802D02*
X0069338Y0152802D01*
X0068100Y0151803D02*
X0070960Y0151803D01*
X0070960Y0150805D02*
X0068100Y0150805D01*
X0068100Y0149806D02*
X0070960Y0149806D01*
X0069218Y0148808D02*
X0068100Y0148808D01*
X0068100Y0147809D02*
X0068901Y0147809D01*
X0068901Y0146811D02*
X0068100Y0146811D01*
X0068100Y0145812D02*
X0068901Y0145812D01*
X0068901Y0144814D02*
X0068141Y0144814D01*
X0067044Y0140820D02*
X0066300Y0140820D01*
X0066300Y0139821D02*
X0068043Y0139821D01*
X0066300Y0138823D02*
X0074232Y0138823D01*
X0073901Y0137824D02*
X0072737Y0137824D01*
X0070263Y0137824D02*
X0066300Y0137824D01*
X0066300Y0136826D02*
X0068966Y0136826D01*
X0068506Y0135827D02*
X0066300Y0135827D01*
X0066833Y0134829D02*
X0068417Y0134829D01*
X0068648Y0133830D02*
X0067832Y0133830D01*
X0068830Y0132832D02*
X0069309Y0132832D01*
X0069691Y0131833D02*
X0073901Y0131833D01*
X0073901Y0132832D02*
X0073691Y0132832D01*
X0074575Y0130835D02*
X0070105Y0130835D01*
X0070150Y0129836D02*
X0083440Y0129836D01*
X0083440Y0128838D02*
X0069969Y0128838D01*
X0070299Y0127839D02*
X0069501Y0127839D01*
X0069754Y0127613D02*
X0068887Y0126746D01*
X0068417Y0125613D01*
X0068417Y0124387D01*
X0068887Y0123254D01*
X0069754Y0122387D01*
X0070887Y0121917D01*
X0072113Y0121917D01*
X0073246Y0122387D01*
X0074113Y0123254D01*
X0074583Y0124387D01*
X0074583Y0125613D01*
X0074113Y0126746D01*
X0073246Y0127613D01*
X0072113Y0128083D01*
X0070887Y0128083D01*
X0069754Y0127613D01*
X0068981Y0126841D02*
X0068411Y0126841D01*
X0068512Y0125842D02*
X0060800Y0125842D01*
X0060800Y0124844D02*
X0068417Y0124844D01*
X0068642Y0123845D02*
X0060800Y0123845D01*
X0060800Y0122847D02*
X0069294Y0122847D01*
X0073706Y0122847D02*
X0079714Y0122847D01*
X0078716Y0121848D02*
X0060800Y0121848D01*
X0060800Y0120850D02*
X0077717Y0120850D01*
X0080713Y0123845D02*
X0074358Y0123845D01*
X0074583Y0124844D02*
X0081711Y0124844D01*
X0082710Y0125842D02*
X0074488Y0125842D01*
X0074019Y0126841D02*
X0083440Y0126841D01*
X0083440Y0127839D02*
X0072701Y0127839D01*
X0071500Y0135000D02*
X0077760Y0135000D01*
X0080945Y0130835D02*
X0082055Y0130835D01*
X0087040Y0129836D02*
X0144335Y0129836D01*
X0144335Y0130835D02*
X0088425Y0130835D01*
X0089099Y0131833D02*
X0144335Y0131833D01*
X0144335Y0132832D02*
X0089099Y0132832D01*
X0089099Y0133830D02*
X0101178Y0133830D01*
X0099636Y0134829D02*
X0089099Y0134829D01*
X0089099Y0135827D02*
X0098886Y0135827D01*
X0098472Y0136826D02*
X0089099Y0136826D01*
X0089099Y0137824D02*
X0098419Y0137824D01*
X0098496Y0138823D02*
X0088768Y0138823D01*
X0089324Y0142817D02*
X0084099Y0142817D01*
X0084099Y0143815D02*
X0088654Y0143815D01*
X0088417Y0144814D02*
X0084099Y0144814D01*
X0084099Y0145812D02*
X0087435Y0145812D01*
X0086436Y0146811D02*
X0084099Y0146811D01*
X0084099Y0147809D02*
X0085438Y0147809D01*
X0084439Y0148808D02*
X0083782Y0148808D01*
X0083374Y0149806D02*
X0074560Y0149806D01*
X0074560Y0150805D02*
X0082376Y0150805D01*
X0081377Y0151803D02*
X0074560Y0151803D01*
X0072760Y0153740D02*
X0072760Y0145000D01*
X0076302Y0148808D02*
X0076698Y0148808D01*
X0078662Y0152802D02*
X0080379Y0152802D01*
X0081500Y0154933D02*
X0076567Y0154933D01*
X0076500Y0155000D01*
X0075191Y0157795D02*
X0072809Y0157795D01*
X0071500Y0155000D02*
X0072760Y0153740D01*
X0077809Y0157795D02*
X0079200Y0157795D01*
X0079200Y0156796D02*
X0079063Y0156796D01*
X0092327Y0155000D02*
X0093035Y0155709D01*
X0098272Y0155798D02*
X0100728Y0155798D01*
X0100728Y0154799D02*
X0098272Y0154799D01*
X0098272Y0153801D02*
X0100728Y0153801D01*
X0100728Y0152802D02*
X0097791Y0152802D01*
X0098272Y0156796D02*
X0101194Y0156796D01*
X0103614Y0156796D02*
X0104386Y0156796D01*
X0104386Y0155798D02*
X0103614Y0155798D01*
X0103614Y0154799D02*
X0104386Y0154799D01*
X0104386Y0153801D02*
X0103614Y0153801D01*
X0103614Y0152802D02*
X0104386Y0152802D01*
X0109000Y0151772D02*
X0109000Y0146417D01*
X0107583Y0145000D01*
X0110429Y0143815D02*
X0147200Y0143815D01*
X0147200Y0144814D02*
X0110665Y0144814D01*
X0110800Y0145812D02*
X0147200Y0145812D01*
X0146862Y0142817D02*
X0109759Y0142817D01*
X0106374Y0139821D02*
X0116626Y0139821D01*
X0116213Y0138823D02*
X0106787Y0138823D01*
X0106865Y0137824D02*
X0116135Y0137824D01*
X0116189Y0136826D02*
X0106811Y0136826D01*
X0106398Y0135827D02*
X0116602Y0135827D01*
X0117352Y0134829D02*
X0105648Y0134829D01*
X0104105Y0133830D02*
X0118895Y0133830D01*
X0121822Y0133830D02*
X0131178Y0133830D01*
X0129636Y0134829D02*
X0123364Y0134829D01*
X0124114Y0135827D02*
X0128886Y0135827D01*
X0128472Y0136826D02*
X0124528Y0136826D01*
X0124581Y0137824D02*
X0128419Y0137824D01*
X0128496Y0138823D02*
X0124504Y0138823D01*
X0124090Y0139821D02*
X0128910Y0139821D01*
X0129694Y0140820D02*
X0123306Y0140820D01*
X0117410Y0140820D02*
X0105590Y0140820D01*
X0102642Y0137795D02*
X0096500Y0143937D01*
X0094700Y0143815D02*
X0094346Y0143815D01*
X0094583Y0144814D02*
X0094700Y0144814D01*
X0094700Y0145812D02*
X0094500Y0145812D01*
X0094700Y0146811D02*
X0094049Y0146811D01*
X0094331Y0147809D02*
X0092773Y0147809D01*
X0093676Y0142817D02*
X0095075Y0142817D01*
X0096073Y0141818D02*
X0084099Y0141818D01*
X0083410Y0140820D02*
X0097072Y0140820D01*
X0098070Y0139821D02*
X0082964Y0139821D01*
X0087040Y0128838D02*
X0145117Y0128838D01*
X0146115Y0127839D02*
X0087040Y0127839D01*
X0087040Y0126841D02*
X0147114Y0126841D01*
X0148112Y0125842D02*
X0087040Y0125842D01*
X0086803Y0124844D02*
X0149111Y0124844D01*
X0150109Y0123845D02*
X0085804Y0123845D01*
X0084806Y0122847D02*
X0151108Y0122847D01*
X0152106Y0121848D02*
X0083807Y0121848D01*
X0082809Y0120850D02*
X0153105Y0120850D01*
X0154103Y0119851D02*
X0081810Y0119851D01*
X0082142Y0118853D02*
X0080812Y0118853D01*
X0080831Y0117854D02*
X0081969Y0117854D01*
X0081969Y0116856D02*
X0080831Y0116856D01*
X0080831Y0115857D02*
X0081969Y0115857D01*
X0088087Y0116856D02*
X0089087Y0116856D01*
X0089087Y0117854D02*
X0088087Y0117854D01*
X0088087Y0118853D02*
X0089087Y0118853D01*
X0089087Y0113860D02*
X0088087Y0113860D01*
X0088087Y0112862D02*
X0089087Y0112862D01*
X0089087Y0111863D02*
X0088087Y0111863D01*
X0088087Y0110865D02*
X0089087Y0110865D01*
X0095205Y0112862D02*
X0098267Y0112862D01*
X0098529Y0113860D02*
X0095205Y0113860D01*
X0095205Y0117854D02*
X0156100Y0117854D01*
X0155102Y0118853D02*
X0095031Y0118853D01*
X0102167Y0115857D02*
X0103116Y0115857D01*
X0103116Y0116608D02*
X0103116Y0112679D01*
X0107045Y0112679D01*
X0106956Y0113241D01*
X0106741Y0113903D01*
X0106425Y0114523D01*
X0106016Y0115086D01*
X0105523Y0115579D01*
X0104960Y0115988D01*
X0104340Y0116304D01*
X0103678Y0116519D01*
X0103116Y0116608D01*
X0103116Y0114859D02*
X0102167Y0114859D01*
X0102167Y0113860D02*
X0103116Y0113860D01*
X0103116Y0112862D02*
X0102167Y0112862D01*
X0102167Y0109866D02*
X0103116Y0109866D01*
X0103116Y0108868D02*
X0102167Y0108868D01*
X0102167Y0107869D02*
X0103116Y0107869D01*
X0103542Y0107869D02*
X0116911Y0107869D01*
X0115993Y0108868D02*
X0105560Y0108868D01*
X0106410Y0109866D02*
X0115935Y0109866D01*
X0115935Y0110865D02*
X0106857Y0110865D01*
X0107016Y0112862D02*
X0115935Y0112862D01*
X0115935Y0112679D02*
X0119884Y0112679D01*
X0119884Y0116628D01*
X0117238Y0116628D01*
X0116856Y0116526D01*
X0116514Y0116328D01*
X0116235Y0116049D01*
X0116037Y0115707D01*
X0115935Y0115325D01*
X0115935Y0112679D01*
X0115935Y0113860D02*
X0106755Y0113860D01*
X0106181Y0114859D02*
X0115935Y0114859D01*
X0116124Y0115857D02*
X0105140Y0115857D01*
X0119884Y0115857D02*
X0120833Y0115857D01*
X0120833Y0114859D02*
X0119884Y0114859D01*
X0119884Y0113860D02*
X0120833Y0113860D01*
X0120833Y0112862D02*
X0119884Y0112862D01*
X0119884Y0109866D02*
X0120833Y0109866D01*
X0120833Y0108868D02*
X0119884Y0108868D01*
X0119884Y0107869D02*
X0120833Y0107869D01*
X0123805Y0107869D02*
X0131741Y0107869D01*
X0132167Y0107869D02*
X0133116Y0107869D01*
X0133542Y0107869D02*
X0146911Y0107869D01*
X0146856Y0107884D02*
X0147238Y0107781D01*
X0149884Y0107781D01*
X0149884Y0111730D01*
X0145935Y0111730D01*
X0145935Y0109084D01*
X0146037Y0108703D01*
X0146235Y0108360D01*
X0146514Y0108081D01*
X0146856Y0107884D01*
X0145993Y0108868D02*
X0135560Y0108868D01*
X0136410Y0109866D02*
X0145935Y0109866D01*
X0145935Y0110865D02*
X0136857Y0110865D01*
X0137045Y0112679D02*
X0136956Y0113241D01*
X0136741Y0113903D01*
X0136425Y0114523D01*
X0136016Y0115086D01*
X0135523Y0115579D01*
X0134960Y0115988D01*
X0134340Y0116304D01*
X0133678Y0116519D01*
X0133116Y0116608D01*
X0133116Y0112679D01*
X0137045Y0112679D01*
X0137016Y0112862D02*
X0145935Y0112862D01*
X0145935Y0112679D02*
X0149884Y0112679D01*
X0149884Y0116628D01*
X0147238Y0116628D01*
X0146856Y0116526D01*
X0146514Y0116328D01*
X0146235Y0116049D01*
X0146037Y0115707D01*
X0145935Y0115325D01*
X0145935Y0112679D01*
X0145935Y0113860D02*
X0136755Y0113860D01*
X0136181Y0114859D02*
X0145935Y0114859D01*
X0146124Y0115857D02*
X0135140Y0115857D01*
X0133116Y0115857D02*
X0132167Y0115857D01*
X0132167Y0116608D02*
X0131606Y0116519D01*
X0130944Y0116304D01*
X0130323Y0115988D01*
X0129760Y0115579D01*
X0129268Y0115086D01*
X0128859Y0114523D01*
X0128543Y0113903D01*
X0128327Y0113241D01*
X0128239Y0112679D01*
X0132167Y0112679D01*
X0132167Y0116608D01*
X0132167Y0114859D02*
X0133116Y0114859D01*
X0133116Y0113860D02*
X0132167Y0113860D01*
X0132167Y0112862D02*
X0133116Y0112862D01*
X0133116Y0109866D02*
X0132167Y0109866D01*
X0132167Y0108868D02*
X0133116Y0108868D01*
X0129724Y0108868D02*
X0124723Y0108868D01*
X0124781Y0109866D02*
X0128873Y0109866D01*
X0128426Y0110865D02*
X0124781Y0110865D01*
X0124781Y0112862D02*
X0128267Y0112862D01*
X0128529Y0113860D02*
X0124781Y0113860D01*
X0124781Y0114859D02*
X0129102Y0114859D01*
X0130144Y0115857D02*
X0124593Y0115857D01*
X0134105Y0133830D02*
X0144335Y0133830D01*
X0144335Y0134829D02*
X0135648Y0134829D01*
X0136398Y0135827D02*
X0144335Y0135827D01*
X0144335Y0136826D02*
X0136811Y0136826D01*
X0136865Y0137824D02*
X0144335Y0137824D01*
X0144335Y0138823D02*
X0136787Y0138823D01*
X0136374Y0139821D02*
X0144335Y0139821D01*
X0144865Y0140820D02*
X0135590Y0140820D01*
X0147935Y0133830D02*
X0148895Y0133830D01*
X0147935Y0132832D02*
X0158901Y0132832D01*
X0158901Y0133491D02*
X0158901Y0126509D01*
X0159662Y0125747D01*
X0160960Y0125747D01*
X0160960Y0122995D01*
X0166928Y0117027D01*
X0166500Y0115995D01*
X0166500Y0114005D01*
X0167261Y0112168D01*
X0168668Y0110761D01*
X0170505Y0110000D01*
X0172495Y0110000D01*
X0174332Y0110761D01*
X0175739Y0112168D01*
X0176500Y0114005D01*
X0176500Y0115995D01*
X0175739Y0117832D01*
X0174332Y0119239D01*
X0172495Y0120000D01*
X0170505Y0120000D01*
X0169473Y0119572D01*
X0164560Y0124486D01*
X0164560Y0125747D01*
X0165857Y0125747D01*
X0166391Y0126281D01*
X0166481Y0126126D01*
X0166760Y0125847D01*
X0167102Y0125649D01*
X0167484Y0125547D01*
X0169740Y0125547D01*
X0169740Y0129500D01*
X0170740Y0129500D01*
X0170740Y0125547D01*
X0172997Y0125547D01*
X0173378Y0125649D01*
X0173720Y0125847D01*
X0173999Y0126126D01*
X0174197Y0126468D01*
X0174299Y0126850D01*
X0174299Y0129500D01*
X0170740Y0129500D01*
X0170740Y0130500D01*
X0169740Y0130500D01*
X0169740Y0134453D01*
X0167484Y0134453D01*
X0167102Y0134351D01*
X0166760Y0134153D01*
X0166481Y0133874D01*
X0166391Y0133719D01*
X0165857Y0134253D01*
X0159662Y0134253D01*
X0158901Y0133491D01*
X0159240Y0133830D02*
X0151822Y0133830D01*
X0153364Y0134829D02*
X0211571Y0134829D01*
X0210889Y0134147D02*
X0213580Y0136838D01*
X0212200Y0138219D01*
X0212200Y0141781D01*
X0214719Y0144300D01*
X0218281Y0144300D01*
X0220800Y0141781D01*
X0220800Y0140764D01*
X0222383Y0142347D01*
X0222383Y0147840D01*
X0221969Y0148254D01*
X0221500Y0149387D01*
X0221500Y0150613D01*
X0221969Y0151746D01*
X0222836Y0152613D01*
X0223969Y0153083D01*
X0225196Y0153083D01*
X0226329Y0152613D01*
X0227196Y0151746D01*
X0227665Y0150613D01*
X0227665Y0149387D01*
X0227196Y0148254D01*
X0226783Y0147840D01*
X0226783Y0140525D01*
X0225494Y0139236D01*
X0225494Y0139236D01*
X0219561Y0133303D01*
X0221000Y0131864D01*
X0221000Y0130500D01*
X0217000Y0130500D01*
X0217000Y0129500D01*
X0221000Y0129500D01*
X0221000Y0128136D01*
X0218364Y0125500D01*
X0217000Y0125500D01*
X0217000Y0129500D01*
X0216000Y0129500D01*
X0216000Y0125500D01*
X0214636Y0125500D01*
X0213197Y0126939D01*
X0212711Y0126453D01*
X0209420Y0123161D01*
X0210800Y0121781D01*
X0210800Y0118219D01*
X0208281Y0115700D01*
X0204719Y0115700D01*
X0204000Y0116419D01*
X0204000Y0114389D01*
X0202711Y0113100D01*
X0199583Y0109971D01*
X0199583Y0109387D01*
X0199113Y0108254D01*
X0198246Y0107387D01*
X0197113Y0106917D01*
X0195887Y0106917D01*
X0194754Y0107387D01*
X0193887Y0108254D01*
X0193417Y0109387D01*
X0193417Y0110613D01*
X0193887Y0111746D01*
X0194754Y0112613D01*
X0195887Y0113083D01*
X0196471Y0113083D01*
X0199600Y0116211D01*
X0199600Y0122858D01*
X0200889Y0124147D01*
X0202353Y0125611D01*
X0203580Y0126838D01*
X0202200Y0128219D01*
X0202200Y0131781D01*
X0204719Y0134300D01*
X0208281Y0134300D01*
X0209661Y0132920D01*
X0210889Y0134147D01*
X0210572Y0133830D02*
X0208751Y0133830D01*
X0208281Y0135700D02*
X0204719Y0135700D01*
X0202200Y0138219D01*
X0202200Y0141781D01*
X0204719Y0144300D01*
X0208281Y0144300D01*
X0210800Y0141781D01*
X0210800Y0138219D01*
X0208281Y0135700D01*
X0208408Y0135827D02*
X0212569Y0135827D01*
X0213568Y0136826D02*
X0209407Y0136826D01*
X0210405Y0137824D02*
X0212595Y0137824D01*
X0212200Y0138823D02*
X0210800Y0138823D01*
X0210800Y0139821D02*
X0212200Y0139821D01*
X0212200Y0140820D02*
X0210800Y0140820D01*
X0210763Y0141818D02*
X0212237Y0141818D01*
X0213236Y0142817D02*
X0209764Y0142817D01*
X0208766Y0143815D02*
X0214234Y0143815D01*
X0214719Y0145700D02*
X0218281Y0145700D01*
X0220800Y0148219D01*
X0220800Y0151781D01*
X0218281Y0154300D01*
X0214719Y0154300D01*
X0212200Y0151781D01*
X0212200Y0148219D01*
X0214719Y0145700D01*
X0214606Y0145812D02*
X0208394Y0145812D01*
X0208281Y0145700D02*
X0202200Y0145700D01*
X0191500Y0135000D01*
X0175240Y0135000D01*
X0170240Y0130000D01*
X0170740Y0129836D02*
X0176952Y0129836D01*
X0176952Y0129095D02*
X0177644Y0127424D01*
X0178924Y0126144D01*
X0180595Y0125452D01*
X0182405Y0125452D01*
X0184076Y0126144D01*
X0185356Y0127424D01*
X0186048Y0129095D01*
X0186048Y0130905D01*
X0185356Y0132576D01*
X0184076Y0133856D01*
X0182405Y0134548D01*
X0180595Y0134548D01*
X0178924Y0133856D01*
X0177644Y0132576D01*
X0176952Y0130905D01*
X0176952Y0129095D01*
X0177059Y0128838D02*
X0174299Y0128838D01*
X0174299Y0127839D02*
X0177472Y0127839D01*
X0178227Y0126841D02*
X0174297Y0126841D01*
X0173712Y0125842D02*
X0179653Y0125842D01*
X0180595Y0124548D02*
X0178924Y0123856D01*
X0177644Y0122576D01*
X0176952Y0120905D01*
X0176952Y0119095D01*
X0177644Y0117424D01*
X0178924Y0116144D01*
X0180595Y0115452D01*
X0182405Y0115452D01*
X0184076Y0116144D01*
X0185356Y0117424D01*
X0186048Y0119095D01*
X0186048Y0120905D01*
X0185356Y0122576D01*
X0184076Y0123856D01*
X0182405Y0124548D01*
X0180595Y0124548D01*
X0178913Y0123845D02*
X0165200Y0123845D01*
X0164560Y0124844D02*
X0201586Y0124844D01*
X0202584Y0125842D02*
X0183347Y0125842D01*
X0184773Y0126841D02*
X0203578Y0126841D01*
X0202580Y0127839D02*
X0185528Y0127839D01*
X0185941Y0128838D02*
X0202200Y0128838D01*
X0202200Y0129836D02*
X0186048Y0129836D01*
X0186048Y0130835D02*
X0202200Y0130835D01*
X0202252Y0131833D02*
X0185663Y0131833D01*
X0185100Y0132832D02*
X0203251Y0132832D01*
X0204249Y0133830D02*
X0184102Y0133830D01*
X0183311Y0135827D02*
X0204592Y0135827D01*
X0203593Y0136826D02*
X0184758Y0136826D01*
X0185356Y0137424D02*
X0186048Y0139095D01*
X0186048Y0140905D01*
X0185356Y0142576D01*
X0184076Y0143856D01*
X0182405Y0144548D01*
X0180595Y0144548D01*
X0178924Y0143856D01*
X0177644Y0142576D01*
X0176952Y0140905D01*
X0176952Y0139095D01*
X0177644Y0137424D01*
X0178924Y0136144D01*
X0180595Y0135452D01*
X0182405Y0135452D01*
X0184076Y0136144D01*
X0185356Y0137424D01*
X0185522Y0137824D02*
X0202595Y0137824D01*
X0202200Y0138823D02*
X0185935Y0138823D01*
X0186048Y0139821D02*
X0202200Y0139821D01*
X0202200Y0140820D02*
X0186048Y0140820D01*
X0185670Y0141818D02*
X0202237Y0141818D01*
X0203236Y0142817D02*
X0185115Y0142817D01*
X0184116Y0143815D02*
X0204234Y0143815D01*
X0204719Y0145700D02*
X0208281Y0145700D01*
X0210800Y0148219D01*
X0210800Y0151781D01*
X0208281Y0154300D01*
X0204719Y0154300D01*
X0202200Y0151781D01*
X0202200Y0148219D01*
X0204719Y0145700D01*
X0204606Y0145812D02*
X0183275Y0145812D01*
X0184076Y0146144D02*
X0185356Y0147424D01*
X0186048Y0149095D01*
X0186048Y0150905D01*
X0185356Y0152576D01*
X0184076Y0153856D01*
X0182405Y0154548D01*
X0180595Y0154548D01*
X0178924Y0153856D01*
X0177644Y0152576D01*
X0176952Y0150905D01*
X0176952Y0149095D01*
X0177644Y0147424D01*
X0178924Y0146144D01*
X0180595Y0145452D01*
X0182405Y0145452D01*
X0184076Y0146144D01*
X0184743Y0146811D02*
X0203608Y0146811D01*
X0202609Y0147809D02*
X0185515Y0147809D01*
X0185929Y0148808D02*
X0202200Y0148808D01*
X0202200Y0149806D02*
X0186048Y0149806D01*
X0186048Y0150805D02*
X0202200Y0150805D01*
X0202222Y0151803D02*
X0185676Y0151803D01*
X0185130Y0152802D02*
X0203221Y0152802D01*
X0204219Y0153801D02*
X0184131Y0153801D01*
X0183239Y0155798D02*
X0204621Y0155798D01*
X0204719Y0155700D02*
X0208281Y0155700D01*
X0210800Y0158219D01*
X0210800Y0161781D01*
X0208281Y0164300D01*
X0204719Y0164300D01*
X0202200Y0161781D01*
X0202200Y0158219D01*
X0204719Y0155700D01*
X0203623Y0156796D02*
X0184728Y0156796D01*
X0185356Y0157424D02*
X0186048Y0159095D01*
X0186048Y0160905D01*
X0185356Y0162576D01*
X0184076Y0163856D01*
X0182405Y0164548D01*
X0180595Y0164548D01*
X0178924Y0163856D01*
X0177644Y0162576D01*
X0176952Y0160905D01*
X0176952Y0159095D01*
X0177644Y0157424D01*
X0178924Y0156144D01*
X0180595Y0155452D01*
X0182405Y0155452D01*
X0184076Y0156144D01*
X0185356Y0157424D01*
X0185509Y0157795D02*
X0202624Y0157795D01*
X0202200Y0158793D02*
X0185923Y0158793D01*
X0186048Y0159792D02*
X0202200Y0159792D01*
X0202200Y0160790D02*
X0186048Y0160790D01*
X0185682Y0161789D02*
X0202208Y0161789D01*
X0203206Y0162787D02*
X0185145Y0162787D01*
X0184146Y0163786D02*
X0204205Y0163786D01*
X0204719Y0165700D02*
X0208281Y0165700D01*
X0210800Y0168219D01*
X0210800Y0171781D01*
X0208281Y0174300D01*
X0204719Y0174300D01*
X0202200Y0171781D01*
X0202200Y0168219D01*
X0204719Y0165700D01*
X0204636Y0165783D02*
X0183203Y0165783D01*
X0182405Y0165452D02*
X0184076Y0166144D01*
X0185356Y0167424D01*
X0186048Y0169095D01*
X0186048Y0170905D01*
X0185356Y0172576D01*
X0184076Y0173856D01*
X0182405Y0174548D01*
X0180595Y0174548D01*
X0178924Y0173856D01*
X0177644Y0172576D01*
X0176952Y0170905D01*
X0176952Y0169095D01*
X0177644Y0167424D01*
X0178924Y0166144D01*
X0180595Y0165452D01*
X0182405Y0165452D01*
X0184713Y0166781D02*
X0203638Y0166781D01*
X0202639Y0167780D02*
X0185503Y0167780D01*
X0185917Y0168778D02*
X0202200Y0168778D01*
X0202200Y0169777D02*
X0186048Y0169777D01*
X0186048Y0170775D02*
X0202200Y0170775D01*
X0202200Y0171774D02*
X0185688Y0171774D01*
X0185160Y0172772D02*
X0203191Y0172772D01*
X0204190Y0173771D02*
X0184161Y0173771D01*
X0183167Y0175768D02*
X0204368Y0175768D01*
X0204636Y0175500D02*
X0202000Y0178136D01*
X0202000Y0179500D01*
X0206000Y0179500D01*
X0206000Y0180500D01*
X0206000Y0184500D01*
X0204636Y0184500D01*
X0202000Y0181864D01*
X0202000Y0180500D01*
X0206000Y0180500D01*
X0207000Y0180500D01*
X0207000Y0184500D01*
X0208364Y0184500D01*
X0211000Y0181864D01*
X0211000Y0180500D01*
X0207000Y0180500D01*
X0207000Y0179500D01*
X0211000Y0179500D01*
X0211000Y0178136D01*
X0208364Y0175500D01*
X0207000Y0175500D01*
X0207000Y0179500D01*
X0206000Y0179500D01*
X0206000Y0175500D01*
X0204636Y0175500D01*
X0206000Y0175768D02*
X0207000Y0175768D01*
X0207000Y0176766D02*
X0206000Y0176766D01*
X0206000Y0177765D02*
X0207000Y0177765D01*
X0207000Y0178763D02*
X0206000Y0178763D01*
X0206000Y0179762D02*
X0186048Y0179762D01*
X0186048Y0179095D02*
X0185356Y0177424D01*
X0184076Y0176144D01*
X0182405Y0175452D01*
X0180595Y0175452D01*
X0178924Y0176144D01*
X0177644Y0177424D01*
X0176952Y0179095D01*
X0176952Y0180905D01*
X0177644Y0182576D01*
X0178924Y0183856D01*
X0180595Y0184548D01*
X0182405Y0184548D01*
X0184076Y0183856D01*
X0185356Y0182576D01*
X0186048Y0180905D01*
X0186048Y0179095D01*
X0185910Y0178763D02*
X0202000Y0178763D01*
X0202371Y0177765D02*
X0185497Y0177765D01*
X0184698Y0176766D02*
X0203370Y0176766D01*
X0202000Y0180760D02*
X0186048Y0180760D01*
X0185694Y0181759D02*
X0202000Y0181759D01*
X0202893Y0182757D02*
X0185175Y0182757D01*
X0184176Y0183756D02*
X0203892Y0183756D01*
X0206000Y0183756D02*
X0207000Y0183756D01*
X0207000Y0182757D02*
X0206000Y0182757D01*
X0206000Y0181759D02*
X0207000Y0181759D01*
X0207000Y0180760D02*
X0206000Y0180760D01*
X0207000Y0179762D02*
X0212200Y0179762D01*
X0212200Y0180760D02*
X0211000Y0180760D01*
X0211000Y0181759D02*
X0212200Y0181759D01*
X0212200Y0181781D02*
X0212200Y0178219D01*
X0214719Y0175700D01*
X0218281Y0175700D01*
X0220800Y0178219D01*
X0220800Y0181781D01*
X0218281Y0184300D01*
X0214719Y0184300D01*
X0212200Y0181781D01*
X0213176Y0182757D02*
X0210107Y0182757D01*
X0209108Y0183756D02*
X0214175Y0183756D01*
X0214666Y0185753D02*
X0208334Y0185753D01*
X0209332Y0186751D02*
X0213667Y0186751D01*
X0212669Y0187750D02*
X0210331Y0187750D01*
X0210800Y0188748D02*
X0212200Y0188748D01*
X0212200Y0189747D02*
X0210800Y0189747D01*
X0210800Y0190745D02*
X0212200Y0190745D01*
X0212200Y0191744D02*
X0210800Y0191744D01*
X0209839Y0192742D02*
X0213161Y0192742D01*
X0212884Y0197252D02*
X0209833Y0197252D01*
X0210800Y0198219D01*
X0210800Y0201781D01*
X0208929Y0203652D01*
X0213788Y0203652D01*
X0212000Y0201864D01*
X0212000Y0200500D01*
X0216000Y0200500D01*
X0216000Y0199500D01*
X0212000Y0199500D01*
X0212000Y0198136D01*
X0212884Y0197252D01*
X0212401Y0197735D02*
X0210316Y0197735D01*
X0210800Y0198734D02*
X0212000Y0198734D01*
X0210800Y0199732D02*
X0216000Y0199732D01*
X0212000Y0200731D02*
X0210800Y0200731D01*
X0210800Y0201729D02*
X0212000Y0201729D01*
X0212864Y0202728D02*
X0209854Y0202728D01*
X0218033Y0195452D02*
X0222581Y0200000D01*
X0231500Y0200000D01*
X0227026Y0197735D02*
X0222862Y0197735D01*
X0221863Y0196737D02*
X0227692Y0196737D01*
X0228724Y0195738D02*
X0220865Y0195738D01*
X0219866Y0194739D02*
X0229877Y0194739D01*
X0230505Y0195000D02*
X0231025Y0195000D01*
X0231026Y0195000D01*
X0230505Y0195000D01*
X0231500Y0192929D02*
X0236500Y0197929D01*
X0236500Y0212071D01*
X0233571Y0215000D01*
X0205419Y0215000D01*
X0200419Y0220000D01*
X0196500Y0220000D01*
X0198565Y0217705D02*
X0200168Y0217705D01*
X0201265Y0221699D02*
X0202200Y0221699D01*
X0203117Y0222698D02*
X0198042Y0222698D01*
X0194958Y0222698D02*
X0185409Y0222698D01*
X0185940Y0221699D02*
X0193867Y0221699D01*
X0184490Y0223696D02*
X0204115Y0223696D01*
X0208885Y0223696D02*
X0214115Y0223696D01*
X0213117Y0222698D02*
X0209883Y0222698D01*
X0210800Y0221699D02*
X0212200Y0221699D01*
X0212200Y0220701D02*
X0210800Y0220701D01*
X0210800Y0219702D02*
X0212200Y0219702D01*
X0212200Y0218704D02*
X0210800Y0218704D01*
X0210286Y0217705D02*
X0212714Y0217705D01*
X0220286Y0217705D02*
X0227039Y0217705D01*
X0226625Y0218704D02*
X0220800Y0218704D01*
X0220800Y0219702D02*
X0226500Y0219702D01*
X0226500Y0220701D02*
X0220800Y0220701D01*
X0220800Y0221699D02*
X0226792Y0221699D01*
X0227206Y0222698D02*
X0219883Y0222698D01*
X0218885Y0223696D02*
X0228125Y0223696D01*
X0229769Y0224695D02*
X0182209Y0224695D01*
X0178510Y0223696D02*
X0164795Y0223696D01*
X0165396Y0222698D02*
X0177591Y0222698D01*
X0177060Y0221699D02*
X0165402Y0221699D01*
X0165402Y0219702D02*
X0181000Y0219702D01*
X0178079Y0216707D02*
X0165202Y0216707D01*
X0165202Y0217705D02*
X0177340Y0217705D01*
X0176929Y0218704D02*
X0165392Y0218704D01*
X0165202Y0215708D02*
X0178231Y0215708D01*
X0177232Y0214710D02*
X0165202Y0214710D01*
X0165202Y0213711D02*
X0176234Y0213711D01*
X0175235Y0212713D02*
X0165202Y0212713D01*
X0159965Y0205709D02*
X0179359Y0205709D01*
X0179616Y0205452D01*
X0226952Y0205452D01*
X0231500Y0210000D01*
X0236407Y0214710D02*
X0239421Y0214710D01*
X0239421Y0215708D02*
X0235408Y0215708D01*
X0235278Y0216707D02*
X0239421Y0216707D01*
X0239421Y0217705D02*
X0235961Y0217705D01*
X0236375Y0218704D02*
X0239421Y0218704D01*
X0239421Y0219702D02*
X0236500Y0219702D01*
X0236500Y0220701D02*
X0239421Y0220701D01*
X0239421Y0221699D02*
X0236208Y0221699D01*
X0235794Y0222698D02*
X0239421Y0222698D01*
X0239421Y0223696D02*
X0234875Y0223696D01*
X0233231Y0224695D02*
X0239421Y0224695D01*
X0239421Y0213711D02*
X0237405Y0213711D01*
X0238300Y0212713D02*
X0239421Y0212713D01*
X0239421Y0211714D02*
X0238300Y0211714D01*
X0238300Y0210716D02*
X0239421Y0210716D01*
X0239421Y0209717D02*
X0238300Y0209717D01*
X0238300Y0208719D02*
X0239421Y0208719D01*
X0239421Y0207720D02*
X0238300Y0207720D01*
X0238300Y0206722D02*
X0239421Y0206722D01*
X0239421Y0205723D02*
X0238300Y0205723D01*
X0238300Y0204725D02*
X0239421Y0204725D01*
X0239421Y0203726D02*
X0238300Y0203726D01*
X0238300Y0202728D02*
X0239421Y0202728D01*
X0239421Y0201729D02*
X0238300Y0201729D01*
X0238300Y0200731D02*
X0239421Y0200731D01*
X0239421Y0199732D02*
X0238300Y0199732D01*
X0238300Y0198734D02*
X0239421Y0198734D01*
X0239421Y0197735D02*
X0238300Y0197735D01*
X0237853Y0196737D02*
X0239421Y0196737D01*
X0239421Y0195738D02*
X0236855Y0195738D01*
X0235856Y0194739D02*
X0239421Y0194739D01*
X0239421Y0193741D02*
X0234858Y0193741D01*
X0235776Y0192742D02*
X0239421Y0192742D01*
X0239421Y0191744D02*
X0236190Y0191744D01*
X0236500Y0190745D02*
X0239421Y0190745D01*
X0239421Y0189747D02*
X0236500Y0189747D01*
X0236394Y0188748D02*
X0239421Y0188748D01*
X0239421Y0187750D02*
X0235980Y0187750D01*
X0235322Y0186751D02*
X0239421Y0186751D01*
X0239421Y0185753D02*
X0234312Y0185753D01*
X0234332Y0184239D02*
X0232495Y0185000D01*
X0230505Y0185000D01*
X0228668Y0184239D01*
X0227261Y0182832D01*
X0226500Y0180995D01*
X0226500Y0179005D01*
X0227261Y0177168D01*
X0228668Y0175761D01*
X0230318Y0175078D01*
X0230282Y0175072D01*
X0229504Y0174819D01*
X0228775Y0174447D01*
X0228112Y0173966D01*
X0227534Y0173388D01*
X0227053Y0172725D01*
X0226681Y0171996D01*
X0226428Y0171218D01*
X0226314Y0170500D01*
X0231000Y0170500D01*
X0231000Y0169500D01*
X0232000Y0169500D01*
X0232000Y0170500D01*
X0236686Y0170500D01*
X0236572Y0171218D01*
X0236319Y0171996D01*
X0235947Y0172725D01*
X0235466Y0173388D01*
X0234888Y0173966D01*
X0234225Y0174447D01*
X0233496Y0174819D01*
X0232718Y0175072D01*
X0232682Y0175078D01*
X0234332Y0175761D01*
X0235739Y0177168D01*
X0236500Y0179005D01*
X0236500Y0180995D01*
X0235739Y0182832D01*
X0234332Y0184239D01*
X0234815Y0183756D02*
X0239421Y0183756D01*
X0239421Y0184754D02*
X0233088Y0184754D01*
X0229912Y0184754D02*
X0174356Y0184754D01*
X0174753Y0183756D02*
X0178824Y0183756D01*
X0177825Y0182757D02*
X0174753Y0182757D01*
X0174753Y0181759D02*
X0177306Y0181759D01*
X0176952Y0180760D02*
X0174753Y0180760D01*
X0174753Y0179762D02*
X0176952Y0179762D01*
X0177089Y0178763D02*
X0174753Y0178763D01*
X0174355Y0177765D02*
X0177503Y0177765D01*
X0178302Y0176766D02*
X0165202Y0176766D01*
X0165202Y0175768D02*
X0179833Y0175768D01*
X0178839Y0173771D02*
X0165202Y0173771D01*
X0165202Y0174769D02*
X0229406Y0174769D01*
X0228661Y0175768D02*
X0218349Y0175768D01*
X0219347Y0176766D02*
X0227663Y0176766D01*
X0227014Y0177765D02*
X0220346Y0177765D01*
X0220800Y0178763D02*
X0226600Y0178763D01*
X0226500Y0179762D02*
X0220800Y0179762D01*
X0220800Y0180760D02*
X0226500Y0180760D01*
X0226817Y0181759D02*
X0220800Y0181759D01*
X0219824Y0182757D02*
X0227230Y0182757D01*
X0228185Y0183756D02*
X0218825Y0183756D01*
X0218334Y0185753D02*
X0228688Y0185753D01*
X0227678Y0186751D02*
X0219332Y0186751D01*
X0220331Y0187750D02*
X0227020Y0187750D01*
X0226606Y0188748D02*
X0220800Y0188748D01*
X0220800Y0189747D02*
X0226500Y0189747D01*
X0226500Y0190745D02*
X0220800Y0190745D01*
X0220800Y0191744D02*
X0226810Y0191744D01*
X0227224Y0192742D02*
X0219839Y0192742D01*
X0218868Y0193741D02*
X0228170Y0193741D01*
X0231500Y0192929D02*
X0231500Y0190000D01*
X0235770Y0182757D02*
X0239421Y0182757D01*
X0239421Y0181759D02*
X0236183Y0181759D01*
X0236500Y0180760D02*
X0239421Y0180760D01*
X0239421Y0179762D02*
X0236500Y0179762D01*
X0236400Y0178763D02*
X0239421Y0178763D01*
X0239421Y0177765D02*
X0235986Y0177765D01*
X0235337Y0176766D02*
X0239421Y0176766D01*
X0239421Y0175768D02*
X0234339Y0175768D01*
X0233594Y0174769D02*
X0239421Y0174769D01*
X0239421Y0173771D02*
X0235083Y0173771D01*
X0235913Y0172772D02*
X0239421Y0172772D01*
X0239421Y0171774D02*
X0236391Y0171774D01*
X0236642Y0170775D02*
X0239421Y0170775D01*
X0239421Y0169777D02*
X0232000Y0169777D01*
X0232000Y0169500D02*
X0236686Y0169500D01*
X0236572Y0168782D01*
X0236319Y0168004D01*
X0235947Y0167275D01*
X0235466Y0166612D01*
X0234888Y0166034D01*
X0234225Y0165553D01*
X0233496Y0165181D01*
X0232718Y0164928D01*
X0232000Y0164814D01*
X0232000Y0169500D01*
X0232000Y0168778D02*
X0231000Y0168778D01*
X0231000Y0169500D02*
X0231000Y0164814D01*
X0230282Y0164928D01*
X0229504Y0165181D01*
X0228775Y0165553D01*
X0228112Y0166034D01*
X0227534Y0166612D01*
X0227053Y0167275D01*
X0226681Y0168004D01*
X0226428Y0168782D01*
X0226314Y0169500D01*
X0231000Y0169500D01*
X0231000Y0169777D02*
X0220800Y0169777D01*
X0220800Y0170775D02*
X0226358Y0170775D01*
X0226609Y0171774D02*
X0220800Y0171774D01*
X0220800Y0171781D02*
X0218281Y0174300D01*
X0214719Y0174300D01*
X0212200Y0171781D01*
X0212200Y0168219D01*
X0214719Y0165700D01*
X0218281Y0165700D01*
X0220800Y0168219D01*
X0220800Y0171781D01*
X0219809Y0172772D02*
X0227087Y0172772D01*
X0227917Y0173771D02*
X0218810Y0173771D01*
X0214651Y0175768D02*
X0208632Y0175768D01*
X0209630Y0176766D02*
X0213653Y0176766D01*
X0212654Y0177765D02*
X0210629Y0177765D01*
X0211000Y0178763D02*
X0212200Y0178763D01*
X0214190Y0173771D02*
X0208810Y0173771D01*
X0209809Y0172772D02*
X0213191Y0172772D01*
X0212200Y0171774D02*
X0210800Y0171774D01*
X0210800Y0170775D02*
X0212200Y0170775D01*
X0212200Y0169777D02*
X0210800Y0169777D01*
X0210800Y0168778D02*
X0212200Y0168778D01*
X0212639Y0167780D02*
X0210361Y0167780D01*
X0209362Y0166781D02*
X0213638Y0166781D01*
X0214636Y0165783D02*
X0208364Y0165783D01*
X0208795Y0163786D02*
X0213922Y0163786D01*
X0214636Y0164500D02*
X0212000Y0161864D01*
X0212000Y0160500D01*
X0216000Y0160500D01*
X0216000Y0164500D01*
X0214636Y0164500D01*
X0216000Y0163786D02*
X0217000Y0163786D01*
X0217000Y0164500D02*
X0217000Y0160500D01*
X0216000Y0160500D01*
X0216000Y0159500D01*
X0212000Y0159500D01*
X0212000Y0158136D01*
X0214636Y0155500D01*
X0216000Y0155500D01*
X0216000Y0159500D01*
X0217000Y0159500D01*
X0217000Y0160500D01*
X0221000Y0160500D01*
X0221000Y0161864D01*
X0218364Y0164500D01*
X0217000Y0164500D01*
X0217000Y0162787D02*
X0216000Y0162787D01*
X0216000Y0161789D02*
X0217000Y0161789D01*
X0217000Y0160790D02*
X0216000Y0160790D01*
X0216500Y0160000D02*
X0210800Y0154300D01*
X0210800Y0148219D01*
X0208281Y0145700D01*
X0209392Y0146811D02*
X0213608Y0146811D01*
X0212609Y0147809D02*
X0210391Y0147809D01*
X0210800Y0148808D02*
X0212200Y0148808D01*
X0212200Y0149806D02*
X0210800Y0149806D01*
X0210800Y0150805D02*
X0212200Y0150805D01*
X0212222Y0151803D02*
X0210778Y0151803D01*
X0209779Y0152802D02*
X0213221Y0152802D01*
X0214219Y0153801D02*
X0208781Y0153801D01*
X0208379Y0155798D02*
X0214338Y0155798D01*
X0213340Y0156796D02*
X0209377Y0156796D01*
X0210376Y0157795D02*
X0212341Y0157795D01*
X0212000Y0158793D02*
X0210800Y0158793D01*
X0210800Y0159792D02*
X0216000Y0159792D01*
X0216000Y0158793D02*
X0217000Y0158793D01*
X0217000Y0159500D02*
X0217000Y0155500D01*
X0218364Y0155500D01*
X0221000Y0158136D01*
X0221000Y0159500D01*
X0217000Y0159500D01*
X0217000Y0159792D02*
X0239421Y0159792D01*
X0239421Y0160790D02*
X0221000Y0160790D01*
X0221000Y0161789D02*
X0239421Y0161789D01*
X0239421Y0162787D02*
X0220077Y0162787D01*
X0219078Y0163786D02*
X0239421Y0163786D01*
X0239421Y0164784D02*
X0165202Y0164784D01*
X0165202Y0163786D02*
X0178854Y0163786D01*
X0177855Y0162787D02*
X0165202Y0162787D01*
X0165202Y0161789D02*
X0177318Y0161789D01*
X0176952Y0160790D02*
X0165202Y0160790D01*
X0165202Y0159792D02*
X0176952Y0159792D01*
X0177077Y0158793D02*
X0165202Y0158793D01*
X0165202Y0157795D02*
X0177491Y0157795D01*
X0178272Y0156796D02*
X0165202Y0156796D01*
X0165202Y0155798D02*
X0179761Y0155798D01*
X0178869Y0153801D02*
X0165202Y0153801D01*
X0165202Y0154799D02*
X0239421Y0154799D01*
X0239421Y0153801D02*
X0218781Y0153801D01*
X0219779Y0152802D02*
X0223292Y0152802D01*
X0222027Y0151803D02*
X0220778Y0151803D01*
X0220800Y0150805D02*
X0221579Y0150805D01*
X0221500Y0149806D02*
X0220800Y0149806D01*
X0220800Y0148808D02*
X0221740Y0148808D01*
X0222383Y0147809D02*
X0220391Y0147809D01*
X0219392Y0146811D02*
X0222383Y0146811D01*
X0222383Y0145812D02*
X0218394Y0145812D01*
X0218766Y0143815D02*
X0222383Y0143815D01*
X0222383Y0142817D02*
X0219764Y0142817D01*
X0220763Y0141818D02*
X0221854Y0141818D01*
X0220855Y0140820D02*
X0220800Y0140820D01*
X0222383Y0144814D02*
X0159922Y0144814D01*
X0158924Y0143815D02*
X0178884Y0143815D01*
X0177885Y0142817D02*
X0157925Y0142817D01*
X0156927Y0141818D02*
X0177330Y0141818D01*
X0176952Y0140820D02*
X0155928Y0140820D01*
X0154930Y0139821D02*
X0176952Y0139821D01*
X0177065Y0138823D02*
X0154504Y0138823D01*
X0154581Y0137824D02*
X0177478Y0137824D01*
X0178242Y0136826D02*
X0154528Y0136826D01*
X0154114Y0135827D02*
X0179689Y0135827D01*
X0178898Y0133830D02*
X0174025Y0133830D01*
X0173999Y0133874D02*
X0173720Y0134153D01*
X0173378Y0134351D01*
X0172997Y0134453D01*
X0170740Y0134453D01*
X0170740Y0130500D01*
X0174299Y0130500D01*
X0174299Y0133150D01*
X0174197Y0133532D01*
X0173999Y0133874D01*
X0174299Y0132832D02*
X0177900Y0132832D01*
X0177337Y0131833D02*
X0174299Y0131833D01*
X0174299Y0130835D02*
X0176952Y0130835D01*
X0170740Y0130835D02*
X0169740Y0130835D01*
X0169740Y0131833D02*
X0170740Y0131833D01*
X0170740Y0132832D02*
X0169740Y0132832D01*
X0169740Y0133830D02*
X0170740Y0133830D01*
X0166456Y0133830D02*
X0166280Y0133830D01*
X0162760Y0130000D02*
X0162760Y0123740D01*
X0171500Y0115000D01*
X0174718Y0118853D02*
X0177052Y0118853D01*
X0176952Y0119851D02*
X0172854Y0119851D01*
X0170146Y0119851D02*
X0169194Y0119851D01*
X0168196Y0120850D02*
X0176952Y0120850D01*
X0177343Y0121848D02*
X0167197Y0121848D01*
X0166199Y0122847D02*
X0177915Y0122847D01*
X0177466Y0117854D02*
X0175717Y0117854D01*
X0176143Y0116856D02*
X0178213Y0116856D01*
X0179617Y0115857D02*
X0176500Y0115857D01*
X0176500Y0114859D02*
X0198247Y0114859D01*
X0199246Y0115857D02*
X0183383Y0115857D01*
X0184787Y0116856D02*
X0199600Y0116856D01*
X0199600Y0117854D02*
X0185534Y0117854D01*
X0185947Y0118853D02*
X0199600Y0118853D01*
X0199600Y0119851D02*
X0186048Y0119851D01*
X0186048Y0120850D02*
X0199600Y0120850D01*
X0199600Y0121848D02*
X0185657Y0121848D01*
X0185085Y0122847D02*
X0199600Y0122847D01*
X0200587Y0123845D02*
X0184087Y0123845D01*
X0184066Y0113860D02*
X0197249Y0113860D01*
X0195353Y0112862D02*
X0185070Y0112862D01*
X0185651Y0111863D02*
X0194003Y0111863D01*
X0193521Y0110865D02*
X0186048Y0110865D01*
X0186048Y0109866D02*
X0193417Y0109866D01*
X0193632Y0108868D02*
X0185954Y0108868D01*
X0185540Y0107869D02*
X0194271Y0107869D01*
X0198729Y0107869D02*
X0202550Y0107869D01*
X0202200Y0108219D02*
X0204719Y0105700D01*
X0208281Y0105700D01*
X0210800Y0108219D01*
X0210800Y0111781D01*
X0208281Y0114300D01*
X0204719Y0114300D01*
X0202200Y0111781D01*
X0202200Y0108219D01*
X0202200Y0108868D02*
X0199368Y0108868D01*
X0199583Y0109866D02*
X0202200Y0109866D01*
X0202200Y0110865D02*
X0200476Y0110865D01*
X0201474Y0111863D02*
X0202282Y0111863D01*
X0202473Y0112862D02*
X0203280Y0112862D01*
X0203471Y0113860D02*
X0204279Y0113860D01*
X0204000Y0114859D02*
X0239421Y0114859D01*
X0239421Y0115857D02*
X0218438Y0115857D01*
X0218281Y0115700D02*
X0220800Y0118219D01*
X0220800Y0121781D01*
X0218281Y0124300D01*
X0214719Y0124300D01*
X0212200Y0121781D01*
X0212200Y0118219D01*
X0214719Y0115700D01*
X0218281Y0115700D01*
X0218281Y0114300D02*
X0214719Y0114300D01*
X0212200Y0111781D01*
X0212200Y0108219D01*
X0214719Y0105700D01*
X0218281Y0105700D01*
X0220800Y0108219D01*
X0220800Y0111781D01*
X0218281Y0114300D01*
X0218721Y0113860D02*
X0239421Y0113860D01*
X0239421Y0112862D02*
X0219720Y0112862D01*
X0220718Y0111863D02*
X0239421Y0111863D01*
X0239421Y0110865D02*
X0220800Y0110865D01*
X0220800Y0109866D02*
X0239421Y0109866D01*
X0239421Y0108868D02*
X0220800Y0108868D01*
X0220450Y0107869D02*
X0239421Y0107869D01*
X0239421Y0106870D02*
X0219452Y0106870D01*
X0218453Y0105872D02*
X0239421Y0105872D01*
X0239421Y0116856D02*
X0219437Y0116856D01*
X0220435Y0117854D02*
X0239421Y0117854D01*
X0239421Y0118853D02*
X0220800Y0118853D01*
X0220800Y0119851D02*
X0239421Y0119851D01*
X0239421Y0120850D02*
X0220800Y0120850D01*
X0220733Y0121848D02*
X0239421Y0121848D01*
X0239421Y0122847D02*
X0219734Y0122847D01*
X0218736Y0123845D02*
X0239421Y0123845D01*
X0239421Y0124844D02*
X0211102Y0124844D01*
X0212100Y0125842D02*
X0214294Y0125842D01*
X0213295Y0126841D02*
X0213099Y0126841D01*
X0216000Y0126841D02*
X0217000Y0126841D01*
X0217000Y0127839D02*
X0216000Y0127839D01*
X0216000Y0128838D02*
X0217000Y0128838D01*
X0217000Y0129836D02*
X0239421Y0129836D01*
X0239421Y0128838D02*
X0221000Y0128838D01*
X0220703Y0127839D02*
X0239421Y0127839D01*
X0239421Y0126841D02*
X0219705Y0126841D01*
X0218706Y0125842D02*
X0239421Y0125842D01*
X0239421Y0130835D02*
X0221000Y0130835D01*
X0221000Y0131833D02*
X0239421Y0131833D01*
X0239421Y0132832D02*
X0220032Y0132832D01*
X0220088Y0133830D02*
X0239421Y0133830D01*
X0239421Y0134829D02*
X0221087Y0134829D01*
X0222085Y0135827D02*
X0239421Y0135827D01*
X0239421Y0136826D02*
X0223084Y0136826D01*
X0224082Y0137824D02*
X0239421Y0137824D01*
X0239421Y0138823D02*
X0225081Y0138823D01*
X0226079Y0139821D02*
X0239421Y0139821D01*
X0239421Y0140820D02*
X0226783Y0140820D01*
X0226783Y0141818D02*
X0239421Y0141818D01*
X0239421Y0142817D02*
X0226783Y0142817D01*
X0226783Y0143815D02*
X0239421Y0143815D01*
X0239421Y0144814D02*
X0226783Y0144814D01*
X0226783Y0145812D02*
X0239421Y0145812D01*
X0239421Y0146811D02*
X0226783Y0146811D01*
X0226783Y0147809D02*
X0239421Y0147809D01*
X0239421Y0148808D02*
X0227426Y0148808D01*
X0227665Y0149806D02*
X0239421Y0149806D01*
X0239421Y0150805D02*
X0227586Y0150805D01*
X0227139Y0151803D02*
X0239421Y0151803D01*
X0239421Y0152802D02*
X0225873Y0152802D01*
X0220659Y0157795D02*
X0239421Y0157795D01*
X0239421Y0158793D02*
X0221000Y0158793D01*
X0219660Y0156796D02*
X0239421Y0156796D01*
X0239421Y0155798D02*
X0218661Y0155798D01*
X0217000Y0155798D02*
X0216000Y0155798D01*
X0216000Y0156796D02*
X0217000Y0156796D01*
X0217000Y0157795D02*
X0216000Y0157795D01*
X0212000Y0160790D02*
X0210800Y0160790D01*
X0210792Y0161789D02*
X0212000Y0161789D01*
X0212923Y0162787D02*
X0209794Y0162787D01*
X0218364Y0165783D02*
X0228458Y0165783D01*
X0227411Y0166781D02*
X0219362Y0166781D01*
X0220361Y0167780D02*
X0226795Y0167780D01*
X0226429Y0168778D02*
X0220800Y0168778D01*
X0231000Y0167780D02*
X0232000Y0167780D01*
X0232000Y0166781D02*
X0231000Y0166781D01*
X0231000Y0165783D02*
X0232000Y0165783D01*
X0234542Y0165783D02*
X0239421Y0165783D01*
X0239421Y0166781D02*
X0235589Y0166781D01*
X0236205Y0167780D02*
X0239421Y0167780D01*
X0239421Y0168778D02*
X0236571Y0168778D01*
X0218033Y0195452D02*
X0179616Y0195452D01*
X0174359Y0200709D01*
X0159965Y0200709D01*
X0158036Y0197637D02*
X0155489Y0197637D01*
X0151500Y0201626D01*
X0151500Y0205000D01*
X0153726Y0202728D02*
X0154728Y0202728D01*
X0154728Y0203726D02*
X0154416Y0203726D01*
X0154681Y0204725D02*
X0154728Y0204725D01*
X0154728Y0205723D02*
X0154644Y0205723D01*
X0154728Y0206722D02*
X0154230Y0206722D01*
X0154728Y0207720D02*
X0153246Y0207720D01*
X0153943Y0201729D02*
X0154728Y0201729D01*
X0151847Y0198734D02*
X0149312Y0198734D01*
X0149583Y0199732D02*
X0150848Y0199732D01*
X0149850Y0200731D02*
X0149534Y0200731D01*
X0149700Y0201729D02*
X0149120Y0201729D01*
X0149274Y0202728D02*
X0147970Y0202728D01*
X0146500Y0200000D02*
X0146500Y0196626D01*
X0155489Y0187637D01*
X0158036Y0187637D01*
X0159965Y0185709D01*
X0159965Y0180709D02*
X0169949Y0180709D01*
X0170500Y0181260D01*
X0174753Y0185753D02*
X0179869Y0185753D01*
X0178317Y0186751D02*
X0174753Y0186751D01*
X0174753Y0187750D02*
X0177509Y0187750D01*
X0181500Y0190000D02*
X0171760Y0190000D01*
X0170500Y0188740D01*
X0166247Y0178763D02*
X0165202Y0178763D01*
X0165202Y0177765D02*
X0166645Y0177765D01*
X0165202Y0172772D02*
X0177840Y0172772D01*
X0177312Y0171774D02*
X0165202Y0171774D01*
X0165202Y0170775D02*
X0176952Y0170775D01*
X0176952Y0169777D02*
X0165202Y0169777D01*
X0165202Y0168778D02*
X0177083Y0168778D01*
X0177497Y0167780D02*
X0165202Y0167780D01*
X0165202Y0166781D02*
X0178287Y0166781D01*
X0179797Y0165783D02*
X0165202Y0165783D01*
X0164605Y0152802D02*
X0177870Y0152802D01*
X0177324Y0151803D02*
X0161765Y0151803D01*
X0161765Y0150805D02*
X0176952Y0150805D01*
X0176952Y0149806D02*
X0161765Y0149806D01*
X0161765Y0148808D02*
X0177071Y0148808D01*
X0177485Y0147809D02*
X0161765Y0147809D01*
X0161765Y0146811D02*
X0178257Y0146811D01*
X0179725Y0145812D02*
X0160921Y0145812D01*
X0158901Y0131833D02*
X0147935Y0131833D01*
X0148211Y0130835D02*
X0158901Y0130835D01*
X0158901Y0129836D02*
X0149209Y0129836D01*
X0150208Y0128838D02*
X0158901Y0128838D01*
X0158901Y0127839D02*
X0151206Y0127839D01*
X0152205Y0126841D02*
X0158901Y0126841D01*
X0159567Y0125842D02*
X0153203Y0125842D01*
X0154202Y0124844D02*
X0160960Y0124844D01*
X0160960Y0123845D02*
X0155200Y0123845D01*
X0156199Y0122847D02*
X0161108Y0122847D01*
X0162106Y0121848D02*
X0157197Y0121848D01*
X0158196Y0120850D02*
X0163105Y0120850D01*
X0162854Y0119851D02*
X0164103Y0119851D01*
X0164718Y0118853D02*
X0165102Y0118853D01*
X0165717Y0117854D02*
X0166100Y0117854D01*
X0166143Y0116856D02*
X0166857Y0116856D01*
X0166500Y0115857D02*
X0166500Y0115857D01*
X0166500Y0114859D02*
X0166500Y0114859D01*
X0166440Y0113860D02*
X0166560Y0113860D01*
X0166974Y0112862D02*
X0166026Y0112862D01*
X0165434Y0111863D02*
X0167566Y0111863D01*
X0168564Y0110865D02*
X0164436Y0110865D01*
X0160146Y0119851D02*
X0159194Y0119851D01*
X0165952Y0125842D02*
X0166768Y0125842D01*
X0169740Y0125842D02*
X0170740Y0125842D01*
X0170740Y0126841D02*
X0169740Y0126841D01*
X0169740Y0127839D02*
X0170740Y0127839D01*
X0170740Y0128838D02*
X0169740Y0128838D01*
X0176440Y0113860D02*
X0178934Y0113860D01*
X0177930Y0112862D02*
X0176026Y0112862D01*
X0175434Y0111863D02*
X0177349Y0111863D01*
X0176952Y0110865D02*
X0174436Y0110865D01*
X0183419Y0105872D02*
X0204547Y0105872D01*
X0204636Y0104500D02*
X0202000Y0101864D01*
X0202000Y0100500D01*
X0206000Y0100500D01*
X0206000Y0104500D01*
X0204636Y0104500D01*
X0204011Y0103875D02*
X0184030Y0103875D01*
X0185055Y0102876D02*
X0203012Y0102876D01*
X0202014Y0101878D02*
X0185645Y0101878D01*
X0186048Y0100879D02*
X0202000Y0100879D01*
X0202000Y0099500D02*
X0202000Y0098136D01*
X0204636Y0095500D01*
X0206000Y0095500D01*
X0206000Y0099500D01*
X0202000Y0099500D01*
X0202000Y0098882D02*
X0185960Y0098882D01*
X0186048Y0099881D02*
X0206000Y0099881D01*
X0206000Y0099500D02*
X0206000Y0100500D01*
X0207000Y0100500D01*
X0207000Y0104500D01*
X0208364Y0104500D01*
X0211000Y0101864D01*
X0211000Y0100500D01*
X0207000Y0100500D01*
X0207000Y0099500D01*
X0211000Y0099500D01*
X0211000Y0098136D01*
X0208364Y0095500D01*
X0207000Y0095500D01*
X0207000Y0099500D01*
X0206000Y0099500D01*
X0206000Y0098882D02*
X0207000Y0098882D01*
X0207000Y0097884D02*
X0206000Y0097884D01*
X0206000Y0096885D02*
X0207000Y0096885D01*
X0207000Y0095887D02*
X0206000Y0095887D01*
X0204249Y0095887D02*
X0183455Y0095887D01*
X0184817Y0096885D02*
X0203251Y0096885D01*
X0202252Y0097884D02*
X0185546Y0097884D01*
X0184076Y0093856D02*
X0182405Y0094548D01*
X0180595Y0094548D01*
X0178924Y0093856D01*
X0177644Y0092576D01*
X0176952Y0090905D01*
X0176952Y0089095D01*
X0177644Y0087424D01*
X0178924Y0086144D01*
X0180595Y0085452D01*
X0182405Y0085452D01*
X0184076Y0086144D01*
X0185356Y0087424D01*
X0186048Y0089095D01*
X0186048Y0090905D01*
X0185356Y0092576D01*
X0184076Y0093856D01*
X0183994Y0093890D02*
X0204309Y0093890D01*
X0204719Y0094300D02*
X0202200Y0091781D01*
X0202200Y0088219D01*
X0204719Y0085700D01*
X0208281Y0085700D01*
X0210800Y0088219D01*
X0210800Y0091781D01*
X0208281Y0094300D01*
X0204719Y0094300D01*
X0203310Y0092891D02*
X0185041Y0092891D01*
X0185639Y0091893D02*
X0202312Y0091893D01*
X0202200Y0090894D02*
X0186048Y0090894D01*
X0186048Y0089896D02*
X0202200Y0089896D01*
X0202200Y0088897D02*
X0185966Y0088897D01*
X0185552Y0087899D02*
X0202520Y0087899D01*
X0203519Y0086900D02*
X0184832Y0086900D01*
X0183491Y0085902D02*
X0204517Y0085902D01*
X0204719Y0084300D02*
X0202200Y0081781D01*
X0202200Y0078219D01*
X0204719Y0075700D01*
X0208281Y0075700D01*
X0210800Y0078219D01*
X0210800Y0081781D01*
X0208281Y0084300D01*
X0204719Y0084300D01*
X0204324Y0083905D02*
X0183958Y0083905D01*
X0184076Y0083856D02*
X0182405Y0084548D01*
X0180595Y0084548D01*
X0178924Y0083856D01*
X0177644Y0082576D01*
X0176952Y0080905D01*
X0176952Y0079095D01*
X0177644Y0077424D01*
X0178924Y0076144D01*
X0180595Y0075452D01*
X0182405Y0075452D01*
X0184076Y0076144D01*
X0185356Y0077424D01*
X0186048Y0079095D01*
X0186048Y0080905D01*
X0185356Y0082576D01*
X0184076Y0083856D01*
X0185026Y0082906D02*
X0203325Y0082906D01*
X0202327Y0081908D02*
X0185633Y0081908D01*
X0186046Y0080909D02*
X0202200Y0080909D01*
X0202200Y0079911D02*
X0186048Y0079911D01*
X0185972Y0078912D02*
X0202200Y0078912D01*
X0202505Y0077914D02*
X0185559Y0077914D01*
X0184847Y0076915D02*
X0203504Y0076915D01*
X0204502Y0075917D02*
X0183526Y0075917D01*
X0182405Y0074548D02*
X0180595Y0074548D01*
X0178924Y0073856D01*
X0177644Y0072576D01*
X0176952Y0070905D01*
X0176952Y0069095D01*
X0177644Y0067424D01*
X0178924Y0066144D01*
X0180595Y0065452D01*
X0182405Y0065452D01*
X0184076Y0066144D01*
X0185356Y0067424D01*
X0186048Y0069095D01*
X0186048Y0070905D01*
X0185356Y0072576D01*
X0184076Y0073856D01*
X0182405Y0074548D01*
X0183922Y0073920D02*
X0204339Y0073920D01*
X0204719Y0074300D02*
X0202200Y0071781D01*
X0202200Y0068219D01*
X0204719Y0065700D01*
X0208281Y0065700D01*
X0210800Y0068219D01*
X0210800Y0071781D01*
X0208281Y0074300D01*
X0204719Y0074300D01*
X0203340Y0072921D02*
X0185011Y0072921D01*
X0185626Y0071923D02*
X0202341Y0071923D01*
X0202200Y0070924D02*
X0186040Y0070924D01*
X0186048Y0069926D02*
X0202200Y0069926D01*
X0202200Y0068927D02*
X0185978Y0068927D01*
X0185565Y0067929D02*
X0202490Y0067929D01*
X0203489Y0066930D02*
X0184862Y0066930D01*
X0183562Y0065932D02*
X0204487Y0065932D01*
X0204719Y0064300D02*
X0202200Y0061781D01*
X0202200Y0058219D01*
X0204719Y0055700D01*
X0208281Y0055700D01*
X0210800Y0058219D01*
X0210800Y0061781D01*
X0208281Y0064300D01*
X0204719Y0064300D01*
X0204353Y0063934D02*
X0183886Y0063934D01*
X0184076Y0063856D02*
X0182405Y0064548D01*
X0180595Y0064548D01*
X0178924Y0063856D01*
X0177644Y0062576D01*
X0176952Y0060905D01*
X0176952Y0059095D01*
X0177644Y0057424D01*
X0178924Y0056144D01*
X0180595Y0055452D01*
X0182405Y0055452D01*
X0184076Y0056144D01*
X0185356Y0057424D01*
X0186048Y0059095D01*
X0186048Y0060905D01*
X0185356Y0062576D01*
X0184076Y0063856D01*
X0184996Y0062936D02*
X0203355Y0062936D01*
X0202356Y0061937D02*
X0185620Y0061937D01*
X0186034Y0060939D02*
X0202200Y0060939D01*
X0202200Y0059940D02*
X0186048Y0059940D01*
X0185984Y0058942D02*
X0202200Y0058942D01*
X0202475Y0057943D02*
X0185571Y0057943D01*
X0184877Y0056945D02*
X0203474Y0056945D01*
X0204472Y0055946D02*
X0183598Y0055946D01*
X0182405Y0054548D02*
X0180595Y0054548D01*
X0178924Y0053856D01*
X0177644Y0052576D01*
X0176952Y0050905D01*
X0176952Y0049095D01*
X0177644Y0047424D01*
X0178924Y0046144D01*
X0180595Y0045452D01*
X0182405Y0045452D01*
X0184076Y0046144D01*
X0185356Y0047424D01*
X0186048Y0049095D01*
X0186048Y0050905D01*
X0185356Y0052576D01*
X0184076Y0053856D01*
X0182405Y0054548D01*
X0183850Y0053949D02*
X0204368Y0053949D01*
X0204719Y0054300D02*
X0202200Y0051781D01*
X0202200Y0048219D01*
X0204719Y0045700D01*
X0208281Y0045700D01*
X0210800Y0048219D01*
X0210800Y0051781D01*
X0208281Y0054300D01*
X0204719Y0054300D01*
X0203370Y0052951D02*
X0184981Y0052951D01*
X0185614Y0051952D02*
X0202371Y0051952D01*
X0202200Y0050954D02*
X0186028Y0050954D01*
X0186048Y0049955D02*
X0202200Y0049955D01*
X0202200Y0048957D02*
X0185991Y0048957D01*
X0185577Y0047958D02*
X0202461Y0047958D01*
X0203459Y0046960D02*
X0184892Y0046960D01*
X0183634Y0045961D02*
X0204458Y0045961D01*
X0204719Y0044300D02*
X0202200Y0041781D01*
X0202200Y0038219D01*
X0204719Y0035700D01*
X0208281Y0035700D01*
X0210800Y0038219D01*
X0210800Y0041781D01*
X0208281Y0044300D01*
X0204719Y0044300D01*
X0204383Y0043964D02*
X0183814Y0043964D01*
X0184076Y0043856D02*
X0182405Y0044548D01*
X0180595Y0044548D01*
X0178924Y0043856D01*
X0177644Y0042576D01*
X0176952Y0040905D01*
X0176952Y0039095D01*
X0177644Y0037424D01*
X0178924Y0036144D01*
X0180595Y0035452D01*
X0182405Y0035452D01*
X0184076Y0036144D01*
X0185356Y0037424D01*
X0186048Y0039095D01*
X0186048Y0040905D01*
X0185356Y0042576D01*
X0184076Y0043856D01*
X0184966Y0042966D02*
X0203385Y0042966D01*
X0202386Y0041967D02*
X0185608Y0041967D01*
X0186021Y0040969D02*
X0202200Y0040969D01*
X0202200Y0039970D02*
X0186048Y0039970D01*
X0185997Y0038972D02*
X0202200Y0038972D01*
X0202446Y0037973D02*
X0185583Y0037973D01*
X0184907Y0036975D02*
X0203444Y0036975D01*
X0204443Y0035976D02*
X0183670Y0035976D01*
X0185287Y0034548D02*
X0186048Y0033787D01*
X0186048Y0026213D01*
X0185287Y0025452D01*
X0177713Y0025452D01*
X0176952Y0026213D01*
X0176952Y0033787D01*
X0177713Y0034548D01*
X0185287Y0034548D01*
X0185855Y0033979D02*
X0204115Y0033979D01*
X0204636Y0034500D02*
X0202000Y0031864D01*
X0202000Y0030500D01*
X0206000Y0030500D01*
X0206000Y0034500D01*
X0204636Y0034500D01*
X0206000Y0033979D02*
X0207000Y0033979D01*
X0207000Y0034500D02*
X0207000Y0030500D01*
X0206000Y0030500D01*
X0206000Y0029500D01*
X0202000Y0029500D01*
X0202000Y0028136D01*
X0204636Y0025500D01*
X0206000Y0025500D01*
X0206000Y0029500D01*
X0207000Y0029500D01*
X0207000Y0030500D01*
X0211000Y0030500D01*
X0211000Y0031864D01*
X0208364Y0034500D01*
X0207000Y0034500D01*
X0207000Y0032981D02*
X0206000Y0032981D01*
X0206000Y0031982D02*
X0207000Y0031982D01*
X0207000Y0030984D02*
X0206000Y0030984D01*
X0206000Y0029985D02*
X0186048Y0029985D01*
X0186048Y0028987D02*
X0202000Y0028987D01*
X0202148Y0027988D02*
X0186048Y0027988D01*
X0186048Y0026990D02*
X0203146Y0026990D01*
X0204145Y0025991D02*
X0185826Y0025991D01*
X0186048Y0030984D02*
X0202000Y0030984D01*
X0202118Y0031982D02*
X0186048Y0031982D01*
X0186048Y0032981D02*
X0203117Y0032981D01*
X0201952Y0034548D02*
X0201952Y0095452D01*
X0206500Y0100000D01*
X0207000Y0099881D02*
X0212200Y0099881D01*
X0212200Y0100879D02*
X0211000Y0100879D01*
X0210986Y0101878D02*
X0212297Y0101878D01*
X0213295Y0102876D02*
X0209987Y0102876D01*
X0208989Y0103875D02*
X0214294Y0103875D01*
X0214547Y0105872D02*
X0208453Y0105872D01*
X0209452Y0106870D02*
X0213548Y0106870D01*
X0212550Y0107869D02*
X0210450Y0107869D01*
X0210800Y0108868D02*
X0212200Y0108868D01*
X0212200Y0109866D02*
X0210800Y0109866D01*
X0210800Y0110865D02*
X0212200Y0110865D01*
X0212282Y0111863D02*
X0210718Y0111863D01*
X0209720Y0112862D02*
X0213280Y0112862D01*
X0214279Y0113860D02*
X0208721Y0113860D01*
X0208438Y0115857D02*
X0214562Y0115857D01*
X0213563Y0116856D02*
X0209437Y0116856D01*
X0210435Y0117854D02*
X0212565Y0117854D01*
X0212200Y0118853D02*
X0210800Y0118853D01*
X0210800Y0119851D02*
X0212200Y0119851D01*
X0212200Y0120850D02*
X0210800Y0120850D01*
X0210733Y0121848D02*
X0212267Y0121848D01*
X0213266Y0122847D02*
X0209734Y0122847D01*
X0210103Y0123845D02*
X0214264Y0123845D01*
X0216000Y0125842D02*
X0217000Y0125842D01*
X0204562Y0115857D02*
X0204000Y0115857D01*
X0203548Y0106870D02*
X0184802Y0106870D01*
X0179006Y0093890D02*
X0133782Y0093890D01*
X0134780Y0092891D02*
X0177959Y0092891D01*
X0177361Y0091893D02*
X0135779Y0091893D01*
X0127071Y0084903D02*
X0126150Y0084903D01*
X0126150Y0083905D02*
X0128069Y0083905D01*
X0129068Y0082906D02*
X0122000Y0082906D01*
X0126150Y0081908D02*
X0130066Y0081908D01*
X0130515Y0080909D02*
X0126150Y0080909D01*
X0126150Y0079911D02*
X0130515Y0079911D01*
X0131143Y0078912D02*
X0126150Y0078912D01*
X0127521Y0077914D02*
X0133155Y0077914D01*
X0133155Y0076915D02*
X0128944Y0076915D01*
X0129457Y0075917D02*
X0133155Y0075917D01*
X0133155Y0074918D02*
X0129583Y0074918D01*
X0129389Y0073920D02*
X0133155Y0073920D01*
X0133155Y0072921D02*
X0128781Y0072921D01*
X0127126Y0071923D02*
X0133152Y0071923D01*
X0132153Y0070924D02*
X0060800Y0070924D01*
X0060800Y0069926D02*
X0131155Y0069926D01*
X0130156Y0068927D02*
X0060800Y0068927D01*
X0060800Y0067929D02*
X0129158Y0067929D01*
X0128327Y0066930D02*
X0060800Y0066930D01*
X0060800Y0065932D02*
X0127913Y0065932D01*
X0127601Y0064933D02*
X0060800Y0064933D01*
X0060800Y0063934D02*
X0127586Y0063934D01*
X0126587Y0062936D02*
X0060800Y0062936D01*
X0060800Y0061937D02*
X0125589Y0061937D01*
X0124590Y0060939D02*
X0060800Y0060939D01*
X0060706Y0059940D02*
X0123592Y0059940D01*
X0122593Y0058942D02*
X0060200Y0058942D01*
X0059202Y0057943D02*
X0121595Y0057943D01*
X0120596Y0056945D02*
X0058203Y0056945D01*
X0057204Y0055946D02*
X0119598Y0055946D01*
X0118599Y0054948D02*
X0056206Y0054948D01*
X0055207Y0053949D02*
X0117601Y0053949D01*
X0116715Y0052951D02*
X0054209Y0052951D01*
X0053210Y0051952D02*
X0076300Y0051952D01*
X0075301Y0050954D02*
X0052800Y0050954D01*
X0052800Y0049955D02*
X0074303Y0049955D01*
X0073304Y0048957D02*
X0052800Y0048957D01*
X0053393Y0047958D02*
X0072306Y0047958D01*
X0071307Y0046960D02*
X0054138Y0046960D01*
X0054400Y0045961D02*
X0070309Y0045961D01*
X0069310Y0044963D02*
X0054400Y0044963D01*
X0054400Y0043964D02*
X0068311Y0043964D01*
X0067313Y0042966D02*
X0054400Y0042966D01*
X0054926Y0041967D02*
X0066314Y0041967D01*
X0065316Y0040969D02*
X0055738Y0040969D01*
X0056151Y0039970D02*
X0064317Y0039970D01*
X0063319Y0038972D02*
X0056343Y0038972D01*
X0056343Y0037973D02*
X0062320Y0037973D01*
X0061322Y0036975D02*
X0056343Y0036975D01*
X0056343Y0035976D02*
X0060323Y0035976D01*
X0059325Y0034978D02*
X0056343Y0034978D01*
X0056343Y0033979D02*
X0058326Y0033979D01*
X0057328Y0032981D02*
X0056343Y0032981D01*
X0060538Y0027988D02*
X0116921Y0027988D01*
X0116508Y0028987D02*
X0061536Y0028987D01*
X0062535Y0029985D02*
X0116500Y0029985D01*
X0116500Y0030984D02*
X0063533Y0030984D01*
X0064532Y0031982D02*
X0116909Y0031982D01*
X0117410Y0032981D02*
X0065530Y0032981D01*
X0066529Y0033979D02*
X0118408Y0033979D01*
X0119122Y0034978D02*
X0067527Y0034978D01*
X0068526Y0035976D02*
X0117675Y0035976D01*
X0116746Y0036975D02*
X0069524Y0036975D01*
X0070523Y0037973D02*
X0116332Y0037973D01*
X0115950Y0038972D02*
X0071521Y0038972D01*
X0072520Y0039970D02*
X0115950Y0039970D01*
X0115950Y0040969D02*
X0073518Y0040969D01*
X0074517Y0041967D02*
X0116308Y0041967D01*
X0116721Y0042966D02*
X0075515Y0042966D01*
X0076514Y0043964D02*
X0117615Y0043964D01*
X0118978Y0044963D02*
X0077512Y0044963D01*
X0078511Y0045961D02*
X0117690Y0045961D01*
X0116752Y0046960D02*
X0079509Y0046960D01*
X0059539Y0026990D02*
X0117439Y0026990D01*
X0118438Y0025991D02*
X0058541Y0025991D01*
X0057542Y0024993D02*
X0145398Y0024993D01*
X0145909Y0024925D02*
X0144738Y0025079D01*
X0143597Y0025385D01*
X0142506Y0025837D01*
X0141483Y0026428D01*
X0140545Y0027147D01*
X0139710Y0027982D01*
X0138991Y0028920D01*
X0138400Y0029943D01*
X0137948Y0031034D01*
X0137642Y0032175D01*
X0137488Y0033346D01*
X0137488Y0033437D01*
X0146000Y0033437D01*
X0147000Y0033437D01*
X0147000Y0034437D01*
X0155512Y0034437D01*
X0155512Y0034528D01*
X0155358Y0035699D01*
X0155052Y0036840D01*
X0154600Y0037931D01*
X0154009Y0038954D01*
X0153290Y0039892D01*
X0152455Y0040727D01*
X0151517Y0041446D01*
X0150494Y0042037D01*
X0149403Y0042489D01*
X0148262Y0042795D01*
X0147091Y0042949D01*
X0147000Y0042949D01*
X0147000Y0034437D01*
X0146000Y0034437D01*
X0146000Y0033437D01*
X0146000Y0024925D01*
X0145909Y0024925D01*
X0146000Y0024993D02*
X0147000Y0024993D01*
X0147000Y0024925D02*
X0147091Y0024925D01*
X0148262Y0025079D01*
X0149403Y0025385D01*
X0150494Y0025837D01*
X0151517Y0026428D01*
X0152455Y0027147D01*
X0153290Y0027982D01*
X0154009Y0028920D01*
X0154600Y0029943D01*
X0155052Y0031034D01*
X0155358Y0032175D01*
X0155512Y0033346D01*
X0155512Y0033437D01*
X0147000Y0033437D01*
X0147000Y0024925D01*
X0147602Y0024993D02*
X0225327Y0024993D01*
X0224798Y0025522D02*
X0227022Y0023298D01*
X0229927Y0022095D01*
X0233073Y0022095D01*
X0235978Y0023298D01*
X0238202Y0025522D01*
X0239405Y0028427D01*
X0239405Y0031573D01*
X0238202Y0034478D01*
X0235978Y0036702D01*
X0233073Y0037905D01*
X0229927Y0037905D01*
X0227022Y0036702D01*
X0224798Y0034478D01*
X0223595Y0031573D01*
X0223595Y0028427D01*
X0224798Y0025522D01*
X0224604Y0025991D02*
X0218572Y0025991D01*
X0218281Y0025700D02*
X0220800Y0028219D01*
X0220800Y0031781D01*
X0218281Y0034300D01*
X0214719Y0034300D01*
X0212200Y0031781D01*
X0212200Y0028219D01*
X0214719Y0025700D01*
X0218281Y0025700D01*
X0219571Y0026990D02*
X0224190Y0026990D01*
X0223777Y0027988D02*
X0220569Y0027988D01*
X0220800Y0028987D02*
X0223595Y0028987D01*
X0223595Y0029985D02*
X0220800Y0029985D01*
X0220800Y0030984D02*
X0223595Y0030984D01*
X0223764Y0031982D02*
X0220599Y0031982D01*
X0219600Y0032981D02*
X0224178Y0032981D01*
X0224591Y0033979D02*
X0218602Y0033979D01*
X0218281Y0035700D02*
X0214719Y0035700D01*
X0212200Y0038219D01*
X0212200Y0041781D01*
X0214719Y0044300D01*
X0218281Y0044300D01*
X0220800Y0041781D01*
X0220800Y0038219D01*
X0218281Y0035700D01*
X0218557Y0035976D02*
X0226296Y0035976D01*
X0225298Y0034978D02*
X0155453Y0034978D01*
X0155283Y0035976D02*
X0179330Y0035976D01*
X0178093Y0036975D02*
X0154996Y0036975D01*
X0154576Y0037973D02*
X0177417Y0037973D01*
X0177003Y0038972D02*
X0168263Y0038972D01*
X0167150Y0038511D02*
X0170389Y0039853D01*
X0172868Y0042331D01*
X0174209Y0045570D01*
X0174209Y0049076D01*
X0172868Y0052314D01*
X0170389Y0054793D01*
X0167150Y0056135D01*
X0163645Y0056135D01*
X0160406Y0054793D01*
X0157927Y0052314D01*
X0156586Y0049076D01*
X0156586Y0045570D01*
X0157927Y0042331D01*
X0160406Y0039853D01*
X0163645Y0038511D01*
X0167150Y0038511D01*
X0170507Y0039970D02*
X0176952Y0039970D01*
X0176979Y0040969D02*
X0171505Y0040969D01*
X0172504Y0041967D02*
X0177392Y0041967D01*
X0178034Y0042966D02*
X0173131Y0042966D01*
X0173544Y0043964D02*
X0179186Y0043964D01*
X0179366Y0045961D02*
X0174209Y0045961D01*
X0174209Y0046960D02*
X0178108Y0046960D01*
X0177423Y0047958D02*
X0174209Y0047958D01*
X0174209Y0048957D02*
X0177009Y0048957D01*
X0176952Y0049955D02*
X0173845Y0049955D01*
X0173431Y0050954D02*
X0176972Y0050954D01*
X0177386Y0051952D02*
X0173018Y0051952D01*
X0172231Y0052951D02*
X0178019Y0052951D01*
X0179150Y0053949D02*
X0171233Y0053949D01*
X0170015Y0054948D02*
X0239421Y0054948D01*
X0239421Y0055946D02*
X0218810Y0055946D01*
X0218364Y0055500D02*
X0221000Y0058136D01*
X0221000Y0059500D01*
X0217000Y0059500D01*
X0217000Y0060500D01*
X0216000Y0060500D01*
X0216000Y0064500D01*
X0214636Y0064500D01*
X0212000Y0061864D01*
X0212000Y0060500D01*
X0216000Y0060500D01*
X0216000Y0059500D01*
X0212000Y0059500D01*
X0212000Y0058136D01*
X0214636Y0055500D01*
X0216000Y0055500D01*
X0216000Y0059500D01*
X0217000Y0059500D01*
X0217000Y0055500D01*
X0218364Y0055500D01*
X0218281Y0054300D02*
X0214719Y0054300D01*
X0212200Y0051781D01*
X0212200Y0048219D01*
X0214719Y0045700D01*
X0218281Y0045700D01*
X0220800Y0048219D01*
X0220800Y0051781D01*
X0218281Y0054300D01*
X0218632Y0053949D02*
X0239421Y0053949D01*
X0239421Y0052951D02*
X0219630Y0052951D01*
X0220629Y0051952D02*
X0239421Y0051952D01*
X0239421Y0050954D02*
X0220800Y0050954D01*
X0220800Y0049955D02*
X0239421Y0049955D01*
X0239421Y0048957D02*
X0220800Y0048957D01*
X0220539Y0047958D02*
X0239421Y0047958D01*
X0239421Y0046960D02*
X0219541Y0046960D01*
X0218542Y0045961D02*
X0239421Y0045961D01*
X0239421Y0044963D02*
X0173958Y0044963D01*
X0177713Y0034548D02*
X0177102Y0033937D01*
X0146500Y0033937D01*
X0147000Y0033979D02*
X0177145Y0033979D01*
X0177713Y0034548D02*
X0201952Y0034548D01*
X0206500Y0030000D01*
X0207000Y0029985D02*
X0212200Y0029985D01*
X0212200Y0028987D02*
X0211000Y0028987D01*
X0211000Y0029500D02*
X0207000Y0029500D01*
X0207000Y0025500D01*
X0208364Y0025500D01*
X0211000Y0028136D01*
X0211000Y0029500D01*
X0211000Y0030984D02*
X0212200Y0030984D01*
X0212401Y0031982D02*
X0210882Y0031982D01*
X0209883Y0032981D02*
X0213400Y0032981D01*
X0214398Y0033979D02*
X0208885Y0033979D01*
X0208557Y0035976D02*
X0214443Y0035976D01*
X0213444Y0036975D02*
X0209556Y0036975D01*
X0210554Y0037973D02*
X0212446Y0037973D01*
X0212200Y0038972D02*
X0210800Y0038972D01*
X0210800Y0039970D02*
X0212200Y0039970D01*
X0212200Y0040969D02*
X0210800Y0040969D01*
X0210614Y0041967D02*
X0212386Y0041967D01*
X0213385Y0042966D02*
X0209615Y0042966D01*
X0208617Y0043964D02*
X0214383Y0043964D01*
X0214458Y0045961D02*
X0208542Y0045961D01*
X0209541Y0046960D02*
X0213459Y0046960D01*
X0212461Y0047958D02*
X0210539Y0047958D01*
X0210800Y0048957D02*
X0212200Y0048957D01*
X0212200Y0049955D02*
X0210800Y0049955D01*
X0210800Y0050954D02*
X0212200Y0050954D01*
X0212371Y0051952D02*
X0210629Y0051952D01*
X0209630Y0052951D02*
X0213370Y0052951D01*
X0214368Y0053949D02*
X0208632Y0053949D01*
X0208528Y0055946D02*
X0214190Y0055946D01*
X0213191Y0056945D02*
X0209526Y0056945D01*
X0210525Y0057943D02*
X0212193Y0057943D01*
X0212000Y0058942D02*
X0210800Y0058942D01*
X0210800Y0059940D02*
X0216000Y0059940D01*
X0216000Y0058942D02*
X0217000Y0058942D01*
X0217000Y0059940D02*
X0239421Y0059940D01*
X0239421Y0058942D02*
X0221000Y0058942D01*
X0220807Y0057943D02*
X0239421Y0057943D01*
X0239421Y0056945D02*
X0219809Y0056945D01*
X0217000Y0056945D02*
X0216000Y0056945D01*
X0216000Y0057943D02*
X0217000Y0057943D01*
X0217000Y0055946D02*
X0216000Y0055946D01*
X0217000Y0060500D02*
X0221000Y0060500D01*
X0221000Y0061864D01*
X0218364Y0064500D01*
X0217000Y0064500D01*
X0217000Y0060500D01*
X0217000Y0060939D02*
X0216000Y0060939D01*
X0216000Y0061937D02*
X0217000Y0061937D01*
X0217000Y0062936D02*
X0216000Y0062936D01*
X0216000Y0063934D02*
X0217000Y0063934D01*
X0218929Y0063934D02*
X0239421Y0063934D01*
X0239421Y0062936D02*
X0219928Y0062936D01*
X0220926Y0061937D02*
X0239421Y0061937D01*
X0239421Y0060939D02*
X0221000Y0060939D01*
X0218281Y0065700D02*
X0214719Y0065700D01*
X0212200Y0068219D01*
X0212200Y0071781D01*
X0214719Y0074300D01*
X0218281Y0074300D01*
X0220800Y0071781D01*
X0220800Y0068219D01*
X0218281Y0065700D01*
X0218513Y0065932D02*
X0239421Y0065932D01*
X0239421Y0066930D02*
X0219511Y0066930D01*
X0220510Y0067929D02*
X0239421Y0067929D01*
X0239421Y0068927D02*
X0220800Y0068927D01*
X0220800Y0069926D02*
X0239421Y0069926D01*
X0239421Y0070924D02*
X0220800Y0070924D01*
X0220659Y0071923D02*
X0239421Y0071923D01*
X0239421Y0072921D02*
X0219660Y0072921D01*
X0218661Y0073920D02*
X0239421Y0073920D01*
X0239421Y0074918D02*
X0144255Y0074918D01*
X0144255Y0073920D02*
X0179078Y0073920D01*
X0177989Y0072921D02*
X0144255Y0072921D01*
X0144255Y0071923D02*
X0177374Y0071923D01*
X0176960Y0070924D02*
X0144255Y0070924D01*
X0144255Y0069926D02*
X0176952Y0069926D01*
X0177022Y0068927D02*
X0144255Y0068927D01*
X0144074Y0067929D02*
X0144009Y0067929D01*
X0148926Y0067929D02*
X0177435Y0067929D01*
X0178138Y0066930D02*
X0151337Y0066930D01*
X0152687Y0065932D02*
X0179438Y0065932D01*
X0179114Y0063934D02*
X0154657Y0063934D01*
X0155071Y0062936D02*
X0178004Y0062936D01*
X0177380Y0061937D02*
X0155484Y0061937D01*
X0155898Y0060939D02*
X0176966Y0060939D01*
X0176952Y0059940D02*
X0156099Y0059940D01*
X0156099Y0058942D02*
X0177016Y0058942D01*
X0177429Y0057943D02*
X0156099Y0057943D01*
X0156099Y0056945D02*
X0178123Y0056945D01*
X0179402Y0055946D02*
X0167605Y0055946D01*
X0163190Y0055946D02*
X0155814Y0055946D01*
X0155401Y0054948D02*
X0160780Y0054948D01*
X0159562Y0053949D02*
X0154987Y0053949D01*
X0154483Y0052951D02*
X0158564Y0052951D01*
X0157777Y0051952D02*
X0153484Y0051952D01*
X0152486Y0050954D02*
X0157364Y0050954D01*
X0156950Y0049955D02*
X0150851Y0049955D01*
X0148440Y0048957D02*
X0156586Y0048957D01*
X0156586Y0047958D02*
X0143764Y0047958D01*
X0142765Y0046960D02*
X0156586Y0046960D01*
X0156586Y0045961D02*
X0141767Y0045961D01*
X0140768Y0044963D02*
X0156837Y0044963D01*
X0157251Y0043964D02*
X0139770Y0043964D01*
X0138771Y0042966D02*
X0157665Y0042966D01*
X0158291Y0041967D02*
X0150615Y0041967D01*
X0152140Y0040969D02*
X0159290Y0040969D01*
X0160288Y0039970D02*
X0153211Y0039970D01*
X0153996Y0038972D02*
X0162533Y0038972D01*
X0155464Y0032981D02*
X0176952Y0032981D01*
X0176952Y0031982D02*
X0155306Y0031982D01*
X0155031Y0030984D02*
X0176952Y0030984D01*
X0176952Y0029985D02*
X0154617Y0029985D01*
X0154048Y0028987D02*
X0176952Y0028987D01*
X0176952Y0027988D02*
X0153294Y0027988D01*
X0152249Y0026990D02*
X0176952Y0026990D01*
X0177174Y0025991D02*
X0150761Y0025991D01*
X0147000Y0025991D02*
X0146000Y0025991D01*
X0146000Y0026990D02*
X0147000Y0026990D01*
X0147000Y0027988D02*
X0146000Y0027988D01*
X0146000Y0028987D02*
X0147000Y0028987D01*
X0147000Y0029985D02*
X0146000Y0029985D01*
X0146000Y0030984D02*
X0147000Y0030984D01*
X0147000Y0031982D02*
X0146000Y0031982D01*
X0146000Y0032981D02*
X0147000Y0032981D01*
X0146000Y0033979D02*
X0124592Y0033979D01*
X0125590Y0032981D02*
X0137536Y0032981D01*
X0137694Y0031982D02*
X0126091Y0031982D01*
X0126500Y0030984D02*
X0137969Y0030984D01*
X0138383Y0029985D02*
X0126500Y0029985D01*
X0126492Y0028987D02*
X0138952Y0028987D01*
X0139706Y0027988D02*
X0126079Y0027988D01*
X0125561Y0026990D02*
X0140751Y0026990D01*
X0142239Y0025991D02*
X0124562Y0025991D01*
X0130335Y0034978D02*
X0137547Y0034978D01*
X0137488Y0034528D02*
X0137488Y0034437D01*
X0146000Y0034437D01*
X0146000Y0042949D01*
X0145909Y0042949D01*
X0144738Y0042795D01*
X0143597Y0042489D01*
X0142506Y0042037D01*
X0141483Y0041446D01*
X0140545Y0040727D01*
X0139710Y0039892D01*
X0138991Y0038954D01*
X0138400Y0037931D01*
X0137948Y0036840D01*
X0137642Y0035699D01*
X0137488Y0034528D01*
X0137717Y0035976D02*
X0131782Y0035976D01*
X0132780Y0036975D02*
X0138004Y0036975D01*
X0138424Y0037973D02*
X0133779Y0037973D01*
X0134777Y0038972D02*
X0139004Y0038972D01*
X0139789Y0039970D02*
X0135776Y0039970D01*
X0136774Y0040969D02*
X0140860Y0040969D01*
X0142385Y0041967D02*
X0137773Y0041967D01*
X0146000Y0041967D02*
X0147000Y0041967D01*
X0147000Y0040969D02*
X0146000Y0040969D01*
X0146000Y0039970D02*
X0147000Y0039970D01*
X0147000Y0038972D02*
X0146000Y0038972D01*
X0146000Y0037973D02*
X0147000Y0037973D01*
X0147000Y0036975D02*
X0146000Y0036975D01*
X0146000Y0035976D02*
X0147000Y0035976D01*
X0147000Y0034978D02*
X0146000Y0034978D01*
X0153686Y0064933D02*
X0239421Y0064933D01*
X0239421Y0075917D02*
X0218781Y0075917D01*
X0218364Y0075500D02*
X0221000Y0078136D01*
X0221000Y0079500D01*
X0217000Y0079500D01*
X0217000Y0080500D01*
X0216000Y0080500D01*
X0216000Y0084500D01*
X0214636Y0084500D01*
X0212000Y0081864D01*
X0212000Y0080500D01*
X0216000Y0080500D01*
X0216000Y0079500D01*
X0212000Y0079500D01*
X0212000Y0078136D01*
X0214636Y0075500D01*
X0216000Y0075500D01*
X0216000Y0079500D01*
X0217000Y0079500D01*
X0217000Y0075500D01*
X0218364Y0075500D01*
X0217000Y0075917D02*
X0216000Y0075917D01*
X0216000Y0076915D02*
X0217000Y0076915D01*
X0217000Y0077914D02*
X0216000Y0077914D01*
X0216000Y0078912D02*
X0217000Y0078912D01*
X0217000Y0079911D02*
X0239421Y0079911D01*
X0239421Y0080909D02*
X0221000Y0080909D01*
X0221000Y0080500D02*
X0221000Y0081864D01*
X0218364Y0084500D01*
X0217000Y0084500D01*
X0217000Y0080500D01*
X0221000Y0080500D01*
X0220956Y0081908D02*
X0239421Y0081908D01*
X0239421Y0082906D02*
X0219958Y0082906D01*
X0218959Y0083905D02*
X0239421Y0083905D01*
X0239421Y0084903D02*
X0164795Y0084903D01*
X0164795Y0084500D02*
X0164795Y0085500D01*
X0163795Y0085500D01*
X0163795Y0084500D01*
X0155906Y0084500D01*
X0155906Y0079881D01*
X0156008Y0079500D01*
X0156205Y0079158D01*
X0156484Y0078878D01*
X0156827Y0078681D01*
X0157208Y0078579D01*
X0163795Y0078579D01*
X0163795Y0084500D01*
X0164795Y0084500D01*
X0164795Y0078579D01*
X0171383Y0078579D01*
X0171764Y0078681D01*
X0172106Y0078878D01*
X0172385Y0079158D01*
X0172583Y0079500D01*
X0172685Y0079881D01*
X0172685Y0084500D01*
X0164795Y0084500D01*
X0164795Y0083905D02*
X0163795Y0083905D01*
X0163795Y0084903D02*
X0146894Y0084903D01*
X0146894Y0083905D02*
X0155906Y0083905D01*
X0155906Y0082906D02*
X0146894Y0082906D01*
X0146894Y0081908D02*
X0155906Y0081908D01*
X0155906Y0080909D02*
X0146894Y0080909D01*
X0146894Y0079911D02*
X0155906Y0079911D01*
X0156451Y0078912D02*
X0146266Y0078912D01*
X0144255Y0077914D02*
X0177441Y0077914D01*
X0177028Y0078912D02*
X0172140Y0078912D01*
X0172685Y0079911D02*
X0176952Y0079911D01*
X0176954Y0080909D02*
X0172685Y0080909D01*
X0172685Y0081908D02*
X0177367Y0081908D01*
X0177974Y0082906D02*
X0172685Y0082906D01*
X0172685Y0083905D02*
X0179042Y0083905D01*
X0179509Y0085902D02*
X0172685Y0085902D01*
X0172685Y0085500D02*
X0172685Y0090119D01*
X0172583Y0090500D01*
X0172385Y0090842D01*
X0172106Y0091122D01*
X0171764Y0091319D01*
X0171383Y0091421D01*
X0164795Y0091421D01*
X0164795Y0085500D01*
X0172685Y0085500D01*
X0172685Y0086900D02*
X0178168Y0086900D01*
X0177448Y0087899D02*
X0172685Y0087899D01*
X0172685Y0088897D02*
X0177034Y0088897D01*
X0176952Y0089896D02*
X0172685Y0089896D01*
X0172333Y0090894D02*
X0176952Y0090894D01*
X0164795Y0090894D02*
X0163795Y0090894D01*
X0163795Y0091421D02*
X0157208Y0091421D01*
X0156827Y0091319D01*
X0156484Y0091122D01*
X0156205Y0090842D01*
X0156008Y0090500D01*
X0155906Y0090119D01*
X0155906Y0085500D01*
X0163795Y0085500D01*
X0163795Y0091421D01*
X0163795Y0089896D02*
X0164795Y0089896D01*
X0164795Y0088897D02*
X0163795Y0088897D01*
X0163795Y0087899D02*
X0164795Y0087899D01*
X0164795Y0086900D02*
X0163795Y0086900D01*
X0163795Y0085902D02*
X0164795Y0085902D01*
X0164795Y0082906D02*
X0163795Y0082906D01*
X0163795Y0081908D02*
X0164795Y0081908D01*
X0164795Y0080909D02*
X0163795Y0080909D01*
X0163795Y0079911D02*
X0164795Y0079911D01*
X0164795Y0078912D02*
X0163795Y0078912D01*
X0155906Y0085902D02*
X0146894Y0085902D01*
X0146894Y0086900D02*
X0155906Y0086900D01*
X0155906Y0087899D02*
X0146894Y0087899D01*
X0146894Y0088897D02*
X0155906Y0088897D01*
X0155906Y0089896D02*
X0146894Y0089896D01*
X0146460Y0090894D02*
X0156257Y0090894D01*
X0144255Y0076915D02*
X0178153Y0076915D01*
X0179474Y0075917D02*
X0144255Y0075917D01*
X0125874Y0071923D02*
X0060800Y0071923D01*
X0043600Y0075550D02*
X0040962Y0075550D01*
X0040200Y0074788D01*
X0040200Y0072150D01*
X0027800Y0072150D01*
X0027800Y0074788D01*
X0027038Y0075550D01*
X0024400Y0075550D01*
X0024400Y0079450D01*
X0027038Y0079450D01*
X0027800Y0080212D01*
X0027800Y0091288D01*
X0027038Y0092050D01*
X0018507Y0092050D01*
X0023958Y0097501D01*
X0024144Y0097950D01*
X0027038Y0097950D01*
X0027800Y0098712D01*
X0027800Y0109788D01*
X0027038Y0110550D01*
X0019301Y0110550D01*
X0012200Y0117651D01*
X0012200Y0131782D01*
X0013364Y0131300D01*
X0019636Y0131300D01*
X0020996Y0131863D01*
X0022037Y0132904D01*
X0022600Y0134264D01*
X0022600Y0135736D01*
X0022037Y0137096D01*
X0021589Y0137543D01*
X0024400Y0140354D01*
X0024400Y0147278D01*
X0023769Y0147909D01*
X0024113Y0148254D01*
X0024583Y0149387D01*
X0024583Y0150613D01*
X0024113Y0151746D01*
X0023246Y0152613D01*
X0022113Y0153083D01*
X0022111Y0153083D01*
X0022600Y0154264D01*
X0022600Y0155736D01*
X0022037Y0157096D01*
X0020996Y0158137D01*
X0019636Y0158700D01*
X0013364Y0158700D01*
X0012004Y0158137D01*
X0010963Y0157096D01*
X0010400Y0155736D01*
X0010400Y0154264D01*
X0010963Y0152904D01*
X0011039Y0152828D01*
X0008200Y0149989D01*
X0008200Y0172599D01*
X0010203Y0174602D01*
X0010350Y0173862D01*
X0010644Y0173153D01*
X0011071Y0172514D01*
X0011614Y0171971D01*
X0012253Y0171544D01*
X0012962Y0171250D01*
X0013716Y0171100D01*
X0016200Y0171100D01*
X0016200Y0174700D01*
X0016800Y0174700D01*
X0016800Y0175300D01*
X0016200Y0175300D01*
X0016200Y0178900D01*
X0014501Y0178900D01*
X0016200Y0178900D01*
X0016200Y0175300D01*
X0016800Y0175300D01*
X0016800Y0178900D01*
X0019284Y0178900D01*
X0020038Y0178750D01*
X0020747Y0178456D01*
X0021386Y0178029D01*
X0021929Y0177486D01*
X0022356Y0176847D01*
X0022650Y0176138D01*
X0022800Y0175384D01*
X0022800Y0175300D01*
X0016800Y0175300D01*
X0016800Y0178900D01*
X0019284Y0178900D01*
X0020038Y0178750D01*
X0020747Y0178456D01*
X0021386Y0178029D01*
X0021929Y0177486D01*
X0022356Y0176847D01*
X0022650Y0176138D01*
X0022800Y0175384D01*
X0022800Y0175300D01*
X0016800Y0175300D01*
X0016800Y0174700D01*
X0022800Y0174700D01*
X0022800Y0174616D01*
X0022650Y0173862D01*
X0022356Y0173153D01*
X0021929Y0172514D01*
X0021386Y0171971D01*
X0020747Y0171544D01*
X0020038Y0171250D01*
X0019284Y0171100D01*
X0016800Y0171100D01*
X0016800Y0174700D01*
X0022800Y0174700D01*
X0022800Y0174616D01*
X0022650Y0173862D01*
X0022356Y0173153D01*
X0021929Y0172514D01*
X0021386Y0171971D01*
X0020747Y0171544D01*
X0020038Y0171250D01*
X0019284Y0171100D01*
X0016800Y0171100D01*
X0016800Y0174700D01*
X0016200Y0174700D01*
X0016200Y0171100D01*
X0013716Y0171100D01*
X0012962Y0171250D01*
X0012253Y0171544D01*
X0011614Y0171971D01*
X0011500Y0172085D01*
X0011500Y0167915D01*
X0011614Y0168029D01*
X0011071Y0167486D01*
X0010644Y0166847D01*
X0010350Y0166138D01*
X0010200Y0165384D01*
X0010200Y0165300D01*
X0016200Y0165300D01*
X0016200Y0168900D01*
X0013716Y0168900D01*
X0012962Y0168750D01*
X0012253Y0168456D01*
X0011614Y0168029D01*
X0012253Y0168456D01*
X0012962Y0168750D01*
X0013716Y0168900D01*
X0016200Y0168900D01*
X0016200Y0165300D01*
X0016800Y0165300D01*
X0016800Y0168900D01*
X0019284Y0168900D01*
X0020038Y0168750D01*
X0020747Y0168456D01*
X0021386Y0168029D01*
X0021929Y0167486D01*
X0022356Y0166847D01*
X0022650Y0166138D01*
X0022800Y0165384D01*
X0022800Y0165300D01*
X0016800Y0165300D01*
X0016800Y0164700D01*
X0022800Y0164700D01*
X0022800Y0164616D01*
X0022650Y0163862D01*
X0022356Y0163153D01*
X0021929Y0162514D01*
X0021386Y0161971D01*
X0020747Y0161544D01*
X0020038Y0161250D01*
X0019284Y0161100D01*
X0016800Y0161100D01*
X0016800Y0164700D01*
X0016800Y0165300D01*
X0016200Y0165300D01*
X0016200Y0164700D01*
X0016800Y0164700D01*
X0022800Y0164700D01*
X0022800Y0164616D01*
X0022650Y0163862D01*
X0022356Y0163153D01*
X0021929Y0162514D01*
X0021386Y0161971D01*
X0020747Y0161544D01*
X0020038Y0161250D01*
X0019284Y0161100D01*
X0016800Y0161100D01*
X0016800Y0164700D01*
X0016200Y0164700D01*
X0016200Y0161100D01*
X0013716Y0161100D01*
X0012962Y0161250D01*
X0012253Y0161544D01*
X0011614Y0161971D01*
X0011071Y0162514D01*
X0010644Y0163153D01*
X0010350Y0163862D01*
X0010200Y0164616D01*
X0010200Y0164700D01*
X0016200Y0164700D01*
X0016200Y0161100D01*
X0013716Y0161100D01*
X0012962Y0161250D01*
X0012253Y0161544D01*
X0011614Y0161971D01*
X0011500Y0162085D01*
X0011500Y0160000D01*
X0051500Y0160000D01*
X0051500Y0162085D01*
X0051386Y0161971D01*
X0051929Y0162514D01*
X0052356Y0163153D01*
X0052650Y0163862D01*
X0052800Y0164616D01*
X0052800Y0164700D01*
X0046800Y0164700D01*
X0046800Y0165300D01*
X0046200Y0165300D01*
X0046200Y0168900D01*
X0043716Y0168900D01*
X0042962Y0168750D01*
X0042253Y0168456D01*
X0041614Y0168029D01*
X0041071Y0167486D01*
X0040644Y0166847D01*
X0040350Y0166138D01*
X0040200Y0165384D01*
X0040200Y0165300D01*
X0046200Y0165300D01*
X0046200Y0168900D01*
X0043716Y0168900D01*
X0042962Y0168750D01*
X0042253Y0168456D01*
X0041614Y0168029D01*
X0041071Y0167486D01*
X0040644Y0166847D01*
X0040350Y0166138D01*
X0040200Y0165384D01*
X0040200Y0165300D01*
X0046200Y0165300D01*
X0046800Y0165300D01*
X0046800Y0168900D01*
X0049284Y0168900D01*
X0050038Y0168750D01*
X0050747Y0168456D01*
X0051386Y0168029D01*
X0051929Y0167486D01*
X0052356Y0166847D01*
X0052650Y0166138D01*
X0052800Y0165384D01*
X0052800Y0165300D01*
X0046800Y0165300D01*
X0046800Y0168900D01*
X0049284Y0168900D01*
X0050038Y0168750D01*
X0050747Y0168456D01*
X0051386Y0168029D01*
X0051500Y0167915D01*
X0051500Y0172085D01*
X0051386Y0171971D01*
X0051929Y0172514D01*
X0052356Y0173153D01*
X0052650Y0173862D01*
X0052797Y0174602D01*
X0055000Y0172399D01*
X0055000Y0149789D01*
X0051961Y0152828D01*
X0052037Y0152904D01*
X0052600Y0154264D01*
X0052600Y0155736D01*
X0052037Y0157096D01*
X0050996Y0158137D01*
X0049636Y0158700D01*
X0043364Y0158700D01*
X0042004Y0158137D01*
X0040963Y0157096D01*
X0040400Y0155736D01*
X0040400Y0154264D01*
X0040963Y0152904D01*
X0042004Y0151863D01*
X0043364Y0151300D01*
X0045287Y0151300D01*
X0047887Y0148700D01*
X0043364Y0148700D01*
X0042004Y0148137D01*
X0040963Y0147096D01*
X0040400Y0145736D01*
X0040400Y0144264D01*
X0040963Y0142904D01*
X0042004Y0141863D01*
X0043364Y0141300D01*
X0049636Y0141300D01*
X0050800Y0141782D01*
X0050800Y0138218D01*
X0049636Y0138700D01*
X0043364Y0138700D01*
X0042004Y0138137D01*
X0040963Y0137096D01*
X0040400Y0135736D01*
X0040400Y0134264D01*
X0040963Y0132904D01*
X0042004Y0131863D01*
X0043364Y0131300D01*
X0047887Y0131300D01*
X0044041Y0127454D01*
X0043600Y0126389D01*
X0043600Y0110550D01*
X0040962Y0110550D01*
X0040200Y0109788D01*
X0040200Y0098712D01*
X0040962Y0097950D01*
X0048699Y0097950D01*
X0051000Y0095649D01*
X0051000Y0092050D01*
X0040962Y0092050D01*
X0040200Y0091288D01*
X0040200Y0080212D01*
X0040962Y0079450D01*
X0043600Y0079450D01*
X0043600Y0075550D01*
X0043600Y0075917D02*
X0024400Y0075917D01*
X0024400Y0076915D02*
X0043600Y0076915D01*
X0043600Y0077914D02*
X0024400Y0077914D01*
X0024400Y0078912D02*
X0043600Y0078912D01*
X0040501Y0079911D02*
X0027499Y0079911D01*
X0027800Y0080909D02*
X0040200Y0080909D01*
X0040200Y0081908D02*
X0027800Y0081908D01*
X0027800Y0082906D02*
X0040200Y0082906D01*
X0040200Y0083905D02*
X0027800Y0083905D01*
X0027800Y0084903D02*
X0040200Y0084903D01*
X0040200Y0085902D02*
X0027800Y0085902D01*
X0027800Y0086900D02*
X0040200Y0086900D01*
X0040200Y0087899D02*
X0027800Y0087899D01*
X0027800Y0088897D02*
X0040200Y0088897D01*
X0040200Y0089896D02*
X0027800Y0089896D01*
X0027800Y0090894D02*
X0040200Y0090894D01*
X0040804Y0091893D02*
X0027196Y0091893D01*
X0022344Y0095887D02*
X0050762Y0095887D01*
X0051000Y0094888D02*
X0021345Y0094888D01*
X0020347Y0093890D02*
X0051000Y0093890D01*
X0051000Y0092891D02*
X0019348Y0092891D01*
X0023342Y0096885D02*
X0049763Y0096885D01*
X0048765Y0097884D02*
X0024117Y0097884D01*
X0027800Y0098882D02*
X0040200Y0098882D01*
X0040200Y0099881D02*
X0027800Y0099881D01*
X0027800Y0100879D02*
X0040200Y0100879D01*
X0040200Y0101878D02*
X0027800Y0101878D01*
X0027800Y0102876D02*
X0040200Y0102876D01*
X0040200Y0103875D02*
X0027800Y0103875D01*
X0027800Y0104873D02*
X0040200Y0104873D01*
X0040200Y0105872D02*
X0027800Y0105872D01*
X0027800Y0106870D02*
X0040200Y0106870D01*
X0040200Y0107869D02*
X0027800Y0107869D01*
X0027800Y0108868D02*
X0040200Y0108868D01*
X0040278Y0109866D02*
X0027722Y0109866D01*
X0018987Y0110865D02*
X0043600Y0110865D01*
X0043600Y0111863D02*
X0017988Y0111863D01*
X0016990Y0112862D02*
X0043600Y0112862D01*
X0043600Y0113860D02*
X0015991Y0113860D01*
X0014993Y0114859D02*
X0043600Y0114859D01*
X0043600Y0115857D02*
X0013994Y0115857D01*
X0012996Y0116856D02*
X0043600Y0116856D01*
X0043600Y0117854D02*
X0012200Y0117854D01*
X0012200Y0118853D02*
X0043600Y0118853D01*
X0043600Y0119851D02*
X0012200Y0119851D01*
X0012200Y0120850D02*
X0043600Y0120850D01*
X0043600Y0121848D02*
X0012200Y0121848D01*
X0012200Y0122847D02*
X0043600Y0122847D01*
X0043600Y0123845D02*
X0012200Y0123845D01*
X0012200Y0124844D02*
X0043600Y0124844D01*
X0043600Y0125842D02*
X0012200Y0125842D01*
X0012200Y0126841D02*
X0043787Y0126841D01*
X0044426Y0127839D02*
X0012200Y0127839D01*
X0012200Y0128838D02*
X0045425Y0128838D01*
X0046423Y0129836D02*
X0012200Y0129836D01*
X0012200Y0130835D02*
X0047422Y0130835D01*
X0042077Y0131833D02*
X0020923Y0131833D01*
X0021964Y0132832D02*
X0041036Y0132832D01*
X0040580Y0133830D02*
X0022420Y0133830D01*
X0022600Y0134829D02*
X0040400Y0134829D01*
X0040438Y0135827D02*
X0022562Y0135827D01*
X0022149Y0136826D02*
X0040851Y0136826D01*
X0041692Y0137824D02*
X0021870Y0137824D01*
X0022868Y0138823D02*
X0050800Y0138823D01*
X0050800Y0139821D02*
X0023867Y0139821D01*
X0024400Y0140820D02*
X0050800Y0140820D01*
X0047779Y0148808D02*
X0024343Y0148808D01*
X0024583Y0149806D02*
X0046781Y0149806D01*
X0045782Y0150805D02*
X0024503Y0150805D01*
X0024056Y0151803D02*
X0042148Y0151803D01*
X0041065Y0152802D02*
X0022791Y0152802D01*
X0022408Y0153801D02*
X0040592Y0153801D01*
X0040400Y0154799D02*
X0022600Y0154799D01*
X0022574Y0155798D02*
X0040426Y0155798D01*
X0040839Y0156796D02*
X0022161Y0156796D01*
X0021338Y0157795D02*
X0041662Y0157795D01*
X0042962Y0161250D02*
X0043716Y0161100D01*
X0046200Y0161100D01*
X0046200Y0164700D01*
X0046800Y0164700D01*
X0046800Y0161100D01*
X0049284Y0161100D01*
X0050038Y0161250D01*
X0050747Y0161544D01*
X0051386Y0161971D01*
X0050747Y0161544D01*
X0050038Y0161250D01*
X0049284Y0161100D01*
X0046800Y0161100D01*
X0046800Y0164700D01*
X0046200Y0164700D01*
X0040200Y0164700D01*
X0040200Y0164616D01*
X0040350Y0163862D01*
X0040644Y0163153D01*
X0041071Y0162514D01*
X0041614Y0161971D01*
X0042253Y0161544D01*
X0042962Y0161250D01*
X0043716Y0161100D01*
X0046200Y0161100D01*
X0046200Y0164700D01*
X0046200Y0165300D01*
X0046200Y0164700D01*
X0040200Y0164700D01*
X0040200Y0164616D01*
X0040350Y0163862D01*
X0040644Y0163153D01*
X0041071Y0162514D01*
X0041614Y0161971D01*
X0042253Y0161544D01*
X0042962Y0161250D01*
X0041886Y0161789D02*
X0021114Y0161789D01*
X0041886Y0161789D01*
X0040888Y0162787D02*
X0022112Y0162787D01*
X0040888Y0162787D01*
X0040382Y0163786D02*
X0022618Y0163786D01*
X0040382Y0163786D01*
X0040279Y0165783D02*
X0022721Y0165783D01*
X0040279Y0165783D01*
X0040616Y0166781D02*
X0022384Y0166781D01*
X0040616Y0166781D01*
X0041364Y0167780D02*
X0021636Y0167780D01*
X0041364Y0167780D01*
X0043104Y0168778D02*
X0019896Y0168778D01*
X0043104Y0168778D01*
X0043716Y0171100D02*
X0046200Y0171100D01*
X0046200Y0174700D01*
X0046800Y0174700D01*
X0046800Y0171100D01*
X0049284Y0171100D01*
X0050038Y0171250D01*
X0050747Y0171544D01*
X0051386Y0171971D01*
X0050747Y0171544D01*
X0050038Y0171250D01*
X0049284Y0171100D01*
X0046800Y0171100D01*
X0046800Y0174700D01*
X0046200Y0174700D01*
X0040200Y0174700D01*
X0040200Y0174616D01*
X0040350Y0173862D01*
X0040644Y0173153D01*
X0041071Y0172514D01*
X0041614Y0171971D01*
X0042253Y0171544D01*
X0042962Y0171250D01*
X0043716Y0171100D01*
X0046200Y0171100D01*
X0046200Y0174700D01*
X0046200Y0175300D01*
X0046200Y0174700D01*
X0040200Y0174700D01*
X0040200Y0174616D01*
X0040350Y0173862D01*
X0040644Y0173153D01*
X0041071Y0172514D01*
X0041614Y0171971D01*
X0042253Y0171544D01*
X0042962Y0171250D01*
X0043716Y0171100D01*
X0041909Y0171774D02*
X0021091Y0171774D01*
X0041909Y0171774D01*
X0040898Y0172772D02*
X0022102Y0172772D01*
X0040898Y0172772D01*
X0040388Y0173771D02*
X0022612Y0173771D01*
X0040388Y0173771D01*
X0040276Y0175768D02*
X0022724Y0175768D01*
X0040276Y0175768D01*
X0040610Y0176766D02*
X0022390Y0176766D01*
X0040610Y0176766D01*
X0041349Y0177765D02*
X0021651Y0177765D01*
X0041349Y0177765D01*
X0043029Y0178763D02*
X0019971Y0178763D01*
X0043029Y0178763D01*
X0042256Y0181759D02*
X0020744Y0181759D01*
X0021890Y0182757D02*
X0041110Y0182757D01*
X0040610Y0183756D02*
X0022389Y0183756D01*
X0022600Y0184754D02*
X0040400Y0184754D01*
X0040407Y0185753D02*
X0022593Y0185753D01*
X0022179Y0186751D02*
X0040821Y0186751D01*
X0041617Y0187750D02*
X0021383Y0187750D01*
X0020708Y0191744D02*
X0042292Y0191744D01*
X0041125Y0192742D02*
X0021875Y0192742D01*
X0022383Y0193741D02*
X0040617Y0193741D01*
X0040400Y0194739D02*
X0022600Y0194739D01*
X0022599Y0195738D02*
X0040401Y0195738D01*
X0040814Y0196737D02*
X0022186Y0196737D01*
X0023595Y0197735D02*
X0041602Y0197735D01*
X0045608Y0200731D02*
X0024776Y0200731D01*
X0024583Y0199732D02*
X0046606Y0199732D01*
X0047605Y0198734D02*
X0024312Y0198734D01*
X0025775Y0201729D02*
X0042328Y0201729D01*
X0041140Y0202728D02*
X0026773Y0202728D01*
X0027772Y0203726D02*
X0040623Y0203726D01*
X0040400Y0204725D02*
X0028300Y0204725D01*
X0028300Y0205723D02*
X0040400Y0205723D01*
X0040808Y0206722D02*
X0028300Y0206722D01*
X0028300Y0207720D02*
X0041588Y0207720D01*
X0041590Y0208719D02*
X0028300Y0208719D01*
X0028300Y0209717D02*
X0041590Y0209717D01*
X0041590Y0210716D02*
X0041013Y0210716D01*
X0038260Y0210716D02*
X0037260Y0210716D01*
X0037260Y0210547D02*
X0037260Y0214500D01*
X0033701Y0214500D01*
X0033701Y0211850D01*
X0033803Y0211468D01*
X0034000Y0211126D01*
X0034280Y0210847D01*
X0034622Y0210649D01*
X0035003Y0210547D01*
X0037260Y0210547D01*
X0037260Y0211714D02*
X0038260Y0211714D01*
X0038260Y0212713D02*
X0037260Y0212713D01*
X0037260Y0213711D02*
X0038260Y0213711D01*
X0037760Y0215000D02*
X0037760Y0176260D01*
X0036500Y0175000D01*
X0036500Y0170000D01*
X0031500Y0170000D01*
X0026500Y0170000D01*
X0026500Y0165000D01*
X0016500Y0165000D01*
X0016800Y0164784D02*
X0046200Y0164784D01*
X0016800Y0164784D01*
X0016800Y0165300D02*
X0022800Y0165300D01*
X0022800Y0165384D01*
X0022650Y0166138D01*
X0022356Y0166847D01*
X0021929Y0167486D01*
X0021386Y0168029D01*
X0020747Y0168456D01*
X0020038Y0168750D01*
X0019284Y0168900D01*
X0016800Y0168900D01*
X0016800Y0165300D01*
X0016800Y0165783D02*
X0016200Y0165783D01*
X0016800Y0165783D01*
X0016800Y0166781D02*
X0016200Y0166781D01*
X0016800Y0166781D01*
X0016800Y0167780D02*
X0016200Y0167780D01*
X0016800Y0167780D01*
X0016800Y0168778D02*
X0016200Y0168778D01*
X0016800Y0168778D01*
X0016800Y0171774D02*
X0016200Y0171774D01*
X0016800Y0171774D01*
X0016800Y0172772D02*
X0016200Y0172772D01*
X0016800Y0172772D01*
X0016800Y0173771D02*
X0016200Y0173771D01*
X0016800Y0173771D01*
X0016800Y0174769D02*
X0046200Y0174769D01*
X0016800Y0174769D01*
X0016500Y0175000D02*
X0026500Y0175000D01*
X0026500Y0170000D01*
X0026500Y0165000D02*
X0031500Y0165000D01*
X0031500Y0170000D01*
X0031500Y0175000D01*
X0036500Y0175000D01*
X0046500Y0175000D01*
X0046200Y0175768D02*
X0046800Y0175768D01*
X0046200Y0175768D01*
X0046200Y0176766D02*
X0046800Y0176766D01*
X0046200Y0176766D01*
X0046200Y0177765D02*
X0046800Y0177765D01*
X0046200Y0177765D01*
X0046200Y0178763D02*
X0046800Y0178763D01*
X0046200Y0178763D01*
X0047637Y0179762D02*
X0015363Y0179762D01*
X0047637Y0179762D01*
X0046638Y0180760D02*
X0016362Y0180760D01*
X0016200Y0178763D02*
X0016800Y0178763D01*
X0016200Y0178763D01*
X0016200Y0177765D02*
X0016800Y0177765D01*
X0016200Y0177765D01*
X0016200Y0176766D02*
X0016800Y0176766D01*
X0016200Y0176766D01*
X0016200Y0175768D02*
X0016800Y0175768D01*
X0016200Y0175768D01*
X0011909Y0171774D02*
X0008200Y0171774D01*
X0008200Y0170775D02*
X0055000Y0170775D01*
X0055000Y0169777D02*
X0008200Y0169777D01*
X0008200Y0168778D02*
X0013104Y0168778D01*
X0011500Y0168778D01*
X0011500Y0169777D02*
X0051500Y0169777D01*
X0051500Y0170775D02*
X0011500Y0170775D01*
X0011500Y0171774D02*
X0011909Y0171774D01*
X0010898Y0172772D02*
X0008373Y0172772D01*
X0009372Y0173771D02*
X0010388Y0173771D01*
X0006162Y0178763D02*
X0003500Y0178763D01*
X0003500Y0177765D02*
X0005164Y0177765D01*
X0004165Y0176766D02*
X0003500Y0176766D01*
X0003500Y0179762D02*
X0007161Y0179762D01*
X0008159Y0180760D02*
X0003500Y0180760D01*
X0003500Y0181759D02*
X0009158Y0181759D01*
X0010156Y0182757D02*
X0003500Y0182757D01*
X0003500Y0183756D02*
X0010610Y0183756D01*
X0010400Y0184754D02*
X0003500Y0184754D01*
X0003500Y0185753D02*
X0010407Y0185753D01*
X0010821Y0186751D02*
X0003500Y0186751D01*
X0003500Y0187750D02*
X0011617Y0187750D01*
X0012292Y0191744D02*
X0003500Y0191744D01*
X0003500Y0192742D02*
X0011125Y0192742D01*
X0010617Y0193741D02*
X0003500Y0193741D01*
X0003500Y0194739D02*
X0010400Y0194739D01*
X0010401Y0195738D02*
X0003500Y0195738D01*
X0003500Y0196737D02*
X0010814Y0196737D01*
X0011602Y0197735D02*
X0003500Y0197735D01*
X0003500Y0198734D02*
X0018688Y0198734D01*
X0018417Y0199732D02*
X0003500Y0199732D01*
X0003500Y0200731D02*
X0018466Y0200731D01*
X0012328Y0201729D02*
X0003500Y0201729D01*
X0003500Y0202728D02*
X0011140Y0202728D01*
X0010623Y0203726D02*
X0003500Y0203726D01*
X0003500Y0204725D02*
X0010400Y0204725D01*
X0010400Y0205723D02*
X0003500Y0205723D01*
X0003500Y0206722D02*
X0010808Y0206722D01*
X0011588Y0207720D02*
X0003500Y0207720D01*
X0003500Y0212713D02*
X0009010Y0212713D01*
X0008524Y0213711D02*
X0003500Y0213711D01*
X0003500Y0214710D02*
X0008417Y0214710D01*
X0008630Y0215708D02*
X0003500Y0215708D01*
X0003500Y0216707D02*
X0009264Y0216707D01*
X0012077Y0217705D02*
X0003500Y0217705D01*
X0003500Y0218704D02*
X0012247Y0218704D01*
X0012247Y0219702D02*
X0003500Y0219702D01*
X0003500Y0220701D02*
X0012247Y0220701D01*
X0012247Y0221699D02*
X0003500Y0221699D01*
X0003500Y0222698D02*
X0012247Y0222698D01*
X0012247Y0223696D02*
X0003500Y0223696D01*
X0003500Y0224695D02*
X0012585Y0224695D01*
X0016500Y0228740D02*
X0026500Y0228740D01*
X0030753Y0221699D02*
X0030995Y0221699D01*
X0030753Y0220701D02*
X0031994Y0220701D01*
X0032992Y0219702D02*
X0030753Y0219702D01*
X0030753Y0218704D02*
X0033902Y0218704D01*
X0033701Y0217705D02*
X0030296Y0217705D01*
X0028300Y0216707D02*
X0033701Y0216707D01*
X0033701Y0215708D02*
X0028300Y0215708D01*
X0028300Y0214710D02*
X0037260Y0214710D01*
X0033701Y0213711D02*
X0028300Y0213711D01*
X0028300Y0212713D02*
X0033701Y0212713D01*
X0033737Y0211714D02*
X0028300Y0211714D01*
X0028300Y0210716D02*
X0034507Y0210716D01*
X0036086Y0221699D02*
X0077102Y0221699D01*
X0077971Y0222698D02*
X0035088Y0222698D01*
X0052383Y0193741D02*
X0052846Y0193741D01*
X0051875Y0192742D02*
X0053845Y0192742D01*
X0054843Y0191744D02*
X0050708Y0191744D01*
X0051383Y0187750D02*
X0058837Y0187750D01*
X0059000Y0186751D02*
X0052179Y0186751D01*
X0052593Y0185753D02*
X0059000Y0185753D01*
X0059000Y0184754D02*
X0052600Y0184754D01*
X0052389Y0183756D02*
X0059000Y0183756D01*
X0059000Y0182757D02*
X0052844Y0182757D01*
X0053842Y0181759D02*
X0059000Y0181759D01*
X0059000Y0180760D02*
X0054841Y0180760D01*
X0055839Y0179762D02*
X0059000Y0179762D01*
X0059000Y0178763D02*
X0056838Y0178763D01*
X0057836Y0177765D02*
X0059000Y0177765D01*
X0059000Y0176766D02*
X0058835Y0176766D01*
X0054627Y0172772D02*
X0052102Y0172772D01*
X0052612Y0173771D02*
X0053628Y0173771D01*
X0055000Y0171774D02*
X0051091Y0171774D01*
X0051500Y0171774D01*
X0051500Y0168778D02*
X0049896Y0168778D01*
X0055000Y0168778D01*
X0055000Y0167780D02*
X0051636Y0167780D01*
X0052384Y0166781D02*
X0055000Y0166781D01*
X0055000Y0165783D02*
X0052721Y0165783D01*
X0052618Y0163786D02*
X0055000Y0163786D01*
X0055000Y0164784D02*
X0046800Y0164784D01*
X0046500Y0165000D02*
X0036500Y0165000D01*
X0031500Y0165000D01*
X0036500Y0165000D02*
X0036500Y0170000D01*
X0031500Y0175000D02*
X0026500Y0175000D01*
X0016200Y0164784D02*
X0008200Y0164784D01*
X0008200Y0163786D02*
X0010382Y0163786D01*
X0010888Y0162787D02*
X0008200Y0162787D01*
X0008200Y0161789D02*
X0011886Y0161789D01*
X0011500Y0161789D01*
X0011500Y0160790D02*
X0051500Y0160790D01*
X0051500Y0161789D02*
X0051114Y0161789D01*
X0055000Y0161789D01*
X0055000Y0162787D02*
X0052112Y0162787D01*
X0055000Y0160790D02*
X0008200Y0160790D01*
X0008200Y0159792D02*
X0055000Y0159792D01*
X0055000Y0158793D02*
X0008200Y0158793D01*
X0008200Y0157795D02*
X0011662Y0157795D01*
X0010839Y0156796D02*
X0008200Y0156796D01*
X0008200Y0155798D02*
X0010426Y0155798D01*
X0010400Y0154799D02*
X0008200Y0154799D01*
X0008200Y0153801D02*
X0010592Y0153801D01*
X0011013Y0152802D02*
X0008200Y0152802D01*
X0008200Y0151803D02*
X0010014Y0151803D01*
X0009016Y0150805D02*
X0008200Y0150805D01*
X0016200Y0161789D02*
X0016800Y0161789D01*
X0016200Y0161789D01*
X0016200Y0162787D02*
X0016800Y0162787D01*
X0016200Y0162787D01*
X0016200Y0163786D02*
X0016800Y0163786D01*
X0016200Y0163786D01*
X0010279Y0165783D02*
X0008200Y0165783D01*
X0008200Y0166781D02*
X0010616Y0166781D01*
X0011364Y0167780D02*
X0008200Y0167780D01*
X0021500Y0150000D02*
X0021500Y0147633D01*
X0022600Y0146533D01*
X0022600Y0141100D01*
X0016500Y0135000D01*
X0024400Y0141818D02*
X0042113Y0141818D01*
X0041051Y0142817D02*
X0024400Y0142817D01*
X0024400Y0143815D02*
X0040586Y0143815D01*
X0040400Y0144814D02*
X0024400Y0144814D01*
X0024400Y0145812D02*
X0040432Y0145812D01*
X0040845Y0146811D02*
X0024400Y0146811D01*
X0023869Y0147809D02*
X0041677Y0147809D01*
X0051987Y0152802D02*
X0055000Y0152802D01*
X0055000Y0151803D02*
X0052986Y0151803D01*
X0053984Y0150805D02*
X0055000Y0150805D01*
X0054983Y0149806D02*
X0055000Y0149806D01*
X0055000Y0153801D02*
X0052408Y0153801D01*
X0052600Y0154799D02*
X0055000Y0154799D01*
X0055000Y0155798D02*
X0052574Y0155798D01*
X0052161Y0156796D02*
X0055000Y0156796D01*
X0055000Y0157795D02*
X0051338Y0157795D01*
X0046800Y0161789D02*
X0046200Y0161789D01*
X0046800Y0161789D01*
X0046800Y0162787D02*
X0046200Y0162787D01*
X0046800Y0162787D01*
X0046800Y0163786D02*
X0046200Y0163786D01*
X0046800Y0163786D01*
X0046800Y0165783D02*
X0046200Y0165783D01*
X0046800Y0165783D01*
X0046800Y0166781D02*
X0046200Y0166781D01*
X0046800Y0166781D01*
X0046800Y0167780D02*
X0046200Y0167780D01*
X0046800Y0167780D01*
X0046800Y0168778D02*
X0046200Y0168778D01*
X0046800Y0168778D01*
X0046800Y0171774D02*
X0046200Y0171774D01*
X0046800Y0171774D01*
X0046800Y0172772D02*
X0046200Y0172772D01*
X0046800Y0172772D01*
X0046800Y0173771D02*
X0046200Y0173771D01*
X0046800Y0173771D01*
X0057839Y0188748D02*
X0003500Y0188748D01*
X0003500Y0189747D02*
X0056840Y0189747D01*
X0055842Y0190745D02*
X0003500Y0190745D01*
X0060800Y0129836D02*
X0061502Y0129836D01*
X0060800Y0128838D02*
X0062500Y0128838D01*
X0063499Y0127839D02*
X0060800Y0127839D01*
X0060800Y0126841D02*
X0064589Y0126841D01*
X0040330Y0074918D02*
X0027670Y0074918D01*
X0027800Y0073920D02*
X0040200Y0073920D01*
X0040200Y0072921D02*
X0027800Y0072921D01*
X0027800Y0065932D02*
X0039080Y0065932D01*
X0037990Y0064933D02*
X0027800Y0064933D01*
X0027800Y0063934D02*
X0036532Y0063934D01*
X0036391Y0063793D02*
X0036391Y0063793D01*
X0035534Y0062936D02*
X0018521Y0062936D01*
X0019520Y0061937D02*
X0034535Y0061937D01*
X0033537Y0060939D02*
X0028339Y0060939D01*
X0029805Y0059940D02*
X0032599Y0059940D01*
X0032200Y0058942D02*
X0030803Y0058942D01*
X0031542Y0057943D02*
X0032200Y0057943D01*
X0032200Y0056945D02*
X0031800Y0056945D01*
X0031800Y0055946D02*
X0032200Y0055946D01*
X0032200Y0054948D02*
X0031800Y0054948D01*
X0031800Y0053949D02*
X0032200Y0053949D01*
X0032200Y0052951D02*
X0031800Y0052951D01*
X0031800Y0051952D02*
X0032200Y0051952D01*
X0032200Y0050954D02*
X0031800Y0050954D01*
X0031800Y0049955D02*
X0032200Y0049955D01*
X0032200Y0048957D02*
X0031800Y0048957D01*
X0031800Y0047958D02*
X0032200Y0047958D01*
X0032200Y0046960D02*
X0031800Y0046960D01*
X0031800Y0045961D02*
X0032200Y0045961D01*
X0032200Y0044963D02*
X0031800Y0044963D01*
X0031711Y0043964D02*
X0032200Y0043964D01*
X0032200Y0042966D02*
X0031211Y0042966D01*
X0030543Y0042297D02*
X0030543Y0042297D01*
X0030213Y0041967D02*
X0032200Y0041967D01*
X0032200Y0040969D02*
X0030738Y0040969D01*
X0031151Y0039970D02*
X0032200Y0039970D01*
X0032200Y0038972D02*
X0031343Y0038972D01*
X0031343Y0037973D02*
X0032200Y0037973D01*
X0032200Y0036975D02*
X0031343Y0036975D01*
X0031343Y0035976D02*
X0032200Y0035976D01*
X0032200Y0034978D02*
X0031343Y0034978D01*
X0031343Y0033979D02*
X0032200Y0033979D01*
X0032200Y0032981D02*
X0031343Y0032981D01*
X0031343Y0031982D02*
X0032200Y0031982D01*
X0032200Y0030984D02*
X0031343Y0030984D01*
X0031133Y0029985D02*
X0032200Y0029985D01*
X0032200Y0028987D02*
X0030719Y0028987D01*
X0029881Y0027988D02*
X0032567Y0027988D01*
X0033461Y0026990D02*
X0028372Y0026990D01*
X0024628Y0026990D02*
X0018372Y0026990D01*
X0019881Y0027988D02*
X0023119Y0027988D01*
X0022281Y0028987D02*
X0020719Y0028987D01*
X0021133Y0029985D02*
X0021867Y0029985D01*
X0021657Y0030984D02*
X0021343Y0030984D01*
X0021343Y0031982D02*
X0021657Y0031982D01*
X0021657Y0032981D02*
X0021343Y0032981D01*
X0021343Y0033979D02*
X0021657Y0033979D01*
X0021657Y0034978D02*
X0021343Y0034978D01*
X0021577Y0035976D02*
X0021657Y0035976D01*
X0018600Y0043964D02*
X0003500Y0043964D01*
X0003500Y0042966D02*
X0014521Y0042966D01*
X0013074Y0041967D02*
X0003500Y0041967D01*
X0003500Y0040969D02*
X0012262Y0040969D01*
X0011849Y0039970D02*
X0003500Y0039970D01*
X0003500Y0038972D02*
X0011657Y0038972D01*
X0011657Y0037973D02*
X0003500Y0037973D01*
X0003500Y0036975D02*
X0011657Y0036975D01*
X0011657Y0035976D02*
X0003500Y0035976D01*
X0003500Y0034978D02*
X0011657Y0034978D01*
X0011657Y0033979D02*
X0003500Y0033979D01*
X0003500Y0032981D02*
X0011657Y0032981D01*
X0011657Y0031982D02*
X0003500Y0031982D01*
X0003500Y0030984D02*
X0011657Y0030984D01*
X0011867Y0029985D02*
X0003500Y0029985D01*
X0003500Y0028987D02*
X0012281Y0028987D01*
X0013119Y0027988D02*
X0003500Y0027988D01*
X0003500Y0026990D02*
X0014628Y0026990D01*
X0003500Y0025991D02*
X0034459Y0025991D01*
X0035458Y0024993D02*
X0003500Y0024993D01*
X0003500Y0023994D02*
X0036456Y0023994D01*
X0037539Y0022996D02*
X0003500Y0022996D01*
X0003500Y0044963D02*
X0015449Y0044963D01*
X0015200Y0045961D02*
X0003500Y0045961D01*
X0003500Y0046960D02*
X0015200Y0046960D01*
X0015200Y0047958D02*
X0003500Y0047958D01*
X0003500Y0048957D02*
X0015200Y0048957D01*
X0015200Y0049955D02*
X0003500Y0049955D01*
X0003500Y0050954D02*
X0015200Y0050954D01*
X0015200Y0051952D02*
X0003500Y0051952D01*
X0003500Y0052951D02*
X0014647Y0052951D01*
X0013648Y0053949D02*
X0003500Y0053949D01*
X0003500Y0054948D02*
X0012650Y0054948D01*
X0011651Y0055946D02*
X0003500Y0055946D01*
X0003500Y0056945D02*
X0010653Y0056945D01*
X0009654Y0057943D02*
X0003500Y0057943D01*
X0003500Y0058942D02*
X0008656Y0058942D01*
X0007657Y0059940D02*
X0003500Y0059940D01*
X0003500Y0060939D02*
X0006659Y0060939D01*
X0005660Y0061937D02*
X0003500Y0061937D01*
X0003500Y0062936D02*
X0004662Y0062936D01*
X0003663Y0063934D02*
X0003500Y0063934D01*
X0055461Y0022996D02*
X0227752Y0022996D01*
X0226326Y0023994D02*
X0056544Y0023994D01*
X0149884Y0107869D02*
X0150833Y0107869D01*
X0150833Y0108868D02*
X0149884Y0108868D01*
X0149884Y0109866D02*
X0150833Y0109866D01*
X0150833Y0110865D02*
X0149884Y0110865D01*
X0149884Y0112862D02*
X0150833Y0112862D01*
X0150833Y0113860D02*
X0149884Y0113860D01*
X0149884Y0114859D02*
X0150833Y0114859D01*
X0150833Y0115857D02*
X0149884Y0115857D01*
X0206000Y0103875D02*
X0207000Y0103875D01*
X0207000Y0102876D02*
X0206000Y0102876D01*
X0206000Y0101878D02*
X0207000Y0101878D01*
X0207000Y0100879D02*
X0206000Y0100879D01*
X0211000Y0098882D02*
X0212200Y0098882D01*
X0212535Y0097884D02*
X0210748Y0097884D01*
X0209749Y0096885D02*
X0213534Y0096885D01*
X0214532Y0095887D02*
X0208751Y0095887D01*
X0208691Y0093890D02*
X0214309Y0093890D01*
X0213310Y0092891D02*
X0209690Y0092891D01*
X0210688Y0091893D02*
X0212312Y0091893D01*
X0212200Y0090894D02*
X0210800Y0090894D01*
X0210800Y0089896D02*
X0212200Y0089896D01*
X0212200Y0088897D02*
X0210800Y0088897D01*
X0210480Y0087899D02*
X0212520Y0087899D01*
X0213519Y0086900D02*
X0209481Y0086900D01*
X0208483Y0085902D02*
X0214517Y0085902D01*
X0214041Y0083905D02*
X0208676Y0083905D01*
X0209675Y0082906D02*
X0213042Y0082906D01*
X0212044Y0081908D02*
X0210673Y0081908D01*
X0210800Y0080909D02*
X0212000Y0080909D01*
X0210800Y0079911D02*
X0216000Y0079911D01*
X0216000Y0080909D02*
X0217000Y0080909D01*
X0217000Y0081908D02*
X0216000Y0081908D01*
X0216000Y0082906D02*
X0217000Y0082906D01*
X0217000Y0083905D02*
X0216000Y0083905D01*
X0218483Y0085902D02*
X0239421Y0085902D01*
X0239421Y0086900D02*
X0219481Y0086900D01*
X0220480Y0087899D02*
X0239421Y0087899D01*
X0239421Y0088897D02*
X0220800Y0088897D01*
X0220800Y0089896D02*
X0239421Y0089896D01*
X0239421Y0090894D02*
X0220800Y0090894D01*
X0220688Y0091893D02*
X0239421Y0091893D01*
X0239421Y0092891D02*
X0219690Y0092891D01*
X0221000Y0078912D02*
X0239421Y0078912D01*
X0239421Y0077914D02*
X0220778Y0077914D01*
X0219779Y0076915D02*
X0239421Y0076915D01*
X0214219Y0075917D02*
X0208498Y0075917D01*
X0209496Y0076915D02*
X0213221Y0076915D01*
X0212222Y0077914D02*
X0210495Y0077914D01*
X0210800Y0078912D02*
X0212000Y0078912D01*
X0214339Y0073920D02*
X0208661Y0073920D01*
X0209660Y0072921D02*
X0213340Y0072921D01*
X0212341Y0071923D02*
X0210659Y0071923D01*
X0210800Y0070924D02*
X0212200Y0070924D01*
X0212200Y0069926D02*
X0210800Y0069926D01*
X0210800Y0068927D02*
X0212200Y0068927D01*
X0212490Y0067929D02*
X0210510Y0067929D01*
X0209511Y0066930D02*
X0213489Y0066930D01*
X0214487Y0065932D02*
X0208513Y0065932D01*
X0208647Y0063934D02*
X0214071Y0063934D01*
X0213072Y0062936D02*
X0209645Y0062936D01*
X0210644Y0061937D02*
X0212074Y0061937D01*
X0212000Y0060939D02*
X0210800Y0060939D01*
X0218617Y0043964D02*
X0239421Y0043964D01*
X0239421Y0042966D02*
X0219615Y0042966D01*
X0220614Y0041967D02*
X0239421Y0041967D01*
X0239421Y0040969D02*
X0220800Y0040969D01*
X0220800Y0039970D02*
X0239421Y0039970D01*
X0239421Y0038972D02*
X0220800Y0038972D01*
X0220554Y0037973D02*
X0239421Y0037973D01*
X0239421Y0036975D02*
X0235320Y0036975D01*
X0236704Y0035976D02*
X0239421Y0035976D01*
X0239421Y0034978D02*
X0237702Y0034978D01*
X0238409Y0033979D02*
X0239421Y0033979D01*
X0239421Y0032981D02*
X0238822Y0032981D01*
X0239236Y0031982D02*
X0239421Y0031982D01*
X0239405Y0030984D02*
X0239421Y0030984D01*
X0239405Y0029985D02*
X0239421Y0029985D01*
X0239405Y0028987D02*
X0239421Y0028987D01*
X0239421Y0027988D02*
X0239223Y0027988D01*
X0239421Y0026990D02*
X0238810Y0026990D01*
X0238396Y0025991D02*
X0239421Y0025991D01*
X0239421Y0024993D02*
X0237673Y0024993D01*
X0236674Y0023994D02*
X0239421Y0023994D01*
X0239421Y0022996D02*
X0235248Y0022996D01*
X0227680Y0036975D02*
X0219556Y0036975D01*
X0212431Y0027988D02*
X0210852Y0027988D01*
X0209854Y0026990D02*
X0213429Y0026990D01*
X0214428Y0025991D02*
X0208855Y0025991D01*
X0207000Y0025991D02*
X0206000Y0025991D01*
X0206000Y0026990D02*
X0207000Y0026990D01*
X0207000Y0027988D02*
X0206000Y0027988D01*
X0206000Y0028987D02*
X0207000Y0028987D01*
X0110119Y0177765D02*
X0108624Y0177765D01*
X0109101Y0181759D02*
X0111220Y0181759D01*
X0111220Y0182757D02*
X0107899Y0182757D01*
X0122063Y0182757D02*
X0123063Y0182757D01*
X0123063Y0181759D02*
X0122063Y0181759D01*
X0122063Y0180760D02*
X0123063Y0180760D01*
X0123063Y0183756D02*
X0122063Y0183756D01*
X0122063Y0184754D02*
X0123063Y0184754D01*
X0123063Y0185753D02*
X0122063Y0185753D01*
X0122063Y0186751D02*
X0123063Y0186751D01*
X0123063Y0187750D02*
X0122063Y0187750D01*
X0122063Y0188748D02*
X0123063Y0188748D01*
X0123063Y0191744D02*
X0122063Y0191744D01*
X0122063Y0192742D02*
X0123063Y0192742D01*
X0123063Y0193741D02*
X0122063Y0193741D01*
X0122063Y0194739D02*
X0123063Y0194739D01*
X0123063Y0195738D02*
X0122063Y0195738D01*
X0122063Y0196737D02*
X0123063Y0196737D01*
X0123063Y0197735D02*
X0122063Y0197735D01*
X0122063Y0198734D02*
X0123063Y0198734D01*
X0123063Y0199732D02*
X0122063Y0199732D01*
X0122063Y0200731D02*
X0123063Y0200731D01*
X0123063Y0201729D02*
X0122063Y0201729D01*
X0133730Y0201729D02*
X0139700Y0201729D01*
X0139700Y0200731D02*
X0133905Y0200731D01*
X0133905Y0199732D02*
X0139700Y0199732D01*
X0139700Y0198734D02*
X0133905Y0198734D01*
X0133905Y0197735D02*
X0139700Y0197735D01*
X0138883Y0196737D02*
X0133905Y0196737D01*
X0133905Y0195738D02*
X0138469Y0195738D01*
X0138417Y0194739D02*
X0133905Y0194739D01*
X0133905Y0193741D02*
X0138685Y0193741D01*
X0139398Y0192742D02*
X0133905Y0192742D01*
X0133905Y0191744D02*
X0148837Y0191744D01*
X0150932Y0194739D02*
X0154728Y0194739D01*
X0154728Y0193741D02*
X0151931Y0193741D01*
X0152929Y0192742D02*
X0154728Y0192742D01*
X0154728Y0191744D02*
X0153928Y0191744D01*
X0154728Y0195738D02*
X0149934Y0195738D01*
X0148935Y0196737D02*
X0153844Y0196737D01*
X0152845Y0197735D02*
X0148595Y0197735D01*
X0158036Y0197637D02*
X0159965Y0195709D01*
X0154728Y0215708D02*
X0104543Y0215708D01*
X0104130Y0216707D02*
X0154728Y0216707D01*
X0154728Y0217705D02*
X0103024Y0217705D01*
X0098463Y0218704D02*
X0154537Y0218704D01*
X0154528Y0219702D02*
X0098472Y0219702D01*
X0098472Y0221699D02*
X0154528Y0221699D01*
X0154533Y0222698D02*
X0098467Y0222698D01*
X0097866Y0223696D02*
X0155134Y0223696D01*
X0159579Y0223696D02*
X0160350Y0223696D01*
X0160350Y0222698D02*
X0159579Y0222698D01*
X0159579Y0221699D02*
X0160350Y0221699D01*
X0160350Y0220701D02*
X0176804Y0220701D01*
X0159579Y0220701D02*
X0093421Y0220701D01*
X0093421Y0221699D02*
X0092650Y0221699D01*
X0092650Y0222698D02*
X0093421Y0222698D01*
X0093421Y0223696D02*
X0092650Y0223696D01*
X0082000Y0222698D02*
X0081000Y0222698D01*
X0081000Y0221699D02*
X0082000Y0221699D01*
X0082000Y0220701D02*
X0081000Y0220701D01*
X0183131Y0185753D02*
X0204666Y0185753D01*
X0203667Y0186751D02*
X0184683Y0186751D01*
X0185491Y0187750D02*
X0202669Y0187750D01*
X0202200Y0188748D02*
X0185904Y0188748D01*
X0186048Y0189747D02*
X0202200Y0189747D01*
X0202200Y0190745D02*
X0186048Y0190745D01*
X0185700Y0191744D02*
X0202200Y0191744D01*
X0203161Y0192742D02*
X0185189Y0192742D01*
D34*
X0101500Y0215000D02*
X0100791Y0215709D01*
X0093035Y0215709D01*
X0086172Y0215709D01*
X0085095Y0214631D01*
X0084871Y0214631D01*
X0081500Y0211260D01*
D35*
X0081500Y0170000D01*
X0081500Y0154933D01*
X0085016Y0151417D01*
X0085083Y0151417D01*
X0091500Y0145000D01*
X0104000Y0143117D02*
X0107365Y0139752D01*
X0107365Y0139135D01*
X0121500Y0125000D01*
X0121500Y0113346D01*
X0120358Y0112205D01*
X0104000Y0143117D02*
X0104000Y0151772D01*
X0105428Y0153200D01*
X0105428Y0156454D01*
X0106483Y0157509D01*
X0109075Y0157509D01*
X0122563Y0170996D01*
X0122563Y0190000D01*
X0121500Y0195000D02*
X0121500Y0210000D01*
X0132209Y0220709D01*
X0159965Y0220709D01*
X0180791Y0220709D01*
X0181500Y0220000D01*
X0121500Y0210000D02*
X0110791Y0220709D01*
X0093035Y0220709D01*
D36*
X0116500Y0195000D02*
X0118744Y0195000D01*
X0122563Y0191181D01*
X0121382Y0190000D01*
X0116500Y0190000D01*
X0116500Y0185000D02*
X0122563Y0191063D01*
X0122563Y0191181D01*
X0122563Y0190000D01*
X0122563Y0186063D01*
X0121500Y0185000D01*
X0121500Y0190000D02*
X0121500Y0190118D01*
X0122563Y0191181D01*
X0126500Y0187244D01*
X0126500Y0185000D01*
X0122563Y0191181D02*
X0121500Y0192244D01*
X0121500Y0195000D01*
D37*
X0088587Y0115000D02*
X0086500Y0112913D01*
X0086500Y0099764D01*
X0088950Y0097314D01*
X0088950Y0096636D01*
X0102673Y0082913D01*
X0121500Y0082913D01*
X0076500Y0099764D02*
X0074413Y0101850D01*
X0074413Y0115000D01*
D38*
X0088587Y0115000D02*
X0099846Y0115000D01*
X0102642Y0112205D01*
X0120358Y0112205D01*
X0132642Y0112205D01*
X0150358Y0112205D01*
X0164295Y0098268D01*
X0164295Y0085000D01*
X0164295Y0060238D01*
X0155486Y0051428D01*
X0155486Y0042923D01*
X0146500Y0033937D01*
X0121500Y0050000D02*
X0078448Y0050000D01*
X0053962Y0025513D01*
X0039038Y0025513D01*
X0035100Y0029452D01*
X0035100Y0058401D01*
X0038849Y0062150D01*
X0039400Y0062150D01*
X0046500Y0069250D01*
X0046500Y0085750D01*
X0053900Y0096850D02*
X0046500Y0104250D01*
X0046500Y0125812D01*
X0053700Y0133012D01*
X0053700Y0146988D01*
X0046500Y0154188D01*
X0046500Y0155000D01*
X0031500Y0150000D02*
X0031500Y0100000D01*
X0031500Y0095000D01*
X0021500Y0099144D02*
X0014100Y0091744D01*
X0014100Y0063256D01*
X0019206Y0058150D01*
X0027494Y0058150D01*
X0028900Y0056744D01*
X0028900Y0044756D01*
X0026500Y0042356D01*
X0026500Y0035000D01*
X0020557Y0039057D02*
X0016500Y0035000D01*
X0020557Y0039057D02*
X0020557Y0041005D01*
X0021500Y0041948D01*
X0021500Y0050750D01*
X0018100Y0054150D01*
X0017549Y0054150D01*
X0005300Y0066399D01*
X0005300Y0173800D01*
X0016500Y0185000D01*
X0016500Y0165000D02*
X0031500Y0150000D01*
X0016500Y0154188D02*
X0009300Y0146988D01*
X0009300Y0116450D01*
X0021500Y0104250D01*
X0021500Y0099144D01*
X0021500Y0085750D02*
X0021500Y0069250D01*
X0046500Y0069250D01*
X0053900Y0062400D02*
X0049650Y0058150D01*
X0040506Y0058150D01*
X0039100Y0056744D01*
X0039100Y0044756D01*
X0041500Y0042356D01*
X0041500Y0035000D01*
X0051500Y0035000D02*
X0051500Y0045750D01*
X0046500Y0050750D01*
X0049900Y0054150D01*
X0051307Y0054150D01*
X0057900Y0060743D01*
X0057900Y0173600D01*
X0046500Y0185000D01*
X0016500Y0155000D02*
X0016500Y0154188D01*
X0053900Y0096850D02*
X0053900Y0062400D01*
D39*
X0076500Y0099764D02*
X0101264Y0075000D01*
X0126500Y0075000D01*
X0196500Y0110000D02*
X0201800Y0115300D01*
X0201800Y0121947D01*
X0204553Y0124700D01*
X0207847Y0124700D01*
X0211800Y0128653D01*
X0211800Y0131947D01*
X0214553Y0134700D01*
X0217847Y0134700D01*
X0224583Y0141436D01*
X0224583Y0150000D01*
X0216500Y0160000D02*
X0226500Y0170000D01*
X0231500Y0170000D01*
D40*
X0138705Y0085000D02*
X0134823Y0085000D01*
X0126741Y0093081D01*
X0125505Y0093081D01*
X0121500Y0097087D01*
X0118823Y0099764D01*
X0096500Y0099764D01*
X0133151Y0064073D02*
X0133151Y0061651D01*
X0121500Y0050000D01*
X0121500Y0040000D02*
X0127957Y0040000D01*
X0146500Y0058543D01*
X0138705Y0069627D02*
X0133151Y0064073D01*
X0138705Y0069627D02*
X0138705Y0085000D01*
D41*
X0066500Y0130000D02*
X0062650Y0133850D01*
X0062650Y0189099D01*
X0051199Y0200550D01*
X0050950Y0200550D01*
X0046500Y0205000D01*
X0045240Y0206260D01*
X0045240Y0215000D01*
D42*
X0151500Y0205000D03*
M02*
