G75*
%MOIN*%
%OFA0B0*%
%FSLAX25Y25*%
%IPPOS*%
%LPD*%
%AMOC8*
5,1,8,0,0,1.08239X$1,22.5*
%
%ADD10C,0.00000*%
%ADD11C,0.05846*%
%ADD12R,0.05846X0.05846*%
%ADD13R,0.05118X0.05906*%
%ADD14R,0.05906X0.05118*%
%ADD15C,0.16598*%
%ADD16C,0.15024*%
%ADD17C,0.07400*%
%ADD18R,0.10000X0.10000*%
%ADD19C,0.04800*%
%ADD20R,0.07874X0.05906*%
%ADD21R,0.07874X0.14961*%
%ADD22R,0.06496X0.06496*%
%ADD23C,0.06496*%
%ADD24C,0.07087*%
%ADD25R,0.03543X0.03150*%
%ADD26R,0.03150X0.03543*%
%ADD27OC8,0.06000*%
%ADD28R,0.04600X0.01400*%
%ADD29R,0.05906X0.05906*%
%ADD30C,0.05906*%
%ADD31R,0.07098X0.06299*%
%ADD32R,0.06299X0.07098*%
%ADD33C,0.01000*%
%ADD34C,0.03565*%
%ADD35C,0.03200*%
%ADD36C,0.01500*%
%ADD37C,0.02000*%
%ADD38C,0.05000*%
%ADD39C,0.04700*%
%ADD40C,0.03762*%
%ADD41C,0.01800*%
D10*
X0001500Y0020000D02*
X0001500Y0253701D01*
X0241421Y0253701D01*
X0241421Y0020000D01*
X0001500Y0020000D01*
X0005595Y0245000D02*
X0005597Y0245153D01*
X0005603Y0245306D01*
X0005613Y0245459D01*
X0005627Y0245612D01*
X0005645Y0245764D01*
X0005667Y0245916D01*
X0005692Y0246067D01*
X0005722Y0246218D01*
X0005755Y0246367D01*
X0005793Y0246516D01*
X0005834Y0246664D01*
X0005879Y0246810D01*
X0005928Y0246955D01*
X0005981Y0247099D01*
X0006037Y0247242D01*
X0006097Y0247383D01*
X0006161Y0247523D01*
X0006228Y0247660D01*
X0006299Y0247796D01*
X0006373Y0247930D01*
X0006451Y0248062D01*
X0006532Y0248192D01*
X0006617Y0248320D01*
X0006705Y0248446D01*
X0006796Y0248569D01*
X0006890Y0248690D01*
X0006987Y0248809D01*
X0007088Y0248925D01*
X0007191Y0249038D01*
X0007298Y0249148D01*
X0007407Y0249256D01*
X0007518Y0249361D01*
X0007633Y0249463D01*
X0007750Y0249562D01*
X0007870Y0249657D01*
X0007992Y0249750D01*
X0008117Y0249840D01*
X0008243Y0249926D01*
X0008372Y0250009D01*
X0008503Y0250088D01*
X0008636Y0250164D01*
X0008771Y0250237D01*
X0008908Y0250306D01*
X0009047Y0250371D01*
X0009187Y0250433D01*
X0009329Y0250491D01*
X0009472Y0250546D01*
X0009617Y0250597D01*
X0009763Y0250644D01*
X0009910Y0250687D01*
X0010058Y0250726D01*
X0010207Y0250762D01*
X0010357Y0250793D01*
X0010508Y0250821D01*
X0010660Y0250845D01*
X0010812Y0250865D01*
X0010964Y0250881D01*
X0011117Y0250893D01*
X0011270Y0250901D01*
X0011423Y0250905D01*
X0011577Y0250905D01*
X0011730Y0250901D01*
X0011883Y0250893D01*
X0012036Y0250881D01*
X0012188Y0250865D01*
X0012340Y0250845D01*
X0012492Y0250821D01*
X0012643Y0250793D01*
X0012793Y0250762D01*
X0012942Y0250726D01*
X0013090Y0250687D01*
X0013237Y0250644D01*
X0013383Y0250597D01*
X0013528Y0250546D01*
X0013671Y0250491D01*
X0013813Y0250433D01*
X0013953Y0250371D01*
X0014092Y0250306D01*
X0014229Y0250237D01*
X0014364Y0250164D01*
X0014497Y0250088D01*
X0014628Y0250009D01*
X0014757Y0249926D01*
X0014883Y0249840D01*
X0015008Y0249750D01*
X0015130Y0249657D01*
X0015250Y0249562D01*
X0015367Y0249463D01*
X0015482Y0249361D01*
X0015593Y0249256D01*
X0015702Y0249148D01*
X0015809Y0249038D01*
X0015912Y0248925D01*
X0016013Y0248809D01*
X0016110Y0248690D01*
X0016204Y0248569D01*
X0016295Y0248446D01*
X0016383Y0248320D01*
X0016468Y0248192D01*
X0016549Y0248062D01*
X0016627Y0247930D01*
X0016701Y0247796D01*
X0016772Y0247660D01*
X0016839Y0247523D01*
X0016903Y0247383D01*
X0016963Y0247242D01*
X0017019Y0247099D01*
X0017072Y0246955D01*
X0017121Y0246810D01*
X0017166Y0246664D01*
X0017207Y0246516D01*
X0017245Y0246367D01*
X0017278Y0246218D01*
X0017308Y0246067D01*
X0017333Y0245916D01*
X0017355Y0245764D01*
X0017373Y0245612D01*
X0017387Y0245459D01*
X0017397Y0245306D01*
X0017403Y0245153D01*
X0017405Y0245000D01*
X0017403Y0244847D01*
X0017397Y0244694D01*
X0017387Y0244541D01*
X0017373Y0244388D01*
X0017355Y0244236D01*
X0017333Y0244084D01*
X0017308Y0243933D01*
X0017278Y0243782D01*
X0017245Y0243633D01*
X0017207Y0243484D01*
X0017166Y0243336D01*
X0017121Y0243190D01*
X0017072Y0243045D01*
X0017019Y0242901D01*
X0016963Y0242758D01*
X0016903Y0242617D01*
X0016839Y0242477D01*
X0016772Y0242340D01*
X0016701Y0242204D01*
X0016627Y0242070D01*
X0016549Y0241938D01*
X0016468Y0241808D01*
X0016383Y0241680D01*
X0016295Y0241554D01*
X0016204Y0241431D01*
X0016110Y0241310D01*
X0016013Y0241191D01*
X0015912Y0241075D01*
X0015809Y0240962D01*
X0015702Y0240852D01*
X0015593Y0240744D01*
X0015482Y0240639D01*
X0015367Y0240537D01*
X0015250Y0240438D01*
X0015130Y0240343D01*
X0015008Y0240250D01*
X0014883Y0240160D01*
X0014757Y0240074D01*
X0014628Y0239991D01*
X0014497Y0239912D01*
X0014364Y0239836D01*
X0014229Y0239763D01*
X0014092Y0239694D01*
X0013953Y0239629D01*
X0013813Y0239567D01*
X0013671Y0239509D01*
X0013528Y0239454D01*
X0013383Y0239403D01*
X0013237Y0239356D01*
X0013090Y0239313D01*
X0012942Y0239274D01*
X0012793Y0239238D01*
X0012643Y0239207D01*
X0012492Y0239179D01*
X0012340Y0239155D01*
X0012188Y0239135D01*
X0012036Y0239119D01*
X0011883Y0239107D01*
X0011730Y0239099D01*
X0011577Y0239095D01*
X0011423Y0239095D01*
X0011270Y0239099D01*
X0011117Y0239107D01*
X0010964Y0239119D01*
X0010812Y0239135D01*
X0010660Y0239155D01*
X0010508Y0239179D01*
X0010357Y0239207D01*
X0010207Y0239238D01*
X0010058Y0239274D01*
X0009910Y0239313D01*
X0009763Y0239356D01*
X0009617Y0239403D01*
X0009472Y0239454D01*
X0009329Y0239509D01*
X0009187Y0239567D01*
X0009047Y0239629D01*
X0008908Y0239694D01*
X0008771Y0239763D01*
X0008636Y0239836D01*
X0008503Y0239912D01*
X0008372Y0239991D01*
X0008243Y0240074D01*
X0008117Y0240160D01*
X0007992Y0240250D01*
X0007870Y0240343D01*
X0007750Y0240438D01*
X0007633Y0240537D01*
X0007518Y0240639D01*
X0007407Y0240744D01*
X0007298Y0240852D01*
X0007191Y0240962D01*
X0007088Y0241075D01*
X0006987Y0241191D01*
X0006890Y0241310D01*
X0006796Y0241431D01*
X0006705Y0241554D01*
X0006617Y0241680D01*
X0006532Y0241808D01*
X0006451Y0241938D01*
X0006373Y0242070D01*
X0006299Y0242204D01*
X0006228Y0242340D01*
X0006161Y0242477D01*
X0006097Y0242617D01*
X0006037Y0242758D01*
X0005981Y0242901D01*
X0005928Y0243045D01*
X0005879Y0243190D01*
X0005834Y0243336D01*
X0005793Y0243484D01*
X0005755Y0243633D01*
X0005722Y0243782D01*
X0005692Y0243933D01*
X0005667Y0244084D01*
X0005645Y0244236D01*
X0005627Y0244388D01*
X0005613Y0244541D01*
X0005603Y0244694D01*
X0005597Y0244847D01*
X0005595Y0245000D01*
X0225595Y0245000D02*
X0225597Y0245153D01*
X0225603Y0245306D01*
X0225613Y0245459D01*
X0225627Y0245612D01*
X0225645Y0245764D01*
X0225667Y0245916D01*
X0225692Y0246067D01*
X0225722Y0246218D01*
X0225755Y0246367D01*
X0225793Y0246516D01*
X0225834Y0246664D01*
X0225879Y0246810D01*
X0225928Y0246955D01*
X0225981Y0247099D01*
X0226037Y0247242D01*
X0226097Y0247383D01*
X0226161Y0247523D01*
X0226228Y0247660D01*
X0226299Y0247796D01*
X0226373Y0247930D01*
X0226451Y0248062D01*
X0226532Y0248192D01*
X0226617Y0248320D01*
X0226705Y0248446D01*
X0226796Y0248569D01*
X0226890Y0248690D01*
X0226987Y0248809D01*
X0227088Y0248925D01*
X0227191Y0249038D01*
X0227298Y0249148D01*
X0227407Y0249256D01*
X0227518Y0249361D01*
X0227633Y0249463D01*
X0227750Y0249562D01*
X0227870Y0249657D01*
X0227992Y0249750D01*
X0228117Y0249840D01*
X0228243Y0249926D01*
X0228372Y0250009D01*
X0228503Y0250088D01*
X0228636Y0250164D01*
X0228771Y0250237D01*
X0228908Y0250306D01*
X0229047Y0250371D01*
X0229187Y0250433D01*
X0229329Y0250491D01*
X0229472Y0250546D01*
X0229617Y0250597D01*
X0229763Y0250644D01*
X0229910Y0250687D01*
X0230058Y0250726D01*
X0230207Y0250762D01*
X0230357Y0250793D01*
X0230508Y0250821D01*
X0230660Y0250845D01*
X0230812Y0250865D01*
X0230964Y0250881D01*
X0231117Y0250893D01*
X0231270Y0250901D01*
X0231423Y0250905D01*
X0231577Y0250905D01*
X0231730Y0250901D01*
X0231883Y0250893D01*
X0232036Y0250881D01*
X0232188Y0250865D01*
X0232340Y0250845D01*
X0232492Y0250821D01*
X0232643Y0250793D01*
X0232793Y0250762D01*
X0232942Y0250726D01*
X0233090Y0250687D01*
X0233237Y0250644D01*
X0233383Y0250597D01*
X0233528Y0250546D01*
X0233671Y0250491D01*
X0233813Y0250433D01*
X0233953Y0250371D01*
X0234092Y0250306D01*
X0234229Y0250237D01*
X0234364Y0250164D01*
X0234497Y0250088D01*
X0234628Y0250009D01*
X0234757Y0249926D01*
X0234883Y0249840D01*
X0235008Y0249750D01*
X0235130Y0249657D01*
X0235250Y0249562D01*
X0235367Y0249463D01*
X0235482Y0249361D01*
X0235593Y0249256D01*
X0235702Y0249148D01*
X0235809Y0249038D01*
X0235912Y0248925D01*
X0236013Y0248809D01*
X0236110Y0248690D01*
X0236204Y0248569D01*
X0236295Y0248446D01*
X0236383Y0248320D01*
X0236468Y0248192D01*
X0236549Y0248062D01*
X0236627Y0247930D01*
X0236701Y0247796D01*
X0236772Y0247660D01*
X0236839Y0247523D01*
X0236903Y0247383D01*
X0236963Y0247242D01*
X0237019Y0247099D01*
X0237072Y0246955D01*
X0237121Y0246810D01*
X0237166Y0246664D01*
X0237207Y0246516D01*
X0237245Y0246367D01*
X0237278Y0246218D01*
X0237308Y0246067D01*
X0237333Y0245916D01*
X0237355Y0245764D01*
X0237373Y0245612D01*
X0237387Y0245459D01*
X0237397Y0245306D01*
X0237403Y0245153D01*
X0237405Y0245000D01*
X0237403Y0244847D01*
X0237397Y0244694D01*
X0237387Y0244541D01*
X0237373Y0244388D01*
X0237355Y0244236D01*
X0237333Y0244084D01*
X0237308Y0243933D01*
X0237278Y0243782D01*
X0237245Y0243633D01*
X0237207Y0243484D01*
X0237166Y0243336D01*
X0237121Y0243190D01*
X0237072Y0243045D01*
X0237019Y0242901D01*
X0236963Y0242758D01*
X0236903Y0242617D01*
X0236839Y0242477D01*
X0236772Y0242340D01*
X0236701Y0242204D01*
X0236627Y0242070D01*
X0236549Y0241938D01*
X0236468Y0241808D01*
X0236383Y0241680D01*
X0236295Y0241554D01*
X0236204Y0241431D01*
X0236110Y0241310D01*
X0236013Y0241191D01*
X0235912Y0241075D01*
X0235809Y0240962D01*
X0235702Y0240852D01*
X0235593Y0240744D01*
X0235482Y0240639D01*
X0235367Y0240537D01*
X0235250Y0240438D01*
X0235130Y0240343D01*
X0235008Y0240250D01*
X0234883Y0240160D01*
X0234757Y0240074D01*
X0234628Y0239991D01*
X0234497Y0239912D01*
X0234364Y0239836D01*
X0234229Y0239763D01*
X0234092Y0239694D01*
X0233953Y0239629D01*
X0233813Y0239567D01*
X0233671Y0239509D01*
X0233528Y0239454D01*
X0233383Y0239403D01*
X0233237Y0239356D01*
X0233090Y0239313D01*
X0232942Y0239274D01*
X0232793Y0239238D01*
X0232643Y0239207D01*
X0232492Y0239179D01*
X0232340Y0239155D01*
X0232188Y0239135D01*
X0232036Y0239119D01*
X0231883Y0239107D01*
X0231730Y0239099D01*
X0231577Y0239095D01*
X0231423Y0239095D01*
X0231270Y0239099D01*
X0231117Y0239107D01*
X0230964Y0239119D01*
X0230812Y0239135D01*
X0230660Y0239155D01*
X0230508Y0239179D01*
X0230357Y0239207D01*
X0230207Y0239238D01*
X0230058Y0239274D01*
X0229910Y0239313D01*
X0229763Y0239356D01*
X0229617Y0239403D01*
X0229472Y0239454D01*
X0229329Y0239509D01*
X0229187Y0239567D01*
X0229047Y0239629D01*
X0228908Y0239694D01*
X0228771Y0239763D01*
X0228636Y0239836D01*
X0228503Y0239912D01*
X0228372Y0239991D01*
X0228243Y0240074D01*
X0228117Y0240160D01*
X0227992Y0240250D01*
X0227870Y0240343D01*
X0227750Y0240438D01*
X0227633Y0240537D01*
X0227518Y0240639D01*
X0227407Y0240744D01*
X0227298Y0240852D01*
X0227191Y0240962D01*
X0227088Y0241075D01*
X0226987Y0241191D01*
X0226890Y0241310D01*
X0226796Y0241431D01*
X0226705Y0241554D01*
X0226617Y0241680D01*
X0226532Y0241808D01*
X0226451Y0241938D01*
X0226373Y0242070D01*
X0226299Y0242204D01*
X0226228Y0242340D01*
X0226161Y0242477D01*
X0226097Y0242617D01*
X0226037Y0242758D01*
X0225981Y0242901D01*
X0225928Y0243045D01*
X0225879Y0243190D01*
X0225834Y0243336D01*
X0225793Y0243484D01*
X0225755Y0243633D01*
X0225722Y0243782D01*
X0225692Y0243933D01*
X0225667Y0244084D01*
X0225645Y0244236D01*
X0225627Y0244388D01*
X0225613Y0244541D01*
X0225603Y0244694D01*
X0225597Y0244847D01*
X0225595Y0245000D01*
X0225595Y0030000D02*
X0225597Y0030153D01*
X0225603Y0030306D01*
X0225613Y0030459D01*
X0225627Y0030612D01*
X0225645Y0030764D01*
X0225667Y0030916D01*
X0225692Y0031067D01*
X0225722Y0031218D01*
X0225755Y0031367D01*
X0225793Y0031516D01*
X0225834Y0031664D01*
X0225879Y0031810D01*
X0225928Y0031955D01*
X0225981Y0032099D01*
X0226037Y0032242D01*
X0226097Y0032383D01*
X0226161Y0032523D01*
X0226228Y0032660D01*
X0226299Y0032796D01*
X0226373Y0032930D01*
X0226451Y0033062D01*
X0226532Y0033192D01*
X0226617Y0033320D01*
X0226705Y0033446D01*
X0226796Y0033569D01*
X0226890Y0033690D01*
X0226987Y0033809D01*
X0227088Y0033925D01*
X0227191Y0034038D01*
X0227298Y0034148D01*
X0227407Y0034256D01*
X0227518Y0034361D01*
X0227633Y0034463D01*
X0227750Y0034562D01*
X0227870Y0034657D01*
X0227992Y0034750D01*
X0228117Y0034840D01*
X0228243Y0034926D01*
X0228372Y0035009D01*
X0228503Y0035088D01*
X0228636Y0035164D01*
X0228771Y0035237D01*
X0228908Y0035306D01*
X0229047Y0035371D01*
X0229187Y0035433D01*
X0229329Y0035491D01*
X0229472Y0035546D01*
X0229617Y0035597D01*
X0229763Y0035644D01*
X0229910Y0035687D01*
X0230058Y0035726D01*
X0230207Y0035762D01*
X0230357Y0035793D01*
X0230508Y0035821D01*
X0230660Y0035845D01*
X0230812Y0035865D01*
X0230964Y0035881D01*
X0231117Y0035893D01*
X0231270Y0035901D01*
X0231423Y0035905D01*
X0231577Y0035905D01*
X0231730Y0035901D01*
X0231883Y0035893D01*
X0232036Y0035881D01*
X0232188Y0035865D01*
X0232340Y0035845D01*
X0232492Y0035821D01*
X0232643Y0035793D01*
X0232793Y0035762D01*
X0232942Y0035726D01*
X0233090Y0035687D01*
X0233237Y0035644D01*
X0233383Y0035597D01*
X0233528Y0035546D01*
X0233671Y0035491D01*
X0233813Y0035433D01*
X0233953Y0035371D01*
X0234092Y0035306D01*
X0234229Y0035237D01*
X0234364Y0035164D01*
X0234497Y0035088D01*
X0234628Y0035009D01*
X0234757Y0034926D01*
X0234883Y0034840D01*
X0235008Y0034750D01*
X0235130Y0034657D01*
X0235250Y0034562D01*
X0235367Y0034463D01*
X0235482Y0034361D01*
X0235593Y0034256D01*
X0235702Y0034148D01*
X0235809Y0034038D01*
X0235912Y0033925D01*
X0236013Y0033809D01*
X0236110Y0033690D01*
X0236204Y0033569D01*
X0236295Y0033446D01*
X0236383Y0033320D01*
X0236468Y0033192D01*
X0236549Y0033062D01*
X0236627Y0032930D01*
X0236701Y0032796D01*
X0236772Y0032660D01*
X0236839Y0032523D01*
X0236903Y0032383D01*
X0236963Y0032242D01*
X0237019Y0032099D01*
X0237072Y0031955D01*
X0237121Y0031810D01*
X0237166Y0031664D01*
X0237207Y0031516D01*
X0237245Y0031367D01*
X0237278Y0031218D01*
X0237308Y0031067D01*
X0237333Y0030916D01*
X0237355Y0030764D01*
X0237373Y0030612D01*
X0237387Y0030459D01*
X0237397Y0030306D01*
X0237403Y0030153D01*
X0237405Y0030000D01*
X0237403Y0029847D01*
X0237397Y0029694D01*
X0237387Y0029541D01*
X0237373Y0029388D01*
X0237355Y0029236D01*
X0237333Y0029084D01*
X0237308Y0028933D01*
X0237278Y0028782D01*
X0237245Y0028633D01*
X0237207Y0028484D01*
X0237166Y0028336D01*
X0237121Y0028190D01*
X0237072Y0028045D01*
X0237019Y0027901D01*
X0236963Y0027758D01*
X0236903Y0027617D01*
X0236839Y0027477D01*
X0236772Y0027340D01*
X0236701Y0027204D01*
X0236627Y0027070D01*
X0236549Y0026938D01*
X0236468Y0026808D01*
X0236383Y0026680D01*
X0236295Y0026554D01*
X0236204Y0026431D01*
X0236110Y0026310D01*
X0236013Y0026191D01*
X0235912Y0026075D01*
X0235809Y0025962D01*
X0235702Y0025852D01*
X0235593Y0025744D01*
X0235482Y0025639D01*
X0235367Y0025537D01*
X0235250Y0025438D01*
X0235130Y0025343D01*
X0235008Y0025250D01*
X0234883Y0025160D01*
X0234757Y0025074D01*
X0234628Y0024991D01*
X0234497Y0024912D01*
X0234364Y0024836D01*
X0234229Y0024763D01*
X0234092Y0024694D01*
X0233953Y0024629D01*
X0233813Y0024567D01*
X0233671Y0024509D01*
X0233528Y0024454D01*
X0233383Y0024403D01*
X0233237Y0024356D01*
X0233090Y0024313D01*
X0232942Y0024274D01*
X0232793Y0024238D01*
X0232643Y0024207D01*
X0232492Y0024179D01*
X0232340Y0024155D01*
X0232188Y0024135D01*
X0232036Y0024119D01*
X0231883Y0024107D01*
X0231730Y0024099D01*
X0231577Y0024095D01*
X0231423Y0024095D01*
X0231270Y0024099D01*
X0231117Y0024107D01*
X0230964Y0024119D01*
X0230812Y0024135D01*
X0230660Y0024155D01*
X0230508Y0024179D01*
X0230357Y0024207D01*
X0230207Y0024238D01*
X0230058Y0024274D01*
X0229910Y0024313D01*
X0229763Y0024356D01*
X0229617Y0024403D01*
X0229472Y0024454D01*
X0229329Y0024509D01*
X0229187Y0024567D01*
X0229047Y0024629D01*
X0228908Y0024694D01*
X0228771Y0024763D01*
X0228636Y0024836D01*
X0228503Y0024912D01*
X0228372Y0024991D01*
X0228243Y0025074D01*
X0228117Y0025160D01*
X0227992Y0025250D01*
X0227870Y0025343D01*
X0227750Y0025438D01*
X0227633Y0025537D01*
X0227518Y0025639D01*
X0227407Y0025744D01*
X0227298Y0025852D01*
X0227191Y0025962D01*
X0227088Y0026075D01*
X0226987Y0026191D01*
X0226890Y0026310D01*
X0226796Y0026431D01*
X0226705Y0026554D01*
X0226617Y0026680D01*
X0226532Y0026808D01*
X0226451Y0026938D01*
X0226373Y0027070D01*
X0226299Y0027204D01*
X0226228Y0027340D01*
X0226161Y0027477D01*
X0226097Y0027617D01*
X0226037Y0027758D01*
X0225981Y0027901D01*
X0225928Y0028045D01*
X0225879Y0028190D01*
X0225834Y0028336D01*
X0225793Y0028484D01*
X0225755Y0028633D01*
X0225722Y0028782D01*
X0225692Y0028933D01*
X0225667Y0029084D01*
X0225645Y0029236D01*
X0225627Y0029388D01*
X0225613Y0029541D01*
X0225603Y0029694D01*
X0225597Y0029847D01*
X0225595Y0030000D01*
D11*
X0132642Y0112205D03*
X0132642Y0137795D03*
X0120358Y0137795D03*
X0102642Y0137795D03*
X0102642Y0112205D03*
X0150358Y0137795D03*
D12*
X0150358Y0112205D03*
X0120358Y0112205D03*
D13*
X0115240Y0120000D03*
X0107760Y0120000D03*
X0107760Y0130000D03*
X0115240Y0130000D03*
X0137760Y0130000D03*
X0145240Y0130000D03*
X0145240Y0120000D03*
X0137760Y0120000D03*
X0162760Y0150000D03*
X0170240Y0150000D03*
X0170240Y0160000D03*
X0162760Y0160000D03*
X0162760Y0170000D03*
X0170240Y0170000D03*
X0170240Y0180000D03*
X0162760Y0180000D03*
X0162760Y0190000D03*
X0170240Y0190000D03*
X0170240Y0200000D03*
X0162760Y0200000D03*
X0162760Y0210000D03*
X0170240Y0210000D03*
X0035240Y0210000D03*
X0027760Y0210000D03*
X0020240Y0225000D03*
X0012760Y0225000D03*
X0017760Y0125000D03*
X0025240Y0125000D03*
X0087760Y0060000D03*
X0095240Y0060000D03*
D14*
X0066500Y0081260D03*
X0066500Y0088740D03*
X0071500Y0141260D03*
X0071500Y0148740D03*
X0071500Y0161260D03*
X0071500Y0168740D03*
X0196500Y0191260D03*
X0196500Y0198740D03*
D15*
X0146500Y0058543D03*
D16*
X0165398Y0047323D03*
X0146500Y0033937D03*
D17*
X0121500Y0030000D03*
X0121500Y0040000D03*
X0121500Y0050000D03*
X0161500Y0115000D03*
X0171500Y0115000D03*
X0231500Y0170000D03*
X0231500Y0180000D03*
X0231500Y0190000D03*
X0231500Y0200000D03*
X0231500Y0210000D03*
X0231500Y0220000D03*
D18*
X0046500Y0104250D03*
X0046500Y0085750D03*
X0046500Y0069250D03*
X0046500Y0050750D03*
X0021500Y0050750D03*
X0021500Y0069250D03*
X0021500Y0085750D03*
X0021500Y0104250D03*
D19*
X0018900Y0135000D02*
X0014100Y0135000D01*
X0014100Y0145000D02*
X0018900Y0145000D01*
X0018900Y0155000D02*
X0014100Y0155000D01*
X0014100Y0165000D02*
X0018900Y0165000D01*
X0018900Y0175000D02*
X0014100Y0175000D01*
X0014100Y0185000D02*
X0018900Y0185000D01*
X0018900Y0195000D02*
X0014100Y0195000D01*
X0014100Y0205000D02*
X0018900Y0205000D01*
X0044100Y0205000D02*
X0048900Y0205000D01*
X0048900Y0195000D02*
X0044100Y0195000D01*
X0044100Y0185000D02*
X0048900Y0185000D01*
X0048900Y0175000D02*
X0044100Y0175000D01*
X0044100Y0165000D02*
X0048900Y0165000D01*
X0048900Y0155000D02*
X0044100Y0155000D01*
X0044100Y0145000D02*
X0048900Y0145000D01*
X0048900Y0135000D02*
X0044100Y0135000D01*
D20*
X0079098Y0089055D03*
X0079098Y0080000D03*
X0079098Y0070945D03*
D21*
X0103902Y0080000D03*
D22*
X0181500Y0030000D03*
D23*
X0181500Y0040000D03*
X0181500Y0050000D03*
X0181500Y0060000D03*
X0181500Y0070000D03*
X0181500Y0080000D03*
X0181500Y0090000D03*
X0181500Y0100000D03*
X0181500Y0110000D03*
X0181500Y0120000D03*
X0181500Y0130000D03*
X0181500Y0140000D03*
X0181500Y0150000D03*
X0181500Y0160000D03*
X0181500Y0170000D03*
X0181500Y0180000D03*
X0181500Y0190000D03*
X0181500Y0200000D03*
X0181500Y0210000D03*
X0181500Y0220000D03*
D24*
X0051500Y0038543D02*
X0051500Y0031457D01*
X0041500Y0031457D02*
X0041500Y0038543D01*
X0026500Y0038543D02*
X0026500Y0031457D01*
X0016500Y0031457D02*
X0016500Y0038543D01*
D25*
X0065437Y0141260D03*
X0065437Y0148740D03*
X0057563Y0145000D03*
X0065437Y0161260D03*
X0065437Y0168740D03*
X0057563Y0165000D03*
D26*
X0031500Y0196063D03*
X0027760Y0203937D03*
X0035240Y0203937D03*
X0020240Y0218937D03*
X0012760Y0218937D03*
X0016500Y0211063D03*
D27*
X0206500Y0210000D03*
X0206500Y0200000D03*
X0206500Y0190000D03*
X0206500Y0180000D03*
X0206500Y0170000D03*
X0206500Y0160000D03*
X0206500Y0150000D03*
X0206500Y0140000D03*
X0206500Y0130000D03*
X0206500Y0120000D03*
X0206500Y0110000D03*
X0206500Y0100000D03*
X0206500Y0090000D03*
X0206500Y0080000D03*
X0206500Y0070000D03*
X0206500Y0060000D03*
X0206500Y0050000D03*
X0206500Y0040000D03*
X0206500Y0030000D03*
X0216500Y0030000D03*
X0216500Y0040000D03*
X0216500Y0050000D03*
X0216500Y0060000D03*
X0216500Y0070000D03*
X0216500Y0080000D03*
X0216500Y0090000D03*
X0216500Y0100000D03*
X0216500Y0110000D03*
X0216500Y0120000D03*
X0216500Y0130000D03*
X0216500Y0140000D03*
X0216500Y0150000D03*
X0216500Y0160000D03*
X0216500Y0170000D03*
X0216500Y0180000D03*
X0216500Y0190000D03*
X0216500Y0200000D03*
X0216500Y0210000D03*
X0216500Y0220000D03*
X0206500Y0220000D03*
D28*
X0035600Y0147600D03*
X0035600Y0145000D03*
X0035600Y0142400D03*
X0027400Y0142400D03*
X0027400Y0145000D03*
X0027400Y0147600D03*
D29*
X0096500Y0099764D03*
D30*
X0086500Y0099764D03*
X0076500Y0099764D03*
D31*
X0066500Y0104402D03*
X0066500Y0115598D03*
X0131500Y0040598D03*
X0131500Y0029402D03*
D32*
X0092098Y0110000D03*
X0080902Y0110000D03*
D33*
X0072098Y0110000D01*
X0066500Y0115598D01*
X0067000Y0115857D02*
X0078097Y0115857D01*
X0077554Y0115049D02*
X0078905Y0115049D01*
X0072604Y0121350D01*
X0070774Y0121350D01*
X0069432Y0121906D01*
X0068406Y0122932D01*
X0063406Y0127932D01*
X0062850Y0129274D01*
X0062850Y0130726D01*
X0063406Y0132068D01*
X0064432Y0133094D01*
X0065450Y0133516D01*
X0064712Y0134254D01*
X0060565Y0138401D01*
X0060565Y0139452D01*
X0057892Y0142125D01*
X0057234Y0142125D01*
X0052086Y0136977D01*
X0052600Y0135736D01*
X0052600Y0134264D01*
X0052037Y0132904D01*
X0050996Y0131863D01*
X0049636Y0131300D01*
X0043364Y0131300D01*
X0042004Y0131863D01*
X0040963Y0132904D01*
X0040400Y0134264D01*
X0040400Y0135736D01*
X0040963Y0137096D01*
X0042004Y0138137D01*
X0043364Y0138700D01*
X0048717Y0138700D01*
X0054491Y0144474D01*
X0054491Y0147113D01*
X0055253Y0147875D01*
X0059873Y0147875D01*
X0060635Y0147113D01*
X0060635Y0144474D01*
X0062365Y0142743D01*
X0062365Y0143373D01*
X0063127Y0144135D01*
X0067247Y0144135D01*
X0067247Y0144357D01*
X0067890Y0145000D01*
X0067247Y0145643D01*
X0067247Y0145865D01*
X0063127Y0145865D01*
X0062365Y0146627D01*
X0062365Y0150853D01*
X0063127Y0151615D01*
X0067247Y0151615D01*
X0067247Y0151838D01*
X0068009Y0152599D01*
X0069541Y0152599D01*
X0068940Y0153200D01*
X0065766Y0153200D01*
X0064712Y0154254D01*
X0060565Y0158401D01*
X0060565Y0159452D01*
X0057892Y0162125D01*
X0057234Y0162125D01*
X0054400Y0159291D01*
X0054400Y0152722D01*
X0053346Y0151667D01*
X0050161Y0148483D01*
X0050996Y0148137D01*
X0052037Y0147096D01*
X0052600Y0145736D01*
X0052600Y0144264D01*
X0052037Y0142904D01*
X0050996Y0141863D01*
X0049636Y0141300D01*
X0043364Y0141300D01*
X0042004Y0141863D01*
X0040963Y0142904D01*
X0040400Y0144264D01*
X0040400Y0145736D01*
X0040427Y0145800D01*
X0039400Y0145800D01*
X0039400Y0145000D01*
X0035600Y0145000D01*
X0035000Y0145600D01*
X0032762Y0145600D01*
X0031500Y0146862D01*
X0031500Y0165000D01*
X0026500Y0165000D01*
X0016500Y0165000D01*
X0016800Y0164784D02*
X0046200Y0164784D01*
X0016800Y0164784D01*
X0016800Y0164700D02*
X0016800Y0165300D01*
X0016200Y0165300D01*
X0016200Y0168900D01*
X0013716Y0168900D01*
X0012962Y0168750D01*
X0012253Y0168456D01*
X0011614Y0168029D01*
X0011071Y0167486D01*
X0010644Y0166847D01*
X0010350Y0166138D01*
X0010200Y0165384D01*
X0010200Y0165300D01*
X0016200Y0165300D01*
X0016200Y0168900D01*
X0013716Y0168900D01*
X0012962Y0168750D01*
X0012253Y0168456D01*
X0011614Y0168029D01*
X0011500Y0167915D01*
X0011500Y0172085D01*
X0011614Y0171971D01*
X0012253Y0171544D01*
X0012962Y0171250D01*
X0013716Y0171100D01*
X0016200Y0171100D01*
X0016200Y0174700D01*
X0016800Y0174700D01*
X0016800Y0175300D01*
X0022800Y0175300D01*
X0022800Y0175384D01*
X0022650Y0176138D01*
X0022356Y0176847D01*
X0021929Y0177486D01*
X0021386Y0178029D01*
X0021131Y0178200D01*
X0022246Y0178200D01*
X0037246Y0193200D01*
X0040841Y0193200D01*
X0040963Y0192904D01*
X0042004Y0191863D01*
X0043364Y0191300D01*
X0049636Y0191300D01*
X0050800Y0191782D01*
X0050800Y0188218D01*
X0049636Y0188700D01*
X0043364Y0188700D01*
X0042004Y0188137D01*
X0040963Y0187096D01*
X0040400Y0185736D01*
X0040400Y0184264D01*
X0040963Y0182904D01*
X0042004Y0181863D01*
X0043364Y0181300D01*
X0049636Y0181300D01*
X0050800Y0181782D01*
X0050800Y0180832D01*
X0062365Y0169266D01*
X0062365Y0166627D01*
X0063127Y0165865D01*
X0067247Y0165865D01*
X0067247Y0165643D01*
X0067890Y0165000D01*
X0067247Y0164357D01*
X0067247Y0164135D01*
X0063127Y0164135D01*
X0062365Y0163373D01*
X0062365Y0162743D01*
X0060635Y0164474D01*
X0060635Y0167113D01*
X0059873Y0167875D01*
X0055253Y0167875D01*
X0054491Y0167113D01*
X0054491Y0164474D01*
X0051854Y0161837D01*
X0050800Y0160783D01*
X0050800Y0158218D01*
X0049636Y0158700D01*
X0043364Y0158700D01*
X0042004Y0158137D01*
X0040963Y0157096D01*
X0040400Y0155736D01*
X0040400Y0154264D01*
X0040963Y0152904D01*
X0042004Y0151863D01*
X0043364Y0151300D01*
X0047887Y0151300D01*
X0045316Y0148729D01*
X0044646Y0149400D01*
X0038638Y0149400D01*
X0038438Y0149600D01*
X0032762Y0149600D01*
X0032000Y0148838D01*
X0032000Y0146448D01*
X0031902Y0146279D01*
X0031800Y0145897D01*
X0031800Y0145000D01*
X0035600Y0145000D01*
X0035600Y0145000D01*
X0039400Y0145000D01*
X0039400Y0144103D01*
X0039298Y0143721D01*
X0039200Y0143552D01*
X0039200Y0141162D01*
X0038438Y0140400D01*
X0032784Y0140400D01*
X0030984Y0138600D01*
X0019877Y0138600D01*
X0020996Y0138137D01*
X0022037Y0137096D01*
X0022159Y0136800D01*
X0028334Y0136800D01*
X0054600Y0110534D01*
X0054600Y0103816D01*
X0064889Y0093527D01*
X0072442Y0101080D01*
X0072499Y0101219D01*
X0071349Y0102369D01*
X0071349Y0100713D01*
X0070588Y0099952D01*
X0062412Y0099952D01*
X0061651Y0100713D01*
X0061651Y0108090D01*
X0062412Y0108851D01*
X0070588Y0108851D01*
X0071349Y0108090D01*
X0071349Y0106202D01*
X0072608Y0106202D01*
X0075045Y0103764D01*
X0075654Y0104017D01*
X0077346Y0104017D01*
X0078909Y0103369D01*
X0080105Y0102173D01*
X0080753Y0100610D01*
X0080753Y0098918D01*
X0080105Y0097355D01*
X0078909Y0096158D01*
X0077816Y0095706D01*
X0075418Y0093308D01*
X0083574Y0093308D01*
X0084335Y0092546D01*
X0084335Y0085564D01*
X0083574Y0084802D01*
X0074623Y0084802D01*
X0074170Y0085255D01*
X0070365Y0085255D01*
X0070219Y0085109D01*
X0070374Y0085019D01*
X0070653Y0084740D01*
X0070851Y0084398D01*
X0070953Y0084016D01*
X0070953Y0081760D01*
X0067000Y0081760D01*
X0067000Y0080760D01*
X0070953Y0080760D01*
X0070953Y0078503D01*
X0070851Y0078122D01*
X0070653Y0077780D01*
X0070374Y0077500D01*
X0070032Y0077303D01*
X0069650Y0077201D01*
X0067000Y0077201D01*
X0067000Y0080760D01*
X0066000Y0080760D01*
X0062047Y0080760D01*
X0062047Y0078503D01*
X0062149Y0078122D01*
X0062347Y0077780D01*
X0062626Y0077500D01*
X0062968Y0077303D01*
X0063350Y0077201D01*
X0066000Y0077201D01*
X0066000Y0080760D01*
X0066000Y0081760D01*
X0062047Y0081760D01*
X0062047Y0084016D01*
X0062149Y0084398D01*
X0062347Y0084740D01*
X0062626Y0085019D01*
X0062781Y0085109D01*
X0062247Y0085643D01*
X0062247Y0091077D01*
X0056800Y0096525D01*
X0056800Y0062679D01*
X0056358Y0061613D01*
X0055543Y0060797D01*
X0051795Y0057050D01*
X0052038Y0057050D01*
X0052800Y0056288D01*
X0052800Y0048551D01*
X0053958Y0047393D01*
X0054400Y0046327D01*
X0054400Y0042493D01*
X0055606Y0041287D01*
X0056343Y0039507D01*
X0056343Y0030493D01*
X0055606Y0028713D01*
X0054244Y0027351D01*
X0052463Y0026613D01*
X0050537Y0026613D01*
X0048756Y0027351D01*
X0047394Y0028713D01*
X0046657Y0030493D01*
X0046657Y0039507D01*
X0047394Y0041287D01*
X0048600Y0042493D01*
X0048600Y0044450D01*
X0043507Y0044450D01*
X0043958Y0043999D01*
X0044400Y0042933D01*
X0044400Y0042493D01*
X0045606Y0041287D01*
X0046343Y0039507D01*
X0046343Y0030493D01*
X0045606Y0028713D01*
X0044244Y0027351D01*
X0042463Y0026613D01*
X0040537Y0026613D01*
X0038756Y0027351D01*
X0037394Y0028713D01*
X0036657Y0030493D01*
X0036657Y0039507D01*
X0037394Y0041287D01*
X0037931Y0041824D01*
X0036641Y0043113D01*
X0036200Y0044179D01*
X0036200Y0057321D01*
X0036641Y0058387D01*
X0037457Y0059203D01*
X0038047Y0059793D01*
X0038863Y0060608D01*
X0039929Y0061050D01*
X0047593Y0061050D01*
X0049293Y0062750D01*
X0047000Y0062750D01*
X0047000Y0068750D01*
X0046000Y0068750D01*
X0046000Y0062750D01*
X0041303Y0062750D01*
X0040921Y0062852D01*
X0040579Y0063050D01*
X0040300Y0063329D01*
X0040102Y0063671D01*
X0040000Y0064053D01*
X0040000Y0068750D01*
X0046000Y0068750D01*
X0046000Y0069750D01*
X0046000Y0075750D01*
X0041303Y0075750D01*
X0040921Y0075648D01*
X0040579Y0075450D01*
X0040300Y0075171D01*
X0040102Y0074829D01*
X0040000Y0074447D01*
X0040000Y0069750D01*
X0046000Y0069750D01*
X0047000Y0069750D01*
X0047000Y0075750D01*
X0051000Y0075750D01*
X0051000Y0079250D01*
X0047000Y0079250D01*
X0047000Y0085250D01*
X0046000Y0085250D01*
X0046000Y0079250D01*
X0041303Y0079250D01*
X0040921Y0079352D01*
X0040579Y0079550D01*
X0040300Y0079829D01*
X0040102Y0080171D01*
X0040000Y0080553D01*
X0040000Y0085250D01*
X0046000Y0085250D01*
X0046000Y0086250D01*
X0046000Y0092250D01*
X0041303Y0092250D01*
X0040921Y0092148D01*
X0040579Y0091950D01*
X0040300Y0091671D01*
X0040102Y0091329D01*
X0040000Y0090947D01*
X0040000Y0086250D01*
X0046000Y0086250D01*
X0047000Y0086250D01*
X0047000Y0092250D01*
X0051000Y0092250D01*
X0051000Y0095649D01*
X0048699Y0097950D01*
X0040962Y0097950D01*
X0040200Y0098712D01*
X0040200Y0109788D01*
X0040962Y0110550D01*
X0049493Y0110550D01*
X0026843Y0133200D01*
X0022159Y0133200D01*
X0022037Y0132904D01*
X0020996Y0131863D01*
X0019636Y0131300D01*
X0018300Y0131300D01*
X0018300Y0129253D01*
X0020857Y0129253D01*
X0021391Y0128719D01*
X0021481Y0128874D01*
X0021760Y0129153D01*
X0022102Y0129351D01*
X0022484Y0129453D01*
X0024740Y0129453D01*
X0024740Y0125500D01*
X0025740Y0125500D01*
X0025740Y0129453D01*
X0027997Y0129453D01*
X0028378Y0129351D01*
X0028720Y0129153D01*
X0028999Y0128874D01*
X0029197Y0128532D01*
X0029299Y0128150D01*
X0029299Y0125500D01*
X0025740Y0125500D01*
X0025740Y0124500D01*
X0025740Y0120547D01*
X0027997Y0120547D01*
X0028378Y0120649D01*
X0028720Y0120847D01*
X0028999Y0121126D01*
X0029197Y0121468D01*
X0029299Y0121850D01*
X0029299Y0124500D01*
X0025740Y0124500D01*
X0024740Y0124500D01*
X0024740Y0120547D01*
X0022484Y0120547D01*
X0022102Y0120649D01*
X0021760Y0120847D01*
X0021481Y0121126D01*
X0021391Y0121281D01*
X0020857Y0120747D01*
X0014662Y0120747D01*
X0013901Y0121509D01*
X0013901Y0128491D01*
X0014662Y0129253D01*
X0014700Y0129253D01*
X0014700Y0131300D01*
X0013364Y0131300D01*
X0012004Y0131863D01*
X0010963Y0132904D01*
X0010400Y0134264D01*
X0010400Y0135736D01*
X0010963Y0137096D01*
X0012004Y0138137D01*
X0013123Y0138600D01*
X0012722Y0138600D01*
X0003954Y0147367D01*
X0003500Y0147822D01*
X0003500Y0022000D01*
X0239421Y0022000D01*
X0239421Y0225000D01*
X0169399Y0225000D01*
X0180069Y0214330D01*
X0180595Y0214548D01*
X0182405Y0214548D01*
X0184076Y0213856D01*
X0185356Y0212576D01*
X0185677Y0211800D01*
X0185754Y0211800D01*
X0193417Y0219463D01*
X0193417Y0220613D01*
X0193887Y0221746D01*
X0194754Y0222613D01*
X0195887Y0223083D01*
X0197113Y0223083D01*
X0198246Y0222613D01*
X0199113Y0221746D01*
X0199583Y0220613D01*
X0199583Y0219387D01*
X0199113Y0218254D01*
X0198246Y0217387D01*
X0197113Y0216917D01*
X0195963Y0216917D01*
X0188300Y0209254D01*
X0187246Y0208200D01*
X0185677Y0208200D01*
X0185356Y0207424D01*
X0184076Y0206144D01*
X0182405Y0205452D01*
X0180595Y0205452D01*
X0178924Y0206144D01*
X0177644Y0207424D01*
X0176952Y0209095D01*
X0176952Y0210905D01*
X0177170Y0211431D01*
X0165651Y0222950D01*
X0112349Y0222950D01*
X0104583Y0215184D01*
X0104583Y0214387D01*
X0104113Y0213254D01*
X0103246Y0212387D01*
X0102113Y0211917D01*
X0100887Y0211917D01*
X0099754Y0212387D01*
X0098887Y0213254D01*
X0098417Y0214387D01*
X0098417Y0215613D01*
X0098887Y0216746D01*
X0099754Y0217613D01*
X0100887Y0218083D01*
X0101684Y0218083D01*
X0108601Y0225000D01*
X0069046Y0225000D01*
X0092246Y0201800D01*
X0093300Y0200746D01*
X0093300Y0150746D01*
X0093422Y0150624D01*
X0093887Y0151746D01*
X0094700Y0152560D01*
X0094700Y0190746D01*
X0098417Y0194463D01*
X0098417Y0195613D01*
X0098887Y0196746D01*
X0099754Y0197613D01*
X0100887Y0198083D01*
X0102113Y0198083D01*
X0103246Y0197613D01*
X0104113Y0196746D01*
X0104583Y0195613D01*
X0104583Y0194387D01*
X0104113Y0193254D01*
X0103246Y0192387D01*
X0102113Y0191917D01*
X0100963Y0191917D01*
X0098300Y0189254D01*
X0098300Y0152560D01*
X0099113Y0151746D01*
X0099583Y0150613D01*
X0099583Y0149387D01*
X0099113Y0148254D01*
X0098246Y0147387D01*
X0097124Y0146922D01*
X0097246Y0146800D01*
X0105023Y0146800D01*
X0105836Y0147613D01*
X0106969Y0148083D01*
X0108196Y0148083D01*
X0109329Y0147613D01*
X0110196Y0146746D01*
X0110665Y0145613D01*
X0110665Y0144387D01*
X0110196Y0143254D01*
X0109329Y0142387D01*
X0108196Y0141917D01*
X0106969Y0141917D01*
X0105836Y0142387D01*
X0105023Y0143200D01*
X0096553Y0143200D01*
X0098871Y0140881D01*
X0099313Y0140439D01*
X0100249Y0141376D01*
X0101802Y0142018D01*
X0103482Y0142018D01*
X0105034Y0141376D01*
X0106222Y0140188D01*
X0106467Y0139595D01*
X0116533Y0139595D01*
X0116778Y0140188D01*
X0117966Y0141376D01*
X0119518Y0142018D01*
X0121198Y0142018D01*
X0122458Y0141497D01*
X0099700Y0164254D01*
X0099700Y0182440D01*
X0098887Y0183254D01*
X0098417Y0184387D01*
X0098417Y0185613D01*
X0098887Y0186746D01*
X0099754Y0187613D01*
X0100887Y0188083D01*
X0102113Y0188083D01*
X0103246Y0187613D01*
X0104113Y0186746D01*
X0104583Y0185613D01*
X0104583Y0184387D01*
X0104113Y0183254D01*
X0103300Y0182440D01*
X0103300Y0165746D01*
X0104700Y0164346D01*
X0104700Y0177440D01*
X0103887Y0178254D01*
X0103417Y0179387D01*
X0103417Y0180613D01*
X0103887Y0181746D01*
X0104754Y0182613D01*
X0105887Y0183083D01*
X0107113Y0183083D01*
X0108246Y0182613D01*
X0109113Y0181746D01*
X0109583Y0180613D01*
X0109583Y0179387D01*
X0109113Y0178254D01*
X0108300Y0177440D01*
X0108300Y0165746D01*
X0109700Y0164346D01*
X0109700Y0172440D01*
X0108887Y0173254D01*
X0108417Y0174387D01*
X0108417Y0175613D01*
X0108887Y0176746D01*
X0109754Y0177613D01*
X0110887Y0178083D01*
X0112113Y0178083D01*
X0113246Y0177613D01*
X0114113Y0176746D01*
X0114583Y0175613D01*
X0114583Y0174387D01*
X0114113Y0173254D01*
X0113300Y0172440D01*
X0113300Y0165746D01*
X0114700Y0164346D01*
X0114700Y0167440D01*
X0113887Y0168254D01*
X0113417Y0169387D01*
X0113417Y0170613D01*
X0113887Y0171746D01*
X0114754Y0172613D01*
X0115887Y0173083D01*
X0117113Y0173083D01*
X0118246Y0172613D01*
X0119113Y0171746D01*
X0119583Y0170613D01*
X0119583Y0169387D01*
X0119113Y0168254D01*
X0118300Y0167440D01*
X0118300Y0163291D01*
X0131191Y0150400D01*
X0153908Y0150400D01*
X0179046Y0125263D01*
X0180005Y0124303D01*
X0180595Y0124548D01*
X0182405Y0124548D01*
X0184076Y0123856D01*
X0185356Y0122576D01*
X0186048Y0120905D01*
X0186048Y0119095D01*
X0185356Y0117424D01*
X0184076Y0116144D01*
X0182405Y0115452D01*
X0180595Y0115452D01*
X0178924Y0116144D01*
X0178300Y0116768D01*
X0178300Y0115746D01*
X0179819Y0114226D01*
X0180595Y0114548D01*
X0182405Y0114548D01*
X0184076Y0113856D01*
X0185356Y0112576D01*
X0186048Y0110905D01*
X0186048Y0109095D01*
X0185356Y0107424D01*
X0184076Y0106144D01*
X0182405Y0105452D01*
X0180595Y0105452D01*
X0178924Y0106144D01*
X0177644Y0107424D01*
X0176952Y0109095D01*
X0176952Y0110905D01*
X0177274Y0111681D01*
X0176046Y0112909D01*
X0175739Y0112168D01*
X0174332Y0110761D01*
X0173591Y0110454D01*
X0179819Y0104226D01*
X0180595Y0104548D01*
X0182405Y0104548D01*
X0184076Y0103856D01*
X0185356Y0102576D01*
X0186048Y0100905D01*
X0186048Y0099095D01*
X0185356Y0097424D01*
X0184076Y0096144D01*
X0182405Y0095452D01*
X0180595Y0095452D01*
X0178924Y0096144D01*
X0177644Y0097424D01*
X0176952Y0099095D01*
X0176952Y0100905D01*
X0177274Y0101681D01*
X0170754Y0108200D01*
X0168683Y0108200D01*
X0165754Y0111129D01*
X0165227Y0111656D01*
X0164332Y0110761D01*
X0162495Y0110000D01*
X0161974Y0110000D01*
X0178521Y0093453D01*
X0178924Y0093856D01*
X0180595Y0094548D01*
X0182405Y0094548D01*
X0184076Y0093856D01*
X0185356Y0092576D01*
X0186048Y0090905D01*
X0186048Y0089095D01*
X0185356Y0087424D01*
X0184076Y0086144D01*
X0182405Y0085452D01*
X0180595Y0085452D01*
X0178924Y0086144D01*
X0177644Y0087424D01*
X0176952Y0089095D01*
X0176952Y0089931D01*
X0154204Y0112679D01*
X0150833Y0112679D01*
X0150833Y0111730D01*
X0154781Y0111730D01*
X0154781Y0109084D01*
X0154679Y0108703D01*
X0154482Y0108360D01*
X0154203Y0108081D01*
X0153860Y0107884D01*
X0153479Y0107781D01*
X0151264Y0107781D01*
X0177300Y0081745D01*
X0177644Y0082576D01*
X0178924Y0083856D01*
X0180595Y0084548D01*
X0182405Y0084548D01*
X0184076Y0083856D01*
X0185356Y0082576D01*
X0186048Y0080905D01*
X0186048Y0079095D01*
X0185356Y0077424D01*
X0185132Y0077200D01*
X0185589Y0077200D01*
X0194300Y0085911D01*
X0194300Y0107840D01*
X0193887Y0108254D01*
X0193417Y0109387D01*
X0193417Y0110613D01*
X0193887Y0111746D01*
X0194754Y0112613D01*
X0195887Y0113083D01*
X0197113Y0113083D01*
X0198246Y0112613D01*
X0199113Y0111746D01*
X0199583Y0110613D01*
X0199583Y0109387D01*
X0199113Y0108254D01*
X0198700Y0107840D01*
X0198700Y0084089D01*
X0197411Y0082800D01*
X0187411Y0072800D01*
X0186246Y0072800D01*
X0202246Y0056800D01*
X0203300Y0055746D01*
X0203300Y0052881D01*
X0204719Y0054300D01*
X0208281Y0054300D01*
X0210800Y0051781D01*
X0210800Y0048219D01*
X0208281Y0045700D01*
X0204719Y0045700D01*
X0203300Y0047119D01*
X0203300Y0042881D01*
X0204719Y0044300D01*
X0208281Y0044300D01*
X0210800Y0041781D01*
X0210800Y0038219D01*
X0208281Y0035700D01*
X0204719Y0035700D01*
X0203300Y0037119D01*
X0203300Y0034254D01*
X0202246Y0033200D01*
X0186048Y0033200D01*
X0186048Y0026213D01*
X0185287Y0025452D01*
X0177713Y0025452D01*
X0176952Y0026213D01*
X0176952Y0033200D01*
X0155493Y0033200D01*
X0155358Y0032175D01*
X0155052Y0031034D01*
X0154600Y0029943D01*
X0154009Y0028920D01*
X0153290Y0027982D01*
X0152455Y0027147D01*
X0151517Y0026428D01*
X0150494Y0025837D01*
X0149403Y0025385D01*
X0148262Y0025079D01*
X0147091Y0024925D01*
X0147000Y0024925D01*
X0147000Y0033200D01*
X0146000Y0033200D01*
X0146000Y0024925D01*
X0145909Y0024925D01*
X0144738Y0025079D01*
X0143597Y0025385D01*
X0142506Y0025837D01*
X0141483Y0026428D01*
X0140545Y0027147D01*
X0139710Y0027982D01*
X0138991Y0028920D01*
X0138400Y0029943D01*
X0137948Y0031034D01*
X0137642Y0032175D01*
X0137507Y0033200D01*
X0136407Y0033200D01*
X0136447Y0033130D01*
X0136549Y0032749D01*
X0136549Y0029902D01*
X0132000Y0029902D01*
X0132000Y0028902D01*
X0136549Y0028902D01*
X0136549Y0026054D01*
X0136447Y0025673D01*
X0136249Y0025331D01*
X0135970Y0025052D01*
X0135628Y0024854D01*
X0135247Y0024752D01*
X0132000Y0024752D01*
X0132000Y0028902D01*
X0131000Y0028902D01*
X0131000Y0024752D01*
X0127753Y0024752D01*
X0127372Y0024854D01*
X0127030Y0025052D01*
X0126750Y0025331D01*
X0126553Y0025673D01*
X0126451Y0026054D01*
X0126451Y0028887D01*
X0125739Y0027168D01*
X0124332Y0025761D01*
X0122495Y0025000D01*
X0120505Y0025000D01*
X0118668Y0025761D01*
X0117261Y0027168D01*
X0116500Y0029005D01*
X0116500Y0030995D01*
X0117261Y0032832D01*
X0117629Y0033200D01*
X0110754Y0033200D01*
X0109700Y0034254D01*
X0109700Y0034254D01*
X0090754Y0053200D01*
X0089700Y0054254D01*
X0089700Y0055547D01*
X0088260Y0055547D01*
X0088260Y0059500D01*
X0087260Y0059500D01*
X0087260Y0055547D01*
X0085003Y0055547D01*
X0084622Y0055649D01*
X0084280Y0055847D01*
X0084000Y0056126D01*
X0083803Y0056468D01*
X0083701Y0056850D01*
X0083701Y0059500D01*
X0087260Y0059500D01*
X0087260Y0060500D01*
X0087260Y0064453D01*
X0085003Y0064453D01*
X0084622Y0064351D01*
X0084280Y0064153D01*
X0084000Y0063874D01*
X0083803Y0063532D01*
X0083701Y0063150D01*
X0083701Y0060500D01*
X0087260Y0060500D01*
X0088260Y0060500D01*
X0088260Y0064453D01*
X0089700Y0064453D01*
X0089700Y0096667D01*
X0089401Y0096367D01*
X0088834Y0095955D01*
X0088209Y0095637D01*
X0087543Y0095421D01*
X0086984Y0095332D01*
X0086984Y0099279D01*
X0086016Y0099279D01*
X0086016Y0095332D01*
X0085457Y0095421D01*
X0084791Y0095637D01*
X0084166Y0095955D01*
X0083599Y0096367D01*
X0083104Y0096863D01*
X0082692Y0097430D01*
X0082373Y0098055D01*
X0082157Y0098721D01*
X0082068Y0099280D01*
X0086016Y0099280D01*
X0086016Y0100248D01*
X0086016Y0104195D01*
X0085457Y0104107D01*
X0084791Y0103890D01*
X0084166Y0103572D01*
X0083599Y0103160D01*
X0083104Y0102665D01*
X0082692Y0102098D01*
X0082373Y0101473D01*
X0082157Y0100806D01*
X0082068Y0100248D01*
X0086016Y0100248D01*
X0086984Y0100248D01*
X0086984Y0104195D01*
X0087543Y0104107D01*
X0088209Y0103890D01*
X0088448Y0103768D01*
X0088448Y0105151D01*
X0088410Y0105151D01*
X0087649Y0105912D01*
X0087649Y0106306D01*
X0085551Y0108403D01*
X0085551Y0106253D01*
X0085449Y0105872D01*
X0087689Y0105872D01*
X0087084Y0106870D02*
X0085551Y0106870D01*
X0085551Y0107869D02*
X0086085Y0107869D01*
X0085449Y0105872D02*
X0085251Y0105530D01*
X0084972Y0105250D01*
X0084630Y0105053D01*
X0084249Y0104951D01*
X0081402Y0104951D01*
X0081402Y0109500D01*
X0080402Y0109500D01*
X0080402Y0104951D01*
X0077554Y0104951D01*
X0077173Y0105053D01*
X0076831Y0105250D01*
X0076552Y0105530D01*
X0076354Y0105872D01*
X0072937Y0105872D01*
X0073936Y0104873D02*
X0088448Y0104873D01*
X0088448Y0103875D02*
X0088239Y0103875D01*
X0086984Y0103875D02*
X0086016Y0103875D01*
X0086500Y0104402D02*
X0086500Y0099764D01*
X0086016Y0099881D02*
X0080753Y0099881D01*
X0080738Y0098882D02*
X0082131Y0098882D01*
X0082460Y0097884D02*
X0080324Y0097884D01*
X0079636Y0096885D02*
X0083087Y0096885D01*
X0084301Y0095887D02*
X0078253Y0095887D01*
X0076999Y0094888D02*
X0089700Y0094888D01*
X0089700Y0093890D02*
X0076000Y0093890D01*
X0076500Y0099764D02*
X0071862Y0104402D01*
X0066500Y0104402D01*
X0061651Y0104873D02*
X0054600Y0104873D01*
X0054600Y0103875D02*
X0061651Y0103875D01*
X0061651Y0102876D02*
X0055539Y0102876D01*
X0056538Y0101878D02*
X0061651Y0101878D01*
X0061651Y0100879D02*
X0057536Y0100879D01*
X0058535Y0099881D02*
X0071243Y0099881D01*
X0071349Y0100879D02*
X0072242Y0100879D01*
X0071840Y0101878D02*
X0071349Y0101878D01*
X0070245Y0098882D02*
X0059533Y0098882D01*
X0060532Y0097884D02*
X0069246Y0097884D01*
X0068248Y0096885D02*
X0061530Y0096885D01*
X0062529Y0095887D02*
X0067249Y0095887D01*
X0066251Y0094888D02*
X0063527Y0094888D01*
X0064526Y0093890D02*
X0065252Y0093890D01*
X0062247Y0090894D02*
X0056800Y0090894D01*
X0056800Y0089896D02*
X0062247Y0089896D01*
X0062247Y0088897D02*
X0056800Y0088897D01*
X0056800Y0087899D02*
X0062247Y0087899D01*
X0062247Y0086900D02*
X0056800Y0086900D01*
X0056800Y0085902D02*
X0062247Y0085902D01*
X0062510Y0084903D02*
X0056800Y0084903D01*
X0056800Y0083905D02*
X0062047Y0083905D01*
X0062047Y0082906D02*
X0056800Y0082906D01*
X0056800Y0081908D02*
X0062047Y0081908D01*
X0062047Y0079911D02*
X0056800Y0079911D01*
X0056800Y0080909D02*
X0066000Y0080909D01*
X0066000Y0079911D02*
X0067000Y0079911D01*
X0067000Y0080909D02*
X0073861Y0080909D01*
X0073861Y0079911D02*
X0070953Y0079911D01*
X0070953Y0078912D02*
X0073861Y0078912D01*
X0073861Y0077914D02*
X0070730Y0077914D01*
X0073861Y0076915D02*
X0056800Y0076915D01*
X0056800Y0075917D02*
X0074454Y0075917D01*
X0074623Y0075747D02*
X0083574Y0075747D01*
X0084335Y0076509D01*
X0084335Y0083491D01*
X0083574Y0084253D01*
X0074623Y0084253D01*
X0073861Y0083491D01*
X0073861Y0076509D01*
X0074623Y0075747D01*
X0074582Y0075295D02*
X0074240Y0075098D01*
X0073961Y0074819D01*
X0073764Y0074477D01*
X0073661Y0074095D01*
X0073661Y0071445D01*
X0078598Y0071445D01*
X0078598Y0070445D01*
X0073661Y0070445D01*
X0073661Y0067795D01*
X0073764Y0067413D01*
X0073961Y0067071D01*
X0074240Y0066792D01*
X0074582Y0066594D01*
X0074964Y0066492D01*
X0078598Y0066492D01*
X0078598Y0070445D01*
X0079598Y0070445D01*
X0079598Y0066492D01*
X0083233Y0066492D01*
X0083614Y0066594D01*
X0083956Y0066792D01*
X0084236Y0067071D01*
X0084433Y0067413D01*
X0084535Y0067795D01*
X0084535Y0070445D01*
X0079598Y0070445D01*
X0079598Y0071445D01*
X0078598Y0071445D01*
X0078598Y0075398D01*
X0074964Y0075398D01*
X0074582Y0075295D01*
X0074061Y0074918D02*
X0056800Y0074918D01*
X0056800Y0073920D02*
X0073661Y0073920D01*
X0073661Y0072921D02*
X0056800Y0072921D01*
X0056800Y0071923D02*
X0073661Y0071923D01*
X0073661Y0069926D02*
X0056800Y0069926D01*
X0056800Y0070924D02*
X0078598Y0070924D01*
X0078598Y0069926D02*
X0079598Y0069926D01*
X0079598Y0070924D02*
X0089700Y0070924D01*
X0089700Y0069926D02*
X0084535Y0069926D01*
X0084535Y0068927D02*
X0089700Y0068927D01*
X0089700Y0067929D02*
X0084535Y0067929D01*
X0084095Y0066930D02*
X0089700Y0066930D01*
X0089700Y0065932D02*
X0056800Y0065932D01*
X0056800Y0066930D02*
X0074102Y0066930D01*
X0073661Y0067929D02*
X0056800Y0067929D01*
X0056800Y0068927D02*
X0073661Y0068927D01*
X0078598Y0068927D02*
X0079598Y0068927D01*
X0079598Y0067929D02*
X0078598Y0067929D01*
X0078598Y0066930D02*
X0079598Y0066930D01*
X0079598Y0071445D02*
X0084535Y0071445D01*
X0084535Y0074095D01*
X0084433Y0074477D01*
X0084236Y0074819D01*
X0083956Y0075098D01*
X0083614Y0075295D01*
X0083233Y0075398D01*
X0079598Y0075398D01*
X0079598Y0071445D01*
X0079598Y0071923D02*
X0078598Y0071923D01*
X0078598Y0072921D02*
X0079598Y0072921D01*
X0079598Y0073920D02*
X0078598Y0073920D01*
X0078598Y0074918D02*
X0079598Y0074918D01*
X0083743Y0075917D02*
X0089700Y0075917D01*
X0089700Y0076915D02*
X0084335Y0076915D01*
X0084335Y0077914D02*
X0089700Y0077914D01*
X0089700Y0078912D02*
X0084335Y0078912D01*
X0084335Y0079911D02*
X0089700Y0079911D01*
X0089700Y0080909D02*
X0084335Y0080909D01*
X0084335Y0081908D02*
X0089700Y0081908D01*
X0089700Y0082906D02*
X0084335Y0082906D01*
X0083922Y0083905D02*
X0089700Y0083905D01*
X0089700Y0084903D02*
X0083675Y0084903D01*
X0084335Y0085902D02*
X0089700Y0085902D01*
X0089700Y0086900D02*
X0084335Y0086900D01*
X0084335Y0087899D02*
X0089700Y0087899D01*
X0089700Y0088897D02*
X0084335Y0088897D01*
X0084335Y0089896D02*
X0089700Y0089896D01*
X0089700Y0090894D02*
X0084335Y0090894D01*
X0084335Y0091893D02*
X0089700Y0091893D01*
X0089700Y0092891D02*
X0083990Y0092891D01*
X0086016Y0095887D02*
X0086984Y0095887D01*
X0086984Y0096885D02*
X0086016Y0096885D01*
X0086016Y0097884D02*
X0086984Y0097884D01*
X0086984Y0098882D02*
X0086016Y0098882D01*
X0086016Y0100879D02*
X0086984Y0100879D01*
X0086984Y0101878D02*
X0086016Y0101878D01*
X0086016Y0102876D02*
X0086984Y0102876D01*
X0086500Y0104402D02*
X0080902Y0110000D01*
X0080402Y0109866D02*
X0054600Y0109866D01*
X0054600Y0108868D02*
X0076252Y0108868D01*
X0076252Y0109500D02*
X0076252Y0106253D01*
X0076354Y0105872D01*
X0076252Y0106870D02*
X0071349Y0106870D01*
X0071349Y0107869D02*
X0076252Y0107869D01*
X0076252Y0109500D02*
X0080402Y0109500D01*
X0080402Y0110500D01*
X0076252Y0110500D01*
X0076252Y0113747D01*
X0076354Y0114128D01*
X0076552Y0114470D01*
X0076831Y0114749D01*
X0077173Y0114947D01*
X0077554Y0115049D01*
X0077020Y0114859D02*
X0071549Y0114859D01*
X0071549Y0115098D02*
X0067000Y0115098D01*
X0067000Y0110949D01*
X0070247Y0110949D01*
X0070628Y0111051D01*
X0070970Y0111249D01*
X0071249Y0111528D01*
X0071447Y0111870D01*
X0071549Y0112251D01*
X0071549Y0115098D01*
X0071549Y0116098D02*
X0071549Y0118946D01*
X0071447Y0119327D01*
X0071249Y0119669D01*
X0070970Y0119948D01*
X0070628Y0120146D01*
X0070247Y0120248D01*
X0067000Y0120248D01*
X0067000Y0116098D01*
X0071549Y0116098D01*
X0071549Y0116856D02*
X0077099Y0116856D01*
X0076100Y0117854D02*
X0071549Y0117854D01*
X0071549Y0118853D02*
X0075102Y0118853D01*
X0074103Y0119851D02*
X0071067Y0119851D01*
X0073105Y0120850D02*
X0044284Y0120850D01*
X0043286Y0121848D02*
X0069571Y0121848D01*
X0068491Y0122847D02*
X0042287Y0122847D01*
X0041289Y0123845D02*
X0067493Y0123845D01*
X0066494Y0124844D02*
X0040290Y0124844D01*
X0039292Y0125842D02*
X0065496Y0125842D01*
X0064497Y0126841D02*
X0038293Y0126841D01*
X0037295Y0127839D02*
X0063499Y0127839D01*
X0063031Y0128838D02*
X0036296Y0128838D01*
X0035298Y0129836D02*
X0062850Y0129836D01*
X0062895Y0130835D02*
X0034299Y0130835D01*
X0033301Y0131833D02*
X0042077Y0131833D01*
X0041036Y0132832D02*
X0032302Y0132832D01*
X0031304Y0133830D02*
X0040580Y0133830D01*
X0040400Y0134829D02*
X0030305Y0134829D01*
X0029307Y0135827D02*
X0040438Y0135827D01*
X0040851Y0136826D02*
X0022149Y0136826D01*
X0021308Y0137824D02*
X0041692Y0137824D01*
X0042113Y0141818D02*
X0039200Y0141818D01*
X0039200Y0142817D02*
X0041051Y0142817D01*
X0040586Y0143815D02*
X0039323Y0143815D01*
X0039400Y0144814D02*
X0040400Y0144814D01*
X0038858Y0140820D02*
X0050837Y0140820D01*
X0050887Y0141818D02*
X0051836Y0141818D01*
X0051949Y0142817D02*
X0052834Y0142817D01*
X0052414Y0143815D02*
X0053833Y0143815D01*
X0054491Y0144814D02*
X0052600Y0144814D01*
X0052568Y0145812D02*
X0054491Y0145812D01*
X0054491Y0146811D02*
X0052155Y0146811D01*
X0051323Y0147809D02*
X0055188Y0147809D01*
X0052483Y0150805D02*
X0062365Y0150805D01*
X0062365Y0149806D02*
X0051485Y0149806D01*
X0050486Y0148808D02*
X0062365Y0148808D01*
X0062365Y0147809D02*
X0059938Y0147809D01*
X0060635Y0146811D02*
X0062365Y0146811D01*
X0060635Y0145812D02*
X0067247Y0145812D01*
X0067704Y0144814D02*
X0060635Y0144814D01*
X0061293Y0143815D02*
X0062808Y0143815D01*
X0062365Y0142817D02*
X0062292Y0142817D01*
X0062365Y0140198D02*
X0062365Y0139147D01*
X0066512Y0135000D01*
X0071500Y0135000D01*
X0071500Y0131917D02*
X0072113Y0131917D01*
X0073246Y0132387D01*
X0074113Y0133254D01*
X0074583Y0134387D01*
X0074583Y0135613D01*
X0074113Y0136746D01*
X0073459Y0137401D01*
X0074991Y0137401D01*
X0075753Y0138162D01*
X0075753Y0142967D01*
X0082786Y0150000D01*
X0086500Y0150000D01*
X0098419Y0138081D01*
X0098419Y0136955D01*
X0099061Y0135403D01*
X0100249Y0134215D01*
X0101529Y0133685D01*
X0101896Y0133318D01*
X0103901Y0131313D01*
X0103901Y0126509D01*
X0104662Y0125747D01*
X0105960Y0125747D01*
X0105960Y0124253D01*
X0104662Y0124253D01*
X0103901Y0123491D01*
X0103901Y0116509D01*
X0104335Y0116074D01*
X0103482Y0116428D01*
X0101802Y0116428D01*
X0100249Y0115785D01*
X0099061Y0114597D01*
X0098419Y0113045D01*
X0098419Y0111365D01*
X0099061Y0109812D01*
X0100249Y0108624D01*
X0101802Y0107981D01*
X0103482Y0107981D01*
X0105034Y0108624D01*
X0106222Y0109812D01*
X0106865Y0111365D01*
X0106865Y0113045D01*
X0106222Y0114597D01*
X0105072Y0115747D01*
X0110857Y0115747D01*
X0111391Y0116281D01*
X0111481Y0116126D01*
X0111760Y0115847D01*
X0112102Y0115649D01*
X0112484Y0115547D01*
X0114740Y0115547D01*
X0114740Y0119500D01*
X0115740Y0119500D01*
X0115740Y0115547D01*
X0116135Y0115547D01*
X0116135Y0108743D01*
X0116897Y0107981D01*
X0123820Y0107981D01*
X0124581Y0108743D01*
X0124581Y0115666D01*
X0123820Y0116428D01*
X0119174Y0116428D01*
X0119197Y0116468D01*
X0119299Y0116850D01*
X0119299Y0119500D01*
X0115740Y0119500D01*
X0115740Y0120500D01*
X0114740Y0120500D01*
X0114740Y0124453D01*
X0112484Y0124453D01*
X0112102Y0124351D01*
X0111760Y0124153D01*
X0111481Y0123874D01*
X0111391Y0123719D01*
X0110857Y0124253D01*
X0109560Y0124253D01*
X0109560Y0125747D01*
X0110857Y0125747D01*
X0111500Y0126390D01*
X0112143Y0125747D01*
X0118207Y0125747D01*
X0118417Y0125537D01*
X0118417Y0124387D01*
X0118449Y0124309D01*
X0118378Y0124351D01*
X0117997Y0124453D01*
X0115740Y0124453D01*
X0115740Y0120500D01*
X0119299Y0120500D01*
X0119299Y0122841D01*
X0119754Y0122387D01*
X0120887Y0121917D01*
X0122113Y0121917D01*
X0123246Y0122387D01*
X0124113Y0123254D01*
X0124583Y0124387D01*
X0124583Y0125613D01*
X0124113Y0126746D01*
X0123246Y0127613D01*
X0122113Y0128083D01*
X0120963Y0128083D01*
X0120846Y0128200D01*
X0133901Y0128200D01*
X0133901Y0126509D01*
X0134662Y0125747D01*
X0140857Y0125747D01*
X0141500Y0126390D01*
X0142143Y0125747D01*
X0143440Y0125747D01*
X0143440Y0124253D01*
X0142143Y0124253D01*
X0141609Y0123719D01*
X0141519Y0123874D01*
X0141240Y0124153D01*
X0140898Y0124351D01*
X0140516Y0124453D01*
X0138260Y0124453D01*
X0138260Y0120500D01*
X0137260Y0120500D01*
X0137260Y0124453D01*
X0135003Y0124453D01*
X0134622Y0124351D01*
X0134280Y0124153D01*
X0134000Y0123874D01*
X0133803Y0123532D01*
X0133701Y0123150D01*
X0133701Y0120500D01*
X0137260Y0120500D01*
X0137260Y0119500D01*
X0138260Y0119500D01*
X0138260Y0115547D01*
X0140516Y0115547D01*
X0140898Y0115649D01*
X0141240Y0115847D01*
X0141519Y0116126D01*
X0141609Y0116281D01*
X0142143Y0115747D01*
X0146216Y0115747D01*
X0146135Y0115666D01*
X0146135Y0108743D01*
X0146897Y0107981D01*
X0148518Y0107981D01*
X0176952Y0079548D01*
X0176952Y0079095D01*
X0177644Y0077424D01*
X0177868Y0077200D01*
X0128660Y0077200D01*
X0128246Y0077613D01*
X0127113Y0078083D01*
X0125887Y0078083D01*
X0124754Y0077613D01*
X0123887Y0076746D01*
X0123417Y0075613D01*
X0123417Y0074387D01*
X0123887Y0073254D01*
X0124754Y0072387D01*
X0125887Y0071917D01*
X0127113Y0071917D01*
X0128246Y0072387D01*
X0128660Y0072800D01*
X0177868Y0072800D01*
X0177644Y0072576D01*
X0176952Y0070905D01*
X0176952Y0069095D01*
X0177644Y0067424D01*
X0178924Y0066144D01*
X0180595Y0065452D01*
X0182405Y0065452D01*
X0184076Y0066144D01*
X0185356Y0067424D01*
X0186048Y0069095D01*
X0186048Y0070452D01*
X0201500Y0055000D01*
X0201500Y0035000D01*
X0155312Y0035000D01*
X0155312Y0035690D01*
X0153970Y0038928D01*
X0151491Y0041407D01*
X0148253Y0042749D01*
X0144747Y0042749D01*
X0141509Y0041407D01*
X0139030Y0038928D01*
X0137708Y0035737D01*
X0135290Y0035737D01*
X0134553Y0035000D01*
X0111974Y0035000D01*
X0093181Y0053793D01*
X0093181Y0055547D01*
X0094740Y0055547D01*
X0094740Y0059500D01*
X0095740Y0059500D01*
X0095740Y0055547D01*
X0097997Y0055547D01*
X0098378Y0055649D01*
X0098720Y0055847D01*
X0098999Y0056126D01*
X0099197Y0056468D01*
X0099299Y0056850D01*
X0099299Y0059500D01*
X0095740Y0059500D01*
X0095740Y0060500D01*
X0094740Y0060500D01*
X0094740Y0064453D01*
X0092484Y0064453D01*
X0092102Y0064351D01*
X0091760Y0064153D01*
X0091500Y0063893D01*
X0091500Y0099602D01*
X0092247Y0098855D01*
X0092247Y0096273D01*
X0093009Y0095511D01*
X0099991Y0095511D01*
X0100753Y0096273D01*
X0100753Y0103255D01*
X0099991Y0104017D01*
X0097409Y0104017D01*
X0096031Y0105395D01*
X0096548Y0105912D01*
X0096548Y0114088D01*
X0095787Y0114849D01*
X0092411Y0114849D01*
X0079166Y0128094D01*
X0077824Y0128650D01*
X0073012Y0128650D01*
X0071500Y0130162D01*
X0071500Y0131917D01*
X0071500Y0131833D02*
X0103381Y0131833D01*
X0103901Y0130835D02*
X0071500Y0130835D01*
X0071826Y0129836D02*
X0103901Y0129836D01*
X0103901Y0128838D02*
X0072824Y0128838D01*
X0073691Y0132832D02*
X0102382Y0132832D01*
X0101178Y0133830D02*
X0074352Y0133830D01*
X0074583Y0134829D02*
X0099636Y0134829D01*
X0098886Y0135827D02*
X0074494Y0135827D01*
X0074034Y0136826D02*
X0098472Y0136826D01*
X0098419Y0137824D02*
X0075415Y0137824D01*
X0075753Y0138823D02*
X0097677Y0138823D01*
X0096679Y0139821D02*
X0075753Y0139821D01*
X0075753Y0140820D02*
X0095680Y0140820D01*
X0094682Y0141818D02*
X0075753Y0141818D01*
X0075753Y0142817D02*
X0093683Y0142817D01*
X0092685Y0143815D02*
X0076601Y0143815D01*
X0077600Y0144814D02*
X0091686Y0144814D01*
X0090688Y0145812D02*
X0078598Y0145812D01*
X0079597Y0146811D02*
X0089689Y0146811D01*
X0088691Y0147809D02*
X0080595Y0147809D01*
X0081594Y0148808D02*
X0087692Y0148808D01*
X0086694Y0149806D02*
X0082592Y0149806D01*
X0083417Y0153177D02*
X0083417Y0156277D01*
X0086500Y0159360D01*
X0086500Y0160000D01*
X0089700Y0158200D02*
X0089700Y0195000D01*
X0074700Y0210000D01*
X0035240Y0210000D01*
X0035240Y0203937D01*
X0032562Y0199135D02*
X0049998Y0199135D01*
X0052600Y0196533D01*
X0052600Y0181577D01*
X0065437Y0168740D01*
X0071500Y0168740D01*
X0072760Y0170000D01*
X0081500Y0170000D01*
X0086500Y0165000D02*
X0082760Y0161260D01*
X0071500Y0161260D01*
X0065437Y0161260D01*
X0062365Y0160198D02*
X0062365Y0159147D01*
X0066512Y0155000D01*
X0071500Y0155000D01*
X0069338Y0152802D02*
X0054400Y0152802D01*
X0054400Y0153801D02*
X0065166Y0153801D01*
X0064167Y0154799D02*
X0054400Y0154799D01*
X0054400Y0155798D02*
X0063169Y0155798D01*
X0062170Y0156796D02*
X0054400Y0156796D01*
X0054400Y0157795D02*
X0061172Y0157795D01*
X0060565Y0158793D02*
X0054400Y0158793D01*
X0054900Y0159792D02*
X0060226Y0159792D01*
X0059227Y0160790D02*
X0055899Y0160790D01*
X0056897Y0161789D02*
X0058229Y0161789D01*
X0057563Y0165000D02*
X0062365Y0160198D01*
X0062321Y0162787D02*
X0062365Y0162787D01*
X0062778Y0163786D02*
X0061323Y0163786D01*
X0060635Y0164784D02*
X0067674Y0164784D01*
X0067247Y0165783D02*
X0060635Y0165783D01*
X0060635Y0166781D02*
X0062365Y0166781D01*
X0062365Y0167780D02*
X0059968Y0167780D01*
X0062365Y0168778D02*
X0049896Y0168778D01*
X0051500Y0168778D01*
X0051386Y0168029D02*
X0050747Y0168456D01*
X0050038Y0168750D01*
X0049284Y0168900D01*
X0046800Y0168900D01*
X0046800Y0165300D01*
X0046200Y0165300D01*
X0046200Y0168900D01*
X0043716Y0168900D01*
X0042962Y0168750D01*
X0042253Y0168456D01*
X0041614Y0168029D01*
X0041071Y0167486D01*
X0040644Y0166847D01*
X0040350Y0166138D01*
X0040200Y0165384D01*
X0040200Y0165300D01*
X0046200Y0165300D01*
X0046200Y0168900D01*
X0043716Y0168900D01*
X0042962Y0168750D01*
X0042253Y0168456D01*
X0041614Y0168029D01*
X0041071Y0167486D01*
X0040644Y0166847D01*
X0040350Y0166138D01*
X0040200Y0165384D01*
X0040200Y0165300D01*
X0046200Y0165300D01*
X0046800Y0165300D01*
X0052800Y0165300D01*
X0052800Y0165384D01*
X0052650Y0166138D01*
X0052356Y0166847D01*
X0051929Y0167486D01*
X0051386Y0168029D01*
X0050747Y0168456D01*
X0050038Y0168750D01*
X0049284Y0168900D01*
X0046800Y0168900D01*
X0046800Y0165300D01*
X0046800Y0164700D01*
X0052800Y0164700D01*
X0052800Y0164616D01*
X0052650Y0163862D01*
X0052356Y0163153D01*
X0051929Y0162514D01*
X0051386Y0161971D01*
X0050747Y0161544D01*
X0050038Y0161250D01*
X0049284Y0161100D01*
X0046800Y0161100D01*
X0046800Y0164700D01*
X0046200Y0164700D01*
X0046200Y0161100D01*
X0043716Y0161100D01*
X0042962Y0161250D01*
X0042253Y0161544D01*
X0041614Y0161971D01*
X0041071Y0162514D01*
X0040644Y0163153D01*
X0040350Y0163862D01*
X0040200Y0164616D01*
X0040200Y0164700D01*
X0046200Y0164700D01*
X0046200Y0165300D01*
X0046200Y0164700D01*
X0046800Y0164700D01*
X0046800Y0161100D01*
X0049284Y0161100D01*
X0050038Y0161250D01*
X0050747Y0161544D01*
X0051386Y0161971D01*
X0051500Y0162085D01*
X0051500Y0161483D01*
X0050800Y0160783D01*
X0050800Y0160000D01*
X0021678Y0160000D01*
X0020314Y0161364D01*
X0020747Y0161544D01*
X0021386Y0161971D01*
X0021929Y0162514D01*
X0022356Y0163153D01*
X0022650Y0163862D01*
X0022800Y0164616D01*
X0022800Y0164700D01*
X0016800Y0164700D01*
X0016800Y0165300D01*
X0016800Y0168900D01*
X0019284Y0168900D01*
X0020038Y0168750D01*
X0020747Y0168456D01*
X0021386Y0168029D01*
X0021929Y0167486D01*
X0022356Y0166847D01*
X0022650Y0166138D01*
X0022800Y0165384D01*
X0022800Y0165300D01*
X0016800Y0165300D01*
X0016200Y0165300D01*
X0016200Y0164700D01*
X0010200Y0164700D01*
X0010200Y0164616D01*
X0010350Y0163862D01*
X0010468Y0163578D01*
X0008300Y0165746D01*
X0008300Y0174254D01*
X0010468Y0176422D01*
X0010350Y0176138D01*
X0010200Y0175384D01*
X0010200Y0175300D01*
X0016200Y0175300D01*
X0016200Y0174700D01*
X0010200Y0174700D01*
X0010200Y0174616D01*
X0010350Y0173862D01*
X0010644Y0173153D01*
X0011071Y0172514D01*
X0011614Y0171971D01*
X0012253Y0171544D01*
X0012962Y0171250D01*
X0013716Y0171100D01*
X0016200Y0171100D01*
X0016200Y0174700D01*
X0016800Y0174700D01*
X0022800Y0174700D01*
X0022800Y0174616D01*
X0022650Y0173862D01*
X0022356Y0173153D01*
X0021929Y0172514D01*
X0021386Y0171971D01*
X0020747Y0171544D01*
X0020038Y0171250D01*
X0019284Y0171100D01*
X0016800Y0171100D01*
X0016800Y0174700D01*
X0016800Y0175300D01*
X0022800Y0175300D01*
X0022800Y0175384D01*
X0022650Y0176138D01*
X0022356Y0176847D01*
X0021929Y0177486D01*
X0021386Y0178029D01*
X0021131Y0178200D01*
X0022246Y0178200D01*
X0024046Y0180000D01*
X0051500Y0180000D01*
X0051500Y0177915D01*
X0051386Y0178029D01*
X0050747Y0178456D01*
X0050038Y0178750D01*
X0049284Y0178900D01*
X0046800Y0178900D01*
X0046800Y0175300D01*
X0046200Y0175300D01*
X0046200Y0178900D01*
X0043716Y0178900D01*
X0042962Y0178750D01*
X0042253Y0178456D01*
X0041614Y0178029D01*
X0041071Y0177486D01*
X0040644Y0176847D01*
X0040350Y0176138D01*
X0040200Y0175384D01*
X0040200Y0175300D01*
X0046200Y0175300D01*
X0046200Y0178900D01*
X0043716Y0178900D01*
X0042962Y0178750D01*
X0042253Y0178456D01*
X0041614Y0178029D01*
X0041071Y0177486D01*
X0040644Y0176847D01*
X0040350Y0176138D01*
X0040200Y0175384D01*
X0040200Y0175300D01*
X0046200Y0175300D01*
X0046800Y0175300D01*
X0052800Y0175300D01*
X0052800Y0175384D01*
X0052650Y0176138D01*
X0052356Y0176847D01*
X0051929Y0177486D01*
X0051386Y0178029D01*
X0050747Y0178456D01*
X0050038Y0178750D01*
X0049284Y0178900D01*
X0046800Y0178900D01*
X0046800Y0175300D01*
X0046800Y0174700D01*
X0052800Y0174700D01*
X0052800Y0174616D01*
X0052650Y0173862D01*
X0052356Y0173153D01*
X0051929Y0172514D01*
X0051386Y0171971D01*
X0050747Y0171544D01*
X0050038Y0171250D01*
X0049284Y0171100D01*
X0046800Y0171100D01*
X0046800Y0174700D01*
X0046200Y0174700D01*
X0046200Y0171100D01*
X0043716Y0171100D01*
X0042962Y0171250D01*
X0042253Y0171544D01*
X0041614Y0171971D01*
X0041071Y0172514D01*
X0040644Y0173153D01*
X0040350Y0173862D01*
X0040200Y0174616D01*
X0040200Y0174700D01*
X0046200Y0174700D01*
X0046200Y0175300D01*
X0046200Y0174700D01*
X0046800Y0174700D01*
X0046800Y0171100D01*
X0049284Y0171100D01*
X0050038Y0171250D01*
X0050747Y0171544D01*
X0051386Y0171971D01*
X0051500Y0172085D01*
X0051500Y0167915D01*
X0051386Y0168029D01*
X0051636Y0167780D02*
X0055158Y0167780D01*
X0054491Y0166781D02*
X0052384Y0166781D01*
X0052721Y0165783D02*
X0054491Y0165783D01*
X0054491Y0164784D02*
X0046800Y0164784D01*
X0046500Y0165000D02*
X0036500Y0165000D01*
X0031500Y0165000D01*
X0031500Y0170000D01*
X0026500Y0170000D01*
X0026500Y0165000D01*
X0022800Y0165300D02*
X0022800Y0165384D01*
X0022650Y0166138D01*
X0022356Y0166847D01*
X0021929Y0167486D01*
X0021386Y0168029D01*
X0020747Y0168456D01*
X0020038Y0168750D01*
X0019284Y0168900D01*
X0016800Y0168900D01*
X0016800Y0165300D01*
X0022800Y0165300D01*
X0022721Y0165783D02*
X0040279Y0165783D01*
X0022721Y0165783D01*
X0022384Y0166781D02*
X0040616Y0166781D01*
X0022384Y0166781D01*
X0021636Y0167780D02*
X0041364Y0167780D01*
X0021636Y0167780D01*
X0019896Y0168778D02*
X0043104Y0168778D01*
X0019896Y0168778D01*
X0019284Y0171100D02*
X0020038Y0171250D01*
X0020747Y0171544D01*
X0021386Y0171971D01*
X0021929Y0172514D01*
X0022356Y0173153D01*
X0022650Y0173862D01*
X0022800Y0174616D01*
X0022800Y0174700D01*
X0016800Y0174700D01*
X0016800Y0171100D01*
X0019284Y0171100D01*
X0021091Y0171774D02*
X0041909Y0171774D01*
X0021091Y0171774D01*
X0022102Y0172772D02*
X0040898Y0172772D01*
X0022102Y0172772D01*
X0022612Y0173771D02*
X0040388Y0173771D01*
X0022612Y0173771D01*
X0022724Y0175768D02*
X0040276Y0175768D01*
X0022724Y0175768D01*
X0022390Y0176766D02*
X0040610Y0176766D01*
X0022390Y0176766D01*
X0021651Y0177765D02*
X0041349Y0177765D01*
X0021651Y0177765D01*
X0022809Y0178763D02*
X0043029Y0178763D01*
X0022809Y0178763D01*
X0023807Y0179762D02*
X0051500Y0179762D01*
X0051870Y0179762D02*
X0023807Y0179762D01*
X0024806Y0180760D02*
X0050871Y0180760D01*
X0050800Y0181759D02*
X0050744Y0181759D01*
X0051500Y0178763D02*
X0049971Y0178763D01*
X0052868Y0178763D01*
X0053867Y0177765D02*
X0051651Y0177765D01*
X0052390Y0176766D02*
X0054865Y0176766D01*
X0055864Y0175768D02*
X0052724Y0175768D01*
X0052612Y0173771D02*
X0057861Y0173771D01*
X0056862Y0174769D02*
X0046800Y0174769D01*
X0046500Y0175000D02*
X0036500Y0175000D01*
X0036500Y0170000D01*
X0031500Y0170000D01*
X0031500Y0175000D01*
X0036500Y0175000D01*
X0040200Y0174700D02*
X0040200Y0174616D01*
X0040350Y0173862D01*
X0040644Y0173153D01*
X0041071Y0172514D01*
X0041614Y0171971D01*
X0042253Y0171544D01*
X0042962Y0171250D01*
X0043716Y0171100D01*
X0046200Y0171100D01*
X0046200Y0174700D01*
X0040200Y0174700D01*
X0036500Y0170000D02*
X0036500Y0165000D01*
X0040200Y0164700D02*
X0040200Y0164616D01*
X0040350Y0163862D01*
X0040644Y0163153D01*
X0041071Y0162514D01*
X0041614Y0161971D01*
X0042253Y0161544D01*
X0042962Y0161250D01*
X0043716Y0161100D01*
X0046200Y0161100D01*
X0046200Y0164700D01*
X0040200Y0164700D01*
X0040382Y0163786D02*
X0022618Y0163786D01*
X0040382Y0163786D01*
X0040888Y0162787D02*
X0022112Y0162787D01*
X0040888Y0162787D01*
X0041886Y0161789D02*
X0021114Y0161789D01*
X0041886Y0161789D01*
X0041662Y0157795D02*
X0023884Y0157795D01*
X0022885Y0158793D02*
X0050800Y0158793D01*
X0050800Y0159792D02*
X0021887Y0159792D01*
X0020888Y0160790D02*
X0050808Y0160790D01*
X0020888Y0160790D01*
X0020747Y0161544D02*
X0021386Y0161971D01*
X0021929Y0162514D01*
X0022356Y0163153D01*
X0022650Y0163862D01*
X0022800Y0164616D01*
X0022800Y0164700D01*
X0016800Y0164700D01*
X0016200Y0164784D02*
X0009261Y0164784D01*
X0008300Y0165783D02*
X0010279Y0165783D01*
X0010616Y0166781D02*
X0008300Y0166781D01*
X0008300Y0167780D02*
X0011364Y0167780D01*
X0011500Y0168778D02*
X0013104Y0168778D01*
X0008300Y0168778D01*
X0008300Y0169777D02*
X0061855Y0169777D01*
X0060856Y0170775D02*
X0008300Y0170775D01*
X0008300Y0171774D02*
X0011909Y0171774D01*
X0011500Y0171774D01*
X0011500Y0170775D02*
X0051500Y0170775D01*
X0051500Y0169777D02*
X0011500Y0169777D01*
X0010898Y0172772D02*
X0008300Y0172772D01*
X0008300Y0173771D02*
X0010388Y0173771D01*
X0008815Y0174769D02*
X0016200Y0174769D01*
X0016500Y0175000D02*
X0026500Y0175000D01*
X0026500Y0170000D01*
X0026500Y0175000D02*
X0031500Y0175000D01*
X0025804Y0181759D02*
X0042256Y0181759D01*
X0041110Y0182757D02*
X0026803Y0182757D01*
X0027801Y0183756D02*
X0040610Y0183756D01*
X0040400Y0184754D02*
X0028800Y0184754D01*
X0029798Y0185753D02*
X0040407Y0185753D01*
X0040821Y0186751D02*
X0030797Y0186751D01*
X0031795Y0187750D02*
X0041617Y0187750D01*
X0042292Y0191744D02*
X0035790Y0191744D01*
X0036788Y0192742D02*
X0041125Y0192742D01*
X0036500Y0195000D02*
X0021500Y0180000D01*
X0011500Y0180000D01*
X0006500Y0175000D01*
X0006500Y0165000D01*
X0011500Y0160000D01*
X0019133Y0160000D01*
X0024583Y0154550D01*
X0024583Y0150417D01*
X0027400Y0147600D01*
X0027946Y0149600D02*
X0026383Y0151163D01*
X0026383Y0155296D01*
X0020314Y0161364D01*
X0020747Y0161544D01*
X0016800Y0165783D02*
X0016200Y0165783D01*
X0016800Y0165783D01*
X0016800Y0166781D02*
X0016200Y0166781D01*
X0016800Y0166781D01*
X0016800Y0167780D02*
X0016200Y0167780D01*
X0016800Y0167780D01*
X0016800Y0168778D02*
X0016200Y0168778D01*
X0016800Y0168778D01*
X0016800Y0171774D02*
X0016200Y0171774D01*
X0016800Y0171774D01*
X0016800Y0172772D02*
X0016200Y0172772D01*
X0016800Y0172772D01*
X0016800Y0173771D02*
X0016200Y0173771D01*
X0016800Y0173771D01*
X0016800Y0174769D02*
X0046200Y0174769D01*
X0016800Y0174769D01*
X0010276Y0175768D02*
X0009813Y0175768D01*
X0004700Y0180833D02*
X0004700Y0149167D01*
X0013467Y0140400D01*
X0030238Y0140400D01*
X0032238Y0142400D01*
X0035600Y0142400D01*
X0035600Y0145000D02*
X0031800Y0145000D01*
X0031800Y0144200D01*
X0031493Y0144200D01*
X0030966Y0143673D01*
X0030938Y0143700D01*
X0031000Y0143762D01*
X0031000Y0146238D01*
X0030938Y0146300D01*
X0031000Y0146362D01*
X0031000Y0148838D01*
X0030238Y0149600D01*
X0027946Y0149600D01*
X0027739Y0149806D02*
X0046394Y0149806D01*
X0047392Y0150805D02*
X0026741Y0150805D01*
X0026383Y0151803D02*
X0042148Y0151803D01*
X0041065Y0152802D02*
X0026383Y0152802D01*
X0026383Y0153801D02*
X0040592Y0153801D01*
X0040400Y0154799D02*
X0026383Y0154799D01*
X0025881Y0155798D02*
X0040426Y0155798D01*
X0040839Y0156796D02*
X0024882Y0156796D01*
X0021500Y0150000D02*
X0023800Y0147700D01*
X0023800Y0146362D01*
X0025162Y0145000D01*
X0027400Y0145000D01*
X0026800Y0143000D02*
X0024562Y0143000D01*
X0022562Y0145000D01*
X0016500Y0145000D01*
X0011500Y0139821D02*
X0003500Y0139821D01*
X0003500Y0138823D02*
X0012499Y0138823D01*
X0011692Y0137824D02*
X0003500Y0137824D01*
X0003500Y0136826D02*
X0010851Y0136826D01*
X0010438Y0135827D02*
X0003500Y0135827D01*
X0003500Y0134829D02*
X0010400Y0134829D01*
X0010580Y0133830D02*
X0003500Y0133830D01*
X0003500Y0132832D02*
X0011036Y0132832D01*
X0012077Y0131833D02*
X0003500Y0131833D01*
X0003500Y0130835D02*
X0014700Y0130835D01*
X0014700Y0129836D02*
X0003500Y0129836D01*
X0003500Y0128838D02*
X0014247Y0128838D01*
X0013901Y0127839D02*
X0003500Y0127839D01*
X0003500Y0126841D02*
X0013901Y0126841D01*
X0013901Y0125842D02*
X0003500Y0125842D01*
X0003500Y0124844D02*
X0013901Y0124844D01*
X0013901Y0123845D02*
X0003500Y0123845D01*
X0003500Y0122847D02*
X0013901Y0122847D01*
X0013901Y0121848D02*
X0003500Y0121848D01*
X0003500Y0120850D02*
X0014560Y0120850D01*
X0017760Y0125000D02*
X0016500Y0126260D01*
X0016500Y0135000D01*
X0027588Y0135000D01*
X0052800Y0109788D01*
X0052800Y0103070D01*
X0066815Y0089055D01*
X0070490Y0084903D02*
X0074522Y0084903D01*
X0074275Y0083905D02*
X0070953Y0083905D01*
X0070953Y0082906D02*
X0073861Y0082906D01*
X0073861Y0081908D02*
X0070953Y0081908D01*
X0067000Y0078912D02*
X0066000Y0078912D01*
X0066000Y0077914D02*
X0067000Y0077914D01*
X0062270Y0077914D02*
X0056800Y0077914D01*
X0056800Y0078912D02*
X0062047Y0078912D01*
X0051000Y0078912D02*
X0017000Y0078912D01*
X0017000Y0079250D02*
X0017000Y0075750D01*
X0021000Y0075750D01*
X0021000Y0069750D01*
X0022000Y0069750D01*
X0022000Y0075750D01*
X0026697Y0075750D01*
X0027079Y0075648D01*
X0027421Y0075450D01*
X0027700Y0075171D01*
X0027898Y0074829D01*
X0028000Y0074447D01*
X0028000Y0069750D01*
X0022000Y0069750D01*
X0022000Y0068750D01*
X0028000Y0068750D01*
X0028000Y0064053D01*
X0027898Y0063671D01*
X0027700Y0063329D01*
X0027421Y0063050D01*
X0027079Y0062852D01*
X0026697Y0062750D01*
X0022000Y0062750D01*
X0022000Y0068750D01*
X0021000Y0068750D01*
X0021000Y0062750D01*
X0018707Y0062750D01*
X0020407Y0061050D01*
X0028071Y0061050D01*
X0029137Y0060608D01*
X0029953Y0059793D01*
X0031358Y0058387D01*
X0031800Y0057321D01*
X0031800Y0044179D01*
X0031358Y0043113D01*
X0030069Y0041824D01*
X0030606Y0041287D01*
X0031343Y0039507D01*
X0031343Y0030493D01*
X0030606Y0028713D01*
X0029244Y0027351D01*
X0027463Y0026613D01*
X0025537Y0026613D01*
X0023756Y0027351D01*
X0022394Y0028713D01*
X0021657Y0030493D01*
X0021657Y0036055D01*
X0021343Y0035742D01*
X0021343Y0030493D01*
X0020606Y0028713D01*
X0019244Y0027351D01*
X0017463Y0026613D01*
X0015537Y0026613D01*
X0013756Y0027351D01*
X0012394Y0028713D01*
X0011657Y0030493D01*
X0011657Y0039507D01*
X0012394Y0041287D01*
X0013756Y0042649D01*
X0015537Y0043387D01*
X0017463Y0043387D01*
X0018435Y0042984D01*
X0018600Y0043150D01*
X0018600Y0044450D01*
X0015962Y0044450D01*
X0015200Y0045212D01*
X0015200Y0056288D01*
X0015962Y0057050D01*
X0016205Y0057050D01*
X0012457Y0060797D01*
X0011641Y0061613D01*
X0011200Y0062679D01*
X0011200Y0092321D01*
X0011641Y0093387D01*
X0012457Y0094203D01*
X0016205Y0097950D01*
X0015962Y0097950D01*
X0015200Y0098712D01*
X0015200Y0109788D01*
X0015962Y0110550D01*
X0027038Y0110550D01*
X0027800Y0109788D01*
X0027800Y0098712D01*
X0027038Y0097950D01*
X0024144Y0097950D01*
X0023958Y0097501D01*
X0018707Y0092250D01*
X0021000Y0092250D01*
X0021000Y0086250D01*
X0022000Y0086250D01*
X0022000Y0092250D01*
X0026697Y0092250D01*
X0027079Y0092148D01*
X0027421Y0091950D01*
X0027700Y0091671D01*
X0027898Y0091329D01*
X0028000Y0090947D01*
X0028000Y0086250D01*
X0022000Y0086250D01*
X0022000Y0085250D01*
X0028000Y0085250D01*
X0028000Y0080553D01*
X0027898Y0080171D01*
X0027700Y0079829D01*
X0027421Y0079550D01*
X0027079Y0079352D01*
X0026697Y0079250D01*
X0022000Y0079250D01*
X0022000Y0085250D01*
X0021000Y0085250D01*
X0021000Y0079250D01*
X0017000Y0079250D01*
X0017000Y0077914D02*
X0051000Y0077914D01*
X0051000Y0076915D02*
X0017000Y0076915D01*
X0017000Y0075917D02*
X0051000Y0075917D01*
X0047000Y0074918D02*
X0046000Y0074918D01*
X0046000Y0073920D02*
X0047000Y0073920D01*
X0047000Y0072921D02*
X0046000Y0072921D01*
X0046000Y0071923D02*
X0047000Y0071923D01*
X0047000Y0070924D02*
X0046000Y0070924D01*
X0046000Y0069926D02*
X0047000Y0069926D01*
X0046000Y0068927D02*
X0022000Y0068927D01*
X0022000Y0067929D02*
X0021000Y0067929D01*
X0021000Y0066930D02*
X0022000Y0066930D01*
X0022000Y0065932D02*
X0021000Y0065932D01*
X0021000Y0064933D02*
X0022000Y0064933D01*
X0022000Y0063934D02*
X0021000Y0063934D01*
X0021000Y0062936D02*
X0022000Y0062936D01*
X0019520Y0061937D02*
X0048480Y0061937D01*
X0047000Y0062936D02*
X0046000Y0062936D01*
X0046000Y0063934D02*
X0047000Y0063934D01*
X0047000Y0064933D02*
X0046000Y0064933D01*
X0046000Y0065932D02*
X0047000Y0065932D01*
X0047000Y0066930D02*
X0046000Y0066930D01*
X0046000Y0067929D02*
X0047000Y0067929D01*
X0040000Y0067929D02*
X0028000Y0067929D01*
X0028000Y0066930D02*
X0040000Y0066930D01*
X0040000Y0065932D02*
X0028000Y0065932D01*
X0028000Y0064933D02*
X0040000Y0064933D01*
X0040032Y0063934D02*
X0027968Y0063934D01*
X0027224Y0062936D02*
X0040776Y0062936D01*
X0039661Y0060939D02*
X0028339Y0060939D01*
X0029805Y0059940D02*
X0038195Y0059940D01*
X0037197Y0058942D02*
X0030803Y0058942D01*
X0031542Y0057943D02*
X0036458Y0057943D01*
X0036200Y0056945D02*
X0031800Y0056945D01*
X0031800Y0055946D02*
X0036200Y0055946D01*
X0036200Y0054948D02*
X0031800Y0054948D01*
X0031800Y0053949D02*
X0036200Y0053949D01*
X0036200Y0052951D02*
X0031800Y0052951D01*
X0031800Y0051952D02*
X0036200Y0051952D01*
X0036200Y0050954D02*
X0031800Y0050954D01*
X0031800Y0049955D02*
X0036200Y0049955D01*
X0036200Y0048957D02*
X0031800Y0048957D01*
X0031800Y0047958D02*
X0036200Y0047958D01*
X0036200Y0046960D02*
X0031800Y0046960D01*
X0031800Y0045961D02*
X0036200Y0045961D01*
X0036200Y0044963D02*
X0031800Y0044963D01*
X0031711Y0043964D02*
X0036289Y0043964D01*
X0036789Y0042966D02*
X0031211Y0042966D01*
X0030213Y0041967D02*
X0037787Y0041967D01*
X0037262Y0040969D02*
X0030738Y0040969D01*
X0031151Y0039970D02*
X0036849Y0039970D01*
X0036657Y0038972D02*
X0031343Y0038972D01*
X0031343Y0037973D02*
X0036657Y0037973D01*
X0036657Y0036975D02*
X0031343Y0036975D01*
X0031343Y0035976D02*
X0036657Y0035976D01*
X0036657Y0034978D02*
X0031343Y0034978D01*
X0031343Y0033979D02*
X0036657Y0033979D01*
X0036657Y0032981D02*
X0031343Y0032981D01*
X0031343Y0031982D02*
X0036657Y0031982D01*
X0036657Y0030984D02*
X0031343Y0030984D01*
X0031133Y0029985D02*
X0036867Y0029985D01*
X0037281Y0028987D02*
X0030719Y0028987D01*
X0029881Y0027988D02*
X0038119Y0027988D01*
X0039628Y0026990D02*
X0028372Y0026990D01*
X0024628Y0026990D02*
X0018372Y0026990D01*
X0019881Y0027988D02*
X0023119Y0027988D01*
X0022281Y0028987D02*
X0020719Y0028987D01*
X0021133Y0029985D02*
X0021867Y0029985D01*
X0021657Y0030984D02*
X0021343Y0030984D01*
X0021343Y0031982D02*
X0021657Y0031982D01*
X0021657Y0032981D02*
X0021343Y0032981D01*
X0021343Y0033979D02*
X0021657Y0033979D01*
X0021657Y0034978D02*
X0021343Y0034978D01*
X0021577Y0035976D02*
X0021657Y0035976D01*
X0018600Y0043964D02*
X0003500Y0043964D01*
X0003500Y0042966D02*
X0014521Y0042966D01*
X0013074Y0041967D02*
X0003500Y0041967D01*
X0003500Y0040969D02*
X0012262Y0040969D01*
X0011849Y0039970D02*
X0003500Y0039970D01*
X0003500Y0038972D02*
X0011657Y0038972D01*
X0011657Y0037973D02*
X0003500Y0037973D01*
X0003500Y0036975D02*
X0011657Y0036975D01*
X0011657Y0035976D02*
X0003500Y0035976D01*
X0003500Y0034978D02*
X0011657Y0034978D01*
X0011657Y0033979D02*
X0003500Y0033979D01*
X0003500Y0032981D02*
X0011657Y0032981D01*
X0011657Y0031982D02*
X0003500Y0031982D01*
X0003500Y0030984D02*
X0011657Y0030984D01*
X0011867Y0029985D02*
X0003500Y0029985D01*
X0003500Y0028987D02*
X0012281Y0028987D01*
X0013119Y0027988D02*
X0003500Y0027988D01*
X0003500Y0026990D02*
X0014628Y0026990D01*
X0003500Y0025991D02*
X0118438Y0025991D01*
X0117439Y0026990D02*
X0053372Y0026990D01*
X0054881Y0027988D02*
X0116921Y0027988D01*
X0116508Y0028987D02*
X0055719Y0028987D01*
X0056133Y0029985D02*
X0116500Y0029985D01*
X0116500Y0030984D02*
X0056343Y0030984D01*
X0056343Y0031982D02*
X0116909Y0031982D01*
X0117410Y0032981D02*
X0056343Y0032981D01*
X0056343Y0033979D02*
X0109975Y0033979D01*
X0108977Y0034978D02*
X0056343Y0034978D01*
X0056343Y0035976D02*
X0107978Y0035976D01*
X0106980Y0036975D02*
X0056343Y0036975D01*
X0056343Y0037973D02*
X0105981Y0037973D01*
X0104983Y0038972D02*
X0056343Y0038972D01*
X0056151Y0039970D02*
X0103984Y0039970D01*
X0102986Y0040969D02*
X0055738Y0040969D01*
X0054926Y0041967D02*
X0101987Y0041967D01*
X0100989Y0042966D02*
X0054400Y0042966D01*
X0054400Y0043964D02*
X0099990Y0043964D01*
X0098992Y0044963D02*
X0054400Y0044963D01*
X0054400Y0045961D02*
X0097993Y0045961D01*
X0096995Y0046960D02*
X0054138Y0046960D01*
X0053393Y0047958D02*
X0095996Y0047958D01*
X0094998Y0048957D02*
X0052800Y0048957D01*
X0052800Y0049955D02*
X0093999Y0049955D01*
X0093001Y0050954D02*
X0052800Y0050954D01*
X0052800Y0051952D02*
X0092002Y0051952D01*
X0091004Y0052951D02*
X0052800Y0052951D01*
X0052800Y0053949D02*
X0090005Y0053949D01*
X0089700Y0054948D02*
X0052800Y0054948D01*
X0052800Y0055946D02*
X0084180Y0055946D01*
X0083701Y0056945D02*
X0052144Y0056945D01*
X0052689Y0057943D02*
X0083701Y0057943D01*
X0083701Y0058942D02*
X0053687Y0058942D01*
X0054686Y0059940D02*
X0087260Y0059940D01*
X0087260Y0058942D02*
X0088260Y0058942D01*
X0088260Y0057943D02*
X0087260Y0057943D01*
X0087260Y0056945D02*
X0088260Y0056945D01*
X0088260Y0055946D02*
X0087260Y0055946D01*
X0087260Y0060939D02*
X0088260Y0060939D01*
X0088260Y0061937D02*
X0087260Y0061937D01*
X0087260Y0062936D02*
X0088260Y0062936D01*
X0088260Y0063934D02*
X0087260Y0063934D01*
X0089700Y0064933D02*
X0056800Y0064933D01*
X0056800Y0063934D02*
X0084061Y0063934D01*
X0083701Y0062936D02*
X0056800Y0062936D01*
X0056493Y0061937D02*
X0083701Y0061937D01*
X0083701Y0060939D02*
X0055684Y0060939D01*
X0040000Y0069926D02*
X0028000Y0069926D01*
X0028000Y0070924D02*
X0040000Y0070924D01*
X0040000Y0071923D02*
X0028000Y0071923D01*
X0028000Y0072921D02*
X0040000Y0072921D01*
X0040000Y0073920D02*
X0028000Y0073920D01*
X0027846Y0074918D02*
X0040154Y0074918D01*
X0040253Y0079911D02*
X0027747Y0079911D01*
X0028000Y0080909D02*
X0040000Y0080909D01*
X0040000Y0081908D02*
X0028000Y0081908D01*
X0028000Y0082906D02*
X0040000Y0082906D01*
X0040000Y0083905D02*
X0028000Y0083905D01*
X0028000Y0084903D02*
X0040000Y0084903D01*
X0040000Y0086900D02*
X0028000Y0086900D01*
X0028000Y0087899D02*
X0040000Y0087899D01*
X0040000Y0088897D02*
X0028000Y0088897D01*
X0028000Y0089896D02*
X0040000Y0089896D01*
X0040000Y0090894D02*
X0028000Y0090894D01*
X0027478Y0091893D02*
X0040522Y0091893D01*
X0046000Y0091893D02*
X0047000Y0091893D01*
X0047000Y0090894D02*
X0046000Y0090894D01*
X0046000Y0089896D02*
X0047000Y0089896D01*
X0047000Y0088897D02*
X0046000Y0088897D01*
X0046000Y0087899D02*
X0047000Y0087899D01*
X0047000Y0086900D02*
X0046000Y0086900D01*
X0046000Y0085902D02*
X0022000Y0085902D01*
X0022000Y0086900D02*
X0021000Y0086900D01*
X0021000Y0087899D02*
X0022000Y0087899D01*
X0022000Y0088897D02*
X0021000Y0088897D01*
X0021000Y0089896D02*
X0022000Y0089896D01*
X0022000Y0090894D02*
X0021000Y0090894D01*
X0021000Y0091893D02*
X0022000Y0091893D01*
X0020347Y0093890D02*
X0051000Y0093890D01*
X0051000Y0094888D02*
X0021345Y0094888D01*
X0022344Y0095887D02*
X0050762Y0095887D01*
X0049763Y0096885D02*
X0023342Y0096885D01*
X0024117Y0097884D02*
X0048765Y0097884D01*
X0051000Y0092891D02*
X0019348Y0092891D01*
X0015140Y0096885D02*
X0003500Y0096885D01*
X0003500Y0095887D02*
X0014142Y0095887D01*
X0013143Y0094888D02*
X0003500Y0094888D01*
X0003500Y0093890D02*
X0012145Y0093890D01*
X0011436Y0092891D02*
X0003500Y0092891D01*
X0003500Y0091893D02*
X0011200Y0091893D01*
X0011200Y0090894D02*
X0003500Y0090894D01*
X0003500Y0089896D02*
X0011200Y0089896D01*
X0011200Y0088897D02*
X0003500Y0088897D01*
X0003500Y0087899D02*
X0011200Y0087899D01*
X0011200Y0086900D02*
X0003500Y0086900D01*
X0003500Y0085902D02*
X0011200Y0085902D01*
X0011200Y0084903D02*
X0003500Y0084903D01*
X0003500Y0083905D02*
X0011200Y0083905D01*
X0011200Y0082906D02*
X0003500Y0082906D01*
X0003500Y0081908D02*
X0011200Y0081908D01*
X0011200Y0080909D02*
X0003500Y0080909D01*
X0003500Y0079911D02*
X0011200Y0079911D01*
X0011200Y0078912D02*
X0003500Y0078912D01*
X0003500Y0077914D02*
X0011200Y0077914D01*
X0011200Y0076915D02*
X0003500Y0076915D01*
X0003500Y0075917D02*
X0011200Y0075917D01*
X0011200Y0074918D02*
X0003500Y0074918D01*
X0003500Y0073920D02*
X0011200Y0073920D01*
X0011200Y0072921D02*
X0003500Y0072921D01*
X0003500Y0071923D02*
X0011200Y0071923D01*
X0011200Y0070924D02*
X0003500Y0070924D01*
X0003500Y0069926D02*
X0011200Y0069926D01*
X0011200Y0068927D02*
X0003500Y0068927D01*
X0003500Y0067929D02*
X0011200Y0067929D01*
X0011200Y0066930D02*
X0003500Y0066930D01*
X0003500Y0065932D02*
X0011200Y0065932D01*
X0011200Y0064933D02*
X0003500Y0064933D01*
X0003500Y0063934D02*
X0011200Y0063934D01*
X0011200Y0062936D02*
X0003500Y0062936D01*
X0003500Y0061937D02*
X0011507Y0061937D01*
X0012316Y0060939D02*
X0003500Y0060939D01*
X0003500Y0059940D02*
X0013314Y0059940D01*
X0014313Y0058942D02*
X0003500Y0058942D01*
X0003500Y0057943D02*
X0015311Y0057943D01*
X0015856Y0056945D02*
X0003500Y0056945D01*
X0003500Y0055946D02*
X0015200Y0055946D01*
X0015200Y0054948D02*
X0003500Y0054948D01*
X0003500Y0053949D02*
X0015200Y0053949D01*
X0015200Y0052951D02*
X0003500Y0052951D01*
X0003500Y0051952D02*
X0015200Y0051952D01*
X0015200Y0050954D02*
X0003500Y0050954D01*
X0003500Y0049955D02*
X0015200Y0049955D01*
X0015200Y0048957D02*
X0003500Y0048957D01*
X0003500Y0047958D02*
X0015200Y0047958D01*
X0015200Y0046960D02*
X0003500Y0046960D01*
X0003500Y0045961D02*
X0015200Y0045961D01*
X0015449Y0044963D02*
X0003500Y0044963D01*
X0003500Y0024993D02*
X0127132Y0024993D01*
X0126468Y0025991D02*
X0124562Y0025991D01*
X0125561Y0026990D02*
X0126451Y0026990D01*
X0126451Y0027988D02*
X0126079Y0027988D01*
X0131000Y0027988D02*
X0132000Y0027988D01*
X0132000Y0026990D02*
X0131000Y0026990D01*
X0131000Y0025991D02*
X0132000Y0025991D01*
X0132000Y0024993D02*
X0131000Y0024993D01*
X0132000Y0028987D02*
X0138952Y0028987D01*
X0138383Y0029985D02*
X0136549Y0029985D01*
X0136549Y0030984D02*
X0137969Y0030984D01*
X0137694Y0031982D02*
X0136549Y0031982D01*
X0136487Y0032981D02*
X0137536Y0032981D01*
X0136035Y0033937D02*
X0146500Y0033937D01*
X0146000Y0032981D02*
X0147000Y0032981D01*
X0147000Y0031982D02*
X0146000Y0031982D01*
X0146000Y0030984D02*
X0147000Y0030984D01*
X0147000Y0029985D02*
X0146000Y0029985D01*
X0146000Y0028987D02*
X0147000Y0028987D01*
X0147000Y0027988D02*
X0146000Y0027988D01*
X0146000Y0026990D02*
X0147000Y0026990D01*
X0147000Y0025991D02*
X0146000Y0025991D01*
X0146000Y0024993D02*
X0147000Y0024993D01*
X0147602Y0024993D02*
X0225327Y0024993D01*
X0224798Y0025522D02*
X0227022Y0023298D01*
X0229927Y0022095D01*
X0233073Y0022095D01*
X0235978Y0023298D01*
X0238202Y0025522D01*
X0239405Y0028427D01*
X0239405Y0031573D01*
X0238202Y0034478D01*
X0235978Y0036702D01*
X0233073Y0037905D01*
X0229927Y0037905D01*
X0227022Y0036702D01*
X0224798Y0034478D01*
X0223595Y0031573D01*
X0223595Y0028427D01*
X0224798Y0025522D01*
X0224604Y0025991D02*
X0218572Y0025991D01*
X0218281Y0025700D02*
X0220800Y0028219D01*
X0220800Y0031781D01*
X0218281Y0034300D01*
X0214719Y0034300D01*
X0212200Y0031781D01*
X0212200Y0028219D01*
X0214719Y0025700D01*
X0218281Y0025700D01*
X0219571Y0026990D02*
X0224190Y0026990D01*
X0223777Y0027988D02*
X0220569Y0027988D01*
X0220800Y0028987D02*
X0223595Y0028987D01*
X0223595Y0029985D02*
X0220800Y0029985D01*
X0220800Y0030984D02*
X0223595Y0030984D01*
X0223764Y0031982D02*
X0220599Y0031982D01*
X0219600Y0032981D02*
X0224178Y0032981D01*
X0224591Y0033979D02*
X0218602Y0033979D01*
X0218281Y0035700D02*
X0214719Y0035700D01*
X0212200Y0038219D01*
X0212200Y0041781D01*
X0214719Y0044300D01*
X0218281Y0044300D01*
X0220800Y0041781D01*
X0220800Y0038219D01*
X0218281Y0035700D01*
X0218557Y0035976D02*
X0226296Y0035976D01*
X0225298Y0034978D02*
X0203300Y0034978D01*
X0203300Y0035976D02*
X0204443Y0035976D01*
X0203444Y0036975D02*
X0203300Y0036975D01*
X0201500Y0036975D02*
X0184907Y0036975D01*
X0185356Y0037424D02*
X0186048Y0039095D01*
X0186048Y0040905D01*
X0185356Y0042576D01*
X0184076Y0043856D01*
X0182405Y0044548D01*
X0180595Y0044548D01*
X0178924Y0043856D01*
X0177644Y0042576D01*
X0176952Y0040905D01*
X0176952Y0039095D01*
X0177644Y0037424D01*
X0178924Y0036144D01*
X0180595Y0035452D01*
X0182405Y0035452D01*
X0184076Y0036144D01*
X0185356Y0037424D01*
X0185583Y0037973D02*
X0201500Y0037973D01*
X0201500Y0038972D02*
X0185997Y0038972D01*
X0186048Y0039970D02*
X0201500Y0039970D01*
X0201500Y0040969D02*
X0186021Y0040969D01*
X0185608Y0041967D02*
X0201500Y0041967D01*
X0201500Y0042966D02*
X0184966Y0042966D01*
X0183814Y0043964D02*
X0201500Y0043964D01*
X0201500Y0044963D02*
X0173958Y0044963D01*
X0174209Y0045570D02*
X0172868Y0042331D01*
X0170389Y0039853D01*
X0167150Y0038511D01*
X0163645Y0038511D01*
X0160406Y0039853D01*
X0157927Y0042331D01*
X0156586Y0045570D01*
X0156586Y0049076D01*
X0157927Y0052314D01*
X0160406Y0054793D01*
X0163645Y0056135D01*
X0167150Y0056135D01*
X0170389Y0054793D01*
X0172868Y0052314D01*
X0174209Y0049076D01*
X0174209Y0045570D01*
X0174209Y0045961D02*
X0179366Y0045961D01*
X0178924Y0046144D02*
X0180595Y0045452D01*
X0182405Y0045452D01*
X0184076Y0046144D01*
X0185356Y0047424D01*
X0186048Y0049095D01*
X0186048Y0050905D01*
X0185356Y0052576D01*
X0184076Y0053856D01*
X0182405Y0054548D01*
X0180595Y0054548D01*
X0178924Y0053856D01*
X0177644Y0052576D01*
X0176952Y0050905D01*
X0176952Y0049095D01*
X0177644Y0047424D01*
X0178924Y0046144D01*
X0178108Y0046960D02*
X0174209Y0046960D01*
X0174209Y0047958D02*
X0177423Y0047958D01*
X0177009Y0048957D02*
X0174209Y0048957D01*
X0173845Y0049955D02*
X0176952Y0049955D01*
X0176972Y0050954D02*
X0173431Y0050954D01*
X0173018Y0051952D02*
X0177386Y0051952D01*
X0178019Y0052951D02*
X0172231Y0052951D01*
X0171233Y0053949D02*
X0179150Y0053949D01*
X0179402Y0055946D02*
X0167605Y0055946D01*
X0170015Y0054948D02*
X0201500Y0054948D01*
X0201500Y0053949D02*
X0183850Y0053949D01*
X0184981Y0052951D02*
X0201500Y0052951D01*
X0201500Y0051952D02*
X0185614Y0051952D01*
X0186028Y0050954D02*
X0201500Y0050954D01*
X0201500Y0049955D02*
X0186048Y0049955D01*
X0185991Y0048957D02*
X0201500Y0048957D01*
X0201500Y0047958D02*
X0185577Y0047958D01*
X0184892Y0046960D02*
X0201500Y0046960D01*
X0201500Y0045961D02*
X0183634Y0045961D01*
X0179186Y0043964D02*
X0173544Y0043964D01*
X0173131Y0042966D02*
X0178034Y0042966D01*
X0177392Y0041967D02*
X0172504Y0041967D01*
X0171505Y0040969D02*
X0176979Y0040969D01*
X0176952Y0039970D02*
X0170507Y0039970D01*
X0168263Y0038972D02*
X0177003Y0038972D01*
X0177417Y0037973D02*
X0154366Y0037973D01*
X0154780Y0036975D02*
X0178093Y0036975D01*
X0179330Y0035976D02*
X0155193Y0035976D01*
X0153927Y0038972D02*
X0162533Y0038972D01*
X0160288Y0039970D02*
X0152929Y0039970D01*
X0151930Y0040969D02*
X0159290Y0040969D01*
X0158291Y0041967D02*
X0150140Y0041967D01*
X0148409Y0048944D02*
X0144591Y0048944D01*
X0143035Y0049588D01*
X0136349Y0042902D01*
X0136349Y0036910D01*
X0135588Y0036149D01*
X0127412Y0036149D01*
X0126651Y0036910D01*
X0126651Y0044287D01*
X0127412Y0045048D01*
X0133404Y0045048D01*
X0139912Y0051556D01*
X0138362Y0053106D01*
X0136901Y0056634D01*
X0136901Y0060453D01*
X0138362Y0063981D01*
X0141062Y0066681D01*
X0144591Y0068143D01*
X0148409Y0068143D01*
X0151938Y0066681D01*
X0154638Y0063981D01*
X0156099Y0060453D01*
X0156099Y0056634D01*
X0154638Y0053106D01*
X0151938Y0050405D01*
X0148409Y0048944D01*
X0148440Y0048957D02*
X0156586Y0048957D01*
X0156586Y0047958D02*
X0141405Y0047958D01*
X0140407Y0046960D02*
X0156586Y0046960D01*
X0156586Y0045961D02*
X0139408Y0045961D01*
X0138410Y0044963D02*
X0156837Y0044963D01*
X0157251Y0043964D02*
X0137411Y0043964D01*
X0136413Y0042966D02*
X0157665Y0042966D01*
X0156950Y0049955D02*
X0150851Y0049955D01*
X0152486Y0050954D02*
X0157364Y0050954D01*
X0157777Y0051952D02*
X0153484Y0051952D01*
X0154483Y0052951D02*
X0158564Y0052951D01*
X0159562Y0053949D02*
X0154987Y0053949D01*
X0155401Y0054948D02*
X0160780Y0054948D01*
X0163190Y0055946D02*
X0155814Y0055946D01*
X0156099Y0056945D02*
X0178123Y0056945D01*
X0177644Y0057424D02*
X0178924Y0056144D01*
X0180595Y0055452D01*
X0182405Y0055452D01*
X0184076Y0056144D01*
X0185356Y0057424D01*
X0186048Y0059095D01*
X0186048Y0060905D01*
X0185356Y0062576D01*
X0184076Y0063856D01*
X0182405Y0064548D01*
X0180595Y0064548D01*
X0178924Y0063856D01*
X0177644Y0062576D01*
X0176952Y0060905D01*
X0176952Y0059095D01*
X0177644Y0057424D01*
X0177429Y0057943D02*
X0156099Y0057943D01*
X0156099Y0058942D02*
X0177016Y0058942D01*
X0176952Y0059940D02*
X0156099Y0059940D01*
X0155898Y0060939D02*
X0176966Y0060939D01*
X0177380Y0061937D02*
X0155484Y0061937D01*
X0155071Y0062936D02*
X0178004Y0062936D01*
X0179114Y0063934D02*
X0154657Y0063934D01*
X0153686Y0064933D02*
X0191567Y0064933D01*
X0192565Y0063934D02*
X0183886Y0063934D01*
X0184996Y0062936D02*
X0193564Y0062936D01*
X0194563Y0061937D02*
X0185620Y0061937D01*
X0186034Y0060939D02*
X0195561Y0060939D01*
X0196560Y0059940D02*
X0186048Y0059940D01*
X0185984Y0058942D02*
X0197558Y0058942D01*
X0198557Y0057943D02*
X0185571Y0057943D01*
X0184877Y0056945D02*
X0199555Y0056945D01*
X0200554Y0055946D02*
X0183598Y0055946D01*
X0183562Y0065932D02*
X0190568Y0065932D01*
X0189570Y0066930D02*
X0184862Y0066930D01*
X0185565Y0067929D02*
X0188571Y0067929D01*
X0187573Y0068927D02*
X0185978Y0068927D01*
X0186048Y0069926D02*
X0186574Y0069926D01*
X0188121Y0070924D02*
X0202200Y0070924D01*
X0202200Y0071781D02*
X0202200Y0068219D01*
X0204719Y0065700D01*
X0208281Y0065700D01*
X0210800Y0068219D01*
X0210800Y0071781D01*
X0208281Y0074300D01*
X0204719Y0074300D01*
X0202200Y0071781D01*
X0202341Y0071923D02*
X0187123Y0071923D01*
X0187532Y0072921D02*
X0203340Y0072921D01*
X0204339Y0073920D02*
X0188531Y0073920D01*
X0189529Y0074918D02*
X0239421Y0074918D01*
X0239421Y0073920D02*
X0218661Y0073920D01*
X0218281Y0074300D02*
X0214719Y0074300D01*
X0212200Y0071781D01*
X0212200Y0068219D01*
X0214719Y0065700D01*
X0218281Y0065700D01*
X0220800Y0068219D01*
X0220800Y0071781D01*
X0218281Y0074300D01*
X0218364Y0075500D02*
X0221000Y0078136D01*
X0221000Y0079500D01*
X0217000Y0079500D01*
X0217000Y0080500D01*
X0216000Y0080500D01*
X0216000Y0084500D01*
X0214636Y0084500D01*
X0212000Y0081864D01*
X0212000Y0080500D01*
X0216000Y0080500D01*
X0216000Y0079500D01*
X0212000Y0079500D01*
X0212000Y0078136D01*
X0214636Y0075500D01*
X0216000Y0075500D01*
X0216000Y0079500D01*
X0217000Y0079500D01*
X0217000Y0075500D01*
X0218364Y0075500D01*
X0218781Y0075917D02*
X0239421Y0075917D01*
X0239421Y0076915D02*
X0219779Y0076915D01*
X0220778Y0077914D02*
X0239421Y0077914D01*
X0239421Y0078912D02*
X0221000Y0078912D01*
X0221000Y0080500D02*
X0217000Y0080500D01*
X0217000Y0084500D01*
X0218364Y0084500D01*
X0221000Y0081864D01*
X0221000Y0080500D01*
X0221000Y0080909D02*
X0239421Y0080909D01*
X0239421Y0079911D02*
X0217000Y0079911D01*
X0216500Y0080000D02*
X0221500Y0085000D01*
X0221500Y0065000D01*
X0216500Y0060000D01*
X0216500Y0056081D01*
X0212200Y0051781D01*
X0212200Y0048219D01*
X0214719Y0045700D01*
X0218281Y0045700D01*
X0220800Y0048219D01*
X0220800Y0051781D01*
X0218281Y0054300D01*
X0214719Y0054300D01*
X0212200Y0051781D01*
X0212200Y0035700D01*
X0206500Y0030000D01*
X0207000Y0029985D02*
X0212200Y0029985D01*
X0212200Y0028987D02*
X0211000Y0028987D01*
X0211000Y0029500D02*
X0207000Y0029500D01*
X0207000Y0030500D01*
X0206000Y0030500D01*
X0206000Y0034500D01*
X0204636Y0034500D01*
X0202000Y0031864D01*
X0202000Y0030500D01*
X0206000Y0030500D01*
X0206000Y0029500D01*
X0202000Y0029500D01*
X0202000Y0028136D01*
X0204636Y0025500D01*
X0206000Y0025500D01*
X0206000Y0029500D01*
X0207000Y0029500D01*
X0207000Y0025500D01*
X0208364Y0025500D01*
X0211000Y0028136D01*
X0211000Y0029500D01*
X0211000Y0030500D02*
X0211000Y0031864D01*
X0208364Y0034500D01*
X0207000Y0034500D01*
X0207000Y0030500D01*
X0211000Y0030500D01*
X0211000Y0030984D02*
X0212200Y0030984D01*
X0212401Y0031982D02*
X0210882Y0031982D01*
X0209883Y0032981D02*
X0213400Y0032981D01*
X0214398Y0033979D02*
X0208885Y0033979D01*
X0207000Y0033979D02*
X0206000Y0033979D01*
X0206000Y0032981D02*
X0207000Y0032981D01*
X0207000Y0031982D02*
X0206000Y0031982D01*
X0206000Y0030984D02*
X0207000Y0030984D01*
X0206000Y0029985D02*
X0186048Y0029985D01*
X0186048Y0028987D02*
X0202000Y0028987D01*
X0202148Y0027988D02*
X0186048Y0027988D01*
X0186048Y0026990D02*
X0203146Y0026990D01*
X0204145Y0025991D02*
X0185826Y0025991D01*
X0186048Y0030984D02*
X0202000Y0030984D01*
X0202118Y0031982D02*
X0186048Y0031982D01*
X0186048Y0032981D02*
X0203117Y0032981D01*
X0203025Y0033979D02*
X0204115Y0033979D01*
X0201500Y0035976D02*
X0183670Y0035976D01*
X0176952Y0032981D02*
X0155464Y0032981D01*
X0155306Y0031982D02*
X0176952Y0031982D01*
X0176952Y0030984D02*
X0155031Y0030984D01*
X0154617Y0029985D02*
X0176952Y0029985D01*
X0176952Y0028987D02*
X0154048Y0028987D01*
X0153294Y0027988D02*
X0176952Y0027988D01*
X0176952Y0026990D02*
X0152249Y0026990D01*
X0150761Y0025991D02*
X0177174Y0025991D01*
X0203300Y0042966D02*
X0203385Y0042966D01*
X0203300Y0043964D02*
X0204383Y0043964D01*
X0203300Y0044963D02*
X0239421Y0044963D01*
X0239421Y0045961D02*
X0218542Y0045961D01*
X0219541Y0046960D02*
X0239421Y0046960D01*
X0239421Y0047958D02*
X0220539Y0047958D01*
X0220800Y0048957D02*
X0239421Y0048957D01*
X0239421Y0049955D02*
X0220800Y0049955D01*
X0220800Y0050954D02*
X0239421Y0050954D01*
X0239421Y0051952D02*
X0220629Y0051952D01*
X0219630Y0052951D02*
X0239421Y0052951D01*
X0239421Y0053949D02*
X0218632Y0053949D01*
X0218364Y0055500D02*
X0221000Y0058136D01*
X0221000Y0059500D01*
X0217000Y0059500D01*
X0217000Y0060500D01*
X0216000Y0060500D01*
X0216000Y0064500D01*
X0214636Y0064500D01*
X0212000Y0061864D01*
X0212000Y0060500D01*
X0216000Y0060500D01*
X0216000Y0059500D01*
X0212000Y0059500D01*
X0212000Y0058136D01*
X0214636Y0055500D01*
X0216000Y0055500D01*
X0216000Y0059500D01*
X0217000Y0059500D01*
X0217000Y0055500D01*
X0218364Y0055500D01*
X0218810Y0055946D02*
X0239421Y0055946D01*
X0239421Y0054948D02*
X0203300Y0054948D01*
X0203300Y0053949D02*
X0204368Y0053949D01*
X0203370Y0052951D02*
X0203300Y0052951D01*
X0203099Y0055946D02*
X0204472Y0055946D01*
X0204719Y0055700D02*
X0208281Y0055700D01*
X0210800Y0058219D01*
X0210800Y0061781D01*
X0208281Y0064300D01*
X0204719Y0064300D01*
X0202200Y0061781D01*
X0202200Y0058219D01*
X0204719Y0055700D01*
X0203474Y0056945D02*
X0202101Y0056945D01*
X0202475Y0057943D02*
X0201102Y0057943D01*
X0200104Y0058942D02*
X0202200Y0058942D01*
X0202200Y0059940D02*
X0199105Y0059940D01*
X0198107Y0060939D02*
X0202200Y0060939D01*
X0202356Y0061937D02*
X0197108Y0061937D01*
X0196110Y0062936D02*
X0203355Y0062936D01*
X0204353Y0063934D02*
X0195111Y0063934D01*
X0194113Y0064933D02*
X0239421Y0064933D01*
X0239421Y0063934D02*
X0218929Y0063934D01*
X0218364Y0064500D02*
X0221000Y0061864D01*
X0221000Y0060500D01*
X0217000Y0060500D01*
X0217000Y0064500D01*
X0218364Y0064500D01*
X0218513Y0065932D02*
X0239421Y0065932D01*
X0239421Y0066930D02*
X0219511Y0066930D01*
X0220510Y0067929D02*
X0239421Y0067929D01*
X0239421Y0068927D02*
X0220800Y0068927D01*
X0220800Y0069926D02*
X0239421Y0069926D01*
X0239421Y0070924D02*
X0220800Y0070924D01*
X0220659Y0071923D02*
X0239421Y0071923D01*
X0239421Y0072921D02*
X0219660Y0072921D01*
X0217000Y0075917D02*
X0216000Y0075917D01*
X0216000Y0076915D02*
X0217000Y0076915D01*
X0217000Y0077914D02*
X0216000Y0077914D01*
X0216000Y0078912D02*
X0217000Y0078912D01*
X0216000Y0079911D02*
X0210800Y0079911D01*
X0210800Y0080909D02*
X0212000Y0080909D01*
X0212044Y0081908D02*
X0210673Y0081908D01*
X0210800Y0081781D02*
X0208281Y0084300D01*
X0204719Y0084300D01*
X0202200Y0081781D01*
X0202200Y0078219D01*
X0204719Y0075700D01*
X0208281Y0075700D01*
X0210800Y0078219D01*
X0210800Y0081781D01*
X0209675Y0082906D02*
X0213042Y0082906D01*
X0214041Y0083905D02*
X0208676Y0083905D01*
X0208281Y0085700D02*
X0204719Y0085700D01*
X0202200Y0088219D01*
X0202200Y0091781D01*
X0204719Y0094300D01*
X0208281Y0094300D01*
X0210800Y0091781D01*
X0210800Y0088219D01*
X0208281Y0085700D01*
X0208483Y0085902D02*
X0214517Y0085902D01*
X0214719Y0085700D02*
X0218281Y0085700D01*
X0220800Y0088219D01*
X0220800Y0091781D01*
X0218281Y0094300D01*
X0214719Y0094300D01*
X0212200Y0091781D01*
X0212200Y0088219D01*
X0214719Y0085700D01*
X0213519Y0086900D02*
X0209481Y0086900D01*
X0210480Y0087899D02*
X0212520Y0087899D01*
X0212200Y0088897D02*
X0210800Y0088897D01*
X0210800Y0089896D02*
X0212200Y0089896D01*
X0212200Y0090894D02*
X0210800Y0090894D01*
X0210688Y0091893D02*
X0212312Y0091893D01*
X0213310Y0092891D02*
X0209690Y0092891D01*
X0208691Y0093890D02*
X0214309Y0093890D01*
X0214719Y0095700D02*
X0218281Y0095700D01*
X0220800Y0098219D01*
X0220800Y0101781D01*
X0218281Y0104300D01*
X0214719Y0104300D01*
X0212200Y0101781D01*
X0212200Y0098219D01*
X0214719Y0095700D01*
X0214532Y0095887D02*
X0208751Y0095887D01*
X0208364Y0095500D02*
X0211000Y0098136D01*
X0211000Y0099500D01*
X0207000Y0099500D01*
X0207000Y0100500D01*
X0206000Y0100500D01*
X0206000Y0104500D01*
X0204636Y0104500D01*
X0202000Y0101864D01*
X0202000Y0100500D01*
X0206000Y0100500D01*
X0206000Y0099500D01*
X0202000Y0099500D01*
X0202000Y0098136D01*
X0204636Y0095500D01*
X0206000Y0095500D01*
X0206000Y0099500D01*
X0207000Y0099500D01*
X0207000Y0095500D01*
X0208364Y0095500D01*
X0207000Y0095887D02*
X0206000Y0095887D01*
X0206000Y0096885D02*
X0207000Y0096885D01*
X0207000Y0097884D02*
X0206000Y0097884D01*
X0206000Y0098882D02*
X0207000Y0098882D01*
X0207000Y0099881D02*
X0212200Y0099881D01*
X0212200Y0100879D02*
X0211000Y0100879D01*
X0211000Y0100500D02*
X0211000Y0101864D01*
X0208364Y0104500D01*
X0207000Y0104500D01*
X0207000Y0100500D01*
X0211000Y0100500D01*
X0210986Y0101878D02*
X0212297Y0101878D01*
X0213295Y0102876D02*
X0209987Y0102876D01*
X0208989Y0103875D02*
X0214294Y0103875D01*
X0214719Y0105700D02*
X0218281Y0105700D01*
X0220800Y0108219D01*
X0220800Y0111781D01*
X0218281Y0114300D01*
X0214719Y0114300D01*
X0212200Y0111781D01*
X0212200Y0108219D01*
X0214719Y0105700D01*
X0214547Y0105872D02*
X0208453Y0105872D01*
X0208281Y0105700D02*
X0210800Y0108219D01*
X0210800Y0111781D01*
X0208281Y0114300D01*
X0204719Y0114300D01*
X0202200Y0111781D01*
X0202200Y0108219D01*
X0204719Y0105700D01*
X0208281Y0105700D01*
X0209452Y0106870D02*
X0213548Y0106870D01*
X0212550Y0107869D02*
X0210450Y0107869D01*
X0210800Y0108868D02*
X0212200Y0108868D01*
X0212200Y0109866D02*
X0210800Y0109866D01*
X0210800Y0110865D02*
X0212200Y0110865D01*
X0212282Y0111863D02*
X0210718Y0111863D01*
X0209720Y0112862D02*
X0213280Y0112862D01*
X0214279Y0113860D02*
X0208721Y0113860D01*
X0208281Y0115700D02*
X0204719Y0115700D01*
X0202200Y0118219D01*
X0202200Y0121781D01*
X0204719Y0124300D01*
X0208281Y0124300D01*
X0210800Y0121781D01*
X0210800Y0118219D01*
X0208281Y0115700D01*
X0208438Y0115857D02*
X0214562Y0115857D01*
X0214719Y0115700D02*
X0218281Y0115700D01*
X0220800Y0118219D01*
X0220800Y0121781D01*
X0218281Y0124300D01*
X0214719Y0124300D01*
X0212200Y0121781D01*
X0212200Y0118219D01*
X0214719Y0115700D01*
X0213563Y0116856D02*
X0209437Y0116856D01*
X0210435Y0117854D02*
X0212565Y0117854D01*
X0212200Y0118853D02*
X0210800Y0118853D01*
X0210800Y0119851D02*
X0212200Y0119851D01*
X0212200Y0120850D02*
X0210800Y0120850D01*
X0210733Y0121848D02*
X0212267Y0121848D01*
X0213266Y0122847D02*
X0209734Y0122847D01*
X0208736Y0123845D02*
X0214264Y0123845D01*
X0214636Y0125500D02*
X0212000Y0128136D01*
X0212000Y0129500D01*
X0216000Y0129500D01*
X0216000Y0130500D01*
X0216000Y0134500D01*
X0214636Y0134500D01*
X0212000Y0131864D01*
X0212000Y0130500D01*
X0216000Y0130500D01*
X0217000Y0130500D01*
X0217000Y0134500D01*
X0218364Y0134500D01*
X0221000Y0131864D01*
X0221000Y0130500D01*
X0217000Y0130500D01*
X0217000Y0129500D01*
X0221000Y0129500D01*
X0221000Y0128136D01*
X0218364Y0125500D01*
X0217000Y0125500D01*
X0217000Y0129500D01*
X0216000Y0129500D01*
X0216000Y0125500D01*
X0214636Y0125500D01*
X0214294Y0125842D02*
X0208423Y0125842D01*
X0208281Y0125700D02*
X0210800Y0128219D01*
X0210800Y0131781D01*
X0208281Y0134300D01*
X0204719Y0134300D01*
X0202200Y0131781D01*
X0202200Y0128219D01*
X0204719Y0125700D01*
X0208281Y0125700D01*
X0209422Y0126841D02*
X0213295Y0126841D01*
X0212297Y0127839D02*
X0210420Y0127839D01*
X0210800Y0128838D02*
X0212000Y0128838D01*
X0210800Y0129836D02*
X0216000Y0129836D01*
X0216500Y0130000D02*
X0221500Y0135000D01*
X0221500Y0085000D01*
X0219958Y0082906D02*
X0239421Y0082906D01*
X0239421Y0081908D02*
X0220956Y0081908D01*
X0218959Y0083905D02*
X0239421Y0083905D01*
X0239421Y0084903D02*
X0198700Y0084903D01*
X0198700Y0085902D02*
X0204517Y0085902D01*
X0203519Y0086900D02*
X0198700Y0086900D01*
X0198700Y0087899D02*
X0202520Y0087899D01*
X0202200Y0088897D02*
X0198700Y0088897D01*
X0198700Y0089896D02*
X0202200Y0089896D01*
X0202200Y0090894D02*
X0198700Y0090894D01*
X0198700Y0091893D02*
X0202312Y0091893D01*
X0203310Y0092891D02*
X0198700Y0092891D01*
X0198700Y0093890D02*
X0204309Y0093890D01*
X0204249Y0095887D02*
X0198700Y0095887D01*
X0198700Y0096885D02*
X0203251Y0096885D01*
X0202252Y0097884D02*
X0198700Y0097884D01*
X0198700Y0098882D02*
X0202000Y0098882D01*
X0202000Y0100879D02*
X0198700Y0100879D01*
X0198700Y0099881D02*
X0206000Y0099881D01*
X0206000Y0100879D02*
X0207000Y0100879D01*
X0207000Y0101878D02*
X0206000Y0101878D01*
X0206000Y0102876D02*
X0207000Y0102876D01*
X0207000Y0103875D02*
X0206000Y0103875D01*
X0204011Y0103875D02*
X0198700Y0103875D01*
X0198700Y0104873D02*
X0239421Y0104873D01*
X0239421Y0103875D02*
X0218706Y0103875D01*
X0219705Y0102876D02*
X0239421Y0102876D01*
X0239421Y0101878D02*
X0220703Y0101878D01*
X0220800Y0100879D02*
X0239421Y0100879D01*
X0239421Y0099881D02*
X0220800Y0099881D01*
X0220800Y0098882D02*
X0239421Y0098882D01*
X0239421Y0097884D02*
X0220465Y0097884D01*
X0219466Y0096885D02*
X0239421Y0096885D01*
X0239421Y0095887D02*
X0218468Y0095887D01*
X0218691Y0093890D02*
X0239421Y0093890D01*
X0239421Y0094888D02*
X0198700Y0094888D01*
X0194300Y0094888D02*
X0177086Y0094888D01*
X0178085Y0093890D02*
X0179006Y0093890D01*
X0179545Y0095887D02*
X0176088Y0095887D01*
X0175089Y0096885D02*
X0178183Y0096885D01*
X0177454Y0097884D02*
X0174091Y0097884D01*
X0173092Y0098882D02*
X0177040Y0098882D01*
X0176952Y0099881D02*
X0172094Y0099881D01*
X0171095Y0100879D02*
X0176952Y0100879D01*
X0177076Y0101878D02*
X0170097Y0101878D01*
X0169098Y0102876D02*
X0176078Y0102876D01*
X0175079Y0103875D02*
X0168100Y0103875D01*
X0167101Y0104873D02*
X0174081Y0104873D01*
X0173082Y0105872D02*
X0166102Y0105872D01*
X0165104Y0106870D02*
X0172084Y0106870D01*
X0171085Y0107869D02*
X0164105Y0107869D01*
X0163107Y0108868D02*
X0168016Y0108868D01*
X0167017Y0109866D02*
X0162108Y0109866D01*
X0164436Y0110865D02*
X0166019Y0110865D01*
X0166500Y0112929D02*
X0166500Y0130172D01*
X0151672Y0145000D01*
X0126500Y0145000D01*
X0106500Y0165000D01*
X0106500Y0180000D01*
X0109324Y0178763D02*
X0152718Y0178763D01*
X0152037Y0178083D02*
X0150887Y0178083D01*
X0149754Y0177613D01*
X0148887Y0176746D01*
X0148417Y0175613D01*
X0148417Y0174387D01*
X0148887Y0173254D01*
X0149640Y0172500D01*
X0148887Y0171746D01*
X0148417Y0170613D01*
X0148417Y0169387D01*
X0148887Y0168254D01*
X0149640Y0167500D01*
X0148887Y0166746D01*
X0148417Y0165613D01*
X0148417Y0164387D01*
X0148887Y0163254D01*
X0149640Y0162500D01*
X0148887Y0161746D01*
X0148417Y0160613D01*
X0148417Y0159387D01*
X0148887Y0158254D01*
X0149754Y0157387D01*
X0150887Y0156917D01*
X0152113Y0156917D01*
X0152950Y0157264D01*
X0158901Y0151313D01*
X0158901Y0146509D01*
X0159662Y0145747D01*
X0165857Y0145747D01*
X0166500Y0146390D01*
X0167143Y0145747D01*
X0168440Y0145747D01*
X0168440Y0140514D01*
X0169495Y0139460D01*
X0177274Y0131681D01*
X0176952Y0130905D01*
X0176952Y0129095D01*
X0177644Y0127424D01*
X0178924Y0126144D01*
X0180595Y0125452D01*
X0182405Y0125452D01*
X0184076Y0126144D01*
X0185356Y0127424D01*
X0186048Y0129095D01*
X0186048Y0130905D01*
X0185356Y0132576D01*
X0184076Y0133856D01*
X0182405Y0134548D01*
X0180595Y0134548D01*
X0179819Y0134226D01*
X0172040Y0142005D01*
X0172040Y0145747D01*
X0173207Y0145747D01*
X0173929Y0145026D01*
X0177274Y0141681D01*
X0176952Y0140905D01*
X0176952Y0139095D01*
X0177644Y0137424D01*
X0178924Y0136144D01*
X0180595Y0135452D01*
X0182405Y0135452D01*
X0184076Y0136144D01*
X0185356Y0137424D01*
X0186048Y0139095D01*
X0186048Y0140905D01*
X0185356Y0142576D01*
X0184076Y0143856D01*
X0182405Y0144548D01*
X0180595Y0144548D01*
X0179819Y0144226D01*
X0176474Y0147571D01*
X0176474Y0152480D01*
X0177274Y0151681D01*
X0176952Y0150905D01*
X0176952Y0149095D01*
X0177644Y0147424D01*
X0178924Y0146144D01*
X0180595Y0145452D01*
X0182405Y0145452D01*
X0184076Y0146144D01*
X0185356Y0147424D01*
X0186048Y0149095D01*
X0186048Y0150905D01*
X0185356Y0152576D01*
X0184076Y0153856D01*
X0182405Y0154548D01*
X0180595Y0154548D01*
X0179819Y0154226D01*
X0178349Y0155696D01*
X0178349Y0156719D01*
X0178924Y0156144D01*
X0180595Y0155452D01*
X0182405Y0155452D01*
X0184076Y0156144D01*
X0185356Y0157424D01*
X0186048Y0159095D01*
X0186048Y0160905D01*
X0185356Y0162576D01*
X0184076Y0163856D01*
X0182405Y0164548D01*
X0180595Y0164548D01*
X0179819Y0164226D01*
X0176474Y0167571D01*
X0176474Y0172480D01*
X0177274Y0171681D01*
X0176952Y0170905D01*
X0176952Y0169095D01*
X0177644Y0167424D01*
X0178924Y0166144D01*
X0180595Y0165452D01*
X0182405Y0165452D01*
X0184076Y0166144D01*
X0185356Y0167424D01*
X0186048Y0169095D01*
X0186048Y0170905D01*
X0185356Y0172576D01*
X0184076Y0173856D01*
X0182405Y0174548D01*
X0180595Y0174548D01*
X0179819Y0174226D01*
X0178349Y0175696D01*
X0178349Y0176719D01*
X0178924Y0176144D01*
X0180595Y0175452D01*
X0182405Y0175452D01*
X0184076Y0176144D01*
X0185356Y0177424D01*
X0186048Y0179095D01*
X0186048Y0180905D01*
X0185356Y0182576D01*
X0184076Y0183856D01*
X0182405Y0184548D01*
X0181203Y0184548D01*
X0180089Y0185662D01*
X0180595Y0185452D01*
X0182405Y0185452D01*
X0184076Y0186144D01*
X0185356Y0187424D01*
X0186048Y0189095D01*
X0186048Y0190905D01*
X0185523Y0192171D01*
X0204057Y0173638D01*
X0202200Y0171781D01*
X0202200Y0168219D01*
X0204719Y0165700D01*
X0208281Y0165700D01*
X0210800Y0168219D01*
X0210800Y0169236D01*
X0211836Y0168200D01*
X0212219Y0168200D01*
X0214719Y0165700D01*
X0218281Y0165700D01*
X0220800Y0168219D01*
X0220800Y0171781D01*
X0218281Y0174300D01*
X0214719Y0174300D01*
X0212773Y0172354D01*
X0209027Y0176100D01*
X0208964Y0176100D01*
X0211000Y0178136D01*
X0211000Y0179500D01*
X0207000Y0179500D01*
X0207000Y0180500D01*
X0206000Y0180500D01*
X0206000Y0184500D01*
X0204636Y0184500D01*
X0202000Y0181864D01*
X0202000Y0180786D01*
X0195385Y0187401D01*
X0199991Y0187401D01*
X0200753Y0188162D01*
X0200753Y0189460D01*
X0202200Y0189460D01*
X0202200Y0188219D01*
X0204719Y0185700D01*
X0208281Y0185700D01*
X0210800Y0188219D01*
X0210800Y0191781D01*
X0208281Y0194300D01*
X0204719Y0194300D01*
X0203479Y0193060D01*
X0200753Y0193060D01*
X0200753Y0194357D01*
X0200110Y0195000D01*
X0200753Y0195643D01*
X0200753Y0201838D01*
X0199991Y0202599D01*
X0198300Y0202599D01*
X0198300Y0207440D01*
X0199113Y0208254D01*
X0199583Y0209387D01*
X0199583Y0210613D01*
X0199113Y0211746D01*
X0198246Y0212613D01*
X0197113Y0213083D01*
X0195887Y0213083D01*
X0194754Y0212613D01*
X0193887Y0211746D01*
X0193417Y0210613D01*
X0193417Y0209387D01*
X0193887Y0208254D01*
X0194700Y0207440D01*
X0194700Y0202599D01*
X0193009Y0202599D01*
X0192247Y0201838D01*
X0192247Y0195643D01*
X0192890Y0195000D01*
X0192247Y0194357D01*
X0192247Y0190538D01*
X0186588Y0196198D01*
X0185534Y0197252D01*
X0185184Y0197252D01*
X0185356Y0197424D01*
X0186048Y0199095D01*
X0186048Y0200905D01*
X0185356Y0202576D01*
X0184076Y0203856D01*
X0182405Y0204548D01*
X0180595Y0204548D01*
X0178924Y0203856D01*
X0178752Y0203684D01*
X0178752Y0204034D01*
X0177698Y0205088D01*
X0174099Y0208687D01*
X0174099Y0213491D01*
X0173338Y0214253D01*
X0167143Y0214253D01*
X0166500Y0213610D01*
X0165857Y0214253D01*
X0159662Y0214253D01*
X0158901Y0213491D01*
X0158901Y0211800D01*
X0155754Y0211800D01*
X0152135Y0208180D01*
X0152133Y0208181D01*
X0150867Y0208181D01*
X0149698Y0207697D01*
X0148803Y0206802D01*
X0148319Y0205633D01*
X0148319Y0204367D01*
X0148803Y0203198D01*
X0149698Y0202303D01*
X0150867Y0201819D01*
X0152133Y0201819D01*
X0153302Y0202303D01*
X0154197Y0203198D01*
X0154681Y0204367D01*
X0154681Y0205633D01*
X0154680Y0205635D01*
X0157246Y0208200D01*
X0158901Y0208200D01*
X0158901Y0206509D01*
X0159662Y0205747D01*
X0165857Y0205747D01*
X0166500Y0206390D01*
X0167143Y0205747D01*
X0171947Y0205747D01*
X0175152Y0202543D01*
X0175152Y0197371D01*
X0176206Y0196316D01*
X0176206Y0196316D01*
X0177816Y0194706D01*
X0178795Y0193727D01*
X0177706Y0192638D01*
X0173968Y0196377D01*
X0174099Y0196509D01*
X0174099Y0203491D01*
X0173338Y0204253D01*
X0167143Y0204253D01*
X0166500Y0203610D01*
X0165857Y0204253D01*
X0159662Y0204253D01*
X0158901Y0203491D01*
X0158901Y0201800D01*
X0149060Y0201800D01*
X0148246Y0202613D01*
X0147113Y0203083D01*
X0145887Y0203083D01*
X0144754Y0202613D01*
X0143887Y0201746D01*
X0143417Y0200613D01*
X0143417Y0199387D01*
X0143887Y0198254D01*
X0144754Y0197387D01*
X0145887Y0196917D01*
X0147113Y0196917D01*
X0148246Y0197387D01*
X0149060Y0198200D01*
X0158901Y0198200D01*
X0158901Y0196509D01*
X0159662Y0195747D01*
X0165857Y0195747D01*
X0166500Y0196390D01*
X0167143Y0195747D01*
X0169506Y0195747D01*
X0171001Y0194253D01*
X0167143Y0194253D01*
X0166500Y0193610D01*
X0165857Y0194253D01*
X0159662Y0194253D01*
X0158901Y0193491D01*
X0158901Y0191800D01*
X0147246Y0191800D01*
X0144583Y0194463D01*
X0144583Y0195613D01*
X0144113Y0196746D01*
X0143246Y0197613D01*
X0142113Y0198083D01*
X0140887Y0198083D01*
X0139754Y0197613D01*
X0138887Y0196746D01*
X0138417Y0195613D01*
X0138417Y0194387D01*
X0138887Y0193254D01*
X0139754Y0192387D01*
X0140887Y0191917D01*
X0142037Y0191917D01*
X0145754Y0188200D01*
X0158901Y0188200D01*
X0158901Y0186509D01*
X0159662Y0185747D01*
X0165857Y0185747D01*
X0166500Y0186390D01*
X0167143Y0185747D01*
X0171554Y0185747D01*
X0173048Y0184253D01*
X0167143Y0184253D01*
X0166500Y0183610D01*
X0165857Y0184253D01*
X0159662Y0184253D01*
X0158901Y0183491D01*
X0158901Y0181800D01*
X0155754Y0181800D01*
X0152037Y0178083D01*
X0150119Y0177765D02*
X0112881Y0177765D01*
X0114093Y0176766D02*
X0148907Y0176766D01*
X0148481Y0175768D02*
X0114519Y0175768D01*
X0114583Y0174769D02*
X0148417Y0174769D01*
X0148673Y0173771D02*
X0114327Y0173771D01*
X0113632Y0172772D02*
X0115137Y0172772D01*
X0113914Y0171774D02*
X0113300Y0171774D01*
X0113300Y0170775D02*
X0113484Y0170775D01*
X0113417Y0169777D02*
X0113300Y0169777D01*
X0113300Y0168778D02*
X0113669Y0168778D01*
X0113300Y0167780D02*
X0114361Y0167780D01*
X0114700Y0166781D02*
X0113300Y0166781D01*
X0113300Y0165783D02*
X0114700Y0165783D01*
X0114700Y0164784D02*
X0114261Y0164784D01*
X0116500Y0162546D02*
X0130446Y0148600D01*
X0153163Y0148600D01*
X0178300Y0123463D01*
X0178300Y0123200D01*
X0181500Y0120000D01*
X0184087Y0123845D02*
X0204264Y0123845D01*
X0203266Y0122847D02*
X0185085Y0122847D01*
X0185657Y0121848D02*
X0202267Y0121848D01*
X0202200Y0120850D02*
X0186048Y0120850D01*
X0186048Y0119851D02*
X0202200Y0119851D01*
X0202200Y0118853D02*
X0185947Y0118853D01*
X0185534Y0117854D02*
X0202565Y0117854D01*
X0203563Y0116856D02*
X0184787Y0116856D01*
X0183383Y0115857D02*
X0204562Y0115857D01*
X0204279Y0113860D02*
X0184066Y0113860D01*
X0185070Y0112862D02*
X0195353Y0112862D01*
X0194003Y0111863D02*
X0185651Y0111863D01*
X0186048Y0110865D02*
X0193521Y0110865D01*
X0193417Y0109866D02*
X0186048Y0109866D01*
X0185954Y0108868D02*
X0193632Y0108868D01*
X0194271Y0107869D02*
X0185540Y0107869D01*
X0184802Y0106870D02*
X0194300Y0106870D01*
X0194300Y0105872D02*
X0183419Y0105872D01*
X0184030Y0103875D02*
X0194300Y0103875D01*
X0194300Y0104873D02*
X0179172Y0104873D01*
X0179581Y0105872D02*
X0178174Y0105872D01*
X0178198Y0106870D02*
X0177175Y0106870D01*
X0177460Y0107869D02*
X0176177Y0107869D01*
X0177046Y0108868D02*
X0175178Y0108868D01*
X0174180Y0109866D02*
X0176952Y0109866D01*
X0176952Y0110865D02*
X0174436Y0110865D01*
X0175434Y0111863D02*
X0177091Y0111863D01*
X0176093Y0112862D02*
X0176026Y0112862D01*
X0176500Y0115000D02*
X0176500Y0122717D01*
X0152417Y0146800D01*
X0129700Y0146800D01*
X0111500Y0165000D01*
X0111500Y0175000D01*
X0108673Y0173771D02*
X0108300Y0173771D01*
X0108300Y0174769D02*
X0108417Y0174769D01*
X0108481Y0175768D02*
X0108300Y0175768D01*
X0108300Y0176766D02*
X0108907Y0176766D01*
X0108624Y0177765D02*
X0110119Y0177765D01*
X0109583Y0179762D02*
X0153716Y0179762D01*
X0154715Y0180760D02*
X0109522Y0180760D01*
X0109101Y0181759D02*
X0155713Y0181759D01*
X0156500Y0180000D02*
X0151500Y0175000D01*
X0149368Y0172772D02*
X0117863Y0172772D01*
X0119086Y0171774D02*
X0148914Y0171774D01*
X0148484Y0170775D02*
X0119516Y0170775D01*
X0119583Y0169777D02*
X0148417Y0169777D01*
X0148669Y0168778D02*
X0119331Y0168778D01*
X0118639Y0167780D02*
X0149361Y0167780D01*
X0148922Y0166781D02*
X0118300Y0166781D01*
X0118300Y0165783D02*
X0148488Y0165783D01*
X0148417Y0164784D02*
X0118300Y0164784D01*
X0118300Y0163786D02*
X0148666Y0163786D01*
X0149353Y0162787D02*
X0118804Y0162787D01*
X0119803Y0161789D02*
X0148929Y0161789D01*
X0148491Y0160790D02*
X0120801Y0160790D01*
X0121800Y0159792D02*
X0148417Y0159792D01*
X0148663Y0158793D02*
X0122798Y0158793D01*
X0123797Y0157795D02*
X0149346Y0157795D01*
X0151500Y0160000D02*
X0152760Y0160000D01*
X0162760Y0150000D01*
X0158901Y0149806D02*
X0154502Y0149806D01*
X0155501Y0148808D02*
X0158901Y0148808D01*
X0158901Y0147809D02*
X0156499Y0147809D01*
X0157498Y0146811D02*
X0158901Y0146811D01*
X0158496Y0145812D02*
X0159597Y0145812D01*
X0159495Y0144814D02*
X0168440Y0144814D01*
X0168440Y0143815D02*
X0160493Y0143815D01*
X0161492Y0142817D02*
X0168440Y0142817D01*
X0168440Y0141818D02*
X0162490Y0141818D01*
X0163489Y0140820D02*
X0168440Y0140820D01*
X0169133Y0139821D02*
X0164487Y0139821D01*
X0165486Y0138823D02*
X0170132Y0138823D01*
X0171130Y0137824D02*
X0166484Y0137824D01*
X0167483Y0136826D02*
X0172129Y0136826D01*
X0173127Y0135827D02*
X0168481Y0135827D01*
X0169480Y0134829D02*
X0174126Y0134829D01*
X0175124Y0133830D02*
X0170478Y0133830D01*
X0171477Y0132832D02*
X0176123Y0132832D01*
X0177121Y0131833D02*
X0172475Y0131833D01*
X0173474Y0130835D02*
X0176952Y0130835D01*
X0176952Y0129836D02*
X0174472Y0129836D01*
X0175471Y0128838D02*
X0177059Y0128838D01*
X0177472Y0127839D02*
X0176469Y0127839D01*
X0177468Y0126841D02*
X0178227Y0126841D01*
X0178466Y0125842D02*
X0179653Y0125842D01*
X0179465Y0124844D02*
X0239421Y0124844D01*
X0239421Y0125842D02*
X0218706Y0125842D01*
X0219705Y0126841D02*
X0239421Y0126841D01*
X0239421Y0127839D02*
X0220703Y0127839D01*
X0221000Y0128838D02*
X0239421Y0128838D01*
X0239421Y0129836D02*
X0217000Y0129836D01*
X0217000Y0128838D02*
X0216000Y0128838D01*
X0216000Y0127839D02*
X0217000Y0127839D01*
X0217000Y0126841D02*
X0216000Y0126841D01*
X0216000Y0125842D02*
X0217000Y0125842D01*
X0218736Y0123845D02*
X0239421Y0123845D01*
X0239421Y0122847D02*
X0219734Y0122847D01*
X0220733Y0121848D02*
X0239421Y0121848D01*
X0239421Y0120850D02*
X0220800Y0120850D01*
X0220800Y0119851D02*
X0239421Y0119851D01*
X0239421Y0118853D02*
X0220800Y0118853D01*
X0220435Y0117854D02*
X0239421Y0117854D01*
X0239421Y0116856D02*
X0219437Y0116856D01*
X0218438Y0115857D02*
X0239421Y0115857D01*
X0239421Y0114859D02*
X0179187Y0114859D01*
X0179617Y0115857D02*
X0178300Y0115857D01*
X0176500Y0115000D02*
X0181500Y0110000D01*
X0185055Y0102876D02*
X0194300Y0102876D01*
X0194300Y0101878D02*
X0185645Y0101878D01*
X0186048Y0100879D02*
X0194300Y0100879D01*
X0194300Y0099881D02*
X0186048Y0099881D01*
X0185960Y0098882D02*
X0194300Y0098882D01*
X0194300Y0097884D02*
X0185546Y0097884D01*
X0184817Y0096885D02*
X0194300Y0096885D01*
X0194300Y0095887D02*
X0183455Y0095887D01*
X0183994Y0093890D02*
X0194300Y0093890D01*
X0194300Y0092891D02*
X0185041Y0092891D01*
X0185639Y0091893D02*
X0194300Y0091893D01*
X0194300Y0090894D02*
X0186048Y0090894D01*
X0186048Y0089896D02*
X0194300Y0089896D01*
X0194300Y0088897D02*
X0185966Y0088897D01*
X0185552Y0087899D02*
X0194300Y0087899D01*
X0194300Y0086900D02*
X0184832Y0086900D01*
X0183491Y0085902D02*
X0194290Y0085902D01*
X0193292Y0084903D02*
X0174142Y0084903D01*
X0173144Y0085902D02*
X0179509Y0085902D01*
X0178168Y0086900D02*
X0172145Y0086900D01*
X0171147Y0087899D02*
X0177448Y0087899D01*
X0177034Y0088897D02*
X0170148Y0088897D01*
X0169150Y0089896D02*
X0176952Y0089896D01*
X0175989Y0090894D02*
X0168151Y0090894D01*
X0167153Y0091893D02*
X0174991Y0091893D01*
X0173992Y0092891D02*
X0166154Y0092891D01*
X0165156Y0093890D02*
X0172993Y0093890D01*
X0171995Y0094888D02*
X0164157Y0094888D01*
X0163159Y0095887D02*
X0170996Y0095887D01*
X0169998Y0096885D02*
X0162160Y0096885D01*
X0161162Y0097884D02*
X0168999Y0097884D01*
X0168001Y0098882D02*
X0160163Y0098882D01*
X0159165Y0099881D02*
X0167002Y0099881D01*
X0166004Y0100879D02*
X0158166Y0100879D01*
X0157168Y0101878D02*
X0165005Y0101878D01*
X0164007Y0102876D02*
X0156169Y0102876D01*
X0155171Y0103875D02*
X0163008Y0103875D01*
X0162010Y0104873D02*
X0154172Y0104873D01*
X0153174Y0105872D02*
X0161011Y0105872D01*
X0160013Y0106870D02*
X0152175Y0106870D01*
X0150628Y0105872D02*
X0096508Y0105872D01*
X0096548Y0106870D02*
X0149630Y0106870D01*
X0148631Y0107869D02*
X0096548Y0107869D01*
X0096548Y0108868D02*
X0100006Y0108868D01*
X0099039Y0109866D02*
X0096548Y0109866D01*
X0096548Y0110865D02*
X0098626Y0110865D01*
X0098419Y0111863D02*
X0096548Y0111863D01*
X0096548Y0112862D02*
X0098419Y0112862D01*
X0098756Y0113860D02*
X0096548Y0113860D01*
X0099323Y0114859D02*
X0092402Y0114859D01*
X0091403Y0115857D02*
X0100424Y0115857D01*
X0103901Y0116856D02*
X0090405Y0116856D01*
X0089406Y0117854D02*
X0103901Y0117854D01*
X0103901Y0118853D02*
X0088408Y0118853D01*
X0087409Y0119851D02*
X0103901Y0119851D01*
X0103901Y0120850D02*
X0086411Y0120850D01*
X0085412Y0121848D02*
X0103901Y0121848D01*
X0103901Y0122847D02*
X0084414Y0122847D01*
X0083415Y0123845D02*
X0104255Y0123845D01*
X0105960Y0124844D02*
X0082417Y0124844D01*
X0081418Y0125842D02*
X0104567Y0125842D01*
X0103901Y0126841D02*
X0080420Y0126841D01*
X0079421Y0127839D02*
X0103901Y0127839D01*
X0107760Y0130000D02*
X0107760Y0120000D01*
X0111265Y0123845D02*
X0111464Y0123845D01*
X0110952Y0125842D02*
X0112048Y0125842D01*
X0109560Y0124844D02*
X0118417Y0124844D01*
X0115740Y0123845D02*
X0114740Y0123845D01*
X0114740Y0122847D02*
X0115740Y0122847D01*
X0115740Y0121848D02*
X0114740Y0121848D01*
X0114740Y0120850D02*
X0115740Y0120850D01*
X0115240Y0120000D02*
X0115240Y0091339D01*
X0103902Y0080000D01*
X0104402Y0079911D02*
X0176589Y0079911D01*
X0177028Y0078912D02*
X0109339Y0078912D01*
X0109339Y0079500D02*
X0104402Y0079500D01*
X0104402Y0080500D01*
X0109339Y0080500D01*
X0109339Y0087678D01*
X0109236Y0088059D01*
X0109039Y0088401D01*
X0108760Y0088681D01*
X0108418Y0088878D01*
X0108036Y0088980D01*
X0104402Y0088980D01*
X0104402Y0080500D01*
X0103402Y0080500D01*
X0103402Y0088980D01*
X0099767Y0088980D01*
X0099386Y0088878D01*
X0099044Y0088681D01*
X0098764Y0088401D01*
X0098567Y0088059D01*
X0098465Y0087678D01*
X0098465Y0080500D01*
X0103402Y0080500D01*
X0103402Y0079500D01*
X0104402Y0079500D01*
X0104402Y0071020D01*
X0108036Y0071020D01*
X0108418Y0071122D01*
X0108760Y0071319D01*
X0109039Y0071599D01*
X0109236Y0071941D01*
X0109339Y0072322D01*
X0109339Y0079500D01*
X0109339Y0080909D02*
X0175591Y0080909D01*
X0174592Y0081908D02*
X0109339Y0081908D01*
X0109339Y0082906D02*
X0173594Y0082906D01*
X0172595Y0083905D02*
X0109339Y0083905D01*
X0109339Y0084903D02*
X0171597Y0084903D01*
X0170598Y0085902D02*
X0109339Y0085902D01*
X0109339Y0086900D02*
X0169600Y0086900D01*
X0168601Y0087899D02*
X0109279Y0087899D01*
X0108346Y0088897D02*
X0167603Y0088897D01*
X0166604Y0089896D02*
X0091500Y0089896D01*
X0091500Y0090894D02*
X0165606Y0090894D01*
X0164607Y0091893D02*
X0091500Y0091893D01*
X0091500Y0092891D02*
X0163609Y0092891D01*
X0162610Y0093890D02*
X0091500Y0093890D01*
X0091500Y0094888D02*
X0161612Y0094888D01*
X0160613Y0095887D02*
X0100367Y0095887D01*
X0100753Y0096885D02*
X0159615Y0096885D01*
X0158616Y0097884D02*
X0100753Y0097884D01*
X0100753Y0098882D02*
X0157618Y0098882D01*
X0156619Y0099881D02*
X0100753Y0099881D01*
X0100753Y0100879D02*
X0155621Y0100879D01*
X0154622Y0101878D02*
X0100753Y0101878D01*
X0100753Y0102876D02*
X0153624Y0102876D01*
X0152625Y0103875D02*
X0100133Y0103875D01*
X0096552Y0104873D02*
X0151627Y0104873D01*
X0153805Y0107869D02*
X0159014Y0107869D01*
X0158016Y0108868D02*
X0154723Y0108868D01*
X0154781Y0109866D02*
X0157017Y0109866D01*
X0156019Y0110865D02*
X0154781Y0110865D01*
X0155020Y0111863D02*
X0150833Y0111863D01*
X0150833Y0112679D02*
X0149884Y0112679D01*
X0149884Y0116628D01*
X0149099Y0116628D01*
X0149099Y0123491D01*
X0148338Y0124253D01*
X0148300Y0124253D01*
X0148300Y0125747D01*
X0148338Y0125747D01*
X0149099Y0126509D01*
X0149099Y0131313D01*
X0151104Y0133318D01*
X0151471Y0133685D01*
X0152751Y0134215D01*
X0152781Y0134246D01*
X0152781Y0116628D01*
X0150833Y0116628D01*
X0150833Y0112679D01*
X0150833Y0112862D02*
X0149884Y0112862D01*
X0149884Y0113860D02*
X0150833Y0113860D01*
X0150833Y0114859D02*
X0149884Y0114859D01*
X0149884Y0115857D02*
X0150833Y0115857D01*
X0149099Y0116856D02*
X0152781Y0116856D01*
X0152781Y0117854D02*
X0149099Y0117854D01*
X0149099Y0118853D02*
X0152781Y0118853D01*
X0152781Y0119851D02*
X0149099Y0119851D01*
X0149099Y0120850D02*
X0152781Y0120850D01*
X0152781Y0121848D02*
X0149099Y0121848D01*
X0149099Y0122847D02*
X0152781Y0122847D01*
X0152781Y0123845D02*
X0148745Y0123845D01*
X0148300Y0124844D02*
X0152781Y0124844D01*
X0152781Y0125842D02*
X0148433Y0125842D01*
X0149099Y0126841D02*
X0152781Y0126841D01*
X0152781Y0127839D02*
X0149099Y0127839D01*
X0149099Y0128838D02*
X0152781Y0128838D01*
X0152781Y0129836D02*
X0149099Y0129836D01*
X0149099Y0130835D02*
X0152781Y0130835D01*
X0152781Y0131833D02*
X0149619Y0131833D01*
X0150618Y0132832D02*
X0152781Y0132832D01*
X0152781Y0133830D02*
X0151822Y0133830D01*
X0150358Y0135118D02*
X0150358Y0137795D01*
X0132642Y0137795D01*
X0124481Y0142019D02*
X0152108Y0142019D01*
X0154581Y0139545D01*
X0154581Y0114847D01*
X0179429Y0090000D01*
X0181500Y0090000D01*
X0179042Y0083905D02*
X0175141Y0083905D01*
X0176139Y0082906D02*
X0177974Y0082906D01*
X0177367Y0081908D02*
X0177138Y0081908D01*
X0177441Y0077914D02*
X0127521Y0077914D01*
X0125479Y0077914D02*
X0109339Y0077914D01*
X0109339Y0076915D02*
X0124056Y0076915D01*
X0123543Y0075917D02*
X0109339Y0075917D01*
X0109339Y0074918D02*
X0123417Y0074918D01*
X0123611Y0073920D02*
X0109339Y0073920D01*
X0109339Y0072921D02*
X0124219Y0072921D01*
X0125874Y0071923D02*
X0109226Y0071923D01*
X0104402Y0071923D02*
X0103402Y0071923D01*
X0103402Y0071020D02*
X0099767Y0071020D01*
X0099386Y0071122D01*
X0099044Y0071319D01*
X0098764Y0071599D01*
X0098567Y0071941D01*
X0098465Y0072322D01*
X0098465Y0079500D01*
X0103402Y0079500D01*
X0103402Y0071020D01*
X0103402Y0072921D02*
X0104402Y0072921D01*
X0104402Y0073920D02*
X0103402Y0073920D01*
X0103402Y0074918D02*
X0104402Y0074918D01*
X0104402Y0075917D02*
X0103402Y0075917D01*
X0103402Y0076915D02*
X0104402Y0076915D01*
X0104402Y0077914D02*
X0103402Y0077914D01*
X0103402Y0078912D02*
X0104402Y0078912D01*
X0103402Y0079911D02*
X0091500Y0079911D01*
X0091500Y0080909D02*
X0098465Y0080909D01*
X0098465Y0081908D02*
X0091500Y0081908D01*
X0091500Y0082906D02*
X0098465Y0082906D01*
X0098465Y0083905D02*
X0091500Y0083905D01*
X0091500Y0084903D02*
X0098465Y0084903D01*
X0098465Y0085902D02*
X0091500Y0085902D01*
X0091500Y0086900D02*
X0098465Y0086900D01*
X0098524Y0087899D02*
X0091500Y0087899D01*
X0091500Y0088897D02*
X0099457Y0088897D01*
X0103402Y0088897D02*
X0104402Y0088897D01*
X0104402Y0087899D02*
X0103402Y0087899D01*
X0103402Y0086900D02*
X0104402Y0086900D01*
X0104402Y0085902D02*
X0103402Y0085902D01*
X0103402Y0084903D02*
X0104402Y0084903D01*
X0104402Y0083905D02*
X0103402Y0083905D01*
X0103402Y0082906D02*
X0104402Y0082906D01*
X0104402Y0081908D02*
X0103402Y0081908D01*
X0103402Y0080909D02*
X0104402Y0080909D01*
X0098465Y0078912D02*
X0091500Y0078912D01*
X0091500Y0077914D02*
X0098465Y0077914D01*
X0098465Y0076915D02*
X0091500Y0076915D01*
X0091500Y0075917D02*
X0098465Y0075917D01*
X0098465Y0074918D02*
X0091500Y0074918D01*
X0091500Y0073920D02*
X0098465Y0073920D01*
X0098465Y0072921D02*
X0091500Y0072921D01*
X0091500Y0071923D02*
X0098577Y0071923D01*
X0091500Y0070924D02*
X0176960Y0070924D01*
X0176952Y0069926D02*
X0091500Y0069926D01*
X0091500Y0068927D02*
X0177022Y0068927D01*
X0177435Y0067929D02*
X0148926Y0067929D01*
X0151337Y0066930D02*
X0178138Y0066930D01*
X0179438Y0065932D02*
X0152687Y0065932D01*
X0144074Y0067929D02*
X0091500Y0067929D01*
X0091500Y0066930D02*
X0141663Y0066930D01*
X0140313Y0065932D02*
X0091500Y0065932D01*
X0091500Y0064933D02*
X0139314Y0064933D01*
X0138343Y0063934D02*
X0098939Y0063934D01*
X0098999Y0063874D02*
X0098720Y0064153D01*
X0098378Y0064351D01*
X0097997Y0064453D01*
X0095740Y0064453D01*
X0095740Y0060500D01*
X0099299Y0060500D01*
X0099299Y0063150D01*
X0099197Y0063532D01*
X0098999Y0063874D01*
X0099299Y0062936D02*
X0137929Y0062936D01*
X0137516Y0061937D02*
X0099299Y0061937D01*
X0099299Y0060939D02*
X0137102Y0060939D01*
X0136901Y0059940D02*
X0095740Y0059940D01*
X0095740Y0058942D02*
X0094740Y0058942D01*
X0094740Y0057943D02*
X0095740Y0057943D01*
X0095740Y0056945D02*
X0094740Y0056945D01*
X0094740Y0055946D02*
X0095740Y0055946D01*
X0093181Y0054948D02*
X0120380Y0054948D01*
X0120505Y0055000D02*
X0118668Y0054239D01*
X0117261Y0052832D01*
X0116500Y0050995D01*
X0116500Y0049005D01*
X0117261Y0047168D01*
X0118668Y0045761D01*
X0120505Y0045000D01*
X0118668Y0044239D01*
X0117261Y0042832D01*
X0116500Y0040995D01*
X0116500Y0039005D01*
X0117261Y0037168D01*
X0118668Y0035761D01*
X0120505Y0035000D01*
X0122495Y0035000D01*
X0124332Y0035761D01*
X0125739Y0037168D01*
X0126500Y0039005D01*
X0126500Y0040995D01*
X0125739Y0042832D01*
X0124332Y0044239D01*
X0122495Y0045000D01*
X0120505Y0045000D01*
X0122495Y0045000D01*
X0124332Y0045761D01*
X0125739Y0047168D01*
X0126500Y0049005D01*
X0126500Y0050995D01*
X0125739Y0052832D01*
X0124332Y0054239D01*
X0122495Y0055000D01*
X0120505Y0055000D01*
X0122620Y0054948D02*
X0137599Y0054948D01*
X0137186Y0055946D02*
X0098820Y0055946D01*
X0099299Y0056945D02*
X0136901Y0056945D01*
X0136901Y0057943D02*
X0099299Y0057943D01*
X0099299Y0058942D02*
X0136901Y0058942D01*
X0138013Y0053949D02*
X0124622Y0053949D01*
X0125620Y0052951D02*
X0138517Y0052951D01*
X0139516Y0051952D02*
X0126103Y0051952D01*
X0126500Y0050954D02*
X0139310Y0050954D01*
X0138311Y0049955D02*
X0126500Y0049955D01*
X0126480Y0048957D02*
X0137313Y0048957D01*
X0136314Y0047958D02*
X0126066Y0047958D01*
X0125531Y0046960D02*
X0135316Y0046960D01*
X0134317Y0045961D02*
X0124532Y0045961D01*
X0124607Y0043964D02*
X0126651Y0043964D01*
X0126651Y0042966D02*
X0125605Y0042966D01*
X0126097Y0041967D02*
X0126651Y0041967D01*
X0126651Y0040969D02*
X0126500Y0040969D01*
X0126500Y0039970D02*
X0126651Y0039970D01*
X0126651Y0038972D02*
X0126486Y0038972D01*
X0126651Y0037973D02*
X0126072Y0037973D01*
X0125546Y0036975D02*
X0126651Y0036975D01*
X0124547Y0035976D02*
X0137807Y0035976D01*
X0138220Y0036975D02*
X0136349Y0036975D01*
X0136349Y0037973D02*
X0138634Y0037973D01*
X0139073Y0038972D02*
X0136349Y0038972D01*
X0136349Y0039970D02*
X0140071Y0039970D01*
X0141070Y0040969D02*
X0136349Y0040969D01*
X0136349Y0041967D02*
X0142860Y0041967D01*
X0142404Y0048957D02*
X0144560Y0048957D01*
X0146500Y0055598D02*
X0146500Y0058543D01*
X0146500Y0055598D02*
X0131500Y0040598D01*
X0127327Y0044963D02*
X0122584Y0044963D01*
X0120416Y0044963D02*
X0102012Y0044963D01*
X0103010Y0043964D02*
X0118393Y0043964D01*
X0117395Y0042966D02*
X0104009Y0042966D01*
X0105007Y0041967D02*
X0116903Y0041967D01*
X0116500Y0040969D02*
X0106006Y0040969D01*
X0107004Y0039970D02*
X0116500Y0039970D01*
X0116514Y0038972D02*
X0108003Y0038972D01*
X0109001Y0037973D02*
X0116928Y0037973D01*
X0117454Y0036975D02*
X0110000Y0036975D01*
X0110998Y0035976D02*
X0118453Y0035976D01*
X0118468Y0045961D02*
X0101013Y0045961D01*
X0100015Y0046960D02*
X0117469Y0046960D01*
X0116934Y0047958D02*
X0099016Y0047958D01*
X0098018Y0048957D02*
X0116520Y0048957D01*
X0116500Y0049955D02*
X0097019Y0049955D01*
X0096021Y0050954D02*
X0116500Y0050954D01*
X0116897Y0051952D02*
X0095022Y0051952D01*
X0094024Y0052951D02*
X0117380Y0052951D01*
X0118378Y0053949D02*
X0093181Y0053949D01*
X0094740Y0060939D02*
X0095740Y0060939D01*
X0095740Y0061937D02*
X0094740Y0061937D01*
X0094740Y0062936D02*
X0095740Y0062936D01*
X0095740Y0063934D02*
X0094740Y0063934D01*
X0091542Y0063934D02*
X0091500Y0063934D01*
X0089700Y0071923D02*
X0084535Y0071923D01*
X0084535Y0072921D02*
X0089700Y0072921D01*
X0089700Y0073920D02*
X0084535Y0073920D01*
X0084136Y0074918D02*
X0089700Y0074918D01*
X0089700Y0095887D02*
X0088699Y0095887D01*
X0091500Y0095887D02*
X0092633Y0095887D01*
X0092247Y0096885D02*
X0091500Y0096885D01*
X0091500Y0097884D02*
X0092247Y0097884D01*
X0092219Y0098882D02*
X0091500Y0098882D01*
X0084761Y0103875D02*
X0077688Y0103875D01*
X0079402Y0102876D02*
X0083316Y0102876D01*
X0082580Y0101878D02*
X0080227Y0101878D01*
X0080641Y0100879D02*
X0082181Y0100879D01*
X0081402Y0105872D02*
X0080402Y0105872D01*
X0080402Y0106870D02*
X0081402Y0106870D01*
X0081402Y0107869D02*
X0080402Y0107869D01*
X0080402Y0108868D02*
X0081402Y0108868D01*
X0076252Y0110865D02*
X0054270Y0110865D01*
X0053271Y0111863D02*
X0061557Y0111863D01*
X0061553Y0111870D02*
X0061750Y0111528D01*
X0062030Y0111249D01*
X0062372Y0111051D01*
X0062753Y0110949D01*
X0066000Y0110949D01*
X0066000Y0115098D01*
X0067000Y0115098D01*
X0067000Y0116098D01*
X0066000Y0116098D01*
X0066000Y0115098D01*
X0061451Y0115098D01*
X0061451Y0112251D01*
X0061553Y0111870D01*
X0061451Y0112862D02*
X0052273Y0112862D01*
X0051274Y0113860D02*
X0061451Y0113860D01*
X0061451Y0114859D02*
X0050275Y0114859D01*
X0049277Y0115857D02*
X0066000Y0115857D01*
X0066000Y0116098D02*
X0061451Y0116098D01*
X0061451Y0118946D01*
X0061553Y0119327D01*
X0061750Y0119669D01*
X0062030Y0119948D01*
X0062372Y0120146D01*
X0062753Y0120248D01*
X0066000Y0120248D01*
X0066000Y0116098D01*
X0066000Y0116856D02*
X0067000Y0116856D01*
X0067000Y0117854D02*
X0066000Y0117854D01*
X0066000Y0118853D02*
X0067000Y0118853D01*
X0067000Y0119851D02*
X0066000Y0119851D01*
X0061933Y0119851D02*
X0045283Y0119851D01*
X0046281Y0118853D02*
X0061451Y0118853D01*
X0061451Y0117854D02*
X0047280Y0117854D01*
X0048278Y0116856D02*
X0061451Y0116856D01*
X0066000Y0114859D02*
X0067000Y0114859D01*
X0067000Y0113860D02*
X0066000Y0113860D01*
X0066000Y0112862D02*
X0067000Y0112862D01*
X0067000Y0111863D02*
X0066000Y0111863D01*
X0071443Y0111863D02*
X0076252Y0111863D01*
X0076252Y0112862D02*
X0071549Y0112862D01*
X0071549Y0113860D02*
X0076282Y0113860D01*
X0075312Y0103875D02*
X0074934Y0103875D01*
X0061651Y0105872D02*
X0054600Y0105872D01*
X0054600Y0106870D02*
X0061651Y0106870D01*
X0061651Y0107869D02*
X0054600Y0107869D01*
X0049178Y0110865D02*
X0003500Y0110865D01*
X0003500Y0111863D02*
X0048180Y0111863D01*
X0047181Y0112862D02*
X0003500Y0112862D01*
X0003500Y0113860D02*
X0046183Y0113860D01*
X0045184Y0114859D02*
X0003500Y0114859D01*
X0003500Y0115857D02*
X0044186Y0115857D01*
X0043187Y0116856D02*
X0003500Y0116856D01*
X0003500Y0117854D02*
X0042189Y0117854D01*
X0041190Y0118853D02*
X0003500Y0118853D01*
X0003500Y0119851D02*
X0040192Y0119851D01*
X0039193Y0120850D02*
X0028723Y0120850D01*
X0029299Y0121848D02*
X0038195Y0121848D01*
X0037196Y0122847D02*
X0029299Y0122847D01*
X0029299Y0123845D02*
X0036198Y0123845D01*
X0035199Y0124844D02*
X0025740Y0124844D01*
X0025240Y0125000D02*
X0027800Y0122440D01*
X0027800Y0103700D01*
X0031500Y0100000D01*
X0027800Y0099881D02*
X0040200Y0099881D01*
X0040200Y0100879D02*
X0027800Y0100879D01*
X0027800Y0101878D02*
X0040200Y0101878D01*
X0040200Y0102876D02*
X0027800Y0102876D01*
X0027800Y0103875D02*
X0040200Y0103875D01*
X0040200Y0104873D02*
X0027800Y0104873D01*
X0027800Y0105872D02*
X0040200Y0105872D01*
X0040200Y0106870D02*
X0027800Y0106870D01*
X0027800Y0107869D02*
X0040200Y0107869D01*
X0040200Y0108868D02*
X0027800Y0108868D01*
X0027722Y0109866D02*
X0040278Y0109866D01*
X0040200Y0098882D02*
X0027800Y0098882D01*
X0016139Y0097884D02*
X0003500Y0097884D01*
X0003500Y0098882D02*
X0015200Y0098882D01*
X0015200Y0099881D02*
X0003500Y0099881D01*
X0003500Y0100879D02*
X0015200Y0100879D01*
X0015200Y0101878D02*
X0003500Y0101878D01*
X0003500Y0102876D02*
X0015200Y0102876D01*
X0015200Y0103875D02*
X0003500Y0103875D01*
X0003500Y0104873D02*
X0015200Y0104873D01*
X0015200Y0105872D02*
X0003500Y0105872D01*
X0003500Y0106870D02*
X0015200Y0106870D01*
X0015200Y0107869D02*
X0003500Y0107869D01*
X0003500Y0108868D02*
X0015200Y0108868D01*
X0015278Y0109866D02*
X0003500Y0109866D01*
X0020960Y0120850D02*
X0021757Y0120850D01*
X0024740Y0120850D02*
X0025740Y0120850D01*
X0025740Y0121848D02*
X0024740Y0121848D01*
X0024740Y0122847D02*
X0025740Y0122847D01*
X0025740Y0123845D02*
X0024740Y0123845D01*
X0024740Y0125842D02*
X0025740Y0125842D01*
X0025740Y0126841D02*
X0024740Y0126841D01*
X0024740Y0127839D02*
X0025740Y0127839D01*
X0025740Y0128838D02*
X0024740Y0128838D01*
X0029020Y0128838D02*
X0031205Y0128838D01*
X0030207Y0129836D02*
X0018300Y0129836D01*
X0018300Y0130835D02*
X0029208Y0130835D01*
X0028210Y0131833D02*
X0020923Y0131833D01*
X0021964Y0132832D02*
X0027211Y0132832D01*
X0029299Y0127839D02*
X0032204Y0127839D01*
X0033202Y0126841D02*
X0029299Y0126841D01*
X0029299Y0125842D02*
X0034201Y0125842D01*
X0031207Y0138823D02*
X0048840Y0138823D01*
X0049839Y0139821D02*
X0032205Y0139821D01*
X0031108Y0143815D02*
X0031000Y0143815D01*
X0031000Y0144814D02*
X0031800Y0144814D01*
X0031800Y0145812D02*
X0031000Y0145812D01*
X0031000Y0146811D02*
X0032000Y0146811D01*
X0032000Y0147809D02*
X0031000Y0147809D01*
X0031000Y0148808D02*
X0032000Y0148808D01*
X0035600Y0147600D02*
X0043900Y0147600D01*
X0046500Y0145000D01*
X0046500Y0147367D01*
X0052600Y0153467D01*
X0052600Y0160037D01*
X0057563Y0165000D01*
X0053803Y0163786D02*
X0052618Y0163786D01*
X0052805Y0162787D02*
X0052112Y0162787D01*
X0051806Y0161789D02*
X0051114Y0161789D01*
X0051500Y0161789D01*
X0046800Y0161789D02*
X0046200Y0161789D01*
X0046800Y0161789D01*
X0046800Y0162787D02*
X0046200Y0162787D01*
X0046800Y0162787D01*
X0046800Y0163786D02*
X0046200Y0163786D01*
X0046800Y0163786D01*
X0046800Y0165783D02*
X0046200Y0165783D01*
X0046800Y0165783D01*
X0046800Y0166781D02*
X0046200Y0166781D01*
X0046800Y0166781D01*
X0046800Y0167780D02*
X0046200Y0167780D01*
X0046800Y0167780D01*
X0046800Y0168778D02*
X0046200Y0168778D01*
X0046800Y0168778D01*
X0046800Y0171774D02*
X0046200Y0171774D01*
X0046800Y0171774D01*
X0046800Y0172772D02*
X0046200Y0172772D01*
X0046800Y0172772D01*
X0046800Y0173771D02*
X0046200Y0173771D01*
X0046800Y0173771D01*
X0046800Y0175768D02*
X0046200Y0175768D01*
X0046800Y0175768D01*
X0046800Y0176766D02*
X0046200Y0176766D01*
X0046800Y0176766D01*
X0046800Y0177765D02*
X0046200Y0177765D01*
X0046800Y0177765D01*
X0046800Y0178763D02*
X0046200Y0178763D01*
X0046800Y0178763D01*
X0052102Y0172772D02*
X0058859Y0172772D01*
X0059858Y0171774D02*
X0051091Y0171774D01*
X0051500Y0171774D01*
X0050800Y0188748D02*
X0032794Y0188748D01*
X0033793Y0189747D02*
X0050800Y0189747D01*
X0050800Y0190745D02*
X0034791Y0190745D01*
X0036500Y0195000D02*
X0046500Y0195000D01*
X0050708Y0191744D02*
X0050800Y0191744D01*
X0032562Y0199135D02*
X0027760Y0203937D01*
X0027760Y0210000D01*
X0022748Y0210000D01*
X0018613Y0214135D01*
X0017562Y0214135D01*
X0012760Y0218937D01*
X0012760Y0225000D01*
X0020240Y0225000D02*
X0020240Y0218937D01*
X0020240Y0225000D02*
X0066500Y0225000D01*
X0091500Y0200000D01*
X0091500Y0150000D01*
X0096500Y0145000D01*
X0107583Y0145000D01*
X0110429Y0143815D02*
X0120139Y0143815D01*
X0121138Y0142817D02*
X0109759Y0142817D01*
X0110665Y0144814D02*
X0119140Y0144814D01*
X0118142Y0145812D02*
X0110583Y0145812D01*
X0110131Y0146811D02*
X0117143Y0146811D01*
X0116145Y0147809D02*
X0108855Y0147809D01*
X0106310Y0147809D02*
X0098669Y0147809D01*
X0099343Y0148808D02*
X0115146Y0148808D01*
X0114148Y0149806D02*
X0099583Y0149806D01*
X0099503Y0150805D02*
X0113149Y0150805D01*
X0112151Y0151803D02*
X0099056Y0151803D01*
X0098300Y0152802D02*
X0111152Y0152802D01*
X0110154Y0153801D02*
X0098300Y0153801D01*
X0098300Y0154799D02*
X0109155Y0154799D01*
X0108157Y0155798D02*
X0098300Y0155798D01*
X0098300Y0156796D02*
X0107158Y0156796D01*
X0106160Y0157795D02*
X0098300Y0157795D01*
X0098300Y0158793D02*
X0105161Y0158793D01*
X0104163Y0159792D02*
X0098300Y0159792D01*
X0098300Y0160790D02*
X0103164Y0160790D01*
X0102166Y0161789D02*
X0098300Y0161789D01*
X0098300Y0162787D02*
X0101167Y0162787D01*
X0100169Y0163786D02*
X0098300Y0163786D01*
X0098300Y0164784D02*
X0099700Y0164784D01*
X0099700Y0165783D02*
X0098300Y0165783D01*
X0098300Y0166781D02*
X0099700Y0166781D01*
X0099700Y0167780D02*
X0098300Y0167780D01*
X0098300Y0168778D02*
X0099700Y0168778D01*
X0099700Y0169777D02*
X0098300Y0169777D01*
X0098300Y0170775D02*
X0099700Y0170775D01*
X0099700Y0171774D02*
X0098300Y0171774D01*
X0098300Y0172772D02*
X0099700Y0172772D01*
X0099700Y0173771D02*
X0098300Y0173771D01*
X0098300Y0174769D02*
X0099700Y0174769D01*
X0099700Y0175768D02*
X0098300Y0175768D01*
X0098300Y0176766D02*
X0099700Y0176766D01*
X0099700Y0177765D02*
X0098300Y0177765D01*
X0098300Y0178763D02*
X0099700Y0178763D01*
X0099700Y0179762D02*
X0098300Y0179762D01*
X0098300Y0180760D02*
X0099700Y0180760D01*
X0099700Y0181759D02*
X0098300Y0181759D01*
X0098300Y0182757D02*
X0099383Y0182757D01*
X0098679Y0183756D02*
X0098300Y0183756D01*
X0098300Y0184754D02*
X0098417Y0184754D01*
X0098475Y0185753D02*
X0098300Y0185753D01*
X0098300Y0186751D02*
X0098892Y0186751D01*
X0098300Y0187750D02*
X0100083Y0187750D01*
X0098300Y0188748D02*
X0145206Y0188748D01*
X0144207Y0189747D02*
X0098793Y0189747D01*
X0099791Y0190745D02*
X0143209Y0190745D01*
X0142210Y0191744D02*
X0100790Y0191744D01*
X0103602Y0192742D02*
X0139398Y0192742D01*
X0138685Y0193741D02*
X0104315Y0193741D01*
X0104583Y0194739D02*
X0138417Y0194739D01*
X0138469Y0195738D02*
X0104531Y0195738D01*
X0104117Y0196737D02*
X0138883Y0196737D01*
X0140048Y0197735D02*
X0102952Y0197735D01*
X0100048Y0197735D02*
X0093300Y0197735D01*
X0093300Y0196737D02*
X0098883Y0196737D01*
X0098469Y0195738D02*
X0093300Y0195738D01*
X0093300Y0194739D02*
X0098417Y0194739D01*
X0097695Y0193741D02*
X0093300Y0193741D01*
X0093300Y0192742D02*
X0096697Y0192742D01*
X0095698Y0191744D02*
X0093300Y0191744D01*
X0093300Y0190745D02*
X0094700Y0190745D01*
X0094700Y0189747D02*
X0093300Y0189747D01*
X0093300Y0188748D02*
X0094700Y0188748D01*
X0094700Y0187750D02*
X0093300Y0187750D01*
X0093300Y0186751D02*
X0094700Y0186751D01*
X0094700Y0185753D02*
X0093300Y0185753D01*
X0093300Y0184754D02*
X0094700Y0184754D01*
X0094700Y0183756D02*
X0093300Y0183756D01*
X0093300Y0182757D02*
X0094700Y0182757D01*
X0094700Y0181759D02*
X0093300Y0181759D01*
X0093300Y0180760D02*
X0094700Y0180760D01*
X0094700Y0179762D02*
X0093300Y0179762D01*
X0093300Y0178763D02*
X0094700Y0178763D01*
X0094700Y0177765D02*
X0093300Y0177765D01*
X0093300Y0176766D02*
X0094700Y0176766D01*
X0094700Y0175768D02*
X0093300Y0175768D01*
X0093300Y0174769D02*
X0094700Y0174769D01*
X0094700Y0173771D02*
X0093300Y0173771D01*
X0093300Y0172772D02*
X0094700Y0172772D01*
X0094700Y0171774D02*
X0093300Y0171774D01*
X0093300Y0170775D02*
X0094700Y0170775D01*
X0094700Y0169777D02*
X0093300Y0169777D01*
X0093300Y0168778D02*
X0094700Y0168778D01*
X0094700Y0167780D02*
X0093300Y0167780D01*
X0093300Y0166781D02*
X0094700Y0166781D01*
X0094700Y0165783D02*
X0093300Y0165783D01*
X0093300Y0164784D02*
X0094700Y0164784D01*
X0094700Y0163786D02*
X0093300Y0163786D01*
X0093300Y0162787D02*
X0094700Y0162787D01*
X0094700Y0161789D02*
X0093300Y0161789D01*
X0093300Y0160790D02*
X0094700Y0160790D01*
X0094700Y0159792D02*
X0093300Y0159792D01*
X0093300Y0158793D02*
X0094700Y0158793D01*
X0094700Y0157795D02*
X0093300Y0157795D01*
X0093300Y0156796D02*
X0094700Y0156796D01*
X0094700Y0155798D02*
X0093300Y0155798D01*
X0093300Y0154799D02*
X0094700Y0154799D01*
X0094700Y0153801D02*
X0093300Y0153801D01*
X0093300Y0152802D02*
X0094700Y0152802D01*
X0093944Y0151803D02*
X0093300Y0151803D01*
X0093300Y0150805D02*
X0093497Y0150805D01*
X0096500Y0150000D02*
X0096500Y0190000D01*
X0101500Y0195000D01*
X0102917Y0187750D02*
X0158901Y0187750D01*
X0158901Y0186751D02*
X0104108Y0186751D01*
X0104525Y0185753D02*
X0159657Y0185753D01*
X0159165Y0183756D02*
X0104321Y0183756D01*
X0104583Y0184754D02*
X0172547Y0184754D01*
X0176549Y0183297D02*
X0170240Y0189606D01*
X0170240Y0190000D01*
X0170514Y0194739D02*
X0144583Y0194739D01*
X0144531Y0195738D02*
X0169516Y0195738D01*
X0170240Y0197559D02*
X0170240Y0200000D01*
X0170240Y0197559D02*
X0176917Y0190882D01*
X0176917Y0186288D01*
X0181500Y0181705D01*
X0181500Y0180000D01*
X0185694Y0181759D02*
X0195936Y0181759D01*
X0196934Y0180760D02*
X0186048Y0180760D01*
X0186048Y0179762D02*
X0197933Y0179762D01*
X0198931Y0178763D02*
X0185910Y0178763D01*
X0185497Y0177765D02*
X0199930Y0177765D01*
X0200928Y0176766D02*
X0184698Y0176766D01*
X0183167Y0175768D02*
X0201927Y0175768D01*
X0202925Y0174769D02*
X0179276Y0174769D01*
X0179833Y0175768D02*
X0178349Y0175768D01*
X0176549Y0174951D02*
X0176549Y0183297D01*
X0180996Y0184754D02*
X0192940Y0184754D01*
X0193939Y0183756D02*
X0184176Y0183756D01*
X0185175Y0182757D02*
X0194937Y0182757D01*
X0197033Y0185753D02*
X0204666Y0185753D01*
X0203667Y0186751D02*
X0196034Y0186751D01*
X0198031Y0184754D02*
X0222383Y0184754D01*
X0222383Y0183756D02*
X0218825Y0183756D01*
X0218281Y0184300D02*
X0220800Y0181781D01*
X0220800Y0178219D01*
X0218281Y0175700D01*
X0214719Y0175700D01*
X0212200Y0178219D01*
X0212200Y0181781D01*
X0214719Y0184300D01*
X0218281Y0184300D01*
X0218281Y0185700D02*
X0220800Y0188219D01*
X0220800Y0191781D01*
X0218281Y0194300D01*
X0214719Y0194300D01*
X0212200Y0191781D01*
X0212200Y0188219D01*
X0214719Y0185700D01*
X0218281Y0185700D01*
X0218334Y0185753D02*
X0222383Y0185753D01*
X0222383Y0186751D02*
X0219332Y0186751D01*
X0220331Y0187750D02*
X0222383Y0187750D01*
X0222383Y0188748D02*
X0220800Y0188748D01*
X0220800Y0189747D02*
X0222383Y0189747D01*
X0222383Y0190745D02*
X0220800Y0190745D01*
X0220800Y0191744D02*
X0222383Y0191744D01*
X0222383Y0192742D02*
X0219839Y0192742D01*
X0218840Y0193741D02*
X0222383Y0193741D01*
X0222383Y0194739D02*
X0200371Y0194739D01*
X0200753Y0193741D02*
X0204160Y0193741D01*
X0204719Y0195700D02*
X0208281Y0195700D01*
X0210800Y0198219D01*
X0210800Y0201781D01*
X0208281Y0204300D01*
X0204719Y0204300D01*
X0202200Y0201781D01*
X0202200Y0198219D01*
X0204719Y0195700D01*
X0204681Y0195738D02*
X0200753Y0195738D01*
X0200753Y0196737D02*
X0203682Y0196737D01*
X0202684Y0197735D02*
X0200753Y0197735D01*
X0200753Y0198734D02*
X0202200Y0198734D01*
X0202200Y0199732D02*
X0200753Y0199732D01*
X0200753Y0200731D02*
X0202200Y0200731D01*
X0202200Y0201729D02*
X0200753Y0201729D01*
X0203146Y0202728D02*
X0198300Y0202728D01*
X0198300Y0203726D02*
X0204145Y0203726D01*
X0204719Y0205700D02*
X0208281Y0205700D01*
X0210800Y0208219D01*
X0210800Y0211781D01*
X0208281Y0214300D01*
X0204719Y0214300D01*
X0202200Y0211781D01*
X0202200Y0208219D01*
X0204719Y0205700D01*
X0204696Y0205723D02*
X0198300Y0205723D01*
X0198300Y0204725D02*
X0218664Y0204725D01*
X0218364Y0204500D02*
X0217000Y0204500D01*
X0217000Y0200500D01*
X0216000Y0200500D01*
X0216000Y0204500D01*
X0214636Y0204500D01*
X0212000Y0201864D01*
X0212000Y0200500D01*
X0216000Y0200500D01*
X0216000Y0199500D01*
X0212000Y0199500D01*
X0212000Y0198136D01*
X0214636Y0195500D01*
X0216000Y0195500D01*
X0216000Y0199500D01*
X0217000Y0199500D01*
X0217000Y0200500D01*
X0221000Y0200500D01*
X0221000Y0201864D01*
X0218364Y0204500D01*
X0219138Y0203726D02*
X0219663Y0203726D01*
X0220136Y0202728D02*
X0220661Y0202728D01*
X0221000Y0201729D02*
X0221660Y0201729D01*
X0222383Y0201006D02*
X0222383Y0152160D01*
X0221969Y0151746D01*
X0221500Y0150613D01*
X0221500Y0149387D01*
X0221969Y0148254D01*
X0222836Y0147387D01*
X0223969Y0146917D01*
X0225196Y0146917D01*
X0226329Y0147387D01*
X0227196Y0148254D01*
X0227665Y0149387D01*
X0227665Y0150613D01*
X0227196Y0151746D01*
X0226783Y0152160D01*
X0226783Y0167804D01*
X0227053Y0167275D01*
X0227534Y0166612D01*
X0228112Y0166034D01*
X0228775Y0165553D01*
X0229504Y0165181D01*
X0230282Y0164928D01*
X0231000Y0164814D01*
X0231000Y0169500D01*
X0232000Y0169500D01*
X0232000Y0170500D01*
X0236686Y0170500D01*
X0236572Y0171218D01*
X0236319Y0171996D01*
X0235947Y0172725D01*
X0235466Y0173388D01*
X0234888Y0173966D01*
X0234225Y0174447D01*
X0233496Y0174819D01*
X0232718Y0175072D01*
X0232682Y0175078D01*
X0234332Y0175761D01*
X0235739Y0177168D01*
X0236500Y0179005D01*
X0236500Y0180995D01*
X0235739Y0182832D01*
X0234332Y0184239D01*
X0232495Y0185000D01*
X0234332Y0185761D01*
X0235739Y0187168D01*
X0236500Y0189005D01*
X0236500Y0190995D01*
X0235739Y0192832D01*
X0234332Y0194239D01*
X0232495Y0195000D01*
X0234332Y0195761D01*
X0235739Y0197168D01*
X0236500Y0199005D01*
X0236500Y0200995D01*
X0235739Y0202832D01*
X0234332Y0204239D01*
X0232495Y0205000D01*
X0234332Y0205761D01*
X0235739Y0207168D01*
X0236500Y0209005D01*
X0236500Y0210995D01*
X0235739Y0212832D01*
X0234332Y0214239D01*
X0232495Y0215000D01*
X0234332Y0215761D01*
X0235739Y0217168D01*
X0236500Y0219005D01*
X0236500Y0220995D01*
X0235739Y0222832D01*
X0234332Y0224239D01*
X0232495Y0225000D01*
X0230505Y0225000D01*
X0228668Y0224239D01*
X0227261Y0222832D01*
X0226500Y0220995D01*
X0226500Y0219005D01*
X0227261Y0217168D01*
X0228668Y0215761D01*
X0230505Y0215000D01*
X0232495Y0215000D01*
X0230505Y0215000D01*
X0228668Y0214239D01*
X0227261Y0212832D01*
X0226500Y0210995D01*
X0226500Y0209005D01*
X0227261Y0207168D01*
X0228668Y0205761D01*
X0230505Y0205000D01*
X0232495Y0205000D01*
X0230505Y0205000D01*
X0228668Y0204239D01*
X0227261Y0202832D01*
X0226783Y0201677D01*
X0226783Y0202829D01*
X0225494Y0204117D01*
X0220800Y0208811D01*
X0220800Y0211781D01*
X0218700Y0213881D01*
X0218700Y0216119D01*
X0220800Y0218219D01*
X0220800Y0221781D01*
X0218281Y0224300D01*
X0214719Y0224300D01*
X0212200Y0221781D01*
X0212200Y0218219D01*
X0214300Y0216119D01*
X0214300Y0213881D01*
X0212200Y0211781D01*
X0212200Y0208219D01*
X0214719Y0205700D01*
X0217689Y0205700D01*
X0222383Y0201006D01*
X0222383Y0200731D02*
X0221000Y0200731D01*
X0221000Y0199500D02*
X0217000Y0199500D01*
X0217000Y0195500D01*
X0218364Y0195500D01*
X0221000Y0198136D01*
X0221000Y0199500D01*
X0221000Y0198734D02*
X0222383Y0198734D01*
X0222383Y0199732D02*
X0217000Y0199732D01*
X0216500Y0200000D02*
X0216500Y0196081D01*
X0212200Y0191781D01*
X0212200Y0185700D01*
X0206500Y0180000D01*
X0207000Y0179762D02*
X0212200Y0179762D01*
X0212200Y0180760D02*
X0211000Y0180760D01*
X0211000Y0180500D02*
X0211000Y0181864D01*
X0208364Y0184500D01*
X0207000Y0184500D01*
X0207000Y0180500D01*
X0211000Y0180500D01*
X0211000Y0181759D02*
X0212200Y0181759D01*
X0213176Y0182757D02*
X0210107Y0182757D01*
X0209108Y0183756D02*
X0214175Y0183756D01*
X0214666Y0185753D02*
X0208334Y0185753D01*
X0209332Y0186751D02*
X0213667Y0186751D01*
X0212669Y0187750D02*
X0210331Y0187750D01*
X0210800Y0188748D02*
X0212200Y0188748D01*
X0212200Y0189747D02*
X0210800Y0189747D01*
X0210800Y0190745D02*
X0212200Y0190745D01*
X0212200Y0191744D02*
X0210800Y0191744D01*
X0209839Y0192742D02*
X0213161Y0192742D01*
X0214160Y0193741D02*
X0208840Y0193741D01*
X0208319Y0195738D02*
X0214398Y0195738D01*
X0213400Y0196737D02*
X0209318Y0196737D01*
X0210316Y0197735D02*
X0212401Y0197735D01*
X0212000Y0198734D02*
X0210800Y0198734D01*
X0210800Y0199732D02*
X0216000Y0199732D01*
X0216500Y0200000D02*
X0221500Y0195000D01*
X0221500Y0165000D01*
X0221500Y0135000D01*
X0220032Y0132832D02*
X0239421Y0132832D01*
X0239421Y0133830D02*
X0219034Y0133830D01*
X0218281Y0135700D02*
X0220800Y0138219D01*
X0220800Y0141781D01*
X0218281Y0144300D01*
X0214719Y0144300D01*
X0212200Y0141781D01*
X0212200Y0138219D01*
X0214719Y0135700D01*
X0218281Y0135700D01*
X0218408Y0135827D02*
X0239421Y0135827D01*
X0239421Y0134829D02*
X0179217Y0134829D01*
X0179689Y0135827D02*
X0178218Y0135827D01*
X0178242Y0136826D02*
X0177220Y0136826D01*
X0177478Y0137824D02*
X0176221Y0137824D01*
X0177065Y0138823D02*
X0175223Y0138823D01*
X0174224Y0139821D02*
X0176952Y0139821D01*
X0176952Y0140820D02*
X0173226Y0140820D01*
X0172227Y0141818D02*
X0177136Y0141818D01*
X0176138Y0142817D02*
X0172040Y0142817D01*
X0172040Y0143815D02*
X0175139Y0143815D01*
X0174140Y0144814D02*
X0172040Y0144814D01*
X0174674Y0146826D02*
X0174674Y0155172D01*
X0170240Y0159606D01*
X0170240Y0160000D01*
X0176549Y0161061D02*
X0176549Y0154951D01*
X0181500Y0150000D01*
X0183275Y0145812D02*
X0204606Y0145812D01*
X0204719Y0145700D02*
X0208281Y0145700D01*
X0210800Y0148219D01*
X0210800Y0151781D01*
X0208281Y0154300D01*
X0204719Y0154300D01*
X0202200Y0151781D01*
X0202200Y0148219D01*
X0204719Y0145700D01*
X0204719Y0144300D02*
X0202200Y0141781D01*
X0202200Y0138219D01*
X0204719Y0135700D01*
X0208281Y0135700D01*
X0210800Y0138219D01*
X0210800Y0141781D01*
X0208281Y0144300D01*
X0204719Y0144300D01*
X0204234Y0143815D02*
X0184116Y0143815D01*
X0185115Y0142817D02*
X0203236Y0142817D01*
X0202237Y0141818D02*
X0185670Y0141818D01*
X0186048Y0140820D02*
X0202200Y0140820D01*
X0202200Y0139821D02*
X0186048Y0139821D01*
X0185935Y0138823D02*
X0202200Y0138823D01*
X0202595Y0137824D02*
X0185522Y0137824D01*
X0184758Y0136826D02*
X0203593Y0136826D01*
X0204592Y0135827D02*
X0183311Y0135827D01*
X0184102Y0133830D02*
X0204249Y0133830D01*
X0203251Y0132832D02*
X0185100Y0132832D01*
X0185663Y0131833D02*
X0202252Y0131833D01*
X0202200Y0130835D02*
X0186048Y0130835D01*
X0186048Y0129836D02*
X0202200Y0129836D01*
X0202200Y0128838D02*
X0185941Y0128838D01*
X0185528Y0127839D02*
X0202580Y0127839D01*
X0203578Y0126841D02*
X0184773Y0126841D01*
X0183347Y0125842D02*
X0204577Y0125842D01*
X0210800Y0130835D02*
X0212000Y0130835D01*
X0212000Y0131833D02*
X0210748Y0131833D01*
X0209749Y0132832D02*
X0212968Y0132832D01*
X0213966Y0133830D02*
X0208751Y0133830D01*
X0208408Y0135827D02*
X0214592Y0135827D01*
X0213593Y0136826D02*
X0209407Y0136826D01*
X0210405Y0137824D02*
X0212595Y0137824D01*
X0212200Y0138823D02*
X0210800Y0138823D01*
X0210800Y0139821D02*
X0212200Y0139821D01*
X0212200Y0140820D02*
X0210800Y0140820D01*
X0210763Y0141818D02*
X0212237Y0141818D01*
X0213236Y0142817D02*
X0209764Y0142817D01*
X0208766Y0143815D02*
X0214234Y0143815D01*
X0214719Y0145700D02*
X0218281Y0145700D01*
X0220800Y0148219D01*
X0220800Y0151781D01*
X0218281Y0154300D01*
X0214719Y0154300D01*
X0212200Y0151781D01*
X0212200Y0148219D01*
X0214719Y0145700D01*
X0214606Y0145812D02*
X0208394Y0145812D01*
X0209392Y0146811D02*
X0213608Y0146811D01*
X0212609Y0147809D02*
X0210391Y0147809D01*
X0210800Y0148808D02*
X0212200Y0148808D01*
X0212200Y0149806D02*
X0210800Y0149806D01*
X0210800Y0150805D02*
X0212200Y0150805D01*
X0212222Y0151803D02*
X0210778Y0151803D01*
X0209779Y0152802D02*
X0213221Y0152802D01*
X0214219Y0153801D02*
X0208781Y0153801D01*
X0208281Y0155700D02*
X0204719Y0155700D01*
X0202200Y0158219D01*
X0202200Y0161781D01*
X0204719Y0164300D01*
X0208281Y0164300D01*
X0210800Y0161781D01*
X0210800Y0158219D01*
X0208281Y0155700D01*
X0208379Y0155798D02*
X0214338Y0155798D01*
X0214636Y0155500D02*
X0212000Y0158136D01*
X0212000Y0159500D01*
X0216000Y0159500D01*
X0216000Y0160500D01*
X0216000Y0164500D01*
X0214636Y0164500D01*
X0212000Y0161864D01*
X0212000Y0160500D01*
X0216000Y0160500D01*
X0217000Y0160500D01*
X0217000Y0164500D01*
X0218364Y0164500D01*
X0221000Y0161864D01*
X0221000Y0160500D01*
X0217000Y0160500D01*
X0217000Y0159500D01*
X0221000Y0159500D01*
X0221000Y0158136D01*
X0218364Y0155500D01*
X0217000Y0155500D01*
X0217000Y0159500D01*
X0216000Y0159500D01*
X0216000Y0155500D01*
X0214636Y0155500D01*
X0216000Y0155798D02*
X0217000Y0155798D01*
X0217000Y0156796D02*
X0216000Y0156796D01*
X0216000Y0157795D02*
X0217000Y0157795D01*
X0217000Y0158793D02*
X0216000Y0158793D01*
X0216000Y0159792D02*
X0210800Y0159792D01*
X0210800Y0160790D02*
X0212000Y0160790D01*
X0212000Y0161789D02*
X0210792Y0161789D01*
X0209794Y0162787D02*
X0212923Y0162787D01*
X0213922Y0163786D02*
X0208795Y0163786D01*
X0208364Y0165783D02*
X0214636Y0165783D01*
X0213638Y0166781D02*
X0209362Y0166781D01*
X0210361Y0167780D02*
X0212639Y0167780D01*
X0211257Y0168778D02*
X0210800Y0168778D01*
X0212581Y0170000D02*
X0208281Y0174300D01*
X0205940Y0174300D01*
X0184788Y0195452D01*
X0179616Y0195452D01*
X0176952Y0198116D01*
X0176952Y0203288D01*
X0170240Y0210000D01*
X0174099Y0209717D02*
X0176952Y0209717D01*
X0176952Y0210716D02*
X0174099Y0210716D01*
X0174099Y0211714D02*
X0176887Y0211714D01*
X0175888Y0212713D02*
X0174099Y0212713D01*
X0173879Y0213711D02*
X0174890Y0213711D01*
X0173891Y0214710D02*
X0104583Y0214710D01*
X0104303Y0213711D02*
X0159121Y0213711D01*
X0158901Y0212713D02*
X0103572Y0212713D01*
X0105107Y0215708D02*
X0172893Y0215708D01*
X0171894Y0216707D02*
X0106106Y0216707D01*
X0107104Y0217705D02*
X0170896Y0217705D01*
X0169897Y0218704D02*
X0108103Y0218704D01*
X0109101Y0219702D02*
X0168899Y0219702D01*
X0167900Y0220701D02*
X0110100Y0220701D01*
X0111098Y0221699D02*
X0166902Y0221699D01*
X0165903Y0222698D02*
X0112097Y0222698D01*
X0108296Y0224695D02*
X0069351Y0224695D01*
X0070349Y0223696D02*
X0107297Y0223696D01*
X0106299Y0222698D02*
X0071348Y0222698D01*
X0072346Y0221699D02*
X0105300Y0221699D01*
X0104302Y0220701D02*
X0073345Y0220701D01*
X0074343Y0219702D02*
X0103303Y0219702D01*
X0102305Y0218704D02*
X0075342Y0218704D01*
X0076340Y0217705D02*
X0099976Y0217705D01*
X0098870Y0216707D02*
X0077339Y0216707D01*
X0078337Y0215708D02*
X0098457Y0215708D01*
X0098417Y0214710D02*
X0079336Y0214710D01*
X0080334Y0213711D02*
X0098697Y0213711D01*
X0099428Y0212713D02*
X0081333Y0212713D01*
X0082331Y0211714D02*
X0155669Y0211714D01*
X0154670Y0210716D02*
X0083330Y0210716D01*
X0084328Y0209717D02*
X0153672Y0209717D01*
X0152673Y0208719D02*
X0085327Y0208719D01*
X0086325Y0207720D02*
X0149754Y0207720D01*
X0148770Y0206722D02*
X0087324Y0206722D01*
X0088322Y0205723D02*
X0148356Y0205723D01*
X0148319Y0204725D02*
X0089321Y0204725D01*
X0090319Y0203726D02*
X0148584Y0203726D01*
X0147970Y0202728D02*
X0149274Y0202728D01*
X0151500Y0205000D02*
X0156500Y0210000D01*
X0162760Y0210000D01*
X0158901Y0207720D02*
X0156766Y0207720D01*
X0155767Y0206722D02*
X0158901Y0206722D01*
X0159136Y0203726D02*
X0154416Y0203726D01*
X0154681Y0204725D02*
X0172970Y0204725D01*
X0173864Y0203726D02*
X0173968Y0203726D01*
X0174099Y0202728D02*
X0174967Y0202728D01*
X0175152Y0201729D02*
X0174099Y0201729D01*
X0174099Y0200731D02*
X0175152Y0200731D01*
X0175152Y0199732D02*
X0174099Y0199732D01*
X0174099Y0198734D02*
X0175152Y0198734D01*
X0175152Y0197735D02*
X0174099Y0197735D01*
X0174099Y0196737D02*
X0175786Y0196737D01*
X0176785Y0195738D02*
X0174607Y0195738D01*
X0175605Y0194739D02*
X0177783Y0194739D01*
X0177816Y0194706D02*
X0177816Y0194706D01*
X0178782Y0193741D02*
X0176604Y0193741D01*
X0177602Y0192742D02*
X0177811Y0192742D01*
X0185700Y0191744D02*
X0185951Y0191744D01*
X0186048Y0190745D02*
X0186949Y0190745D01*
X0186048Y0189747D02*
X0187948Y0189747D01*
X0188946Y0188748D02*
X0185904Y0188748D01*
X0185491Y0187750D02*
X0189945Y0187750D01*
X0190943Y0186751D02*
X0184683Y0186751D01*
X0183131Y0185753D02*
X0191942Y0185753D01*
X0192040Y0190745D02*
X0192247Y0190745D01*
X0192247Y0191744D02*
X0191042Y0191744D01*
X0190043Y0192742D02*
X0192247Y0192742D01*
X0192247Y0193741D02*
X0189045Y0193741D01*
X0188046Y0194739D02*
X0192629Y0194739D01*
X0192247Y0195738D02*
X0187048Y0195738D01*
X0186049Y0196737D02*
X0192247Y0196737D01*
X0192247Y0197735D02*
X0185485Y0197735D01*
X0185898Y0198734D02*
X0192247Y0198734D01*
X0192247Y0199732D02*
X0186048Y0199732D01*
X0186048Y0200731D02*
X0192247Y0200731D01*
X0192247Y0201729D02*
X0185707Y0201729D01*
X0185204Y0202728D02*
X0194700Y0202728D01*
X0194700Y0203726D02*
X0184206Y0203726D01*
X0183059Y0205723D02*
X0194700Y0205723D01*
X0194700Y0204725D02*
X0178061Y0204725D01*
X0178752Y0203726D02*
X0178794Y0203726D01*
X0179941Y0205723D02*
X0177063Y0205723D01*
X0176064Y0206722D02*
X0178346Y0206722D01*
X0177522Y0207720D02*
X0175066Y0207720D01*
X0174099Y0208719D02*
X0177108Y0208719D01*
X0181500Y0210000D02*
X0186500Y0210000D01*
X0196500Y0220000D01*
X0198565Y0217705D02*
X0202714Y0217705D01*
X0202200Y0218219D02*
X0204719Y0215700D01*
X0208281Y0215700D01*
X0210800Y0218219D01*
X0210800Y0221781D01*
X0208281Y0224300D01*
X0204719Y0224300D01*
X0202200Y0221781D01*
X0202200Y0218219D01*
X0202200Y0218704D02*
X0199300Y0218704D01*
X0199583Y0219702D02*
X0202200Y0219702D01*
X0202200Y0220701D02*
X0199546Y0220701D01*
X0199133Y0221699D02*
X0202200Y0221699D01*
X0203117Y0222698D02*
X0198042Y0222698D01*
X0194958Y0222698D02*
X0185409Y0222698D01*
X0185561Y0222489D02*
X0185122Y0223093D01*
X0184593Y0223622D01*
X0183989Y0224061D01*
X0183323Y0224400D01*
X0182612Y0224631D01*
X0182000Y0224728D01*
X0182000Y0220500D01*
X0181000Y0220500D01*
X0181000Y0224728D01*
X0180388Y0224631D01*
X0179677Y0224400D01*
X0179011Y0224061D01*
X0178407Y0223622D01*
X0177878Y0223093D01*
X0177439Y0222489D01*
X0177100Y0221823D01*
X0176869Y0221112D01*
X0176772Y0220500D01*
X0181000Y0220500D01*
X0181000Y0219500D01*
X0176772Y0219500D01*
X0176869Y0218888D01*
X0177100Y0218177D01*
X0177439Y0217511D01*
X0177878Y0216907D01*
X0178407Y0216378D01*
X0179011Y0215939D01*
X0179677Y0215600D01*
X0180388Y0215369D01*
X0181000Y0215272D01*
X0181000Y0219500D01*
X0182000Y0219500D01*
X0182000Y0220500D01*
X0186228Y0220500D01*
X0186131Y0221112D01*
X0185900Y0221823D01*
X0185561Y0222489D01*
X0185940Y0221699D02*
X0193867Y0221699D01*
X0193454Y0220701D02*
X0186196Y0220701D01*
X0186228Y0219500D02*
X0182000Y0219500D01*
X0182000Y0215272D01*
X0182612Y0215369D01*
X0183323Y0215600D01*
X0183989Y0215939D01*
X0184593Y0216378D01*
X0185122Y0216907D01*
X0185561Y0217511D01*
X0185900Y0218177D01*
X0186131Y0218888D01*
X0186228Y0219500D01*
X0186071Y0218704D02*
X0192658Y0218704D01*
X0193417Y0219702D02*
X0182000Y0219702D01*
X0182000Y0218704D02*
X0181000Y0218704D01*
X0181000Y0219702D02*
X0174697Y0219702D01*
X0175695Y0218704D02*
X0176929Y0218704D01*
X0176694Y0217705D02*
X0177340Y0217705D01*
X0177692Y0216707D02*
X0178079Y0216707D01*
X0178691Y0215708D02*
X0179465Y0215708D01*
X0179689Y0214710D02*
X0188664Y0214710D01*
X0189663Y0215708D02*
X0183535Y0215708D01*
X0182000Y0215708D02*
X0181000Y0215708D01*
X0181000Y0216707D02*
X0182000Y0216707D01*
X0182000Y0217705D02*
X0181000Y0217705D01*
X0181000Y0220701D02*
X0182000Y0220701D01*
X0182000Y0221699D02*
X0181000Y0221699D01*
X0181000Y0222698D02*
X0182000Y0222698D01*
X0182000Y0223696D02*
X0181000Y0223696D01*
X0181000Y0224695D02*
X0182000Y0224695D01*
X0182209Y0224695D02*
X0229769Y0224695D01*
X0228125Y0223696D02*
X0218885Y0223696D01*
X0219883Y0222698D02*
X0227206Y0222698D01*
X0226792Y0221699D02*
X0220800Y0221699D01*
X0220800Y0220701D02*
X0226500Y0220701D01*
X0226500Y0219702D02*
X0220800Y0219702D01*
X0220800Y0218704D02*
X0226625Y0218704D01*
X0227039Y0217705D02*
X0220286Y0217705D01*
X0219288Y0216707D02*
X0227722Y0216707D01*
X0228796Y0215708D02*
X0218700Y0215708D01*
X0218700Y0214710D02*
X0229805Y0214710D01*
X0228140Y0213711D02*
X0218870Y0213711D01*
X0219868Y0212713D02*
X0227212Y0212713D01*
X0226798Y0211714D02*
X0220800Y0211714D01*
X0220800Y0210716D02*
X0226500Y0210716D01*
X0226500Y0209717D02*
X0220800Y0209717D01*
X0220893Y0208719D02*
X0226619Y0208719D01*
X0227032Y0207720D02*
X0221891Y0207720D01*
X0222890Y0206722D02*
X0227707Y0206722D01*
X0228760Y0205723D02*
X0223888Y0205723D01*
X0224887Y0204725D02*
X0229841Y0204725D01*
X0228155Y0203726D02*
X0225885Y0203726D01*
X0226783Y0202728D02*
X0227218Y0202728D01*
X0226804Y0201729D02*
X0226783Y0201729D01*
X0226783Y0198323D02*
X0227261Y0197168D01*
X0228668Y0195761D01*
X0230505Y0195000D01*
X0232495Y0195000D01*
X0230505Y0195000D01*
X0228668Y0194239D01*
X0227261Y0192832D01*
X0226783Y0191677D01*
X0226783Y0198323D01*
X0226783Y0197735D02*
X0227026Y0197735D01*
X0226783Y0196737D02*
X0227692Y0196737D01*
X0226783Y0195738D02*
X0228724Y0195738D01*
X0229877Y0194739D02*
X0226783Y0194739D01*
X0226783Y0193741D02*
X0228170Y0193741D01*
X0227224Y0192742D02*
X0226783Y0192742D01*
X0226783Y0191744D02*
X0226810Y0191744D01*
X0226783Y0188323D02*
X0227261Y0187168D01*
X0228668Y0185761D01*
X0230505Y0185000D01*
X0232495Y0185000D01*
X0230505Y0185000D01*
X0228668Y0184239D01*
X0227261Y0182832D01*
X0226783Y0181677D01*
X0226783Y0188323D01*
X0226783Y0187750D02*
X0227020Y0187750D01*
X0226783Y0186751D02*
X0227678Y0186751D01*
X0226783Y0185753D02*
X0228688Y0185753D01*
X0229912Y0184754D02*
X0226783Y0184754D01*
X0226783Y0183756D02*
X0228185Y0183756D01*
X0227230Y0182757D02*
X0226783Y0182757D01*
X0226783Y0181759D02*
X0226817Y0181759D01*
X0222383Y0181759D02*
X0220800Y0181759D01*
X0220800Y0180760D02*
X0222383Y0180760D01*
X0222383Y0179762D02*
X0220800Y0179762D01*
X0220800Y0178763D02*
X0222383Y0178763D01*
X0222383Y0177765D02*
X0220346Y0177765D01*
X0219347Y0176766D02*
X0222383Y0176766D01*
X0222383Y0175768D02*
X0218349Y0175768D01*
X0218810Y0173771D02*
X0222383Y0173771D01*
X0222383Y0174769D02*
X0210357Y0174769D01*
X0209359Y0175768D02*
X0214651Y0175768D01*
X0213653Y0176766D02*
X0209630Y0176766D01*
X0210629Y0177765D02*
X0212654Y0177765D01*
X0212200Y0178763D02*
X0211000Y0178763D01*
X0207000Y0180760D02*
X0206000Y0180760D01*
X0206000Y0181759D02*
X0207000Y0181759D01*
X0207000Y0182757D02*
X0206000Y0182757D01*
X0206000Y0183756D02*
X0207000Y0183756D01*
X0203892Y0183756D02*
X0199030Y0183756D01*
X0200028Y0182757D02*
X0202893Y0182757D01*
X0202000Y0181759D02*
X0201027Y0181759D01*
X0200340Y0187750D02*
X0202669Y0187750D01*
X0202200Y0188748D02*
X0200753Y0188748D01*
X0196500Y0191260D02*
X0205240Y0191260D01*
X0206500Y0190000D01*
X0216000Y0195738D02*
X0217000Y0195738D01*
X0217000Y0196737D02*
X0216000Y0196737D01*
X0216000Y0197735D02*
X0217000Y0197735D01*
X0217000Y0198734D02*
X0216000Y0198734D01*
X0216000Y0200731D02*
X0217000Y0200731D01*
X0217000Y0201729D02*
X0216000Y0201729D01*
X0216000Y0202728D02*
X0217000Y0202728D01*
X0217000Y0203726D02*
X0216000Y0203726D01*
X0213862Y0203726D02*
X0208855Y0203726D01*
X0209854Y0202728D02*
X0212864Y0202728D01*
X0212000Y0201729D02*
X0210800Y0201729D01*
X0210800Y0200731D02*
X0212000Y0200731D01*
X0214696Y0205723D02*
X0208304Y0205723D01*
X0209303Y0206722D02*
X0213697Y0206722D01*
X0212699Y0207720D02*
X0210301Y0207720D01*
X0210800Y0208719D02*
X0212200Y0208719D01*
X0212200Y0209717D02*
X0210800Y0209717D01*
X0210800Y0210716D02*
X0212200Y0210716D01*
X0212200Y0211714D02*
X0210800Y0211714D01*
X0209868Y0212713D02*
X0213132Y0212713D01*
X0214130Y0213711D02*
X0208870Y0213711D01*
X0208289Y0215708D02*
X0214300Y0215708D01*
X0214300Y0214710D02*
X0193755Y0214710D01*
X0192757Y0213711D02*
X0204130Y0213711D01*
X0203132Y0212713D02*
X0198006Y0212713D01*
X0199127Y0211714D02*
X0202200Y0211714D01*
X0202200Y0210716D02*
X0199540Y0210716D01*
X0199583Y0209717D02*
X0202200Y0209717D01*
X0202200Y0208719D02*
X0199306Y0208719D01*
X0198580Y0207720D02*
X0202699Y0207720D01*
X0203697Y0206722D02*
X0198300Y0206722D01*
X0194700Y0206722D02*
X0184653Y0206722D01*
X0185478Y0207720D02*
X0194420Y0207720D01*
X0193694Y0208719D02*
X0187764Y0208719D01*
X0188763Y0209717D02*
X0193417Y0209717D01*
X0193460Y0210716D02*
X0189761Y0210716D01*
X0190760Y0211714D02*
X0193873Y0211714D01*
X0194994Y0212713D02*
X0191758Y0212713D01*
X0187666Y0213711D02*
X0184221Y0213711D01*
X0185219Y0212713D02*
X0186667Y0212713D01*
X0184921Y0216707D02*
X0190661Y0216707D01*
X0191660Y0217705D02*
X0185660Y0217705D01*
X0184490Y0223696D02*
X0204115Y0223696D01*
X0208885Y0223696D02*
X0214115Y0223696D01*
X0213117Y0222698D02*
X0209883Y0222698D01*
X0210800Y0221699D02*
X0212200Y0221699D01*
X0212200Y0220701D02*
X0210800Y0220701D01*
X0210800Y0219702D02*
X0212200Y0219702D01*
X0212200Y0218704D02*
X0210800Y0218704D01*
X0210286Y0217705D02*
X0212714Y0217705D01*
X0213712Y0216707D02*
X0209288Y0216707D01*
X0204711Y0215708D02*
X0194754Y0215708D01*
X0195752Y0216707D02*
X0203712Y0216707D01*
X0196500Y0210000D02*
X0196500Y0198740D01*
X0176804Y0220701D02*
X0173698Y0220701D01*
X0172700Y0221699D02*
X0177060Y0221699D01*
X0177591Y0222698D02*
X0171701Y0222698D01*
X0170703Y0223696D02*
X0178510Y0223696D01*
X0180790Y0224695D02*
X0169704Y0224695D01*
X0166601Y0213711D02*
X0166399Y0213711D01*
X0171971Y0205723D02*
X0154769Y0205723D01*
X0153726Y0202728D02*
X0158901Y0202728D01*
X0162760Y0200000D02*
X0146500Y0200000D01*
X0143688Y0198734D02*
X0093300Y0198734D01*
X0093300Y0199732D02*
X0143417Y0199732D01*
X0143466Y0200731D02*
X0093300Y0200731D01*
X0092317Y0201729D02*
X0143880Y0201729D01*
X0145030Y0202728D02*
X0091318Y0202728D01*
X0101500Y0185000D02*
X0101500Y0165000D01*
X0124481Y0142019D01*
X0122136Y0141818D02*
X0121681Y0141818D01*
X0120358Y0137795D02*
X0102642Y0137795D01*
X0102642Y0135118D01*
X0107760Y0130000D01*
X0115240Y0130000D02*
X0116500Y0130000D01*
X0121500Y0125000D01*
X0122701Y0127839D02*
X0133901Y0127839D01*
X0133901Y0126841D02*
X0124019Y0126841D01*
X0124488Y0125842D02*
X0134567Y0125842D01*
X0133984Y0123845D02*
X0124358Y0123845D01*
X0124583Y0124844D02*
X0143440Y0124844D01*
X0142048Y0125842D02*
X0140952Y0125842D01*
X0141536Y0123845D02*
X0141735Y0123845D01*
X0145240Y0120000D02*
X0145240Y0130000D01*
X0150358Y0135118D01*
X0137760Y0130000D02*
X0115240Y0130000D01*
X0116626Y0139821D02*
X0106374Y0139821D01*
X0105590Y0140820D02*
X0117410Y0140820D01*
X0119035Y0141818D02*
X0103965Y0141818D01*
X0105406Y0142817D02*
X0096936Y0142817D01*
X0097934Y0141818D02*
X0101319Y0141818D01*
X0099694Y0140820D02*
X0098933Y0140820D01*
X0097235Y0146811D02*
X0105034Y0146811D01*
X0116500Y0162546D02*
X0116500Y0170000D01*
X0109700Y0169777D02*
X0108300Y0169777D01*
X0108300Y0170775D02*
X0109700Y0170775D01*
X0109700Y0171774D02*
X0108300Y0171774D01*
X0108300Y0172772D02*
X0109368Y0172772D01*
X0109700Y0168778D02*
X0108300Y0168778D01*
X0108300Y0167780D02*
X0109700Y0167780D01*
X0109700Y0166781D02*
X0108300Y0166781D01*
X0108300Y0165783D02*
X0109700Y0165783D01*
X0109700Y0164784D02*
X0109261Y0164784D01*
X0104700Y0164784D02*
X0104261Y0164784D01*
X0104700Y0165783D02*
X0103300Y0165783D01*
X0103300Y0166781D02*
X0104700Y0166781D01*
X0104700Y0167780D02*
X0103300Y0167780D01*
X0103300Y0168778D02*
X0104700Y0168778D01*
X0104700Y0169777D02*
X0103300Y0169777D01*
X0103300Y0170775D02*
X0104700Y0170775D01*
X0104700Y0171774D02*
X0103300Y0171774D01*
X0103300Y0172772D02*
X0104700Y0172772D01*
X0104700Y0173771D02*
X0103300Y0173771D01*
X0103300Y0174769D02*
X0104700Y0174769D01*
X0104700Y0175768D02*
X0103300Y0175768D01*
X0103300Y0176766D02*
X0104700Y0176766D01*
X0104376Y0177765D02*
X0103300Y0177765D01*
X0103300Y0178763D02*
X0103676Y0178763D01*
X0103417Y0179762D02*
X0103300Y0179762D01*
X0103300Y0180760D02*
X0103478Y0180760D01*
X0103300Y0181759D02*
X0103899Y0181759D01*
X0103617Y0182757D02*
X0105101Y0182757D01*
X0107899Y0182757D02*
X0158901Y0182757D01*
X0156500Y0180000D02*
X0162760Y0180000D01*
X0166354Y0183756D02*
X0166646Y0183756D01*
X0167137Y0185753D02*
X0165863Y0185753D01*
X0162760Y0190000D02*
X0146500Y0190000D01*
X0141500Y0195000D01*
X0142952Y0197735D02*
X0144405Y0197735D01*
X0144117Y0196737D02*
X0158901Y0196737D01*
X0158901Y0197735D02*
X0148595Y0197735D01*
X0145305Y0193741D02*
X0159151Y0193741D01*
X0158901Y0192742D02*
X0146303Y0192742D01*
X0126500Y0195000D02*
X0126500Y0190000D01*
X0121500Y0190000D01*
X0121500Y0195000D01*
X0126500Y0195000D01*
X0126500Y0190000D02*
X0126500Y0185000D01*
X0121500Y0185000D01*
X0116500Y0185000D01*
X0116500Y0190000D01*
X0116500Y0195000D01*
X0121500Y0195000D01*
X0121500Y0190000D02*
X0116500Y0190000D01*
X0121500Y0190000D02*
X0121500Y0185000D01*
X0124795Y0156796D02*
X0153418Y0156796D01*
X0154417Y0155798D02*
X0125794Y0155798D01*
X0126792Y0154799D02*
X0155415Y0154799D01*
X0156414Y0153801D02*
X0127791Y0153801D01*
X0128789Y0152802D02*
X0157412Y0152802D01*
X0158411Y0151803D02*
X0129788Y0151803D01*
X0130786Y0150805D02*
X0158901Y0150805D01*
X0165923Y0145812D02*
X0167077Y0145812D01*
X0170240Y0150000D02*
X0170240Y0141260D01*
X0181500Y0130000D01*
X0181500Y0140000D02*
X0174674Y0146826D01*
X0176474Y0147809D02*
X0177485Y0147809D01*
X0177235Y0146811D02*
X0178257Y0146811D01*
X0178233Y0145812D02*
X0179725Y0145812D01*
X0179232Y0144814D02*
X0239421Y0144814D01*
X0239421Y0145812D02*
X0218394Y0145812D01*
X0219392Y0146811D02*
X0239421Y0146811D01*
X0239421Y0147809D02*
X0226752Y0147809D01*
X0227426Y0148808D02*
X0239421Y0148808D01*
X0239421Y0149806D02*
X0227665Y0149806D01*
X0227586Y0150805D02*
X0239421Y0150805D01*
X0239421Y0151803D02*
X0227139Y0151803D01*
X0226783Y0152802D02*
X0239421Y0152802D01*
X0239421Y0153801D02*
X0226783Y0153801D01*
X0226783Y0154799D02*
X0239421Y0154799D01*
X0239421Y0155798D02*
X0226783Y0155798D01*
X0226783Y0156796D02*
X0239421Y0156796D01*
X0239421Y0157795D02*
X0226783Y0157795D01*
X0226783Y0158793D02*
X0239421Y0158793D01*
X0239421Y0159792D02*
X0226783Y0159792D01*
X0226783Y0160790D02*
X0239421Y0160790D01*
X0239421Y0161789D02*
X0226783Y0161789D01*
X0226783Y0162787D02*
X0239421Y0162787D01*
X0239421Y0163786D02*
X0226783Y0163786D01*
X0226783Y0164784D02*
X0239421Y0164784D01*
X0239421Y0165783D02*
X0234542Y0165783D01*
X0234225Y0165553D02*
X0234888Y0166034D01*
X0235466Y0166612D01*
X0235947Y0167275D01*
X0236319Y0168004D01*
X0236572Y0168782D01*
X0236686Y0169500D01*
X0232000Y0169500D01*
X0232000Y0164814D01*
X0232718Y0164928D01*
X0233496Y0165181D01*
X0234225Y0165553D01*
X0235589Y0166781D02*
X0239421Y0166781D01*
X0239421Y0167780D02*
X0236205Y0167780D01*
X0236571Y0168778D02*
X0239421Y0168778D01*
X0239421Y0169777D02*
X0232000Y0169777D01*
X0232000Y0168778D02*
X0231000Y0168778D01*
X0231000Y0167780D02*
X0232000Y0167780D01*
X0232000Y0166781D02*
X0231000Y0166781D01*
X0231000Y0165783D02*
X0232000Y0165783D01*
X0228458Y0165783D02*
X0226783Y0165783D01*
X0226783Y0166781D02*
X0227411Y0166781D01*
X0226795Y0167780D02*
X0226783Y0167780D01*
X0222383Y0167780D02*
X0220361Y0167780D01*
X0220800Y0168778D02*
X0222383Y0168778D01*
X0222383Y0169777D02*
X0220800Y0169777D01*
X0220800Y0170775D02*
X0222383Y0170775D01*
X0222383Y0171774D02*
X0220800Y0171774D01*
X0219809Y0172772D02*
X0222383Y0172772D01*
X0222383Y0166781D02*
X0219362Y0166781D01*
X0218364Y0165783D02*
X0222383Y0165783D01*
X0222383Y0164784D02*
X0179261Y0164784D01*
X0179797Y0165783D02*
X0178263Y0165783D01*
X0178287Y0166781D02*
X0177264Y0166781D01*
X0177497Y0167780D02*
X0176474Y0167780D01*
X0176474Y0168778D02*
X0177083Y0168778D01*
X0176952Y0169777D02*
X0176474Y0169777D01*
X0176474Y0170775D02*
X0176952Y0170775D01*
X0177181Y0171774D02*
X0176474Y0171774D01*
X0176549Y0174951D02*
X0181500Y0170000D01*
X0183203Y0165783D02*
X0204636Y0165783D01*
X0203638Y0166781D02*
X0184713Y0166781D01*
X0185503Y0167780D02*
X0202639Y0167780D01*
X0202200Y0168778D02*
X0185917Y0168778D01*
X0186048Y0169777D02*
X0202200Y0169777D01*
X0202200Y0170775D02*
X0186048Y0170775D01*
X0185688Y0171774D02*
X0202200Y0171774D01*
X0203191Y0172772D02*
X0185160Y0172772D01*
X0184161Y0173771D02*
X0203924Y0173771D01*
X0211356Y0173771D02*
X0214190Y0173771D01*
X0213191Y0172772D02*
X0212354Y0172772D01*
X0212581Y0170000D02*
X0216500Y0170000D01*
X0216000Y0163786D02*
X0217000Y0163786D01*
X0217000Y0162787D02*
X0216000Y0162787D01*
X0216000Y0161789D02*
X0217000Y0161789D01*
X0217000Y0160790D02*
X0216000Y0160790D01*
X0216500Y0160000D02*
X0221500Y0165000D01*
X0222383Y0163786D02*
X0219078Y0163786D01*
X0220077Y0162787D02*
X0222383Y0162787D01*
X0222383Y0161789D02*
X0221000Y0161789D01*
X0221000Y0160790D02*
X0222383Y0160790D01*
X0222383Y0159792D02*
X0217000Y0159792D01*
X0219660Y0156796D02*
X0222383Y0156796D01*
X0222383Y0155798D02*
X0218661Y0155798D01*
X0218781Y0153801D02*
X0222383Y0153801D01*
X0222383Y0154799D02*
X0179247Y0154799D01*
X0179761Y0155798D02*
X0178349Y0155798D01*
X0181500Y0160000D02*
X0174674Y0166826D01*
X0174674Y0175172D01*
X0170240Y0179606D01*
X0170240Y0180000D01*
X0170240Y0170000D02*
X0170240Y0167370D01*
X0176549Y0161061D01*
X0184146Y0163786D02*
X0204205Y0163786D01*
X0203206Y0162787D02*
X0185145Y0162787D01*
X0185682Y0161789D02*
X0202208Y0161789D01*
X0202200Y0160790D02*
X0186048Y0160790D01*
X0186048Y0159792D02*
X0202200Y0159792D01*
X0202200Y0158793D02*
X0185923Y0158793D01*
X0185509Y0157795D02*
X0202624Y0157795D01*
X0203623Y0156796D02*
X0184728Y0156796D01*
X0183239Y0155798D02*
X0204621Y0155798D01*
X0204219Y0153801D02*
X0184131Y0153801D01*
X0185130Y0152802D02*
X0203221Y0152802D01*
X0202222Y0151803D02*
X0185676Y0151803D01*
X0186048Y0150805D02*
X0202200Y0150805D01*
X0202200Y0149806D02*
X0186048Y0149806D01*
X0185929Y0148808D02*
X0202200Y0148808D01*
X0202609Y0147809D02*
X0185515Y0147809D01*
X0184743Y0146811D02*
X0203608Y0146811D01*
X0209377Y0156796D02*
X0213340Y0156796D01*
X0212341Y0157795D02*
X0210376Y0157795D01*
X0210800Y0158793D02*
X0212000Y0158793D01*
X0220659Y0157795D02*
X0222383Y0157795D01*
X0222383Y0158793D02*
X0221000Y0158793D01*
X0219779Y0152802D02*
X0222383Y0152802D01*
X0222027Y0151803D02*
X0220778Y0151803D01*
X0220800Y0150805D02*
X0221579Y0150805D01*
X0221500Y0149806D02*
X0220800Y0149806D01*
X0220800Y0148808D02*
X0221740Y0148808D01*
X0222414Y0147809D02*
X0220391Y0147809D01*
X0218766Y0143815D02*
X0239421Y0143815D01*
X0239421Y0142817D02*
X0219764Y0142817D01*
X0220763Y0141818D02*
X0239421Y0141818D01*
X0239421Y0140820D02*
X0220800Y0140820D01*
X0220800Y0139821D02*
X0239421Y0139821D01*
X0239421Y0138823D02*
X0220800Y0138823D01*
X0220405Y0137824D02*
X0239421Y0137824D01*
X0239421Y0136826D02*
X0219407Y0136826D01*
X0217000Y0133830D02*
X0216000Y0133830D01*
X0216000Y0132832D02*
X0217000Y0132832D01*
X0217000Y0131833D02*
X0216000Y0131833D01*
X0216000Y0130835D02*
X0217000Y0130835D01*
X0221000Y0130835D02*
X0239421Y0130835D01*
X0239421Y0131833D02*
X0221000Y0131833D01*
X0218721Y0113860D02*
X0239421Y0113860D01*
X0239421Y0112862D02*
X0219720Y0112862D01*
X0220718Y0111863D02*
X0239421Y0111863D01*
X0239421Y0110865D02*
X0220800Y0110865D01*
X0220800Y0109866D02*
X0239421Y0109866D01*
X0239421Y0108868D02*
X0220800Y0108868D01*
X0220450Y0107869D02*
X0239421Y0107869D01*
X0239421Y0106870D02*
X0219452Y0106870D01*
X0218453Y0105872D02*
X0239421Y0105872D01*
X0239421Y0092891D02*
X0219690Y0092891D01*
X0220688Y0091893D02*
X0239421Y0091893D01*
X0239421Y0090894D02*
X0220800Y0090894D01*
X0220800Y0089896D02*
X0239421Y0089896D01*
X0239421Y0088897D02*
X0220800Y0088897D01*
X0220480Y0087899D02*
X0239421Y0087899D01*
X0239421Y0086900D02*
X0219481Y0086900D01*
X0218483Y0085902D02*
X0239421Y0085902D01*
X0217000Y0083905D02*
X0216000Y0083905D01*
X0216000Y0082906D02*
X0217000Y0082906D01*
X0217000Y0081908D02*
X0216000Y0081908D01*
X0216000Y0080909D02*
X0217000Y0080909D01*
X0212000Y0078912D02*
X0210800Y0078912D01*
X0210495Y0077914D02*
X0212222Y0077914D01*
X0213221Y0076915D02*
X0209496Y0076915D01*
X0208498Y0075917D02*
X0214219Y0075917D01*
X0214339Y0073920D02*
X0208661Y0073920D01*
X0209660Y0072921D02*
X0213340Y0072921D01*
X0212341Y0071923D02*
X0210659Y0071923D01*
X0210800Y0070924D02*
X0212200Y0070924D01*
X0212200Y0069926D02*
X0210800Y0069926D01*
X0210800Y0068927D02*
X0212200Y0068927D01*
X0212490Y0067929D02*
X0210510Y0067929D01*
X0209511Y0066930D02*
X0213489Y0066930D01*
X0214487Y0065932D02*
X0208513Y0065932D01*
X0208647Y0063934D02*
X0214071Y0063934D01*
X0213072Y0062936D02*
X0209645Y0062936D01*
X0210644Y0061937D02*
X0212074Y0061937D01*
X0212000Y0060939D02*
X0210800Y0060939D01*
X0210800Y0059940D02*
X0216000Y0059940D01*
X0216000Y0058942D02*
X0217000Y0058942D01*
X0217000Y0059940D02*
X0239421Y0059940D01*
X0239421Y0058942D02*
X0221000Y0058942D01*
X0220807Y0057943D02*
X0239421Y0057943D01*
X0239421Y0056945D02*
X0219809Y0056945D01*
X0217000Y0056945D02*
X0216000Y0056945D01*
X0216000Y0057943D02*
X0217000Y0057943D01*
X0217000Y0055946D02*
X0216000Y0055946D01*
X0214190Y0055946D02*
X0208528Y0055946D01*
X0209526Y0056945D02*
X0213191Y0056945D01*
X0212193Y0057943D02*
X0210525Y0057943D01*
X0210800Y0058942D02*
X0212000Y0058942D01*
X0216000Y0060939D02*
X0217000Y0060939D01*
X0217000Y0061937D02*
X0216000Y0061937D01*
X0216000Y0062936D02*
X0217000Y0062936D01*
X0217000Y0063934D02*
X0216000Y0063934D01*
X0219928Y0062936D02*
X0239421Y0062936D01*
X0239421Y0061937D02*
X0220926Y0061937D01*
X0221000Y0060939D02*
X0239421Y0060939D01*
X0239421Y0043964D02*
X0218617Y0043964D01*
X0219615Y0042966D02*
X0239421Y0042966D01*
X0239421Y0041967D02*
X0220614Y0041967D01*
X0220800Y0040969D02*
X0239421Y0040969D01*
X0239421Y0039970D02*
X0220800Y0039970D01*
X0220800Y0038972D02*
X0239421Y0038972D01*
X0239421Y0037973D02*
X0220554Y0037973D01*
X0219556Y0036975D02*
X0227680Y0036975D01*
X0235320Y0036975D02*
X0239421Y0036975D01*
X0239421Y0035976D02*
X0236704Y0035976D01*
X0237702Y0034978D02*
X0239421Y0034978D01*
X0239421Y0033979D02*
X0238409Y0033979D01*
X0238822Y0032981D02*
X0239421Y0032981D01*
X0239421Y0031982D02*
X0239236Y0031982D01*
X0239405Y0030984D02*
X0239421Y0030984D01*
X0239405Y0029985D02*
X0239421Y0029985D01*
X0239405Y0028987D02*
X0239421Y0028987D01*
X0239421Y0027988D02*
X0239223Y0027988D01*
X0239421Y0026990D02*
X0238810Y0026990D01*
X0238396Y0025991D02*
X0239421Y0025991D01*
X0239421Y0024993D02*
X0237673Y0024993D01*
X0236674Y0023994D02*
X0239421Y0023994D01*
X0239421Y0022996D02*
X0235248Y0022996D01*
X0227752Y0022996D02*
X0003500Y0022996D01*
X0003500Y0023994D02*
X0226326Y0023994D01*
X0214428Y0025991D02*
X0208855Y0025991D01*
X0209854Y0026990D02*
X0213429Y0026990D01*
X0212431Y0027988D02*
X0210852Y0027988D01*
X0207000Y0027988D02*
X0206000Y0027988D01*
X0206000Y0026990D02*
X0207000Y0026990D01*
X0207000Y0025991D02*
X0206000Y0025991D01*
X0206000Y0028987D02*
X0207000Y0028987D01*
X0208557Y0035976D02*
X0214443Y0035976D01*
X0213444Y0036975D02*
X0209556Y0036975D01*
X0210554Y0037973D02*
X0212446Y0037973D01*
X0212200Y0038972D02*
X0210800Y0038972D01*
X0210800Y0039970D02*
X0212200Y0039970D01*
X0212200Y0040969D02*
X0210800Y0040969D01*
X0210614Y0041967D02*
X0212386Y0041967D01*
X0213385Y0042966D02*
X0209615Y0042966D01*
X0208617Y0043964D02*
X0214383Y0043964D01*
X0214458Y0045961D02*
X0208542Y0045961D01*
X0209541Y0046960D02*
X0213459Y0046960D01*
X0212461Y0047958D02*
X0210539Y0047958D01*
X0210800Y0048957D02*
X0212200Y0048957D01*
X0212200Y0049955D02*
X0210800Y0049955D01*
X0210800Y0050954D02*
X0212200Y0050954D01*
X0212371Y0051952D02*
X0210629Y0051952D01*
X0209630Y0052951D02*
X0213370Y0052951D01*
X0214368Y0053949D02*
X0208632Y0053949D01*
X0203459Y0046960D02*
X0203300Y0046960D01*
X0203300Y0045961D02*
X0204458Y0045961D01*
X0204487Y0065932D02*
X0193114Y0065932D01*
X0192116Y0066930D02*
X0203489Y0066930D01*
X0202490Y0067929D02*
X0191117Y0067929D01*
X0190119Y0068927D02*
X0202200Y0068927D01*
X0202200Y0069926D02*
X0189120Y0069926D01*
X0190528Y0075917D02*
X0204502Y0075917D01*
X0203504Y0076915D02*
X0191526Y0076915D01*
X0192525Y0077914D02*
X0202505Y0077914D01*
X0202200Y0078912D02*
X0193523Y0078912D01*
X0194522Y0079911D02*
X0202200Y0079911D01*
X0202200Y0080909D02*
X0195520Y0080909D01*
X0196519Y0081908D02*
X0202327Y0081908D01*
X0203325Y0082906D02*
X0197517Y0082906D01*
X0198516Y0083905D02*
X0204324Y0083905D01*
X0192293Y0083905D02*
X0183958Y0083905D01*
X0185026Y0082906D02*
X0191295Y0082906D01*
X0190296Y0081908D02*
X0185633Y0081908D01*
X0186046Y0080909D02*
X0189298Y0080909D01*
X0188299Y0079911D02*
X0186048Y0079911D01*
X0185972Y0078912D02*
X0187301Y0078912D01*
X0186302Y0077914D02*
X0185559Y0077914D01*
X0177374Y0071923D02*
X0127126Y0071923D01*
X0131802Y0107981D02*
X0130249Y0108624D01*
X0129061Y0109812D01*
X0128419Y0111365D01*
X0128419Y0113045D01*
X0129061Y0114597D01*
X0130249Y0115785D01*
X0131802Y0116428D01*
X0133482Y0116428D01*
X0133935Y0116240D01*
X0133803Y0116468D01*
X0133701Y0116850D01*
X0133701Y0119500D01*
X0137260Y0119500D01*
X0137260Y0115547D01*
X0135272Y0115547D01*
X0136222Y0114597D01*
X0136865Y0113045D01*
X0136865Y0111365D01*
X0136222Y0109812D01*
X0135034Y0108624D01*
X0133482Y0107981D01*
X0131802Y0107981D01*
X0130006Y0108868D02*
X0124581Y0108868D01*
X0124581Y0109866D02*
X0129039Y0109866D01*
X0128626Y0110865D02*
X0124581Y0110865D01*
X0124581Y0111863D02*
X0128419Y0111863D01*
X0128419Y0112862D02*
X0124581Y0112862D01*
X0124581Y0113860D02*
X0128756Y0113860D01*
X0129323Y0114859D02*
X0124581Y0114859D01*
X0124391Y0115857D02*
X0130424Y0115857D01*
X0133701Y0116856D02*
X0119299Y0116856D01*
X0119299Y0117854D02*
X0133701Y0117854D01*
X0133701Y0118853D02*
X0119299Y0118853D01*
X0119299Y0120850D02*
X0133701Y0120850D01*
X0133701Y0121848D02*
X0119299Y0121848D01*
X0123706Y0122847D02*
X0133701Y0122847D01*
X0137260Y0122847D02*
X0138260Y0122847D01*
X0138260Y0123845D02*
X0137260Y0123845D01*
X0137260Y0121848D02*
X0138260Y0121848D01*
X0138260Y0120850D02*
X0137260Y0120850D01*
X0137260Y0119851D02*
X0115740Y0119851D01*
X0115740Y0118853D02*
X0114740Y0118853D01*
X0114740Y0117854D02*
X0115740Y0117854D01*
X0115740Y0116856D02*
X0114740Y0116856D01*
X0114740Y0115857D02*
X0115740Y0115857D01*
X0116135Y0114859D02*
X0105960Y0114859D01*
X0106527Y0113860D02*
X0116135Y0113860D01*
X0116135Y0112862D02*
X0106865Y0112862D01*
X0106865Y0111863D02*
X0116135Y0111863D01*
X0116135Y0110865D02*
X0106658Y0110865D01*
X0106244Y0109866D02*
X0116135Y0109866D01*
X0116135Y0108868D02*
X0105277Y0108868D01*
X0110967Y0115857D02*
X0111750Y0115857D01*
X0135960Y0114859D02*
X0146135Y0114859D01*
X0146135Y0113860D02*
X0136527Y0113860D01*
X0136865Y0112862D02*
X0146135Y0112862D01*
X0146135Y0111863D02*
X0136865Y0111863D01*
X0136658Y0110865D02*
X0146135Y0110865D01*
X0146135Y0109866D02*
X0136244Y0109866D01*
X0135277Y0108868D02*
X0146135Y0108868D01*
X0142033Y0115857D02*
X0141250Y0115857D01*
X0138260Y0115857D02*
X0137260Y0115857D01*
X0137260Y0116856D02*
X0138260Y0116856D01*
X0138260Y0117854D02*
X0137260Y0117854D01*
X0137260Y0118853D02*
X0138260Y0118853D01*
X0166500Y0112929D02*
X0169429Y0110000D01*
X0171500Y0110000D01*
X0181500Y0100000D01*
X0198700Y0101878D02*
X0202014Y0101878D01*
X0203012Y0102876D02*
X0198700Y0102876D01*
X0198700Y0105872D02*
X0204547Y0105872D01*
X0203548Y0106870D02*
X0198700Y0106870D01*
X0198729Y0107869D02*
X0202550Y0107869D01*
X0202200Y0108868D02*
X0199368Y0108868D01*
X0199583Y0109866D02*
X0202200Y0109866D01*
X0202200Y0110865D02*
X0199479Y0110865D01*
X0198997Y0111863D02*
X0202282Y0111863D01*
X0203280Y0112862D02*
X0197647Y0112862D01*
X0211000Y0098882D02*
X0212200Y0098882D01*
X0212535Y0097884D02*
X0210748Y0097884D01*
X0209749Y0096885D02*
X0213534Y0096885D01*
X0177071Y0148808D02*
X0176474Y0148808D01*
X0176474Y0149806D02*
X0176952Y0149806D01*
X0176952Y0150805D02*
X0176474Y0150805D01*
X0176474Y0151803D02*
X0177151Y0151803D01*
X0162760Y0160000D02*
X0156500Y0160000D01*
X0151500Y0165000D01*
X0151500Y0170000D02*
X0162760Y0170000D01*
X0166369Y0193741D02*
X0166631Y0193741D01*
X0166616Y0203726D02*
X0166384Y0203726D01*
X0218602Y0195738D02*
X0222383Y0195738D01*
X0222383Y0196737D02*
X0219600Y0196737D01*
X0220599Y0197735D02*
X0222383Y0197735D01*
X0233123Y0194739D02*
X0239421Y0194739D01*
X0239421Y0193741D02*
X0234830Y0193741D01*
X0235776Y0192742D02*
X0239421Y0192742D01*
X0239421Y0191744D02*
X0236190Y0191744D01*
X0236500Y0190745D02*
X0239421Y0190745D01*
X0239421Y0189747D02*
X0236500Y0189747D01*
X0236394Y0188748D02*
X0239421Y0188748D01*
X0239421Y0187750D02*
X0235980Y0187750D01*
X0235322Y0186751D02*
X0239421Y0186751D01*
X0239421Y0185753D02*
X0234312Y0185753D01*
X0233088Y0184754D02*
X0239421Y0184754D01*
X0239421Y0183756D02*
X0234815Y0183756D01*
X0235770Y0182757D02*
X0239421Y0182757D01*
X0239421Y0181759D02*
X0236183Y0181759D01*
X0236500Y0180760D02*
X0239421Y0180760D01*
X0239421Y0179762D02*
X0236500Y0179762D01*
X0236400Y0178763D02*
X0239421Y0178763D01*
X0239421Y0177765D02*
X0235986Y0177765D01*
X0235337Y0176766D02*
X0239421Y0176766D01*
X0239421Y0175768D02*
X0234339Y0175768D01*
X0233594Y0174769D02*
X0239421Y0174769D01*
X0239421Y0173771D02*
X0235083Y0173771D01*
X0235913Y0172772D02*
X0239421Y0172772D01*
X0239421Y0171774D02*
X0236391Y0171774D01*
X0236642Y0170775D02*
X0239421Y0170775D01*
X0222383Y0182757D02*
X0219824Y0182757D01*
X0234276Y0195738D02*
X0239421Y0195738D01*
X0239421Y0196737D02*
X0235308Y0196737D01*
X0235974Y0197735D02*
X0239421Y0197735D01*
X0239421Y0198734D02*
X0236387Y0198734D01*
X0236500Y0199732D02*
X0239421Y0199732D01*
X0239421Y0200731D02*
X0236500Y0200731D01*
X0236196Y0201729D02*
X0239421Y0201729D01*
X0239421Y0202728D02*
X0235782Y0202728D01*
X0234845Y0203726D02*
X0239421Y0203726D01*
X0239421Y0204725D02*
X0233159Y0204725D01*
X0234240Y0205723D02*
X0239421Y0205723D01*
X0239421Y0206722D02*
X0235293Y0206722D01*
X0235968Y0207720D02*
X0239421Y0207720D01*
X0239421Y0208719D02*
X0236381Y0208719D01*
X0236500Y0209717D02*
X0239421Y0209717D01*
X0239421Y0210716D02*
X0236500Y0210716D01*
X0236202Y0211714D02*
X0239421Y0211714D01*
X0239421Y0212713D02*
X0235788Y0212713D01*
X0234860Y0213711D02*
X0239421Y0213711D01*
X0239421Y0214710D02*
X0233195Y0214710D01*
X0234204Y0215708D02*
X0239421Y0215708D01*
X0239421Y0216707D02*
X0235278Y0216707D01*
X0235961Y0217705D02*
X0239421Y0217705D01*
X0239421Y0218704D02*
X0236375Y0218704D01*
X0236500Y0219702D02*
X0239421Y0219702D01*
X0239421Y0220701D02*
X0236500Y0220701D01*
X0236208Y0221699D02*
X0239421Y0221699D01*
X0239421Y0222698D02*
X0235794Y0222698D01*
X0234875Y0223696D02*
X0239421Y0223696D01*
X0239421Y0224695D02*
X0233231Y0224695D01*
X0089700Y0158200D02*
X0086500Y0155000D01*
X0083417Y0153177D02*
X0071500Y0141260D01*
X0065437Y0141260D01*
X0062365Y0140198D02*
X0057563Y0145000D01*
X0047563Y0135000D01*
X0046500Y0135000D01*
X0050923Y0131833D02*
X0063309Y0131833D01*
X0064170Y0132832D02*
X0051964Y0132832D01*
X0052420Y0133830D02*
X0065136Y0133830D01*
X0064138Y0134829D02*
X0052600Y0134829D01*
X0052562Y0135827D02*
X0063139Y0135827D01*
X0062140Y0136826D02*
X0052149Y0136826D01*
X0052933Y0137824D02*
X0061142Y0137824D01*
X0060565Y0138823D02*
X0053931Y0138823D01*
X0054930Y0139821D02*
X0060196Y0139821D01*
X0059198Y0140820D02*
X0055928Y0140820D01*
X0056927Y0141818D02*
X0058199Y0141818D01*
X0065437Y0148740D02*
X0071500Y0148740D01*
X0076500Y0153740D01*
X0076500Y0155000D01*
X0067247Y0151803D02*
X0053482Y0151803D01*
X0045395Y0148808D02*
X0045238Y0148808D01*
X0035600Y0145000D02*
X0035600Y0145000D01*
X0027400Y0142400D02*
X0026800Y0143000D01*
X0021460Y0128838D02*
X0021272Y0128838D01*
X0010502Y0140820D02*
X0003500Y0140820D01*
X0003500Y0141818D02*
X0009503Y0141818D01*
X0008505Y0142817D02*
X0003500Y0142817D01*
X0003500Y0143815D02*
X0007506Y0143815D01*
X0006508Y0144814D02*
X0003500Y0144814D01*
X0003500Y0145812D02*
X0005509Y0145812D01*
X0004511Y0146811D02*
X0003500Y0146811D01*
X0003500Y0147809D02*
X0003512Y0147809D01*
X0010260Y0163786D02*
X0010382Y0163786D01*
X0004700Y0180833D02*
X0016500Y0192633D01*
X0016500Y0195000D01*
X0021500Y0200000D01*
X0017563Y0196063D02*
X0016500Y0195000D01*
X0017563Y0196063D02*
X0031500Y0196063D01*
X0016500Y0205000D02*
X0016500Y0211063D01*
X0015020Y0211063D01*
X0011500Y0214583D01*
X0056800Y0095887D02*
X0057438Y0095887D01*
X0056800Y0094888D02*
X0058436Y0094888D01*
X0059435Y0093890D02*
X0056800Y0093890D01*
X0056800Y0092891D02*
X0060433Y0092891D01*
X0061432Y0091893D02*
X0056800Y0091893D01*
X0047000Y0084903D02*
X0046000Y0084903D01*
X0046000Y0083905D02*
X0047000Y0083905D01*
X0047000Y0082906D02*
X0046000Y0082906D01*
X0046000Y0081908D02*
X0047000Y0081908D01*
X0047000Y0080909D02*
X0046000Y0080909D01*
X0046000Y0079911D02*
X0047000Y0079911D01*
X0022000Y0079911D02*
X0021000Y0079911D01*
X0021000Y0080909D02*
X0022000Y0080909D01*
X0022000Y0081908D02*
X0021000Y0081908D01*
X0021000Y0082906D02*
X0022000Y0082906D01*
X0022000Y0083905D02*
X0021000Y0083905D01*
X0021000Y0084903D02*
X0022000Y0084903D01*
X0022000Y0074918D02*
X0021000Y0074918D01*
X0021000Y0073920D02*
X0022000Y0073920D01*
X0022000Y0072921D02*
X0021000Y0072921D01*
X0021000Y0071923D02*
X0022000Y0071923D01*
X0022000Y0070924D02*
X0021000Y0070924D01*
X0021000Y0069926D02*
X0022000Y0069926D01*
X0043973Y0043964D02*
X0048600Y0043964D01*
X0048600Y0042966D02*
X0044386Y0042966D01*
X0044926Y0041967D02*
X0048074Y0041967D01*
X0047262Y0040969D02*
X0045738Y0040969D01*
X0046151Y0039970D02*
X0046849Y0039970D01*
X0046657Y0038972D02*
X0046343Y0038972D01*
X0046343Y0037973D02*
X0046657Y0037973D01*
X0046657Y0036975D02*
X0046343Y0036975D01*
X0046343Y0035976D02*
X0046657Y0035976D01*
X0046657Y0034978D02*
X0046343Y0034978D01*
X0046343Y0033979D02*
X0046657Y0033979D01*
X0046657Y0032981D02*
X0046343Y0032981D01*
X0046343Y0031982D02*
X0046657Y0031982D01*
X0046657Y0030984D02*
X0046343Y0030984D01*
X0046133Y0029985D02*
X0046867Y0029985D01*
X0047281Y0028987D02*
X0045719Y0028987D01*
X0044881Y0027988D02*
X0048119Y0027988D01*
X0049628Y0026990D02*
X0043372Y0026990D01*
X0131500Y0029402D02*
X0136035Y0033937D01*
X0136549Y0027988D02*
X0139706Y0027988D01*
X0140751Y0026990D02*
X0136549Y0026990D01*
X0136532Y0025991D02*
X0142239Y0025991D01*
X0145398Y0024993D02*
X0135868Y0024993D01*
D34*
X0126500Y0075000D03*
X0121500Y0125000D03*
X0107583Y0145000D03*
X0096500Y0150000D03*
X0091500Y0145000D03*
X0086500Y0155000D03*
X0086500Y0160000D03*
X0086500Y0165000D03*
X0081500Y0170000D03*
X0076500Y0155000D03*
X0071500Y0155000D03*
X0071500Y0135000D03*
X0066500Y0130000D03*
X0071500Y0125000D03*
X0036500Y0165000D03*
X0036500Y0170000D03*
X0036500Y0175000D03*
X0031500Y0175000D03*
X0031500Y0170000D03*
X0031500Y0165000D03*
X0026500Y0165000D03*
X0026500Y0170000D03*
X0026500Y0175000D03*
X0021500Y0150000D03*
X0031500Y0100000D03*
X0031500Y0095000D03*
X0031500Y0080000D03*
X0031500Y0075000D03*
X0036500Y0075000D03*
X0036500Y0080000D03*
X0116500Y0170000D03*
X0111500Y0175000D03*
X0106500Y0180000D03*
X0101500Y0185000D03*
X0101500Y0195000D03*
X0116500Y0195000D03*
X0116500Y0190000D03*
X0116500Y0185000D03*
X0121500Y0185000D03*
X0121500Y0190000D03*
X0121500Y0195000D03*
X0126500Y0195000D03*
X0126500Y0190000D03*
X0126500Y0185000D03*
X0141500Y0195000D03*
X0146500Y0200000D03*
X0151500Y0175000D03*
X0151500Y0170000D03*
X0151500Y0165000D03*
X0151500Y0160000D03*
X0196500Y0110000D03*
X0224583Y0150000D03*
X0196500Y0210000D03*
X0196500Y0220000D03*
X0101500Y0215000D03*
X0021500Y0200000D03*
X0011500Y0214583D03*
D35*
X0021500Y0104250D02*
X0021500Y0099144D01*
X0014100Y0091744D01*
X0014100Y0063256D01*
X0019206Y0058150D01*
X0027494Y0058150D01*
X0028900Y0056744D01*
X0028900Y0044756D01*
X0026500Y0042356D01*
X0026500Y0035000D01*
X0020557Y0039057D02*
X0016500Y0035000D01*
X0020557Y0039057D02*
X0020557Y0041005D01*
X0021500Y0041948D01*
X0021500Y0050750D01*
X0035100Y0058401D02*
X0035100Y0029452D01*
X0039038Y0025513D01*
X0053962Y0025513D01*
X0057443Y0028995D01*
X0057443Y0029683D01*
X0087760Y0060000D01*
X0090281Y0057479D01*
X0090281Y0052592D01*
X0118973Y0023900D01*
X0136463Y0023900D01*
X0146500Y0033937D01*
X0103902Y0080000D02*
X0095240Y0071339D01*
X0095240Y0060000D01*
X0087760Y0060000D02*
X0087760Y0062283D01*
X0079098Y0070945D01*
X0076815Y0070945D01*
X0066500Y0081260D01*
X0053900Y0096850D02*
X0053900Y0063256D01*
X0048794Y0058150D01*
X0040506Y0058150D01*
X0039100Y0056744D01*
X0039100Y0044756D01*
X0041500Y0042356D01*
X0041500Y0035000D01*
X0051500Y0035000D02*
X0051500Y0045750D01*
X0046500Y0050750D01*
X0039400Y0062150D02*
X0038849Y0062150D01*
X0035100Y0058401D01*
X0039400Y0062150D02*
X0046500Y0069250D01*
X0046500Y0085750D01*
X0037250Y0095000D01*
X0031500Y0095000D01*
X0031500Y0100000D01*
X0021500Y0085750D02*
X0021500Y0069250D01*
X0046500Y0069250D01*
X0053900Y0096850D02*
X0046500Y0104250D01*
D36*
X0115240Y0120000D02*
X0137760Y0120000D01*
X0181500Y0210000D02*
X0166500Y0225000D01*
X0111500Y0225000D01*
X0101500Y0215000D01*
D37*
X0091500Y0145000D02*
X0097919Y0138581D01*
X0097919Y0110248D01*
X0103902Y0104265D01*
X0103902Y0080000D01*
D38*
X0086500Y0075845D02*
X0084402Y0073747D01*
X0081901Y0073747D01*
X0079098Y0070945D01*
X0086500Y0075845D02*
X0086500Y0099764D01*
X0076500Y0099764D02*
X0066500Y0089764D01*
X0066500Y0088740D01*
X0066815Y0089055D01*
X0079098Y0089055D01*
D39*
X0092098Y0104165D02*
X0092098Y0110000D01*
X0077098Y0125000D01*
X0071500Y0125000D01*
X0066500Y0130000D01*
X0092098Y0104165D02*
X0096500Y0099764D01*
D40*
X0151500Y0205000D03*
D41*
X0216500Y0210000D02*
X0216500Y0220000D01*
X0216500Y0210000D02*
X0224583Y0201917D01*
X0224583Y0150000D01*
X0196500Y0110000D02*
X0196500Y0085000D01*
X0186500Y0075000D01*
X0126500Y0075000D01*
M02*
